<svg width="1920" height="1080" viewBox="0 0 1920 1080" fill="none" xmlns="http://www.w3.org/2000/svg">
<g clip-path="url(#clip0_950_11292)">
<rect width="1920" height="1080" fill="white"/>
<path d="M0 0H1920V2233H0V0Z" fill="#202020"/>
<path d="M0 0H1920V2233H0V0Z" fill="#202020"/>
<g filter="url(#filter0_f_950_11292)">
<path d="M813.259 750.361C672.205 791.858 767.413 908.033 811.772 986.004C845.792 1005.85 859.502 1098.25 873.487 1134.18C903.294 1210.76 930.515 1284.21 1005.1 1334.41C1052.1 1366.04 1140.87 1406.53 1202.14 1401.63C1268.81 1396.3 1285.34 1353.96 1305.42 1302.53L1306.24 1300.44C1343.9 1204.02 1376.13 1038.4 1522.61 1048.89C1595.97 1054.14 1629.43 1169.85 1708.5 1134.91C1759.27 1112.47 1807.43 1047.45 1828.21 999.376C1879.34 881.141 1792.33 654.49 1638.24 674.463C1562.13 684.328 1484.39 690.511 1410.71 663.982C1348.01 641.41 1293.32 476.048 1229 454.22C1176.49 436.401 1322.87 618.08 1329 718.72C1330.55 744.169 1240.93 840.222 1202.14 858.22C1187.13 865.186 961 815.22 994.687 744.578C937.642 741.354 869.008 733.959 813.259 750.361Z" fill="url(#paint0_linear_950_11292)"/>
</g>
<g filter="url(#filter1_f_950_11292)">
<path d="M1048.45 860.951C1000.11 1067.8 717.863 1178.7 418.02 1108.64C118.176 1038.58 3.44867 377.848 51.7797 170.996C100.111 -35.8554 228.189 551.652 528.032 621.711C827.876 691.77 1096.78 654.099 1048.45 860.951Z" fill="#8349FF"/>
</g>
<g filter="url(#filter2_f_950_11292)">
<path d="M2137.68 1009.06C2216.75 1165.91 2002.64 1433.31 1659.45 1606.31C1316.25 1779.31 794.415 1470.72 715.346 1313.86C636.278 1157 1126.37 1412.76 1469.56 1239.76C1812.75 1066.76 2058.61 852.203 2137.68 1009.06Z" fill="#8349FF"/>
</g>
<g filter="url(#filter3_f_950_11292)">
<path d="M1533.75 261.643C1622.54 361.099 1627.62 437.01 1671.93 553.595C1757.46 778.643 1694.47 926.435 1796.13 1147.25C2003.56 1597.81 2362.26 179.531 1852.06 -79.7253C1531.32 -242.703 592.81 -281.774 875.739 -79.7253C988.731 0.96582 1096.88 -7.55371 1224.48 58.1226C1356.18 125.902 1443.13 160.149 1533.75 261.643Z" fill="url(#paint1_linear_950_11292)"/>
</g>
<g filter="url(#filter4_f_950_11292)">
<path d="M496.473 1594.64C585.27 1694.1 590.345 1770.01 634.655 1886.59C720.188 2111.64 657.192 2259.43 758.854 2480.25C966.287 2930.81 1324.99 1512.53 814.784 1253.27C494.051 1090.3 -444.463 1051.23 -161.534 1253.27C-48.5426 1333.97 59.6017 1325.45 187.209 1391.12C318.904 1458.9 405.856 1493.15 496.473 1594.64Z" fill="url(#paint2_linear_950_11292)"/>
</g>
<g filter="url(#filter5_f_950_11292)">
<path d="M735.265 470.581C877.137 459.035 969.955 397.643 1060.58 255.412C1244.16 -32.7223 178.881 -118.833 325.984 196.031C418.736 394.56 554.05 485.33 735.265 470.581Z" fill="#0011E0"/>
</g>
<g filter="url(#filter6_f_950_11292)">
<path d="M731.259 280.729C849.168 272.972 926.123 229.449 1000.97 128.186C1152.61 -76.9533 266.664 -142.119 390.047 83.2492C467.843 225.348 580.652 290.638 731.259 280.729Z" fill="#202020"/>
</g>
<path d="M597.568 1768.61C572.463 1628.6 505.588 1542.29 363.183 1466.09C74.6968 1311.73 101.267 2379.99 381.505 2202.74C558.201 2090.98 629.634 1947.45 597.568 1768.61Z" fill="#0011E0"/>
<path d="M595.123 1730.2C575.335 1613.7 524.161 1541.61 415.768 1477.52C196.182 1347.68 222.063 2235.64 433.615 2089.83C567.002 1997.9 620.399 1879 595.123 1730.2Z" fill="#202020"/>
<rect opacity="0.5" x="0.230469" width="1920" height="84" fill="#2F293A"/>
<path d="M67.1731 64.441C63.0991 64.441 59.3821 63.496 56.0221 61.606C52.6621 59.674 49.9951 57.007 48.0211 53.605C46.0891 50.161 45.1231 46.297 45.1231 42.013C45.1231 37.729 46.0891 33.886 48.0211 30.484C49.9951 27.04 52.6621 24.373 56.0221 22.483C59.3821 20.551 63.0991 19.585 67.1731 19.585C71.2891 19.585 75.0271 20.551 78.3871 22.483C81.7471 24.373 84.3931 27.019 86.3251 30.421C88.2571 33.823 89.2231 37.687 89.2231 42.013C89.2231 46.339 88.2571 50.203 86.3251 53.605C84.3931 57.007 81.7471 59.674 78.3871 61.606C75.0271 63.496 71.2891 64.441 67.1731 64.441ZM67.1731 59.464C70.2391 59.464 72.9901 58.75 75.4261 57.322C77.9041 55.894 79.8361 53.857 81.2221 51.211C82.6501 48.565 83.3641 45.499 83.3641 42.013C83.3641 38.485 82.6501 35.419 81.2221 32.815C79.8361 30.169 77.9251 28.132 75.4891 26.704C73.0531 25.276 70.2811 24.562 67.1731 24.562C64.0651 24.562 61.2931 25.276 58.8571 26.704C56.4211 28.132 54.4891 30.169 53.0611 32.815C51.6751 35.419 50.9821 38.485 50.9821 42.013C50.9821 45.499 51.6751 48.565 53.0611 51.211C54.4891 53.857 56.4211 55.894 58.8571 57.322C61.3351 58.75 64.1071 59.464 67.1731 59.464ZM128.669 29.476V64H122.936V58.897C121.844 60.661 120.311 62.047 118.337 63.055C116.405 64.021 114.263 64.504 111.911 64.504C109.223 64.504 106.808 63.958 104.666 62.866C102.524 61.732 100.823 60.052 99.5634 57.826C98.3454 55.6 97.7364 52.891 97.7364 49.699V29.476H103.406V48.943C103.406 52.345 104.267 54.97 105.989 56.818C107.711 58.624 110.063 59.527 113.045 59.527C116.111 59.527 118.526 58.582 120.29 56.692C122.054 54.802 122.936 52.051 122.936 48.439V29.476H128.669ZM146.602 34.201V54.55C146.602 56.23 146.959 57.427 147.673 58.141C148.387 58.813 149.626 59.149 151.39 59.149H155.611V64H150.445C147.253 64 144.859 63.265 143.263 61.795C141.667 60.325 140.869 57.91 140.869 54.55V34.201H136.396V29.476H140.869V20.782H146.602V29.476H155.611V34.201H146.602ZM169.551 17.38V64H163.818V17.38H169.551ZM186.314 35.083C187.322 33.109 188.75 31.576 190.598 30.484C192.488 29.392 194.777 28.846 197.465 28.846V34.768H195.953C189.527 34.768 186.314 38.254 186.314 45.226V64H180.581V29.476H186.314V35.083Z" fill="#EEEEEE"/>
<ellipse cx="204.605" cy="60.5806" rx="3.09824" ry="3.09677" fill="#925FF0"/>
<ellipse cx="56.5377" cy="41.4236" rx="3.09825" ry="3.09678" fill="#EEEEEE"/>
<ellipse cx="70.982" cy="31.9249" rx="3.09825" ry="3.09677" fill="#EEEEEE"/>
<ellipse cx="63.3043" cy="36.3565" rx="3.09825" ry="3.09677" fill="#EEEEEE"/>
<ellipse cx="64.5807" cy="51.3931" rx="3.09825" ry="3.09678" fill="#EEEEEE"/>
<ellipse cx="69.649" cy="39.2003" rx="3.09824" ry="3.09678" fill="#EEEEEE"/>
<ellipse cx="76.8209" cy="41.2781" rx="3.09825" ry="3.09677" fill="#EEEEEE"/>
<ellipse cx="64.6725" cy="44.137" rx="3.09825" ry="3.09677" fill="#EEEEEE"/>
<g filter="url(#filter9_d_950_11292)">
<path d="M1767.5 33C1767.5 23.8873 1774.89 16.5 1784 16.5H1854C1863.11 16.5 1870.5 23.8873 1870.5 33V51C1870.5 60.1127 1863.11 67.5 1854 67.5H1784C1774.89 67.5 1767.5 60.1127 1767.5 51V33Z" stroke="#909090" shape-rendering="crispEdges"/>
</g>
<path d="M1785.96 49.14C1785.04 49.14 1784.21 48.98 1783.48 48.66C1782.76 48.3267 1782.19 47.8733 1781.78 47.3C1781.37 46.7133 1781.15 46.04 1781.14 45.28H1783.08C1783.15 45.9333 1783.41 46.4867 1783.88 46.94C1784.36 47.38 1785.05 47.6 1785.96 47.6C1786.83 47.6 1787.51 47.3867 1788 46.96C1788.51 46.52 1788.76 45.96 1788.76 45.28C1788.76 44.7467 1788.61 44.3133 1788.32 43.98C1788.03 43.6467 1787.66 43.3933 1787.22 43.22C1786.78 43.0467 1786.19 42.86 1785.44 42.66C1784.52 42.42 1783.78 42.18 1783.22 41.94C1782.67 41.7 1782.2 41.3267 1781.8 40.82C1781.41 40.3 1781.22 39.6067 1781.22 38.74C1781.22 37.98 1781.41 37.3067 1781.8 36.72C1782.19 36.1333 1782.73 35.68 1783.42 35.36C1784.13 35.04 1784.93 34.88 1785.84 34.88C1787.15 34.88 1788.21 35.2067 1789.04 35.86C1789.88 36.5133 1790.35 37.38 1790.46 38.46H1788.46C1788.39 37.9267 1788.11 37.46 1787.62 37.06C1787.13 36.6467 1786.47 36.44 1785.66 36.44C1784.9 36.44 1784.28 36.64 1783.8 37.04C1783.32 37.4267 1783.08 37.9733 1783.08 38.68C1783.08 39.1867 1783.22 39.6 1783.5 39.92C1783.79 40.24 1784.15 40.4867 1784.56 40.66C1784.99 40.82 1785.58 41.0067 1786.34 41.22C1787.26 41.4733 1788 41.7267 1788.56 41.98C1789.12 42.22 1789.6 42.6 1790 43.12C1790.4 43.6267 1790.6 44.32 1790.6 45.2C1790.6 45.88 1790.42 46.52 1790.06 47.12C1789.7 47.72 1789.17 48.2067 1788.46 48.58C1787.75 48.9533 1786.92 49.14 1785.96 49.14ZM1794.62 36.26C1794.27 36.26 1793.98 36.14 1793.74 35.9C1793.5 35.66 1793.38 35.3667 1793.38 35.02C1793.38 34.6733 1793.5 34.38 1793.74 34.14C1793.98 33.9 1794.27 33.78 1794.62 33.78C1794.95 33.78 1795.23 33.9 1795.46 34.14C1795.7 34.38 1795.82 34.6733 1795.82 35.02C1795.82 35.3667 1795.7 35.66 1795.46 35.9C1795.23 36.14 1794.95 36.26 1794.62 36.26ZM1795.5 38.04V49H1793.68V38.04H1795.5ZM1803.52 37.86C1804.47 37.86 1805.29 38.0667 1806 38.48C1806.72 38.8933 1807.25 39.4133 1807.6 40.04V38.04H1809.44V49.24C1809.44 50.24 1809.23 51.1267 1808.8 51.9C1808.37 52.6867 1807.76 53.3 1806.96 53.74C1806.17 54.18 1805.25 54.4 1804.2 54.4C1802.76 54.4 1801.56 54.06 1800.6 53.38C1799.64 52.7 1799.07 51.7733 1798.9 50.6H1800.7C1800.9 51.2667 1801.31 51.8 1801.94 52.2C1802.57 52.6133 1803.32 52.82 1804.2 52.82C1805.2 52.82 1806.01 52.5067 1806.64 51.88C1807.28 51.2533 1807.6 50.3733 1807.6 49.24V46.94C1807.24 47.58 1806.71 48.1133 1806 48.54C1805.29 48.9667 1804.47 49.18 1803.52 49.18C1802.55 49.18 1801.66 48.94 1800.86 48.46C1800.07 47.98 1799.45 47.3067 1799 46.44C1798.55 45.5733 1798.32 44.5867 1798.32 43.48C1798.32 42.36 1798.55 41.38 1799 40.54C1799.45 39.6867 1800.07 39.0267 1800.86 38.56C1801.66 38.0933 1802.55 37.86 1803.52 37.86ZM1807.6 43.5C1807.6 42.6733 1807.43 41.9533 1807.1 41.34C1806.77 40.7267 1806.31 40.26 1805.74 39.94C1805.18 39.6067 1804.56 39.44 1803.88 39.44C1803.2 39.44 1802.58 39.6 1802.02 39.92C1801.46 40.24 1801.01 40.7067 1800.68 41.32C1800.35 41.9333 1800.18 42.6533 1800.18 43.48C1800.18 44.32 1800.35 45.0533 1800.68 45.68C1801.01 46.2933 1801.46 46.7667 1802.02 47.1C1802.58 47.42 1803.2 47.58 1803.88 47.58C1804.56 47.58 1805.18 47.42 1805.74 47.1C1806.31 46.7667 1806.77 46.2933 1807.1 45.68C1807.43 45.0533 1807.6 44.3267 1807.6 43.5ZM1818.26 37.84C1819.59 37.84 1820.67 38.2467 1821.5 39.06C1822.32 39.86 1822.74 41.02 1822.74 42.54V49H1820.94V42.8C1820.94 41.7067 1820.66 40.8733 1820.12 40.3C1819.57 39.7133 1818.82 39.42 1817.88 39.42C1816.92 39.42 1816.15 39.72 1815.58 40.32C1815.02 40.92 1814.74 41.7933 1814.74 42.94V49H1812.92V38.04H1814.74V39.6C1815.1 39.04 1815.58 38.6067 1816.2 38.3C1816.82 37.9933 1817.51 37.84 1818.26 37.84ZM1841.56 38.04V49H1839.74V47.38C1839.39 47.94 1838.91 48.38 1838.28 48.7C1837.67 49.0067 1836.99 49.16 1836.24 49.16C1835.39 49.16 1834.62 48.9867 1833.94 48.64C1833.26 48.28 1832.72 47.7467 1832.32 47.04C1831.93 46.3333 1831.74 45.4733 1831.74 44.46V38.04H1833.54V44.22C1833.54 45.3 1833.81 46.1333 1834.36 46.72C1834.91 47.2933 1835.65 47.58 1836.6 47.58C1837.57 47.58 1838.34 47.28 1838.9 46.68C1839.46 46.08 1839.74 45.2067 1839.74 44.06V38.04H1841.56ZM1846.85 40.06C1847.21 39.4333 1847.75 38.9133 1848.45 38.5C1849.17 38.0733 1850.01 37.86 1850.95 37.86C1851.93 37.86 1852.81 38.0933 1853.59 38.56C1854.39 39.0267 1855.02 39.6867 1855.47 40.54C1855.93 41.38 1856.15 42.36 1856.15 43.48C1856.15 44.5867 1855.93 45.5733 1855.47 46.44C1855.02 47.3067 1854.39 47.98 1853.59 48.46C1852.81 48.94 1851.93 49.18 1850.95 49.18C1850.02 49.18 1849.19 48.9733 1848.47 48.56C1847.77 48.1333 1847.23 47.6067 1846.85 46.98V54.2H1845.03V38.04H1846.85V40.06ZM1854.29 43.48C1854.29 42.6533 1854.13 41.9333 1853.79 41.32C1853.46 40.7067 1853.01 40.24 1852.43 39.92C1851.87 39.6 1851.25 39.44 1850.57 39.44C1849.91 39.44 1849.29 39.6067 1848.71 39.94C1848.15 40.26 1847.7 40.7333 1847.35 41.36C1847.02 41.9733 1846.85 42.6867 1846.85 43.5C1846.85 44.3267 1847.02 45.0533 1847.35 45.68C1847.7 46.2933 1848.15 46.7667 1848.71 47.1C1849.29 47.42 1849.91 47.58 1850.57 47.58C1851.25 47.58 1851.87 47.42 1852.43 47.1C1853.01 46.7667 1853.46 46.2933 1853.79 45.68C1854.13 45.0533 1854.29 44.32 1854.29 43.48Z" fill="white"/>
<path d="M1691.36 47.52H1696.24V49H1689.54V35.06H1691.36V47.52ZM1703.35 49.18C1702.33 49.18 1701.39 48.9467 1700.55 48.48C1699.73 48.0133 1699.07 47.3533 1698.59 46.5C1698.13 45.6333 1697.89 44.6333 1697.89 43.5C1697.89 42.38 1698.13 41.3933 1698.61 40.54C1699.11 39.6733 1699.77 39.0133 1700.61 38.56C1701.45 38.0933 1702.39 37.86 1703.43 37.86C1704.47 37.86 1705.41 38.0933 1706.25 38.56C1707.09 39.0133 1707.75 39.6667 1708.23 40.52C1708.73 41.3733 1708.97 42.3667 1708.97 43.5C1708.97 44.6333 1708.72 45.6333 1708.21 46.5C1707.72 47.3533 1707.05 48.0133 1706.19 48.48C1705.34 48.9467 1704.39 49.18 1703.35 49.18ZM1703.35 47.58C1704.01 47.58 1704.62 47.4267 1705.19 47.12C1705.77 46.8133 1706.23 46.3533 1706.57 45.74C1706.93 45.1267 1707.11 44.38 1707.11 43.5C1707.11 42.62 1706.94 41.8733 1706.59 41.26C1706.25 40.6467 1705.79 40.1933 1705.23 39.9C1704.67 39.5933 1704.07 39.44 1703.41 39.44C1702.75 39.44 1702.13 39.5933 1701.57 39.9C1701.03 40.1933 1700.59 40.6467 1700.25 41.26C1699.92 41.8733 1699.75 42.62 1699.75 43.5C1699.75 44.3933 1699.91 45.1467 1700.23 45.76C1700.57 46.3733 1701.01 46.8333 1701.55 47.14C1702.1 47.4333 1702.7 47.58 1703.35 47.58ZM1716.29 37.86C1717.23 37.86 1718.06 38.0667 1718.77 38.48C1719.49 38.8933 1720.02 39.4133 1720.37 40.04V38.04H1722.21V49.24C1722.21 50.24 1721.99 51.1267 1721.57 51.9C1721.14 52.6867 1720.53 53.3 1719.73 53.74C1718.94 54.18 1718.02 54.4 1716.97 54.4C1715.53 54.4 1714.33 54.06 1713.37 53.38C1712.41 52.7 1711.84 51.7733 1711.67 50.6H1713.47C1713.67 51.2667 1714.08 51.8 1714.71 52.2C1715.33 52.6133 1716.09 52.82 1716.97 52.82C1717.97 52.82 1718.78 52.5067 1719.41 51.88C1720.05 51.2533 1720.37 50.3733 1720.37 49.24V46.94C1720.01 47.58 1719.47 48.1133 1718.77 48.54C1718.06 48.9667 1717.23 49.18 1716.29 49.18C1715.31 49.18 1714.43 48.94 1713.63 48.46C1712.84 47.98 1712.22 47.3067 1711.77 46.44C1711.31 45.5733 1711.09 44.5867 1711.09 43.48C1711.09 42.36 1711.31 41.38 1711.77 40.54C1712.22 39.6867 1712.84 39.0267 1713.63 38.56C1714.43 38.0933 1715.31 37.86 1716.29 37.86ZM1720.37 43.5C1720.37 42.6733 1720.2 41.9533 1719.87 41.34C1719.53 40.7267 1719.08 40.26 1718.51 39.94C1717.95 39.6067 1717.33 39.44 1716.65 39.44C1715.97 39.44 1715.35 39.6 1714.79 39.92C1714.23 40.24 1713.78 40.7067 1713.45 41.32C1713.11 41.9333 1712.95 42.6533 1712.95 43.48C1712.95 44.32 1713.11 45.0533 1713.45 45.68C1713.78 46.2933 1714.23 46.7667 1714.79 47.1C1715.35 47.42 1715.97 47.58 1716.65 47.58C1717.33 47.58 1717.95 47.42 1718.51 47.1C1719.08 46.7667 1719.53 46.2933 1719.87 45.68C1720.2 45.0533 1720.37 44.3267 1720.37 43.5ZM1726.62 36.26C1726.27 36.26 1725.98 36.14 1725.74 35.9C1725.5 35.66 1725.38 35.3667 1725.38 35.02C1725.38 34.6733 1725.5 34.38 1725.74 34.14C1725.98 33.9 1726.27 33.78 1726.62 33.78C1726.95 33.78 1727.23 33.9 1727.46 34.14C1727.7 34.38 1727.82 34.6733 1727.82 35.02C1727.82 35.3667 1727.7 35.66 1727.46 35.9C1727.23 36.14 1726.95 36.26 1726.62 36.26ZM1727.5 38.04V49H1725.68V38.04H1727.5ZM1736.34 37.84C1737.68 37.84 1738.76 38.2467 1739.58 39.06C1740.41 39.86 1740.82 41.02 1740.82 42.54V49H1739.02V42.8C1739.02 41.7067 1738.75 40.8733 1738.2 40.3C1737.66 39.7133 1736.91 39.42 1735.96 39.42C1735 39.42 1734.24 39.72 1733.66 40.32C1733.1 40.92 1732.82 41.7933 1732.82 42.94V49H1731V38.04H1732.82V39.6C1733.18 39.04 1733.67 38.6067 1734.28 38.3C1734.91 37.9933 1735.6 37.84 1736.34 37.84Z" fill="white"/>
<path d="M1066.73 2403.41C1122.45 2539.47 1228.27 2432.87 1301.29 2380.76C1317.54 2344.89 1408.06 2321.79 1442.37 2304.2C1515.5 2266.71 1585.77 2232.11 1628.07 2152.78C1654.72 2102.79 1685.91 2010.34 1674.76 1949.89C1662.47 1883.23 1617.63 1871.69 1563.44 1856.7C1463.67 1829.1 1295.63 1814 1291.07 1667.22C1288.78 1593.71 1400.45 1548.58 1357.6 1473.5C1330.09 1425.29 1260.47 1384.05 1210.52 1368.29C1087.67 1329.53 871.125 1439.3 906.769 1590.54C924.373 1665.23 938.483 1741.93 919.637 1817.94C903.602 1882.62 862.777 1934.79 847.648 2001.01C835.298 2055.06 797.87 2200.29 897.353 2183.89C922.51 2179.74 1013.32 2120.25 1035.19 2156.99C1043.66 2171.21 1042.08 2216.43 1042.4 2223.52C1045.04 2280.6 1044.71 2349.63 1066.73 2403.41Z" fill="url(#paint3_linear_950_11292)"/>
<g clip-path="url(#clip1_950_11292)">
<path d="M698.433 520.896C677.287 520.896 658.175 516.331 641.095 507.202C624.016 497.87 610.596 484.784 600.837 467.946C591.077 451.107 586.197 431.835 586.197 410.127C586.197 388.419 591.077 369.147 600.837 352.308C610.596 335.47 624.016 322.384 641.095 313.052C658.175 303.72 677.287 299.054 698.433 299.054C719.579 299.054 738.692 303.72 755.771 313.052C772.85 322.384 786.27 335.47 796.03 352.308C805.789 369.147 810.669 388.419 810.669 410.127C810.669 431.835 805.789 451.107 796.03 467.946C786.27 484.784 772.85 497.87 755.771 507.202C738.692 516.331 719.579 520.896 698.433 520.896ZM698.433 492.899C713.479 492.899 727.102 489.552 739.302 482.857C751.704 475.959 761.464 466.323 768.581 453.948C775.697 441.369 779.255 426.763 779.255 410.127C779.255 393.694 775.697 379.29 768.581 366.915C761.668 354.337 752.111 344.7 739.912 338.006C727.712 331.108 714.089 327.659 699.043 327.659C683.794 327.659 669.967 331.006 657.565 337.701C645.365 344.396 635.605 354.032 628.286 366.611C621.169 379.189 617.611 393.694 617.611 410.127C617.611 426.763 621.169 441.369 628.286 453.948C635.402 466.323 645.06 475.959 657.26 482.857C669.662 489.552 683.387 492.899 698.433 492.899Z" fill="#EEEEEE"/>
<path d="M908.622 520.896C888.9 520.896 873.955 515.62 863.788 505.072C853.826 494.522 848.844 480.423 848.844 462.773V370.262H879.648V461.555C879.648 484.886 891.34 496.551 914.721 496.551C935.258 496.551 951.32 487.32 962.91 468.859V370.262H993.713V516.331H963.824V495.638C956.912 504.361 948.678 510.751 939.12 514.81C929.768 518.868 919.601 520.896 908.622 520.896ZM1095.77 520.896C1080.92 520.896 1069.44 516.635 1061.3 508.115C1053.37 499.594 1049.41 487.523 1049.41 471.902V393.999H1027.15V370.262H1049.41V326.442H1080.52V370.262H1116.51V393.999H1080.52V469.772C1080.52 479.51 1082.35 486.407 1086.01 490.465C1089.87 494.522 1096.78 496.551 1106.75 496.551C1112.64 496.551 1118.54 495.232 1124.44 492.595V516.94C1116.71 519.576 1107.15 520.896 1095.77 520.896ZM1159.52 291.446H1190.32V516.331H1159.52V291.446ZM1236.2 370.262H1266.09V396.433C1272.19 387.507 1280.73 380.913 1291.71 376.653C1302.9 372.393 1315.81 370.262 1330.45 370.262V394.303C1314.79 394.303 1301.37 396.839 1290.19 401.911C1279 406.982 1271.28 414.996 1267.01 425.951V516.331H1236.2V370.262Z" fill="#EEEEEE"/>
<path d="M655.308 427.685C663.056 427.685 669.337 421.418 669.337 413.687C669.337 405.956 663.056 399.689 655.308 399.689C647.56 399.689 641.278 405.956 641.278 413.687C641.278 421.418 647.56 427.685 655.308 427.685Z" fill="#EEEEEE"/>
<path d="M718.278 384.869C726.026 384.869 732.307 378.602 732.307 370.871C732.307 363.14 726.026 356.873 718.278 356.873C710.529 356.873 704.248 363.14 704.248 370.871C704.248 378.602 710.529 384.869 718.278 384.869Z" fill="#EEEEEE"/>
<path d="M684.806 404.845C692.554 404.845 698.835 398.578 698.835 390.847C698.835 383.116 692.554 376.849 684.806 376.849C677.058 376.849 670.776 383.116 670.776 390.847C670.776 398.578 677.058 404.845 684.806 404.845Z" fill="#EEEEEE"/>
<path d="M690.37 472.624C698.119 472.624 704.4 466.357 704.4 458.626C704.4 450.895 698.119 444.627 690.37 444.627C682.622 444.627 676.341 450.895 676.341 458.626C676.341 466.357 682.622 472.624 690.37 472.624Z" fill="#EEEEEE"/>
<path d="M712.467 417.664C720.215 417.664 726.496 411.396 726.496 403.665C726.496 395.934 720.215 389.667 712.467 389.667C704.719 389.667 698.438 395.934 698.438 403.665C698.438 411.396 704.719 417.664 712.467 417.664Z" fill="#EEEEEE"/>
<path d="M743.731 427.03C751.479 427.03 757.76 420.763 757.76 413.032C757.76 405.301 751.479 399.033 743.731 399.033C735.982 399.033 729.701 405.301 729.701 413.032C729.701 420.763 735.982 427.03 743.731 427.03Z" fill="#EEEEEE"/>
<path d="M690.771 439.916C698.519 439.916 704.8 433.649 704.8 425.918C704.8 418.187 698.519 411.92 690.771 411.92C683.022 411.92 676.741 418.187 676.741 425.918C676.741 433.649 683.022 439.916 690.771 439.916Z" fill="#EEEEEE"/>
<path d="M1319.7 516.331C1327.44 516.331 1333.72 510.064 1333.72 502.333C1333.72 494.602 1327.44 488.335 1319.7 488.335C1311.95 488.335 1305.67 494.602 1305.67 502.333C1305.67 510.064 1311.95 516.331 1319.7 516.331Z" fill="#925FF0"/>
</g>
<g filter="url(#filter11_d_950_11292)">
<path d="M714 717C714 707.611 721.611 700 731 700H897C906.389 700 914 707.611 914 717V783C914 792.389 906.389 800 897 800H731C721.611 800 714 792.389 714 783V717Z" fill="#361F61"/>
</g>
<path d="M772.649 759.175C771.499 759.175 770.466 758.975 769.549 758.575C768.649 758.158 767.941 757.592 767.424 756.875C766.908 756.142 766.641 755.3 766.624 754.35H769.049C769.133 755.167 769.466 755.858 770.049 756.425C770.649 756.975 771.516 757.25 772.649 757.25C773.733 757.25 774.583 756.983 775.199 756.45C775.833 755.9 776.149 755.2 776.149 754.35C776.149 753.683 775.966 753.142 775.599 752.725C775.233 752.308 774.774 751.992 774.224 751.775C773.674 751.558 772.933 751.325 771.999 751.075C770.849 750.775 769.924 750.475 769.224 750.175C768.541 749.875 767.949 749.408 767.449 748.775C766.966 748.125 766.724 747.258 766.724 746.175C766.724 745.225 766.966 744.383 767.449 743.65C767.933 742.917 768.608 742.35 769.474 741.95C770.358 741.55 771.366 741.35 772.499 741.35C774.133 741.35 775.466 741.758 776.499 742.575C777.549 743.392 778.141 744.475 778.274 745.825H775.774C775.691 745.158 775.341 744.575 774.724 744.075C774.108 743.558 773.291 743.3 772.274 743.3C771.324 743.3 770.549 743.55 769.949 744.05C769.349 744.533 769.049 745.217 769.049 746.1C769.049 746.733 769.224 747.25 769.574 747.65C769.941 748.05 770.383 748.358 770.899 748.575C771.433 748.775 772.174 749.008 773.124 749.275C774.274 749.592 775.199 749.908 775.899 750.225C776.599 750.525 777.199 751 777.699 751.65C778.199 752.283 778.449 753.15 778.449 754.25C778.449 755.1 778.224 755.9 777.774 756.65C777.324 757.4 776.658 758.008 775.774 758.475C774.891 758.942 773.849 759.175 772.649 759.175ZM783.472 743.075C783.039 743.075 782.672 742.925 782.372 742.625C782.072 742.325 781.922 741.958 781.922 741.525C781.922 741.092 782.072 740.725 782.372 740.425C782.672 740.125 783.039 739.975 783.472 739.975C783.889 739.975 784.239 740.125 784.522 740.425C784.822 740.725 784.972 741.092 784.972 741.525C784.972 741.958 784.822 742.325 784.522 742.625C784.239 742.925 783.889 743.075 783.472 743.075ZM784.572 745.3V759H782.297V745.3H784.572ZM794.599 745.075C795.783 745.075 796.816 745.333 797.699 745.85C798.599 746.367 799.266 747.017 799.699 747.8V745.3H801.999V759.3C801.999 760.55 801.733 761.658 801.199 762.625C800.666 763.608 799.899 764.375 798.899 764.925C797.916 765.475 796.766 765.75 795.449 765.75C793.649 765.75 792.149 765.325 790.949 764.475C789.749 763.625 789.041 762.467 788.824 761H791.074C791.324 761.833 791.841 762.5 792.624 763C793.408 763.517 794.349 763.775 795.449 763.775C796.699 763.775 797.716 763.383 798.499 762.6C799.299 761.817 799.699 760.717 799.699 759.3V756.425C799.249 757.225 798.583 757.892 797.699 758.425C796.816 758.958 795.783 759.225 794.599 759.225C793.383 759.225 792.274 758.925 791.274 758.325C790.291 757.725 789.516 756.883 788.949 755.8C788.383 754.717 788.099 753.483 788.099 752.1C788.099 750.7 788.383 749.475 788.949 748.425C789.516 747.358 790.291 746.533 791.274 745.95C792.274 745.367 793.383 745.075 794.599 745.075ZM799.699 752.125C799.699 751.092 799.491 750.192 799.074 749.425C798.658 748.658 798.091 748.075 797.374 747.675C796.674 747.258 795.899 747.05 795.049 747.05C794.199 747.05 793.424 747.25 792.724 747.65C792.024 748.05 791.466 748.633 791.049 749.4C790.633 750.167 790.424 751.067 790.424 752.1C790.424 753.15 790.633 754.067 791.049 754.85C791.466 755.617 792.024 756.208 792.724 756.625C793.424 757.025 794.199 757.225 795.049 757.225C795.899 757.225 796.674 757.025 797.374 756.625C798.091 756.208 798.658 755.617 799.074 754.85C799.491 754.067 799.699 753.158 799.699 752.125ZM813.019 745.05C814.686 745.05 816.036 745.558 817.069 746.575C818.102 747.575 818.619 749.025 818.619 750.925V759H816.369V751.25C816.369 749.883 816.027 748.842 815.344 748.125C814.661 747.392 813.727 747.025 812.544 747.025C811.344 747.025 810.386 747.4 809.669 748.15C808.969 748.9 808.619 749.992 808.619 751.425V759H806.344V745.3H808.619V747.25C809.069 746.55 809.677 746.008 810.444 745.625C811.227 745.242 812.086 745.05 813.019 745.05ZM832.225 741.575V752.6C832.225 754.15 832.6 755.3 833.35 756.05C834.117 756.8 835.175 757.175 836.525 757.175C837.859 757.175 838.9 756.8 839.65 756.05C840.417 755.3 840.8 754.15 840.8 752.6V741.575H843.075V752.575C843.075 754.025 842.784 755.25 842.2 756.25C841.617 757.233 840.825 757.967 839.825 758.45C838.842 758.933 837.734 759.175 836.5 759.175C835.267 759.175 834.15 758.933 833.15 758.45C832.167 757.967 831.384 757.233 830.8 756.25C830.234 755.25 829.95 754.025 829.95 752.575V741.575H832.225ZM849.645 747.825C850.095 747.042 850.762 746.392 851.645 745.875C852.545 745.342 853.587 745.075 854.77 745.075C855.987 745.075 857.087 745.367 858.07 745.95C859.07 746.533 859.854 747.358 860.42 748.425C860.987 749.475 861.27 750.7 861.27 752.1C861.27 753.483 860.987 754.717 860.42 755.8C859.854 756.883 859.07 757.725 858.07 758.325C857.087 758.925 855.987 759.225 854.77 759.225C853.604 759.225 852.57 758.967 851.67 758.45C850.787 757.917 850.112 757.258 849.645 756.475V765.5H847.37V745.3H849.645V747.825ZM858.945 752.1C858.945 751.067 858.737 750.167 858.32 749.4C857.904 748.633 857.337 748.05 856.62 747.65C855.92 747.25 855.145 747.05 854.295 747.05C853.462 747.05 852.687 747.258 851.97 747.675C851.27 748.075 850.704 748.667 850.27 749.45C849.854 750.217 849.645 751.108 849.645 752.125C849.645 753.158 849.854 754.067 850.27 754.85C850.704 755.617 851.27 756.208 851.97 756.625C852.687 757.025 853.462 757.225 854.295 757.225C855.145 757.225 855.92 757.025 856.62 756.625C857.337 756.208 857.904 755.617 858.32 754.85C858.737 754.067 858.945 753.15 858.945 752.1Z" fill="#EEEEEE"/>
<rect x="1006.5" y="700.5" width="199" height="99" rx="16.5" stroke="#909090"/>
<path d="M1063.44 741.575V743.425H1058.69V759H1056.42V743.425H1051.64V741.575H1063.44ZM1069.02 747.525C1069.42 746.742 1069.98 746.133 1070.72 745.7C1071.47 745.267 1072.38 745.05 1073.44 745.05V747.4H1072.84C1070.29 747.4 1069.02 748.783 1069.02 751.55V759H1066.74V745.3H1069.02V747.525ZM1088.37 745.3L1080.12 765.45H1077.77L1080.47 758.85L1074.94 745.3H1077.47L1081.77 756.4L1086.02 745.3H1088.37ZM1099.5 743.075C1099.06 743.075 1098.7 742.925 1098.4 742.625C1098.1 742.325 1097.95 741.958 1097.95 741.525C1097.95 741.092 1098.1 740.725 1098.4 740.425C1098.7 740.125 1099.06 739.975 1099.5 739.975C1099.91 739.975 1100.26 740.125 1100.55 740.425C1100.85 740.725 1101 741.092 1101 741.525C1101 741.958 1100.85 742.325 1100.55 742.625C1100.26 742.925 1099.91 743.075 1099.5 743.075ZM1100.6 745.3V759H1098.32V745.3H1100.6ZM1107.75 747.175V755.25C1107.75 755.917 1107.89 756.392 1108.17 756.675C1108.46 756.942 1108.95 757.075 1109.65 757.075H1111.32V759H1109.27C1108.01 759 1107.06 758.708 1106.42 758.125C1105.79 757.542 1105.47 756.583 1105.47 755.25V747.175H1103.7V745.3H1105.47V741.85H1107.75V745.3H1111.32V747.175H1107.75ZM1127.72 759.225C1126.44 759.225 1125.27 758.933 1124.22 758.35C1123.19 757.767 1122.37 756.942 1121.77 755.875C1121.19 754.792 1120.89 753.542 1120.89 752.125C1120.89 750.725 1121.19 749.492 1121.79 748.425C1122.41 747.342 1123.24 746.517 1124.29 745.95C1125.34 745.367 1126.52 745.075 1127.82 745.075C1129.12 745.075 1130.29 745.367 1131.34 745.95C1132.39 746.517 1133.22 747.333 1133.82 748.4C1134.44 749.467 1134.74 750.708 1134.74 752.125C1134.74 753.542 1134.43 754.792 1133.79 755.875C1133.18 756.942 1132.34 757.767 1131.27 758.35C1130.2 758.933 1129.02 759.225 1127.72 759.225ZM1127.72 757.225C1128.54 757.225 1129.3 757.033 1130.02 756.65C1130.74 756.267 1131.31 755.692 1131.74 754.925C1132.19 754.158 1132.42 753.225 1132.42 752.125C1132.42 751.025 1132.2 750.092 1131.77 749.325C1131.34 748.558 1130.77 747.992 1130.07 747.625C1129.37 747.242 1128.61 747.05 1127.79 747.05C1126.96 747.05 1126.19 747.242 1125.49 747.625C1124.81 747.992 1124.26 748.558 1123.84 749.325C1123.43 750.092 1123.22 751.025 1123.22 752.125C1123.22 753.242 1123.42 754.183 1123.82 754.95C1124.24 755.717 1124.79 756.292 1125.47 756.675C1126.15 757.042 1126.9 757.225 1127.72 757.225ZM1150.39 745.3V759H1148.11V756.975C1147.68 757.675 1147.07 758.225 1146.29 758.625C1145.52 759.008 1144.67 759.2 1143.74 759.2C1142.67 759.2 1141.71 758.983 1140.86 758.55C1140.01 758.1 1139.34 757.433 1138.84 756.55C1138.35 755.667 1138.11 754.592 1138.11 753.325V745.3H1140.36V753.025C1140.36 754.375 1140.7 755.417 1141.39 756.15C1142.07 756.867 1143 757.225 1144.19 757.225C1145.4 757.225 1146.36 756.85 1147.06 756.1C1147.76 755.35 1148.11 754.258 1148.11 752.825V745.3H1150.39ZM1157.5 747.175V755.25C1157.5 755.917 1157.64 756.392 1157.93 756.675C1158.21 756.942 1158.7 757.075 1159.4 757.075H1161.08V759H1159.03C1157.76 759 1156.81 758.708 1156.18 758.125C1155.54 757.542 1155.23 756.583 1155.23 755.25V747.175H1153.45V745.3H1155.23V741.85H1157.5V745.3H1161.08V747.175H1157.5Z" fill="#EEEEEE"/>
<path d="M458.324 619.32H446.684L444.684 625H439.924L449.884 597.16H455.164L465.124 625H460.324L458.324 619.32ZM457.044 615.6L452.524 602.68L447.964 615.6H457.044ZM511.045 602.96L504.205 625H499.405L494.965 608.72L490.525 625H485.725L478.845 602.96H483.485L488.085 620.68L492.765 602.96H497.525L502.005 620.6L506.565 602.96H511.045ZM535.453 613.44C535.453 614.267 535.4 615.013 535.293 615.68H518.453C518.586 617.44 519.24 618.853 520.413 619.92C521.586 620.987 523.026 621.52 524.733 621.52C527.186 621.52 528.92 620.493 529.933 618.44H534.853C534.186 620.467 532.973 622.133 531.213 623.44C529.48 624.72 527.32 625.36 524.733 625.36C522.626 625.36 520.733 624.893 519.053 623.96C517.4 623 516.093 621.667 515.133 619.96C514.2 618.227 513.733 616.227 513.733 613.96C513.733 611.693 514.186 609.707 515.093 608C516.026 606.267 517.32 604.933 518.973 604C520.653 603.067 522.573 602.6 524.733 602.6C526.813 602.6 528.666 603.053 530.293 603.96C531.92 604.867 533.186 606.147 534.093 607.8C535 609.427 535.453 611.307 535.453 613.44ZM530.693 612C530.666 610.32 530.066 608.973 528.893 607.96C527.72 606.947 526.266 606.44 524.533 606.44C522.96 606.44 521.613 606.947 520.493 607.96C519.373 608.947 518.706 610.293 518.493 612H530.693ZM545.301 606.24C546.074 605.173 547.127 604.307 548.461 603.64C549.821 602.947 551.327 602.6 552.981 602.6C554.927 602.6 556.687 603.067 558.261 604C559.834 604.933 561.074 606.267 561.981 608C562.887 609.707 563.341 611.667 563.341 613.88C563.341 616.093 562.887 618.08 561.981 619.84C561.074 621.573 559.821 622.933 558.221 623.92C556.647 624.88 554.901 625.36 552.981 625.36C551.274 625.36 549.754 625.027 548.421 624.36C547.114 623.693 546.074 622.84 545.301 621.8V625H540.741V595.4H545.301V606.24ZM558.701 613.88C558.701 612.36 558.381 611.053 557.741 609.96C557.127 608.84 556.301 608 555.261 607.44C554.247 606.853 553.154 606.56 551.981 606.56C550.834 606.56 549.741 606.853 548.701 607.44C547.687 608.027 546.861 608.88 546.221 610C545.607 611.12 545.301 612.44 545.301 613.96C545.301 615.48 545.607 616.813 546.221 617.96C546.861 619.08 547.687 619.933 548.701 620.52C549.741 621.107 550.834 621.4 551.981 621.4C553.154 621.4 554.247 621.107 555.261 620.52C556.301 619.907 557.127 619.027 557.741 617.88C558.381 616.733 558.701 615.4 558.701 613.88ZM578.321 613.88C578.321 611.667 578.774 609.707 579.681 608C580.614 606.293 581.867 604.973 583.441 604.04C585.041 603.08 586.801 602.6 588.721 602.6C590.454 602.6 591.961 602.947 593.241 603.64C594.547 604.307 595.587 605.147 596.361 606.16V602.96H600.961V625H596.361V621.72C595.587 622.76 594.534 623.627 593.201 624.32C591.867 625.013 590.347 625.36 588.641 625.36C586.747 625.36 585.014 624.88 583.441 623.92C581.867 622.933 580.614 621.573 579.681 619.84C578.774 618.08 578.321 616.093 578.321 613.88ZM596.361 613.96C596.361 612.44 596.041 611.12 595.401 610C594.787 608.88 593.974 608.027 592.961 607.44C591.947 606.853 590.854 606.56 589.681 606.56C588.507 606.56 587.414 606.853 586.401 607.44C585.387 608 584.561 608.84 583.921 609.96C583.307 611.053 583.001 612.36 583.001 613.88C583.001 615.4 583.307 616.733 583.921 617.88C584.561 619.027 585.387 619.907 586.401 620.52C587.441 621.107 588.534 621.4 589.681 621.4C590.854 621.4 591.947 621.107 592.961 620.52C593.974 619.933 594.787 619.08 595.401 617.96C596.041 616.813 596.361 615.48 596.361 613.96ZM612.31 606.2C613.083 605.187 614.137 604.333 615.47 603.64C616.803 602.947 618.31 602.6 619.99 602.6C621.91 602.6 623.657 603.08 625.23 604.04C626.83 604.973 628.083 606.293 628.99 608C629.897 609.707 630.35 611.667 630.35 613.88C630.35 616.093 629.897 618.08 628.99 619.84C628.083 621.573 626.83 622.933 625.23 623.92C623.657 624.88 621.91 625.36 619.99 625.36C618.31 625.36 616.817 625.027 615.51 624.36C614.203 623.667 613.137 622.813 612.31 621.8V635.48H607.75V602.96H612.31V606.2ZM625.71 613.88C625.71 612.36 625.39 611.053 624.75 609.96C624.137 608.84 623.31 608 622.27 607.44C621.257 606.853 620.163 606.56 618.99 606.56C617.843 606.56 616.75 606.853 615.71 607.44C614.697 608.027 613.87 608.88 613.23 610C612.617 611.12 612.31 612.44 612.31 613.96C612.31 615.48 612.617 616.813 613.23 617.96C613.87 619.08 614.697 619.933 615.71 620.52C616.75 621.107 617.843 621.4 618.99 621.4C620.163 621.4 621.257 621.107 622.27 620.52C623.31 619.907 624.137 619.027 624.75 617.88C625.39 616.733 625.71 615.4 625.71 613.88ZM640.219 606.2C640.993 605.187 642.046 604.333 643.379 603.64C644.713 602.947 646.219 602.6 647.899 602.6C649.819 602.6 651.566 603.08 653.139 604.04C654.739 604.973 655.993 606.293 656.899 608C657.806 609.707 658.259 611.667 658.259 613.88C658.259 616.093 657.806 618.08 656.899 619.84C655.993 621.573 654.739 622.933 653.139 623.92C651.566 624.88 649.819 625.36 647.899 625.36C646.219 625.36 644.726 625.027 643.419 624.36C642.113 623.667 641.046 622.813 640.219 621.8V635.48H635.659V602.96H640.219V606.2ZM653.619 613.88C653.619 612.36 653.299 611.053 652.659 609.96C652.046 608.84 651.219 608 650.179 607.44C649.166 606.853 648.073 606.56 646.899 606.56C645.753 606.56 644.659 606.853 643.619 607.44C642.606 608.027 641.779 608.88 641.139 610C640.526 611.12 640.219 612.44 640.219 613.96C640.219 615.48 640.526 616.813 641.139 617.96C641.779 619.08 642.606 619.933 643.619 620.52C644.659 621.107 645.753 621.4 646.899 621.4C648.073 621.4 649.166 621.107 650.179 620.52C651.219 619.907 652.046 619.027 652.659 617.88C653.299 616.733 653.619 615.4 653.619 613.88ZM668.129 595.4V625H663.569V595.4H668.129ZM677.236 600.04C676.409 600.04 675.716 599.76 675.156 599.2C674.596 598.64 674.316 597.947 674.316 597.12C674.316 596.293 674.596 595.6 675.156 595.04C675.716 594.48 676.409 594.2 677.236 594.2C678.036 594.2 678.716 594.48 679.276 595.04C679.836 595.6 680.116 596.293 680.116 597.12C680.116 597.947 679.836 598.64 679.276 599.2C678.716 599.76 678.036 600.04 677.236 600.04ZM679.476 602.96V625H674.916V602.96H679.476ZM684.743 613.96C684.743 611.693 685.196 609.707 686.103 608C687.036 606.267 688.316 604.933 689.943 604C691.569 603.067 693.436 602.6 695.543 602.6C698.209 602.6 700.409 603.24 702.143 604.52C703.903 605.773 705.089 607.573 705.703 609.92H700.783C700.383 608.827 699.743 607.973 698.863 607.36C697.983 606.747 696.876 606.44 695.543 606.44C693.676 606.44 692.183 607.107 691.063 608.44C689.969 609.747 689.423 611.587 689.423 613.96C689.423 616.333 689.969 618.187 691.063 619.52C692.183 620.853 693.676 621.52 695.543 621.52C698.183 621.52 699.929 620.36 700.783 618.04H705.703C705.063 620.28 703.863 622.067 702.103 623.4C700.343 624.707 698.156 625.36 695.543 625.36C693.436 625.36 691.569 624.893 689.943 623.96C688.316 623 687.036 621.667 686.103 619.96C685.196 618.227 684.743 616.227 684.743 613.96ZM709.527 613.88C709.527 611.667 709.98 609.707 710.887 608C711.82 606.293 713.074 604.973 714.647 604.04C716.247 603.08 718.007 602.6 719.927 602.6C721.66 602.6 723.167 602.947 724.447 603.64C725.754 604.307 726.794 605.147 727.567 606.16V602.96H732.167V625H727.567V621.72C726.794 622.76 725.74 623.627 724.407 624.32C723.074 625.013 721.554 625.36 719.847 625.36C717.954 625.36 716.22 624.88 714.647 623.92C713.074 622.933 711.82 621.573 710.887 619.84C709.98 618.08 709.527 616.093 709.527 613.88ZM727.567 613.96C727.567 612.44 727.247 611.12 726.607 610C725.994 608.88 725.18 608.027 724.167 607.44C723.154 606.853 722.06 606.56 720.887 606.56C719.714 606.56 718.62 606.853 717.607 607.44C716.594 608 715.767 608.84 715.127 609.96C714.514 611.053 714.207 612.36 714.207 613.88C714.207 615.4 714.514 616.733 715.127 617.88C715.767 619.027 716.594 619.907 717.607 620.52C718.647 621.107 719.74 621.4 720.887 621.4C722.06 621.4 723.154 621.107 724.167 620.52C725.18 619.933 725.994 619.08 726.607 617.96C727.247 616.813 727.567 615.48 727.567 613.96ZM744.276 606.68V618.88C744.276 619.707 744.463 620.307 744.836 620.68C745.236 621.027 745.903 621.2 746.836 621.2H749.636V625H746.036C743.983 625 742.41 624.52 741.316 623.56C740.223 622.6 739.676 621.04 739.676 618.88V606.68H737.076V602.96H739.676V597.48H744.276V602.96H749.636V606.68H744.276ZM756.959 600.04C756.132 600.04 755.439 599.76 754.879 599.2C754.319 598.64 754.039 597.947 754.039 597.12C754.039 596.293 754.319 595.6 754.879 595.04C755.439 594.48 756.132 594.2 756.959 594.2C757.759 594.2 758.439 594.48 758.999 595.04C759.559 595.6 759.839 596.293 759.839 597.12C759.839 597.947 759.559 598.64 758.999 599.2C758.439 599.76 757.759 600.04 756.959 600.04ZM759.199 602.96V625H754.639V602.96H759.199ZM775.546 625.36C773.466 625.36 771.586 624.893 769.906 623.96C768.226 623 766.906 621.667 765.946 619.96C764.986 618.227 764.506 616.227 764.506 613.96C764.506 611.72 764.999 609.733 765.986 608C766.973 606.267 768.319 604.933 770.026 604C771.733 603.067 773.639 602.6 775.746 602.6C777.853 602.6 779.759 603.067 781.466 604C783.173 604.933 784.519 606.267 785.506 608C786.493 609.733 786.986 611.72 786.986 613.96C786.986 616.2 786.479 618.187 785.466 619.92C784.453 621.653 783.066 623 781.306 623.96C779.573 624.893 777.653 625.36 775.546 625.36ZM775.546 621.4C776.719 621.4 777.813 621.12 778.826 620.56C779.866 620 780.706 619.16 781.346 618.04C781.986 616.92 782.306 615.56 782.306 613.96C782.306 612.36 781.999 611.013 781.386 609.92C780.773 608.8 779.959 607.96 778.946 607.4C777.933 606.84 776.839 606.56 775.666 606.56C774.493 606.56 773.399 606.84 772.386 607.4C771.399 607.96 770.613 608.8 770.026 609.92C769.439 611.013 769.146 612.36 769.146 613.96C769.146 616.333 769.746 618.173 770.946 619.48C772.173 620.76 773.706 621.4 775.546 621.4ZM803.414 602.6C805.147 602.6 806.694 602.96 808.054 603.68C809.44 604.4 810.52 605.467 811.294 606.88C812.067 608.293 812.454 610 812.454 612V625H807.934V612.68C807.934 610.707 807.44 609.2 806.454 608.16C805.467 607.093 804.12 606.56 802.414 606.56C800.707 606.56 799.347 607.093 798.334 608.16C797.347 609.2 796.854 610.707 796.854 612.68V625H792.294V602.96H796.854V605.48C797.6 604.573 798.547 603.867 799.694 603.36C800.867 602.853 802.107 602.6 803.414 602.6ZM839.501 606.68H835.421V625H830.821V606.68H828.221V602.96H830.821V601.4C830.821 598.867 831.488 597.027 832.821 595.88C834.181 594.707 836.301 594.12 839.181 594.12V597.92C837.794 597.92 836.821 598.187 836.261 598.72C835.701 599.227 835.421 600.12 835.421 601.4V602.96H839.501V606.68ZM853.902 625.36C851.822 625.36 849.942 624.893 848.262 623.96C846.582 623 845.262 621.667 844.302 619.96C843.342 618.227 842.862 616.227 842.862 613.96C842.862 611.72 843.356 609.733 844.342 608C845.329 606.267 846.676 604.933 848.382 604C850.089 603.067 851.996 602.6 854.102 602.6C856.209 602.6 858.116 603.067 859.822 604C861.529 604.933 862.876 606.267 863.862 608C864.849 609.733 865.342 611.72 865.342 613.96C865.342 616.2 864.836 618.187 863.822 619.92C862.809 621.653 861.422 623 859.662 623.96C857.929 624.893 856.009 625.36 853.902 625.36ZM853.902 621.4C855.076 621.4 856.169 621.12 857.182 620.56C858.222 620 859.062 619.16 859.702 618.04C860.342 616.92 860.662 615.56 860.662 613.96C860.662 612.36 860.356 611.013 859.742 609.92C859.129 608.8 858.316 607.96 857.302 607.4C856.289 606.84 855.196 606.56 854.022 606.56C852.849 606.56 851.756 606.84 850.742 607.4C849.756 607.96 848.969 608.8 848.382 609.92C847.796 611.013 847.502 612.36 847.502 613.96C847.502 616.333 848.102 618.173 849.302 619.48C850.529 620.76 852.062 621.4 853.902 621.4ZM875.21 606.16C875.877 605.04 876.757 604.173 877.85 603.56C878.97 602.92 880.29 602.6 881.81 602.6V607.32H880.65C878.863 607.32 877.503 607.773 876.57 608.68C875.663 609.587 875.21 611.16 875.21 613.4V625H870.65V602.96H875.21V606.16ZM896.472 613.88C896.472 611.667 896.926 609.707 897.832 608C898.766 606.293 900.019 604.973 901.592 604.04C903.192 603.08 904.952 602.6 906.872 602.6C908.606 602.6 910.112 602.947 911.392 603.64C912.699 604.307 913.739 605.147 914.512 606.16V602.96H919.112V625H914.512V621.72C913.739 622.76 912.686 623.627 911.352 624.32C910.019 625.013 908.499 625.36 906.792 625.36C904.899 625.36 903.166 624.88 901.592 623.92C900.019 622.933 898.766 621.573 897.832 619.84C896.926 618.08 896.472 616.093 896.472 613.88ZM914.512 613.96C914.512 612.44 914.192 611.12 913.552 610C912.939 608.88 912.126 608.027 911.112 607.44C910.099 606.853 909.006 606.56 907.832 606.56C906.659 606.56 905.566 606.853 904.552 607.44C903.539 608 902.712 608.84 902.072 609.96C901.459 611.053 901.152 612.36 901.152 613.88C901.152 615.4 901.459 616.733 902.072 617.88C902.712 619.027 903.539 619.907 904.552 620.52C905.592 621.107 906.686 621.4 907.832 621.4C909.006 621.4 910.099 621.107 911.112 620.52C912.126 619.933 912.939 619.08 913.552 617.96C914.192 616.813 914.512 615.48 914.512 613.96ZM937.022 602.6C938.755 602.6 940.302 602.96 941.662 603.68C943.048 604.4 944.128 605.467 944.902 606.88C945.675 608.293 946.062 610 946.062 612V625H941.542V612.68C941.542 610.707 941.048 609.2 940.062 608.16C939.075 607.093 937.728 606.56 936.022 606.56C934.315 606.56 932.955 607.093 931.942 608.16C930.955 609.2 930.462 610.707 930.462 612.68V625H925.902V602.96H930.462V605.48C931.208 604.573 932.155 603.867 933.302 603.36C934.475 602.853 935.715 602.6 937.022 602.6ZM951.158 613.88C951.158 611.667 951.611 609.707 952.518 608C953.451 606.293 954.705 604.973 956.278 604.04C957.878 603.08 959.638 602.6 961.558 602.6C963.291 602.6 964.798 602.947 966.078 603.64C967.385 604.307 968.425 605.147 969.198 606.16V602.96H973.798V625H969.198V621.72C968.425 622.76 967.371 623.627 966.038 624.32C964.705 625.013 963.185 625.36 961.478 625.36C959.585 625.36 957.851 624.88 956.278 623.92C954.705 622.933 953.451 621.573 952.518 619.84C951.611 618.08 951.158 616.093 951.158 613.88ZM969.198 613.96C969.198 612.44 968.878 611.12 968.238 610C967.625 608.88 966.811 608.027 965.798 607.44C964.785 606.853 963.691 606.56 962.518 606.56C961.345 606.56 960.251 606.853 959.238 607.44C958.225 608 957.398 608.84 956.758 609.96C956.145 611.053 955.838 612.36 955.838 613.88C955.838 615.4 956.145 616.733 956.758 617.88C957.398 619.027 958.225 619.907 959.238 620.52C960.278 621.107 961.371 621.4 962.518 621.4C963.691 621.4 964.785 621.107 965.798 620.52C966.811 619.933 967.625 619.08 968.238 617.96C968.878 616.813 969.198 615.48 969.198 613.96ZM985.148 595.4V625H980.588V595.4H985.148ZM1011.77 602.96L998.254 635.36H993.534L998.014 624.64L989.334 602.96H994.414L1000.61 619.76L1007.05 602.96H1011.77ZM1020.06 621.28H1030.06V625H1014.78V621.28L1024.82 606.68H1014.78V602.96H1030.06V606.68L1020.06 621.28ZM1037.96 600.04C1037.14 600.04 1036.44 599.76 1035.88 599.2C1035.32 598.64 1035.04 597.947 1035.04 597.12C1035.04 596.293 1035.32 595.6 1035.88 595.04C1036.44 594.48 1037.14 594.2 1037.96 594.2C1038.76 594.2 1039.44 594.48 1040 595.04C1040.56 595.6 1040.84 596.293 1040.84 597.12C1040.84 597.947 1040.56 598.64 1040 599.2C1039.44 599.76 1038.76 600.04 1037.96 600.04ZM1040.2 602.96V625H1035.64V602.96H1040.2ZM1058.11 602.6C1059.84 602.6 1061.39 602.96 1062.75 603.68C1064.14 604.4 1065.22 605.467 1065.99 606.88C1066.76 608.293 1067.15 610 1067.15 612V625H1062.63V612.68C1062.63 610.707 1062.14 609.2 1061.15 608.16C1060.16 607.093 1058.82 606.56 1057.11 606.56C1055.4 606.56 1054.04 607.093 1053.03 608.16C1052.04 609.2 1051.55 610.707 1051.55 612.68V625H1046.99V602.96H1051.55V605.48C1052.3 604.573 1053.24 603.867 1054.39 603.36C1055.56 602.853 1056.8 602.6 1058.11 602.6ZM1082.65 602.6C1084.35 602.6 1085.86 602.947 1087.17 603.64C1088.5 604.307 1089.54 605.147 1090.29 606.16V602.96H1094.89V625.36C1094.89 627.387 1094.46 629.187 1093.61 630.76C1092.75 632.36 1091.51 633.613 1089.89 634.52C1088.29 635.427 1086.37 635.88 1084.13 635.88C1081.14 635.88 1078.66 635.173 1076.69 633.76C1074.71 632.373 1073.59 630.48 1073.33 628.08H1077.85C1078.19 629.227 1078.93 630.147 1080.05 630.84C1081.19 631.56 1082.55 631.92 1084.13 631.92C1085.97 631.92 1087.45 631.36 1088.57 630.24C1089.71 629.12 1090.29 627.493 1090.29 625.36V621.68C1089.51 622.72 1088.46 623.6 1087.13 624.32C1085.82 625.013 1084.33 625.36 1082.65 625.36C1080.73 625.36 1078.97 624.88 1077.37 623.92C1075.79 622.933 1074.54 621.573 1073.61 619.84C1072.7 618.08 1072.25 616.093 1072.25 613.88C1072.25 611.667 1072.7 609.707 1073.61 608C1074.54 606.293 1075.79 604.973 1077.37 604.04C1078.97 603.08 1080.73 602.6 1082.65 602.6ZM1090.29 613.96C1090.29 612.44 1089.97 611.12 1089.33 610C1088.71 608.88 1087.9 608.027 1086.89 607.44C1085.87 606.853 1084.78 606.56 1083.61 606.56C1082.43 606.56 1081.34 606.853 1080.33 607.44C1079.31 608 1078.49 608.84 1077.85 609.96C1077.23 611.053 1076.93 612.36 1076.93 613.88C1076.93 615.4 1077.23 616.733 1077.85 617.88C1078.49 619.027 1079.31 619.907 1080.33 620.52C1081.37 621.107 1082.46 621.4 1083.61 621.4C1084.78 621.4 1085.87 621.107 1086.89 620.52C1087.9 619.933 1088.71 619.08 1089.33 617.96C1089.97 616.813 1090.29 615.48 1090.29 613.96ZM1120.87 625.36C1119.13 625.36 1117.57 625.053 1116.19 624.44C1114.83 623.8 1113.75 622.947 1112.95 621.88C1112.15 620.787 1111.72 619.573 1111.67 618.24H1116.39C1116.47 619.173 1116.91 619.96 1117.71 620.6C1118.53 621.213 1119.56 621.52 1120.79 621.52C1122.07 621.52 1123.05 621.28 1123.75 620.8C1124.47 620.293 1124.83 619.653 1124.83 618.88C1124.83 618.053 1124.43 617.44 1123.63 617.04C1122.85 616.64 1121.61 616.2 1119.91 615.72C1118.25 615.267 1116.91 614.827 1115.87 614.4C1114.83 613.973 1113.92 613.32 1113.15 612.44C1112.4 611.56 1112.03 610.4 1112.03 608.96C1112.03 607.787 1112.37 606.72 1113.07 605.76C1113.76 604.773 1114.75 604 1116.03 603.44C1117.33 602.88 1118.83 602.6 1120.51 602.6C1123.01 602.6 1125.03 603.24 1126.55 604.52C1128.09 605.773 1128.92 607.493 1129.03 609.68H1124.47C1124.39 608.693 1123.99 607.907 1123.27 607.32C1122.55 606.733 1121.57 606.44 1120.35 606.44C1119.15 606.44 1118.23 606.667 1117.59 607.12C1116.95 607.573 1116.63 608.173 1116.63 608.92C1116.63 609.507 1116.84 610 1117.27 610.4C1117.69 610.8 1118.21 611.12 1118.83 611.36C1119.44 611.573 1120.35 611.853 1121.55 612.2C1123.15 612.627 1124.45 613.067 1125.47 613.52C1126.51 613.947 1127.4 614.587 1128.15 615.44C1128.89 616.293 1129.28 617.427 1129.31 618.84C1129.31 620.093 1128.96 621.213 1128.27 622.2C1127.57 623.187 1126.59 623.96 1125.31 624.52C1124.05 625.08 1122.57 625.36 1120.87 625.36ZM1154.99 602.96V625H1150.43V622.4C1149.71 623.307 1148.77 624.027 1147.59 624.56C1146.45 625.067 1145.22 625.32 1143.91 625.32C1142.18 625.32 1140.62 624.96 1139.23 624.24C1137.87 623.52 1136.79 622.453 1135.99 621.04C1135.22 619.627 1134.83 617.92 1134.83 615.92V602.96H1139.35V615.24C1139.35 617.213 1139.85 618.733 1140.83 619.8C1141.82 620.84 1143.17 621.36 1144.87 621.36C1146.58 621.36 1147.93 620.84 1148.91 619.8C1149.93 618.733 1150.43 617.213 1150.43 615.24V602.96H1154.99ZM1166.37 606.24C1167.14 605.173 1168.2 604.307 1169.53 603.64C1170.89 602.947 1172.4 602.6 1174.05 602.6C1176 602.6 1177.76 603.067 1179.33 604C1180.9 604.933 1182.14 606.267 1183.05 608C1183.96 609.707 1184.41 611.667 1184.41 613.88C1184.41 616.093 1183.96 618.08 1183.05 619.84C1182.14 621.573 1180.89 622.933 1179.29 623.92C1177.72 624.88 1175.97 625.36 1174.05 625.36C1172.34 625.36 1170.82 625.027 1169.49 624.36C1168.18 623.693 1167.14 622.84 1166.37 621.8V625H1161.81V595.4H1166.37V606.24ZM1179.77 613.88C1179.77 612.36 1179.45 611.053 1178.81 609.96C1178.2 608.84 1177.37 608 1176.33 607.44C1175.32 606.853 1174.22 606.56 1173.05 606.56C1171.9 606.56 1170.81 606.853 1169.77 607.44C1168.76 608.027 1167.93 608.88 1167.29 610C1166.68 611.12 1166.37 612.44 1166.37 613.96C1166.37 615.48 1166.68 616.813 1167.29 617.96C1167.93 619.08 1168.76 619.933 1169.77 620.52C1170.81 621.107 1171.9 621.4 1173.05 621.4C1174.22 621.4 1175.32 621.107 1176.33 620.52C1177.37 619.907 1178.2 619.027 1178.81 617.88C1179.45 616.733 1179.77 615.4 1179.77 613.88ZM1197.72 625.36C1195.99 625.36 1194.43 625.053 1193.04 624.44C1191.68 623.8 1190.6 622.947 1189.8 621.88C1189 620.787 1188.57 619.573 1188.52 618.24H1193.24C1193.32 619.173 1193.76 619.96 1194.56 620.6C1195.39 621.213 1196.41 621.52 1197.64 621.52C1198.92 621.52 1199.91 621.28 1200.6 620.8C1201.32 620.293 1201.68 619.653 1201.68 618.88C1201.68 618.053 1201.28 617.44 1200.48 617.04C1199.71 616.64 1198.47 616.2 1196.76 615.72C1195.11 615.267 1193.76 614.827 1192.72 614.4C1191.68 613.973 1190.77 613.32 1190 612.44C1189.25 611.56 1188.88 610.4 1188.88 608.96C1188.88 607.787 1189.23 606.72 1189.92 605.76C1190.61 604.773 1191.6 604 1192.88 603.44C1194.19 602.88 1195.68 602.6 1197.36 602.6C1199.87 602.6 1201.88 603.24 1203.4 604.52C1204.95 605.773 1205.77 607.493 1205.88 609.68H1201.32C1201.24 608.693 1200.84 607.907 1200.12 607.32C1199.4 606.733 1198.43 606.44 1197.2 606.44C1196 606.44 1195.08 606.667 1194.44 607.12C1193.8 607.573 1193.48 608.173 1193.48 608.92C1193.48 609.507 1193.69 610 1194.12 610.4C1194.55 610.8 1195.07 611.12 1195.68 611.36C1196.29 611.573 1197.2 611.853 1198.4 612.2C1200 612.627 1201.31 613.067 1202.32 613.52C1203.36 613.947 1204.25 614.587 1205 615.44C1205.75 616.293 1206.13 617.427 1206.16 618.84C1206.16 620.093 1205.81 621.213 1205.12 622.2C1204.43 623.187 1203.44 623.96 1202.16 624.52C1200.91 625.08 1199.43 625.36 1197.72 625.36ZM1216.45 606.2C1217.22 605.187 1218.27 604.333 1219.61 603.64C1220.94 602.947 1222.45 602.6 1224.13 602.6C1226.05 602.6 1227.79 603.08 1229.37 604.04C1230.97 604.973 1232.22 606.293 1233.13 608C1234.03 609.707 1234.49 611.667 1234.49 613.88C1234.49 616.093 1234.03 618.08 1233.13 619.84C1232.22 621.573 1230.97 622.933 1229.37 623.92C1227.79 624.88 1226.05 625.36 1224.13 625.36C1222.45 625.36 1220.95 625.027 1219.65 624.36C1218.34 623.667 1217.27 622.813 1216.45 621.8V635.48H1211.89V602.96H1216.45V606.2ZM1229.85 613.88C1229.85 612.36 1229.53 611.053 1228.89 609.96C1228.27 608.84 1227.45 608 1226.41 607.44C1225.39 606.853 1224.3 606.56 1223.13 606.56C1221.98 606.56 1220.89 606.853 1219.85 607.44C1218.83 608.027 1218.01 608.88 1217.37 610C1216.75 611.12 1216.45 612.44 1216.45 613.96C1216.45 615.48 1216.75 616.813 1217.37 617.96C1218.01 619.08 1218.83 619.933 1219.85 620.52C1220.89 621.107 1221.98 621.4 1223.13 621.4C1224.3 621.4 1225.39 621.107 1226.41 620.52C1227.45 619.907 1228.27 619.027 1228.89 617.88C1229.53 616.733 1229.85 615.4 1229.85 613.88ZM1238.28 613.88C1238.28 611.667 1238.73 609.707 1239.64 608C1240.57 606.293 1241.82 604.973 1243.4 604.04C1245 603.08 1246.76 602.6 1248.68 602.6C1250.41 602.6 1251.92 602.947 1253.2 603.64C1254.5 604.307 1255.54 605.147 1256.32 606.16V602.96H1260.92V625H1256.32V621.72C1255.54 622.76 1254.49 623.627 1253.16 624.32C1251.82 625.013 1250.3 625.36 1248.6 625.36C1246.7 625.36 1244.97 624.88 1243.4 623.92C1241.82 622.933 1240.57 621.573 1239.64 619.84C1238.73 618.08 1238.28 616.093 1238.28 613.88ZM1256.32 613.96C1256.32 612.44 1256 611.12 1255.36 610C1254.74 608.88 1253.93 608.027 1252.92 607.44C1251.9 606.853 1250.81 606.56 1249.64 606.56C1248.46 606.56 1247.37 606.853 1246.36 607.44C1245.34 608 1244.52 608.84 1243.88 609.96C1243.26 611.053 1242.96 612.36 1242.96 613.88C1242.96 615.4 1243.26 616.733 1243.88 617.88C1244.52 619.027 1245.34 619.907 1246.36 620.52C1247.4 621.107 1248.49 621.4 1249.64 621.4C1250.81 621.4 1251.9 621.107 1252.92 620.52C1253.93 619.933 1254.74 619.08 1255.36 617.96C1256 616.813 1256.32 615.48 1256.32 613.96ZM1266.19 613.96C1266.19 611.693 1266.64 609.707 1267.55 608C1268.48 606.267 1269.76 604.933 1271.39 604C1273.01 603.067 1274.88 602.6 1276.99 602.6C1279.65 602.6 1281.85 603.24 1283.59 604.52C1285.35 605.773 1286.53 607.573 1287.15 609.92H1282.23C1281.83 608.827 1281.19 607.973 1280.31 607.36C1279.43 606.747 1278.32 606.44 1276.99 606.44C1275.12 606.44 1273.63 607.107 1272.51 608.44C1271.41 609.747 1270.87 611.587 1270.87 613.96C1270.87 616.333 1271.41 618.187 1272.51 619.52C1273.63 620.853 1275.12 621.52 1276.99 621.52C1279.63 621.52 1281.37 620.36 1282.23 618.04H1287.15C1286.51 620.28 1285.31 622.067 1283.55 623.4C1281.79 624.707 1279.6 625.36 1276.99 625.36C1274.88 625.36 1273.01 624.893 1271.39 623.96C1269.76 623 1268.48 621.667 1267.55 619.96C1266.64 618.227 1266.19 616.227 1266.19 613.96ZM1312.69 613.44C1312.69 614.267 1312.64 615.013 1312.53 615.68H1295.69C1295.82 617.44 1296.48 618.853 1297.65 619.92C1298.82 620.987 1300.26 621.52 1301.97 621.52C1304.42 621.52 1306.16 620.493 1307.17 618.44H1312.09C1311.42 620.467 1310.21 622.133 1308.45 623.44C1306.72 624.72 1304.56 625.36 1301.97 625.36C1299.86 625.36 1297.97 624.893 1296.29 623.96C1294.64 623 1293.33 621.667 1292.37 619.96C1291.44 618.227 1290.97 616.227 1290.97 613.96C1290.97 611.693 1291.42 609.707 1292.33 608C1293.26 606.267 1294.56 604.933 1296.21 604C1297.89 603.067 1299.81 602.6 1301.97 602.6C1304.05 602.6 1305.9 603.053 1307.53 603.96C1309.16 604.867 1310.42 606.147 1311.33 607.8C1312.24 609.427 1312.69 611.307 1312.69 613.44ZM1307.93 612C1307.9 610.32 1307.3 608.973 1306.13 607.96C1304.96 606.947 1303.5 606.44 1301.77 606.44C1300.2 606.44 1298.85 606.947 1297.73 607.96C1296.61 608.947 1295.94 610.293 1295.73 612H1307.93ZM1338.73 625.36C1336.65 625.36 1334.77 624.893 1333.09 623.96C1331.41 623 1330.09 621.667 1329.13 619.96C1328.17 618.227 1327.69 616.227 1327.69 613.96C1327.69 611.72 1328.18 609.733 1329.17 608C1330.16 606.267 1331.5 604.933 1333.21 604C1334.92 603.067 1336.82 602.6 1338.93 602.6C1341.04 602.6 1342.94 603.067 1344.65 604C1346.36 604.933 1347.7 606.267 1348.69 608C1349.68 609.733 1350.17 611.72 1350.17 613.96C1350.17 616.2 1349.66 618.187 1348.65 619.92C1347.64 621.653 1346.25 623 1344.49 623.96C1342.76 624.893 1340.84 625.36 1338.73 625.36ZM1338.73 621.4C1339.9 621.4 1341 621.12 1342.01 620.56C1343.05 620 1343.89 619.16 1344.53 618.04C1345.17 616.92 1345.49 615.56 1345.49 613.96C1345.49 612.36 1345.18 611.013 1344.57 609.92C1343.96 608.8 1343.14 607.96 1342.13 607.4C1341.12 606.84 1340.02 606.56 1338.85 606.56C1337.68 606.56 1336.58 606.84 1335.57 607.4C1334.58 607.96 1333.8 608.8 1333.21 609.92C1332.62 611.013 1332.33 612.36 1332.33 613.96C1332.33 616.333 1332.93 618.173 1334.13 619.48C1335.36 620.76 1336.89 621.4 1338.73 621.4ZM1375.44 602.96V625H1370.88V622.4C1370.16 623.307 1369.21 624.027 1368.04 624.56C1366.89 625.067 1365.66 625.32 1364.36 625.32C1362.62 625.32 1361.06 624.96 1359.68 624.24C1358.32 623.52 1357.24 622.453 1356.44 621.04C1355.66 619.627 1355.28 617.92 1355.28 615.92V602.96H1359.8V615.24C1359.8 617.213 1360.29 618.733 1361.28 619.8C1362.26 620.84 1363.61 621.36 1365.32 621.36C1367.02 621.36 1368.37 620.84 1369.36 619.8C1370.37 618.733 1370.88 617.213 1370.88 615.24V602.96H1375.44ZM1387.57 606.68V618.88C1387.57 619.707 1387.76 620.307 1388.13 620.68C1388.53 621.027 1389.2 621.2 1390.13 621.2H1392.93V625H1389.33C1387.28 625 1385.71 624.52 1384.61 623.56C1383.52 622.6 1382.97 621.04 1382.97 618.88V606.68H1380.37V602.96H1382.97V597.48H1387.57V602.96H1392.93V606.68H1387.57ZM1402.5 595.4V625H1397.94V595.4H1402.5ZM1411.6 600.04C1410.78 600.04 1410.08 599.76 1409.52 599.2C1408.96 598.64 1408.68 597.947 1408.68 597.12C1408.68 596.293 1408.96 595.6 1409.52 595.04C1410.08 594.48 1410.78 594.2 1411.6 594.2C1412.4 594.2 1413.08 594.48 1413.64 595.04C1414.2 595.6 1414.48 596.293 1414.48 597.12C1414.48 597.947 1414.2 598.64 1413.64 599.2C1413.08 599.76 1412.4 600.04 1411.6 600.04ZM1413.84 602.96V625H1409.28V602.96H1413.84ZM1440.83 613.44C1440.83 614.267 1440.78 615.013 1440.67 615.68H1423.83C1423.96 617.44 1424.62 618.853 1425.79 619.92C1426.96 620.987 1428.4 621.52 1430.11 621.52C1432.56 621.52 1434.3 620.493 1435.31 618.44H1440.23C1439.56 620.467 1438.35 622.133 1436.59 623.44C1434.86 624.72 1432.7 625.36 1430.11 625.36C1428 625.36 1426.11 624.893 1424.43 623.96C1422.78 623 1421.47 621.667 1420.51 619.96C1419.58 618.227 1419.11 616.227 1419.11 613.96C1419.11 611.693 1419.56 609.707 1420.47 608C1421.4 606.267 1422.7 604.933 1424.35 604C1426.03 603.067 1427.95 602.6 1430.11 602.6C1432.19 602.6 1434.04 603.053 1435.67 603.96C1437.3 604.867 1438.56 606.147 1439.47 607.8C1440.38 609.427 1440.83 611.307 1440.83 613.44ZM1436.07 612C1436.04 610.32 1435.44 608.973 1434.27 607.96C1433.1 606.947 1431.64 606.44 1429.91 606.44C1428.34 606.44 1426.99 606.947 1425.87 607.96C1424.75 608.947 1424.08 610.293 1423.87 612H1436.07ZM1450.68 606.16C1451.34 605.04 1452.22 604.173 1453.32 603.56C1454.44 602.92 1455.76 602.6 1457.28 602.6V607.32H1456.12C1454.33 607.32 1452.97 607.773 1452.04 608.68C1451.13 609.587 1450.68 611.16 1450.68 613.4V625H1446.12V602.96H1450.68V606.16ZM1470.27 625.36C1468.54 625.36 1466.98 625.053 1465.59 624.44C1464.23 623.8 1463.15 622.947 1462.35 621.88C1461.55 620.787 1461.12 619.573 1461.07 618.24H1465.79C1465.87 619.173 1466.31 619.96 1467.11 620.6C1467.94 621.213 1468.96 621.52 1470.19 621.52C1471.47 621.52 1472.46 621.28 1473.15 620.8C1473.87 620.293 1474.23 619.653 1474.23 618.88C1474.23 618.053 1473.83 617.44 1473.03 617.04C1472.26 616.64 1471.02 616.2 1469.31 615.72C1467.66 615.267 1466.31 614.827 1465.27 614.4C1464.23 613.973 1463.32 613.32 1462.55 612.44C1461.8 611.56 1461.43 610.4 1461.43 608.96C1461.43 607.787 1461.78 606.72 1462.47 605.76C1463.16 604.773 1464.15 604 1465.43 603.44C1466.74 602.88 1468.23 602.6 1469.91 602.6C1472.42 602.6 1474.43 603.24 1475.95 604.52C1477.5 605.773 1478.32 607.493 1478.43 609.68H1473.87C1473.79 608.693 1473.39 607.907 1472.67 607.32C1471.95 606.733 1470.98 606.44 1469.75 606.44C1468.55 606.44 1467.63 606.667 1466.99 607.12C1466.35 607.573 1466.03 608.173 1466.03 608.92C1466.03 609.507 1466.24 610 1466.67 610.4C1467.1 610.8 1467.62 611.12 1468.23 611.36C1468.84 611.573 1469.75 611.853 1470.95 612.2C1472.55 612.627 1473.86 613.067 1474.87 613.52C1475.91 613.947 1476.8 614.587 1477.55 615.44C1478.3 616.293 1478.68 617.427 1478.71 618.84C1478.71 620.093 1478.36 621.213 1477.67 622.2C1476.98 623.187 1475.99 623.96 1474.71 624.52C1473.46 625.08 1471.98 625.36 1470.27 625.36Z" fill="#EEEEEE"/>
</g>
<defs>
<filter id="filter0_f_950_11292" x="489" y="203" width="1603.89" height="1449.04" filterUnits="userSpaceOnUse" color-interpolation-filters="sRGB">
<feFlood flood-opacity="0" result="BackgroundImageFix"/>
<feBlend mode="normal" in="SourceGraphic" in2="BackgroundImageFix" result="shape"/>
<feGaussianBlur stdDeviation="125" result="effect1_foregroundBlur_950_11292"/>
</filter>
<filter id="filter1_f_950_11292" x="-278.894" y="-192.9" width="1653" height="1642.54" filterUnits="userSpaceOnUse" color-interpolation-filters="sRGB">
<feFlood flood-opacity="0" result="BackgroundImageFix"/>
<feBlend mode="normal" in="SourceGraphic" in2="BackgroundImageFix" result="shape"/>
<feGaussianBlur stdDeviation="160" result="effect1_foregroundBlur_950_11292"/>
</filter>
<filter id="filter2_f_950_11292" x="386.851" y="634.579" width="2087.25" height="1342.87" filterUnits="userSpaceOnUse" color-interpolation-filters="sRGB">
<feFlood flood-opacity="0" result="BackgroundImageFix"/>
<feBlend mode="normal" in="SourceGraphic" in2="BackgroundImageFix" result="shape"/>
<feGaussianBlur stdDeviation="160" result="effect1_foregroundBlur_950_11292"/>
</filter>
<filter id="filter3_f_950_11292" x="573.273" y="-467" width="1790" height="1952" filterUnits="userSpaceOnUse" color-interpolation-filters="sRGB">
<feFlood flood-opacity="0" result="BackgroundImageFix"/>
<feBlend mode="normal" in="SourceGraphic" in2="BackgroundImageFix" result="shape"/>
<feGaussianBlur stdDeviation="125" result="effect1_foregroundBlur_950_11292"/>
</filter>
<filter id="filter4_f_950_11292" x="-464" y="866" width="1790" height="1952" filterUnits="userSpaceOnUse" color-interpolation-filters="sRGB">
<feFlood flood-opacity="0" result="BackgroundImageFix"/>
<feBlend mode="normal" in="SourceGraphic" in2="BackgroundImageFix" result="shape"/>
<feGaussianBlur stdDeviation="125" result="effect1_foregroundBlur_950_11292"/>
</filter>
<filter id="filter5_f_950_11292" x="-8.00977" y="-323.652" width="1409.93" height="1115.78" filterUnits="userSpaceOnUse" color-interpolation-filters="sRGB">
<feFlood flood-opacity="0" result="BackgroundImageFix"/>
<feBlend mode="normal" in="SourceGraphic" in2="BackgroundImageFix" result="shape"/>
<feGaussianBlur stdDeviation="160" result="effect1_foregroundBlur_950_11292"/>
</filter>
<filter id="filter6_f_950_11292" x="58.2178" y="-378.325" width="1280.28" height="980.033" filterUnits="userSpaceOnUse" color-interpolation-filters="sRGB">
<feFlood flood-opacity="0" result="BackgroundImageFix"/>
<feBlend mode="normal" in="SourceGraphic" in2="BackgroundImageFix" result="shape"/>
<feGaussianBlur stdDeviation="160" result="effect1_foregroundBlur_950_11292"/>
</filter>
<filter id="filter9_d_950_11292" x="1763" y="16" width="112" height="60" filterUnits="userSpaceOnUse" color-interpolation-filters="sRGB">
<feFlood flood-opacity="0" result="BackgroundImageFix"/>
<feColorMatrix in="SourceAlpha" type="matrix" values="0 0 0 0 0 0 0 0 0 0 0 0 0 0 0 0 0 0 127 0" result="hardAlpha"/>
<feOffset dy="4"/>
<feGaussianBlur stdDeviation="2"/>
<feComposite in2="hardAlpha" operator="out"/>
<feColorMatrix type="matrix" values="0 0 0 0 0 0 0 0 0 0 0 0 0 0 0 0 0 0 0.25 0"/>
<feBlend mode="normal" in2="BackgroundImageFix" result="effect1_dropShadow_950_11292"/>
<feBlend mode="normal" in="SourceGraphic" in2="effect1_dropShadow_950_11292" result="shape"/>
</filter>
<filter id="filter11_d_950_11292" x="710" y="700" width="208" height="108" filterUnits="userSpaceOnUse" color-interpolation-filters="sRGB">
<feFlood flood-opacity="0" result="BackgroundImageFix"/>
<feColorMatrix in="SourceAlpha" type="matrix" values="0 0 0 0 0 0 0 0 0 0 0 0 0 0 0 0 0 0 127 0" result="hardAlpha"/>
<feOffset dy="4"/>
<feGaussianBlur stdDeviation="2"/>
<feComposite in2="hardAlpha" operator="out"/>
<feColorMatrix type="matrix" values="0 0 0 0 0 0 0 0 0 0 0 0 0 0 0 0 0 0 0.25 0"/>
<feBlend mode="normal" in2="BackgroundImageFix" result="effect1_dropShadow_950_11292"/>
<feBlend mode="normal" in="SourceGraphic" in2="effect1_dropShadow_950_11292" result="shape"/>
</filter>
<linearGradient id="paint0_linear_950_11292" x1="1290.95" y1="544.22" x2="1290.95" y2="1402.04" gradientUnits="userSpaceOnUse">
<stop stop-color="#7D5ABC"/>
<stop offset="1" stop-color="#7E1674"/>
</linearGradient>
<linearGradient id="paint1_linear_950_11292" x1="1708.94" y1="734.358" x2="1498" y2="-39.0547" gradientUnits="userSpaceOnUse">
<stop stop-color="#38038E"/>
<stop offset="1" stop-color="#6F4A6F"/>
</linearGradient>
<linearGradient id="paint2_linear_950_11292" x1="671.667" y1="2067.36" x2="460.725" y2="1293.95" gradientUnits="userSpaceOnUse">
<stop stop-color="#38038E"/>
<stop offset="1" stop-color="#6F4A6F"/>
</linearGradient>
<linearGradient id="paint3_linear_950_11292" x1="812.766" y1="1949.33" x2="1666.08" y2="1861.51" gradientUnits="userSpaceOnUse">
<stop stop-color="#53328F"/>
<stop offset="1" stop-color="#7E1674"/>
</linearGradient>
<clipPath id="clip0_950_11292">
<rect width="1920" height="1080" fill="white"/>
</clipPath>
<clipPath id="clip1_950_11292">
<rect width="750" height="230.826" fill="white" transform="translate(585 291)"/>
</clipPath>
</defs>
</svg>
