<svg width="509" height="417" viewBox="0 0 509 417" fill="none" xmlns="http://www.w3.org/2000/svg">
<rect width="509" height="417" fill="#202020"/>
<rect x="101" y="40" width="308" height="336" rx="6" fill="#2E2E2E"/>
<rect x="130.5" y="208.5" width="249" height="41" rx="7.5" fill="#202020"/>
<path d="M152.806 227.49C152.806 228.115 152.661 228.685 152.372 229.198C152.083 229.702 151.653 230.103 151.084 230.402C150.524 230.701 149.843 230.85 149.04 230.85H147.808V234H144.7V224.088H149.04C150.253 224.088 151.182 224.396 151.826 225.012C152.479 225.628 152.806 226.454 152.806 227.49ZM148.69 228.4C149.334 228.4 149.656 228.097 149.656 227.49C149.656 226.883 149.334 226.58 148.69 226.58H147.808V228.4H148.69ZM153.652 230.052C153.652 229.221 153.792 228.503 154.072 227.896C154.361 227.28 154.753 226.813 155.248 226.496C155.742 226.169 156.298 226.006 156.914 226.006C157.427 226.006 157.87 226.113 158.244 226.328C158.617 226.533 158.902 226.818 159.098 227.182V226.104H162.192V234H159.098V232.922C158.902 233.286 158.617 233.575 158.244 233.79C157.87 233.995 157.427 234.098 156.914 234.098C156.298 234.098 155.742 233.939 155.248 233.622C154.753 233.295 154.361 232.829 154.072 232.222C153.792 231.606 153.652 230.883 153.652 230.052ZM159.098 230.052C159.098 229.632 158.99 229.305 158.776 229.072C158.561 228.839 158.286 228.722 157.95 228.722C157.614 228.722 157.338 228.839 157.124 229.072C156.909 229.305 156.802 229.632 156.802 230.052C156.802 230.472 156.909 230.799 157.124 231.032C157.338 231.265 157.614 231.382 157.95 231.382C158.286 231.382 158.561 231.265 158.776 231.032C158.99 230.799 159.098 230.472 159.098 230.052ZM167.381 234.098C166.635 234.098 165.972 233.977 165.393 233.734C164.824 233.491 164.371 233.155 164.035 232.726C163.699 232.297 163.508 231.811 163.461 231.27H166.443C166.481 231.503 166.579 231.676 166.737 231.788C166.905 231.9 167.115 231.956 167.367 231.956C167.526 231.956 167.652 231.923 167.745 231.858C167.839 231.783 167.885 231.695 167.885 231.592C167.885 231.415 167.787 231.289 167.591 231.214C167.395 231.139 167.064 231.055 166.597 230.962C166.028 230.85 165.557 230.729 165.183 230.598C164.819 230.467 164.497 230.243 164.217 229.926C163.947 229.609 163.811 229.17 163.811 228.61C163.811 228.125 163.937 227.686 164.189 227.294C164.451 226.893 164.833 226.58 165.337 226.356C165.841 226.123 166.453 226.006 167.171 226.006C168.235 226.006 169.066 226.267 169.663 226.79C170.27 227.313 170.634 227.994 170.755 228.834H167.997C167.951 228.619 167.853 228.456 167.703 228.344C167.554 228.223 167.353 228.162 167.101 228.162C166.943 228.162 166.821 228.195 166.737 228.26C166.653 228.316 166.611 228.405 166.611 228.526C166.611 228.685 166.709 228.806 166.905 228.89C167.101 228.965 167.414 229.044 167.843 229.128C168.413 229.24 168.893 229.366 169.285 229.506C169.677 229.646 170.018 229.889 170.307 230.234C170.597 230.57 170.741 231.037 170.741 231.634C170.741 232.101 170.606 232.521 170.335 232.894C170.065 233.267 169.673 233.561 169.159 233.776C168.655 233.991 168.063 234.098 167.381 234.098ZM175.769 234.098C175.022 234.098 174.36 233.977 173.781 233.734C173.212 233.491 172.759 233.155 172.423 232.726C172.087 232.297 171.896 231.811 171.849 231.27H174.831C174.868 231.503 174.966 231.676 175.125 231.788C175.293 231.9 175.503 231.956 175.755 231.956C175.914 231.956 176.04 231.923 176.133 231.858C176.226 231.783 176.273 231.695 176.273 231.592C176.273 231.415 176.175 231.289 175.979 231.214C175.783 231.139 175.452 231.055 174.985 230.962C174.416 230.85 173.944 230.729 173.571 230.598C173.207 230.467 172.885 230.243 172.605 229.926C172.334 229.609 172.199 229.17 172.199 228.61C172.199 228.125 172.325 227.686 172.577 227.294C172.838 226.893 173.221 226.58 173.725 226.356C174.229 226.123 174.84 226.006 175.559 226.006C176.623 226.006 177.454 226.267 178.051 226.79C178.658 227.313 179.022 227.994 179.143 228.834H176.385C176.338 228.619 176.24 228.456 176.091 228.344C175.942 228.223 175.741 228.162 175.489 228.162C175.33 228.162 175.209 228.195 175.125 228.26C175.041 228.316 174.999 228.405 174.999 228.526C174.999 228.685 175.097 228.806 175.293 228.89C175.489 228.965 175.802 229.044 176.231 229.128C176.8 229.24 177.281 229.366 177.673 229.506C178.065 229.646 178.406 229.889 178.695 230.234C178.984 230.57 179.129 231.037 179.129 231.634C179.129 232.101 178.994 232.521 178.723 232.894C178.452 233.267 178.06 233.561 177.547 233.776C177.043 233.991 176.45 234.098 175.769 234.098ZM192.626 226.104L190.75 234H187.25L186.298 229.548L185.29 234H181.79L179.928 226.104H183.008L183.666 230.906L184.688 226.104H188.006L189.084 230.962L189.756 226.104H192.626ZM197.321 234.098C196.527 234.098 195.813 233.935 195.179 233.608C194.544 233.281 194.045 232.815 193.681 232.208C193.326 231.592 193.149 230.873 193.149 230.052C193.149 229.231 193.326 228.517 193.681 227.91C194.045 227.294 194.544 226.823 195.179 226.496C195.813 226.169 196.527 226.006 197.321 226.006C198.114 226.006 198.828 226.169 199.463 226.496C200.097 226.823 200.592 227.294 200.947 227.91C201.311 228.517 201.493 229.231 201.493 230.052C201.493 230.873 201.311 231.592 200.947 232.208C200.592 232.815 200.097 233.281 199.463 233.608C198.828 233.935 198.114 234.098 197.321 234.098ZM197.321 231.41C197.61 231.41 197.853 231.298 198.049 231.074C198.245 230.841 198.343 230.5 198.343 230.052C198.343 229.604 198.245 229.268 198.049 229.044C197.853 228.811 197.61 228.694 197.321 228.694C197.031 228.694 196.789 228.811 196.593 229.044C196.397 229.268 196.299 229.604 196.299 230.052C196.299 230.5 196.392 230.841 196.579 231.074C196.775 231.298 197.022 231.41 197.321 231.41ZM205.857 227.56C206.174 227.103 206.562 226.739 207.019 226.468C207.476 226.188 207.952 226.048 208.447 226.048V229.366H207.565C206.977 229.366 206.543 229.469 206.263 229.674C205.992 229.879 205.857 230.243 205.857 230.766V234H202.749V226.104H205.857V227.56ZM209.144 230.052C209.144 229.221 209.284 228.503 209.564 227.896C209.854 227.28 210.246 226.813 210.74 226.496C211.235 226.169 211.79 226.006 212.406 226.006C212.92 226.006 213.358 226.113 213.722 226.328C214.096 226.533 214.38 226.818 214.576 227.182V223.64H217.684V234H214.576V232.922C214.38 233.286 214.096 233.575 213.722 233.79C213.358 233.995 212.92 234.098 212.406 234.098C211.79 234.098 211.235 233.939 210.74 233.622C210.246 233.295 209.854 232.829 209.564 232.222C209.284 231.606 209.144 230.883 209.144 230.052ZM214.59 230.052C214.59 229.632 214.483 229.305 214.268 229.072C214.054 228.839 213.778 228.722 213.442 228.722C213.106 228.722 212.831 228.839 212.616 229.072C212.402 229.305 212.294 229.632 212.294 230.052C212.294 230.472 212.402 230.799 212.616 231.032C212.831 231.265 213.106 231.382 213.442 231.382C213.778 231.382 214.054 231.265 214.268 231.032C214.483 230.799 214.59 230.472 214.59 230.052Z" fill="#909090"/>
<mask id="path-4-inside-1_614_10523" fill="white">
<path d="M360.667 230.924C359.604 230.924 358.742 230.062 358.742 229C358.742 227.938 359.604 227.076 360.667 227.076C361.729 227.076 362.591 227.938 362.591 229C362.591 230.062 361.729 230.924 360.667 230.924ZM360.667 227.742C359.973 227.742 359.409 228.307 359.409 229C359.409 229.693 359.973 230.258 360.667 230.258C361.36 230.258 361.924 229.693 361.924 229C361.924 228.307 361.36 227.742 360.667 227.742Z"/>
</mask>
<path d="M360.667 230.924C359.604 230.924 358.742 230.062 358.742 229C358.742 227.938 359.604 227.076 360.667 227.076C361.729 227.076 362.591 227.938 362.591 229C362.591 230.062 361.729 230.924 360.667 230.924ZM360.667 227.742C359.973 227.742 359.409 228.307 359.409 229C359.409 229.693 359.973 230.258 360.667 230.258C361.36 230.258 361.924 229.693 361.924 229C361.924 228.307 361.36 227.742 360.667 227.742Z" fill="#909090"/>
<path d="M360.667 229.924C360.157 229.924 359.742 229.51 359.742 229H357.742C357.742 230.614 359.052 231.924 360.667 231.924V229.924ZM359.742 229C359.742 228.49 360.157 228.076 360.667 228.076V226.076C359.052 226.076 357.742 227.385 357.742 229H359.742ZM360.667 228.076C361.177 228.076 361.591 228.49 361.591 229H363.591C363.591 227.385 362.281 226.076 360.667 226.076V228.076ZM361.591 229C361.591 229.51 361.177 229.924 360.667 229.924V231.924C362.281 231.924 363.591 230.614 363.591 229H361.591ZM360.667 226.742C359.421 226.742 358.409 227.754 358.409 229H360.409C360.409 228.859 360.526 228.742 360.667 228.742V226.742ZM358.409 229C358.409 230.246 359.421 231.258 360.667 231.258V229.258C360.526 229.258 360.409 229.141 360.409 229H358.409ZM360.667 231.258C361.912 231.258 362.924 230.246 362.924 229H360.924C360.924 229.141 360.808 229.258 360.667 229.258V231.258ZM362.924 229C362.924 227.754 361.912 226.742 360.667 226.742V228.742C360.808 228.742 360.924 228.859 360.924 229H362.924Z" fill="#909090" mask="url(#path-4-inside-1_614_10523)"/>
<mask id="path-6-inside-2_614_10523" fill="white">
<path d="M360.667 233.009C358.996 233.009 357.418 232.031 356.333 230.333C355.862 229.6 355.862 228.404 356.333 227.667C357.422 225.969 359 224.991 360.667 224.991C362.333 224.991 363.911 225.969 364.996 227.667C365.467 228.4 365.467 229.596 364.996 230.333C363.911 232.031 362.333 233.009 360.667 233.009ZM360.667 225.658C359.231 225.658 357.858 226.52 356.898 228.027C356.564 228.547 356.564 229.453 356.898 229.973C357.858 231.48 359.231 232.342 360.667 232.342C362.102 232.342 363.476 231.48 364.436 229.973C364.769 229.453 364.769 228.547 364.436 228.027C363.476 226.52 362.102 225.658 360.667 225.658Z"/>
</mask>
<path d="M360.667 233.009C358.996 233.009 357.418 232.031 356.333 230.333C355.862 229.6 355.862 228.404 356.333 227.667C357.422 225.969 359 224.991 360.667 224.991C362.333 224.991 363.911 225.969 364.996 227.667C365.467 228.4 365.467 229.596 364.996 230.333C363.911 232.031 362.333 233.009 360.667 233.009ZM360.667 225.658C359.231 225.658 357.858 226.52 356.898 228.027C356.564 228.547 356.564 229.453 356.898 229.973C357.858 231.48 359.231 232.342 360.667 232.342C362.102 232.342 363.476 231.48 364.436 229.973C364.769 229.453 364.769 228.547 364.436 228.027C363.476 226.52 362.102 225.658 360.667 225.658Z" fill="#909090"/>
<path d="M356.333 230.333L357.176 229.795L357.175 229.793L356.333 230.333ZM356.333 227.667L355.492 227.127L355.491 227.128L356.333 227.667ZM364.996 227.667L364.153 228.205L364.154 228.207L364.996 227.667ZM364.996 230.333L365.838 230.872L365.838 230.871L364.996 230.333ZM356.898 228.027L357.74 228.566L357.741 228.564L356.898 228.027ZM356.898 229.973L357.741 229.436L357.74 229.434L356.898 229.973ZM364.436 229.973L363.594 229.434L363.592 229.436L364.436 229.973ZM364.436 228.027L363.592 228.564L363.594 228.566L364.436 228.027ZM360.667 232.009C359.413 232.009 358.122 231.275 357.176 229.795L355.491 230.872C356.714 232.787 358.578 234.009 360.667 234.009V232.009ZM357.175 229.793C357.065 229.622 356.98 229.339 356.98 229.002C356.98 228.665 357.065 228.379 357.176 228.205L355.491 227.128C355.131 227.692 354.98 228.373 354.98 229.002C354.98 229.63 355.131 230.311 355.492 230.874L357.175 229.793ZM357.175 228.207C358.126 226.724 359.418 225.991 360.667 225.991V223.991C358.582 223.991 356.719 225.214 355.492 227.127L357.175 228.207ZM360.667 225.991C361.916 225.991 363.207 226.724 364.153 228.205L365.838 227.128C364.615 225.214 362.751 223.991 360.667 223.991V225.991ZM364.154 228.207C364.264 228.378 364.349 228.661 364.349 228.998C364.349 229.335 364.264 229.621 364.153 229.795L365.838 230.871C366.198 230.308 366.349 229.627 366.349 228.998C366.349 228.37 366.198 227.689 365.837 227.126L364.154 228.207ZM364.153 229.795C363.207 231.276 361.916 232.009 360.667 232.009V234.009C362.751 234.009 364.615 232.786 365.838 230.872L364.153 229.795ZM360.667 224.658C358.804 224.658 357.147 225.775 356.054 227.489L357.741 228.564C358.569 227.265 359.658 226.658 360.667 226.658V224.658ZM356.056 227.487C355.758 227.951 355.648 228.51 355.648 229C355.648 229.489 355.758 230.049 356.056 230.513L357.74 229.434C357.704 229.378 357.648 229.224 357.648 229C357.648 228.776 357.704 228.622 357.74 228.566L356.056 227.487ZM356.054 230.511C357.147 232.225 358.804 233.342 360.667 233.342V231.342C359.658 231.342 358.569 230.735 357.741 229.436L356.054 230.511ZM360.667 233.342C362.529 233.342 364.186 232.225 365.279 230.511L363.592 229.436C362.765 230.735 361.675 231.342 360.667 231.342V233.342ZM365.277 230.513C365.575 230.049 365.686 229.489 365.686 229C365.686 228.51 365.575 227.951 365.277 227.487L363.594 228.566C363.63 228.622 363.686 228.776 363.686 229C363.686 229.224 363.63 229.378 363.594 229.434L365.277 230.513ZM365.279 227.489C364.186 225.775 362.529 224.658 360.667 224.658V226.658C361.675 226.658 362.765 227.265 363.592 228.564L365.279 227.489Z" fill="#909090" mask="url(#path-6-inside-2_614_10523)"/>
<rect x="130.5" y="208.5" width="249" height="41" rx="7.5" stroke="#909090"/>
<path d="M152.616 73.556L148.59 89H144.036L141.572 78.836L139.02 89H134.466L130.55 73.556H134.576L136.798 84.798L139.548 73.556H143.684L146.324 84.798L148.568 73.556H152.616ZM166.075 82.664C166.075 83.016 166.053 83.3827 166.009 83.764H157.495C157.553 84.5267 157.795 85.1133 158.221 85.524C158.661 85.92 159.196 86.118 159.827 86.118C160.765 86.118 161.418 85.722 161.785 84.93H165.789C165.583 85.7367 165.209 86.4627 164.667 87.108C164.139 87.7533 163.471 88.2593 162.665 88.626C161.858 88.9927 160.956 89.176 159.959 89.176C158.756 89.176 157.685 88.9193 156.747 88.406C155.808 87.8927 155.075 87.1593 154.547 86.206C154.019 85.2527 153.755 84.138 153.755 82.862C153.755 81.586 154.011 80.4713 154.525 79.518C155.053 78.5647 155.786 77.8313 156.725 77.318C157.663 76.8047 158.741 76.548 159.959 76.548C161.147 76.548 162.203 76.7973 163.127 77.296C164.051 77.7947 164.769 78.506 165.283 79.43C165.811 80.354 166.075 81.432 166.075 82.664ZM162.225 81.674C162.225 81.0287 162.005 80.5153 161.565 80.134C161.125 79.7527 160.575 79.562 159.915 79.562C159.284 79.562 158.749 79.7453 158.309 80.112C157.883 80.4787 157.619 80.9993 157.517 81.674H162.225ZM171.821 72.72V89H168.059V72.72H171.821ZM173.8 82.862C173.8 81.586 174.056 80.4713 174.57 79.518C175.098 78.5647 175.824 77.8313 176.748 77.318C177.686 76.8047 178.757 76.548 179.96 76.548C181.5 76.548 182.783 76.9513 183.81 77.758C184.851 78.5647 185.533 79.7013 185.856 81.168H181.852C181.514 80.2293 180.862 79.76 179.894 79.76C179.204 79.76 178.654 80.0313 178.244 80.574C177.833 81.102 177.628 81.8647 177.628 82.862C177.628 83.8593 177.833 84.6293 178.244 85.172C178.654 85.7 179.204 85.964 179.894 85.964C180.862 85.964 181.514 85.4947 181.852 84.556H185.856C185.533 85.9933 184.851 87.1227 183.81 87.944C182.768 88.7653 181.485 89.176 179.96 89.176C178.757 89.176 177.686 88.9193 176.748 88.406C175.824 87.8927 175.098 87.1593 174.57 86.206C174.056 85.2527 173.8 84.138 173.8 82.862ZM193.456 89.176C192.253 89.176 191.168 88.9193 190.2 88.406C189.247 87.8927 188.491 87.1593 187.934 86.206C187.391 85.2527 187.12 84.138 187.12 82.862C187.12 81.6007 187.399 80.4933 187.956 79.54C188.513 78.572 189.276 77.8313 190.244 77.318C191.212 76.8047 192.297 76.548 193.5 76.548C194.703 76.548 195.788 76.8047 196.756 77.318C197.724 77.8313 198.487 78.572 199.044 79.54C199.601 80.4933 199.88 81.6007 199.88 82.862C199.88 84.1233 199.594 85.238 199.022 86.206C198.465 87.1593 197.695 87.8927 196.712 88.406C195.744 88.9193 194.659 89.176 193.456 89.176ZM193.456 85.92C194.175 85.92 194.783 85.656 195.282 85.128C195.795 84.6 196.052 83.8447 196.052 82.862C196.052 81.8793 195.803 81.124 195.304 80.596C194.82 80.068 194.219 79.804 193.5 79.804C192.767 79.804 192.158 80.068 191.674 80.596C191.19 81.1093 190.948 81.8647 190.948 82.862C190.948 83.8447 191.183 84.6 191.652 85.128C192.136 85.656 192.737 85.92 193.456 85.92ZM217.54 76.592C219.065 76.592 220.275 77.054 221.17 77.978C222.079 78.902 222.534 80.1853 222.534 81.828V89H218.794V82.334C218.794 81.542 218.581 80.9333 218.156 80.508C217.745 80.068 217.173 79.848 216.44 79.848C215.706 79.848 215.127 80.068 214.702 80.508C214.291 80.9333 214.086 81.542 214.086 82.334V89H210.346V82.334C210.346 81.542 210.133 80.9333 209.708 80.508C209.297 80.068 208.725 79.848 207.992 79.848C207.258 79.848 206.679 80.068 206.254 80.508C205.843 80.9333 205.638 81.542 205.638 82.334V89H201.876V76.724H205.638V78.264C206.019 77.7507 206.518 77.3473 207.134 77.054C207.75 76.746 208.446 76.592 209.224 76.592C210.148 76.592 210.969 76.79 211.688 77.186C212.421 77.582 212.993 78.1467 213.404 78.88C213.829 78.2053 214.408 77.6553 215.142 77.23C215.875 76.8047 216.674 76.592 217.54 76.592ZM236.737 82.664C236.737 83.016 236.715 83.3827 236.671 83.764H228.157C228.215 84.5267 228.457 85.1133 228.883 85.524C229.323 85.92 229.858 86.118 230.489 86.118C231.427 86.118 232.08 85.722 232.447 84.93H236.451C236.245 85.7367 235.871 86.4627 235.329 87.108C234.801 87.7533 234.133 88.2593 233.327 88.626C232.52 88.9927 231.618 89.176 230.621 89.176C229.418 89.176 228.347 88.9193 227.409 88.406C226.47 87.8927 225.737 87.1593 225.209 86.206C224.681 85.2527 224.417 84.138 224.417 82.862C224.417 81.586 224.673 80.4713 225.187 79.518C225.715 78.5647 226.448 77.8313 227.387 77.318C228.325 76.8047 229.403 76.548 230.621 76.548C231.809 76.548 232.865 76.7973 233.789 77.296C234.713 77.7947 235.431 78.506 235.945 79.43C236.473 80.354 236.737 81.432 236.737 82.664ZM232.887 81.674C232.887 81.0287 232.667 80.5153 232.227 80.134C231.787 79.7527 231.237 79.562 230.577 79.562C229.946 79.562 229.411 79.7453 228.971 80.112C228.545 80.4787 228.281 80.9993 228.179 81.674H232.887ZM252.734 81.08C253.628 81.2707 254.347 81.718 254.89 82.422C255.432 83.1113 255.704 83.9033 255.704 84.798C255.704 86.0887 255.249 87.1153 254.34 87.878C253.445 88.626 252.191 89 250.578 89H243.384V73.556H250.336C251.905 73.556 253.13 73.9153 254.01 74.634C254.904 75.3527 255.352 76.328 255.352 77.56C255.352 78.4693 255.11 79.2247 254.626 79.826C254.156 80.4273 253.526 80.8453 252.734 81.08ZM247.146 79.804H249.61C250.226 79.804 250.695 79.672 251.018 79.408C251.355 79.1293 251.524 78.726 251.524 78.198C251.524 77.67 251.355 77.2667 251.018 76.988C250.695 76.7093 250.226 76.57 249.61 76.57H247.146V79.804ZM249.918 85.964C250.548 85.964 251.032 85.8247 251.37 85.546C251.722 85.2527 251.898 84.8347 251.898 84.292C251.898 83.7493 251.714 83.324 251.348 83.016C250.996 82.708 250.504 82.554 249.874 82.554H247.146V85.964H249.918ZM257.137 82.84C257.137 81.5787 257.372 80.4713 257.841 79.518C258.325 78.5647 258.978 77.8313 259.799 77.318C260.621 76.8047 261.537 76.548 262.549 76.548C263.415 76.548 264.17 76.724 264.815 77.076C265.475 77.428 265.981 77.89 266.333 78.462V76.724H270.095V89H266.333V87.262C265.967 87.834 265.453 88.296 264.793 88.648C264.148 89 263.393 89.176 262.527 89.176C261.53 89.176 260.621 88.9193 259.799 88.406C258.978 87.878 258.325 87.1373 257.841 86.184C257.372 85.216 257.137 84.1013 257.137 82.84ZM266.333 82.862C266.333 81.9233 266.069 81.1827 265.541 80.64C265.028 80.0973 264.397 79.826 263.649 79.826C262.901 79.826 262.263 80.0973 261.735 80.64C261.222 81.168 260.965 81.9013 260.965 82.84C260.965 83.7787 261.222 84.5267 261.735 85.084C262.263 85.6267 262.901 85.898 263.649 85.898C264.397 85.898 265.028 85.6267 265.541 85.084C266.069 84.5413 266.333 83.8007 266.333 82.862ZM272.069 82.862C272.069 81.586 272.326 80.4713 272.839 79.518C273.367 78.5647 274.093 77.8313 275.017 77.318C275.956 76.8047 277.026 76.548 278.229 76.548C279.769 76.548 281.052 76.9513 282.079 77.758C283.12 78.5647 283.802 79.7013 284.125 81.168H280.121C279.784 80.2293 279.131 79.76 278.163 79.76C277.474 79.76 276.924 80.0313 276.513 80.574C276.102 81.102 275.897 81.8647 275.897 82.862C275.897 83.8593 276.102 84.6293 276.513 85.172C276.924 85.7 277.474 85.964 278.163 85.964C279.131 85.964 279.784 85.4947 280.121 84.556H284.125C283.802 85.9933 283.12 87.1227 282.079 87.944C281.038 88.7653 279.754 89.176 278.229 89.176C277.026 89.176 275.956 88.9193 275.017 88.406C274.093 87.8927 273.367 87.1593 272.839 86.206C272.326 85.2527 272.069 84.138 272.069 82.862ZM293.639 89L289.899 83.852V89H286.137V72.72H289.899V81.718L293.617 76.724H298.259L293.155 82.884L298.303 89H293.639ZM304.687 73.006L304.247 83.544H301.057L300.617 73.006H304.687ZM302.707 89.176C302.047 89.176 301.504 88.9853 301.079 88.604C300.668 88.208 300.463 87.724 300.463 87.152C300.463 86.5653 300.668 86.074 301.079 85.678C301.504 85.282 302.047 85.084 302.707 85.084C303.352 85.084 303.88 85.282 304.291 85.678C304.716 86.074 304.929 86.5653 304.929 87.152C304.929 87.724 304.716 88.208 304.291 88.604C303.88 88.9853 303.352 89.176 302.707 89.176Z" fill="#EEEEEE"/>
<rect x="130" y="291" width="250" height="45" rx="8" fill="#925FF0"/>
<path d="M221.42 313.53C221.42 312.55 221.616 311.677 222.008 310.912C222.409 310.147 222.979 309.554 223.716 309.134C224.453 308.705 225.321 308.49 226.32 308.49C227.179 308.49 227.944 308.653 228.616 308.98C229.297 309.297 229.848 309.75 230.268 310.338C230.697 310.926 230.982 311.612 231.122 312.396H227.846C227.697 312.069 227.482 311.817 227.202 311.64C226.931 311.453 226.619 311.36 226.264 311.36C225.741 311.36 225.326 311.556 225.018 311.948C224.719 312.34 224.57 312.867 224.57 313.53C224.57 314.193 224.719 314.72 225.018 315.112C225.326 315.504 225.741 315.7 226.264 315.7C226.619 315.7 226.931 315.611 227.202 315.434C227.482 315.247 227.697 314.991 227.846 314.664H231.122C230.982 315.448 230.697 316.134 230.268 316.722C229.848 317.31 229.297 317.767 228.616 318.094C227.944 318.411 227.179 318.57 226.32 318.57C225.321 318.57 224.453 318.36 223.716 317.94C222.979 317.511 222.409 316.913 222.008 316.148C221.616 315.383 221.42 314.51 221.42 313.53ZM235.993 318.598C235.2 318.598 234.486 318.435 233.851 318.108C233.216 317.781 232.717 317.315 232.353 316.708C231.998 316.092 231.821 315.373 231.821 314.552C231.821 313.731 231.998 313.017 232.353 312.41C232.717 311.794 233.216 311.323 233.851 310.996C234.486 310.669 235.2 310.506 235.993 310.506C236.786 310.506 237.5 310.669 238.135 310.996C238.77 311.323 239.264 311.794 239.619 312.41C239.983 313.017 240.165 313.731 240.165 314.552C240.165 315.373 239.983 316.092 239.619 316.708C239.264 317.315 238.77 317.781 238.135 318.108C237.5 318.435 236.786 318.598 235.993 318.598ZM235.993 315.91C236.282 315.91 236.525 315.798 236.721 315.574C236.917 315.341 237.015 315 237.015 314.552C237.015 314.104 236.917 313.768 236.721 313.544C236.525 313.311 236.282 313.194 235.993 313.194C235.704 313.194 235.461 313.311 235.265 313.544C235.069 313.768 234.971 314.104 234.971 314.552C234.971 315 235.064 315.341 235.251 315.574C235.447 315.798 235.694 315.91 235.993 315.91ZM246.671 310.548C247.577 310.548 248.281 310.851 248.785 311.458C249.299 312.065 249.555 312.886 249.555 313.922V318.5H246.461V314.314C246.461 313.941 246.359 313.647 246.153 313.432C245.957 313.208 245.691 313.096 245.355 313.096C245.01 313.096 244.739 313.208 244.543 313.432C244.347 313.647 244.249 313.941 244.249 314.314V318.5H241.141V310.604H244.249V311.808C244.492 311.435 244.814 311.131 245.215 310.898C245.626 310.665 246.111 310.548 246.671 310.548ZM255.817 315.854V318.5H254.641C252.476 318.5 251.393 317.422 251.393 315.266V313.194H250.413V310.604H251.393V308.7H254.501V310.604H255.789V313.194H254.501V315.322C254.501 315.509 254.543 315.644 254.627 315.728C254.72 315.812 254.87 315.854 255.075 315.854H255.817ZM258.569 309.974C258.027 309.974 257.593 309.829 257.267 309.54C256.94 309.251 256.777 308.887 256.777 308.448C256.777 308 256.94 307.631 257.267 307.342C257.593 307.043 258.027 306.894 258.569 306.894C259.101 306.894 259.53 307.043 259.857 307.342C260.183 307.631 260.347 308 260.347 308.448C260.347 308.887 260.183 309.251 259.857 309.54C259.53 309.829 259.101 309.974 258.569 309.974ZM260.109 310.604V318.5H257.001V310.604H260.109ZM267.043 310.548C267.948 310.548 268.653 310.851 269.157 311.458C269.67 312.065 269.927 312.886 269.927 313.922V318.5H266.833V314.314C266.833 313.941 266.73 313.647 266.525 313.432C266.329 313.208 266.063 313.096 265.727 313.096C265.381 313.096 265.111 313.208 264.915 313.432C264.719 313.647 264.621 313.941 264.621 314.314V318.5H261.513V310.604H264.621V311.808C264.863 311.435 265.185 311.131 265.587 310.898C265.997 310.665 266.483 310.548 267.043 310.548ZM279.632 310.604V318.5H276.524V317.296C276.282 317.669 275.955 317.973 275.544 318.206C275.143 318.439 274.662 318.556 274.102 318.556C273.197 318.556 272.488 318.253 271.974 317.646C271.47 317.039 271.218 316.218 271.218 315.182V310.604H274.312V314.79C274.312 315.163 274.41 315.462 274.606 315.686C274.812 315.901 275.082 316.008 275.418 316.008C275.764 316.008 276.034 315.901 276.23 315.686C276.426 315.462 276.524 315.163 276.524 314.79V310.604H279.632ZM288.68 314.482C288.68 314.697 288.666 314.902 288.638 315.098H283.64C283.687 315.779 283.971 316.12 284.494 316.12C284.83 316.12 285.073 315.966 285.222 315.658H288.512C288.4 316.218 288.162 316.722 287.798 317.17C287.443 317.609 286.991 317.959 286.44 318.22C285.899 318.472 285.301 318.598 284.648 318.598C283.864 318.598 283.164 318.435 282.548 318.108C281.941 317.781 281.465 317.315 281.12 316.708C280.784 316.092 280.616 315.373 280.616 314.552C280.616 313.731 280.784 313.017 281.12 312.41C281.465 311.794 281.941 311.323 282.548 310.996C283.164 310.669 283.864 310.506 284.648 310.506C285.432 310.506 286.127 310.669 286.734 310.996C287.35 311.313 287.826 311.771 288.162 312.368C288.507 312.965 288.68 313.67 288.68 314.482ZM285.53 313.74C285.53 313.479 285.446 313.283 285.278 313.152C285.11 313.012 284.9 312.942 284.648 312.942C284.097 312.942 283.775 313.208 283.682 313.74H285.53Z" fill="white"/>
<path d="M221.42 313.53C221.42 312.55 221.616 311.677 222.008 310.912C222.409 310.147 222.979 309.554 223.716 309.134C224.453 308.705 225.321 308.49 226.32 308.49C227.179 308.49 227.944 308.653 228.616 308.98C229.297 309.297 229.848 309.75 230.268 310.338C230.697 310.926 230.982 311.612 231.122 312.396H227.846C227.697 312.069 227.482 311.817 227.202 311.64C226.931 311.453 226.619 311.36 226.264 311.36C225.741 311.36 225.326 311.556 225.018 311.948C224.719 312.34 224.57 312.867 224.57 313.53C224.57 314.193 224.719 314.72 225.018 315.112C225.326 315.504 225.741 315.7 226.264 315.7C226.619 315.7 226.931 315.611 227.202 315.434C227.482 315.247 227.697 314.991 227.846 314.664H231.122C230.982 315.448 230.697 316.134 230.268 316.722C229.848 317.31 229.297 317.767 228.616 318.094C227.944 318.411 227.179 318.57 226.32 318.57C225.321 318.57 224.453 318.36 223.716 317.94C222.979 317.511 222.409 316.913 222.008 316.148C221.616 315.383 221.42 314.51 221.42 313.53ZM235.993 318.598C235.2 318.598 234.486 318.435 233.851 318.108C233.216 317.781 232.717 317.315 232.353 316.708C231.998 316.092 231.821 315.373 231.821 314.552C231.821 313.731 231.998 313.017 232.353 312.41C232.717 311.794 233.216 311.323 233.851 310.996C234.486 310.669 235.2 310.506 235.993 310.506C236.786 310.506 237.5 310.669 238.135 310.996C238.77 311.323 239.264 311.794 239.619 312.41C239.983 313.017 240.165 313.731 240.165 314.552C240.165 315.373 239.983 316.092 239.619 316.708C239.264 317.315 238.77 317.781 238.135 318.108C237.5 318.435 236.786 318.598 235.993 318.598ZM235.993 315.91C236.282 315.91 236.525 315.798 236.721 315.574C236.917 315.341 237.015 315 237.015 314.552C237.015 314.104 236.917 313.768 236.721 313.544C236.525 313.311 236.282 313.194 235.993 313.194C235.704 313.194 235.461 313.311 235.265 313.544C235.069 313.768 234.971 314.104 234.971 314.552C234.971 315 235.064 315.341 235.251 315.574C235.447 315.798 235.694 315.91 235.993 315.91ZM246.671 310.548C247.577 310.548 248.281 310.851 248.785 311.458C249.299 312.065 249.555 312.886 249.555 313.922V318.5H246.461V314.314C246.461 313.941 246.359 313.647 246.153 313.432C245.957 313.208 245.691 313.096 245.355 313.096C245.01 313.096 244.739 313.208 244.543 313.432C244.347 313.647 244.249 313.941 244.249 314.314V318.5H241.141V310.604H244.249V311.808C244.492 311.435 244.814 311.131 245.215 310.898C245.626 310.665 246.111 310.548 246.671 310.548ZM255.817 315.854V318.5H254.641C252.476 318.5 251.393 317.422 251.393 315.266V313.194H250.413V310.604H251.393V308.7H254.501V310.604H255.789V313.194H254.501V315.322C254.501 315.509 254.543 315.644 254.627 315.728C254.72 315.812 254.87 315.854 255.075 315.854H255.817ZM258.569 309.974C258.027 309.974 257.593 309.829 257.267 309.54C256.94 309.251 256.777 308.887 256.777 308.448C256.777 308 256.94 307.631 257.267 307.342C257.593 307.043 258.027 306.894 258.569 306.894C259.101 306.894 259.53 307.043 259.857 307.342C260.183 307.631 260.347 308 260.347 308.448C260.347 308.887 260.183 309.251 259.857 309.54C259.53 309.829 259.101 309.974 258.569 309.974ZM260.109 310.604V318.5H257.001V310.604H260.109ZM267.043 310.548C267.948 310.548 268.653 310.851 269.157 311.458C269.67 312.065 269.927 312.886 269.927 313.922V318.5H266.833V314.314C266.833 313.941 266.73 313.647 266.525 313.432C266.329 313.208 266.063 313.096 265.727 313.096C265.381 313.096 265.111 313.208 264.915 313.432C264.719 313.647 264.621 313.941 264.621 314.314V318.5H261.513V310.604H264.621V311.808C264.863 311.435 265.185 311.131 265.587 310.898C265.997 310.665 266.483 310.548 267.043 310.548ZM279.632 310.604V318.5H276.524V317.296C276.282 317.669 275.955 317.973 275.544 318.206C275.143 318.439 274.662 318.556 274.102 318.556C273.197 318.556 272.488 318.253 271.974 317.646C271.47 317.039 271.218 316.218 271.218 315.182V310.604H274.312V314.79C274.312 315.163 274.41 315.462 274.606 315.686C274.812 315.901 275.082 316.008 275.418 316.008C275.764 316.008 276.034 315.901 276.23 315.686C276.426 315.462 276.524 315.163 276.524 314.79V310.604H279.632ZM288.68 314.482C288.68 314.697 288.666 314.902 288.638 315.098H283.64C283.687 315.779 283.971 316.12 284.494 316.12C284.83 316.12 285.073 315.966 285.222 315.658H288.512C288.4 316.218 288.162 316.722 287.798 317.17C287.443 317.609 286.991 317.959 286.44 318.22C285.899 318.472 285.301 318.598 284.648 318.598C283.864 318.598 283.164 318.435 282.548 318.108C281.941 317.781 281.465 317.315 281.12 316.708C280.784 316.092 280.616 315.373 280.616 314.552C280.616 313.731 280.784 313.017 281.12 312.41C281.465 311.794 281.941 311.323 282.548 310.996C283.164 310.669 283.864 310.506 284.648 310.506C285.432 310.506 286.127 310.669 286.734 310.996C287.35 311.313 287.826 311.771 288.162 312.368C288.507 312.965 288.68 313.67 288.68 314.482ZM285.53 313.74C285.53 313.479 285.446 313.283 285.278 313.152C285.11 313.012 284.9 312.942 284.648 312.942C284.097 312.942 283.775 313.208 283.682 313.74H285.53Z" fill="#EEEEEE"/>
<rect x="130.5" y="146.5" width="249" height="41" rx="7.5" fill="#202020"/>
<path d="M149.53 172.098C148.597 172.098 147.738 171.879 146.954 171.44C146.179 171.001 145.563 170.395 145.106 169.62C144.649 168.845 144.42 167.973 144.42 167.002C144.42 166.031 144.649 165.159 145.106 164.384C145.563 163.609 146.179 163.007 146.954 162.578C147.738 162.139 148.597 161.92 149.53 161.92C150.463 161.92 151.317 162.139 152.092 162.578C152.867 163.007 153.478 163.609 153.926 164.384C154.383 165.159 154.612 166.031 154.612 167.002C154.612 167.973 154.383 168.845 153.926 169.62C153.478 170.395 152.862 171.001 152.078 171.44C151.303 171.879 150.454 172.098 149.53 172.098ZM149.53 169.2C150.146 169.2 150.622 169.004 150.958 168.612C151.294 168.211 151.462 167.674 151.462 167.002C151.462 166.321 151.294 165.784 150.958 165.392C150.622 164.991 150.146 164.79 149.53 164.79C148.905 164.79 148.424 164.991 148.088 165.392C147.752 165.784 147.584 166.321 147.584 167.002C147.584 167.674 147.752 168.211 148.088 168.612C148.424 169.004 148.905 169.2 149.53 169.2ZM160.017 169.046L161.277 164.104H164.581L161.949 172H158.071L155.439 164.104H158.743L160.017 169.046ZM173.33 167.982C173.33 168.197 173.316 168.402 173.288 168.598H168.29C168.336 169.279 168.621 169.62 169.144 169.62C169.48 169.62 169.722 169.466 169.872 169.158H173.162C173.05 169.718 172.812 170.222 172.448 170.67C172.093 171.109 171.64 171.459 171.09 171.72C170.548 171.972 169.951 172.098 169.298 172.098C168.514 172.098 167.814 171.935 167.198 171.608C166.591 171.281 166.115 170.815 165.77 170.208C165.434 169.592 165.266 168.873 165.266 168.052C165.266 167.231 165.434 166.517 165.77 165.91C166.115 165.294 166.591 164.823 167.198 164.496C167.814 164.169 168.514 164.006 169.298 164.006C170.082 164.006 170.777 164.169 171.384 164.496C172 164.813 172.476 165.271 172.812 165.868C173.157 166.465 173.33 167.17 173.33 167.982ZM170.18 167.24C170.18 166.979 170.096 166.783 169.928 166.652C169.76 166.512 169.55 166.442 169.298 166.442C168.747 166.442 168.425 166.708 168.332 167.24H170.18ZM177.701 165.56C178.018 165.103 178.405 164.739 178.863 164.468C179.32 164.188 179.796 164.048 180.291 164.048V167.366H179.409C178.821 167.366 178.387 167.469 178.107 167.674C177.836 167.879 177.701 168.243 177.701 168.766V172H174.593V164.104H177.701V165.56ZM184.516 161.64V172H181.408V161.64H184.516ZM193.844 167.982C193.844 168.197 193.83 168.402 193.802 168.598H188.804C188.85 169.279 189.135 169.62 189.658 169.62C189.994 169.62 190.236 169.466 190.386 169.158H193.676C193.564 169.718 193.326 170.222 192.962 170.67C192.607 171.109 192.154 171.459 191.604 171.72C191.062 171.972 190.465 172.098 189.812 172.098C189.028 172.098 188.328 171.935 187.712 171.608C187.105 171.281 186.629 170.815 186.284 170.208C185.948 169.592 185.78 168.873 185.78 168.052C185.78 167.231 185.948 166.517 186.284 165.91C186.629 165.294 187.105 164.823 187.712 164.496C188.328 164.169 189.028 164.006 189.812 164.006C190.596 164.006 191.291 164.169 191.898 164.496C192.514 164.813 192.99 165.271 193.326 165.868C193.671 166.465 193.844 167.17 193.844 167.982ZM190.694 167.24C190.694 166.979 190.61 166.783 190.442 166.652C190.274 166.512 190.064 166.442 189.812 166.442C189.261 166.442 188.939 166.708 188.846 167.24H190.694ZM194.687 168.052C194.687 167.221 194.827 166.503 195.107 165.896C195.396 165.28 195.788 164.813 196.283 164.496C196.777 164.169 197.333 164.006 197.949 164.006C198.462 164.006 198.905 164.113 199.279 164.328C199.652 164.533 199.937 164.818 200.133 165.182V164.104H203.227V172H200.133V170.922C199.937 171.286 199.652 171.575 199.279 171.79C198.905 171.995 198.462 172.098 197.949 172.098C197.333 172.098 196.777 171.939 196.283 171.622C195.788 171.295 195.396 170.829 195.107 170.222C194.827 169.606 194.687 168.883 194.687 168.052ZM200.133 168.052C200.133 167.632 200.025 167.305 199.811 167.072C199.596 166.839 199.321 166.722 198.985 166.722C198.649 166.722 198.373 166.839 198.159 167.072C197.944 167.305 197.837 167.632 197.837 168.052C197.837 168.472 197.944 168.799 198.159 169.032C198.373 169.265 198.649 169.382 198.985 169.382C199.321 169.382 199.596 169.265 199.811 169.032C200.025 168.799 200.133 168.472 200.133 168.052ZM208.906 169.046L210.166 164.104H213.47L210.838 172H206.96L204.328 164.104H207.632L208.906 169.046ZM222.219 167.982C222.219 168.197 222.205 168.402 222.177 168.598H217.179C217.225 169.279 217.51 169.62 218.033 169.62C218.369 169.62 218.611 169.466 218.761 169.158H222.051C221.939 169.718 221.701 170.222 221.337 170.67C220.982 171.109 220.529 171.459 219.979 171.72C219.437 171.972 218.84 172.098 218.187 172.098C217.403 172.098 216.703 171.935 216.087 171.608C215.48 171.281 215.004 170.815 214.659 170.208C214.323 169.592 214.155 168.873 214.155 168.052C214.155 167.231 214.323 166.517 214.659 165.91C215.004 165.294 215.48 164.823 216.087 164.496C216.703 164.169 217.403 164.006 218.187 164.006C218.971 164.006 219.666 164.169 220.273 164.496C220.889 164.813 221.365 165.271 221.701 165.868C222.046 166.465 222.219 167.17 222.219 167.982ZM219.069 167.24C219.069 166.979 218.985 166.783 218.817 166.652C218.649 166.512 218.439 166.442 218.187 166.442C217.636 166.442 217.314 166.708 217.221 167.24H219.069ZM226.59 165.56C226.907 165.103 227.294 164.739 227.752 164.468C228.209 164.188 228.685 164.048 229.18 164.048V167.366H228.298C227.71 167.366 227.276 167.469 226.996 167.674C226.725 167.879 226.59 168.243 226.59 168.766V172H223.482V164.104H226.59V165.56Z" fill="#EEEEEE"/>
<path d="M360.667 167C361.894 167 362.889 166.005 362.889 164.778C362.889 163.551 361.894 162.556 360.667 162.556C359.439 162.556 358.444 163.551 358.444 164.778C358.444 166.005 359.439 167 360.667 167Z" stroke="#909090" stroke-linecap="round" stroke-linejoin="round"/>
<path opacity="0.4" d="M364.484 171.444C364.484 169.724 362.773 168.333 360.667 168.333C358.56 168.333 356.849 169.724 356.849 171.444" stroke="#909090" stroke-linecap="round" stroke-linejoin="round"/>
<rect x="130.5" y="146.5" width="249" height="41" rx="7.5" stroke="#BE9FF6"/>
<path d="M139.552 106.384C139.552 107.035 139.403 107.632 139.104 108.176C138.805 108.709 138.347 109.141 137.728 109.472C137.109 109.803 136.341 109.968 135.424 109.968H133.728V114H130.992V102.768H135.424C136.32 102.768 137.077 102.923 137.696 103.232C138.315 103.541 138.779 103.968 139.088 104.512C139.397 105.056 139.552 105.68 139.552 106.384ZM135.216 107.792C135.739 107.792 136.128 107.669 136.384 107.424C136.64 107.179 136.768 106.832 136.768 106.384C136.768 105.936 136.64 105.589 136.384 105.344C136.128 105.099 135.739 104.976 135.216 104.976H133.728V107.792H135.216ZM143.712 102.16V114H140.976V102.16H143.712ZM154.111 109.392C154.111 109.648 154.095 109.915 154.063 110.192H147.871C147.914 110.747 148.09 111.173 148.399 111.472C148.719 111.76 149.108 111.904 149.567 111.904C150.25 111.904 150.724 111.616 150.991 111.04H153.903C153.754 111.627 153.482 112.155 153.087 112.624C152.703 113.093 152.218 113.461 151.631 113.728C151.044 113.995 150.388 114.128 149.663 114.128C148.788 114.128 148.01 113.941 147.327 113.568C146.644 113.195 146.111 112.661 145.727 111.968C145.343 111.275 145.151 110.464 145.151 109.536C145.151 108.608 145.338 107.797 145.711 107.104C146.095 106.411 146.628 105.877 147.311 105.504C147.994 105.131 148.778 104.944 149.663 104.944C150.527 104.944 151.295 105.125 151.967 105.488C152.639 105.851 153.162 106.368 153.535 107.04C153.919 107.712 154.111 108.496 154.111 109.392ZM151.311 108.672C151.311 108.203 151.151 107.829 150.831 107.552C150.511 107.275 150.111 107.136 149.631 107.136C149.172 107.136 148.783 107.269 148.463 107.536C148.154 107.803 147.962 108.181 147.887 108.672H151.311ZM155.011 109.52C155.011 108.603 155.181 107.797 155.523 107.104C155.875 106.411 156.349 105.877 156.947 105.504C157.544 105.131 158.211 104.944 158.947 104.944C159.576 104.944 160.125 105.072 160.595 105.328C161.075 105.584 161.443 105.92 161.699 106.336V105.072H164.435V114H161.699V112.736C161.432 113.152 161.059 113.488 160.579 113.744C160.109 114 159.56 114.128 158.931 114.128C158.205 114.128 157.544 113.941 156.947 113.568C156.349 113.184 155.875 112.645 155.523 111.952C155.181 111.248 155.011 110.437 155.011 109.52ZM161.699 109.536C161.699 108.853 161.507 108.315 161.123 107.92C160.749 107.525 160.291 107.328 159.747 107.328C159.203 107.328 158.739 107.525 158.355 107.92C157.981 108.304 157.795 108.837 157.795 109.52C157.795 110.203 157.981 110.747 158.355 111.152C158.739 111.547 159.203 111.744 159.747 111.744C160.291 111.744 160.749 111.547 161.123 111.152C161.507 110.757 161.699 110.219 161.699 109.536ZM170.046 114.128C169.267 114.128 168.574 113.995 167.966 113.728C167.358 113.461 166.878 113.099 166.526 112.64C166.174 112.171 165.977 111.648 165.934 111.072H168.638C168.67 111.381 168.814 111.632 169.07 111.824C169.326 112.016 169.641 112.112 170.014 112.112C170.355 112.112 170.617 112.048 170.798 111.92C170.99 111.781 171.086 111.605 171.086 111.392C171.086 111.136 170.953 110.949 170.686 110.832C170.419 110.704 169.987 110.565 169.39 110.416C168.75 110.267 168.217 110.112 167.79 109.952C167.363 109.781 166.995 109.52 166.686 109.168C166.377 108.805 166.222 108.32 166.222 107.712C166.222 107.2 166.361 106.736 166.638 106.32C166.926 105.893 167.342 105.557 167.886 105.312C168.441 105.067 169.097 104.944 169.854 104.944C170.974 104.944 171.854 105.221 172.494 105.776C173.145 106.331 173.518 107.067 173.614 107.984H171.086C171.043 107.675 170.905 107.429 170.67 107.248C170.446 107.067 170.147 106.976 169.774 106.976C169.454 106.976 169.209 107.04 169.038 107.168C168.867 107.285 168.782 107.451 168.782 107.664C168.782 107.92 168.915 108.112 169.182 108.24C169.459 108.368 169.886 108.496 170.462 108.624C171.123 108.795 171.662 108.965 172.078 109.136C172.494 109.296 172.857 109.563 173.166 109.936C173.486 110.299 173.651 110.789 173.662 111.408C173.662 111.931 173.513 112.4 173.214 112.816C172.926 113.221 172.505 113.541 171.95 113.776C171.406 114.011 170.771 114.128 170.046 114.128ZM183.752 109.392C183.752 109.648 183.736 109.915 183.704 110.192H177.512C177.554 110.747 177.73 111.173 178.04 111.472C178.36 111.76 178.749 111.904 179.208 111.904C179.89 111.904 180.365 111.616 180.632 111.04H183.544C183.394 111.627 183.122 112.155 182.728 112.624C182.344 113.093 181.858 113.461 181.272 113.728C180.685 113.995 180.029 114.128 179.304 114.128C178.429 114.128 177.65 113.941 176.968 113.568C176.285 113.195 175.752 112.661 175.368 111.968C174.984 111.275 174.792 110.464 174.792 109.536C174.792 108.608 174.978 107.797 175.352 107.104C175.736 106.411 176.269 105.877 176.952 105.504C177.634 105.131 178.418 104.944 179.304 104.944C180.168 104.944 180.936 105.125 181.608 105.488C182.28 105.851 182.802 106.368 183.176 107.04C183.56 107.712 183.752 108.496 183.752 109.392ZM180.952 108.672C180.952 108.203 180.792 107.829 180.472 107.552C180.152 107.275 179.752 107.136 179.272 107.136C178.813 107.136 178.424 107.269 178.104 107.536C177.794 107.803 177.602 108.181 177.528 108.672H180.952ZM192.218 114.128C191.439 114.128 190.746 113.995 190.138 113.728C189.53 113.461 189.05 113.099 188.698 112.64C188.346 112.171 188.148 111.648 188.106 111.072H190.81C190.842 111.381 190.986 111.632 191.242 111.824C191.498 112.016 191.812 112.112 192.186 112.112C192.527 112.112 192.788 112.048 192.97 111.92C193.162 111.781 193.258 111.605 193.258 111.392C193.258 111.136 193.124 110.949 192.858 110.832C192.591 110.704 192.159 110.565 191.562 110.416C190.922 110.267 190.388 110.112 189.962 109.952C189.535 109.781 189.167 109.52 188.858 109.168C188.548 108.805 188.394 108.32 188.394 107.712C188.394 107.2 188.532 106.736 188.81 106.32C189.098 105.893 189.514 105.557 190.058 105.312C190.612 105.067 191.268 104.944 192.026 104.944C193.146 104.944 194.026 105.221 194.666 105.776C195.316 106.331 195.69 107.067 195.786 107.984H193.258C193.215 107.675 193.076 107.429 192.842 107.248C192.618 107.067 192.319 106.976 191.946 106.976C191.626 106.976 191.38 107.04 191.21 107.168C191.039 107.285 190.954 107.451 190.954 107.664C190.954 107.92 191.087 108.112 191.354 108.24C191.631 108.368 192.058 108.496 192.634 108.624C193.295 108.795 193.834 108.965 194.25 109.136C194.666 109.296 195.028 109.563 195.338 109.936C195.658 110.299 195.823 110.789 195.834 111.408C195.834 111.931 195.684 112.4 195.386 112.816C195.098 113.221 194.676 113.541 194.122 113.776C193.578 114.011 192.943 114.128 192.218 114.128ZM198.884 104.144C198.404 104.144 198.009 104.005 197.7 103.728C197.401 103.44 197.252 103.088 197.252 102.672C197.252 102.245 197.401 101.893 197.7 101.616C198.009 101.328 198.404 101.184 198.884 101.184C199.353 101.184 199.737 101.328 200.036 101.616C200.345 101.893 200.5 102.245 200.5 102.672C200.5 103.088 200.345 103.44 200.036 103.728C199.737 104.005 199.353 104.144 198.884 104.144ZM200.244 105.072V114H197.508V105.072H200.244ZM205.618 104.944C206.248 104.944 206.797 105.072 207.266 105.328C207.746 105.584 208.114 105.92 208.37 106.336V105.072H211.106V113.984C211.106 114.805 210.941 115.547 210.61 116.208C210.29 116.88 209.794 117.413 209.122 117.808C208.461 118.203 207.634 118.4 206.642 118.4C205.32 118.4 204.248 118.085 203.426 117.456C202.605 116.837 202.136 115.995 202.018 114.928H204.722C204.808 115.269 205.01 115.536 205.33 115.728C205.65 115.931 206.045 116.032 206.514 116.032C207.08 116.032 207.528 115.867 207.858 115.536C208.2 115.216 208.37 114.699 208.37 113.984V112.72C208.104 113.136 207.736 113.477 207.266 113.744C206.797 114 206.248 114.128 205.618 114.128C204.882 114.128 204.216 113.941 203.618 113.568C203.021 113.184 202.546 112.645 202.194 111.952C201.853 111.248 201.682 110.437 201.682 109.52C201.682 108.603 201.853 107.797 202.194 107.104C202.546 106.411 203.021 105.877 203.618 105.504C204.216 105.131 204.882 104.944 205.618 104.944ZM208.37 109.536C208.37 108.853 208.178 108.315 207.794 107.92C207.421 107.525 206.962 107.328 206.418 107.328C205.874 107.328 205.41 107.525 205.026 107.92C204.653 108.304 204.466 108.837 204.466 109.52C204.466 110.203 204.653 110.747 205.026 111.152C205.41 111.547 205.874 111.744 206.418 111.744C206.962 111.744 207.421 111.547 207.794 111.152C208.178 110.757 208.37 110.219 208.37 109.536ZM218.526 104.976C219.571 104.976 220.403 105.317 221.022 106C221.651 106.672 221.966 107.6 221.966 108.784V114H219.246V109.152C219.246 108.555 219.091 108.091 218.782 107.76C218.472 107.429 218.056 107.264 217.534 107.264C217.011 107.264 216.595 107.429 216.286 107.76C215.976 108.091 215.822 108.555 215.822 109.152V114H213.086V105.072H215.822V106.256C216.099 105.861 216.472 105.552 216.942 105.328C217.411 105.093 217.939 104.976 218.526 104.976ZM228.634 104.144C228.154 104.144 227.759 104.005 227.45 103.728C227.151 103.44 227.002 103.088 227.002 102.672C227.002 102.245 227.151 101.893 227.45 101.616C227.759 101.328 228.154 101.184 228.634 101.184C229.103 101.184 229.487 101.328 229.786 101.616C230.095 101.893 230.25 102.245 230.25 102.672C230.25 103.088 230.095 103.44 229.786 103.728C229.487 104.005 229.103 104.144 228.634 104.144ZM229.994 105.072V114H227.258V105.072H229.994ZM237.416 104.976C238.462 104.976 239.294 105.317 239.912 106C240.542 106.672 240.856 107.6 240.856 108.784V114H238.136V109.152C238.136 108.555 237.982 108.091 237.672 107.76C237.363 107.429 236.947 107.264 236.424 107.264C235.902 107.264 235.486 107.429 235.176 107.76C234.867 108.091 234.712 108.555 234.712 109.152V114H231.976V105.072H234.712V106.256C234.99 105.861 235.363 105.552 235.832 105.328C236.302 105.093 236.83 104.976 237.416 104.976ZM247.734 111.68V114H246.342C245.35 114 244.576 113.76 244.022 113.28C243.467 112.789 243.19 111.995 243.19 110.896V107.344H242.102V105.072H243.19V102.896H245.926V105.072H247.718V107.344H245.926V110.928C245.926 111.195 245.99 111.387 246.118 111.504C246.246 111.621 246.459 111.68 246.758 111.68H247.734ZM253.322 114.128C252.447 114.128 251.658 113.941 250.954 113.568C250.26 113.195 249.711 112.661 249.306 111.968C248.911 111.275 248.714 110.464 248.714 109.536C248.714 108.619 248.916 107.813 249.322 107.12C249.727 106.416 250.282 105.877 250.986 105.504C251.69 105.131 252.479 104.944 253.354 104.944C254.228 104.944 255.018 105.131 255.722 105.504C256.426 105.877 256.98 106.416 257.386 107.12C257.791 107.813 257.994 108.619 257.994 109.536C257.994 110.453 257.786 111.264 257.37 111.968C256.964 112.661 256.404 113.195 255.69 113.568C254.986 113.941 254.196 114.128 253.322 114.128ZM253.322 111.76C253.844 111.76 254.287 111.568 254.65 111.184C255.023 110.8 255.21 110.251 255.21 109.536C255.21 108.821 255.028 108.272 254.666 107.888C254.314 107.504 253.876 107.312 253.354 107.312C252.82 107.312 252.378 107.504 252.026 107.888C251.674 108.261 251.498 108.811 251.498 109.536C251.498 110.251 251.668 110.8 252.01 111.184C252.362 111.568 252.799 111.76 253.322 111.76ZM271.956 105.072L266.356 118.24H263.412L265.46 113.696L261.828 105.072H264.884L266.948 110.656L268.996 105.072H271.956ZM277.009 114.128C276.134 114.128 275.345 113.941 274.641 113.568C273.948 113.195 273.398 112.661 272.993 111.968C272.598 111.275 272.401 110.464 272.401 109.536C272.401 108.619 272.604 107.813 273.009 107.12C273.414 106.416 273.969 105.877 274.673 105.504C275.377 105.131 276.166 104.944 277.041 104.944C277.916 104.944 278.705 105.131 279.409 105.504C280.113 105.877 280.668 106.416 281.073 107.12C281.478 107.813 281.681 108.619 281.681 109.536C281.681 110.453 281.473 111.264 281.057 111.968C280.652 112.661 280.092 113.195 279.377 113.568C278.673 113.941 277.884 114.128 277.009 114.128ZM277.009 111.76C277.532 111.76 277.974 111.568 278.337 111.184C278.71 110.8 278.897 110.251 278.897 109.536C278.897 108.821 278.716 108.272 278.353 107.888C278.001 107.504 277.564 107.312 277.041 107.312C276.508 107.312 276.065 107.504 275.713 107.888C275.361 108.261 275.185 108.811 275.185 109.536C275.185 110.251 275.356 110.8 275.697 111.184C276.049 111.568 276.486 111.76 277.009 111.76ZM291.949 105.072V114H289.213V112.784C288.935 113.179 288.557 113.499 288.077 113.744C287.607 113.979 287.085 114.096 286.509 114.096C285.826 114.096 285.223 113.947 284.701 113.648C284.178 113.339 283.773 112.896 283.485 112.32C283.197 111.744 283.053 111.067 283.053 110.288V105.072H285.773V109.92C285.773 110.517 285.927 110.981 286.237 111.312C286.546 111.643 286.962 111.808 287.485 111.808C288.018 111.808 288.439 111.643 288.749 111.312C289.058 110.981 289.213 110.517 289.213 109.92V105.072H291.949ZM296.65 106.56C296.97 106.069 297.37 105.685 297.85 105.408C298.33 105.12 298.863 104.976 299.45 104.976V107.872H298.698C298.015 107.872 297.503 108.021 297.162 108.32C296.821 108.608 296.65 109.12 296.65 109.856V114H293.914V105.072H296.65V106.56ZM303.604 109.52C303.604 108.603 303.775 107.797 304.116 107.104C304.468 106.411 304.943 105.877 305.54 105.504C306.138 105.131 306.804 104.944 307.54 104.944C308.17 104.944 308.719 105.072 309.188 105.328C309.668 105.584 310.036 105.92 310.292 106.336V105.072H313.028V114H310.292V112.736C310.026 113.152 309.652 113.488 309.172 113.744C308.703 114 308.154 114.128 307.524 114.128C306.799 114.128 306.138 113.941 305.54 113.568C304.943 113.184 304.468 112.645 304.116 111.952C303.775 111.248 303.604 110.437 303.604 109.52ZM310.292 109.536C310.292 108.853 310.1 108.315 309.716 107.92C309.343 107.525 308.884 107.328 308.34 107.328C307.796 107.328 307.332 107.525 306.948 107.92C306.575 108.304 306.388 108.837 306.388 109.52C306.388 110.203 306.575 110.747 306.948 111.152C307.332 111.547 307.796 111.744 308.34 111.744C308.884 111.744 309.343 111.547 309.716 111.152C310.1 110.757 310.292 110.219 310.292 109.536ZM314.464 109.536C314.464 108.608 314.65 107.797 315.024 107.104C315.408 106.411 315.936 105.877 316.608 105.504C317.29 105.131 318.069 104.944 318.944 104.944C320.064 104.944 320.997 105.237 321.744 105.824C322.501 106.411 322.997 107.237 323.232 108.304H320.32C320.074 107.621 319.6 107.28 318.896 107.28C318.394 107.28 317.994 107.477 317.696 107.872C317.397 108.256 317.248 108.811 317.248 109.536C317.248 110.261 317.397 110.821 317.696 111.216C317.994 111.6 318.394 111.792 318.896 111.792C319.6 111.792 320.074 111.451 320.32 110.768H323.232C322.997 111.813 322.501 112.635 321.744 113.232C320.986 113.829 320.053 114.128 318.944 114.128C318.069 114.128 317.29 113.941 316.608 113.568C315.936 113.195 315.408 112.661 315.024 111.968C314.65 111.275 314.464 110.464 314.464 109.536ZM324.151 109.536C324.151 108.608 324.338 107.797 324.711 107.104C325.095 106.411 325.623 105.877 326.295 105.504C326.978 105.131 327.756 104.944 328.631 104.944C329.751 104.944 330.684 105.237 331.431 105.824C332.188 106.411 332.684 107.237 332.919 108.304H330.007C329.762 107.621 329.287 107.28 328.583 107.28C328.082 107.28 327.682 107.477 327.383 107.872C327.084 108.256 326.935 108.811 326.935 109.536C326.935 110.261 327.084 110.821 327.383 111.216C327.682 111.6 328.082 111.792 328.583 111.792C329.287 111.792 329.762 111.451 330.007 110.768H332.919C332.684 111.813 332.188 112.635 331.431 113.232C330.674 113.829 329.74 114.128 328.631 114.128C327.756 114.128 326.978 113.941 326.295 113.568C325.623 113.195 325.095 112.661 324.711 111.968C324.338 111.275 324.151 110.464 324.151 109.536ZM338.447 114.128C337.572 114.128 336.783 113.941 336.079 113.568C335.385 113.195 334.836 112.661 334.431 111.968C334.036 111.275 333.839 110.464 333.839 109.536C333.839 108.619 334.041 107.813 334.447 107.12C334.852 106.416 335.407 105.877 336.111 105.504C336.815 105.131 337.604 104.944 338.479 104.944C339.353 104.944 340.143 105.131 340.847 105.504C341.551 105.877 342.105 106.416 342.511 107.12C342.916 107.813 343.119 108.619 343.119 109.536C343.119 110.453 342.911 111.264 342.495 111.968C342.089 112.661 341.529 113.195 340.815 113.568C340.111 113.941 339.321 114.128 338.447 114.128ZM338.447 111.76C338.969 111.76 339.412 111.568 339.775 111.184C340.148 110.8 340.335 110.251 340.335 109.536C340.335 108.821 340.153 108.272 339.791 107.888C339.439 107.504 339.001 107.312 338.479 107.312C337.945 107.312 337.503 107.504 337.151 107.888C336.799 108.261 336.623 108.811 336.623 109.536C336.623 110.251 336.793 110.8 337.135 111.184C337.487 111.568 337.924 111.76 338.447 111.76ZM353.386 105.072V114H350.65V112.784C350.373 113.179 349.994 113.499 349.514 113.744C349.045 113.979 348.522 114.096 347.946 114.096C347.263 114.096 346.661 113.947 346.138 113.648C345.615 113.339 345.21 112.896 344.922 112.32C344.634 111.744 344.49 111.067 344.49 110.288V105.072H347.21V109.92C347.21 110.517 347.365 110.981 347.674 111.312C347.983 111.643 348.399 111.808 348.922 111.808C349.455 111.808 349.877 111.643 350.186 111.312C350.495 110.981 350.65 110.517 350.65 109.92V105.072H353.386ZM360.791 104.976C361.837 104.976 362.669 105.317 363.287 106C363.917 106.672 364.231 107.6 364.231 108.784V114H361.511V109.152C361.511 108.555 361.357 108.091 361.047 107.76C360.738 107.429 360.322 107.264 359.799 107.264C359.277 107.264 358.861 107.429 358.551 107.76C358.242 108.091 358.087 108.555 358.087 109.152V114H355.351V105.072H358.087V106.256C358.365 105.861 358.738 105.552 359.207 105.328C359.677 105.093 360.205 104.976 360.791 104.976ZM371.109 111.68V114H369.717C368.725 114 367.951 113.76 367.397 113.28C366.842 112.789 366.565 111.995 366.565 110.896V107.344H365.477V105.072H366.565V102.896H369.301V105.072H371.093V107.344H369.301V110.928C369.301 111.195 369.365 111.387 369.493 111.504C369.621 111.621 369.834 111.68 370.133 111.68H371.109Z" fill="#939393"/>
<path d="M232 157H233V167.5V178H232V157Z" fill="#EEEEEE"/>
</svg>
