<svg width="509" height="417" viewBox="0 0 509 417" fill="none" xmlns="http://www.w3.org/2000/svg">
<rect width="509" height="417" fill="#202020"/>
<rect x="100" y="40" width="308" height="336" rx="6" fill="#2E2E2E"/>
<rect x="129.5" y="208.5" width="249" height="41" rx="7.5" fill="#202020"/>
<path d="M151.806 227.49C151.806 228.115 151.661 228.685 151.372 229.198C151.083 229.702 150.653 230.103 150.084 230.402C149.524 230.701 148.843 230.85 148.04 230.85H146.808V234H143.7V224.088H148.04C149.253 224.088 150.182 224.396 150.826 225.012C151.479 225.628 151.806 226.454 151.806 227.49ZM147.69 228.4C148.334 228.4 148.656 228.097 148.656 227.49C148.656 226.883 148.334 226.58 147.69 226.58H146.808V228.4H147.69ZM152.652 230.052C152.652 229.221 152.792 228.503 153.072 227.896C153.361 227.28 153.753 226.813 154.248 226.496C154.742 226.169 155.298 226.006 155.914 226.006C156.427 226.006 156.87 226.113 157.244 226.328C157.617 226.533 157.902 226.818 158.098 227.182V226.104H161.192V234H158.098V232.922C157.902 233.286 157.617 233.575 157.244 233.79C156.87 233.995 156.427 234.098 155.914 234.098C155.298 234.098 154.742 233.939 154.248 233.622C153.753 233.295 153.361 232.829 153.072 232.222C152.792 231.606 152.652 230.883 152.652 230.052ZM158.098 230.052C158.098 229.632 157.99 229.305 157.776 229.072C157.561 228.839 157.286 228.722 156.95 228.722C156.614 228.722 156.338 228.839 156.124 229.072C155.909 229.305 155.802 229.632 155.802 230.052C155.802 230.472 155.909 230.799 156.124 231.032C156.338 231.265 156.614 231.382 156.95 231.382C157.286 231.382 157.561 231.265 157.776 231.032C157.99 230.799 158.098 230.472 158.098 230.052ZM166.381 234.098C165.635 234.098 164.972 233.977 164.393 233.734C163.824 233.491 163.371 233.155 163.035 232.726C162.699 232.297 162.508 231.811 162.461 231.27H165.443C165.481 231.503 165.579 231.676 165.737 231.788C165.905 231.9 166.115 231.956 166.367 231.956C166.526 231.956 166.652 231.923 166.745 231.858C166.839 231.783 166.885 231.695 166.885 231.592C166.885 231.415 166.787 231.289 166.591 231.214C166.395 231.139 166.064 231.055 165.597 230.962C165.028 230.85 164.557 230.729 164.183 230.598C163.819 230.467 163.497 230.243 163.217 229.926C162.947 229.609 162.811 229.17 162.811 228.61C162.811 228.125 162.937 227.686 163.189 227.294C163.451 226.893 163.833 226.58 164.337 226.356C164.841 226.123 165.453 226.006 166.171 226.006C167.235 226.006 168.066 226.267 168.663 226.79C169.27 227.313 169.634 227.994 169.755 228.834H166.997C166.951 228.619 166.853 228.456 166.703 228.344C166.554 228.223 166.353 228.162 166.101 228.162C165.943 228.162 165.821 228.195 165.737 228.26C165.653 228.316 165.611 228.405 165.611 228.526C165.611 228.685 165.709 228.806 165.905 228.89C166.101 228.965 166.414 229.044 166.843 229.128C167.413 229.24 167.893 229.366 168.285 229.506C168.677 229.646 169.018 229.889 169.307 230.234C169.597 230.57 169.741 231.037 169.741 231.634C169.741 232.101 169.606 232.521 169.335 232.894C169.065 233.267 168.673 233.561 168.159 233.776C167.655 233.991 167.063 234.098 166.381 234.098ZM174.769 234.098C174.022 234.098 173.36 233.977 172.781 233.734C172.212 233.491 171.759 233.155 171.423 232.726C171.087 232.297 170.896 231.811 170.849 231.27H173.831C173.868 231.503 173.966 231.676 174.125 231.788C174.293 231.9 174.503 231.956 174.755 231.956C174.914 231.956 175.04 231.923 175.133 231.858C175.226 231.783 175.273 231.695 175.273 231.592C175.273 231.415 175.175 231.289 174.979 231.214C174.783 231.139 174.452 231.055 173.985 230.962C173.416 230.85 172.944 230.729 172.571 230.598C172.207 230.467 171.885 230.243 171.605 229.926C171.334 229.609 171.199 229.17 171.199 228.61C171.199 228.125 171.325 227.686 171.577 227.294C171.838 226.893 172.221 226.58 172.725 226.356C173.229 226.123 173.84 226.006 174.559 226.006C175.623 226.006 176.454 226.267 177.051 226.79C177.658 227.313 178.022 227.994 178.143 228.834H175.385C175.338 228.619 175.24 228.456 175.091 228.344C174.942 228.223 174.741 228.162 174.489 228.162C174.33 228.162 174.209 228.195 174.125 228.26C174.041 228.316 173.999 228.405 173.999 228.526C173.999 228.685 174.097 228.806 174.293 228.89C174.489 228.965 174.802 229.044 175.231 229.128C175.8 229.24 176.281 229.366 176.673 229.506C177.065 229.646 177.406 229.889 177.695 230.234C177.984 230.57 178.129 231.037 178.129 231.634C178.129 232.101 177.994 232.521 177.723 232.894C177.452 233.267 177.06 233.561 176.547 233.776C176.043 233.991 175.45 234.098 174.769 234.098ZM191.626 226.104L189.75 234H186.25L185.298 229.548L184.29 234H180.79L178.928 226.104H182.008L182.666 230.906L183.688 226.104H187.006L188.084 230.962L188.756 226.104H191.626ZM196.321 234.098C195.527 234.098 194.813 233.935 194.179 233.608C193.544 233.281 193.045 232.815 192.681 232.208C192.326 231.592 192.149 230.873 192.149 230.052C192.149 229.231 192.326 228.517 192.681 227.91C193.045 227.294 193.544 226.823 194.179 226.496C194.813 226.169 195.527 226.006 196.321 226.006C197.114 226.006 197.828 226.169 198.463 226.496C199.097 226.823 199.592 227.294 199.947 227.91C200.311 228.517 200.493 229.231 200.493 230.052C200.493 230.873 200.311 231.592 199.947 232.208C199.592 232.815 199.097 233.281 198.463 233.608C197.828 233.935 197.114 234.098 196.321 234.098ZM196.321 231.41C196.61 231.41 196.853 231.298 197.049 231.074C197.245 230.841 197.343 230.5 197.343 230.052C197.343 229.604 197.245 229.268 197.049 229.044C196.853 228.811 196.61 228.694 196.321 228.694C196.031 228.694 195.789 228.811 195.593 229.044C195.397 229.268 195.299 229.604 195.299 230.052C195.299 230.5 195.392 230.841 195.579 231.074C195.775 231.298 196.022 231.41 196.321 231.41ZM204.857 227.56C205.174 227.103 205.562 226.739 206.019 226.468C206.476 226.188 206.952 226.048 207.447 226.048V229.366H206.565C205.977 229.366 205.543 229.469 205.263 229.674C204.992 229.879 204.857 230.243 204.857 230.766V234H201.749V226.104H204.857V227.56ZM208.144 230.052C208.144 229.221 208.284 228.503 208.564 227.896C208.854 227.28 209.246 226.813 209.74 226.496C210.235 226.169 210.79 226.006 211.406 226.006C211.92 226.006 212.358 226.113 212.722 226.328C213.096 226.533 213.38 226.818 213.576 227.182V223.64H216.684V234H213.576V232.922C213.38 233.286 213.096 233.575 212.722 233.79C212.358 233.995 211.92 234.098 211.406 234.098C210.79 234.098 210.235 233.939 209.74 233.622C209.246 233.295 208.854 232.829 208.564 232.222C208.284 231.606 208.144 230.883 208.144 230.052ZM213.59 230.052C213.59 229.632 213.483 229.305 213.268 229.072C213.054 228.839 212.778 228.722 212.442 228.722C212.106 228.722 211.831 228.839 211.616 229.072C211.402 229.305 211.294 229.632 211.294 230.052C211.294 230.472 211.402 230.799 211.616 231.032C211.831 231.265 212.106 231.382 212.442 231.382C212.778 231.382 213.054 231.265 213.268 231.032C213.483 230.799 213.59 230.472 213.59 230.052Z" fill="#909090"/>
<mask id="path-4-inside-1_557_10513" fill="white">
<path d="M359.667 230.924C358.604 230.924 357.742 230.062 357.742 229C357.742 227.938 358.604 227.076 359.667 227.076C360.729 227.076 361.591 227.938 361.591 229C361.591 230.062 360.729 230.924 359.667 230.924ZM359.667 227.742C358.973 227.742 358.409 228.307 358.409 229C358.409 229.693 358.973 230.258 359.667 230.258C360.36 230.258 360.924 229.693 360.924 229C360.924 228.307 360.36 227.742 359.667 227.742Z"/>
</mask>
<path d="M359.667 230.924C358.604 230.924 357.742 230.062 357.742 229C357.742 227.938 358.604 227.076 359.667 227.076C360.729 227.076 361.591 227.938 361.591 229C361.591 230.062 360.729 230.924 359.667 230.924ZM359.667 227.742C358.973 227.742 358.409 228.307 358.409 229C358.409 229.693 358.973 230.258 359.667 230.258C360.36 230.258 360.924 229.693 360.924 229C360.924 228.307 360.36 227.742 359.667 227.742Z" fill="#909090"/>
<path d="M359.667 229.924C359.157 229.924 358.742 229.51 358.742 229H356.742C356.742 230.615 358.052 231.924 359.667 231.924V229.924ZM358.742 229C358.742 228.49 359.157 228.076 359.667 228.076V226.076C358.052 226.076 356.742 227.385 356.742 229H358.742ZM359.667 228.076C360.177 228.076 360.591 228.49 360.591 229H362.591C362.591 227.385 361.281 226.076 359.667 226.076V228.076ZM360.591 229C360.591 229.51 360.177 229.924 359.667 229.924V231.924C361.281 231.924 362.591 230.615 362.591 229H360.591ZM359.667 226.742C358.421 226.742 357.409 227.754 357.409 229H359.409C359.409 228.859 359.526 228.742 359.667 228.742V226.742ZM357.409 229C357.409 230.246 358.421 231.258 359.667 231.258V229.258C359.526 229.258 359.409 229.141 359.409 229H357.409ZM359.667 231.258C360.912 231.258 361.924 230.246 361.924 229H359.924C359.924 229.141 359.808 229.258 359.667 229.258V231.258ZM361.924 229C361.924 227.754 360.912 226.742 359.667 226.742V228.742C359.808 228.742 359.924 228.859 359.924 229H361.924Z" fill="#909090" mask="url(#path-4-inside-1_557_10513)"/>
<mask id="path-6-inside-2_557_10513" fill="white">
<path d="M359.667 233.009C357.996 233.009 356.418 232.031 355.333 230.333C354.862 229.6 354.862 228.404 355.333 227.667C356.422 225.969 358 224.991 359.667 224.991C361.333 224.991 362.911 225.969 363.996 227.667C364.467 228.4 364.467 229.596 363.996 230.333C362.911 232.031 361.333 233.009 359.667 233.009ZM359.667 225.658C358.231 225.658 356.858 226.52 355.898 228.027C355.564 228.547 355.564 229.453 355.898 229.973C356.858 231.48 358.231 232.342 359.667 232.342C361.102 232.342 362.476 231.48 363.436 229.973C363.769 229.453 363.769 228.547 363.436 228.027C362.476 226.52 361.102 225.658 359.667 225.658Z"/>
</mask>
<path d="M359.667 233.009C357.996 233.009 356.418 232.031 355.333 230.333C354.862 229.6 354.862 228.404 355.333 227.667C356.422 225.969 358 224.991 359.667 224.991C361.333 224.991 362.911 225.969 363.996 227.667C364.467 228.4 364.467 229.596 363.996 230.333C362.911 232.031 361.333 233.009 359.667 233.009ZM359.667 225.658C358.231 225.658 356.858 226.52 355.898 228.027C355.564 228.547 355.564 229.453 355.898 229.973C356.858 231.48 358.231 232.342 359.667 232.342C361.102 232.342 362.476 231.48 363.436 229.973C363.769 229.453 363.769 228.547 363.436 228.027C362.476 226.52 361.102 225.658 359.667 225.658Z" fill="#909090"/>
<path d="M355.333 230.333L356.176 229.795L356.175 229.793L355.333 230.333ZM355.333 227.667L354.492 227.127L354.491 227.128L355.333 227.667ZM363.996 227.667L363.153 228.205L363.154 228.207L363.996 227.667ZM363.996 230.333L364.838 230.872L364.838 230.871L363.996 230.333ZM355.898 228.027L356.74 228.566L356.741 228.564L355.898 228.027ZM355.898 229.973L356.741 229.436L356.74 229.434L355.898 229.973ZM363.436 229.973L362.594 229.434L362.592 229.436L363.436 229.973ZM363.436 228.027L362.592 228.564L362.594 228.566L363.436 228.027ZM359.667 232.009C358.413 232.009 357.122 231.275 356.176 229.795L354.491 230.872C355.714 232.787 357.578 234.009 359.667 234.009V232.009ZM356.175 229.793C356.065 229.622 355.98 229.339 355.98 229.002C355.98 228.665 356.065 228.379 356.176 228.205L354.491 227.128C354.131 227.692 353.98 228.373 353.98 229.002C353.98 229.63 354.131 230.311 354.492 230.874L356.175 229.793ZM356.175 228.207C357.126 226.724 358.418 225.991 359.667 225.991V223.991C357.582 223.991 355.719 225.214 354.492 227.127L356.175 228.207ZM359.667 225.991C360.916 225.991 362.207 226.724 363.153 228.205L364.838 227.128C363.615 225.214 361.751 223.991 359.667 223.991V225.991ZM363.154 228.207C363.264 228.378 363.349 228.661 363.349 228.998C363.349 229.335 363.264 229.621 363.153 229.795L364.838 230.871C365.198 230.308 365.349 229.627 365.349 228.998C365.349 228.37 365.198 227.689 364.837 227.126L363.154 228.207ZM363.153 229.795C362.207 231.276 360.916 232.009 359.667 232.009V234.009C361.751 234.009 363.615 232.786 364.838 230.872L363.153 229.795ZM359.667 224.658C357.804 224.658 356.147 225.775 355.054 227.489L356.741 228.564C357.569 227.265 358.658 226.658 359.667 226.658V224.658ZM355.056 227.487C354.758 227.951 354.648 228.51 354.648 229C354.648 229.489 354.758 230.049 355.056 230.513L356.74 229.434C356.704 229.378 356.648 229.224 356.648 229C356.648 228.776 356.704 228.622 356.74 228.566L355.056 227.487ZM355.054 230.511C356.147 232.225 357.804 233.342 359.667 233.342V231.342C358.658 231.342 357.569 230.735 356.741 229.436L355.054 230.511ZM359.667 233.342C361.529 233.342 363.186 232.225 364.279 230.511L362.592 229.436C361.765 230.735 360.675 231.342 359.667 231.342V233.342ZM364.277 230.513C364.575 230.049 364.686 229.489 364.686 229C364.686 228.51 364.575 227.951 364.277 227.487L362.594 228.566C362.63 228.622 362.686 228.776 362.686 229C362.686 229.224 362.63 229.378 362.594 229.434L364.277 230.513ZM364.279 227.489C363.186 225.775 361.529 224.658 359.667 224.658V226.658C360.675 226.658 361.765 227.265 362.592 228.564L364.279 227.489Z" fill="#909090" mask="url(#path-6-inside-2_557_10513)"/>
<rect x="129.5" y="208.5" width="249" height="41" rx="7.5" stroke="#909090"/>
<path d="M151.616 73.556L147.59 89H143.036L140.572 78.836L138.02 89H133.466L129.55 73.556H133.576L135.798 84.798L138.548 73.556H142.684L145.324 84.798L147.568 73.556H151.616ZM165.075 82.664C165.075 83.016 165.053 83.3827 165.009 83.764H156.495C156.553 84.5267 156.795 85.1133 157.221 85.524C157.661 85.92 158.196 86.118 158.827 86.118C159.765 86.118 160.418 85.722 160.785 84.93H164.789C164.583 85.7367 164.209 86.4627 163.667 87.108C163.139 87.7533 162.471 88.2593 161.665 88.626C160.858 88.9927 159.956 89.176 158.959 89.176C157.756 89.176 156.685 88.9193 155.747 88.406C154.808 87.8927 154.075 87.1593 153.547 86.206C153.019 85.2527 152.755 84.138 152.755 82.862C152.755 81.586 153.011 80.4713 153.525 79.518C154.053 78.5647 154.786 77.8313 155.725 77.318C156.663 76.8047 157.741 76.548 158.959 76.548C160.147 76.548 161.203 76.7973 162.127 77.296C163.051 77.7947 163.769 78.506 164.283 79.43C164.811 80.354 165.075 81.432 165.075 82.664ZM161.225 81.674C161.225 81.0287 161.005 80.5153 160.565 80.134C160.125 79.7527 159.575 79.562 158.915 79.562C158.284 79.562 157.749 79.7453 157.309 80.112C156.883 80.4787 156.619 80.9993 156.517 81.674H161.225ZM170.821 72.72V89H167.059V72.72H170.821ZM172.8 82.862C172.8 81.586 173.056 80.4713 173.57 79.518C174.098 78.5647 174.824 77.8313 175.748 77.318C176.686 76.8047 177.757 76.548 178.96 76.548C180.5 76.548 181.783 76.9513 182.81 77.758C183.851 78.5647 184.533 79.7013 184.856 81.168H180.852C180.514 80.2293 179.862 79.76 178.894 79.76C178.204 79.76 177.654 80.0313 177.244 80.574C176.833 81.102 176.628 81.8647 176.628 82.862C176.628 83.8593 176.833 84.6293 177.244 85.172C177.654 85.7 178.204 85.964 178.894 85.964C179.862 85.964 180.514 85.4947 180.852 84.556H184.856C184.533 85.9933 183.851 87.1227 182.81 87.944C181.768 88.7653 180.485 89.176 178.96 89.176C177.757 89.176 176.686 88.9193 175.748 88.406C174.824 87.8927 174.098 87.1593 173.57 86.206C173.056 85.2527 172.8 84.138 172.8 82.862ZM192.456 89.176C191.253 89.176 190.168 88.9193 189.2 88.406C188.247 87.8927 187.491 87.1593 186.934 86.206C186.391 85.2527 186.12 84.138 186.12 82.862C186.12 81.6007 186.399 80.4933 186.956 79.54C187.513 78.572 188.276 77.8313 189.244 77.318C190.212 76.8047 191.297 76.548 192.5 76.548C193.703 76.548 194.788 76.8047 195.756 77.318C196.724 77.8313 197.487 78.572 198.044 79.54C198.601 80.4933 198.88 81.6007 198.88 82.862C198.88 84.1233 198.594 85.238 198.022 86.206C197.465 87.1593 196.695 87.8927 195.712 88.406C194.744 88.9193 193.659 89.176 192.456 89.176ZM192.456 85.92C193.175 85.92 193.783 85.656 194.282 85.128C194.795 84.6 195.052 83.8447 195.052 82.862C195.052 81.8793 194.803 81.124 194.304 80.596C193.82 80.068 193.219 79.804 192.5 79.804C191.767 79.804 191.158 80.068 190.674 80.596C190.19 81.1093 189.948 81.8647 189.948 82.862C189.948 83.8447 190.183 84.6 190.652 85.128C191.136 85.656 191.737 85.92 192.456 85.92ZM216.54 76.592C218.065 76.592 219.275 77.054 220.17 77.978C221.079 78.902 221.534 80.1853 221.534 81.828V89H217.794V82.334C217.794 81.542 217.581 80.9333 217.156 80.508C216.745 80.068 216.173 79.848 215.44 79.848C214.706 79.848 214.127 80.068 213.702 80.508C213.291 80.9333 213.086 81.542 213.086 82.334V89H209.346V82.334C209.346 81.542 209.133 80.9333 208.708 80.508C208.297 80.068 207.725 79.848 206.992 79.848C206.258 79.848 205.679 80.068 205.254 80.508C204.843 80.9333 204.638 81.542 204.638 82.334V89H200.876V76.724H204.638V78.264C205.019 77.7507 205.518 77.3473 206.134 77.054C206.75 76.746 207.446 76.592 208.224 76.592C209.148 76.592 209.969 76.79 210.688 77.186C211.421 77.582 211.993 78.1467 212.404 78.88C212.829 78.2053 213.408 77.6553 214.142 77.23C214.875 76.8047 215.674 76.592 216.54 76.592ZM235.737 82.664C235.737 83.016 235.715 83.3827 235.671 83.764H227.157C227.215 84.5267 227.457 85.1133 227.883 85.524C228.323 85.92 228.858 86.118 229.489 86.118C230.427 86.118 231.08 85.722 231.447 84.93H235.451C235.245 85.7367 234.871 86.4627 234.329 87.108C233.801 87.7533 233.133 88.2593 232.327 88.626C231.52 88.9927 230.618 89.176 229.621 89.176C228.418 89.176 227.347 88.9193 226.409 88.406C225.47 87.8927 224.737 87.1593 224.209 86.206C223.681 85.2527 223.417 84.138 223.417 82.862C223.417 81.586 223.673 80.4713 224.187 79.518C224.715 78.5647 225.448 77.8313 226.387 77.318C227.325 76.8047 228.403 76.548 229.621 76.548C230.809 76.548 231.865 76.7973 232.789 77.296C233.713 77.7947 234.431 78.506 234.945 79.43C235.473 80.354 235.737 81.432 235.737 82.664ZM231.887 81.674C231.887 81.0287 231.667 80.5153 231.227 80.134C230.787 79.7527 230.237 79.562 229.577 79.562C228.946 79.562 228.411 79.7453 227.971 80.112C227.545 80.4787 227.281 80.9993 227.179 81.674H231.887ZM251.734 81.08C252.628 81.2707 253.347 81.718 253.89 82.422C254.432 83.1113 254.704 83.9033 254.704 84.798C254.704 86.0887 254.249 87.1153 253.34 87.878C252.445 88.626 251.191 89 249.578 89H242.384V73.556H249.336C250.905 73.556 252.13 73.9153 253.01 74.634C253.904 75.3527 254.352 76.328 254.352 77.56C254.352 78.4693 254.11 79.2247 253.626 79.826C253.156 80.4273 252.526 80.8453 251.734 81.08ZM246.146 79.804H248.61C249.226 79.804 249.695 79.672 250.018 79.408C250.355 79.1293 250.524 78.726 250.524 78.198C250.524 77.67 250.355 77.2667 250.018 76.988C249.695 76.7093 249.226 76.57 248.61 76.57H246.146V79.804ZM248.918 85.964C249.548 85.964 250.032 85.8247 250.37 85.546C250.722 85.2527 250.898 84.8347 250.898 84.292C250.898 83.7493 250.714 83.324 250.348 83.016C249.996 82.708 249.504 82.554 248.874 82.554H246.146V85.964H248.918ZM256.137 82.84C256.137 81.5787 256.372 80.4713 256.841 79.518C257.325 78.5647 257.978 77.8313 258.799 77.318C259.621 76.8047 260.537 76.548 261.549 76.548C262.415 76.548 263.17 76.724 263.815 77.076C264.475 77.428 264.981 77.89 265.333 78.462V76.724H269.095V89H265.333V87.262C264.967 87.834 264.453 88.296 263.793 88.648C263.148 89 262.393 89.176 261.527 89.176C260.53 89.176 259.621 88.9193 258.799 88.406C257.978 87.878 257.325 87.1373 256.841 86.184C256.372 85.216 256.137 84.1013 256.137 82.84ZM265.333 82.862C265.333 81.9233 265.069 81.1827 264.541 80.64C264.028 80.0973 263.397 79.826 262.649 79.826C261.901 79.826 261.263 80.0973 260.735 80.64C260.222 81.168 259.965 81.9013 259.965 82.84C259.965 83.7787 260.222 84.5267 260.735 85.084C261.263 85.6267 261.901 85.898 262.649 85.898C263.397 85.898 264.028 85.6267 264.541 85.084C265.069 84.5413 265.333 83.8007 265.333 82.862ZM271.069 82.862C271.069 81.586 271.326 80.4713 271.839 79.518C272.367 78.5647 273.093 77.8313 274.017 77.318C274.956 76.8047 276.026 76.548 277.229 76.548C278.769 76.548 280.052 76.9513 281.079 77.758C282.12 78.5647 282.802 79.7013 283.125 81.168H279.121C278.784 80.2293 278.131 79.76 277.163 79.76C276.474 79.76 275.924 80.0313 275.513 80.574C275.102 81.102 274.897 81.8647 274.897 82.862C274.897 83.8593 275.102 84.6293 275.513 85.172C275.924 85.7 276.474 85.964 277.163 85.964C278.131 85.964 278.784 85.4947 279.121 84.556H283.125C282.802 85.9933 282.12 87.1227 281.079 87.944C280.038 88.7653 278.754 89.176 277.229 89.176C276.026 89.176 274.956 88.9193 274.017 88.406C273.093 87.8927 272.367 87.1593 271.839 86.206C271.326 85.2527 271.069 84.138 271.069 82.862ZM292.639 89L288.899 83.852V89H285.137V72.72H288.899V81.718L292.617 76.724H297.259L292.155 82.884L297.303 89H292.639ZM303.687 73.006L303.247 83.544H300.057L299.617 73.006H303.687ZM301.707 89.176C301.047 89.176 300.504 88.9853 300.079 88.604C299.668 88.208 299.463 87.724 299.463 87.152C299.463 86.5653 299.668 86.074 300.079 85.678C300.504 85.282 301.047 85.084 301.707 85.084C302.352 85.084 302.88 85.282 303.291 85.678C303.716 86.074 303.929 86.5653 303.929 87.152C303.929 87.724 303.716 88.208 303.291 88.604C302.88 88.9853 302.352 89.176 301.707 89.176Z" fill="#EEEEEE"/>
<rect x="129" y="291" width="250" height="45" rx="8" fill="#925FF0"/>
<path d="M220.42 313.53C220.42 312.55 220.616 311.677 221.008 310.912C221.409 310.147 221.979 309.554 222.716 309.134C223.453 308.705 224.321 308.49 225.32 308.49C226.179 308.49 226.944 308.653 227.616 308.98C228.297 309.297 228.848 309.75 229.268 310.338C229.697 310.926 229.982 311.612 230.122 312.396H226.846C226.697 312.069 226.482 311.817 226.202 311.64C225.931 311.453 225.619 311.36 225.264 311.36C224.741 311.36 224.326 311.556 224.018 311.948C223.719 312.34 223.57 312.867 223.57 313.53C223.57 314.193 223.719 314.72 224.018 315.112C224.326 315.504 224.741 315.7 225.264 315.7C225.619 315.7 225.931 315.611 226.202 315.434C226.482 315.247 226.697 314.991 226.846 314.664H230.122C229.982 315.448 229.697 316.134 229.268 316.722C228.848 317.31 228.297 317.767 227.616 318.094C226.944 318.411 226.179 318.57 225.32 318.57C224.321 318.57 223.453 318.36 222.716 317.94C221.979 317.511 221.409 316.913 221.008 316.148C220.616 315.383 220.42 314.51 220.42 313.53ZM234.993 318.598C234.2 318.598 233.486 318.435 232.851 318.108C232.216 317.781 231.717 317.315 231.353 316.708C230.998 316.092 230.821 315.373 230.821 314.552C230.821 313.731 230.998 313.017 231.353 312.41C231.717 311.794 232.216 311.323 232.851 310.996C233.486 310.669 234.2 310.506 234.993 310.506C235.786 310.506 236.5 310.669 237.135 310.996C237.77 311.323 238.264 311.794 238.619 312.41C238.983 313.017 239.165 313.731 239.165 314.552C239.165 315.373 238.983 316.092 238.619 316.708C238.264 317.315 237.77 317.781 237.135 318.108C236.5 318.435 235.786 318.598 234.993 318.598ZM234.993 315.91C235.282 315.91 235.525 315.798 235.721 315.574C235.917 315.341 236.015 315 236.015 314.552C236.015 314.104 235.917 313.768 235.721 313.544C235.525 313.311 235.282 313.194 234.993 313.194C234.704 313.194 234.461 313.311 234.265 313.544C234.069 313.768 233.971 314.104 233.971 314.552C233.971 315 234.064 315.341 234.251 315.574C234.447 315.798 234.694 315.91 234.993 315.91ZM245.671 310.548C246.577 310.548 247.281 310.851 247.785 311.458C248.299 312.065 248.555 312.886 248.555 313.922V318.5H245.461V314.314C245.461 313.941 245.359 313.647 245.153 313.432C244.957 313.208 244.691 313.096 244.355 313.096C244.01 313.096 243.739 313.208 243.543 313.432C243.347 313.647 243.249 313.941 243.249 314.314V318.5H240.141V310.604H243.249V311.808C243.492 311.435 243.814 311.131 244.215 310.898C244.626 310.665 245.111 310.548 245.671 310.548ZM254.817 315.854V318.5H253.641C251.476 318.5 250.393 317.422 250.393 315.266V313.194H249.413V310.604H250.393V308.7H253.501V310.604H254.789V313.194H253.501V315.322C253.501 315.509 253.543 315.644 253.627 315.728C253.72 315.812 253.87 315.854 254.075 315.854H254.817ZM257.569 309.974C257.027 309.974 256.593 309.829 256.267 309.54C255.94 309.251 255.777 308.887 255.777 308.448C255.777 308 255.94 307.631 256.267 307.342C256.593 307.043 257.027 306.894 257.569 306.894C258.101 306.894 258.53 307.043 258.857 307.342C259.183 307.631 259.347 308 259.347 308.448C259.347 308.887 259.183 309.251 258.857 309.54C258.53 309.829 258.101 309.974 257.569 309.974ZM259.109 310.604V318.5H256.001V310.604H259.109ZM266.043 310.548C266.948 310.548 267.653 310.851 268.157 311.458C268.67 312.065 268.927 312.886 268.927 313.922V318.5H265.833V314.314C265.833 313.941 265.73 313.647 265.525 313.432C265.329 313.208 265.063 313.096 264.727 313.096C264.381 313.096 264.111 313.208 263.915 313.432C263.719 313.647 263.621 313.941 263.621 314.314V318.5H260.513V310.604H263.621V311.808C263.863 311.435 264.185 311.131 264.587 310.898C264.997 310.665 265.483 310.548 266.043 310.548ZM278.632 310.604V318.5H275.524V317.296C275.282 317.669 274.955 317.973 274.544 318.206C274.143 318.439 273.662 318.556 273.102 318.556C272.197 318.556 271.488 318.253 270.974 317.646C270.47 317.039 270.218 316.218 270.218 315.182V310.604H273.312V314.79C273.312 315.163 273.41 315.462 273.606 315.686C273.812 315.901 274.082 316.008 274.418 316.008C274.764 316.008 275.034 315.901 275.23 315.686C275.426 315.462 275.524 315.163 275.524 314.79V310.604H278.632ZM287.68 314.482C287.68 314.697 287.666 314.902 287.638 315.098H282.64C282.687 315.779 282.971 316.12 283.494 316.12C283.83 316.12 284.073 315.966 284.222 315.658H287.512C287.4 316.218 287.162 316.722 286.798 317.17C286.443 317.609 285.991 317.959 285.44 318.22C284.899 318.472 284.301 318.598 283.648 318.598C282.864 318.598 282.164 318.435 281.548 318.108C280.941 317.781 280.465 317.315 280.12 316.708C279.784 316.092 279.616 315.373 279.616 314.552C279.616 313.731 279.784 313.017 280.12 312.41C280.465 311.794 280.941 311.323 281.548 310.996C282.164 310.669 282.864 310.506 283.648 310.506C284.432 310.506 285.127 310.669 285.734 310.996C286.35 311.313 286.826 311.771 287.162 312.368C287.507 312.965 287.68 313.67 287.68 314.482ZM284.53 313.74C284.53 313.479 284.446 313.283 284.278 313.152C284.11 313.012 283.9 312.942 283.648 312.942C283.097 312.942 282.775 313.208 282.682 313.74H284.53Z" fill="white"/>
<path d="M220.42 313.53C220.42 312.55 220.616 311.677 221.008 310.912C221.409 310.147 221.979 309.554 222.716 309.134C223.453 308.705 224.321 308.49 225.32 308.49C226.179 308.49 226.944 308.653 227.616 308.98C228.297 309.297 228.848 309.75 229.268 310.338C229.697 310.926 229.982 311.612 230.122 312.396H226.846C226.697 312.069 226.482 311.817 226.202 311.64C225.931 311.453 225.619 311.36 225.264 311.36C224.741 311.36 224.326 311.556 224.018 311.948C223.719 312.34 223.57 312.867 223.57 313.53C223.57 314.193 223.719 314.72 224.018 315.112C224.326 315.504 224.741 315.7 225.264 315.7C225.619 315.7 225.931 315.611 226.202 315.434C226.482 315.247 226.697 314.991 226.846 314.664H230.122C229.982 315.448 229.697 316.134 229.268 316.722C228.848 317.31 228.297 317.767 227.616 318.094C226.944 318.411 226.179 318.57 225.32 318.57C224.321 318.57 223.453 318.36 222.716 317.94C221.979 317.511 221.409 316.913 221.008 316.148C220.616 315.383 220.42 314.51 220.42 313.53ZM234.993 318.598C234.2 318.598 233.486 318.435 232.851 318.108C232.216 317.781 231.717 317.315 231.353 316.708C230.998 316.092 230.821 315.373 230.821 314.552C230.821 313.731 230.998 313.017 231.353 312.41C231.717 311.794 232.216 311.323 232.851 310.996C233.486 310.669 234.2 310.506 234.993 310.506C235.786 310.506 236.5 310.669 237.135 310.996C237.77 311.323 238.264 311.794 238.619 312.41C238.983 313.017 239.165 313.731 239.165 314.552C239.165 315.373 238.983 316.092 238.619 316.708C238.264 317.315 237.77 317.781 237.135 318.108C236.5 318.435 235.786 318.598 234.993 318.598ZM234.993 315.91C235.282 315.91 235.525 315.798 235.721 315.574C235.917 315.341 236.015 315 236.015 314.552C236.015 314.104 235.917 313.768 235.721 313.544C235.525 313.311 235.282 313.194 234.993 313.194C234.704 313.194 234.461 313.311 234.265 313.544C234.069 313.768 233.971 314.104 233.971 314.552C233.971 315 234.064 315.341 234.251 315.574C234.447 315.798 234.694 315.91 234.993 315.91ZM245.671 310.548C246.577 310.548 247.281 310.851 247.785 311.458C248.299 312.065 248.555 312.886 248.555 313.922V318.5H245.461V314.314C245.461 313.941 245.359 313.647 245.153 313.432C244.957 313.208 244.691 313.096 244.355 313.096C244.01 313.096 243.739 313.208 243.543 313.432C243.347 313.647 243.249 313.941 243.249 314.314V318.5H240.141V310.604H243.249V311.808C243.492 311.435 243.814 311.131 244.215 310.898C244.626 310.665 245.111 310.548 245.671 310.548ZM254.817 315.854V318.5H253.641C251.476 318.5 250.393 317.422 250.393 315.266V313.194H249.413V310.604H250.393V308.7H253.501V310.604H254.789V313.194H253.501V315.322C253.501 315.509 253.543 315.644 253.627 315.728C253.72 315.812 253.87 315.854 254.075 315.854H254.817ZM257.569 309.974C257.027 309.974 256.593 309.829 256.267 309.54C255.94 309.251 255.777 308.887 255.777 308.448C255.777 308 255.94 307.631 256.267 307.342C256.593 307.043 257.027 306.894 257.569 306.894C258.101 306.894 258.53 307.043 258.857 307.342C259.183 307.631 259.347 308 259.347 308.448C259.347 308.887 259.183 309.251 258.857 309.54C258.53 309.829 258.101 309.974 257.569 309.974ZM259.109 310.604V318.5H256.001V310.604H259.109ZM266.043 310.548C266.948 310.548 267.653 310.851 268.157 311.458C268.67 312.065 268.927 312.886 268.927 313.922V318.5H265.833V314.314C265.833 313.941 265.73 313.647 265.525 313.432C265.329 313.208 265.063 313.096 264.727 313.096C264.381 313.096 264.111 313.208 263.915 313.432C263.719 313.647 263.621 313.941 263.621 314.314V318.5H260.513V310.604H263.621V311.808C263.863 311.435 264.185 311.131 264.587 310.898C264.997 310.665 265.483 310.548 266.043 310.548ZM278.632 310.604V318.5H275.524V317.296C275.282 317.669 274.955 317.973 274.544 318.206C274.143 318.439 273.662 318.556 273.102 318.556C272.197 318.556 271.488 318.253 270.974 317.646C270.47 317.039 270.218 316.218 270.218 315.182V310.604H273.312V314.79C273.312 315.163 273.41 315.462 273.606 315.686C273.812 315.901 274.082 316.008 274.418 316.008C274.764 316.008 275.034 315.901 275.23 315.686C275.426 315.462 275.524 315.163 275.524 314.79V310.604H278.632ZM287.68 314.482C287.68 314.697 287.666 314.902 287.638 315.098H282.64C282.687 315.779 282.971 316.12 283.494 316.12C283.83 316.12 284.073 315.966 284.222 315.658H287.512C287.4 316.218 287.162 316.722 286.798 317.17C286.443 317.609 285.991 317.959 285.44 318.22C284.899 318.472 284.301 318.598 283.648 318.598C282.864 318.598 282.164 318.435 281.548 318.108C280.941 317.781 280.465 317.315 280.12 316.708C279.784 316.092 279.616 315.373 279.616 314.552C279.616 313.731 279.784 313.017 280.12 312.41C280.465 311.794 280.941 311.323 281.548 310.996C282.164 310.669 282.864 310.506 283.648 310.506C284.432 310.506 285.127 310.669 285.734 310.996C286.35 311.313 286.826 311.771 287.162 312.368C287.507 312.965 287.68 313.67 287.68 314.482ZM284.53 313.74C284.53 313.479 284.446 313.283 284.278 313.152C284.11 313.012 283.9 312.942 283.648 312.942C283.097 312.942 282.775 313.208 282.682 313.74H284.53Z" fill="#EEEEEE"/>
<rect x="129.5" y="146.5" width="249" height="41" rx="7.5" fill="#202020"/>
<path d="M149.467 164.566V165.784H152.547V168.122H149.467V169.522H152.967V172H146.359V162.088H152.967V164.566H149.467ZM164.96 164.048C165.968 164.048 166.748 164.351 167.298 164.958C167.858 165.565 168.138 166.386 168.138 167.422V172H165.044V167.814C165.044 167.478 164.942 167.217 164.736 167.03C164.54 166.834 164.274 166.736 163.938 166.736C163.593 166.736 163.322 166.834 163.126 167.03C162.93 167.217 162.832 167.478 162.832 167.814V172H159.738V167.814C159.738 167.478 159.636 167.217 159.43 167.03C159.234 166.834 158.968 166.736 158.632 166.736C158.287 166.736 158.016 166.834 157.82 167.03C157.624 167.217 157.526 167.478 157.526 167.814V172H154.418V164.104H157.526V165.168C157.75 164.832 158.054 164.561 158.436 164.356C158.828 164.151 159.286 164.048 159.808 164.048C160.378 164.048 160.882 164.174 161.32 164.426C161.759 164.669 162.109 165.014 162.37 165.462C162.66 165.051 163.028 164.715 163.476 164.454C163.924 164.183 164.419 164.048 164.96 164.048ZM169.345 168.052C169.345 167.221 169.485 166.503 169.765 165.896C170.054 165.28 170.446 164.813 170.941 164.496C171.435 164.169 171.991 164.006 172.607 164.006C173.12 164.006 173.563 164.113 173.937 164.328C174.31 164.533 174.595 164.818 174.791 165.182V164.104H177.885V172H174.791V170.922C174.595 171.286 174.31 171.575 173.937 171.79C173.563 171.995 173.12 172.098 172.607 172.098C171.991 172.098 171.435 171.939 170.941 171.622C170.446 171.295 170.054 170.829 169.765 170.222C169.485 169.606 169.345 168.883 169.345 168.052ZM174.791 168.052C174.791 167.632 174.683 167.305 174.469 167.072C174.254 166.839 173.979 166.722 173.643 166.722C173.307 166.722 173.031 166.839 172.817 167.072C172.602 167.305 172.495 167.632 172.495 168.052C172.495 168.472 172.602 168.799 172.817 169.032C173.031 169.265 173.307 169.382 173.643 169.382C173.979 169.382 174.254 169.265 174.469 169.032C174.683 168.799 174.791 168.472 174.791 168.052ZM181.128 163.474C180.587 163.474 180.153 163.329 179.826 163.04C179.5 162.751 179.336 162.387 179.336 161.948C179.336 161.5 179.5 161.131 179.826 160.842C180.153 160.543 180.587 160.394 181.128 160.394C181.66 160.394 182.09 160.543 182.416 160.842C182.743 161.131 182.906 161.5 182.906 161.948C182.906 162.387 182.743 162.751 182.416 163.04C182.09 163.329 181.66 163.474 181.128 163.474ZM182.668 164.104V172H179.56V164.104H182.668ZM187.46 161.64V172H184.352V161.64H187.46ZM197.291 158.63L193.581 174.772H190.599L194.323 158.63H197.291ZM203.371 162.088V167.674C203.371 168.131 203.469 168.495 203.665 168.766C203.871 169.027 204.197 169.158 204.645 169.158C205.093 169.158 205.425 169.027 205.639 168.766C205.854 168.495 205.961 168.131 205.961 167.674V162.088H209.055V167.674C209.055 168.617 208.859 169.424 208.467 170.096C208.075 170.759 207.539 171.258 206.857 171.594C206.176 171.93 205.415 172.098 204.575 172.098C203.735 172.098 202.989 171.93 202.335 171.594C201.691 171.258 201.187 170.759 200.823 170.096C200.459 169.433 200.277 168.626 200.277 167.674V162.088H203.371ZM214.19 172.098C213.443 172.098 212.78 171.977 212.202 171.734C211.632 171.491 211.18 171.155 210.844 170.726C210.508 170.297 210.316 169.811 210.27 169.27H213.252C213.289 169.503 213.387 169.676 213.546 169.788C213.714 169.9 213.924 169.956 214.176 169.956C214.334 169.956 214.46 169.923 214.554 169.858C214.647 169.783 214.694 169.695 214.694 169.592C214.694 169.415 214.596 169.289 214.4 169.214C214.204 169.139 213.872 169.055 213.406 168.962C212.836 168.85 212.365 168.729 211.992 168.598C211.628 168.467 211.306 168.243 211.026 167.926C210.755 167.609 210.62 167.17 210.62 166.61C210.62 166.125 210.746 165.686 210.998 165.294C211.259 164.893 211.642 164.58 212.146 164.356C212.65 164.123 213.261 164.006 213.98 164.006C215.044 164.006 215.874 164.267 216.472 164.79C217.078 165.313 217.442 165.994 217.564 166.834H214.806C214.759 166.619 214.661 166.456 214.512 166.344C214.362 166.223 214.162 166.162 213.91 166.162C213.751 166.162 213.63 166.195 213.546 166.26C213.462 166.316 213.42 166.405 213.42 166.526C213.42 166.685 213.518 166.806 213.714 166.89C213.91 166.965 214.222 167.044 214.652 167.128C215.221 167.24 215.702 167.366 216.094 167.506C216.486 167.646 216.826 167.889 217.116 168.234C217.405 168.57 217.55 169.037 217.55 169.634C217.55 170.101 217.414 170.521 217.144 170.894C216.873 171.267 216.481 171.561 215.968 171.776C215.464 171.991 214.871 172.098 214.19 172.098ZM226.707 167.982C226.707 168.197 226.693 168.402 226.665 168.598H221.667C221.714 169.279 221.999 169.62 222.521 169.62C222.857 169.62 223.1 169.466 223.249 169.158H226.539C226.427 169.718 226.189 170.222 225.825 170.67C225.471 171.109 225.018 171.459 224.467 171.72C223.926 171.972 223.329 172.098 222.675 172.098C221.891 172.098 221.191 171.935 220.575 171.608C219.969 171.281 219.493 170.815 219.147 170.208C218.811 169.592 218.643 168.873 218.643 168.052C218.643 167.231 218.811 166.517 219.147 165.91C219.493 165.294 219.969 164.823 220.575 164.496C221.191 164.169 221.891 164.006 222.675 164.006C223.459 164.006 224.155 164.169 224.761 164.496C225.377 164.813 225.853 165.271 226.189 165.868C226.535 166.465 226.707 167.17 226.707 167.982ZM223.557 167.24C223.557 166.979 223.473 166.783 223.305 166.652C223.137 166.512 222.927 166.442 222.675 166.442C222.125 166.442 221.803 166.708 221.709 167.24H223.557ZM231.078 165.56C231.395 165.103 231.783 164.739 232.24 164.468C232.697 164.188 233.173 164.048 233.668 164.048V167.366H232.786C232.198 167.366 231.764 167.469 231.484 167.674C231.213 167.879 231.078 168.243 231.078 168.766V172H227.97V164.104H231.078V165.56ZM240.315 164.048C241.221 164.048 241.925 164.351 242.429 164.958C242.943 165.565 243.199 166.386 243.199 167.422V172H240.105V167.814C240.105 167.441 240.003 167.147 239.797 166.932C239.601 166.708 239.335 166.596 238.999 166.596C238.654 166.596 238.383 166.708 238.187 166.932C237.991 167.147 237.893 167.441 237.893 167.814V172H234.785V164.104H237.893V165.308C238.136 164.935 238.458 164.631 238.859 164.398C239.27 164.165 239.755 164.048 240.315 164.048ZM244.407 168.052C244.407 167.221 244.547 166.503 244.827 165.896C245.116 165.28 245.508 164.813 246.003 164.496C246.498 164.169 247.053 164.006 247.669 164.006C248.182 164.006 248.626 164.113 248.999 164.328C249.372 164.533 249.657 164.818 249.853 165.182V164.104H252.947V172H249.853V170.922C249.657 171.286 249.372 171.575 248.999 171.79C248.626 171.995 248.182 172.098 247.669 172.098C247.053 172.098 246.498 171.939 246.003 171.622C245.508 171.295 245.116 170.829 244.827 170.222C244.547 169.606 244.407 168.883 244.407 168.052ZM249.853 168.052C249.853 167.632 249.746 167.305 249.531 167.072C249.316 166.839 249.041 166.722 248.705 166.722C248.369 166.722 248.094 166.839 247.879 167.072C247.664 167.305 247.557 167.632 247.557 168.052C247.557 168.472 247.664 168.799 247.879 169.032C248.094 169.265 248.369 169.382 248.705 169.382C249.041 169.382 249.316 169.265 249.531 169.032C249.746 168.799 249.853 168.472 249.853 168.052ZM265.165 164.048C266.173 164.048 266.952 164.351 267.503 164.958C268.063 165.565 268.343 166.386 268.343 167.422V172H265.249V167.814C265.249 167.478 265.146 167.217 264.941 167.03C264.745 166.834 264.479 166.736 264.143 166.736C263.797 166.736 263.527 166.834 263.331 167.03C263.135 167.217 263.037 167.478 263.037 167.814V172H259.943V167.814C259.943 167.478 259.84 167.217 259.635 167.03C259.439 166.834 259.173 166.736 258.837 166.736C258.491 166.736 258.221 166.834 258.025 167.03C257.829 167.217 257.731 167.478 257.731 167.814V172H254.623V164.104H257.731V165.168C257.955 164.832 258.258 164.561 258.641 164.356C259.033 164.151 259.49 164.048 260.013 164.048C260.582 164.048 261.086 164.174 261.525 164.426C261.963 164.669 262.313 165.014 262.575 165.462C262.864 165.051 263.233 164.715 263.681 164.454C264.129 164.183 264.623 164.048 265.165 164.048ZM277.613 167.982C277.613 168.197 277.599 168.402 277.571 168.598H272.573C272.62 169.279 272.904 169.62 273.427 169.62C273.763 169.62 274.006 169.466 274.155 169.158H277.445C277.333 169.718 277.095 170.222 276.731 170.67C276.376 171.109 275.924 171.459 275.373 171.72C274.832 171.972 274.234 172.098 273.581 172.098C272.797 172.098 272.097 171.935 271.481 171.608C270.874 171.281 270.398 170.815 270.053 170.208C269.717 169.592 269.549 168.873 269.549 168.052C269.549 167.231 269.717 166.517 270.053 165.91C270.398 165.294 270.874 164.823 271.481 164.496C272.097 164.169 272.797 164.006 273.581 164.006C274.365 164.006 275.06 164.169 275.667 164.496C276.283 164.813 276.759 165.271 277.095 165.868C277.44 166.465 277.613 167.17 277.613 167.982ZM274.463 167.24C274.463 166.979 274.379 166.783 274.211 166.652C274.043 166.512 273.833 166.442 273.581 166.442C273.03 166.442 272.708 166.708 272.615 167.24H274.463Z" fill="#909090"/>
<path d="M359.667 167C360.894 167 361.889 166.005 361.889 164.778C361.889 163.55 360.894 162.556 359.667 162.556C358.439 162.556 357.444 163.55 357.444 164.778C357.444 166.005 358.439 167 359.667 167Z" stroke="#909090" stroke-linecap="round" stroke-linejoin="round"/>
<path opacity="0.4" d="M363.484 171.444C363.484 169.724 361.773 168.333 359.667 168.333C357.56 168.333 355.849 169.724 355.849 171.444" stroke="#909090" stroke-linecap="round" stroke-linejoin="round"/>
<rect x="129.5" y="146.5" width="249" height="41" rx="7.5" stroke="#909090"/>
<path d="M138.552 106.384C138.552 107.035 138.403 107.632 138.104 108.176C137.805 108.709 137.347 109.141 136.728 109.472C136.109 109.803 135.341 109.968 134.424 109.968H132.728V114H129.992V102.768H134.424C135.32 102.768 136.077 102.923 136.696 103.232C137.315 103.541 137.779 103.968 138.088 104.512C138.397 105.056 138.552 105.68 138.552 106.384ZM134.216 107.792C134.739 107.792 135.128 107.669 135.384 107.424C135.64 107.179 135.768 106.832 135.768 106.384C135.768 105.936 135.64 105.589 135.384 105.344C135.128 105.099 134.739 104.976 134.216 104.976H132.728V107.792H134.216ZM142.712 102.16V114H139.976V102.16H142.712ZM153.111 109.392C153.111 109.648 153.095 109.915 153.063 110.192H146.871C146.914 110.747 147.09 111.173 147.399 111.472C147.719 111.76 148.108 111.904 148.567 111.904C149.25 111.904 149.724 111.616 149.991 111.04H152.903C152.754 111.627 152.482 112.155 152.087 112.624C151.703 113.093 151.218 113.461 150.631 113.728C150.044 113.995 149.388 114.128 148.663 114.128C147.788 114.128 147.01 113.941 146.327 113.568C145.644 113.195 145.111 112.661 144.727 111.968C144.343 111.275 144.151 110.464 144.151 109.536C144.151 108.608 144.338 107.797 144.711 107.104C145.095 106.411 145.628 105.877 146.311 105.504C146.994 105.131 147.778 104.944 148.663 104.944C149.527 104.944 150.295 105.125 150.967 105.488C151.639 105.851 152.162 106.368 152.535 107.04C152.919 107.712 153.111 108.496 153.111 109.392ZM150.311 108.672C150.311 108.203 150.151 107.829 149.831 107.552C149.511 107.275 149.111 107.136 148.631 107.136C148.172 107.136 147.783 107.269 147.463 107.536C147.154 107.803 146.962 108.181 146.887 108.672H150.311ZM154.011 109.52C154.011 108.603 154.181 107.797 154.523 107.104C154.875 106.411 155.349 105.877 155.947 105.504C156.544 105.131 157.211 104.944 157.947 104.944C158.576 104.944 159.125 105.072 159.595 105.328C160.075 105.584 160.443 105.92 160.699 106.336V105.072H163.435V114H160.699V112.736C160.432 113.152 160.059 113.488 159.579 113.744C159.109 114 158.56 114.128 157.931 114.128C157.205 114.128 156.544 113.941 155.947 113.568C155.349 113.184 154.875 112.645 154.523 111.952C154.181 111.248 154.011 110.437 154.011 109.52ZM160.699 109.536C160.699 108.853 160.507 108.315 160.123 107.92C159.749 107.525 159.291 107.328 158.747 107.328C158.203 107.328 157.739 107.525 157.355 107.92C156.981 108.304 156.795 108.837 156.795 109.52C156.795 110.203 156.981 110.747 157.355 111.152C157.739 111.547 158.203 111.744 158.747 111.744C159.291 111.744 159.749 111.547 160.123 111.152C160.507 110.757 160.699 110.219 160.699 109.536ZM169.046 114.128C168.267 114.128 167.574 113.995 166.966 113.728C166.358 113.461 165.878 113.099 165.526 112.64C165.174 112.171 164.977 111.648 164.934 111.072H167.638C167.67 111.381 167.814 111.632 168.07 111.824C168.326 112.016 168.641 112.112 169.014 112.112C169.355 112.112 169.617 112.048 169.798 111.92C169.99 111.781 170.086 111.605 170.086 111.392C170.086 111.136 169.953 110.949 169.686 110.832C169.419 110.704 168.987 110.565 168.39 110.416C167.75 110.267 167.217 110.112 166.79 109.952C166.363 109.781 165.995 109.52 165.686 109.168C165.377 108.805 165.222 108.32 165.222 107.712C165.222 107.2 165.361 106.736 165.638 106.32C165.926 105.893 166.342 105.557 166.886 105.312C167.441 105.067 168.097 104.944 168.854 104.944C169.974 104.944 170.854 105.221 171.494 105.776C172.145 106.331 172.518 107.067 172.614 107.984H170.086C170.043 107.675 169.905 107.429 169.67 107.248C169.446 107.067 169.147 106.976 168.774 106.976C168.454 106.976 168.209 107.04 168.038 107.168C167.867 107.285 167.782 107.451 167.782 107.664C167.782 107.92 167.915 108.112 168.182 108.24C168.459 108.368 168.886 108.496 169.462 108.624C170.123 108.795 170.662 108.965 171.078 109.136C171.494 109.296 171.857 109.563 172.166 109.936C172.486 110.299 172.651 110.789 172.662 111.408C172.662 111.931 172.513 112.4 172.214 112.816C171.926 113.221 171.505 113.541 170.95 113.776C170.406 114.011 169.771 114.128 169.046 114.128ZM182.752 109.392C182.752 109.648 182.736 109.915 182.704 110.192H176.512C176.554 110.747 176.73 111.173 177.04 111.472C177.36 111.76 177.749 111.904 178.208 111.904C178.89 111.904 179.365 111.616 179.632 111.04H182.544C182.394 111.627 182.122 112.155 181.728 112.624C181.344 113.093 180.858 113.461 180.272 113.728C179.685 113.995 179.029 114.128 178.304 114.128C177.429 114.128 176.65 113.941 175.968 113.568C175.285 113.195 174.752 112.661 174.368 111.968C173.984 111.275 173.792 110.464 173.792 109.536C173.792 108.608 173.978 107.797 174.352 107.104C174.736 106.411 175.269 105.877 175.952 105.504C176.634 105.131 177.418 104.944 178.304 104.944C179.168 104.944 179.936 105.125 180.608 105.488C181.28 105.851 181.802 106.368 182.176 107.04C182.56 107.712 182.752 108.496 182.752 109.392ZM179.952 108.672C179.952 108.203 179.792 107.829 179.472 107.552C179.152 107.275 178.752 107.136 178.272 107.136C177.813 107.136 177.424 107.269 177.104 107.536C176.794 107.803 176.602 108.181 176.528 108.672H179.952ZM191.218 114.128C190.439 114.128 189.746 113.995 189.138 113.728C188.53 113.461 188.05 113.099 187.698 112.64C187.346 112.171 187.148 111.648 187.106 111.072H189.81C189.842 111.381 189.986 111.632 190.242 111.824C190.498 112.016 190.812 112.112 191.186 112.112C191.527 112.112 191.788 112.048 191.97 111.92C192.162 111.781 192.258 111.605 192.258 111.392C192.258 111.136 192.124 110.949 191.858 110.832C191.591 110.704 191.159 110.565 190.562 110.416C189.922 110.267 189.388 110.112 188.962 109.952C188.535 109.781 188.167 109.52 187.858 109.168C187.548 108.805 187.394 108.32 187.394 107.712C187.394 107.2 187.532 106.736 187.81 106.32C188.098 105.893 188.514 105.557 189.058 105.312C189.612 105.067 190.268 104.944 191.026 104.944C192.146 104.944 193.026 105.221 193.666 105.776C194.316 106.331 194.69 107.067 194.786 107.984H192.258C192.215 107.675 192.076 107.429 191.842 107.248C191.618 107.067 191.319 106.976 190.946 106.976C190.626 106.976 190.38 107.04 190.21 107.168C190.039 107.285 189.954 107.451 189.954 107.664C189.954 107.92 190.087 108.112 190.354 108.24C190.631 108.368 191.058 108.496 191.634 108.624C192.295 108.795 192.834 108.965 193.25 109.136C193.666 109.296 194.028 109.563 194.338 109.936C194.658 110.299 194.823 110.789 194.834 111.408C194.834 111.931 194.684 112.4 194.386 112.816C194.098 113.221 193.676 113.541 193.122 113.776C192.578 114.011 191.943 114.128 191.218 114.128ZM197.884 104.144C197.404 104.144 197.009 104.005 196.7 103.728C196.401 103.44 196.252 103.088 196.252 102.672C196.252 102.245 196.401 101.893 196.7 101.616C197.009 101.328 197.404 101.184 197.884 101.184C198.353 101.184 198.737 101.328 199.036 101.616C199.345 101.893 199.5 102.245 199.5 102.672C199.5 103.088 199.345 103.44 199.036 103.728C198.737 104.005 198.353 104.144 197.884 104.144ZM199.244 105.072V114H196.508V105.072H199.244ZM204.618 104.944C205.248 104.944 205.797 105.072 206.266 105.328C206.746 105.584 207.114 105.92 207.37 106.336V105.072H210.106V113.984C210.106 114.805 209.941 115.547 209.61 116.208C209.29 116.88 208.794 117.413 208.122 117.808C207.461 118.203 206.634 118.4 205.642 118.4C204.32 118.4 203.248 118.085 202.426 117.456C201.605 116.837 201.136 115.995 201.018 114.928H203.722C203.808 115.269 204.01 115.536 204.33 115.728C204.65 115.931 205.045 116.032 205.514 116.032C206.08 116.032 206.528 115.867 206.858 115.536C207.2 115.216 207.37 114.699 207.37 113.984V112.72C207.104 113.136 206.736 113.477 206.266 113.744C205.797 114 205.248 114.128 204.618 114.128C203.882 114.128 203.216 113.941 202.618 113.568C202.021 113.184 201.546 112.645 201.194 111.952C200.853 111.248 200.682 110.437 200.682 109.52C200.682 108.603 200.853 107.797 201.194 107.104C201.546 106.411 202.021 105.877 202.618 105.504C203.216 105.131 203.882 104.944 204.618 104.944ZM207.37 109.536C207.37 108.853 207.178 108.315 206.794 107.92C206.421 107.525 205.962 107.328 205.418 107.328C204.874 107.328 204.41 107.525 204.026 107.92C203.653 108.304 203.466 108.837 203.466 109.52C203.466 110.203 203.653 110.747 204.026 111.152C204.41 111.547 204.874 111.744 205.418 111.744C205.962 111.744 206.421 111.547 206.794 111.152C207.178 110.757 207.37 110.219 207.37 109.536ZM217.526 104.976C218.571 104.976 219.403 105.317 220.022 106C220.651 106.672 220.966 107.6 220.966 108.784V114H218.246V109.152C218.246 108.555 218.091 108.091 217.782 107.76C217.472 107.429 217.056 107.264 216.534 107.264C216.011 107.264 215.595 107.429 215.286 107.76C214.976 108.091 214.822 108.555 214.822 109.152V114H212.086V105.072H214.822V106.256C215.099 105.861 215.472 105.552 215.942 105.328C216.411 105.093 216.939 104.976 217.526 104.976ZM227.634 104.144C227.154 104.144 226.759 104.005 226.45 103.728C226.151 103.44 226.002 103.088 226.002 102.672C226.002 102.245 226.151 101.893 226.45 101.616C226.759 101.328 227.154 101.184 227.634 101.184C228.103 101.184 228.487 101.328 228.786 101.616C229.095 101.893 229.25 102.245 229.25 102.672C229.25 103.088 229.095 103.44 228.786 103.728C228.487 104.005 228.103 104.144 227.634 104.144ZM228.994 105.072V114H226.258V105.072H228.994ZM236.416 104.976C237.462 104.976 238.294 105.317 238.912 106C239.542 106.672 239.856 107.6 239.856 108.784V114H237.136V109.152C237.136 108.555 236.982 108.091 236.672 107.76C236.363 107.429 235.947 107.264 235.424 107.264C234.902 107.264 234.486 107.429 234.176 107.76C233.867 108.091 233.712 108.555 233.712 109.152V114H230.976V105.072H233.712V106.256C233.99 105.861 234.363 105.552 234.832 105.328C235.302 105.093 235.83 104.976 236.416 104.976ZM246.734 111.68V114H245.342C244.35 114 243.576 113.76 243.022 113.28C242.467 112.789 242.19 111.995 242.19 110.896V107.344H241.102V105.072H242.19V102.896H244.926V105.072H246.718V107.344H244.926V110.928C244.926 111.195 244.99 111.387 245.118 111.504C245.246 111.621 245.459 111.68 245.758 111.68H246.734ZM252.322 114.128C251.447 114.128 250.658 113.941 249.954 113.568C249.26 113.195 248.711 112.661 248.306 111.968C247.911 111.275 247.714 110.464 247.714 109.536C247.714 108.619 247.916 107.813 248.322 107.12C248.727 106.416 249.282 105.877 249.986 105.504C250.69 105.131 251.479 104.944 252.354 104.944C253.228 104.944 254.018 105.131 254.722 105.504C255.426 105.877 255.98 106.416 256.386 107.12C256.791 107.813 256.994 108.619 256.994 109.536C256.994 110.453 256.786 111.264 256.37 111.968C255.964 112.661 255.404 113.195 254.69 113.568C253.986 113.941 253.196 114.128 252.322 114.128ZM252.322 111.76C252.844 111.76 253.287 111.568 253.65 111.184C254.023 110.8 254.21 110.251 254.21 109.536C254.21 108.821 254.028 108.272 253.666 107.888C253.314 107.504 252.876 107.312 252.354 107.312C251.82 107.312 251.378 107.504 251.026 107.888C250.674 108.261 250.498 108.811 250.498 109.536C250.498 110.251 250.668 110.8 251.01 111.184C251.362 111.568 251.799 111.76 252.322 111.76ZM270.956 105.072L265.356 118.24H262.412L264.46 113.696L260.828 105.072H263.884L265.948 110.656L267.996 105.072H270.956ZM276.009 114.128C275.134 114.128 274.345 113.941 273.641 113.568C272.948 113.195 272.398 112.661 271.993 111.968C271.598 111.275 271.401 110.464 271.401 109.536C271.401 108.619 271.604 107.813 272.009 107.12C272.414 106.416 272.969 105.877 273.673 105.504C274.377 105.131 275.166 104.944 276.041 104.944C276.916 104.944 277.705 105.131 278.409 105.504C279.113 105.877 279.668 106.416 280.073 107.12C280.478 107.813 280.681 108.619 280.681 109.536C280.681 110.453 280.473 111.264 280.057 111.968C279.652 112.661 279.092 113.195 278.377 113.568C277.673 113.941 276.884 114.128 276.009 114.128ZM276.009 111.76C276.532 111.76 276.974 111.568 277.337 111.184C277.71 110.8 277.897 110.251 277.897 109.536C277.897 108.821 277.716 108.272 277.353 107.888C277.001 107.504 276.564 107.312 276.041 107.312C275.508 107.312 275.065 107.504 274.713 107.888C274.361 108.261 274.185 108.811 274.185 109.536C274.185 110.251 274.356 110.8 274.697 111.184C275.049 111.568 275.486 111.76 276.009 111.76ZM290.949 105.072V114H288.213V112.784C287.935 113.179 287.557 113.499 287.077 113.744C286.607 113.979 286.085 114.096 285.509 114.096C284.826 114.096 284.223 113.947 283.701 113.648C283.178 113.339 282.773 112.896 282.485 112.32C282.197 111.744 282.053 111.067 282.053 110.288V105.072H284.773V109.92C284.773 110.517 284.927 110.981 285.237 111.312C285.546 111.643 285.962 111.808 286.485 111.808C287.018 111.808 287.439 111.643 287.749 111.312C288.058 110.981 288.213 110.517 288.213 109.92V105.072H290.949ZM295.65 106.56C295.97 106.069 296.37 105.685 296.85 105.408C297.33 105.12 297.863 104.976 298.45 104.976V107.872H297.698C297.015 107.872 296.503 108.021 296.162 108.32C295.821 108.608 295.65 109.12 295.65 109.856V114H292.914V105.072H295.65V106.56ZM302.604 109.52C302.604 108.603 302.775 107.797 303.116 107.104C303.468 106.411 303.943 105.877 304.54 105.504C305.138 105.131 305.804 104.944 306.54 104.944C307.17 104.944 307.719 105.072 308.188 105.328C308.668 105.584 309.036 105.92 309.292 106.336V105.072H312.028V114H309.292V112.736C309.026 113.152 308.652 113.488 308.172 113.744C307.703 114 307.154 114.128 306.524 114.128C305.799 114.128 305.138 113.941 304.54 113.568C303.943 113.184 303.468 112.645 303.116 111.952C302.775 111.248 302.604 110.437 302.604 109.52ZM309.292 109.536C309.292 108.853 309.1 108.315 308.716 107.92C308.343 107.525 307.884 107.328 307.34 107.328C306.796 107.328 306.332 107.525 305.948 107.92C305.575 108.304 305.388 108.837 305.388 109.52C305.388 110.203 305.575 110.747 305.948 111.152C306.332 111.547 306.796 111.744 307.34 111.744C307.884 111.744 308.343 111.547 308.716 111.152C309.1 110.757 309.292 110.219 309.292 109.536ZM313.464 109.536C313.464 108.608 313.65 107.797 314.024 107.104C314.408 106.411 314.936 105.877 315.608 105.504C316.29 105.131 317.069 104.944 317.944 104.944C319.064 104.944 319.997 105.237 320.744 105.824C321.501 106.411 321.997 107.237 322.232 108.304H319.32C319.074 107.621 318.6 107.28 317.896 107.28C317.394 107.28 316.994 107.477 316.696 107.872C316.397 108.256 316.248 108.811 316.248 109.536C316.248 110.261 316.397 110.821 316.696 111.216C316.994 111.6 317.394 111.792 317.896 111.792C318.6 111.792 319.074 111.451 319.32 110.768H322.232C321.997 111.813 321.501 112.635 320.744 113.232C319.986 113.829 319.053 114.128 317.944 114.128C317.069 114.128 316.29 113.941 315.608 113.568C314.936 113.195 314.408 112.661 314.024 111.968C313.65 111.275 313.464 110.464 313.464 109.536ZM323.151 109.536C323.151 108.608 323.338 107.797 323.711 107.104C324.095 106.411 324.623 105.877 325.295 105.504C325.978 105.131 326.756 104.944 327.631 104.944C328.751 104.944 329.684 105.237 330.431 105.824C331.188 106.411 331.684 107.237 331.919 108.304H329.007C328.762 107.621 328.287 107.28 327.583 107.28C327.082 107.28 326.682 107.477 326.383 107.872C326.084 108.256 325.935 108.811 325.935 109.536C325.935 110.261 326.084 110.821 326.383 111.216C326.682 111.6 327.082 111.792 327.583 111.792C328.287 111.792 328.762 111.451 329.007 110.768H331.919C331.684 111.813 331.188 112.635 330.431 113.232C329.674 113.829 328.74 114.128 327.631 114.128C326.756 114.128 325.978 113.941 325.295 113.568C324.623 113.195 324.095 112.661 323.711 111.968C323.338 111.275 323.151 110.464 323.151 109.536ZM337.447 114.128C336.572 114.128 335.783 113.941 335.079 113.568C334.385 113.195 333.836 112.661 333.431 111.968C333.036 111.275 332.839 110.464 332.839 109.536C332.839 108.619 333.041 107.813 333.447 107.12C333.852 106.416 334.407 105.877 335.111 105.504C335.815 105.131 336.604 104.944 337.479 104.944C338.353 104.944 339.143 105.131 339.847 105.504C340.551 105.877 341.105 106.416 341.511 107.12C341.916 107.813 342.119 108.619 342.119 109.536C342.119 110.453 341.911 111.264 341.495 111.968C341.089 112.661 340.529 113.195 339.815 113.568C339.111 113.941 338.321 114.128 337.447 114.128ZM337.447 111.76C337.969 111.76 338.412 111.568 338.775 111.184C339.148 110.8 339.335 110.251 339.335 109.536C339.335 108.821 339.153 108.272 338.791 107.888C338.439 107.504 338.001 107.312 337.479 107.312C336.945 107.312 336.503 107.504 336.151 107.888C335.799 108.261 335.623 108.811 335.623 109.536C335.623 110.251 335.793 110.8 336.135 111.184C336.487 111.568 336.924 111.76 337.447 111.76ZM352.386 105.072V114H349.65V112.784C349.373 113.179 348.994 113.499 348.514 113.744C348.045 113.979 347.522 114.096 346.946 114.096C346.263 114.096 345.661 113.947 345.138 113.648C344.615 113.339 344.21 112.896 343.922 112.32C343.634 111.744 343.49 111.067 343.49 110.288V105.072H346.21V109.92C346.21 110.517 346.365 110.981 346.674 111.312C346.983 111.643 347.399 111.808 347.922 111.808C348.455 111.808 348.877 111.643 349.186 111.312C349.495 110.981 349.65 110.517 349.65 109.92V105.072H352.386ZM359.791 104.976C360.837 104.976 361.669 105.317 362.287 106C362.917 106.672 363.231 107.6 363.231 108.784V114H360.511V109.152C360.511 108.555 360.357 108.091 360.047 107.76C359.738 107.429 359.322 107.264 358.799 107.264C358.277 107.264 357.861 107.429 357.551 107.76C357.242 108.091 357.087 108.555 357.087 109.152V114H354.351V105.072H357.087V106.256C357.365 105.861 357.738 105.552 358.207 105.328C358.677 105.093 359.205 104.976 359.791 104.976ZM370.109 111.68V114H368.717C367.725 114 366.951 113.76 366.397 113.28C365.842 112.789 365.565 111.995 365.565 110.896V107.344H364.477V105.072H365.565V102.896H368.301V105.072H370.093V107.344H368.301V110.928C368.301 111.195 368.365 111.387 368.493 111.504C368.621 111.621 368.834 111.68 369.133 111.68H370.109Z" fill="#939393"/>
</svg>
