<svg width="509" height="417" viewBox="0 0 509 417" fill="none" xmlns="http://www.w3.org/2000/svg">
<rect width="509" height="417" fill="#202020"/>
<rect x="101" y="14" width="308" height="384" rx="6" fill="#2E2E2E"/>
<rect x="130.5" y="222.5" width="249" height="41" rx="7.5" fill="#202020"/>
<path d="M152.806 241.49C152.806 242.115 152.661 242.685 152.372 243.198C152.083 243.702 151.653 244.103 151.084 244.402C150.524 244.701 149.843 244.85 149.04 244.85H147.808V248H144.7V238.088H149.04C150.253 238.088 151.182 238.396 151.826 239.012C152.479 239.628 152.806 240.454 152.806 241.49ZM148.69 242.4C149.334 242.4 149.656 242.097 149.656 241.49C149.656 240.883 149.334 240.58 148.69 240.58H147.808V242.4H148.69ZM153.652 244.052C153.652 243.221 153.792 242.503 154.072 241.896C154.361 241.28 154.753 240.813 155.248 240.496C155.742 240.169 156.298 240.006 156.914 240.006C157.427 240.006 157.87 240.113 158.244 240.328C158.617 240.533 158.902 240.818 159.098 241.182V240.104H162.192V248H159.098V246.922C158.902 247.286 158.617 247.575 158.244 247.79C157.87 247.995 157.427 248.098 156.914 248.098C156.298 248.098 155.742 247.939 155.248 247.622C154.753 247.295 154.361 246.829 154.072 246.222C153.792 245.606 153.652 244.883 153.652 244.052ZM159.098 244.052C159.098 243.632 158.99 243.305 158.776 243.072C158.561 242.839 158.286 242.722 157.95 242.722C157.614 242.722 157.338 242.839 157.124 243.072C156.909 243.305 156.802 243.632 156.802 244.052C156.802 244.472 156.909 244.799 157.124 245.032C157.338 245.265 157.614 245.382 157.95 245.382C158.286 245.382 158.561 245.265 158.776 245.032C158.99 244.799 159.098 244.472 159.098 244.052ZM167.381 248.098C166.635 248.098 165.972 247.977 165.393 247.734C164.824 247.491 164.371 247.155 164.035 246.726C163.699 246.297 163.508 245.811 163.461 245.27H166.443C166.481 245.503 166.579 245.676 166.737 245.788C166.905 245.9 167.115 245.956 167.367 245.956C167.526 245.956 167.652 245.923 167.745 245.858C167.839 245.783 167.885 245.695 167.885 245.592C167.885 245.415 167.787 245.289 167.591 245.214C167.395 245.139 167.064 245.055 166.597 244.962C166.028 244.85 165.557 244.729 165.183 244.598C164.819 244.467 164.497 244.243 164.217 243.926C163.947 243.609 163.811 243.17 163.811 242.61C163.811 242.125 163.937 241.686 164.189 241.294C164.451 240.893 164.833 240.58 165.337 240.356C165.841 240.123 166.453 240.006 167.171 240.006C168.235 240.006 169.066 240.267 169.663 240.79C170.27 241.313 170.634 241.994 170.755 242.834H167.997C167.951 242.619 167.853 242.456 167.703 242.344C167.554 242.223 167.353 242.162 167.101 242.162C166.943 242.162 166.821 242.195 166.737 242.26C166.653 242.316 166.611 242.405 166.611 242.526C166.611 242.685 166.709 242.806 166.905 242.89C167.101 242.965 167.414 243.044 167.843 243.128C168.413 243.24 168.893 243.366 169.285 243.506C169.677 243.646 170.018 243.889 170.307 244.234C170.597 244.57 170.741 245.037 170.741 245.634C170.741 246.101 170.606 246.521 170.335 246.894C170.065 247.267 169.673 247.561 169.159 247.776C168.655 247.991 168.063 248.098 167.381 248.098ZM175.769 248.098C175.022 248.098 174.36 247.977 173.781 247.734C173.212 247.491 172.759 247.155 172.423 246.726C172.087 246.297 171.896 245.811 171.849 245.27H174.831C174.868 245.503 174.966 245.676 175.125 245.788C175.293 245.9 175.503 245.956 175.755 245.956C175.914 245.956 176.04 245.923 176.133 245.858C176.226 245.783 176.273 245.695 176.273 245.592C176.273 245.415 176.175 245.289 175.979 245.214C175.783 245.139 175.452 245.055 174.985 244.962C174.416 244.85 173.944 244.729 173.571 244.598C173.207 244.467 172.885 244.243 172.605 243.926C172.334 243.609 172.199 243.17 172.199 242.61C172.199 242.125 172.325 241.686 172.577 241.294C172.838 240.893 173.221 240.58 173.725 240.356C174.229 240.123 174.84 240.006 175.559 240.006C176.623 240.006 177.454 240.267 178.051 240.79C178.658 241.313 179.022 241.994 179.143 242.834H176.385C176.338 242.619 176.24 242.456 176.091 242.344C175.942 242.223 175.741 242.162 175.489 242.162C175.33 242.162 175.209 242.195 175.125 242.26C175.041 242.316 174.999 242.405 174.999 242.526C174.999 242.685 175.097 242.806 175.293 242.89C175.489 242.965 175.802 243.044 176.231 243.128C176.8 243.24 177.281 243.366 177.673 243.506C178.065 243.646 178.406 243.889 178.695 244.234C178.984 244.57 179.129 245.037 179.129 245.634C179.129 246.101 178.994 246.521 178.723 246.894C178.452 247.267 178.06 247.561 177.547 247.776C177.043 247.991 176.45 248.098 175.769 248.098ZM192.626 240.104L190.75 248H187.25L186.298 243.548L185.29 248H181.79L179.928 240.104H183.008L183.666 244.906L184.688 240.104H188.006L189.084 244.962L189.756 240.104H192.626ZM197.321 248.098C196.527 248.098 195.813 247.935 195.179 247.608C194.544 247.281 194.045 246.815 193.681 246.208C193.326 245.592 193.149 244.873 193.149 244.052C193.149 243.231 193.326 242.517 193.681 241.91C194.045 241.294 194.544 240.823 195.179 240.496C195.813 240.169 196.527 240.006 197.321 240.006C198.114 240.006 198.828 240.169 199.463 240.496C200.097 240.823 200.592 241.294 200.947 241.91C201.311 242.517 201.493 243.231 201.493 244.052C201.493 244.873 201.311 245.592 200.947 246.208C200.592 246.815 200.097 247.281 199.463 247.608C198.828 247.935 198.114 248.098 197.321 248.098ZM197.321 245.41C197.61 245.41 197.853 245.298 198.049 245.074C198.245 244.841 198.343 244.5 198.343 244.052C198.343 243.604 198.245 243.268 198.049 243.044C197.853 242.811 197.61 242.694 197.321 242.694C197.031 242.694 196.789 242.811 196.593 243.044C196.397 243.268 196.299 243.604 196.299 244.052C196.299 244.5 196.392 244.841 196.579 245.074C196.775 245.298 197.022 245.41 197.321 245.41ZM205.857 241.56C206.174 241.103 206.562 240.739 207.019 240.468C207.476 240.188 207.952 240.048 208.447 240.048V243.366H207.565C206.977 243.366 206.543 243.469 206.263 243.674C205.992 243.879 205.857 244.243 205.857 244.766V248H202.749V240.104H205.857V241.56ZM209.144 244.052C209.144 243.221 209.284 242.503 209.564 241.896C209.854 241.28 210.246 240.813 210.74 240.496C211.235 240.169 211.79 240.006 212.406 240.006C212.92 240.006 213.358 240.113 213.722 240.328C214.096 240.533 214.38 240.818 214.576 241.182V237.64H217.684V248H214.576V246.922C214.38 247.286 214.096 247.575 213.722 247.79C213.358 247.995 212.92 248.098 212.406 248.098C211.79 248.098 211.235 247.939 210.74 247.622C210.246 247.295 209.854 246.829 209.564 246.222C209.284 245.606 209.144 244.883 209.144 244.052ZM214.59 244.052C214.59 243.632 214.483 243.305 214.268 243.072C214.054 242.839 213.778 242.722 213.442 242.722C213.106 242.722 212.831 242.839 212.616 243.072C212.402 243.305 212.294 243.632 212.294 244.052C212.294 244.472 212.402 244.799 212.616 245.032C212.831 245.265 213.106 245.382 213.442 245.382C213.778 245.382 214.054 245.265 214.268 245.032C214.483 244.799 214.59 244.472 214.59 244.052Z" fill="#909090"/>
<mask id="path-4-inside-1_540_10349" fill="white">
<path d="M360.667 244.924C359.604 244.924 358.742 244.062 358.742 243C358.742 241.938 359.604 241.076 360.667 241.076C361.729 241.076 362.591 241.938 362.591 243C362.591 244.062 361.729 244.924 360.667 244.924ZM360.667 241.742C359.973 241.742 359.409 242.307 359.409 243C359.409 243.693 359.973 244.258 360.667 244.258C361.36 244.258 361.924 243.693 361.924 243C361.924 242.307 361.36 241.742 360.667 241.742Z"/>
</mask>
<path d="M360.667 244.924C359.604 244.924 358.742 244.062 358.742 243C358.742 241.938 359.604 241.076 360.667 241.076C361.729 241.076 362.591 241.938 362.591 243C362.591 244.062 361.729 244.924 360.667 244.924ZM360.667 241.742C359.973 241.742 359.409 242.307 359.409 243C359.409 243.693 359.973 244.258 360.667 244.258C361.36 244.258 361.924 243.693 361.924 243C361.924 242.307 361.36 241.742 360.667 241.742Z" fill="#909090"/>
<path d="M360.667 243.924C360.157 243.924 359.742 243.51 359.742 243H357.742C357.742 244.615 359.052 245.924 360.667 245.924V243.924ZM359.742 243C359.742 242.49 360.157 242.076 360.667 242.076V240.076C359.052 240.076 357.742 241.385 357.742 243H359.742ZM360.667 242.076C361.177 242.076 361.591 242.49 361.591 243H363.591C363.591 241.385 362.281 240.076 360.667 240.076V242.076ZM361.591 243C361.591 243.51 361.177 243.924 360.667 243.924V245.924C362.281 245.924 363.591 244.615 363.591 243H361.591ZM360.667 240.742C359.421 240.742 358.409 241.754 358.409 243H360.409C360.409 242.859 360.526 242.742 360.667 242.742V240.742ZM358.409 243C358.409 244.246 359.421 245.258 360.667 245.258V243.258C360.526 243.258 360.409 243.141 360.409 243H358.409ZM360.667 245.258C361.912 245.258 362.924 244.246 362.924 243H360.924C360.924 243.141 360.808 243.258 360.667 243.258V245.258ZM362.924 243C362.924 241.754 361.912 240.742 360.667 240.742V242.742C360.808 242.742 360.924 242.859 360.924 243H362.924Z" fill="#909090" mask="url(#path-4-inside-1_540_10349)"/>
<mask id="path-6-inside-2_540_10349" fill="white">
<path d="M360.667 247.009C358.996 247.009 357.418 246.031 356.333 244.333C355.862 243.6 355.862 242.404 356.333 241.667C357.422 239.969 359 238.991 360.667 238.991C362.333 238.991 363.911 239.969 364.996 241.667C365.467 242.4 365.467 243.596 364.996 244.333C363.911 246.031 362.333 247.009 360.667 247.009ZM360.667 239.658C359.231 239.658 357.858 240.52 356.898 242.027C356.564 242.547 356.564 243.453 356.898 243.973C357.858 245.48 359.231 246.342 360.667 246.342C362.102 246.342 363.476 245.48 364.436 243.973C364.769 243.453 364.769 242.547 364.436 242.027C363.476 240.52 362.102 239.658 360.667 239.658Z"/>
</mask>
<path d="M360.667 247.009C358.996 247.009 357.418 246.031 356.333 244.333C355.862 243.6 355.862 242.404 356.333 241.667C357.422 239.969 359 238.991 360.667 238.991C362.333 238.991 363.911 239.969 364.996 241.667C365.467 242.4 365.467 243.596 364.996 244.333C363.911 246.031 362.333 247.009 360.667 247.009ZM360.667 239.658C359.231 239.658 357.858 240.52 356.898 242.027C356.564 242.547 356.564 243.453 356.898 243.973C357.858 245.48 359.231 246.342 360.667 246.342C362.102 246.342 363.476 245.48 364.436 243.973C364.769 243.453 364.769 242.547 364.436 242.027C363.476 240.52 362.102 239.658 360.667 239.658Z" fill="#909090"/>
<path d="M356.333 244.333L357.176 243.795L357.175 243.793L356.333 244.333ZM356.333 241.667L355.492 241.127L355.491 241.128L356.333 241.667ZM364.996 241.667L364.153 242.205L364.154 242.207L364.996 241.667ZM364.996 244.333L365.838 244.872L365.838 244.872L364.996 244.333ZM356.898 242.027L357.74 242.566L357.741 242.564L356.898 242.027ZM356.898 243.973L357.741 243.436L357.74 243.434L356.898 243.973ZM364.436 243.973L363.594 243.434L363.592 243.436L364.436 243.973ZM364.436 242.027L363.592 242.564L363.594 242.566L364.436 242.027ZM360.667 246.009C359.413 246.009 358.122 245.275 357.176 243.795L355.491 244.872C356.714 246.787 358.578 248.009 360.667 248.009V246.009ZM357.175 243.793C357.065 243.622 356.98 243.339 356.98 243.002C356.98 242.665 357.065 242.379 357.176 242.205L355.491 241.128C355.131 241.692 354.98 242.373 354.98 243.002C354.98 243.63 355.131 244.311 355.492 244.874L357.175 243.793ZM357.175 242.207C358.126 240.724 359.418 239.991 360.667 239.991V237.991C358.582 237.991 356.719 239.214 355.492 241.127L357.175 242.207ZM360.667 239.991C361.916 239.991 363.207 240.724 364.153 242.205L365.838 241.128C364.615 239.214 362.751 237.991 360.667 237.991V239.991ZM364.154 242.207C364.264 242.378 364.349 242.661 364.349 242.998C364.349 243.335 364.264 243.621 364.153 243.795L365.838 244.872C366.198 244.308 366.349 243.627 366.349 242.998C366.349 242.37 366.198 241.689 365.837 241.126L364.154 242.207ZM364.153 243.795C363.207 245.276 361.916 246.009 360.667 246.009V248.009C362.751 248.009 364.615 246.786 365.838 244.872L364.153 243.795ZM360.667 238.658C358.804 238.658 357.147 239.775 356.054 241.489L357.741 242.564C358.569 241.265 359.658 240.658 360.667 240.658V238.658ZM356.056 241.487C355.758 241.951 355.648 242.511 355.648 243C355.648 243.489 355.758 244.049 356.056 244.513L357.74 243.434C357.704 243.378 357.648 243.224 357.648 243C357.648 242.776 357.704 242.622 357.74 242.566L356.056 241.487ZM356.054 244.511C357.147 246.225 358.804 247.342 360.667 247.342V245.342C359.658 245.342 358.569 244.735 357.741 243.436L356.054 244.511ZM360.667 247.342C362.529 247.342 364.186 246.225 365.279 244.511L363.592 243.436C362.765 244.735 361.675 245.342 360.667 245.342V247.342ZM365.277 244.513C365.575 244.049 365.686 243.489 365.686 243C365.686 242.511 365.575 241.951 365.277 241.487L363.594 242.566C363.63 242.622 363.686 242.776 363.686 243C363.686 243.224 363.63 243.378 363.594 243.434L365.277 244.513ZM365.279 241.489C364.186 239.775 362.529 238.658 360.667 238.658V240.658C361.675 240.658 362.765 241.265 363.592 242.564L365.279 241.489Z" fill="#909090" mask="url(#path-6-inside-2_540_10349)"/>
<rect x="130.5" y="222.5" width="249" height="41" rx="7.5" stroke="#909090"/>
<rect x="130.5" y="273.5" width="249" height="41" rx="7.5" fill="#202020"/>
<path d="M149.684 299L147.822 295.444H147.808V299H144.7V289.088H149.32C150.123 289.088 150.809 289.233 151.378 289.522C151.947 289.802 152.372 290.189 152.652 290.684C152.941 291.169 153.086 291.72 153.086 292.336C153.086 292.999 152.899 293.587 152.526 294.1C152.162 294.613 151.635 294.982 150.944 295.206L153.1 299H149.684ZM147.808 293.372H149.04C149.339 293.372 149.563 293.307 149.712 293.176C149.861 293.036 149.936 292.821 149.936 292.532C149.936 292.271 149.857 292.065 149.698 291.916C149.549 291.767 149.329 291.692 149.04 291.692H147.808V293.372ZM162.003 294.982C162.003 295.197 161.989 295.402 161.961 295.598H156.963C157.01 296.279 157.294 296.62 157.817 296.62C158.153 296.62 158.396 296.466 158.545 296.158H161.835C161.723 296.718 161.485 297.222 161.121 297.67C160.766 298.109 160.314 298.459 159.763 298.72C159.222 298.972 158.624 299.098 157.971 299.098C157.187 299.098 156.487 298.935 155.871 298.608C155.264 298.281 154.788 297.815 154.443 297.208C154.107 296.592 153.939 295.873 153.939 295.052C153.939 294.231 154.107 293.517 154.443 292.91C154.788 292.294 155.264 291.823 155.871 291.496C156.487 291.169 157.187 291.006 157.971 291.006C158.755 291.006 159.45 291.169 160.057 291.496C160.673 291.813 161.149 292.271 161.485 292.868C161.83 293.465 162.003 294.17 162.003 294.982ZM158.853 294.24C158.853 293.979 158.769 293.783 158.601 293.652C158.433 293.512 158.223 293.442 157.971 293.442C157.42 293.442 157.098 293.708 157.005 294.24H158.853ZM169.37 292.938V295.5H162.846V292.938H169.37ZM179.256 294.982C179.256 295.197 179.242 295.402 179.214 295.598H174.216C174.263 296.279 174.548 296.62 175.07 296.62C175.406 296.62 175.649 296.466 175.798 296.158H179.088C178.976 296.718 178.738 297.222 178.374 297.67C178.02 298.109 177.567 298.459 177.016 298.72C176.475 298.972 175.878 299.098 175.224 299.098C174.44 299.098 173.74 298.935 173.124 298.608C172.518 298.281 172.042 297.815 171.696 297.208C171.36 296.592 171.192 295.873 171.192 295.052C171.192 294.231 171.36 293.517 171.696 292.91C172.042 292.294 172.518 291.823 173.124 291.496C173.74 291.169 174.44 291.006 175.224 291.006C176.008 291.006 176.704 291.169 177.31 291.496C177.926 291.813 178.402 292.271 178.738 292.868C179.084 293.465 179.256 294.17 179.256 294.982ZM176.106 294.24C176.106 293.979 176.022 293.783 175.854 293.652C175.686 293.512 175.476 293.442 175.224 293.442C174.674 293.442 174.352 293.708 174.258 294.24H176.106ZM186.049 291.048C186.955 291.048 187.659 291.351 188.163 291.958C188.677 292.565 188.933 293.386 188.933 294.422V299H185.839V294.814C185.839 294.441 185.737 294.147 185.531 293.932C185.335 293.708 185.069 293.596 184.733 293.596C184.388 293.596 184.117 293.708 183.921 293.932C183.725 294.147 183.627 294.441 183.627 294.814V299H180.519V291.104H183.627V292.308C183.87 291.935 184.192 291.631 184.593 291.398C185.004 291.165 185.489 291.048 186.049 291.048ZM195.475 296.354V299H194.299C192.134 299 191.051 297.922 191.051 295.766V293.694H190.071V291.104H191.051V289.2H194.159V291.104H195.447V293.694H194.159V295.822C194.159 296.009 194.201 296.144 194.285 296.228C194.378 296.312 194.528 296.354 194.733 296.354H195.475ZM204.583 294.982C204.583 295.197 204.569 295.402 204.541 295.598H199.543C199.589 296.279 199.874 296.62 200.397 296.62C200.733 296.62 200.975 296.466 201.125 296.158H204.415C204.303 296.718 204.065 297.222 203.701 297.67C203.346 298.109 202.893 298.459 202.343 298.72C201.801 298.972 201.204 299.098 200.551 299.098C199.767 299.098 199.067 298.935 198.451 298.608C197.844 298.281 197.368 297.815 197.023 297.208C196.687 296.592 196.519 295.873 196.519 295.052C196.519 294.231 196.687 293.517 197.023 292.91C197.368 292.294 197.844 291.823 198.451 291.496C199.067 291.169 199.767 291.006 200.551 291.006C201.335 291.006 202.03 291.169 202.637 291.496C203.253 291.813 203.729 292.271 204.065 292.868C204.41 293.465 204.583 294.17 204.583 294.982ZM201.433 294.24C201.433 293.979 201.349 293.783 201.181 293.652C201.013 293.512 200.803 293.442 200.551 293.442C200 293.442 199.678 293.708 199.585 294.24H201.433ZM208.954 292.56C209.271 292.103 209.658 291.739 210.116 291.468C210.573 291.188 211.049 291.048 211.544 291.048V294.366H210.662C210.074 294.366 209.64 294.469 209.36 294.674C209.089 294.879 208.954 295.243 208.954 295.766V299H205.846V291.104H208.954V292.56ZM223.426 292.49C223.426 293.115 223.281 293.685 222.992 294.198C222.702 294.702 222.273 295.103 221.704 295.402C221.144 295.701 220.462 295.85 219.66 295.85H218.428V299H215.32V289.088H219.66C220.873 289.088 221.802 289.396 222.446 290.012C223.099 290.628 223.426 291.454 223.426 292.49ZM219.31 293.4C219.954 293.4 220.276 293.097 220.276 292.49C220.276 291.883 219.954 291.58 219.31 291.58H218.428V293.4H219.31ZM224.271 295.052C224.271 294.221 224.411 293.503 224.691 292.896C224.981 292.28 225.373 291.813 225.867 291.496C226.362 291.169 226.917 291.006 227.533 291.006C228.047 291.006 228.49 291.113 228.863 291.328C229.237 291.533 229.521 291.818 229.717 292.182V291.104H232.811V299H229.717V297.922C229.521 298.286 229.237 298.575 228.863 298.79C228.49 298.995 228.047 299.098 227.533 299.098C226.917 299.098 226.362 298.939 225.867 298.622C225.373 298.295 224.981 297.829 224.691 297.222C224.411 296.606 224.271 295.883 224.271 295.052ZM229.717 295.052C229.717 294.632 229.61 294.305 229.395 294.072C229.181 293.839 228.905 293.722 228.569 293.722C228.233 293.722 227.958 293.839 227.743 294.072C227.529 294.305 227.421 294.632 227.421 295.052C227.421 295.472 227.529 295.799 227.743 296.032C227.958 296.265 228.233 296.382 228.569 296.382C228.905 296.382 229.181 296.265 229.395 296.032C229.61 295.799 229.717 295.472 229.717 295.052ZM238.001 299.098C237.254 299.098 236.592 298.977 236.013 298.734C235.444 298.491 234.991 298.155 234.655 297.726C234.319 297.297 234.128 296.811 234.081 296.27H237.063C237.1 296.503 237.198 296.676 237.357 296.788C237.525 296.9 237.735 296.956 237.987 296.956C238.146 296.956 238.272 296.923 238.365 296.858C238.458 296.783 238.505 296.695 238.505 296.592C238.505 296.415 238.407 296.289 238.211 296.214C238.015 296.139 237.684 296.055 237.217 295.962C236.648 295.85 236.176 295.729 235.803 295.598C235.439 295.467 235.117 295.243 234.837 294.926C234.566 294.609 234.431 294.17 234.431 293.61C234.431 293.125 234.557 292.686 234.809 292.294C235.07 291.893 235.453 291.58 235.957 291.356C236.461 291.123 237.072 291.006 237.791 291.006C238.855 291.006 239.686 291.267 240.283 291.79C240.89 292.313 241.254 292.994 241.375 293.834H238.617C238.57 293.619 238.472 293.456 238.323 293.344C238.174 293.223 237.973 293.162 237.721 293.162C237.562 293.162 237.441 293.195 237.357 293.26C237.273 293.316 237.231 293.405 237.231 293.526C237.231 293.685 237.329 293.806 237.525 293.89C237.721 293.965 238.034 294.044 238.463 294.128C239.032 294.24 239.513 294.366 239.905 294.506C240.297 294.646 240.638 294.889 240.927 295.234C241.216 295.57 241.361 296.037 241.361 296.634C241.361 297.101 241.226 297.521 240.955 297.894C240.684 298.267 240.292 298.561 239.779 298.776C239.275 298.991 238.682 299.098 238.001 299.098ZM246.388 299.098C245.642 299.098 244.979 298.977 244.4 298.734C243.831 298.491 243.378 298.155 243.042 297.726C242.706 297.297 242.515 296.811 242.468 296.27H245.45C245.488 296.503 245.586 296.676 245.744 296.788C245.912 296.9 246.122 296.956 246.374 296.956C246.533 296.956 246.659 296.923 246.752 296.858C246.846 296.783 246.892 296.695 246.892 296.592C246.892 296.415 246.794 296.289 246.598 296.214C246.402 296.139 246.071 296.055 245.604 295.962C245.035 295.85 244.564 295.729 244.19 295.598C243.826 295.467 243.504 295.243 243.224 294.926C242.954 294.609 242.818 294.17 242.818 293.61C242.818 293.125 242.944 292.686 243.196 292.294C243.458 291.893 243.84 291.58 244.344 291.356C244.848 291.123 245.46 291.006 246.178 291.006C247.242 291.006 248.073 291.267 248.67 291.79C249.277 292.313 249.641 292.994 249.762 293.834H247.004C246.958 293.619 246.86 293.456 246.71 293.344C246.561 293.223 246.36 293.162 246.108 293.162C245.95 293.162 245.828 293.195 245.744 293.26C245.66 293.316 245.618 293.405 245.618 293.526C245.618 293.685 245.716 293.806 245.912 293.89C246.108 293.965 246.421 294.044 246.85 294.128C247.42 294.24 247.9 294.366 248.292 294.506C248.684 294.646 249.025 294.889 249.314 295.234C249.604 295.57 249.748 296.037 249.748 296.634C249.748 297.101 249.613 297.521 249.342 297.894C249.072 298.267 248.68 298.561 248.166 298.776C247.662 298.991 247.07 299.098 246.388 299.098ZM263.246 291.104L261.37 299H257.87L256.918 294.548L255.91 299H252.41L250.548 291.104H253.628L254.286 295.906L255.308 291.104H258.626L259.704 295.962L260.376 291.104H263.246ZM267.94 299.098C267.147 299.098 266.433 298.935 265.798 298.608C265.164 298.281 264.664 297.815 264.3 297.208C263.946 296.592 263.768 295.873 263.768 295.052C263.768 294.231 263.946 293.517 264.3 292.91C264.664 292.294 265.164 291.823 265.798 291.496C266.433 291.169 267.147 291.006 267.94 291.006C268.734 291.006 269.448 291.169 270.082 291.496C270.717 291.823 271.212 292.294 271.566 292.91C271.93 293.517 272.112 294.231 272.112 295.052C272.112 295.873 271.93 296.592 271.566 297.208C271.212 297.815 270.717 298.281 270.082 298.608C269.448 298.935 268.734 299.098 267.94 299.098ZM267.94 296.41C268.23 296.41 268.472 296.298 268.668 296.074C268.864 295.841 268.962 295.5 268.962 295.052C268.962 294.604 268.864 294.268 268.668 294.044C268.472 293.811 268.23 293.694 267.94 293.694C267.651 293.694 267.408 293.811 267.212 294.044C267.016 294.268 266.918 294.604 266.918 295.052C266.918 295.5 267.012 295.841 267.198 296.074C267.394 296.298 267.642 296.41 267.94 296.41ZM276.477 292.56C276.794 292.103 277.181 291.739 277.639 291.468C278.096 291.188 278.572 291.048 279.067 291.048V294.366H278.185C277.597 294.366 277.163 294.469 276.883 294.674C276.612 294.879 276.477 295.243 276.477 295.766V299H273.369V291.104H276.477V292.56ZM279.764 295.052C279.764 294.221 279.904 293.503 280.184 292.896C280.473 292.28 280.865 291.813 281.36 291.496C281.855 291.169 282.41 291.006 283.026 291.006C283.539 291.006 283.978 291.113 284.342 291.328C284.715 291.533 285 291.818 285.196 292.182V288.64H288.304V299H285.196V297.922C285 298.286 284.715 298.575 284.342 298.79C283.978 298.995 283.539 299.098 283.026 299.098C282.41 299.098 281.855 298.939 281.36 298.622C280.865 298.295 280.473 297.829 280.184 297.222C279.904 296.606 279.764 295.883 279.764 295.052ZM285.21 295.052C285.21 294.632 285.103 294.305 284.888 294.072C284.673 293.839 284.398 293.722 284.062 293.722C283.726 293.722 283.451 293.839 283.236 294.072C283.021 294.305 282.914 294.632 282.914 295.052C282.914 295.472 283.021 295.799 283.236 296.032C283.451 296.265 283.726 296.382 284.062 296.382C284.398 296.382 284.673 296.265 284.888 296.032C285.103 295.799 285.21 295.472 285.21 295.052Z" fill="#909090"/>
<mask id="path-10-inside-3_540_10349" fill="white">
<path d="M360.667 295.924C359.604 295.924 358.742 295.062 358.742 294C358.742 292.938 359.604 292.076 360.667 292.076C361.729 292.076 362.591 292.938 362.591 294C362.591 295.062 361.729 295.924 360.667 295.924ZM360.667 292.742C359.973 292.742 359.409 293.307 359.409 294C359.409 294.693 359.973 295.258 360.667 295.258C361.36 295.258 361.924 294.693 361.924 294C361.924 293.307 361.36 292.742 360.667 292.742Z"/>
</mask>
<path d="M360.667 295.924C359.604 295.924 358.742 295.062 358.742 294C358.742 292.938 359.604 292.076 360.667 292.076C361.729 292.076 362.591 292.938 362.591 294C362.591 295.062 361.729 295.924 360.667 295.924ZM360.667 292.742C359.973 292.742 359.409 293.307 359.409 294C359.409 294.693 359.973 295.258 360.667 295.258C361.36 295.258 361.924 294.693 361.924 294C361.924 293.307 361.36 292.742 360.667 292.742Z" fill="#909090"/>
<path d="M360.667 294.924C360.157 294.924 359.742 294.51 359.742 294H357.742C357.742 295.615 359.052 296.924 360.667 296.924V294.924ZM359.742 294C359.742 293.49 360.157 293.076 360.667 293.076V291.076C359.052 291.076 357.742 292.385 357.742 294H359.742ZM360.667 293.076C361.177 293.076 361.591 293.49 361.591 294H363.591C363.591 292.385 362.281 291.076 360.667 291.076V293.076ZM361.591 294C361.591 294.51 361.177 294.924 360.667 294.924V296.924C362.281 296.924 363.591 295.615 363.591 294H361.591ZM360.667 291.742C359.421 291.742 358.409 292.754 358.409 294H360.409C360.409 293.859 360.526 293.742 360.667 293.742V291.742ZM358.409 294C358.409 295.246 359.421 296.258 360.667 296.258V294.258C360.526 294.258 360.409 294.141 360.409 294H358.409ZM360.667 296.258C361.912 296.258 362.924 295.246 362.924 294H360.924C360.924 294.141 360.808 294.258 360.667 294.258V296.258ZM362.924 294C362.924 292.754 361.912 291.742 360.667 291.742V293.742C360.808 293.742 360.924 293.859 360.924 294H362.924Z" fill="#909090" mask="url(#path-10-inside-3_540_10349)"/>
<mask id="path-12-inside-4_540_10349" fill="white">
<path d="M360.667 298.009C358.996 298.009 357.418 297.031 356.333 295.333C355.862 294.6 355.862 293.404 356.333 292.667C357.422 290.969 359 289.991 360.667 289.991C362.333 289.991 363.911 290.969 364.996 292.667C365.467 293.4 365.467 294.596 364.996 295.333C363.911 297.031 362.333 298.009 360.667 298.009ZM360.667 290.658C359.231 290.658 357.858 291.52 356.898 293.027C356.564 293.547 356.564 294.453 356.898 294.973C357.858 296.48 359.231 297.342 360.667 297.342C362.102 297.342 363.476 296.48 364.436 294.973C364.769 294.453 364.769 293.547 364.436 293.027C363.476 291.52 362.102 290.658 360.667 290.658Z"/>
</mask>
<path d="M360.667 298.009C358.996 298.009 357.418 297.031 356.333 295.333C355.862 294.6 355.862 293.404 356.333 292.667C357.422 290.969 359 289.991 360.667 289.991C362.333 289.991 363.911 290.969 364.996 292.667C365.467 293.4 365.467 294.596 364.996 295.333C363.911 297.031 362.333 298.009 360.667 298.009ZM360.667 290.658C359.231 290.658 357.858 291.52 356.898 293.027C356.564 293.547 356.564 294.453 356.898 294.973C357.858 296.48 359.231 297.342 360.667 297.342C362.102 297.342 363.476 296.48 364.436 294.973C364.769 294.453 364.769 293.547 364.436 293.027C363.476 291.52 362.102 290.658 360.667 290.658Z" fill="#909090"/>
<path d="M356.333 295.333L357.176 294.795L357.175 294.793L356.333 295.333ZM356.333 292.667L355.492 292.127L355.491 292.128L356.333 292.667ZM364.996 292.667L364.153 293.205L364.154 293.207L364.996 292.667ZM364.996 295.333L365.838 295.872L365.838 295.872L364.996 295.333ZM356.898 293.027L357.74 293.566L357.741 293.564L356.898 293.027ZM356.898 294.973L357.741 294.436L357.74 294.434L356.898 294.973ZM364.436 294.973L363.594 294.434L363.592 294.436L364.436 294.973ZM364.436 293.027L363.592 293.564L363.594 293.566L364.436 293.027ZM360.667 297.009C359.413 297.009 358.122 296.275 357.176 294.795L355.491 295.872C356.714 297.787 358.578 299.009 360.667 299.009V297.009ZM357.175 294.793C357.065 294.622 356.98 294.339 356.98 294.002C356.98 293.665 357.065 293.379 357.176 293.205L355.491 292.128C355.131 292.692 354.98 293.373 354.98 294.002C354.98 294.63 355.131 295.311 355.492 295.874L357.175 294.793ZM357.175 293.207C358.126 291.724 359.418 290.991 360.667 290.991V288.991C358.582 288.991 356.719 290.214 355.492 292.127L357.175 293.207ZM360.667 290.991C361.916 290.991 363.207 291.724 364.153 293.205L365.838 292.128C364.615 290.214 362.751 288.991 360.667 288.991V290.991ZM364.154 293.207C364.264 293.378 364.349 293.661 364.349 293.998C364.349 294.335 364.264 294.621 364.153 294.795L365.838 295.872C366.198 295.308 366.349 294.627 366.349 293.998C366.349 293.37 366.198 292.689 365.837 292.126L364.154 293.207ZM364.153 294.795C363.207 296.276 361.916 297.009 360.667 297.009V299.009C362.751 299.009 364.615 297.786 365.838 295.872L364.153 294.795ZM360.667 289.658C358.804 289.658 357.147 290.775 356.054 292.489L357.741 293.564C358.569 292.265 359.658 291.658 360.667 291.658V289.658ZM356.056 292.487C355.758 292.951 355.648 293.511 355.648 294C355.648 294.489 355.758 295.049 356.056 295.513L357.74 294.434C357.704 294.378 357.648 294.224 357.648 294C357.648 293.776 357.704 293.622 357.74 293.566L356.056 292.487ZM356.054 295.511C357.147 297.225 358.804 298.342 360.667 298.342V296.342C359.658 296.342 358.569 295.735 357.741 294.436L356.054 295.511ZM360.667 298.342C362.529 298.342 364.186 297.225 365.279 295.511L363.592 294.436C362.765 295.735 361.675 296.342 360.667 296.342V298.342ZM365.277 295.513C365.575 295.049 365.686 294.489 365.686 294C365.686 293.511 365.575 292.951 365.277 292.487L363.594 293.566C363.63 293.622 363.686 293.776 363.686 294C363.686 294.224 363.63 294.378 363.594 294.434L365.277 295.513ZM365.279 292.489C364.186 290.775 362.529 289.658 360.667 289.658V291.658C361.675 291.658 362.765 292.265 363.592 293.564L365.279 292.489Z" fill="#909090" mask="url(#path-12-inside-4_540_10349)"/>
<rect x="130.5" y="273.5" width="249" height="41" rx="7.5" stroke="#909090"/>
<path d="M144.74 47.556V63H140.978V56.642H135.126V63H131.364V47.556H135.126V53.606H140.978V47.556H144.74ZM159.028 56.664C159.028 57.016 159.006 57.3827 158.962 57.764H150.448C150.506 58.5267 150.748 59.1133 151.174 59.524C151.614 59.92 152.149 60.118 152.78 60.118C153.718 60.118 154.371 59.722 154.738 58.93H158.742C158.536 59.7367 158.162 60.4627 157.62 61.108C157.092 61.7533 156.424 62.2593 155.618 62.626C154.811 62.9927 153.909 63.176 152.912 63.176C151.709 63.176 150.638 62.9193 149.7 62.406C148.761 61.8927 148.028 61.1593 147.5 60.206C146.972 59.2527 146.708 58.138 146.708 56.862C146.708 55.586 146.964 54.4713 147.478 53.518C148.006 52.5647 148.739 51.8313 149.678 51.318C150.616 50.8047 151.694 50.548 152.912 50.548C154.1 50.548 155.156 50.7973 156.08 51.296C157.004 51.7947 157.722 52.506 158.236 53.43C158.764 54.354 159.028 55.432 159.028 56.664ZM155.178 55.674C155.178 55.0287 154.958 54.5153 154.518 54.134C154.078 53.7527 153.528 53.562 152.868 53.562C152.237 53.562 151.702 53.7453 151.262 54.112C150.836 54.4787 150.572 54.9993 150.47 55.674H155.178ZM164.774 46.72V63H161.012V46.72H164.774ZM171.263 46.72V63H167.501V46.72H171.263ZM179.577 63.176C178.374 63.176 177.289 62.9193 176.321 62.406C175.368 61.8927 174.612 61.1593 174.055 60.206C173.512 59.2527 173.241 58.138 173.241 56.862C173.241 55.6007 173.52 54.4933 174.077 53.54C174.634 52.572 175.397 51.8313 176.365 51.318C177.333 50.8047 178.418 50.548 179.621 50.548C180.824 50.548 181.909 50.8047 182.877 51.318C183.845 51.8313 184.608 52.572 185.165 53.54C185.722 54.4933 186.001 55.6007 186.001 56.862C186.001 58.1233 185.715 59.238 185.143 60.206C184.586 61.1593 183.816 61.8927 182.833 62.406C181.865 62.9193 180.78 63.176 179.577 63.176ZM179.577 59.92C180.296 59.92 180.904 59.656 181.403 59.128C181.916 58.6 182.173 57.8447 182.173 56.862C182.173 55.8793 181.924 55.124 181.425 54.596C180.941 54.068 180.34 53.804 179.621 53.804C178.888 53.804 178.279 54.068 177.795 54.596C177.311 55.1093 177.069 55.8647 177.069 56.862C177.069 57.8447 177.304 58.6 177.773 59.128C178.257 59.656 178.858 59.92 179.577 59.92ZM192.947 47.006L192.507 57.544H189.317L188.877 47.006H192.947ZM190.967 63.176C190.307 63.176 189.764 62.9853 189.339 62.604C188.928 62.208 188.723 61.724 188.723 61.152C188.723 60.5653 188.928 60.074 189.339 59.678C189.764 59.282 190.307 59.084 190.967 59.084C191.612 59.084 192.14 59.282 192.551 59.678C192.976 60.074 193.189 60.5653 193.189 61.152C193.189 61.724 192.976 62.208 192.551 62.604C192.14 62.9853 191.612 63.176 190.967 63.176Z" fill="white"/>
<path d="M144.74 47.556V63H140.978V56.642H135.126V63H131.364V47.556H135.126V53.606H140.978V47.556H144.74ZM159.028 56.664C159.028 57.016 159.006 57.3827 158.962 57.764H150.448C150.506 58.5267 150.748 59.1133 151.174 59.524C151.614 59.92 152.149 60.118 152.78 60.118C153.718 60.118 154.371 59.722 154.738 58.93H158.742C158.536 59.7367 158.162 60.4627 157.62 61.108C157.092 61.7533 156.424 62.2593 155.618 62.626C154.811 62.9927 153.909 63.176 152.912 63.176C151.709 63.176 150.638 62.9193 149.7 62.406C148.761 61.8927 148.028 61.1593 147.5 60.206C146.972 59.2527 146.708 58.138 146.708 56.862C146.708 55.586 146.964 54.4713 147.478 53.518C148.006 52.5647 148.739 51.8313 149.678 51.318C150.616 50.8047 151.694 50.548 152.912 50.548C154.1 50.548 155.156 50.7973 156.08 51.296C157.004 51.7947 157.722 52.506 158.236 53.43C158.764 54.354 159.028 55.432 159.028 56.664ZM155.178 55.674C155.178 55.0287 154.958 54.5153 154.518 54.134C154.078 53.7527 153.528 53.562 152.868 53.562C152.237 53.562 151.702 53.7453 151.262 54.112C150.836 54.4787 150.572 54.9993 150.47 55.674H155.178ZM164.774 46.72V63H161.012V46.72H164.774ZM171.263 46.72V63H167.501V46.72H171.263ZM179.577 63.176C178.374 63.176 177.289 62.9193 176.321 62.406C175.368 61.8927 174.612 61.1593 174.055 60.206C173.512 59.2527 173.241 58.138 173.241 56.862C173.241 55.6007 173.52 54.4933 174.077 53.54C174.634 52.572 175.397 51.8313 176.365 51.318C177.333 50.8047 178.418 50.548 179.621 50.548C180.824 50.548 181.909 50.8047 182.877 51.318C183.845 51.8313 184.608 52.572 185.165 53.54C185.722 54.4933 186.001 55.6007 186.001 56.862C186.001 58.1233 185.715 59.238 185.143 60.206C184.586 61.1593 183.816 61.8927 182.833 62.406C181.865 62.9193 180.78 63.176 179.577 63.176ZM179.577 59.92C180.296 59.92 180.904 59.656 181.403 59.128C181.916 58.6 182.173 57.8447 182.173 56.862C182.173 55.8793 181.924 55.124 181.425 54.596C180.941 54.068 180.34 53.804 179.621 53.804C178.888 53.804 178.279 54.068 177.795 54.596C177.311 55.1093 177.069 55.8647 177.069 56.862C177.069 57.8447 177.304 58.6 177.773 59.128C178.257 59.656 178.858 59.92 179.577 59.92ZM192.947 47.006L192.507 57.544H189.317L188.877 47.006H192.947ZM190.967 63.176C190.307 63.176 189.764 62.9853 189.339 62.604C188.928 62.208 188.723 61.724 188.723 61.152C188.723 60.5653 188.928 60.074 189.339 59.678C189.764 59.282 190.307 59.084 190.967 59.084C191.612 59.084 192.14 59.282 192.551 59.678C192.976 60.074 193.189 60.5653 193.189 61.152C193.189 61.724 192.976 62.208 192.551 62.604C192.14 62.9853 191.612 63.176 190.967 63.176Z" fill="#EEEEEE"/>
<rect x="130" y="341" width="250" height="45" rx="8" fill="#925FF0"/>
<path d="M197.92 363.53C197.92 362.55 198.116 361.677 198.508 360.912C198.909 360.147 199.479 359.554 200.216 359.134C200.953 358.705 201.821 358.49 202.82 358.49C203.679 358.49 204.444 358.653 205.116 358.98C205.797 359.297 206.348 359.75 206.768 360.338C207.197 360.926 207.482 361.612 207.622 362.396H204.346C204.197 362.069 203.982 361.817 203.702 361.64C203.431 361.453 203.119 361.36 202.764 361.36C202.241 361.36 201.826 361.556 201.518 361.948C201.219 362.34 201.07 362.867 201.07 363.53C201.07 364.193 201.219 364.72 201.518 365.112C201.826 365.504 202.241 365.7 202.764 365.7C203.119 365.7 203.431 365.611 203.702 365.434C203.982 365.247 204.197 364.991 204.346 364.664H207.622C207.482 365.448 207.197 366.134 206.768 366.722C206.348 367.31 205.797 367.767 205.116 368.094C204.444 368.411 203.679 368.57 202.82 368.57C201.821 368.57 200.953 368.36 200.216 367.94C199.479 367.511 198.909 366.913 198.508 366.148C198.116 365.383 197.92 364.51 197.92 363.53ZM211.849 362.06C212.166 361.603 212.554 361.239 213.011 360.968C213.468 360.688 213.944 360.548 214.439 360.548V363.866H213.557C212.969 363.866 212.535 363.969 212.255 364.174C211.984 364.379 211.849 364.743 211.849 365.266V368.5H208.741V360.604H211.849V362.06ZM222.92 364.482C222.92 364.697 222.906 364.902 222.878 365.098H217.88C217.927 365.779 218.212 366.12 218.734 366.12C219.07 366.12 219.313 365.966 219.462 365.658H222.752C222.64 366.218 222.402 366.722 222.038 367.17C221.684 367.609 221.231 367.959 220.68 368.22C220.139 368.472 219.542 368.598 218.888 368.598C218.104 368.598 217.404 368.435 216.788 368.108C216.182 367.781 215.706 367.315 215.36 366.708C215.024 366.092 214.856 365.373 214.856 364.552C214.856 363.731 215.024 363.017 215.36 362.41C215.706 361.794 216.182 361.323 216.788 360.996C217.404 360.669 218.104 360.506 218.888 360.506C219.672 360.506 220.368 360.669 220.974 360.996C221.59 361.313 222.066 361.771 222.402 362.368C222.748 362.965 222.92 363.67 222.92 364.482ZM219.77 363.74C219.77 363.479 219.686 363.283 219.518 363.152C219.35 363.012 219.14 362.942 218.888 362.942C218.338 362.942 218.016 363.208 217.922 363.74H219.77ZM223.483 364.552C223.483 363.721 223.623 363.003 223.903 362.396C224.192 361.78 224.584 361.313 225.079 360.996C225.574 360.669 226.129 360.506 226.745 360.506C227.258 360.506 227.702 360.613 228.075 360.828C228.448 361.033 228.733 361.318 228.929 361.682V360.604H232.023V368.5H228.929V367.422C228.733 367.786 228.448 368.075 228.075 368.29C227.702 368.495 227.258 368.598 226.745 368.598C226.129 368.598 225.574 368.439 225.079 368.122C224.584 367.795 224.192 367.329 223.903 366.722C223.623 366.106 223.483 365.383 223.483 364.552ZM228.929 364.552C228.929 364.132 228.822 363.805 228.607 363.572C228.392 363.339 228.117 363.222 227.781 363.222C227.445 363.222 227.17 363.339 226.955 363.572C226.74 363.805 226.633 364.132 226.633 364.552C226.633 364.972 226.74 365.299 226.955 365.532C227.17 365.765 227.445 365.882 227.781 365.882C228.117 365.882 228.392 365.765 228.607 365.532C228.822 365.299 228.929 364.972 228.929 364.552ZM238.333 365.854V368.5H237.157C234.991 368.5 233.909 367.422 233.909 365.266V363.194H232.929V360.604H233.909V358.7H237.017V360.604H238.305V363.194H237.017V365.322C237.017 365.509 237.059 365.644 237.143 365.728C237.236 365.812 237.385 365.854 237.591 365.854H238.333ZM247.16 364.482C247.16 364.697 247.146 364.902 247.118 365.098H242.12C242.167 365.779 242.452 366.12 242.974 366.12C243.31 366.12 243.553 365.966 243.702 365.658H246.992C246.88 366.218 246.642 366.722 246.278 367.17C245.924 367.609 245.471 367.959 244.92 368.22C244.379 368.472 243.782 368.598 243.128 368.598C242.344 368.598 241.644 368.435 241.028 368.108C240.422 367.781 239.946 367.315 239.6 366.708C239.264 366.092 239.096 365.373 239.096 364.552C239.096 363.731 239.264 363.017 239.6 362.41C239.946 361.794 240.422 361.323 241.028 360.996C241.644 360.669 242.344 360.506 243.128 360.506C243.912 360.506 244.608 360.669 245.214 360.996C245.83 361.313 246.306 361.771 246.642 362.368C246.988 362.965 247.16 363.67 247.16 364.482ZM244.01 363.74C244.01 363.479 243.926 363.283 243.758 363.152C243.59 363.012 243.38 362.942 243.128 362.942C242.578 362.942 242.256 363.208 242.162 363.74H244.01ZM256.878 367.002H253.574L253.084 368.5H249.822L253.448 358.588H257.032L260.644 368.5H257.368L256.878 367.002ZM256.122 364.664L255.226 361.906L254.33 364.664H256.122ZM260.93 364.552C260.93 363.731 261.098 363.017 261.434 362.41C261.78 361.794 262.256 361.323 262.862 360.996C263.478 360.669 264.178 360.506 264.962 360.506C265.989 360.506 266.852 360.795 267.552 361.374C268.262 361.953 268.71 362.755 268.896 363.782H265.606C265.485 363.371 265.247 363.166 264.892 363.166C264.64 363.166 264.44 363.283 264.29 363.516C264.15 363.749 264.08 364.095 264.08 364.552C264.08 365.009 264.15 365.355 264.29 365.588C264.44 365.821 264.64 365.938 264.892 365.938C265.247 365.938 265.485 365.733 265.606 365.322H268.896C268.71 366.349 268.262 367.151 267.552 367.73C266.852 368.309 265.989 368.598 264.962 368.598C264.178 368.598 263.478 368.435 262.862 368.108C262.256 367.781 261.78 367.315 261.434 366.708C261.098 366.092 260.93 365.373 260.93 364.552ZM269.462 364.552C269.462 363.731 269.63 363.017 269.966 362.41C270.311 361.794 270.787 361.323 271.394 360.996C272.01 360.669 272.71 360.506 273.494 360.506C274.52 360.506 275.384 360.795 276.084 361.374C276.793 361.953 277.241 362.755 277.428 363.782H274.138C274.016 363.371 273.778 363.166 273.424 363.166C273.172 363.166 272.971 363.283 272.822 363.516C272.682 363.749 272.612 364.095 272.612 364.552C272.612 365.009 272.682 365.355 272.822 365.588C272.971 365.821 273.172 365.938 273.424 365.938C273.778 365.938 274.016 365.733 274.138 365.322H277.428C277.241 366.349 276.793 367.151 276.084 367.73C275.384 368.309 274.52 368.598 273.494 368.598C272.71 368.598 272.01 368.435 271.394 368.108C270.787 367.781 270.311 367.315 269.966 366.708C269.63 366.092 269.462 365.373 269.462 364.552ZM282.165 368.598C281.372 368.598 280.658 368.435 280.023 368.108C279.388 367.781 278.889 367.315 278.525 366.708C278.17 366.092 277.993 365.373 277.993 364.552C277.993 363.731 278.17 363.017 278.525 362.41C278.889 361.794 279.388 361.323 280.023 360.996C280.658 360.669 281.372 360.506 282.165 360.506C282.958 360.506 283.672 360.669 284.307 360.996C284.942 361.323 285.436 361.794 285.791 362.41C286.155 363.017 286.337 363.731 286.337 364.552C286.337 365.373 286.155 366.092 285.791 366.708C285.436 367.315 284.942 367.781 284.307 368.108C283.672 368.435 282.958 368.598 282.165 368.598ZM282.165 365.91C282.454 365.91 282.697 365.798 282.893 365.574C283.089 365.341 283.187 365 283.187 364.552C283.187 364.104 283.089 363.768 282.893 363.544C282.697 363.311 282.454 363.194 282.165 363.194C281.876 363.194 281.633 363.311 281.437 363.544C281.241 363.768 281.143 364.104 281.143 364.552C281.143 365 281.236 365.341 281.423 365.574C281.619 365.798 281.866 365.91 282.165 365.91ZM295.671 360.604V368.5H292.563V367.296C292.321 367.669 291.994 367.973 291.583 368.206C291.182 368.439 290.701 368.556 290.141 368.556C289.236 368.556 288.527 368.253 288.013 367.646C287.509 367.039 287.257 366.218 287.257 365.182V360.604H290.351V364.79C290.351 365.163 290.449 365.462 290.645 365.686C290.851 365.901 291.121 366.008 291.457 366.008C291.803 366.008 292.073 365.901 292.269 365.686C292.465 365.462 292.563 365.163 292.563 364.79V360.604H295.671ZM302.605 360.548C303.51 360.548 304.215 360.851 304.719 361.458C305.232 362.065 305.489 362.886 305.489 363.922V368.5H302.395V364.314C302.395 363.941 302.292 363.647 302.087 363.432C301.891 363.208 301.625 363.096 301.289 363.096C300.944 363.096 300.673 363.208 300.477 363.432C300.281 363.647 300.183 363.941 300.183 364.314V368.5H297.075V360.604H300.183V361.808C300.426 361.435 300.748 361.131 301.149 360.898C301.56 360.665 302.045 360.548 302.605 360.548ZM311.751 365.854V368.5H310.575C308.409 368.5 307.327 367.422 307.327 365.266V363.194H306.347V360.604H307.327V358.7H310.435V360.604H311.723V363.194H310.435V365.322C310.435 365.509 310.477 365.644 310.561 365.728C310.654 365.812 310.803 365.854 311.009 365.854H311.751Z" fill="white"/>
<path d="M197.92 363.53C197.92 362.55 198.116 361.677 198.508 360.912C198.909 360.147 199.479 359.554 200.216 359.134C200.953 358.705 201.821 358.49 202.82 358.49C203.679 358.49 204.444 358.653 205.116 358.98C205.797 359.297 206.348 359.75 206.768 360.338C207.197 360.926 207.482 361.612 207.622 362.396H204.346C204.197 362.069 203.982 361.817 203.702 361.64C203.431 361.453 203.119 361.36 202.764 361.36C202.241 361.36 201.826 361.556 201.518 361.948C201.219 362.34 201.07 362.867 201.07 363.53C201.07 364.193 201.219 364.72 201.518 365.112C201.826 365.504 202.241 365.7 202.764 365.7C203.119 365.7 203.431 365.611 203.702 365.434C203.982 365.247 204.197 364.991 204.346 364.664H207.622C207.482 365.448 207.197 366.134 206.768 366.722C206.348 367.31 205.797 367.767 205.116 368.094C204.444 368.411 203.679 368.57 202.82 368.57C201.821 368.57 200.953 368.36 200.216 367.94C199.479 367.511 198.909 366.913 198.508 366.148C198.116 365.383 197.92 364.51 197.92 363.53ZM211.849 362.06C212.166 361.603 212.554 361.239 213.011 360.968C213.468 360.688 213.944 360.548 214.439 360.548V363.866H213.557C212.969 363.866 212.535 363.969 212.255 364.174C211.984 364.379 211.849 364.743 211.849 365.266V368.5H208.741V360.604H211.849V362.06ZM222.92 364.482C222.92 364.697 222.906 364.902 222.878 365.098H217.88C217.927 365.779 218.212 366.12 218.734 366.12C219.07 366.12 219.313 365.966 219.462 365.658H222.752C222.64 366.218 222.402 366.722 222.038 367.17C221.684 367.609 221.231 367.959 220.68 368.22C220.139 368.472 219.542 368.598 218.888 368.598C218.104 368.598 217.404 368.435 216.788 368.108C216.182 367.781 215.706 367.315 215.36 366.708C215.024 366.092 214.856 365.373 214.856 364.552C214.856 363.731 215.024 363.017 215.36 362.41C215.706 361.794 216.182 361.323 216.788 360.996C217.404 360.669 218.104 360.506 218.888 360.506C219.672 360.506 220.368 360.669 220.974 360.996C221.59 361.313 222.066 361.771 222.402 362.368C222.748 362.965 222.92 363.67 222.92 364.482ZM219.77 363.74C219.77 363.479 219.686 363.283 219.518 363.152C219.35 363.012 219.14 362.942 218.888 362.942C218.338 362.942 218.016 363.208 217.922 363.74H219.77ZM223.483 364.552C223.483 363.721 223.623 363.003 223.903 362.396C224.192 361.78 224.584 361.313 225.079 360.996C225.574 360.669 226.129 360.506 226.745 360.506C227.258 360.506 227.702 360.613 228.075 360.828C228.448 361.033 228.733 361.318 228.929 361.682V360.604H232.023V368.5H228.929V367.422C228.733 367.786 228.448 368.075 228.075 368.29C227.702 368.495 227.258 368.598 226.745 368.598C226.129 368.598 225.574 368.439 225.079 368.122C224.584 367.795 224.192 367.329 223.903 366.722C223.623 366.106 223.483 365.383 223.483 364.552ZM228.929 364.552C228.929 364.132 228.822 363.805 228.607 363.572C228.392 363.339 228.117 363.222 227.781 363.222C227.445 363.222 227.17 363.339 226.955 363.572C226.74 363.805 226.633 364.132 226.633 364.552C226.633 364.972 226.74 365.299 226.955 365.532C227.17 365.765 227.445 365.882 227.781 365.882C228.117 365.882 228.392 365.765 228.607 365.532C228.822 365.299 228.929 364.972 228.929 364.552ZM238.333 365.854V368.5H237.157C234.991 368.5 233.909 367.422 233.909 365.266V363.194H232.929V360.604H233.909V358.7H237.017V360.604H238.305V363.194H237.017V365.322C237.017 365.509 237.059 365.644 237.143 365.728C237.236 365.812 237.385 365.854 237.591 365.854H238.333ZM247.16 364.482C247.16 364.697 247.146 364.902 247.118 365.098H242.12C242.167 365.779 242.452 366.12 242.974 366.12C243.31 366.12 243.553 365.966 243.702 365.658H246.992C246.88 366.218 246.642 366.722 246.278 367.17C245.924 367.609 245.471 367.959 244.92 368.22C244.379 368.472 243.782 368.598 243.128 368.598C242.344 368.598 241.644 368.435 241.028 368.108C240.422 367.781 239.946 367.315 239.6 366.708C239.264 366.092 239.096 365.373 239.096 364.552C239.096 363.731 239.264 363.017 239.6 362.41C239.946 361.794 240.422 361.323 241.028 360.996C241.644 360.669 242.344 360.506 243.128 360.506C243.912 360.506 244.608 360.669 245.214 360.996C245.83 361.313 246.306 361.771 246.642 362.368C246.988 362.965 247.16 363.67 247.16 364.482ZM244.01 363.74C244.01 363.479 243.926 363.283 243.758 363.152C243.59 363.012 243.38 362.942 243.128 362.942C242.578 362.942 242.256 363.208 242.162 363.74H244.01ZM256.878 367.002H253.574L253.084 368.5H249.822L253.448 358.588H257.032L260.644 368.5H257.368L256.878 367.002ZM256.122 364.664L255.226 361.906L254.33 364.664H256.122ZM260.93 364.552C260.93 363.731 261.098 363.017 261.434 362.41C261.78 361.794 262.256 361.323 262.862 360.996C263.478 360.669 264.178 360.506 264.962 360.506C265.989 360.506 266.852 360.795 267.552 361.374C268.262 361.953 268.71 362.755 268.896 363.782H265.606C265.485 363.371 265.247 363.166 264.892 363.166C264.64 363.166 264.44 363.283 264.29 363.516C264.15 363.749 264.08 364.095 264.08 364.552C264.08 365.009 264.15 365.355 264.29 365.588C264.44 365.821 264.64 365.938 264.892 365.938C265.247 365.938 265.485 365.733 265.606 365.322H268.896C268.71 366.349 268.262 367.151 267.552 367.73C266.852 368.309 265.989 368.598 264.962 368.598C264.178 368.598 263.478 368.435 262.862 368.108C262.256 367.781 261.78 367.315 261.434 366.708C261.098 366.092 260.93 365.373 260.93 364.552ZM269.462 364.552C269.462 363.731 269.63 363.017 269.966 362.41C270.311 361.794 270.787 361.323 271.394 360.996C272.01 360.669 272.71 360.506 273.494 360.506C274.52 360.506 275.384 360.795 276.084 361.374C276.793 361.953 277.241 362.755 277.428 363.782H274.138C274.016 363.371 273.778 363.166 273.424 363.166C273.172 363.166 272.971 363.283 272.822 363.516C272.682 363.749 272.612 364.095 272.612 364.552C272.612 365.009 272.682 365.355 272.822 365.588C272.971 365.821 273.172 365.938 273.424 365.938C273.778 365.938 274.016 365.733 274.138 365.322H277.428C277.241 366.349 276.793 367.151 276.084 367.73C275.384 368.309 274.52 368.598 273.494 368.598C272.71 368.598 272.01 368.435 271.394 368.108C270.787 367.781 270.311 367.315 269.966 366.708C269.63 366.092 269.462 365.373 269.462 364.552ZM282.165 368.598C281.372 368.598 280.658 368.435 280.023 368.108C279.388 367.781 278.889 367.315 278.525 366.708C278.17 366.092 277.993 365.373 277.993 364.552C277.993 363.731 278.17 363.017 278.525 362.41C278.889 361.794 279.388 361.323 280.023 360.996C280.658 360.669 281.372 360.506 282.165 360.506C282.958 360.506 283.672 360.669 284.307 360.996C284.942 361.323 285.436 361.794 285.791 362.41C286.155 363.017 286.337 363.731 286.337 364.552C286.337 365.373 286.155 366.092 285.791 366.708C285.436 367.315 284.942 367.781 284.307 368.108C283.672 368.435 282.958 368.598 282.165 368.598ZM282.165 365.91C282.454 365.91 282.697 365.798 282.893 365.574C283.089 365.341 283.187 365 283.187 364.552C283.187 364.104 283.089 363.768 282.893 363.544C282.697 363.311 282.454 363.194 282.165 363.194C281.876 363.194 281.633 363.311 281.437 363.544C281.241 363.768 281.143 364.104 281.143 364.552C281.143 365 281.236 365.341 281.423 365.574C281.619 365.798 281.866 365.91 282.165 365.91ZM295.671 360.604V368.5H292.563V367.296C292.321 367.669 291.994 367.973 291.583 368.206C291.182 368.439 290.701 368.556 290.141 368.556C289.236 368.556 288.527 368.253 288.013 367.646C287.509 367.039 287.257 366.218 287.257 365.182V360.604H290.351V364.79C290.351 365.163 290.449 365.462 290.645 365.686C290.851 365.901 291.121 366.008 291.457 366.008C291.803 366.008 292.073 365.901 292.269 365.686C292.465 365.462 292.563 365.163 292.563 364.79V360.604H295.671ZM302.605 360.548C303.51 360.548 304.215 360.851 304.719 361.458C305.232 362.065 305.489 362.886 305.489 363.922V368.5H302.395V364.314C302.395 363.941 302.292 363.647 302.087 363.432C301.891 363.208 301.625 363.096 301.289 363.096C300.944 363.096 300.673 363.208 300.477 363.432C300.281 363.647 300.183 363.941 300.183 364.314V368.5H297.075V360.604H300.183V361.808C300.426 361.435 300.748 361.131 301.149 360.898C301.56 360.665 302.045 360.548 302.605 360.548ZM311.751 365.854V368.5H310.575C308.409 368.5 307.327 367.422 307.327 365.266V363.194H306.347V360.604H307.327V358.7H310.435V360.604H311.723V363.194H310.435V365.322C310.435 365.509 310.477 365.644 310.561 365.728C310.654 365.812 310.803 365.854 311.009 365.854H311.751Z" fill="#EEEEEE"/>
<rect x="130.5" y="120.5" width="249" height="41" rx="7.5" fill="#202020"/>
<path d="M150.467 138.566V139.784H153.547V142.122H150.467V143.522H153.967V146H147.359V136.088H153.967V138.566H150.467ZM165.96 138.048C166.968 138.048 167.748 138.351 168.298 138.958C168.858 139.565 169.138 140.386 169.138 141.422V146H166.044V141.814C166.044 141.478 165.942 141.217 165.736 141.03C165.54 140.834 165.274 140.736 164.938 140.736C164.593 140.736 164.322 140.834 164.126 141.03C163.93 141.217 163.832 141.478 163.832 141.814V146H160.738V141.814C160.738 141.478 160.636 141.217 160.43 141.03C160.234 140.834 159.968 140.736 159.632 140.736C159.287 140.736 159.016 140.834 158.82 141.03C158.624 141.217 158.526 141.478 158.526 141.814V146H155.418V138.104H158.526V139.168C158.75 138.832 159.054 138.561 159.436 138.356C159.828 138.151 160.286 138.048 160.808 138.048C161.378 138.048 161.882 138.174 162.32 138.426C162.759 138.669 163.109 139.014 163.37 139.462C163.66 139.051 164.028 138.715 164.476 138.454C164.924 138.183 165.419 138.048 165.96 138.048ZM170.345 142.052C170.345 141.221 170.485 140.503 170.765 139.896C171.054 139.28 171.446 138.813 171.941 138.496C172.435 138.169 172.991 138.006 173.607 138.006C174.12 138.006 174.563 138.113 174.937 138.328C175.31 138.533 175.595 138.818 175.791 139.182V138.104H178.885V146H175.791V144.922C175.595 145.286 175.31 145.575 174.937 145.79C174.563 145.995 174.12 146.098 173.607 146.098C172.991 146.098 172.435 145.939 171.941 145.622C171.446 145.295 171.054 144.829 170.765 144.222C170.485 143.606 170.345 142.883 170.345 142.052ZM175.791 142.052C175.791 141.632 175.683 141.305 175.469 141.072C175.254 140.839 174.979 140.722 174.643 140.722C174.307 140.722 174.031 140.839 173.817 141.072C173.602 141.305 173.495 141.632 173.495 142.052C173.495 142.472 173.602 142.799 173.817 143.032C174.031 143.265 174.307 143.382 174.643 143.382C174.979 143.382 175.254 143.265 175.469 143.032C175.683 142.799 175.791 142.472 175.791 142.052ZM182.128 137.474C181.587 137.474 181.153 137.329 180.826 137.04C180.5 136.751 180.336 136.387 180.336 135.948C180.336 135.5 180.5 135.131 180.826 134.842C181.153 134.543 181.587 134.394 182.128 134.394C182.66 134.394 183.09 134.543 183.416 134.842C183.743 135.131 183.906 135.5 183.906 135.948C183.906 136.387 183.743 136.751 183.416 137.04C183.09 137.329 182.66 137.474 182.128 137.474ZM183.668 138.104V146H180.56V138.104H183.668ZM188.46 135.64V146H185.352V135.64H188.46Z" fill="#909090"/>
<path d="M362.889 144.778H358.444C357.111 144.778 356.222 144.111 356.222 142.556V139.444C356.222 137.889 357.111 137.222 358.444 137.222H362.889C364.222 137.222 365.111 137.889 365.111 139.444V142.556C365.111 144.111 364.222 144.778 362.889 144.778Z" stroke="#909090" stroke-width="1.5" stroke-miterlimit="10" stroke-linecap="round" stroke-linejoin="round"/>
<path opacity="0.4" d="M362.889 139.667L361.498 140.778C361.04 141.142 360.289 141.142 359.831 140.778L358.444 139.667" stroke="#909090" stroke-width="1.5" stroke-miterlimit="10" stroke-linecap="round" stroke-linejoin="round"/>
<rect x="130.5" y="120.5" width="249" height="41" rx="7.5" stroke="#909090"/>
<rect x="130.5" y="171.5" width="249" height="41" rx="7.5" fill="#202020"/>
<path d="M147.738 187.088V192.674C147.738 193.131 147.836 193.495 148.032 193.766C148.237 194.027 148.564 194.158 149.012 194.158C149.46 194.158 149.791 194.027 150.006 193.766C150.221 193.495 150.328 193.131 150.328 192.674V187.088H153.422V192.674C153.422 193.617 153.226 194.424 152.834 195.096C152.442 195.759 151.905 196.258 151.224 196.594C150.543 196.93 149.782 197.098 148.942 197.098C148.102 197.098 147.355 196.93 146.702 196.594C146.058 196.258 145.554 195.759 145.19 195.096C144.826 194.433 144.644 193.626 144.644 192.674V187.088H147.738ZM158.557 197.098C157.81 197.098 157.147 196.977 156.568 196.734C155.999 196.491 155.546 196.155 155.21 195.726C154.874 195.297 154.683 194.811 154.636 194.27H157.618C157.656 194.503 157.754 194.676 157.913 194.788C158.08 194.9 158.29 194.956 158.542 194.956C158.701 194.956 158.827 194.923 158.921 194.858C159.014 194.783 159.06 194.695 159.06 194.592C159.06 194.415 158.962 194.289 158.766 194.214C158.57 194.139 158.239 194.055 157.772 193.962C157.203 193.85 156.732 193.729 156.358 193.598C155.994 193.467 155.672 193.243 155.392 192.926C155.122 192.609 154.986 192.17 154.986 191.61C154.986 191.125 155.112 190.686 155.364 190.294C155.626 189.893 156.008 189.58 156.512 189.356C157.016 189.123 157.628 189.006 158.346 189.006C159.41 189.006 160.241 189.267 160.838 189.79C161.445 190.313 161.809 190.994 161.931 191.834H159.173C159.126 191.619 159.028 191.456 158.878 191.344C158.729 191.223 158.529 191.162 158.276 191.162C158.118 191.162 157.996 191.195 157.913 191.26C157.828 191.316 157.786 191.405 157.786 191.526C157.786 191.685 157.884 191.806 158.081 191.89C158.276 191.965 158.589 192.044 159.019 192.128C159.588 192.24 160.068 192.366 160.46 192.506C160.853 192.646 161.193 192.889 161.483 193.234C161.772 193.57 161.916 194.037 161.916 194.634C161.916 195.101 161.781 195.521 161.511 195.894C161.24 196.267 160.848 196.561 160.335 196.776C159.831 196.991 159.238 197.098 158.557 197.098ZM171.074 192.982C171.074 193.197 171.06 193.402 171.032 193.598H166.034C166.081 194.279 166.365 194.62 166.888 194.62C167.224 194.62 167.467 194.466 167.616 194.158H170.906C170.794 194.718 170.556 195.222 170.192 195.67C169.837 196.109 169.385 196.459 168.834 196.72C168.293 196.972 167.695 197.098 167.042 197.098C166.258 197.098 165.558 196.935 164.942 196.608C164.335 196.281 163.859 195.815 163.514 195.208C163.178 194.592 163.01 193.873 163.01 193.052C163.01 192.231 163.178 191.517 163.514 190.91C163.859 190.294 164.335 189.823 164.942 189.496C165.558 189.169 166.258 189.006 167.042 189.006C167.826 189.006 168.521 189.169 169.128 189.496C169.744 189.813 170.22 190.271 170.556 190.868C170.901 191.465 171.074 192.17 171.074 192.982ZM167.924 192.24C167.924 191.979 167.84 191.783 167.672 191.652C167.504 191.512 167.294 191.442 167.042 191.442C166.491 191.442 166.169 191.708 166.076 192.24H167.924ZM175.445 190.56C175.762 190.103 176.15 189.739 176.607 189.468C177.064 189.188 177.54 189.048 178.035 189.048V192.366H177.153C176.565 192.366 176.131 192.469 175.851 192.674C175.58 192.879 175.445 193.243 175.445 193.766V197H172.337V189.104H175.445V190.56ZM184.682 189.048C185.587 189.048 186.292 189.351 186.796 189.958C187.309 190.565 187.566 191.386 187.566 192.422V197H184.472V192.814C184.472 192.441 184.369 192.147 184.164 191.932C183.968 191.708 183.702 191.596 183.366 191.596C183.021 191.596 182.75 191.708 182.554 191.932C182.358 192.147 182.26 192.441 182.26 192.814V197H179.152V189.104H182.26V190.308C182.503 189.935 182.825 189.631 183.226 189.398C183.637 189.165 184.122 189.048 184.682 189.048ZM188.774 193.052C188.774 192.221 188.914 191.503 189.194 190.896C189.483 190.28 189.875 189.813 190.37 189.496C190.864 189.169 191.42 189.006 192.036 189.006C192.549 189.006 192.992 189.113 193.366 189.328C193.739 189.533 194.024 189.818 194.22 190.182V189.104H197.314V197H194.22V195.922C194.024 196.286 193.739 196.575 193.366 196.79C192.992 196.995 192.549 197.098 192.036 197.098C191.42 197.098 190.864 196.939 190.37 196.622C189.875 196.295 189.483 195.829 189.194 195.222C188.914 194.606 188.774 193.883 188.774 193.052ZM194.22 193.052C194.22 192.632 194.112 192.305 193.898 192.072C193.683 191.839 193.408 191.722 193.072 191.722C192.736 191.722 192.46 191.839 192.246 192.072C192.031 192.305 191.924 192.632 191.924 193.052C191.924 193.472 192.031 193.799 192.246 194.032C192.46 194.265 192.736 194.382 193.072 194.382C193.408 194.382 193.683 194.265 193.898 194.032C194.112 193.799 194.22 193.472 194.22 193.052ZM209.531 189.048C210.539 189.048 211.319 189.351 211.869 189.958C212.429 190.565 212.709 191.386 212.709 192.422V197H209.615V192.814C209.615 192.478 209.513 192.217 209.307 192.03C209.111 191.834 208.845 191.736 208.509 191.736C208.164 191.736 207.893 191.834 207.697 192.03C207.501 192.217 207.403 192.478 207.403 192.814V197H204.309V192.814C204.309 192.478 204.207 192.217 204.001 192.03C203.805 191.834 203.539 191.736 203.203 191.736C202.858 191.736 202.587 191.834 202.391 192.03C202.195 192.217 202.097 192.478 202.097 192.814V197H198.989V189.104H202.097V190.168C202.321 189.832 202.625 189.561 203.007 189.356C203.399 189.151 203.857 189.048 204.379 189.048C204.949 189.048 205.453 189.174 205.891 189.426C206.33 189.669 206.68 190.014 206.941 190.462C207.231 190.051 207.599 189.715 208.047 189.454C208.495 189.183 208.99 189.048 209.531 189.048ZM221.98 192.982C221.98 193.197 221.966 193.402 221.938 193.598H216.94C216.986 194.279 217.271 194.62 217.794 194.62C218.13 194.62 218.372 194.466 218.522 194.158H221.812C221.7 194.718 221.462 195.222 221.098 195.67C220.743 196.109 220.29 196.459 219.74 196.72C219.198 196.972 218.601 197.098 217.948 197.098C217.164 197.098 216.464 196.935 215.848 196.608C215.241 196.281 214.765 195.815 214.42 195.208C214.084 194.592 213.916 193.873 213.916 193.052C213.916 192.231 214.084 191.517 214.42 190.91C214.765 190.294 215.241 189.823 215.848 189.496C216.464 189.169 217.164 189.006 217.948 189.006C218.732 189.006 219.427 189.169 220.034 189.496C220.65 189.813 221.126 190.271 221.462 190.868C221.807 191.465 221.98 192.17 221.98 192.982ZM218.83 192.24C218.83 191.979 218.746 191.783 218.578 191.652C218.41 191.512 218.2 191.442 217.948 191.442C217.397 191.442 217.075 191.708 216.982 192.24H218.83Z" fill="#909090"/>
<path d="M360.667 192C361.894 192 362.889 191.005 362.889 189.778C362.889 188.55 361.894 187.556 360.667 187.556C359.439 187.556 358.444 188.55 358.444 189.778C358.444 191.005 359.439 192 360.667 192Z" stroke="#909090" stroke-linecap="round" stroke-linejoin="round"/>
<path opacity="0.4" d="M364.484 196.444C364.484 194.724 362.773 193.333 360.667 193.333C358.56 193.333 356.849 194.724 356.849 196.444" stroke="#909090" stroke-linecap="round" stroke-linejoin="round"/>
<rect x="130.5" y="171.5" width="249" height="41" rx="7.5" stroke="#909090"/>
<path d="M139.552 78.384C139.552 79.0347 139.403 79.632 139.104 80.176C138.805 80.7093 138.347 81.1413 137.728 81.472C137.109 81.8027 136.341 81.968 135.424 81.968H133.728V86H130.992V74.768H135.424C136.32 74.768 137.077 74.9227 137.696 75.232C138.315 75.5413 138.779 75.968 139.088 76.512C139.397 77.056 139.552 77.68 139.552 78.384ZM135.216 79.792C135.739 79.792 136.128 79.6693 136.384 79.424C136.64 79.1787 136.768 78.832 136.768 78.384C136.768 77.936 136.64 77.5893 136.384 77.344C136.128 77.0987 135.739 76.976 135.216 76.976H133.728V79.792H135.216ZM143.712 74.16V86H140.976V74.16H143.712ZM154.111 81.392C154.111 81.648 154.095 81.9147 154.063 82.192H147.871C147.914 82.7467 148.09 83.1733 148.399 83.472C148.719 83.76 149.108 83.904 149.567 83.904C150.25 83.904 150.724 83.616 150.991 83.04H153.903C153.754 83.6267 153.482 84.1547 153.087 84.624C152.703 85.0933 152.218 85.4613 151.631 85.728C151.044 85.9947 150.388 86.128 149.663 86.128C148.788 86.128 148.01 85.9413 147.327 85.568C146.644 85.1947 146.111 84.6613 145.727 83.968C145.343 83.2747 145.151 82.464 145.151 81.536C145.151 80.608 145.338 79.7973 145.711 79.104C146.095 78.4107 146.628 77.8773 147.311 77.504C147.994 77.1307 148.778 76.944 149.663 76.944C150.527 76.944 151.295 77.1253 151.967 77.488C152.639 77.8507 153.162 78.368 153.535 79.04C153.919 79.712 154.111 80.496 154.111 81.392ZM151.311 80.672C151.311 80.2027 151.151 79.8293 150.831 79.552C150.511 79.2747 150.111 79.136 149.631 79.136C149.172 79.136 148.783 79.2693 148.463 79.536C148.154 79.8027 147.962 80.1813 147.887 80.672H151.311ZM155.011 81.52C155.011 80.6027 155.181 79.7973 155.523 79.104C155.875 78.4107 156.349 77.8773 156.947 77.504C157.544 77.1307 158.211 76.944 158.947 76.944C159.576 76.944 160.125 77.072 160.595 77.328C161.075 77.584 161.443 77.92 161.699 78.336V77.072H164.435V86H161.699V84.736C161.432 85.152 161.059 85.488 160.579 85.744C160.109 86 159.56 86.128 158.931 86.128C158.205 86.128 157.544 85.9413 156.947 85.568C156.349 85.184 155.875 84.6453 155.523 83.952C155.181 83.248 155.011 82.4373 155.011 81.52ZM161.699 81.536C161.699 80.8533 161.507 80.3147 161.123 79.92C160.749 79.5253 160.291 79.328 159.747 79.328C159.203 79.328 158.739 79.5253 158.355 79.92C157.981 80.304 157.795 80.8373 157.795 81.52C157.795 82.2027 157.981 82.7467 158.355 83.152C158.739 83.5467 159.203 83.744 159.747 83.744C160.291 83.744 160.749 83.5467 161.123 83.152C161.507 82.7573 161.699 82.2187 161.699 81.536ZM170.046 86.128C169.267 86.128 168.574 85.9947 167.966 85.728C167.358 85.4613 166.878 85.0987 166.526 84.64C166.174 84.1707 165.977 83.648 165.934 83.072H168.638C168.67 83.3813 168.814 83.632 169.07 83.824C169.326 84.016 169.641 84.112 170.014 84.112C170.355 84.112 170.617 84.048 170.798 83.92C170.99 83.7813 171.086 83.6053 171.086 83.392C171.086 83.136 170.953 82.9493 170.686 82.832C170.419 82.704 169.987 82.5653 169.39 82.416C168.75 82.2667 168.217 82.112 167.79 81.952C167.363 81.7813 166.995 81.52 166.686 81.168C166.377 80.8053 166.222 80.32 166.222 79.712C166.222 79.2 166.361 78.736 166.638 78.32C166.926 77.8933 167.342 77.5573 167.886 77.312C168.441 77.0667 169.097 76.944 169.854 76.944C170.974 76.944 171.854 77.2213 172.494 77.776C173.145 78.3307 173.518 79.0667 173.614 79.984H171.086C171.043 79.6747 170.905 79.4293 170.67 79.248C170.446 79.0667 170.147 78.976 169.774 78.976C169.454 78.976 169.209 79.04 169.038 79.168C168.867 79.2853 168.782 79.4507 168.782 79.664C168.782 79.92 168.915 80.112 169.182 80.24C169.459 80.368 169.886 80.496 170.462 80.624C171.123 80.7947 171.662 80.9653 172.078 81.136C172.494 81.296 172.857 81.5627 173.166 81.936C173.486 82.2987 173.651 82.7893 173.662 83.408C173.662 83.9307 173.513 84.4 173.214 84.816C172.926 85.2213 172.505 85.5413 171.95 85.776C171.406 86.0107 170.771 86.128 170.046 86.128ZM183.752 81.392C183.752 81.648 183.736 81.9147 183.704 82.192H177.512C177.554 82.7467 177.73 83.1733 178.04 83.472C178.36 83.76 178.749 83.904 179.208 83.904C179.89 83.904 180.365 83.616 180.632 83.04H183.544C183.394 83.6267 183.122 84.1547 182.728 84.624C182.344 85.0933 181.858 85.4613 181.272 85.728C180.685 85.9947 180.029 86.128 179.304 86.128C178.429 86.128 177.65 85.9413 176.968 85.568C176.285 85.1947 175.752 84.6613 175.368 83.968C174.984 83.2747 174.792 82.464 174.792 81.536C174.792 80.608 174.978 79.7973 175.352 79.104C175.736 78.4107 176.269 77.8773 176.952 77.504C177.634 77.1307 178.418 76.944 179.304 76.944C180.168 76.944 180.936 77.1253 181.608 77.488C182.28 77.8507 182.802 78.368 183.176 79.04C183.56 79.712 183.752 80.496 183.752 81.392ZM180.952 80.672C180.952 80.2027 180.792 79.8293 180.472 79.552C180.152 79.2747 179.752 79.136 179.272 79.136C178.813 79.136 178.424 79.2693 178.104 79.536C177.794 79.8027 177.602 80.1813 177.528 80.672H180.952ZM197.002 81.392C197.002 81.648 196.986 81.9147 196.954 82.192H190.762C190.804 82.7467 190.98 83.1733 191.29 83.472C191.61 83.76 191.999 83.904 192.458 83.904C193.14 83.904 193.615 83.616 193.882 83.04H196.794C196.644 83.6267 196.372 84.1547 195.978 84.624C195.594 85.0933 195.108 85.4613 194.522 85.728C193.935 85.9947 193.279 86.128 192.554 86.128C191.679 86.128 190.9 85.9413 190.218 85.568C189.535 85.1947 189.002 84.6613 188.618 83.968C188.234 83.2747 188.042 82.464 188.042 81.536C188.042 80.608 188.228 79.7973 188.602 79.104C188.986 78.4107 189.519 77.8773 190.202 77.504C190.884 77.1307 191.668 76.944 192.554 76.944C193.418 76.944 194.186 77.1253 194.858 77.488C195.53 77.8507 196.052 78.368 196.426 79.04C196.81 79.712 197.002 80.496 197.002 81.392ZM194.202 80.672C194.202 80.2027 194.042 79.8293 193.722 79.552C193.402 79.2747 193.002 79.136 192.522 79.136C192.063 79.136 191.674 79.2693 191.354 79.536C191.044 79.8027 190.852 80.1813 190.778 80.672H194.202ZM203.885 76.976C204.93 76.976 205.762 77.3173 206.381 78C207.01 78.672 207.325 79.6 207.325 80.784V86H204.605V81.152C204.605 80.5547 204.45 80.0907 204.141 79.76C203.832 79.4293 203.416 79.264 202.893 79.264C202.37 79.264 201.954 79.4293 201.645 79.76C201.336 80.0907 201.181 80.5547 201.181 81.152V86H198.445V77.072H201.181V78.256C201.458 77.8613 201.832 77.552 202.301 77.328C202.77 77.0933 203.298 76.976 203.885 76.976ZM214.202 83.68V86H212.81C211.818 86 211.045 85.76 210.49 85.28C209.936 84.7893 209.658 83.9947 209.658 82.896V79.344H208.57V77.072H209.658V74.896H212.394V77.072H214.186V79.344H212.394V82.928C212.394 83.1947 212.458 83.3867 212.586 83.504C212.714 83.6213 212.928 83.68 213.226 83.68H214.202ZM224.142 81.392C224.142 81.648 224.126 81.9147 224.094 82.192H217.902C217.945 82.7467 218.121 83.1733 218.43 83.472C218.75 83.76 219.14 83.904 219.598 83.904C220.281 83.904 220.756 83.616 221.022 83.04H223.934C223.785 83.6267 223.513 84.1547 223.118 84.624C222.734 85.0933 222.249 85.4613 221.662 85.728C221.076 85.9947 220.42 86.128 219.694 86.128C218.82 86.128 218.041 85.9413 217.358 85.568C216.676 85.1947 216.142 84.6613 215.758 83.968C215.374 83.2747 215.182 82.464 215.182 81.536C215.182 80.608 215.369 79.7973 215.742 79.104C216.126 78.4107 216.66 77.8773 217.342 77.504C218.025 77.1307 218.809 76.944 219.694 76.944C220.558 76.944 221.326 77.1253 221.998 77.488C222.67 77.8507 223.193 78.368 223.566 79.04C223.95 79.712 224.142 80.496 224.142 81.392ZM221.342 80.672C221.342 80.2027 221.182 79.8293 220.862 79.552C220.542 79.2747 220.142 79.136 219.662 79.136C219.204 79.136 218.814 79.2693 218.494 79.536C218.185 79.8027 217.993 80.1813 217.918 80.672H221.342ZM228.322 78.56C228.642 78.0693 229.042 77.6853 229.522 77.408C230.002 77.12 230.535 76.976 231.122 76.976V79.872H230.37C229.687 79.872 229.175 80.0213 228.834 80.32C228.492 80.608 228.322 81.12 228.322 81.856V86H225.586V77.072H228.322V78.56ZM244.94 77.072L239.34 90.24H236.396L238.444 85.696L234.812 77.072H237.868L239.932 82.656L241.98 77.072H244.94ZM249.994 86.128C249.119 86.128 248.33 85.9413 247.626 85.568C246.932 85.1947 246.383 84.6613 245.978 83.968C245.583 83.2747 245.386 82.464 245.386 81.536C245.386 80.6187 245.588 79.8133 245.993 79.12C246.399 78.416 246.954 77.8773 247.658 77.504C248.362 77.1307 249.151 76.944 250.026 76.944C250.9 76.944 251.69 77.1307 252.394 77.504C253.098 77.8773 253.652 78.416 254.058 79.12C254.463 79.8133 254.666 80.6187 254.666 81.536C254.666 82.4533 254.458 83.264 254.042 83.968C253.636 84.6613 253.076 85.1947 252.362 85.568C251.658 85.9413 250.868 86.128 249.994 86.128ZM249.994 83.76C250.516 83.76 250.959 83.568 251.322 83.184C251.695 82.8 251.882 82.2507 251.882 81.536C251.882 80.8213 251.7 80.272 251.338 79.888C250.986 79.504 250.548 79.312 250.026 79.312C249.492 79.312 249.05 79.504 248.698 79.888C248.346 80.2613 248.17 80.8107 248.17 81.536C248.17 82.2507 248.34 82.8 248.682 83.184C249.034 83.568 249.471 83.76 249.994 83.76ZM264.933 77.072V86H262.197V84.784C261.92 85.1787 261.541 85.4987 261.061 85.744C260.592 85.9787 260.069 86.096 259.493 86.096C258.81 86.096 258.208 85.9467 257.685 85.648C257.162 85.3387 256.757 84.896 256.469 84.32C256.181 83.744 256.037 83.0667 256.037 82.288V77.072H258.757V81.92C258.757 82.5173 258.912 82.9813 259.221 83.312C259.53 83.6427 259.946 83.808 260.469 83.808C261.002 83.808 261.424 83.6427 261.733 83.312C262.042 82.9813 262.197 82.5173 262.197 81.92V77.072H264.933ZM269.634 78.56C269.954 78.0693 270.354 77.6853 270.834 77.408C271.314 77.12 271.848 76.976 272.434 76.976V79.872H271.682C271 79.872 270.488 80.0213 270.146 80.32C269.805 80.608 269.634 81.12 269.634 81.856V86H266.898V77.072H269.634V78.56ZM276.589 81.52C276.589 80.6027 276.759 79.7973 277.101 79.104C277.453 78.4107 277.927 77.8773 278.525 77.504C279.122 77.1307 279.789 76.944 280.525 76.944C281.111 76.944 281.645 77.0667 282.125 77.312C282.615 77.5573 282.999 77.888 283.277 78.304V74.16H286.013V86H283.277V84.72C283.021 85.1467 282.653 85.488 282.173 85.744C281.703 86 281.154 86.128 280.525 86.128C279.789 86.128 279.122 85.9413 278.525 85.568C277.927 85.184 277.453 84.6453 277.101 83.952C276.759 83.248 276.589 82.4373 276.589 81.52ZM283.277 81.536C283.277 80.8533 283.085 80.3147 282.701 79.92C282.327 79.5253 281.869 79.328 281.325 79.328C280.781 79.328 280.317 79.5253 279.933 79.92C279.559 80.304 279.373 80.8373 279.373 81.52C279.373 82.2027 279.559 82.7467 279.933 83.152C280.317 83.5467 280.781 83.744 281.325 83.744C281.869 83.744 282.327 83.5467 282.701 83.152C283.085 82.7573 283.277 82.2187 283.277 81.536ZM296.408 81.392C296.408 81.648 296.392 81.9147 296.36 82.192H290.168C290.211 82.7467 290.387 83.1733 290.696 83.472C291.016 83.76 291.405 83.904 291.864 83.904C292.547 83.904 293.021 83.616 293.288 83.04H296.2C296.051 83.6267 295.779 84.1547 295.384 84.624C295 85.0933 294.515 85.4613 293.928 85.728C293.341 85.9947 292.685 86.128 291.96 86.128C291.085 86.128 290.307 85.9413 289.624 85.568C288.941 85.1947 288.408 84.6613 288.024 83.968C287.64 83.2747 287.448 82.464 287.448 81.536C287.448 80.608 287.635 79.7973 288.008 79.104C288.392 78.4107 288.925 77.8773 289.608 77.504C290.291 77.1307 291.075 76.944 291.96 76.944C292.824 76.944 293.592 77.1253 294.264 77.488C294.936 77.8507 295.459 78.368 295.832 79.04C296.216 79.712 296.408 80.496 296.408 81.392ZM293.608 80.672C293.608 80.2027 293.448 79.8293 293.128 79.552C292.808 79.2747 292.408 79.136 291.928 79.136C291.469 79.136 291.08 79.2693 290.76 79.536C290.451 79.8027 290.259 80.1813 290.184 80.672H293.608ZM302.827 83.68V86H301.435C300.443 86 299.67 85.76 299.115 85.28C298.561 84.7893 298.283 83.9947 298.283 82.896V79.344H297.195V77.072H298.283V74.896H301.019V77.072H302.811V79.344H301.019V82.928C301.019 83.1947 301.083 83.3867 301.211 83.504C301.339 83.6213 301.553 83.68 301.851 83.68H302.827ZM303.807 81.52C303.807 80.6027 303.978 79.7973 304.319 79.104C304.671 78.4107 305.146 77.8773 305.743 77.504C306.341 77.1307 307.007 76.944 307.743 76.944C308.373 76.944 308.922 77.072 309.391 77.328C309.871 77.584 310.239 77.92 310.495 78.336V77.072H313.231V86H310.495V84.736C310.229 85.152 309.855 85.488 309.375 85.744C308.906 86 308.357 86.128 307.727 86.128C307.002 86.128 306.341 85.9413 305.743 85.568C305.146 85.184 304.671 84.6453 304.319 83.952C303.978 83.248 303.807 82.4373 303.807 81.52ZM310.495 81.536C310.495 80.8533 310.303 80.3147 309.919 79.92C309.546 79.5253 309.087 79.328 308.543 79.328C307.999 79.328 307.535 79.5253 307.151 79.92C306.778 80.304 306.591 80.8373 306.591 81.52C306.591 82.2027 306.778 82.7467 307.151 83.152C307.535 83.5467 307.999 83.744 308.543 83.744C309.087 83.744 309.546 83.5467 309.919 83.152C310.303 82.7573 310.495 82.2187 310.495 81.536ZM316.587 76.144C316.107 76.144 315.712 76.0053 315.403 75.728C315.104 75.44 314.955 75.088 314.955 74.672C314.955 74.2453 315.104 73.8933 315.403 73.616C315.712 73.328 316.107 73.184 316.587 73.184C317.056 73.184 317.44 73.328 317.739 73.616C318.048 73.8933 318.203 74.2453 318.203 74.672C318.203 75.088 318.048 75.44 317.739 75.728C317.44 76.0053 317.056 76.144 316.587 76.144ZM317.947 77.072V86H315.211V77.072H317.947ZM322.666 74.16V86H319.93V74.16H322.666ZM328.28 86.128C327.502 86.128 326.808 85.9947 326.2 85.728C325.592 85.4613 325.112 85.0987 324.76 84.64C324.408 84.1707 324.211 83.648 324.168 83.072H326.872C326.904 83.3813 327.048 83.632 327.304 83.824C327.56 84.016 327.875 84.112 328.248 84.112C328.59 84.112 328.851 84.048 329.032 83.92C329.224 83.7813 329.32 83.6053 329.32 83.392C329.32 83.136 329.187 82.9493 328.92 82.832C328.654 82.704 328.222 82.5653 327.624 82.416C326.984 82.2667 326.451 82.112 326.024 81.952C325.598 81.7813 325.23 81.52 324.92 81.168C324.611 80.8053 324.456 80.32 324.456 79.712C324.456 79.2 324.595 78.736 324.872 78.32C325.16 77.8933 325.576 77.5573 326.12 77.312C326.675 77.0667 327.331 76.944 328.088 76.944C329.208 76.944 330.088 77.2213 330.728 77.776C331.379 78.3307 331.752 79.0667 331.848 79.984H329.32C329.278 79.6747 329.139 79.4293 328.904 79.248C328.68 79.0667 328.382 78.976 328.008 78.976C327.688 78.976 327.443 79.04 327.272 79.168C327.102 79.2853 327.016 79.4507 327.016 79.664C327.016 79.92 327.15 80.112 327.416 80.24C327.694 80.368 328.12 80.496 328.696 80.624C329.358 80.7947 329.896 80.9653 330.312 81.136C330.728 81.296 331.091 81.5627 331.4 81.936C331.72 82.2987 331.886 82.7893 331.896 83.408C331.896 83.9307 331.747 84.4 331.448 84.816C331.16 85.2213 330.739 85.5413 330.184 85.776C329.64 86.0107 329.006 86.128 328.28 86.128ZM341.937 83.68V86H340.545C339.553 86 338.779 85.76 338.225 85.28C337.67 84.7893 337.393 83.9947 337.393 82.896V79.344H336.305V77.072H337.393V74.896H340.129V77.072H341.921V79.344H340.129V82.928C340.129 83.1947 340.193 83.3867 340.321 83.504C340.449 83.6213 340.662 83.68 340.961 83.68H341.937ZM347.525 86.128C346.65 86.128 345.861 85.9413 345.157 85.568C344.463 85.1947 343.914 84.6613 343.509 83.968C343.114 83.2747 342.917 82.464 342.917 81.536C342.917 80.6187 343.119 79.8133 343.525 79.12C343.93 78.416 344.485 77.8773 345.189 77.504C345.893 77.1307 346.682 76.944 347.557 76.944C348.431 76.944 349.221 77.1307 349.925 77.504C350.629 77.8773 351.183 78.416 351.589 79.12C351.994 79.8133 352.197 80.6187 352.197 81.536C352.197 82.4533 351.989 83.264 351.573 83.968C351.167 84.6613 350.607 85.1947 349.893 85.568C349.189 85.9413 348.399 86.128 347.525 86.128ZM347.525 83.76C348.047 83.76 348.49 83.568 348.853 83.184C349.226 82.8 349.413 82.2507 349.413 81.536C349.413 80.8213 349.231 80.272 348.869 79.888C348.517 79.504 348.079 79.312 347.557 79.312C347.023 79.312 346.581 79.504 346.229 79.888C345.877 80.2613 345.701 80.8107 345.701 81.536C345.701 82.2507 345.871 82.8 346.213 83.184C346.565 83.568 347.002 83.76 347.525 83.76ZM130.448 97.536C130.448 96.608 130.635 95.7973 131.008 95.104C131.392 94.4107 131.92 93.8773 132.592 93.504C133.275 93.1307 134.053 92.944 134.928 92.944C136.048 92.944 136.981 93.2373 137.728 93.824C138.485 94.4107 138.981 95.2373 139.216 96.304H136.304C136.059 95.6213 135.584 95.28 134.88 95.28C134.379 95.28 133.979 95.4773 133.68 95.872C133.381 96.256 133.232 96.8107 133.232 97.536C133.232 98.2613 133.381 98.8213 133.68 99.216C133.979 99.6 134.379 99.792 134.88 99.792C135.584 99.792 136.059 99.4507 136.304 98.768H139.216C138.981 99.8133 138.485 100.635 137.728 101.232C136.971 101.829 136.037 102.128 134.928 102.128C134.053 102.128 133.275 101.941 132.592 101.568C131.92 101.195 131.392 100.661 131.008 99.968C130.635 99.2747 130.448 98.464 130.448 97.536ZM143.416 94.56C143.736 94.0693 144.136 93.6853 144.616 93.408C145.096 93.12 145.629 92.976 146.216 92.976V95.872H145.464C144.781 95.872 144.269 96.0213 143.928 96.32C143.586 96.608 143.416 97.12 143.416 97.856V102H140.68V93.072H143.416V94.56ZM155.939 97.392C155.939 97.648 155.923 97.9147 155.891 98.192H149.699C149.742 98.7467 149.918 99.1733 150.227 99.472C150.547 99.76 150.937 99.904 151.395 99.904C152.078 99.904 152.553 99.616 152.819 99.04H155.731C155.582 99.6267 155.31 100.155 154.915 100.624C154.531 101.093 154.046 101.461 153.459 101.728C152.873 101.995 152.217 102.128 151.491 102.128C150.617 102.128 149.838 101.941 149.155 101.568C148.473 101.195 147.939 100.661 147.555 99.968C147.171 99.2747 146.979 98.464 146.979 97.536C146.979 96.608 147.166 95.7973 147.539 95.104C147.923 94.4107 148.457 93.8773 149.139 93.504C149.822 93.1307 150.606 92.944 151.491 92.944C152.355 92.944 153.123 93.1253 153.795 93.488C154.467 93.8507 154.99 94.368 155.363 95.04C155.747 95.712 155.939 96.496 155.939 97.392ZM153.139 96.672C153.139 96.2027 152.979 95.8293 152.659 95.552C152.339 95.2747 151.939 95.136 151.459 95.136C151.001 95.136 150.611 95.2693 150.291 95.536C149.982 95.8027 149.79 96.1813 149.715 96.672H153.139ZM156.839 97.52C156.839 96.6027 157.009 95.7973 157.351 95.104C157.703 94.4107 158.177 93.8773 158.775 93.504C159.372 93.1307 160.039 92.944 160.775 92.944C161.404 92.944 161.953 93.072 162.423 93.328C162.903 93.584 163.271 93.92 163.527 94.336V93.072H166.263V102H163.527V100.736C163.26 101.152 162.887 101.488 162.407 101.744C161.937 102 161.388 102.128 160.759 102.128C160.033 102.128 159.372 101.941 158.775 101.568C158.177 101.184 157.703 100.645 157.351 99.952C157.009 99.248 156.839 98.4373 156.839 97.52ZM163.527 97.536C163.527 96.8533 163.335 96.3147 162.951 95.92C162.577 95.5253 162.119 95.328 161.575 95.328C161.031 95.328 160.567 95.5253 160.183 95.92C159.809 96.304 159.623 96.8373 159.623 97.52C159.623 98.2027 159.809 98.7467 160.183 99.152C160.567 99.5467 161.031 99.744 161.575 99.744C162.119 99.744 162.577 99.5467 162.951 99.152C163.335 98.7573 163.527 98.2187 163.527 97.536ZM173.218 99.68V102H171.826C170.834 102 170.061 101.76 169.506 101.28C168.951 100.789 168.674 99.9947 168.674 98.896V95.344H167.586V93.072H168.674V90.896H171.41V93.072H173.202V95.344H171.41V98.928C171.41 99.1947 171.474 99.3867 171.602 99.504C171.73 99.6213 171.943 99.68 172.242 99.68H173.218ZM183.158 97.392C183.158 97.648 183.142 97.9147 183.11 98.192H176.918C176.961 98.7467 177.137 99.1733 177.446 99.472C177.766 99.76 178.155 99.904 178.614 99.904C179.297 99.904 179.771 99.616 180.038 99.04H182.95C182.801 99.6267 182.529 100.155 182.134 100.624C181.75 101.093 181.265 101.461 180.678 101.728C180.091 101.995 179.435 102.128 178.71 102.128C177.835 102.128 177.057 101.941 176.374 101.568C175.691 101.195 175.158 100.661 174.774 99.968C174.39 99.2747 174.198 98.464 174.198 97.536C174.198 96.608 174.385 95.7973 174.758 95.104C175.142 94.4107 175.675 93.8773 176.358 93.504C177.041 93.1307 177.825 92.944 178.71 92.944C179.574 92.944 180.342 93.1253 181.014 93.488C181.686 93.8507 182.209 94.368 182.582 95.04C182.966 95.712 183.158 96.496 183.158 97.392ZM180.358 96.672C180.358 96.2027 180.198 95.8293 179.878 95.552C179.558 95.2747 179.158 95.136 178.678 95.136C178.219 95.136 177.83 95.2693 177.51 95.536C177.201 95.8027 177.009 96.1813 176.934 96.672H180.358ZM187.448 97.52C187.448 96.6027 187.619 95.7973 187.96 95.104C188.312 94.4107 188.787 93.8773 189.384 93.504C189.981 93.1307 190.648 92.944 191.384 92.944C192.013 92.944 192.563 93.072 193.032 93.328C193.512 93.584 193.88 93.92 194.136 94.336V93.072H196.872V102H194.136V100.736C193.869 101.152 193.496 101.488 193.016 101.744C192.547 102 191.997 102.128 191.368 102.128C190.643 102.128 189.981 101.941 189.384 101.568C188.787 101.184 188.312 100.645 187.96 99.952C187.619 99.248 187.448 98.4373 187.448 97.52ZM194.136 97.536C194.136 96.8533 193.944 96.3147 193.56 95.92C193.187 95.5253 192.728 95.328 192.184 95.328C191.64 95.328 191.176 95.5253 190.792 95.92C190.419 96.304 190.232 96.8373 190.232 97.52C190.232 98.2027 190.419 98.7467 190.792 99.152C191.176 99.5467 191.64 99.744 192.184 99.744C192.728 99.744 193.187 99.5467 193.56 99.152C193.944 98.7573 194.136 98.2187 194.136 97.536ZM204.291 92.976C205.337 92.976 206.169 93.3173 206.787 94C207.417 94.672 207.731 95.6 207.731 96.784V102H205.011V97.152C205.011 96.5547 204.857 96.0907 204.547 95.76C204.238 95.4293 203.822 95.264 203.299 95.264C202.777 95.264 202.361 95.4293 202.051 95.76C201.742 96.0907 201.587 96.5547 201.587 97.152V102H198.851V93.072H201.587V94.256C201.865 93.8613 202.238 93.552 202.707 93.328C203.177 93.0933 203.705 92.976 204.291 92.976ZM212.479 97.52C212.479 96.6027 212.65 95.7973 212.991 95.104C213.343 94.4107 213.818 93.8773 214.415 93.504C215.013 93.1307 215.679 92.944 216.415 92.944C217.045 92.944 217.594 93.072 218.063 93.328C218.543 93.584 218.911 93.92 219.167 94.336V93.072H221.903V102H219.167V100.736C218.901 101.152 218.527 101.488 218.047 101.744C217.578 102 217.029 102.128 216.399 102.128C215.674 102.128 215.013 101.941 214.415 101.568C213.818 101.184 213.343 100.645 212.991 99.952C212.65 99.248 212.479 98.4373 212.479 97.52ZM219.167 97.536C219.167 96.8533 218.975 96.3147 218.591 95.92C218.218 95.5253 217.759 95.328 217.215 95.328C216.671 95.328 216.207 95.5253 215.823 95.92C215.45 96.304 215.263 96.8373 215.263 97.52C215.263 98.2027 215.45 98.7467 215.823 99.152C216.207 99.5467 216.671 99.744 217.215 99.744C217.759 99.744 218.218 99.5467 218.591 99.152C218.975 98.7573 219.167 98.2187 219.167 97.536ZM223.339 97.536C223.339 96.608 223.525 95.7973 223.899 95.104C224.283 94.4107 224.811 93.8773 225.483 93.504C226.165 93.1307 226.944 92.944 227.819 92.944C228.939 92.944 229.872 93.2373 230.619 93.824C231.376 94.4107 231.872 95.2373 232.107 96.304H229.195C228.949 95.6213 228.475 95.28 227.771 95.28C227.269 95.28 226.869 95.4773 226.571 95.872C226.272 96.256 226.123 96.8107 226.123 97.536C226.123 98.2613 226.272 98.8213 226.571 99.216C226.869 99.6 227.269 99.792 227.771 99.792C228.475 99.792 228.949 99.4507 229.195 98.768H232.107C231.872 99.8133 231.376 100.635 230.619 101.232C229.861 101.829 228.928 102.128 227.819 102.128C226.944 102.128 226.165 101.941 225.483 101.568C224.811 101.195 224.283 100.661 223.899 99.968C223.525 99.2747 223.339 98.464 223.339 97.536ZM233.026 97.536C233.026 96.608 233.213 95.7973 233.586 95.104C233.97 94.4107 234.498 93.8773 235.17 93.504C235.853 93.1307 236.631 92.944 237.506 92.944C238.626 92.944 239.559 93.2373 240.306 93.824C241.063 94.4107 241.559 95.2373 241.794 96.304H238.882C238.637 95.6213 238.162 95.28 237.458 95.28C236.957 95.28 236.557 95.4773 236.258 95.872C235.959 96.256 235.81 96.8107 235.81 97.536C235.81 98.2613 235.959 98.8213 236.258 99.216C236.557 99.6 236.957 99.792 237.458 99.792C238.162 99.792 238.637 99.4507 238.882 98.768H241.794C241.559 99.8133 241.063 100.635 240.306 101.232C239.549 101.829 238.615 102.128 237.506 102.128C236.631 102.128 235.853 101.941 235.17 101.568C234.498 101.195 233.97 100.661 233.586 99.968C233.213 99.2747 233.026 98.464 233.026 97.536ZM247.322 102.128C246.447 102.128 245.658 101.941 244.954 101.568C244.26 101.195 243.711 100.661 243.306 99.968C242.911 99.2747 242.714 98.464 242.714 97.536C242.714 96.6187 242.916 95.8133 243.322 95.12C243.727 94.416 244.282 93.8773 244.986 93.504C245.69 93.1307 246.479 92.944 247.354 92.944C248.228 92.944 249.018 93.1307 249.722 93.504C250.426 93.8773 250.98 94.416 251.386 95.12C251.791 95.8133 251.994 96.6187 251.994 97.536C251.994 98.4533 251.786 99.264 251.37 99.968C250.964 100.661 250.404 101.195 249.69 101.568C248.986 101.941 248.196 102.128 247.322 102.128ZM247.322 99.76C247.844 99.76 248.287 99.568 248.65 99.184C249.023 98.8 249.21 98.2507 249.21 97.536C249.21 96.8213 249.028 96.272 248.666 95.888C248.314 95.504 247.876 95.312 247.354 95.312C246.82 95.312 246.378 95.504 246.026 95.888C245.674 96.2613 245.498 96.8107 245.498 97.536C245.498 98.2507 245.668 98.8 246.01 99.184C246.362 99.568 246.799 99.76 247.322 99.76ZM262.261 93.072V102H259.525V100.784C259.248 101.179 258.869 101.499 258.389 101.744C257.92 101.979 257.397 102.096 256.821 102.096C256.138 102.096 255.536 101.947 255.013 101.648C254.49 101.339 254.085 100.896 253.797 100.32C253.509 99.744 253.365 99.0667 253.365 98.288V93.072H256.085V97.92C256.085 98.5173 256.24 98.9813 256.549 99.312C256.858 99.6427 257.274 99.808 257.797 99.808C258.33 99.808 258.752 99.6427 259.061 99.312C259.37 98.9813 259.525 98.5173 259.525 97.92V93.072H262.261ZM269.666 92.976C270.712 92.976 271.544 93.3173 272.162 94C272.792 94.672 273.106 95.6 273.106 96.784V102H270.386V97.152C270.386 96.5547 270.232 96.0907 269.922 95.76C269.613 95.4293 269.197 95.264 268.674 95.264C268.152 95.264 267.736 95.4293 267.426 95.76C267.117 96.0907 266.962 96.5547 266.962 97.152V102H264.226V93.072H266.962V94.256C267.24 93.8613 267.613 93.552 268.082 93.328C268.552 93.0933 269.08 92.976 269.666 92.976ZM279.984 99.68V102H278.592C277.6 102 276.826 101.76 276.272 101.28C275.717 100.789 275.44 99.9947 275.44 98.896V95.344H274.352V93.072H275.44V90.896H278.176V93.072H279.968V95.344H278.176V98.928C278.176 99.1947 278.24 99.3867 278.368 99.504C278.496 99.6213 278.709 99.68 279.008 99.68H279.984Z" fill="#939393"/>
</svg>
