<svg xmlns="http://www.w3.org/2000/svg" xmlns:xlink="http://www.w3.org/1999/xlink" xmlns:lucid="lucid" width="2256.81" height="651"><g transform="translate(-316.3776214110312 -206.78856817450014)" lucid:page-tab-id="vPHms2bTQKVA"><path d="M527.38 226.8h160v120h-160z" stroke="#333" stroke-width="2" fill="#fff"/><use xlink:href="#a" transform="matrix(1,0,0,1,527.3776214110312,226.78856817450014) translate(14.279999999999996 63.15)"/><path d="M1434.28 227.33h197.02v120h-197.02z" stroke="#333" stroke-width="2" fill="#fff"/><use xlink:href="#b" transform="matrix(1,0,0,1,1434.2832564736436,227.33297255108846) translate(43.529999999999994 63.15)"/><path d="M587.38 426.8h40v80h-40z" stroke="#333" stroke-width="2" fill="#fff"/><path d="M567.88 445h-239.5" stroke="#3a414a" stroke-width="2" fill="none"/><path d="M583.14 445l-14.26 4.63v-9.27z" stroke="#3a414a" stroke-width="2" fill="#3a414a"/><path d="M328.4 445h-1.02" stroke="#3a414a" stroke-width="2" fill="none"/><use xlink:href="#c" transform="matrix(1,0,0,1,331.65262141103125,414.7611576659758) translate(0 14.4)"/><path d="M1532.8 349.33v11.34m0 11.33v22.67m0 11.33v22.67m0 11.33v22.67m0 11.33v11.33" stroke="#3a414a" stroke-width="2" fill="none"/><path d="M1533.8 349.36h-2v-1.03h2z" stroke="#3a414a" stroke-width=".05" fill="#3a414a"/><path d="M1532.8 485.3v1.03" stroke="#3a414a" stroke-width="2" fill="none"/><path d="M947.38 226.8h240v120h-240z" stroke="#333" stroke-width="2" fill="#fff"/><use xlink:href="#d" transform="matrix(1,0,0,1,947.3776214110312,226.78856817450014) translate(47.805 63.15)"/><path d="M1067.38 348.8v16m0 16v32m0 16v16" stroke="#3a414a" stroke-width="2" fill="none"/><path d="M1068.38 348.8h-2v-1h2zM1068.38 445.8h-2v-1.04h2z" stroke="#3a414a" stroke-width=".05" fill="#3a414a"/><path d="M1047.38 446.8h40v280h-40z" stroke="#333" stroke-width="2" fill="#fff"/><path d="M629.38 462h415.18" stroke="#3a414a" stroke-width="2" fill="none"/><path d="M629.4 463h-1.02v-2h1.02z" stroke="#3a414a" stroke-width=".05" fill="#3a414a"/><path d="M1027.2 472.18l17.2-10.18-17.2-10.18" stroke="#3a414a" stroke-width="2" fill="none"/><use xlink:href="#e" transform="matrix(1,0,0,1,679.9026214110311,436.4007491475972) translate(0 14.4)"/><use xlink:href="#f" transform="matrix(1,0,0,1,679.9026214110311,436.4007491475972) translate(202.2 14.4)"/><path d="M607.38 348.8v12.65m0 12.67v25.32m0 12.67v12.67" stroke="#3a414a" stroke-width="2" fill="none"/><path d="M608.38 348.8h-2v-1h2z" stroke="#3a414a" stroke-width=".05" fill="#3a414a"/><path d="M607.38 424.76v1.03" stroke="#3a414a" stroke-width="2" fill="none"/><path d="M1514.28 487.33h40v200h-40z" stroke="#333" stroke-width="2" fill="#fff"/><path d="M1089.38 546.8h211.18a.27.27 0 0 1 .27.26.27.27 0 0 0 .27.27h193.68" stroke="#3a414a" stroke-width="2" fill="none"/><path d="M1089.4 547.8h-1.02v-2h1.02z" stroke="#3a414a" stroke-width=".05" fill="#3a414a"/><path d="M1510.05 547.33l-14.27 4.64v-9.27z" stroke="#3a414a" stroke-width="2" fill="#3a414a"/><use xlink:href="#g" transform="matrix(1,0,0,1,1140.6353944624095,521.188748787614) translate(0 14.4)"/><path d="M1808.2 227.33h160v120h-160z" stroke="#333" stroke-width="2" fill="#fff"/><use xlink:href="#h" transform="matrix(1,0,0,1,1808.2054501949278,227.33297255108846) translate(17.57999999999999 63.15)"/><path d="M1882.57 349.33v18.6m0 18.57v37.17m0 18.58v37.17m0 18.58v37.17m0 18.58v18.58" stroke="#3a414a" stroke-width="2" fill="none"/><path d="M1883.57 349.36h-2v-1.03h2z" stroke="#3a414a" stroke-width=".05" fill="#3a414a"/><path d="M1882.57 572.3v1.03M1556.28 574.12h154.7a.27.27 0 0 0 .26-.27.27.27 0 0 1 .28-.27h153.87" stroke="#3a414a" stroke-width="2" fill="none"/><path d="M1556.3 575.12h-1.02v-2h1.03z" stroke="#3a414a" stroke-width=".05" fill="#3a414a"/><path d="M1848.03 583.76l17.2-10.18-17.2-10.18" stroke="#3a414a" stroke-width="2" fill="none"/><use xlink:href="#i" transform="matrix(1,0,0,1,1624.385584289857,547.9780638935609) translate(0 14.4)"/><path d="M1868.2 506.8h40v197.44h-40zM2092.27 226.8h180v120h-180z" stroke="#333" stroke-width="2" fill="#fff"/><use xlink:href="#j" transform="matrix(1,0,0,1,2092.2712386494477,226.78856817450014) translate(48.504999999999995 63.15)"/><path d="M2175.93 348.8v19.7m0 19.68v39.4m0 19.7v39.4m0 19.7v39.38m0 19.7v39.4m0 19.7v19.68" stroke="#3a414a" stroke-width="2" fill="none"/><path d="M2176.93 348.8h-2v-1h2zM2176.93 645.24h-2v-1.02h2z" stroke="#3a414a" stroke-width=".05" fill="#3a414a"/><path d="M2158.76 564.24h40v80h-40z" stroke="#333" stroke-width="2" fill="#fff"/><path d="M1910.2 585.58h229.06" stroke="#3a414a" stroke-width="2" fill="none"/><path d="M1910.23 586.58h-1.03v-2h1.03z" stroke="#3a414a" stroke-width=".05" fill="#3a414a"/><path d="M2154.52 585.58l-14.26 4.63v-9.26z" stroke="#3a414a" stroke-width="2" fill="#3a414a"/><use xlink:href="#k" transform="matrix(1,0,0,1,1962.6332209762936,559.9774971312472) translate(0 14.4)"/><path d="M1866.2 649.46h-154.68a.27.27 0 0 0-.28.27.27.27 0 0 1-.27.27H1557.1" stroke="#3a414a" stroke-width="2" fill="none"/><path d="M1867.2 650.46h-1.02v-2h1.02z" stroke="#3a414a" stroke-width=".05" fill="#3a414a"/><path d="M1574.46 639.82l-17.2 10.18 17.2 10.18" stroke="#3a414a" stroke-width="2" fill="none"/><use xlink:href="#l" transform="matrix(1,0,0,1,1560.95322127677,664.1798878730722) translate(0 14.4)"/><use xlink:href="#m" transform="matrix(1,0,0,1,1560.95322127677,664.1798878730722) translate(264.65 14.4)"/><path d="M2156.76 630.37H1927.7" stroke="#3a414a" stroke-width="2" fill="none"/><path d="M2157.76 631.37h-1.03v-2h1.03z" stroke="#3a414a" stroke-width=".05" fill="#3a414a"/><path d="M1912.44 630.37l14.27-4.64V635z" stroke="#3a414a" stroke-width="2" fill="#3a414a"/><use xlink:href="#n" transform="matrix(1,0,0,1,1989.0582209762936,634.3664260879887) translate(0 14.4)"/><path d="M2364.57 227.33h188.62v120h-188.63z" stroke="#333" stroke-width="2" fill="#fff"/><use xlink:href="#o" transform="matrix(1,0,0,1,2364.5663512858064,227.33297255108846) translate(43.355 51.9)"/><use xlink:href="#p" transform="matrix(1,0,0,1,2364.5663512858064,227.33297255108846) translate(56.029999999999994 73.5)"/><path d="M2449.66 349.33v17.96m0 17.94v35.9m0 17.97V475m0 17.97v35.9m0 17.96v17.96" stroke="#3a414a" stroke-width="2" fill="none"/><path d="M2450.66 349.36h-2v-1.03h2zM2450.66 565.8h-2v-1.04h2z" stroke="#3a414a" stroke-width=".05" fill="#3a414a"/><path d="M2427.27 566.8h40v80h-40z" stroke="#333" stroke-width="2" fill="#fff"/><path d="M2200.76 608.85h207" stroke="#3a414a" stroke-width="2" fill="none"/><path d="M2200.8 609.85h-1.04v-2h1.03z" stroke="#3a414a" stroke-width=".05" fill="#3a414a"/><path d="M2423.04 608.85l-14.27 4.63v-9.27z" stroke="#3a414a" stroke-width="2" fill="#3a414a"/><use xlink:href="#q" transform="matrix(1,0,0,1,2236.166315788458,583.2496993195364) translate(0 14.4)"/><use xlink:href="#r" transform="matrix(1,0,0,1,2236.166315788458,583.2496993195364) translate(64.85 14.4)"/><path d="M1512.28 667.33h-10.05m-10.06 0h-20.1m-10.07 0h-20.1m-10.07 0h-20.1m-10.07 0h-20.1m-10.06 0h-20.12m-10.05 0h-20.12m-10.04 0H1301.02l-.04-.03-.04-.02-.03-.03-.02-.03-.02-.04-.02-.03V667l-.02-.04-.02-.04-.02-.04-.03-.03-.03-.03-.04-.02-.04-.02h-10.1m-10.02 0h-20.03m-10.03 0h-20.03m-10.02 0h-20.03m-10.03 0h-20.04m-10 0h-20.05m-10 0h-20.05m-10.02 0h-10" stroke="#3a414a" stroke-width="2" fill="none"/><path d="M1513.28 668.33h-1.02v-2h1.02z" stroke="#3a414a" stroke-width=".05" fill="#3a414a"/><path d="M1107.56 656.6l-17.22 10.2 17.22 10.17" stroke="#3a414a" stroke-width="2" fill="none"/><use xlink:href="#s" transform="matrix(1,0,0,1,1230.4448419440373,671.3321436717017) translate(0 14.4)"/><use xlink:href="#r" transform="matrix(1,0,0,1,1230.4448419440373,671.3321436717017) translate(51.9 14.4)"/><path d="M1089.38 468.27h33a6 6 0 0 1 6 6v36.4a6 6 0 0 1-6 6h-15.5" stroke="#3a414a" stroke-width="2" fill="none"/><path d="M1089.4 469.27h-1.02v-2h1.02z" stroke="#3a414a" stroke-width=".05" fill="#3a414a"/><path d="M1091.6 516.66l14.28-4.64v9.27z" stroke="#3a414a" stroke-width="2" fill="#3a414a"/><use xlink:href="#t" transform="matrix(1,0,0,1,1136.3776214110312,481.6662115225001) translate(0 14.4)"/><path d="M607.38 508.8v9.35m0 9.36v18.73m0 9.36v18.72m0 9.36v18.72m0 9.36v18.72m0 9.36v18.73m0 9.36v18.71m0 9.36v18.73m0 9.36v18.72m0 9.36v18.72m0 9.36v18.72m0 9.36v18.73m0 9.36v9.36" stroke="#3a414a" stroke-width="2" fill="none"/><path d="M608.38 508.8h-2v-1h2z" stroke="#3a414a" stroke-width=".05" fill="#3a414a"/><path d="M607.38 845.76v1.03M1067.38 728.8v9.74m0 9.75v19.5m0 9.74V797.03m0 9.75v19.5m0 9.74v9.75" stroke="#3a414a" stroke-width="2" fill="none"/><path d="M1068.38 728.8h-2v-1h2z" stroke="#3a414a" stroke-width=".05" fill="#3a414a"/><path d="M1067.38 845.76v1.03M1534.28 689.33v11.42m0 11.42V735m0 11.42v22.83m0 11.42v22.83m0 11.4v11.43" stroke="#3a414a" stroke-width="2" fill="none"/><path d="M1535.28 689.36h-2v-1.03h2z" stroke="#3a414a" stroke-width=".05" fill="#3a414a"/><path d="M1534.28 826.3v1.03M1888.2 706.24v11.63m0 11.63v23.26m0 11.63v23.25m0 11.62v23.26m0 11.63v11.63" stroke="#3a414a" stroke-width="2" fill="none"/><path d="M1889.2 706.27h-2v-1.03h2z" stroke="#3a414a" stroke-width=".05" fill="#3a414a"/><path d="M1888.2 845.76v1.03M2178.76 646.24v9.98m0 9.97v19.94m0 9.98v19.95m0 9.97V746m0 9.97v19.94m0 10v19.94m0 9.97v10" stroke="#3a414a" stroke-width="2" fill="none"/><path d="M2179.76 646.27h-2v-1.03h2z" stroke="#3a414a" stroke-width=".05" fill="#3a414a"/><path d="M2178.76 825.76v1.03M2447.27 648.8v9.82m0 9.84v19.66m0 9.84v19.66m0 9.84v19.66m0 9.84v19.66m0 9.84v19.66m0 9.84v9.83" stroke="#3a414a" stroke-width="2" fill="none"/><path d="M2448.27 648.8h-2v-1h2z" stroke="#3a414a" stroke-width=".05" fill="#3a414a"/><path d="M2447.27 825.76v1.03" stroke="#3a414a" stroke-width="2" fill="none"/><defs><path d="M33-154v-36h34v36H33zM33 0v-36h34V0H33" id="u"/><path d="M30-248c118-7 216 8 213 122C240-48 200 0 122 0H30v-248zM63-27c89 8 146-16 146-99s-60-101-146-95v194" id="v"/><path d="M141-36C126-15 110 5 73 4 37 3 15-17 15-53c-1-64 63-63 125-63 3-35-9-54-41-54-24 1-41 7-42 31l-33-3c5-37 33-52 76-52 45 0 72 20 72 64v82c-1 20 7 32 28 27v20c-31 9-61-2-59-35zM48-53c0 20 12 33 32 33 41-3 63-29 60-74-43 2-92-5-92 41" id="w"/><path d="M135-143c-3-34-86-38-87 0 15 53 115 12 119 90S17 21 10-45l28-5c4 36 97 45 98 0-10-56-113-15-118-90-4-57 82-63 122-42 12 7 21 19 24 35" id="x"/><path d="M106-169C34-169 62-67 57 0H25v-261h32l-1 103c12-21 28-36 61-36 89 0 53 116 60 194h-32v-121c2-32-8-49-39-48" id="y"/><path d="M115-194c53 0 69 39 70 98 0 66-23 100-70 100C84 3 66-7 56-30L54 0H23l1-261h32v101c10-23 28-34 59-34zm-8 174c40 0 45-34 45-75 0-40-5-75-45-74-42 0-51 32-51 76 0 43 10 73 51 73" id="z"/><path d="M100-194c62-1 85 37 85 99 1 63-27 99-86 99S16-35 15-95c0-66 28-99 85-99zM99-20c44 1 53-31 53-75 0-43-8-75-51-75s-53 32-53 75 10 74 51 75" id="A"/><path d="M114-163C36-179 61-72 57 0H25l-1-190h30c1 12-1 29 2 39 6-27 23-49 58-41v29" id="B"/><path d="M85-194c31 0 48 13 60 33l-1-100h32l1 261h-30c-2-10 0-23-3-31C134-8 116 4 85 4 32 4 16-35 15-94c0-66 23-100 70-100zm9 24c-40 0-46 34-46 75 0 40 6 74 45 74 42 0 51-32 51-76 0-42-9-74-50-73" id="C"/><path d="M137 0h-34L2-248h35l83 218 83-218h36" id="D"/><path d="M24-231v-30h32v30H24zM24 0v-190h32V0H24" id="E"/><path d="M100-194c63 0 86 42 84 106H49c0 40 14 67 53 68 26 1 43-12 49-29l28 8c-11 28-37 45-77 45C44 4 14-33 15-96c1-61 26-98 85-98zm52 81c6-60-76-77-97-28-3 7-6 17-6 28h103" id="F"/><path d="M206 0h-36l-40-164L89 0H53L-1-190h32L70-26l43-164h34l41 164 42-164h31" id="G"/><g id="a"><use transform="matrix(0.05,0,0,0.05,0,0)" xlink:href="#u"/><use transform="matrix(0.05,0,0,0.05,5,0)" xlink:href="#v"/><use transform="matrix(0.05,0,0,0.05,17.950000000000003,0)" xlink:href="#w"/><use transform="matrix(0.05,0,0,0.05,27.950000000000003,0)" xlink:href="#x"/><use transform="matrix(0.05,0,0,0.05,36.95,0)" xlink:href="#y"/><use transform="matrix(0.05,0,0,0.05,46.95,0)" xlink:href="#z"/><use transform="matrix(0.05,0,0,0.05,56.95,0)" xlink:href="#A"/><use transform="matrix(0.05,0,0,0.05,66.95,0)" xlink:href="#w"/><use transform="matrix(0.05,0,0,0.05,76.95,0)" xlink:href="#B"/><use transform="matrix(0.05,0,0,0.05,82.9,0)" xlink:href="#C"/><use transform="matrix(0.05,0,0,0.05,92.9,0)" xlink:href="#D"/><use transform="matrix(0.05,0,0,0.05,104.55000000000001,0)" xlink:href="#E"/><use transform="matrix(0.05,0,0,0.05,108.5,0)" xlink:href="#F"/><use transform="matrix(0.05,0,0,0.05,118.5,0)" xlink:href="#G"/><path d="M-.9 1.25h133.25v1.32H-.9z"/></g><path d="M205 0l-28-72H64L36 0H1l101-248h38L239 0h-34zm-38-99l-47-123c-12 45-31 82-46 123h93" id="H"/><path d="M30-248c87 1 191-15 191 75 0 78-77 80-158 76V0H30v-248zm33 125c57 0 124 11 124-50 0-59-68-47-124-48v98" id="I"/><path d="M33 0v-248h34V0H33" id="J"/><path d="M233-177c-1 41-23 64-60 70L243 0h-38l-65-103H63V0H30v-248c88 3 205-21 203 71zM63-129c60-2 137 13 137-47 0-61-80-42-137-45v92" id="K"/><path d="M145-31C134-9 116 4 85 4 32 4 16-35 15-94c0-59 17-99 70-100 32-1 48 14 60 33 0-11-1-24 2-32h30l-1 268h-32zM93-21c41 0 51-33 51-76s-8-73-50-73c-40 0-46 35-46 75s5 74 45 74" id="L"/><path d="M84 4C-5 8 30-112 23-190h32v120c0 31 7 50 39 49 72-2 45-101 50-169h31l1 190h-30c-1-10 1-25-2-33-11 22-28 36-60 37" id="M"/><path d="M59-47c-2 24 18 29 38 22v24C64 9 27 4 27-40v-127H5v-23h24l9-43h21v43h35v23H59v120" id="N"/><g id="b"><use transform="matrix(0.05,0,0,0.05,0,0)" xlink:href="#u"/><use transform="matrix(0.05,0,0,0.05,5,0)" xlink:href="#H"/><use transform="matrix(0.05,0,0,0.05,17,0)" xlink:href="#I"/><use transform="matrix(0.05,0,0,0.05,29,0)" xlink:href="#J"/><use transform="matrix(0.05,0,0,0.05,34,0)" xlink:href="#K"/><use transform="matrix(0.05,0,0,0.05,46.95,0)" xlink:href="#F"/><use transform="matrix(0.05,0,0,0.05,56.95,0)" xlink:href="#L"/><use transform="matrix(0.05,0,0,0.05,66.95,0)" xlink:href="#M"/><use transform="matrix(0.05,0,0,0.05,76.95,0)" xlink:href="#F"/><use transform="matrix(0.05,0,0,0.05,86.95,0)" xlink:href="#x"/><use transform="matrix(0.05,0,0,0.05,95.95,0)" xlink:href="#N"/><use transform="matrix(0.05,0,0,0.05,100.95,0)" xlink:href="#x"/><path d="M-.9 1.25h111.75v1.32H-.9z"/></g><path d="M117-194c89-4 53 116 60 194h-32v-121c0-31-8-49-39-48C34-167 62-67 57 0H25l-1-190h30c1 10-1 24 2 32 11-22 29-35 61-36" id="O"/><path d="M30 0v-248h187v28H63v79h144v27H63v87h162V0H30" id="P"/><path d="M141 0L90-78 38 0H4l68-98-65-92h35l48 74 47-74h35l-64 92 68 98h-35" id="Q"/><path d="M115-194c55 1 70 41 70 98S169 2 115 4C84 4 66-9 55-30l1 105H24l-1-265h31l2 30c10-21 28-34 59-34zm-8 174c40 0 45-34 45-75s-6-73-45-74c-42 0-51 32-51 76 0 43 10 73 51 73" id="R"/><path d="M210-169c-67 3-38 105-44 169h-31v-121c0-29-5-50-35-48C34-165 62-65 56 0H25l-1-190h30c1 10-1 24 2 32 10-44 99-50 107 0 11-21 27-35 58-36 85-2 47 119 55 194h-31v-121c0-29-5-49-35-48" id="S"/><path d="M212-179c-10-28-35-45-73-45-59 0-87 40-87 99 0 60 29 101 89 101 43 0 62-24 78-52l27 14C228-24 195 4 139 4 59 4 22-46 18-125c-6-104 99-153 187-111 19 9 31 26 39 46" id="T"/><path d="M24 0v-261h32V0H24" id="U"/><path d="M96-169c-40 0-48 33-48 73s9 75 48 75c24 0 41-14 43-38l32 2c-6 37-31 61-74 61-59 0-76-41-82-99-10-93 101-131 147-64 4 7 5 14 7 22l-32 3c-4-21-16-35-41-35" id="V"/><path d="M143 0L79-87 56-68V0H24v-261h32v163l83-92h37l-77 82L181 0h-38" id="W"/><path d="M87 75C49 33 22-17 22-94c0-76 28-126 65-167h31c-38 41-64 92-64 168S80 34 118 75H87" id="X"/><path d="M33-261c38 41 65 92 65 168S71 34 33 75H2C39 34 66-17 66-93S39-220 2-261h31" id="Y"/><g id="c"><use transform="matrix(0.05,0,0,0.05,0,0)" xlink:href="#A"/><use transform="matrix(0.05,0,0,0.05,10,0)" xlink:href="#O"/><use transform="matrix(0.05,0,0,0.05,20,0)" xlink:href="#P"/><use transform="matrix(0.05,0,0,0.05,32,0)" xlink:href="#Q"/><use transform="matrix(0.05,0,0,0.05,41,0)" xlink:href="#R"/><use transform="matrix(0.05,0,0,0.05,51,0)" xlink:href="#F"/><use transform="matrix(0.05,0,0,0.05,61,0)" xlink:href="#B"/><use transform="matrix(0.05,0,0,0.05,66.95,0)" xlink:href="#E"/><use transform="matrix(0.05,0,0,0.05,70.9,0)" xlink:href="#S"/><use transform="matrix(0.05,0,0,0.05,85.85000000000001,0)" xlink:href="#F"/><use transform="matrix(0.05,0,0,0.05,95.85000000000001,0)" xlink:href="#O"/><use transform="matrix(0.05,0,0,0.05,105.85000000000001,0)" xlink:href="#N"/><use transform="matrix(0.05,0,0,0.05,110.85000000000001,0)" xlink:href="#T"/><use transform="matrix(0.05,0,0,0.05,123.80000000000001,0)" xlink:href="#U"/><use transform="matrix(0.05,0,0,0.05,127.75,0)" xlink:href="#E"/><use transform="matrix(0.05,0,0,0.05,131.70000000000002,0)" xlink:href="#V"/><use transform="matrix(0.05,0,0,0.05,140.70000000000002,0)" xlink:href="#W"/><use transform="matrix(0.05,0,0,0.05,149.70000000000002,0)" xlink:href="#X"/><use transform="matrix(0.05,0,0,0.05,155.65,0)" xlink:href="#F"/><use transform="matrix(0.05,0,0,0.05,165.65,0)" xlink:href="#Q"/><use transform="matrix(0.05,0,0,0.05,174.65,0)" xlink:href="#R"/><use transform="matrix(0.05,0,0,0.05,184.65,0)" xlink:href="#F"/><use transform="matrix(0.05,0,0,0.05,194.65,0)" xlink:href="#B"/><use transform="matrix(0.05,0,0,0.05,200.6,0)" xlink:href="#E"/><use transform="matrix(0.05,0,0,0.05,204.54999999999998,0)" xlink:href="#S"/><use transform="matrix(0.05,0,0,0.05,219.49999999999997,0)" xlink:href="#F"/><use transform="matrix(0.05,0,0,0.05,229.49999999999997,0)" xlink:href="#O"/><use transform="matrix(0.05,0,0,0.05,239.49999999999997,0)" xlink:href="#N"/><use transform="matrix(0.05,0,0,0.05,244.49999999999997,0)" xlink:href="#Y"/></g><g id="d"><use transform="matrix(0.05,0,0,0.05,0,0)" xlink:href="#u"/><use transform="matrix(0.05,0,0,0.05,5,0)" xlink:href="#P"/><use transform="matrix(0.05,0,0,0.05,17,0)" xlink:href="#Q"/><use transform="matrix(0.05,0,0,0.05,26,0)" xlink:href="#R"/><use transform="matrix(0.05,0,0,0.05,36,0)" xlink:href="#F"/><use transform="matrix(0.05,0,0,0.05,46,0)" xlink:href="#B"/><use transform="matrix(0.05,0,0,0.05,51.95,0)" xlink:href="#E"/><use transform="matrix(0.05,0,0,0.05,55.900000000000006,0)" xlink:href="#F"/><use transform="matrix(0.05,0,0,0.05,65.9,0)" xlink:href="#S"/><use transform="matrix(0.05,0,0,0.05,80.85000000000001,0)" xlink:href="#F"/><use transform="matrix(0.05,0,0,0.05,90.85000000000001,0)" xlink:href="#O"/><use transform="matrix(0.05,0,0,0.05,100.85000000000001,0)" xlink:href="#N"/><use transform="matrix(0.05,0,0,0.05,105.85000000000001,0)" xlink:href="#D"/><use transform="matrix(0.05,0,0,0.05,117.5,0)" xlink:href="#E"/><use transform="matrix(0.05,0,0,0.05,121.45,0)" xlink:href="#F"/><use transform="matrix(0.05,0,0,0.05,131.45000000000002,0)" xlink:href="#G"/><path d="M-.9 1.25h146.2v1.32H-.9z"/></g><path d="M68-38c1 34 0 65-14 84H32c9-13 17-26 17-46H33v-38h35" id="Z"/><g id="e"><use transform="matrix(0.05,0,0,0.05,0,0)" xlink:href="#B"/><use transform="matrix(0.05,0,0,0.05,5.95,0)" xlink:href="#F"/><use transform="matrix(0.05,0,0,0.05,15.949999999999998,0)" xlink:href="#C"/><use transform="matrix(0.05,0,0,0.05,25.950000000000003,0)" xlink:href="#E"/><use transform="matrix(0.05,0,0,0.05,29.899999999999995,0)" xlink:href="#B"/><use transform="matrix(0.05,0,0,0.05,35.85,0)" xlink:href="#F"/><use transform="matrix(0.05,0,0,0.05,45.85,0)" xlink:href="#V"/><use transform="matrix(0.05,0,0,0.05,54.85,0)" xlink:href="#N"/><use transform="matrix(0.05,0,0,0.05,59.85,0)" xlink:href="#X"/><use transform="matrix(0.05,0,0,0.05,65.8,0)" xlink:href="#F"/><use transform="matrix(0.05,0,0,0.05,75.8,0)" xlink:href="#Q"/><use transform="matrix(0.05,0,0,0.05,84.8,0)" xlink:href="#R"/><use transform="matrix(0.05,0,0,0.05,94.8,0)" xlink:href="#F"/><use transform="matrix(0.05,0,0,0.05,104.80000000000001,0)" xlink:href="#B"/><use transform="matrix(0.05,0,0,0.05,110.75,0)" xlink:href="#E"/><use transform="matrix(0.05,0,0,0.05,114.7,0)" xlink:href="#S"/><use transform="matrix(0.05,0,0,0.05,129.65,0)" xlink:href="#F"/><use transform="matrix(0.05,0,0,0.05,139.65,0)" xlink:href="#O"/><use transform="matrix(0.05,0,0,0.05,149.65,0)" xlink:href="#N"/><use transform="matrix(0.05,0,0,0.05,154.65,0)" xlink:href="#D"/><use transform="matrix(0.05,0,0,0.05,166.3,0)" xlink:href="#E"/><use transform="matrix(0.05,0,0,0.05,170.25,0)" xlink:href="#F"/><use transform="matrix(0.05,0,0,0.05,180.25,0)" xlink:href="#G"/><use transform="matrix(0.05,0,0,0.05,192.2,0)" xlink:href="#Z"/></g><g id="f"><use transform="matrix(0.05,0,0,0.05,0,0)" xlink:href="#F"/><use transform="matrix(0.05,0,0,0.05,10,0)" xlink:href="#Q"/><use transform="matrix(0.05,0,0,0.05,19,0)" xlink:href="#R"/><use transform="matrix(0.05,0,0,0.05,29,0)" xlink:href="#F"/><use transform="matrix(0.05,0,0,0.05,39,0)" xlink:href="#B"/><use transform="matrix(0.05,0,0,0.05,44.95,0)" xlink:href="#E"/><use transform="matrix(0.05,0,0,0.05,48.900000000000006,0)" xlink:href="#S"/><use transform="matrix(0.05,0,0,0.05,63.85,0)" xlink:href="#F"/><use transform="matrix(0.05,0,0,0.05,73.85000000000001,0)" xlink:href="#O"/><use transform="matrix(0.05,0,0,0.05,83.85000000000001,0)" xlink:href="#N"/><use transform="matrix(0.05,0,0,0.05,88.85000000000001,0)" xlink:href="#J"/><use transform="matrix(0.05,0,0,0.05,93.85000000000001,0)" xlink:href="#v"/><use transform="matrix(0.05,0,0,0.05,106.80000000000001,0)" xlink:href="#Y"/></g><g id="g"><use transform="matrix(0.05,0,0,0.05,0,0)" xlink:href="#B"/><use transform="matrix(0.05,0,0,0.05,5.95,0)" xlink:href="#F"/><use transform="matrix(0.05,0,0,0.05,15.949999999999998,0)" xlink:href="#L"/><use transform="matrix(0.05,0,0,0.05,25.950000000000003,0)" xlink:href="#M"/><use transform="matrix(0.05,0,0,0.05,35.95,0)" xlink:href="#F"/><use transform="matrix(0.05,0,0,0.05,45.95,0)" xlink:href="#x"/><use transform="matrix(0.05,0,0,0.05,54.95,0)" xlink:href="#N"/><use transform="matrix(0.05,0,0,0.05,59.95,0)" xlink:href="#P"/><use transform="matrix(0.05,0,0,0.05,71.95,0)" xlink:href="#Q"/><use transform="matrix(0.05,0,0,0.05,80.95,0)" xlink:href="#R"/><use transform="matrix(0.05,0,0,0.05,90.95,0)" xlink:href="#F"/><use transform="matrix(0.05,0,0,0.05,100.95,0)" xlink:href="#B"/><use transform="matrix(0.05,0,0,0.05,106.9,0)" xlink:href="#E"/><use transform="matrix(0.05,0,0,0.05,110.85000000000001,0)" xlink:href="#S"/><use transform="matrix(0.05,0,0,0.05,125.80000000000001,0)" xlink:href="#F"/><use transform="matrix(0.05,0,0,0.05,135.8,0)" xlink:href="#O"/><use transform="matrix(0.05,0,0,0.05,145.8,0)" xlink:href="#N"/><use transform="matrix(0.05,0,0,0.05,150.8,0)" xlink:href="#K"/><use transform="matrix(0.05,0,0,0.05,163.75,0)" xlink:href="#F"/><use transform="matrix(0.05,0,0,0.05,173.75,0)" xlink:href="#x"/><use transform="matrix(0.05,0,0,0.05,182.75,0)" xlink:href="#M"/><use transform="matrix(0.05,0,0,0.05,192.75,0)" xlink:href="#U"/><use transform="matrix(0.05,0,0,0.05,196.7,0)" xlink:href="#N"/><use transform="matrix(0.05,0,0,0.05,201.7,0)" xlink:href="#X"/><use transform="matrix(0.05,0,0,0.05,207.64999999999998,0)" xlink:href="#F"/><use transform="matrix(0.05,0,0,0.05,217.64999999999998,0)" xlink:href="#Q"/><use transform="matrix(0.05,0,0,0.05,226.64999999999998,0)" xlink:href="#R"/><use transform="matrix(0.05,0,0,0.05,236.64999999999998,0)" xlink:href="#F"/><use transform="matrix(0.05,0,0,0.05,246.64999999999998,0)" xlink:href="#B"/><use transform="matrix(0.05,0,0,0.05,252.59999999999997,0)" xlink:href="#E"/><use transform="matrix(0.05,0,0,0.05,256.54999999999995,0)" xlink:href="#S"/><use transform="matrix(0.05,0,0,0.05,271.49999999999994,0)" xlink:href="#F"/><use transform="matrix(0.05,0,0,0.05,281.49999999999994,0)" xlink:href="#O"/><use transform="matrix(0.05,0,0,0.05,291.49999999999994,0)" xlink:href="#N"/><use transform="matrix(0.05,0,0,0.05,296.49999999999994,0)" xlink:href="#J"/><use transform="matrix(0.05,0,0,0.05,301.49999999999994,0)" xlink:href="#v"/><use transform="matrix(0.05,0,0,0.05,314.44999999999993,0)" xlink:href="#Y"/></g><g id="h"><use transform="matrix(0.05,0,0,0.05,0,0)" xlink:href="#u"/><use transform="matrix(0.05,0,0,0.05,5,0)" xlink:href="#P"/><use transform="matrix(0.05,0,0,0.05,17,0)" xlink:href="#Q"/><use transform="matrix(0.05,0,0,0.05,26,0)" xlink:href="#R"/><use transform="matrix(0.05,0,0,0.05,36,0)" xlink:href="#F"/><use transform="matrix(0.05,0,0,0.05,46,0)" xlink:href="#B"/><use transform="matrix(0.05,0,0,0.05,51.95,0)" xlink:href="#E"/><use transform="matrix(0.05,0,0,0.05,55.900000000000006,0)" xlink:href="#S"/><use transform="matrix(0.05,0,0,0.05,70.85000000000001,0)" xlink:href="#F"/><use transform="matrix(0.05,0,0,0.05,80.85000000000001,0)" xlink:href="#O"/><use transform="matrix(0.05,0,0,0.05,90.85000000000001,0)" xlink:href="#N"/><use transform="matrix(0.05,0,0,0.05,95.85000000000001,0)" xlink:href="#H"/><use transform="matrix(0.05,0,0,0.05,107.85000000000001,0)" xlink:href="#I"/><use transform="matrix(0.05,0,0,0.05,119.85000000000001,0)" xlink:href="#J"/><path d="M-.9 1.25h126.65v1.32H-.9z"/></g><path d="M0 4l72-265h28L28 4H0" id="aa"/><path d="M177-190C167-65 218 103 67 71c-23-6-38-20-44-43l32-5c15 47 100 32 89-28v-30C133-14 115 1 83 1 29 1 15-40 15-95c0-56 16-97 71-98 29-1 48 16 59 35 1-10 0-23 2-32h30zM94-22c36 0 50-32 50-73 0-42-14-75-50-75-39 0-46 34-46 75s6 73 46 73" id="ab"/><path d="M16-82v-28h88v28H16" id="ac"/><g id="i"><use transform="matrix(0.05,0,0,0.05,0,0)" xlink:href="#aa"/><use transform="matrix(0.05,0,0,0.05,5,0)" xlink:href="#F"/><use transform="matrix(0.05,0,0,0.05,15,0)" xlink:href="#Q"/><use transform="matrix(0.05,0,0,0.05,24,0)" xlink:href="#R"/><use transform="matrix(0.05,0,0,0.05,34,0)" xlink:href="#F"/><use transform="matrix(0.05,0,0,0.05,44,0)" xlink:href="#B"/><use transform="matrix(0.05,0,0,0.05,49.95,0)" xlink:href="#E"/><use transform="matrix(0.05,0,0,0.05,53.900000000000006,0)" xlink:href="#S"/><use transform="matrix(0.05,0,0,0.05,68.85000000000001,0)" xlink:href="#F"/><use transform="matrix(0.05,0,0,0.05,78.85000000000001,0)" xlink:href="#O"/><use transform="matrix(0.05,0,0,0.05,88.85000000000001,0)" xlink:href="#N"/><use transform="matrix(0.05,0,0,0.05,93.85000000000001,0)" xlink:href="#aa"/><use transform="matrix(0.05,0,0,0.05,98.85000000000001,0)" xlink:href="#ab"/><use transform="matrix(0.05,0,0,0.05,108.85000000000001,0)" xlink:href="#F"/><use transform="matrix(0.05,0,0,0.05,118.85000000000001,0)" xlink:href="#N"/><use transform="matrix(0.05,0,0,0.05,123.85000000000001,0)" xlink:href="#ac"/><use transform="matrix(0.05,0,0,0.05,129.8,0)" xlink:href="#B"/><use transform="matrix(0.05,0,0,0.05,135.75,0)" xlink:href="#F"/><use transform="matrix(0.05,0,0,0.05,145.75,0)" xlink:href="#x"/><use transform="matrix(0.05,0,0,0.05,154.75,0)" xlink:href="#M"/><use transform="matrix(0.05,0,0,0.05,164.75,0)" xlink:href="#U"/><use transform="matrix(0.05,0,0,0.05,168.7,0)" xlink:href="#N"/></g><g id="j"><use transform="matrix(0.05,0,0,0.05,0,0)" xlink:href="#u"/><use transform="matrix(0.05,0,0,0.05,5,0)" xlink:href="#C"/><use transform="matrix(0.05,0,0,0.05,15,0)" xlink:href="#z"/><use transform="matrix(0.05,0,0,0.05,25,0)" xlink:href="#H"/><use transform="matrix(0.05,0,0,0.05,37,0)" xlink:href="#V"/><use transform="matrix(0.05,0,0,0.05,46,0)" xlink:href="#V"/><use transform="matrix(0.05,0,0,0.05,55,0)" xlink:href="#F"/><use transform="matrix(0.05,0,0,0.05,65,0)" xlink:href="#x"/><use transform="matrix(0.05,0,0,0.05,74,0)" xlink:href="#x"/><path d="M-.9 1.25h84.8v1.32H-.9z"/></g><g id="k"><use transform="matrix(0.05,0,0,0.05,0,0)" xlink:href="#ab"/><use transform="matrix(0.05,0,0,0.05,10,0)" xlink:href="#F"/><use transform="matrix(0.05,0,0,0.05,20,0)" xlink:href="#N"/><use transform="matrix(0.05,0,0,0.05,25,0)" xlink:href="#P"/><use transform="matrix(0.05,0,0,0.05,37,0)" xlink:href="#Q"/><use transform="matrix(0.05,0,0,0.05,46,0)" xlink:href="#R"/><use transform="matrix(0.05,0,0,0.05,56,0)" xlink:href="#F"/><use transform="matrix(0.05,0,0,0.05,66,0)" xlink:href="#B"/><use transform="matrix(0.05,0,0,0.05,71.95,0)" xlink:href="#E"/><use transform="matrix(0.05,0,0,0.05,75.9,0)" xlink:href="#S"/><use transform="matrix(0.05,0,0,0.05,90.85000000000001,0)" xlink:href="#F"/><use transform="matrix(0.05,0,0,0.05,100.85000000000001,0)" xlink:href="#O"/><use transform="matrix(0.05,0,0,0.05,110.85000000000001,0)" xlink:href="#N"/><use transform="matrix(0.05,0,0,0.05,115.85000000000001,0)" xlink:href="#X"/><use transform="matrix(0.05,0,0,0.05,121.80000000000001,0)" xlink:href="#E"/><use transform="matrix(0.05,0,0,0.05,125.75,0)" xlink:href="#C"/><use transform="matrix(0.05,0,0,0.05,135.75,0)" xlink:href="#Y"/></g><path d="M33 0v-38h34V0H33" id="ad"/><g id="l"><use transform="matrix(0.05,0,0,0.05,0,0)" xlink:href="#y"/><use transform="matrix(0.05,0,0,0.05,10,0)" xlink:href="#N"/><use transform="matrix(0.05,0,0,0.05,15,0)" xlink:href="#N"/><use transform="matrix(0.05,0,0,0.05,20,0)" xlink:href="#R"/><use transform="matrix(0.05,0,0,0.05,30,0)" xlink:href="#K"/><use transform="matrix(0.05,0,0,0.05,42.95,0)" xlink:href="#F"/><use transform="matrix(0.05,0,0,0.05,52.95,0)" xlink:href="#x"/><use transform="matrix(0.05,0,0,0.05,61.95,0)" xlink:href="#R"/><use transform="matrix(0.05,0,0,0.05,71.95,0)" xlink:href="#A"/><use transform="matrix(0.05,0,0,0.05,81.95,0)" xlink:href="#O"/><use transform="matrix(0.05,0,0,0.05,91.95,0)" xlink:href="#x"/><use transform="matrix(0.05,0,0,0.05,100.95,0)" xlink:href="#F"/><use transform="matrix(0.05,0,0,0.05,110.95,0)" xlink:href="#X"/><use transform="matrix(0.05,0,0,0.05,116.9,0)" xlink:href="#F"/><use transform="matrix(0.05,0,0,0.05,126.9,0)" xlink:href="#Q"/><use transform="matrix(0.05,0,0,0.05,135.9,0)" xlink:href="#R"/><use transform="matrix(0.05,0,0,0.05,145.9,0)" xlink:href="#F"/><use transform="matrix(0.05,0,0,0.05,155.9,0)" xlink:href="#B"/><use transform="matrix(0.05,0,0,0.05,161.85,0)" xlink:href="#E"/><use transform="matrix(0.05,0,0,0.05,165.79999999999998,0)" xlink:href="#S"/><use transform="matrix(0.05,0,0,0.05,180.74999999999997,0)" xlink:href="#F"/><use transform="matrix(0.05,0,0,0.05,190.74999999999997,0)" xlink:href="#O"/><use transform="matrix(0.05,0,0,0.05,200.74999999999997,0)" xlink:href="#N"/><use transform="matrix(0.05,0,0,0.05,205.74999999999997,0)" xlink:href="#ad"/><use transform="matrix(0.05,0,0,0.05,210.74999999999997,0)" xlink:href="#B"/><use transform="matrix(0.05,0,0,0.05,216.69999999999996,0)" xlink:href="#F"/><use transform="matrix(0.05,0,0,0.05,226.69999999999996,0)" xlink:href="#x"/><use transform="matrix(0.05,0,0,0.05,235.69999999999996,0)" xlink:href="#M"/><use transform="matrix(0.05,0,0,0.05,245.69999999999996,0)" xlink:href="#U"/><use transform="matrix(0.05,0,0,0.05,249.64999999999998,0)" xlink:href="#N"/><use transform="matrix(0.05,0,0,0.05,254.64999999999998,0)" xlink:href="#Z"/></g><path d="M101-251c82-7 93 87 43 132L82-64C71-53 59-42 53-27h129V0H18c2-99 128-94 128-182 0-28-16-43-45-43s-46 15-49 41l-32-3c6-41 34-60 81-64" id="ae"/><path d="M101-251c68 0 85 55 85 127S166 4 100 4C33 4 14-52 14-124c0-73 17-127 87-127zm-1 229c47 0 54-49 54-102s-4-102-53-102c-51 0-55 48-55 102 0 53 5 102 54 102" id="af"/><g id="m"><use transform="matrix(0.05,0,0,0.05,0,0)" xlink:href="#ae"/><use transform="matrix(0.05,0,0,0.05,10,0)" xlink:href="#af"/><use transform="matrix(0.05,0,0,0.05,20,0)" xlink:href="#af"/><use transform="matrix(0.05,0,0,0.05,30,0)" xlink:href="#Y"/></g><g id="n"><use transform="matrix(0.05,0,0,0.05,0,0)" xlink:href="#F"/><use transform="matrix(0.05,0,0,0.05,10,0)" xlink:href="#Q"/><use transform="matrix(0.05,0,0,0.05,19,0)" xlink:href="#R"/><use transform="matrix(0.05,0,0,0.05,29,0)" xlink:href="#F"/><use transform="matrix(0.05,0,0,0.05,39,0)" xlink:href="#B"/><use transform="matrix(0.05,0,0,0.05,44.95,0)" xlink:href="#E"/><use transform="matrix(0.05,0,0,0.05,48.900000000000006,0)" xlink:href="#S"/><use transform="matrix(0.05,0,0,0.05,63.85,0)" xlink:href="#F"/><use transform="matrix(0.05,0,0,0.05,73.85000000000001,0)" xlink:href="#O"/><use transform="matrix(0.05,0,0,0.05,83.85000000000001,0)" xlink:href="#N"/></g><path d="M185-189c-5-48-123-54-124 2 14 75 158 14 163 119 3 78-121 87-175 55-17-10-28-26-33-46l33-7c5 56 141 63 141-1 0-78-155-14-162-118-5-82 145-84 179-34 5 7 8 16 11 25" id="ag"/><path d="M140-251c81 0 123 46 123 126C263-53 228-8 163 1c7 30 30 48 69 40v23c-55 16-95-15-103-61C56-3 17-48 17-125c0-80 42-126 123-126zm0 227c63 0 89-41 89-101s-29-99-89-99c-61 0-89 39-89 99S79-25 140-24" id="ah"/><path d="M30 0v-248h33v221h125V0H30" id="ai"/><g id="o"><use transform="matrix(0.05,0,0,0.05,0,0)" xlink:href="#u"/><use transform="matrix(0.05,0,0,0.05,5,0)" xlink:href="#I"/><use transform="matrix(0.05,0,0,0.05,17,0)" xlink:href="#A"/><use transform="matrix(0.05,0,0,0.05,27,0)" xlink:href="#x"/><use transform="matrix(0.05,0,0,0.05,36,0)" xlink:href="#N"/><use transform="matrix(0.05,0,0,0.05,41,0)" xlink:href="#ab"/><use transform="matrix(0.05,0,0,0.05,51,0)" xlink:href="#B"/><use transform="matrix(0.05,0,0,0.05,56.95,0)" xlink:href="#F"/><use transform="matrix(0.05,0,0,0.05,66.95,0)" xlink:href="#ag"/><use transform="matrix(0.05,0,0,0.05,78.95,0)" xlink:href="#ah"/><use transform="matrix(0.05,0,0,0.05,92.95,0)" xlink:href="#ai"/><path d="M-.9 1.25h104.1v1.32H-.9z"/></g><g id="p"><use transform="matrix(0.05,0,0,0.05,0,0)" xlink:href="#v"/><use transform="matrix(0.05,0,0,0.05,12.950000000000001,0)" xlink:href="#w"/><use transform="matrix(0.05,0,0,0.05,22.950000000000003,0)" xlink:href="#N"/><use transform="matrix(0.05,0,0,0.05,27.950000000000003,0)" xlink:href="#w"/><use transform="matrix(0.05,0,0,0.05,37.95,0)" xlink:href="#z"/><use transform="matrix(0.05,0,0,0.05,47.95,0)" xlink:href="#w"/><use transform="matrix(0.05,0,0,0.05,57.95,0)" xlink:href="#x"/><use transform="matrix(0.05,0,0,0.05,66.95,0)" xlink:href="#F"/><path d="M-.9 1.25h78.75v1.32H-.9z"/></g><path d="M108 0H70L1-190h34L89-25l56-165h34" id="aj"/><g id="q"><use transform="matrix(0.05,0,0,0.05,0,0)" xlink:href="#B"/><use transform="matrix(0.05,0,0,0.05,5.95,0)" xlink:href="#F"/><use transform="matrix(0.05,0,0,0.05,15.949999999999998,0)" xlink:href="#N"/><use transform="matrix(0.05,0,0,0.05,20.95,0)" xlink:href="#B"/><use transform="matrix(0.05,0,0,0.05,26.899999999999995,0)" xlink:href="#E"/><use transform="matrix(0.05,0,0,0.05,30.849999999999994,0)" xlink:href="#F"/><use transform="matrix(0.05,0,0,0.05,40.849999999999994,0)" xlink:href="#aj"/><use transform="matrix(0.05,0,0,0.05,49.849999999999994,0)" xlink:href="#F"/></g><g id="r"><use transform="matrix(0.05,0,0,0.05,0,0)" xlink:href="#F"/><use transform="matrix(0.05,0,0,0.05,10,0)" xlink:href="#Q"/><use transform="matrix(0.05,0,0,0.05,19,0)" xlink:href="#R"/><use transform="matrix(0.05,0,0,0.05,29,0)" xlink:href="#F"/><use transform="matrix(0.05,0,0,0.05,39,0)" xlink:href="#B"/><use transform="matrix(0.05,0,0,0.05,44.95,0)" xlink:href="#E"/><use transform="matrix(0.05,0,0,0.05,48.900000000000006,0)" xlink:href="#S"/><use transform="matrix(0.05,0,0,0.05,63.85,0)" xlink:href="#F"/><use transform="matrix(0.05,0,0,0.05,73.85000000000001,0)" xlink:href="#O"/><use transform="matrix(0.05,0,0,0.05,83.85000000000001,0)" xlink:href="#N"/></g><g id="s"><use transform="matrix(0.05,0,0,0.05,0,0)" xlink:href="#B"/><use transform="matrix(0.05,0,0,0.05,5.95,0)" xlink:href="#F"/><use transform="matrix(0.05,0,0,0.05,15.949999999999998,0)" xlink:href="#N"/><use transform="matrix(0.05,0,0,0.05,20.95,0)" xlink:href="#M"/><use transform="matrix(0.05,0,0,0.05,30.950000000000003,0)" xlink:href="#B"/><use transform="matrix(0.05,0,0,0.05,36.9,0)" xlink:href="#O"/></g><g id="t"><use transform="matrix(0.05,0,0,0.05,0,0)" xlink:href="#S"/><use transform="matrix(0.05,0,0,0.05,14.950000000000001,0)" xlink:href="#A"/><use transform="matrix(0.05,0,0,0.05,24.950000000000003,0)" xlink:href="#M"/><use transform="matrix(0.05,0,0,0.05,34.95,0)" xlink:href="#O"/><use transform="matrix(0.05,0,0,0.05,44.95,0)" xlink:href="#N"/><use transform="matrix(0.05,0,0,0.05,49.95,0)" xlink:href="#F"/><use transform="matrix(0.05,0,0,0.05,59.95,0)" xlink:href="#C"/><use transform="matrix(0.05,0,0,0.05,69.95,0)" xlink:href="#X"/><use transform="matrix(0.05,0,0,0.05,75.9,0)" xlink:href="#Y"/></g></defs></g></svg>