<svg xmlns="http://www.w3.org/2000/svg" xmlns:xlink="http://www.w3.org/1999/xlink" xmlns:lucid="lucid" width="2388.91" height="680"><g transform="translate(2273.8432479082503 -212.92234092342187)" lucid:page-tab-id="vPHms2bTQKVA"><path d="M-1622.85 232.92h180v120h-180z" stroke="#333" stroke-width="2" fill="#fff"/><use xlink:href="#a" transform="matrix(1,0,0,1,-1622.8525398757483,232.92234092342278) translate(35.029999999999994 63.15)"/><path d="M-1539.2 354.92v20.66m0 20.65v41.3m0 20.67v20.65" stroke="#3a414a" stroke-width="2" fill="none"/><path d="M-1538.2 354.95h-2v-1.03h2zM-1538.2 479.85h-2v-1.03h2z" stroke="#3a414a" stroke-width=".05" fill="#3a414a"/><path d="M-2261.84 472.92h278.3M-2261.82 472.92h-1.02" stroke="#3a414a" stroke-width="2" fill="none"/><path d="M-1968.28 472.92l-14.26 4.64v-9.27z" stroke="#3a414a" stroke-width="2" fill="#3a414a"/><use xlink:href="#b" transform="matrix(1,0,0,1,-2202.266664889477,447.32234092342185) translate(0 14.4)"/><path d="M-1922.04 504.4h339.7" stroke="#3a414a" stroke-width="2" fill="none"/><path d="M-1922 505.4h-1.04v-2h1.03z" stroke="#3a414a" stroke-width=".05" fill="#3a414a"/><path d="M-1567.1 504.4l-14.25 4.63v-9.27z" stroke="#3a414a" stroke-width="2" fill="#3a414a"/><use xlink:href="#c" transform="matrix(1,0,0,1,-1877.7213108732262,478.79406841961315) translate(0 14.4)"/><path d="M-1562.85 480.85h40v80h-40zM-916.7 233.47h180v120h-180z" stroke="#333" stroke-width="2" fill="#fff"/><use xlink:href="#d" transform="matrix(1,0,0,1,-916.7049835575672,233.4667453000111) translate(46.029999999999994 63.15)"/><path d="M-833.05 355.47v23.98m0 24v47.97m0 24v23.97" stroke="#3a414a" stroke-width="2" fill="none"/><path d="M-832.05 355.5h-2v-1.03h2z" stroke="#3a414a" stroke-width=".05" fill="#3a414a"/><path d="M-833.05 499.37v1.02" stroke="#3a414a" stroke-width="2" fill="none"/><path d="M-708.03 232.92h188.62v120h-188.63z" stroke="#333" stroke-width="2" fill="#fff"/><use xlink:href="#e" transform="matrix(1,0,0,1,-708.0339854739341,232.92234092342187) translate(43.355 51.9)"/><use xlink:href="#f" transform="matrix(1,0,0,1,-708.0339854739341,232.92234092342187) translate(56.029999999999994 73.5)"/><path d="M-612.33 354.92v18.28m0 18.27v36.55m0 18.28v36.55m0 18.27v18.27" stroke="#3a414a" stroke-width="2" fill="none"/><path d="M-611.33 354.95h-2v-1.03h2zM-611.33 520.4h-2v-1.03h2z" stroke="#3a414a" stroke-width=".05" fill="#3a414a"/><path d="M-856.7 501.4h40V672.9h-40z" stroke="#333" stroke-width="2" fill="#fff"/><path d="M-1520.85 520.85h357.3" stroke="#3a414a" stroke-width="2" fill="none"/><path d="M-1520.83 521.85h-1.02v-2h1.02z" stroke="#3a414a" stroke-width=".05" fill="#3a414a"/><path d="M-1180.9 531.03l17.2-10.18-17.2-10.18" stroke="#3a414a" stroke-width="2" fill="none"/><use xlink:href="#g" transform="matrix(1,0,0,1,-1464.0640086084668,495.2496640430249) translate(0 14.4)"/><path d="M-633.72 521.4h40v140h-40z" stroke="#333" stroke-width="2" fill="#fff"/><path d="M-1947.84 354.92v16m0 15.98v31.98m0 16v15.98" stroke="#3a414a" stroke-width="2" fill="none"/><path d="M-1946.84 354.95h-2v-1.03h2z" stroke="#3a414a" stroke-width=".05" fill="#3a414a"/><path d="M-1947.84 450.83v1.03" stroke="#3a414a" stroke-width="2" fill="none"/><path d="M-1964.04 452.92h40v80h-40zM-2064.84 232.92h235.35v120h-235.34z" stroke="#333" stroke-width="2" fill="#fff"/><use xlink:href="#h" transform="matrix(1,0,0,1,-2064.843247908251,232.92234092342187) translate(23.35500000000001 63.15)"/><path d="M-1220.72 232.92h160v120h-160z" stroke="#333" stroke-width="2" fill="#fff"/><use xlink:href="#i" transform="matrix(1,0,0,1,-1220.7254773411432,232.92234092342278) translate(17.57999999999999 63.15)"/><path d="M-1145.87 354.92v19m0 19.02v38m0 19.02v19" stroke="#3a414a" stroke-width="2" fill="none"/><path d="M-1144.87 354.95h-2v-1.03h2z" stroke="#3a414a" stroke-width=".05" fill="#3a414a"/><path d="M-1145.87 468.94v1.03" stroke="#3a414a" stroke-width="2" fill="none"/><path d="M-1160.72 484.04h40v308.88h-40z" stroke="#333" stroke-width="2" fill="#fff"/><path d="M-1118.72 544.04h242.5" stroke="#3a414a" stroke-width="2" fill="none"/><path d="M-1118.7 545.04h-1.02v-2h1.02z" stroke="#3a414a" stroke-width=".05" fill="#3a414a"/><path d="M-860.94 544.04l-14.27 4.64v-9.27z" stroke="#3a414a" stroke-width="2" fill="#3a414a"/><use xlink:href="#j" transform="matrix(1,0,0,1,-1103.515230449376,513.8077132428577) translate(0 14.4)"/><path d="M-814.7 559h161.47" stroke="#3a414a" stroke-width="2" fill="none"/><path d="M-814.68 560h-1.03v-2h1.02z" stroke="#3a414a" stroke-width=".05" fill="#3a414a"/><path d="M-637.96 559l-14.27 4.64v-9.27z" stroke="#3a414a" stroke-width="2" fill="#3a414a"/><use xlink:href="#k" transform="matrix(1,0,0,1,-788.1388494531382,533.4064626222103) translate(0 14.4)"/><use xlink:href="#l" transform="matrix(1,0,0,1,-788.1388494531382,533.4064626222103) translate(35 14.4)"/><path d="M-635.72 602.52h-9.95m-9.94 0h-19.9m-9.94 0h-19.9m-9.93 0H-737.2m-12 0h-24m-12 0h-12" stroke="#3a414a" stroke-width="2" fill="none"/><path d="M-634.72 603.52h-1.03v-2h1.03z" stroke="#3a414a" stroke-width=".05" fill="#3a414a"/><path d="M-812.47 602.52l14.27-4.63v9.26z" stroke="#3a414a" stroke-width="2" fill="#3a414a"/><use xlink:href="#m" transform="matrix(1,0,0,1,-757.7138494531382,606.5223409234223) translate(0 14.4)"/><path d="M-858.7 626.52h-10.84m-10.83 0h-21.67m-10.84 0h-21.66m-10.84 0h-21.67m-10.83 0h-20.21m-9.37 0h-18.75m-9.37 0h-18.75m-9.37 0h-18.75m-9.38 0h-9.37" stroke="#3a414a" stroke-width="2" fill="none"/><path d="M-857.7 627.52h-1.03v-2h1.02z" stroke="#3a414a" stroke-width=".05" fill="#3a414a"/><path d="M-1116.5 626.52l14.28-4.63v9.26z" stroke="#3a414a" stroke-width="2" fill="#3a414a"/><use xlink:href="#m" transform="matrix(1,0,0,1,-1021.215230449376,630.522340923424) translate(0 14.4)"/><path d="M-476.7 232.92h188.62v120H-476.7z" stroke="#333" stroke-width="2" fill="#fff"/><use xlink:href="#n" transform="matrix(1,0,0,1,-476.7049835575672,232.92234092342187) translate(6.130000000000004 63.15)"/><path d="M-382.4 354.92v20.3m0 20.3v40.6m0 20.3V497m0 20.3v40.58m0 20.3v40.6m0 20.3v20.3" stroke="#3a414a" stroke-width="2" fill="none"/><path d="M-381.4 354.95h-2v-1.03h2z" stroke="#3a414a" stroke-width=".05" fill="#3a414a"/><path d="M-382.4 659.37v1.02" stroke="#3a414a" stroke-width="2" fill="none"/><path d="M-402.4 661.4h40V812.9h-40z" stroke="#333" stroke-width="2" fill="#fff"/><path d="M-1118.72 706.26h696.82" stroke="#3a414a" stroke-width="2" fill="none"/><path d="M-1118.7 707.26h-1.02v-2h1.02z" stroke="#3a414a" stroke-width=".05" fill="#3a414a"/><path d="M-406.63 706.26l-14.27 4.63v-9.28z" stroke="#3a414a" stroke-width="2" fill="#3a414a"/><use xlink:href="#o" transform="matrix(1,0,0,1,-847.9095953867642,680.6556742567567) translate(0 14.4)"/><path d="M-93.56 233.47H95.07v120H-93.56z" stroke="#333" stroke-width="2" fill="#fff"/><use xlink:href="#p" transform="matrix(1,0,0,1,-93.55742723938693,233.4667453000111) translate(30.604999999999997 63.15)"/><path d="M.75 355.47v18.66m0 18.67v37.33m0 18.67v37.33m0 18.67v37.33m0 18.67v37.33m0 18.67v37.33m0 18.67v18.67" stroke="#3a414a" stroke-width="2" fill="none"/><path d="M1.75 355.5h-2v-1.03h2zM1.75 692.47h-2v-1.03h2z" stroke="#3a414a" stroke-width=".05" fill="#3a414a"/><path d="M-19.25 693.47h40v140h-40z" stroke="#333" stroke-width="2" fill="#fff"/><path d="M-360.4 731.4h169.3a.27.27 0 0 1 .28.27.27.27 0 0 0 .27.27h151.8" stroke="#3a414a" stroke-width="2" fill="none"/><path d="M-360.37 732.4h-1.02v-2h1.03z" stroke="#3a414a" stroke-width=".05" fill="#3a414a"/><path d="M-23.48 731.94l-14.27 4.63v-9.27z" stroke="#3a414a" stroke-width="2" fill="#3a414a"/><use xlink:href="#q" transform="matrix(1,0,0,1,-349.1383593551345,701.1591317869718) translate(0 14.4)"/><use xlink:href="#r" transform="matrix(1,0,0,1,-349.1383593551345,701.1591317869718) translate(122.85000000000001 14.4)"/><use xlink:href="#s" transform="matrix(1,0,0,1,-349.1383593551345,701.1591317869718) translate(219.85000000000002 14.4)"/><path d="M-360.4 773.2h321.65" stroke="#3a414a" stroke-width="2" fill="none"/><path d="M-360.37 774.2h-1.02v-2h1.03z" stroke="#3a414a" stroke-width=".05" fill="#3a414a"/><path d="M-23.48 773.2l-14.27 4.63v-9.27z" stroke="#3a414a" stroke-width="2" fill="#3a414a"/><use xlink:href="#q" transform="matrix(1,0,0,1,-349.1449352732536,742.9555895531382) translate(0 14.4)"/><use xlink:href="#t" transform="matrix(1,0,0,1,-349.1449352732536,742.9555895531382) translate(122.85000000000001 14.4)"/><use xlink:href="#s" transform="matrix(1,0,0,1,-349.1449352732536,742.9555895531382) translate(219.85000000000002 14.4)"/><path d="M-1562.85 712.92h40v80h-40z" stroke="#333" stroke-width="2" fill="#fff"/><path d="M-1542.85 562.85v9.87m0 9.87v19.74m0 9.87v19.75m0 9.87v19.75m0 9.87v19.74m0 9.87v9.87" stroke="#3a414a" stroke-width="2" fill="none"/><path d="M-1541.85 562.88h-2v-1.03h2zM-1541.85 711.92h-2v-1.02h2z" stroke="#3a414a" stroke-width=".05" fill="#3a414a"/><path d="M-1162.72 747.3h-9.93m-9.93 0h-19.85m-9.92 0h-19.85m-9.93 0h-19.85m-9.92 0h-19.85m-9.93 0h-19.85m-9.92 0h-19.86m-9.93 0h-19.85m-9.93 0h-19.86m-9.92 0h-19.85m-9.93 0h-19.85m-9.93 0h-19.85m-9.93 0h-9.93" stroke="#3a414a" stroke-width="2" fill="none"/><path d="M-1161.72 748.3h-1.03v-2h1.03z" stroke="#3a414a" stroke-width=".05" fill="#3a414a"/><path d="M-1502.67 737.13l-17.22 10.18 17.23 10.2" stroke="#3a414a" stroke-width="2" fill="none"/><use xlink:href="#u" transform="matrix(1,0,0,1,-1418.2140086084667,751.3064459851221) translate(0 14.4)"/><path d="M-1964.98 723.47h40v149.45h-40z" stroke="#333" stroke-width="2" fill="#fff"/><path d="M-1944.04 534.92v10.37m0 10.35v20.73m0 10.36v20.73m0 10.36v20.73m0 10.36v20.73m0 10.36v20.74m0 10.36v10.37" stroke="#3a414a" stroke-width="2" fill="none"/><path d="M-1943.04 534.95h-2v-1.03h2z" stroke="#3a414a" stroke-width=".05" fill="#3a414a"/><path d="M-1944.04 721.44v1.03M-1564.85 770h-9.93m-9.92 0h-19.85m-9.93 0h-19.85m-9.93 0h-19.85m-9.93 0h-19.85m-9.93 0h-19.86m-9.92 0h-19.85m-9.93 0h-19.85m-9.93 0h-19.85m-9.93 0h-19.86m-9.92 0h-19.86m-9.92 0h-19.85m-9.94 0h-9.92" stroke="#3a414a" stroke-width="2" fill="none"/><path d="M-1563.85 771h-1.03v-2h1.03z" stroke="#3a414a" stroke-width=".05" fill="#3a414a"/><path d="M-1904.8 759.8l-17.22 10.2 17.22 10.17" stroke="#3a414a" stroke-width="2" fill="none"/><use xlink:href="#m" transform="matrix(1,0,0,1,-1776.41607114303,773.9859419502474) translate(0 14.4)"/><path d="M-1956.7 812.92h40v40h-40z" stroke="#333" stroke-width="2" fill="#fff"/><path d="M-1922.98 798.92h41.28a6 6 0 0 1 6 6v27a6 6 0 0 1-6 6h-15.5" stroke="#3a414a" stroke-width="2" fill="none"/><path d="M-1922.95 799.92h-1.03v-2h1.03z" stroke="#3a414a" stroke-width=".05" fill="#3a414a"/><path d="M-1912.47 837.92l14.27-4.63v9.26z" stroke="#3a414a" stroke-width="2" fill="#3a414a"/><g><use xlink:href="#v" transform="matrix(1,0,0,1,-1867.7049835575672,803.4850314970505) translate(0 14.4)"/></g><defs><path d="M33-154v-36h34v36H33zM33 0v-36h34V0H33" id="w"/><path d="M205 0l-28-72H64L36 0H1l101-248h38L239 0h-34zm-38-99l-47-123c-12 45-31 82-46 123h93" id="x"/><path d="M30-248c87 1 191-15 191 75 0 78-77 80-158 76V0H30v-248zm33 125c57 0 124 11 124-50 0-59-68-47-124-48v98" id="y"/><path d="M33 0v-248h34V0H33" id="z"/><path d="M233-177c-1 41-23 64-60 70L243 0h-38l-65-103H63V0H30v-248c88 3 205-21 203 71zM63-129c60-2 137 13 137-47 0-61-80-42-137-45v92" id="A"/><path d="M100-194c63 0 86 42 84 106H49c0 40 14 67 53 68 26 1 43-12 49-29l28 8c-11 28-37 45-77 45C44 4 14-33 15-96c1-61 26-98 85-98zm52 81c6-60-76-77-97-28-3 7-6 17-6 28h103" id="B"/><path d="M145-31C134-9 116 4 85 4 32 4 16-35 15-94c0-59 17-99 70-100 32-1 48 14 60 33 0-11-1-24 2-32h30l-1 268h-32zM93-21c41 0 51-33 51-76s-8-73-50-73c-40 0-46 35-46 75s5 74 45 74" id="C"/><path d="M84 4C-5 8 30-112 23-190h32v120c0 31 7 50 39 49 72-2 45-101 50-169h31l1 190h-30c-1-10 1-25-2-33-11 22-28 36-60 37" id="D"/><path d="M135-143c-3-34-86-38-87 0 15 53 115 12 119 90S17 21 10-45l28-5c4 36 97 45 98 0-10-56-113-15-118-90-4-57 82-63 122-42 12 7 21 19 24 35" id="E"/><path d="M59-47c-2 24 18 29 38 22v24C64 9 27 4 27-40v-127H5v-23h24l9-43h21v43h35v23H59v120" id="F"/><g id="a"><use transform="matrix(0.05,0,0,0.05,0,0)" xlink:href="#w"/><use transform="matrix(0.05,0,0,0.05,5,0)" xlink:href="#x"/><use transform="matrix(0.05,0,0,0.05,17,0)" xlink:href="#y"/><use transform="matrix(0.05,0,0,0.05,29,0)" xlink:href="#z"/><use transform="matrix(0.05,0,0,0.05,34,0)" xlink:href="#A"/><use transform="matrix(0.05,0,0,0.05,46.95,0)" xlink:href="#B"/><use transform="matrix(0.05,0,0,0.05,56.95,0)" xlink:href="#C"/><use transform="matrix(0.05,0,0,0.05,66.95,0)" xlink:href="#D"/><use transform="matrix(0.05,0,0,0.05,76.95,0)" xlink:href="#B"/><use transform="matrix(0.05,0,0,0.05,86.95,0)" xlink:href="#E"/><use transform="matrix(0.05,0,0,0.05,95.95,0)" xlink:href="#F"/><use transform="matrix(0.05,0,0,0.05,100.95,0)" xlink:href="#E"/><path d="M-.9 1.25h111.75v1.32H-.9z"/></g><path d="M100-194c62-1 85 37 85 99 1 63-27 99-86 99S16-35 15-95c0-66 28-99 85-99zM99-20c44 1 53-31 53-75 0-43-8-75-51-75s-53 32-53 75 10 74 51 75" id="G"/><path d="M117-194c89-4 53 116 60 194h-32v-121c0-31-8-49-39-48C34-167 62-67 57 0H25l-1-190h30c1 10-1 24 2 32 11-22 29-35 61-36" id="H"/><path d="M212-179c-10-28-35-45-73-45-59 0-87 40-87 99 0 60 29 101 89 101 43 0 62-24 78-52l27 14C228-24 195 4 139 4 59 4 22-46 18-125c-6-104 99-153 187-111 19 9 31 26 39 46" id="I"/><path d="M114-163C36-179 61-72 57 0H25l-1-190h30c1 12-1 29 2 39 6-27 23-49 58-41v29" id="J"/><path d="M141-36C126-15 110 5 73 4 37 3 15-17 15-53c-1-64 63-63 125-63 3-35-9-54-41-54-24 1-41 7-42 31l-33-3c5-37 33-52 76-52 45 0 72 20 72 64v82c-1 20 7 32 28 27v20c-31 9-61-2-59-35zM48-53c0 20 12 33 32 33 41-3 63-29 60-74-43 2-92-5-92 41" id="K"/><path d="M30 0v-248h187v28H63v79h144v27H63v87h162V0H30" id="L"/><path d="M141 0L90-78 38 0H4l68-98-65-92h35l48 74 47-74h35l-64 92 68 98h-35" id="M"/><path d="M115-194c55 1 70 41 70 98S169 2 115 4C84 4 66-9 55-30l1 105H24l-1-265h31l2 30c10-21 28-34 59-34zm-8 174c40 0 45-34 45-75s-6-73-45-74c-42 0-51 32-51 76 0 43 10 73 51 73" id="N"/><path d="M24-231v-30h32v30H24zM24 0v-190h32V0H24" id="O"/><path d="M210-169c-67 3-38 105-44 169h-31v-121c0-29-5-50-35-48C34-165 62-65 56 0H25l-1-190h30c1 10-1 24 2 32 10-44 99-50 107 0 11-21 27-35 58-36 85-2 47 119 55 194h-31v-121c0-29-5-49-35-48" id="P"/><path d="M87 75C49 33 22-17 22-94c0-76 28-126 65-167h31c-38 41-64 92-64 168S80 34 118 75H87" id="Q"/><path d="M33-261c38 41 65 92 65 168S71 34 33 75H2C39 34 66-17 66-93S39-220 2-261h31" id="R"/><g id="b"><use transform="matrix(0.05,0,0,0.05,0,0)" xlink:href="#G"/><use transform="matrix(0.05,0,0,0.05,10,0)" xlink:href="#H"/><use transform="matrix(0.05,0,0,0.05,20,0)" xlink:href="#I"/><use transform="matrix(0.05,0,0,0.05,32.95,0)" xlink:href="#J"/><use transform="matrix(0.05,0,0,0.05,38.900000000000006,0)" xlink:href="#B"/><use transform="matrix(0.05,0,0,0.05,48.900000000000006,0)" xlink:href="#K"/><use transform="matrix(0.05,0,0,0.05,58.900000000000006,0)" xlink:href="#F"/><use transform="matrix(0.05,0,0,0.05,63.900000000000006,0)" xlink:href="#B"/><use transform="matrix(0.05,0,0,0.05,73.9,0)" xlink:href="#L"/><use transform="matrix(0.05,0,0,0.05,85.9,0)" xlink:href="#M"/><use transform="matrix(0.05,0,0,0.05,94.9,0)" xlink:href="#N"/><use transform="matrix(0.05,0,0,0.05,104.9,0)" xlink:href="#B"/><use transform="matrix(0.05,0,0,0.05,114.9,0)" xlink:href="#J"/><use transform="matrix(0.05,0,0,0.05,120.85000000000001,0)" xlink:href="#O"/><use transform="matrix(0.05,0,0,0.05,124.80000000000001,0)" xlink:href="#P"/><use transform="matrix(0.05,0,0,0.05,139.75,0)" xlink:href="#B"/><use transform="matrix(0.05,0,0,0.05,149.75,0)" xlink:href="#H"/><use transform="matrix(0.05,0,0,0.05,159.75,0)" xlink:href="#F"/><use transform="matrix(0.05,0,0,0.05,164.75,0)" xlink:href="#Q"/><use transform="matrix(0.05,0,0,0.05,170.7,0)" xlink:href="#R"/></g><path d="M85-194c31 0 48 13 60 33l-1-100h32l1 261h-30c-2-10 0-23-3-31C134-8 116 4 85 4 32 4 16-35 15-94c0-66 23-100 70-100zm9 24c-40 0-46 34-46 75 0 40 6 74 45 74 42 0 51-32 51-76 0-42-9-74-50-73" id="S"/><path d="M30-248c118-7 216 8 213 122C240-48 200 0 122 0H30v-248zM63-27c89 8 146-16 146-99s-60-101-146-95v194" id="T"/><g id="c"><use transform="matrix(0.05,0,0,0.05,0,0)" xlink:href="#E"/><use transform="matrix(0.05,0,0,0.05,9,0)" xlink:href="#B"/><use transform="matrix(0.05,0,0,0.05,19,0)" xlink:href="#H"/><use transform="matrix(0.05,0,0,0.05,29,0)" xlink:href="#S"/><use transform="matrix(0.05,0,0,0.05,39,0)" xlink:href="#L"/><use transform="matrix(0.05,0,0,0.05,51,0)" xlink:href="#M"/><use transform="matrix(0.05,0,0,0.05,60,0)" xlink:href="#N"/><use transform="matrix(0.05,0,0,0.05,70,0)" xlink:href="#B"/><use transform="matrix(0.05,0,0,0.05,80,0)" xlink:href="#J"/><use transform="matrix(0.05,0,0,0.05,85.95,0)" xlink:href="#O"/><use transform="matrix(0.05,0,0,0.05,89.9,0)" xlink:href="#P"/><use transform="matrix(0.05,0,0,0.05,104.85000000000001,0)" xlink:href="#B"/><use transform="matrix(0.05,0,0,0.05,114.85000000000001,0)" xlink:href="#H"/><use transform="matrix(0.05,0,0,0.05,124.85000000000001,0)" xlink:href="#F"/><use transform="matrix(0.05,0,0,0.05,129.85000000000002,0)" xlink:href="#T"/><use transform="matrix(0.05,0,0,0.05,142.8,0)" xlink:href="#K"/><use transform="matrix(0.05,0,0,0.05,152.8,0)" xlink:href="#F"/><use transform="matrix(0.05,0,0,0.05,157.8,0)" xlink:href="#K"/><use transform="matrix(0.05,0,0,0.05,167.8,0)" xlink:href="#Q"/><use transform="matrix(0.05,0,0,0.05,173.75,0)" xlink:href="#B"/><use transform="matrix(0.05,0,0,0.05,183.75,0)" xlink:href="#M"/><use transform="matrix(0.05,0,0,0.05,192.75,0)" xlink:href="#N"/><use transform="matrix(0.05,0,0,0.05,202.75,0)" xlink:href="#B"/><use transform="matrix(0.05,0,0,0.05,212.75,0)" xlink:href="#J"/><use transform="matrix(0.05,0,0,0.05,218.69999999999996,0)" xlink:href="#O"/><use transform="matrix(0.05,0,0,0.05,222.64999999999998,0)" xlink:href="#P"/><use transform="matrix(0.05,0,0,0.05,237.59999999999997,0)" xlink:href="#B"/><use transform="matrix(0.05,0,0,0.05,247.59999999999997,0)" xlink:href="#H"/><use transform="matrix(0.05,0,0,0.05,257.59999999999997,0)" xlink:href="#F"/><use transform="matrix(0.05,0,0,0.05,262.59999999999997,0)" xlink:href="#R"/></g><path d="M160-131c35 5 61 23 61 61C221 17 115-2 30 0v-248c76 3 177-17 177 60 0 33-19 50-47 57zm-97-11c50-1 110 9 110-42 0-47-63-36-110-37v79zm0 115c55-2 124 14 124-45 0-56-70-42-124-44v89" id="U"/><path d="M96-169c-40 0-48 33-48 73s9 75 48 75c24 0 41-14 43-38l32 2c-6 37-31 61-74 61-59 0-76-41-82-99-10-93 101-131 147-64 4 7 5 14 7 22l-32 3c-4-21-16-35-41-35" id="V"/><g id="d"><use transform="matrix(0.05,0,0,0.05,0,0)" xlink:href="#w"/><use transform="matrix(0.05,0,0,0.05,5,0)" xlink:href="#T"/><use transform="matrix(0.05,0,0,0.05,17.950000000000003,0)" xlink:href="#U"/><use transform="matrix(0.05,0,0,0.05,29.950000000000003,0)" xlink:href="#x"/><use transform="matrix(0.05,0,0,0.05,41.95,0)" xlink:href="#V"/><use transform="matrix(0.05,0,0,0.05,50.95,0)" xlink:href="#V"/><use transform="matrix(0.05,0,0,0.05,59.95,0)" xlink:href="#B"/><use transform="matrix(0.05,0,0,0.05,69.95,0)" xlink:href="#E"/><use transform="matrix(0.05,0,0,0.05,78.95,0)" xlink:href="#E"/><path d="M-.9 1.25h89.75v1.32H-.9z"/></g><path d="M177-190C167-65 218 103 67 71c-23-6-38-20-44-43l32-5c15 47 100 32 89-28v-30C133-14 115 1 83 1 29 1 15-40 15-95c0-56 16-97 71-98 29-1 48 16 59 35 1-10 0-23 2-32h30zM94-22c36 0 50-32 50-73 0-42-14-75-50-75-39 0-46 34-46 75s6 73 46 73" id="W"/><path d="M185-189c-5-48-123-54-124 2 14 75 158 14 163 119 3 78-121 87-175 55-17-10-28-26-33-46l33-7c5 56 141 63 141-1 0-78-155-14-162-118-5-82 145-84 179-34 5 7 8 16 11 25" id="X"/><path d="M140-251c81 0 123 46 123 126C263-53 228-8 163 1c7 30 30 48 69 40v23c-55 16-95-15-103-61C56-3 17-48 17-125c0-80 42-126 123-126zm0 227c63 0 89-41 89-101s-29-99-89-99c-61 0-89 39-89 99S79-25 140-24" id="Y"/><path d="M30 0v-248h33v221h125V0H30" id="Z"/><g id="e"><use transform="matrix(0.05,0,0,0.05,0,0)" xlink:href="#w"/><use transform="matrix(0.05,0,0,0.05,5,0)" xlink:href="#y"/><use transform="matrix(0.05,0,0,0.05,17,0)" xlink:href="#G"/><use transform="matrix(0.05,0,0,0.05,27,0)" xlink:href="#E"/><use transform="matrix(0.05,0,0,0.05,36,0)" xlink:href="#F"/><use transform="matrix(0.05,0,0,0.05,41,0)" xlink:href="#W"/><use transform="matrix(0.05,0,0,0.05,51,0)" xlink:href="#J"/><use transform="matrix(0.05,0,0,0.05,56.95,0)" xlink:href="#B"/><use transform="matrix(0.05,0,0,0.05,66.95,0)" xlink:href="#X"/><use transform="matrix(0.05,0,0,0.05,78.95,0)" xlink:href="#Y"/><use transform="matrix(0.05,0,0,0.05,92.95,0)" xlink:href="#Z"/><path d="M-.9 1.25h104.1v1.32H-.9z"/></g><path d="M115-194c53 0 69 39 70 98 0 66-23 100-70 100C84 3 66-7 56-30L54 0H23l1-261h32v101c10-23 28-34 59-34zm-8 174c40 0 45-34 45-75 0-40-5-75-45-74-42 0-51 32-51 76 0 43 10 73 51 73" id="aa"/><g id="f"><use transform="matrix(0.05,0,0,0.05,0,0)" xlink:href="#T"/><use transform="matrix(0.05,0,0,0.05,12.950000000000001,0)" xlink:href="#K"/><use transform="matrix(0.05,0,0,0.05,22.950000000000003,0)" xlink:href="#F"/><use transform="matrix(0.05,0,0,0.05,27.950000000000003,0)" xlink:href="#K"/><use transform="matrix(0.05,0,0,0.05,37.95,0)" xlink:href="#aa"/><use transform="matrix(0.05,0,0,0.05,47.95,0)" xlink:href="#K"/><use transform="matrix(0.05,0,0,0.05,57.95,0)" xlink:href="#E"/><use transform="matrix(0.05,0,0,0.05,66.95,0)" xlink:href="#B"/><path d="M-.9 1.25h78.75v1.32H-.9z"/></g><path d="M0 4l72-265h28L28 4H0" id="ab"/><g id="g"><use transform="matrix(0.05,0,0,0.05,0,0)" xlink:href="#B"/><use transform="matrix(0.05,0,0,0.05,10,0)" xlink:href="#M"/><use transform="matrix(0.05,0,0,0.05,19,0)" xlink:href="#N"/><use transform="matrix(0.05,0,0,0.05,29,0)" xlink:href="#B"/><use transform="matrix(0.05,0,0,0.05,39,0)" xlink:href="#J"/><use transform="matrix(0.05,0,0,0.05,44.95,0)" xlink:href="#O"/><use transform="matrix(0.05,0,0,0.05,48.900000000000006,0)" xlink:href="#P"/><use transform="matrix(0.05,0,0,0.05,63.85,0)" xlink:href="#B"/><use transform="matrix(0.05,0,0,0.05,73.85000000000001,0)" xlink:href="#H"/><use transform="matrix(0.05,0,0,0.05,83.85000000000001,0)" xlink:href="#F"/><use transform="matrix(0.05,0,0,0.05,88.85000000000001,0)" xlink:href="#ab"/><use transform="matrix(0.05,0,0,0.05,93.85000000000001,0)" xlink:href="#V"/><use transform="matrix(0.05,0,0,0.05,102.85000000000001,0)" xlink:href="#J"/><use transform="matrix(0.05,0,0,0.05,108.80000000000001,0)" xlink:href="#B"/><use transform="matrix(0.05,0,0,0.05,118.80000000000001,0)" xlink:href="#K"/><use transform="matrix(0.05,0,0,0.05,128.8,0)" xlink:href="#F"/><use transform="matrix(0.05,0,0,0.05,133.8,0)" xlink:href="#B"/><use transform="matrix(0.05,0,0,0.05,143.8,0)" xlink:href="#Q"/><use transform="matrix(0.05,0,0,0.05,149.75,0)" xlink:href="#B"/><use transform="matrix(0.05,0,0,0.05,159.75,0)" xlink:href="#M"/><use transform="matrix(0.05,0,0,0.05,168.75,0)" xlink:href="#N"/><use transform="matrix(0.05,0,0,0.05,178.75,0)" xlink:href="#B"/><use transform="matrix(0.05,0,0,0.05,188.75,0)" xlink:href="#J"/><use transform="matrix(0.05,0,0,0.05,194.7,0)" xlink:href="#O"/><use transform="matrix(0.05,0,0,0.05,198.64999999999998,0)" xlink:href="#P"/><use transform="matrix(0.05,0,0,0.05,213.59999999999997,0)" xlink:href="#B"/><use transform="matrix(0.05,0,0,0.05,223.59999999999997,0)" xlink:href="#H"/><use transform="matrix(0.05,0,0,0.05,233.59999999999997,0)" xlink:href="#F"/><use transform="matrix(0.05,0,0,0.05,238.59999999999997,0)" xlink:href="#R"/></g><path d="M137 0h-34L2-248h35l83 218 83-218h36" id="ac"/><path d="M206 0h-36l-40-164L89 0H53L-1-190h32L70-26l43-164h34l41 164 42-164h31" id="ad"/><g id="h"><use transform="matrix(0.05,0,0,0.05,0,0)" xlink:href="#w"/><use transform="matrix(0.05,0,0,0.05,5,0)" xlink:href="#I"/><use transform="matrix(0.05,0,0,0.05,17.950000000000003,0)" xlink:href="#J"/><use transform="matrix(0.05,0,0,0.05,23.900000000000002,0)" xlink:href="#B"/><use transform="matrix(0.05,0,0,0.05,33.900000000000006,0)" xlink:href="#K"/><use transform="matrix(0.05,0,0,0.05,43.900000000000006,0)" xlink:href="#F"/><use transform="matrix(0.05,0,0,0.05,48.900000000000006,0)" xlink:href="#B"/><use transform="matrix(0.05,0,0,0.05,58.900000000000006,0)" xlink:href="#L"/><use transform="matrix(0.05,0,0,0.05,70.9,0)" xlink:href="#M"/><use transform="matrix(0.05,0,0,0.05,79.9,0)" xlink:href="#N"/><use transform="matrix(0.05,0,0,0.05,89.9,0)" xlink:href="#B"/><use transform="matrix(0.05,0,0,0.05,99.9,0)" xlink:href="#J"/><use transform="matrix(0.05,0,0,0.05,105.85000000000001,0)" xlink:href="#O"/><use transform="matrix(0.05,0,0,0.05,109.80000000000001,0)" xlink:href="#P"/><use transform="matrix(0.05,0,0,0.05,124.75,0)" xlink:href="#B"/><use transform="matrix(0.05,0,0,0.05,134.75,0)" xlink:href="#H"/><use transform="matrix(0.05,0,0,0.05,144.75,0)" xlink:href="#F"/><use transform="matrix(0.05,0,0,0.05,149.75,0)" xlink:href="#ac"/><use transform="matrix(0.05,0,0,0.05,161.4,0)" xlink:href="#O"/><use transform="matrix(0.05,0,0,0.05,165.35,0)" xlink:href="#B"/><use transform="matrix(0.05,0,0,0.05,175.35,0)" xlink:href="#ad"/><path d="M-.9 1.25h190.1v1.32H-.9z"/></g><g id="i"><use transform="matrix(0.05,0,0,0.05,0,0)" xlink:href="#w"/><use transform="matrix(0.05,0,0,0.05,5,0)" xlink:href="#L"/><use transform="matrix(0.05,0,0,0.05,17,0)" xlink:href="#M"/><use transform="matrix(0.05,0,0,0.05,26,0)" xlink:href="#N"/><use transform="matrix(0.05,0,0,0.05,36,0)" xlink:href="#B"/><use transform="matrix(0.05,0,0,0.05,46,0)" xlink:href="#J"/><use transform="matrix(0.05,0,0,0.05,51.95,0)" xlink:href="#O"/><use transform="matrix(0.05,0,0,0.05,55.900000000000006,0)" xlink:href="#P"/><use transform="matrix(0.05,0,0,0.05,70.85000000000001,0)" xlink:href="#B"/><use transform="matrix(0.05,0,0,0.05,80.85000000000001,0)" xlink:href="#H"/><use transform="matrix(0.05,0,0,0.05,90.85000000000001,0)" xlink:href="#F"/><use transform="matrix(0.05,0,0,0.05,95.85000000000001,0)" xlink:href="#x"/><use transform="matrix(0.05,0,0,0.05,107.85000000000001,0)" xlink:href="#y"/><use transform="matrix(0.05,0,0,0.05,119.85000000000001,0)" xlink:href="#z"/><path d="M-.9 1.25h126.65v1.32H-.9z"/></g><path d="M-5 72V49h209v23H-5" id="ae"/><g id="j"><use transform="matrix(0.05,0,0,0.05,0,0)" xlink:href="#K"/><use transform="matrix(0.05,0,0,0.05,10,0)" xlink:href="#S"/><use transform="matrix(0.05,0,0,0.05,20,0)" xlink:href="#S"/><use transform="matrix(0.05,0,0,0.05,30,0)" xlink:href="#ae"/><use transform="matrix(0.05,0,0,0.05,40,0)" xlink:href="#B"/><use transform="matrix(0.05,0,0,0.05,50,0)" xlink:href="#M"/><use transform="matrix(0.05,0,0,0.05,59,0)" xlink:href="#N"/><use transform="matrix(0.05,0,0,0.05,69,0)" xlink:href="#B"/><use transform="matrix(0.05,0,0,0.05,79,0)" xlink:href="#J"/><use transform="matrix(0.05,0,0,0.05,84.95,0)" xlink:href="#O"/><use transform="matrix(0.05,0,0,0.05,88.9,0)" xlink:href="#P"/><use transform="matrix(0.05,0,0,0.05,103.85000000000001,0)" xlink:href="#B"/><use transform="matrix(0.05,0,0,0.05,113.85000000000001,0)" xlink:href="#H"/><use transform="matrix(0.05,0,0,0.05,123.85000000000001,0)" xlink:href="#F"/><use transform="matrix(0.05,0,0,0.05,128.85000000000002,0)" xlink:href="#Q"/><use transform="matrix(0.05,0,0,0.05,134.8,0)" xlink:href="#B"/><use transform="matrix(0.05,0,0,0.05,144.8,0)" xlink:href="#M"/><use transform="matrix(0.05,0,0,0.05,153.8,0)" xlink:href="#N"/><use transform="matrix(0.05,0,0,0.05,163.8,0)" xlink:href="#B"/><use transform="matrix(0.05,0,0,0.05,173.8,0)" xlink:href="#J"/><use transform="matrix(0.05,0,0,0.05,179.75,0)" xlink:href="#O"/><use transform="matrix(0.05,0,0,0.05,183.7,0)" xlink:href="#P"/><use transform="matrix(0.05,0,0,0.05,198.64999999999998,0)" xlink:href="#B"/><use transform="matrix(0.05,0,0,0.05,208.64999999999998,0)" xlink:href="#H"/><use transform="matrix(0.05,0,0,0.05,218.64999999999998,0)" xlink:href="#F"/><use transform="matrix(0.05,0,0,0.05,223.64999999999998,0)" xlink:href="#R"/></g><g id="k"><use transform="matrix(0.05,0,0,0.05,0,0)" xlink:href="#K"/><use transform="matrix(0.05,0,0,0.05,10,0)" xlink:href="#S"/><use transform="matrix(0.05,0,0,0.05,20,0)" xlink:href="#S"/></g><g id="l"><use transform="matrix(0.05,0,0,0.05,0,0)" xlink:href="#L"/><use transform="matrix(0.05,0,0,0.05,12,0)" xlink:href="#M"/><use transform="matrix(0.05,0,0,0.05,21,0)" xlink:href="#N"/><use transform="matrix(0.05,0,0,0.05,31,0)" xlink:href="#B"/><use transform="matrix(0.05,0,0,0.05,41,0)" xlink:href="#J"/><use transform="matrix(0.05,0,0,0.05,46.95,0)" xlink:href="#O"/><use transform="matrix(0.05,0,0,0.05,50.900000000000006,0)" xlink:href="#P"/><use transform="matrix(0.05,0,0,0.05,65.85000000000001,0)" xlink:href="#B"/><use transform="matrix(0.05,0,0,0.05,75.85000000000001,0)" xlink:href="#H"/><use transform="matrix(0.05,0,0,0.05,85.85000000000001,0)" xlink:href="#F"/></g><g id="m"><use transform="matrix(0.05,0,0,0.05,0,0)" xlink:href="#E"/><use transform="matrix(0.05,0,0,0.05,9,0)" xlink:href="#D"/><use transform="matrix(0.05,0,0,0.05,19,0)" xlink:href="#V"/><use transform="matrix(0.05,0,0,0.05,28,0)" xlink:href="#V"/><use transform="matrix(0.05,0,0,0.05,37,0)" xlink:href="#B"/><use transform="matrix(0.05,0,0,0.05,47,0)" xlink:href="#E"/><use transform="matrix(0.05,0,0,0.05,56,0)" xlink:href="#E"/></g><path d="M106-169C34-169 62-67 57 0H25v-261h32l-1 103c12-21 28-36 61-36 89 0 53 116 60 194h-32v-121c2-32-8-49-39-48" id="af"/><path d="M24 0v-261h32V0H24" id="ag"/><g id="n"><use transform="matrix(0.05,0,0,0.05,0,0)" xlink:href="#w"/><use transform="matrix(0.05,0,0,0.05,5,0)" xlink:href="#L"/><use transform="matrix(0.05,0,0,0.05,17,0)" xlink:href="#M"/><use transform="matrix(0.05,0,0,0.05,26,0)" xlink:href="#N"/><use transform="matrix(0.05,0,0,0.05,36,0)" xlink:href="#B"/><use transform="matrix(0.05,0,0,0.05,46,0)" xlink:href="#J"/><use transform="matrix(0.05,0,0,0.05,51.95,0)" xlink:href="#O"/><use transform="matrix(0.05,0,0,0.05,55.900000000000006,0)" xlink:href="#P"/><use transform="matrix(0.05,0,0,0.05,70.85000000000001,0)" xlink:href="#B"/><use transform="matrix(0.05,0,0,0.05,80.85000000000001,0)" xlink:href="#H"/><use transform="matrix(0.05,0,0,0.05,90.85000000000001,0)" xlink:href="#F"/><use transform="matrix(0.05,0,0,0.05,95.85000000000001,0)" xlink:href="#X"/><use transform="matrix(0.05,0,0,0.05,107.85000000000001,0)" xlink:href="#V"/><use transform="matrix(0.05,0,0,0.05,116.85000000000001,0)" xlink:href="#af"/><use transform="matrix(0.05,0,0,0.05,126.85000000000001,0)" xlink:href="#B"/><use transform="matrix(0.05,0,0,0.05,136.85000000000002,0)" xlink:href="#S"/><use transform="matrix(0.05,0,0,0.05,146.85000000000002,0)" xlink:href="#D"/><use transform="matrix(0.05,0,0,0.05,156.85000000000002,0)" xlink:href="#ag"/><use transform="matrix(0.05,0,0,0.05,160.8,0)" xlink:href="#B"/><use transform="matrix(0.05,0,0,0.05,170.8,0)" xlink:href="#J"/><path d="M-.9 1.25h178.55v1.32H-.9z"/></g><g id="o"><use transform="matrix(0.05,0,0,0.05,0,0)" xlink:href="#E"/><use transform="matrix(0.05,0,0,0.05,9,0)" xlink:href="#V"/><use transform="matrix(0.05,0,0,0.05,18,0)" xlink:href="#af"/><use transform="matrix(0.05,0,0,0.05,28,0)" xlink:href="#B"/><use transform="matrix(0.05,0,0,0.05,38,0)" xlink:href="#S"/><use transform="matrix(0.05,0,0,0.05,48,0)" xlink:href="#D"/><use transform="matrix(0.05,0,0,0.05,58,0)" xlink:href="#ag"/><use transform="matrix(0.05,0,0,0.05,61.95,0)" xlink:href="#B"/><use transform="matrix(0.05,0,0,0.05,71.95,0)" xlink:href="#Q"/><use transform="matrix(0.05,0,0,0.05,77.9,0)" xlink:href="#B"/><use transform="matrix(0.05,0,0,0.05,87.9,0)" xlink:href="#M"/><use transform="matrix(0.05,0,0,0.05,96.9,0)" xlink:href="#N"/><use transform="matrix(0.05,0,0,0.05,106.9,0)" xlink:href="#B"/><use transform="matrix(0.05,0,0,0.05,116.9,0)" xlink:href="#J"/><use transform="matrix(0.05,0,0,0.05,122.85000000000001,0)" xlink:href="#O"/><use transform="matrix(0.05,0,0,0.05,126.80000000000001,0)" xlink:href="#P"/><use transform="matrix(0.05,0,0,0.05,141.75,0)" xlink:href="#B"/><use transform="matrix(0.05,0,0,0.05,151.75,0)" xlink:href="#H"/><use transform="matrix(0.05,0,0,0.05,161.75,0)" xlink:href="#F"/><use transform="matrix(0.05,0,0,0.05,166.75,0)" xlink:href="#R"/></g><path d="M140-251c81 0 123 46 123 126C263-46 219 4 140 4 59 4 17-45 17-125s42-126 123-126zm0 227c63 0 89-41 89-101s-29-99-89-99c-61 0-89 39-89 99S79-25 140-24" id="ah"/><path d="M240 0l2-218c-23 76-54 145-80 218h-23L58-218 59 0H30v-248h44l77 211c21-75 51-140 76-211h43V0h-30" id="ai"/><g id="p"><use transform="matrix(0.05,0,0,0.05,0,0)" xlink:href="#w"/><use transform="matrix(0.05,0,0,0.05,5,0)" xlink:href="#ah"/><use transform="matrix(0.05,0,0,0.05,19,0)" xlink:href="#T"/><use transform="matrix(0.05,0,0,0.05,31.950000000000003,0)" xlink:href="#ai"/><use transform="matrix(0.05,0,0,0.05,46.900000000000006,0)" xlink:href="#X"/><use transform="matrix(0.05,0,0,0.05,58.900000000000006,0)" xlink:href="#V"/><use transform="matrix(0.05,0,0,0.05,67.9,0)" xlink:href="#af"/><use transform="matrix(0.05,0,0,0.05,77.9,0)" xlink:href="#B"/><use transform="matrix(0.05,0,0,0.05,87.9,0)" xlink:href="#S"/><use transform="matrix(0.05,0,0,0.05,97.9,0)" xlink:href="#D"/><use transform="matrix(0.05,0,0,0.05,107.9,0)" xlink:href="#ag"/><use transform="matrix(0.05,0,0,0.05,111.85000000000001,0)" xlink:href="#B"/><use transform="matrix(0.05,0,0,0.05,121.85000000000001,0)" xlink:href="#J"/><path d="M-.9 1.25h129.6v1.32H-.9z"/></g><path d="M68-38c1 34 0 65-14 84H32c9-13 17-26 17-46H33v-38h35" id="aj"/><g id="q"><use transform="matrix(0.05,0,0,0.05,0,0)" xlink:href="#E"/><use transform="matrix(0.05,0,0,0.05,9,0)" xlink:href="#V"/><use transform="matrix(0.05,0,0,0.05,18,0)" xlink:href="#af"/><use transform="matrix(0.05,0,0,0.05,28,0)" xlink:href="#B"/><use transform="matrix(0.05,0,0,0.05,38,0)" xlink:href="#S"/><use transform="matrix(0.05,0,0,0.05,48,0)" xlink:href="#D"/><use transform="matrix(0.05,0,0,0.05,58,0)" xlink:href="#ag"/><use transform="matrix(0.05,0,0,0.05,61.95,0)" xlink:href="#B"/><use transform="matrix(0.05,0,0,0.05,71.95,0)" xlink:href="#Q"/><use transform="matrix(0.05,0,0,0.05,77.9,0)" xlink:href="#G"/><use transform="matrix(0.05,0,0,0.05,87.9,0)" xlink:href="#S"/><use transform="matrix(0.05,0,0,0.05,97.9,0)" xlink:href="#P"/><use transform="matrix(0.05,0,0,0.05,112.85000000000001,0)" xlink:href="#aj"/></g><path d="M27 0v-27h64v-190l-56 39v-29l58-41h29v221h61V0H27" id="ak"/><g id="r"><use transform="matrix(0.05,0,0,0.05,0,0)" xlink:href="#E"/><use transform="matrix(0.05,0,0,0.05,9,0)" xlink:href="#D"/><use transform="matrix(0.05,0,0,0.05,19,0)" xlink:href="#aa"/><use transform="matrix(0.05,0,0,0.05,29,0)" xlink:href="#E"/><use transform="matrix(0.05,0,0,0.05,38,0)" xlink:href="#N"/><use transform="matrix(0.05,0,0,0.05,48,0)" xlink:href="#K"/><use transform="matrix(0.05,0,0,0.05,58,0)" xlink:href="#V"/><use transform="matrix(0.05,0,0,0.05,67,0)" xlink:href="#B"/><use transform="matrix(0.05,0,0,0.05,77,0)" xlink:href="#ak"/><use transform="matrix(0.05,0,0,0.05,87,0)" xlink:href="#aj"/></g><g id="s"><use transform="matrix(0.05,0,0,0.05,0,0)" xlink:href="#N"/><use transform="matrix(0.05,0,0,0.05,10,0)" xlink:href="#K"/><use transform="matrix(0.05,0,0,0.05,20,0)" xlink:href="#J"/><use transform="matrix(0.05,0,0,0.05,25.950000000000003,0)" xlink:href="#K"/><use transform="matrix(0.05,0,0,0.05,35.95,0)" xlink:href="#P"/><use transform="matrix(0.05,0,0,0.05,50.900000000000006,0)" xlink:href="#B"/><use transform="matrix(0.05,0,0,0.05,60.900000000000006,0)" xlink:href="#F"/><use transform="matrix(0.05,0,0,0.05,65.9,0)" xlink:href="#B"/><use transform="matrix(0.05,0,0,0.05,75.9,0)" xlink:href="#J"/><use transform="matrix(0.05,0,0,0.05,81.85000000000001,0)" xlink:href="#E"/><use transform="matrix(0.05,0,0,0.05,90.85000000000001,0)" xlink:href="#R"/></g><path d="M101-251c82-7 93 87 43 132L82-64C71-53 59-42 53-27h129V0H18c2-99 128-94 128-182 0-28-16-43-45-43s-46 15-49 41l-32-3c6-41 34-60 81-64" id="al"/><g id="t"><use transform="matrix(0.05,0,0,0.05,0,0)" xlink:href="#E"/><use transform="matrix(0.05,0,0,0.05,9,0)" xlink:href="#D"/><use transform="matrix(0.05,0,0,0.05,19,0)" xlink:href="#aa"/><use transform="matrix(0.05,0,0,0.05,29,0)" xlink:href="#E"/><use transform="matrix(0.05,0,0,0.05,38,0)" xlink:href="#N"/><use transform="matrix(0.05,0,0,0.05,48,0)" xlink:href="#K"/><use transform="matrix(0.05,0,0,0.05,58,0)" xlink:href="#V"/><use transform="matrix(0.05,0,0,0.05,67,0)" xlink:href="#B"/><use transform="matrix(0.05,0,0,0.05,77,0)" xlink:href="#al"/><use transform="matrix(0.05,0,0,0.05,87,0)" xlink:href="#aj"/></g><path d="M101-251c68 0 85 55 85 127S166 4 100 4C33 4 14-52 14-124c0-73 17-127 87-127zm-1 229c47 0 54-49 54-102s-4-102-53-102c-51 0-55 48-55 102 0 53 5 102 54 102" id="am"/><g id="u"><use transform="matrix(0.05,0,0,0.05,0,0)" xlink:href="#af"/><use transform="matrix(0.05,0,0,0.05,10,0)" xlink:href="#F"/><use transform="matrix(0.05,0,0,0.05,15,0)" xlink:href="#F"/><use transform="matrix(0.05,0,0,0.05,20,0)" xlink:href="#N"/><use transform="matrix(0.05,0,0,0.05,30,0)" xlink:href="#A"/><use transform="matrix(0.05,0,0,0.05,42.95,0)" xlink:href="#B"/><use transform="matrix(0.05,0,0,0.05,52.95,0)" xlink:href="#E"/><use transform="matrix(0.05,0,0,0.05,61.95,0)" xlink:href="#N"/><use transform="matrix(0.05,0,0,0.05,71.95,0)" xlink:href="#G"/><use transform="matrix(0.05,0,0,0.05,81.95,0)" xlink:href="#H"/><use transform="matrix(0.05,0,0,0.05,91.95,0)" xlink:href="#E"/><use transform="matrix(0.05,0,0,0.05,100.95,0)" xlink:href="#B"/><use transform="matrix(0.05,0,0,0.05,110.95,0)" xlink:href="#Q"/><use transform="matrix(0.05,0,0,0.05,116.9,0)" xlink:href="#al"/><use transform="matrix(0.05,0,0,0.05,126.9,0)" xlink:href="#am"/><use transform="matrix(0.05,0,0,0.05,136.9,0)" xlink:href="#am"/><use transform="matrix(0.05,0,0,0.05,146.9,0)" xlink:href="#R"/></g><path d="M109-170H84l-4-78h32zm-65 0H19l-4-78h33" id="an"/><g id="v"><use transform="matrix(0.05,0,0,0.05,0,0)" xlink:href="#J"/><use transform="matrix(0.05,0,0,0.05,5.95,0)" xlink:href="#B"/><use transform="matrix(0.05,0,0,0.05,15.949999999999998,0)" xlink:href="#S"/><use transform="matrix(0.05,0,0,0.05,25.950000000000003,0)" xlink:href="#O"/><use transform="matrix(0.05,0,0,0.05,29.899999999999995,0)" xlink:href="#J"/><use transform="matrix(0.05,0,0,0.05,35.85,0)" xlink:href="#B"/><use transform="matrix(0.05,0,0,0.05,45.85,0)" xlink:href="#V"/><use transform="matrix(0.05,0,0,0.05,54.85,0)" xlink:href="#F"/><use transform="matrix(0.05,0,0,0.05,59.85,0)" xlink:href="#Q"/><use transform="matrix(0.05,0,0,0.05,65.8,0)" xlink:href="#an"/><use transform="matrix(0.05,0,0,0.05,72.14999999999999,0)" xlink:href="#ab"/><use transform="matrix(0.05,0,0,0.05,77.14999999999999,0)" xlink:href="#S"/><use transform="matrix(0.05,0,0,0.05,87.14999999999999,0)" xlink:href="#K"/><use transform="matrix(0.05,0,0,0.05,97.14999999999999,0)" xlink:href="#E"/><use transform="matrix(0.05,0,0,0.05,106.14999999999998,0)" xlink:href="#af"/><use transform="matrix(0.05,0,0,0.05,116.14999999999998,0)" xlink:href="#aa"/><use transform="matrix(0.05,0,0,0.05,126.14999999999998,0)" xlink:href="#G"/><use transform="matrix(0.05,0,0,0.05,136.14999999999998,0)" xlink:href="#K"/><use transform="matrix(0.05,0,0,0.05,146.14999999999998,0)" xlink:href="#J"/><use transform="matrix(0.05,0,0,0.05,152.09999999999997,0)" xlink:href="#S"/><use transform="matrix(0.05,0,0,0.05,162.09999999999997,0)" xlink:href="#an"/><use transform="matrix(0.05,0,0,0.05,168.44999999999996,0)" xlink:href="#R"/></g></defs></g></svg>