<svg xmlns="http://www.w3.org/2000/svg" xmlns:xlink="http://www.w3.org/1999/xlink" xmlns:lucid="lucid" width="1585.81" height="656.63"><g transform="translate(344.8413270737583 10.556714674827617)" lucid:page-tab-id="vPHms2bTQKVA"><path d="M-324.84 15.08h160v120h-160z" stroke="#333" stroke-width="2" fill="#fff"/><use xlink:href="#a" transform="matrix(1,0,0,1,-324.8413270737583,15.076498454937337) translate(14.279999999999996 63.15)"/><path d="M102.06 10h197.02v120H102.06z" stroke="#333" stroke-width="2" fill="#fff"/><use xlink:href="#b" transform="matrix(1,0,0,1,102.06430798885413,9.9876897017607) translate(43.529999999999994 63.15)"/><path d="M-264.84 215.08h40v312.45h-40z" stroke="#333" stroke-width="2" fill="#fff"/><path d="M200.57 132v11.32m0 11.33v22.67m0 11.33v22.66m0 11.33v22.67m0 11.33V268" stroke="#3a414a" stroke-width="2" fill="none"/><path d="M201.57 132h-2v-1h2z" stroke="#3a414a" stroke-width=".05" fill="#3a414a"/><path d="M200.57 267.96V269M-244.84 137.08v8.44m0 8.44v16.9m0 8.44v16.9m0 8.43v8.45" stroke="#3a414a" stroke-width="2" fill="none"/><path d="M-243.84 137.1h-2v-1.02h2z" stroke="#3a414a" stroke-width=".05" fill="#3a414a"/><path d="M-244.84 213.05v1.03" stroke="#3a414a" stroke-width="2" fill="none"/><path d="M182.06 270h40v77.53h-40zM476 10h160v120H476z" stroke="#333" stroke-width="2" fill="#fff"/><use xlink:href="#c" transform="matrix(1,0,0,1,475.9865017101383,9.9876897017607) translate(17.57999999999999 63.15)"/><path d="M550.35 132v18.57m0 18.58v37.17m0 18.58v37.17m0 18.58v37.17m0 18.58V355" stroke="#3a414a" stroke-width="2" fill="none"/><path d="M551.35 132h-2v-1h2z" stroke="#3a414a" stroke-width=".05" fill="#3a414a"/><path d="M550.35 354.96V356M224.06 324.87h309.1" stroke="#3a414a" stroke-width="2" fill="none"/><path d="M224.1 325.87h-1.04v-2h1.03z" stroke="#3a414a" stroke-width=".05" fill="#3a414a"/><path d="M515.8 335.05l17.22-10.2-17.2-10.17" stroke="#3a414a" stroke-width="2" fill="none"/><use xlink:href="#d" transform="matrix(1,0,0,1,305.1754048494962,299.2654274116902) translate(0 14.4)"/><path d="M536 289.44h40V486.9h-40zM760.05 9.44h180v120h-180z" stroke="#333" stroke-width="2" fill="#fff"/><use xlink:href="#e" transform="matrix(1,0,0,1,760.0522901646582,9.443285325172383) translate(48.504999999999995 63.15)"/><path d="M843.7 131.44v19.7m0 19.7v39.4m0 19.7v39.38m0 19.7v39.4m0 19.7v39.38m0 19.7v19.7" stroke="#3a414a" stroke-width="2" fill="none"/><path d="M844.7 131.47h-2v-1.03h2zM844.7 427.9h-2v-1.03h2z" stroke="#3a414a" stroke-width=".05" fill="#3a414a"/><path d="M826.54 346.9h40v80h-40z" stroke="#333" stroke-width="2" fill="#fff"/><path d="M578 368.23h229.04" stroke="#3a414a" stroke-width="2" fill="none"/><path d="M578 369.23h-1v-2h1z" stroke="#3a414a" stroke-width=".05" fill="#3a414a"/><path d="M822.3 368.23l-14.26 4.64v-9.27z" stroke="#3a414a" stroke-width="2" fill="#3a414a"/><use xlink:href="#f" transform="matrix(1,0,0,1,588.9392724915041,337.9969593662956) translate(0 14.4)"/><path d="M534 432.1H224.87" stroke="#3a414a" stroke-width="2" fill="none"/><path d="M535 433.1h-1.04v-2H535z" stroke="#3a414a" stroke-width=".05" fill="#3a414a"/><path d="M242.24 421.93l-17.2 10.18 17.2 10.2" stroke="#3a414a" stroke-width="2" fill="none"/><use xlink:href="#g" transform="matrix(1,0,0,1,248.67540484949623,436.10995199184117) translate(0 14.4)"/><use xlink:href="#h" transform="matrix(1,0,0,1,248.67540484949623,436.10995199184117) translate(224.74999999999997 14.4)"/><path d="M824.54 413.02H595.5" stroke="#3a414a" stroke-width="2" fill="none"/><path d="M825.54 414.02h-1.02v-2h1.02z" stroke="#3a414a" stroke-width=".05" fill="#3a414a"/><path d="M580.22 413.02l14.27-4.63v9.26z" stroke="#3a414a" stroke-width="2" fill="#3a414a"/><use xlink:href="#i" transform="matrix(1,0,0,1,652.3392724915041,417.0211432386609) translate(0 14.4)"/><path d="M1032.35 10h188.62v120h-188.62z" stroke="#333" stroke-width="2" fill="#fff"/><use xlink:href="#j" transform="matrix(1,0,0,1,1032.3474028010178,9.9876897017607) translate(43.355 51.9)"/><use xlink:href="#k" transform="matrix(1,0,0,1,1032.3474028010178,9.9876897017607) translate(56.029999999999994 73.5)"/><path d="M1117.44 132v17.94m0 17.96v35.9m0 17.96v35.9m0 17.96v35.9m0 17.97v17.94" stroke="#3a414a" stroke-width="2" fill="none"/><path d="M1118.44 132h-2v-1h2zM1118.44 348.44h-2v-1.02h2z" stroke="#3a414a" stroke-width=".05" fill="#3a414a"/><path d="M1095.05 349.44h40v80h-40z" stroke="#333" stroke-width="2" fill="#fff"/><path d="M868.54 391.5h207" stroke="#3a414a" stroke-width="2" fill="none"/><path d="M868.57 392.5h-1.03v-2h1.03z" stroke="#3a414a" stroke-width=".05" fill="#3a414a"/><path d="M1090.82 391.5l-14.27 4.64v-9.27z" stroke="#3a414a" stroke-width="2" fill="#3a414a"/><use xlink:href="#l" transform="matrix(1,0,0,1,899.4473673036686,365.9044164702085) translate(0 14.4)"/><use xlink:href="#m" transform="matrix(1,0,0,1,899.4473673036686,365.9044164702085) translate(64.85 14.4)"/><path d="M-244.84 529.53v11.62m0 11.6V576m0 11.6v23.24m0 11.62v11.62" stroke="#3a414a" stroke-width="2" fill="none"/><path d="M-243.84 529.56h-2v-1.03h2z" stroke="#3a414a" stroke-width=".05" fill="#3a414a"/><path d="M-244.84 634.05v1.03M202.06 349.53v8.6m0 8.6v17.2m0 8.6v8.6" stroke="#3a414a" stroke-width="2" fill="none"/><path d="M203.06 349.56h-2v-1.03h2zM203.06 402.12h-2v-1.02h2z" stroke="#3a414a" stroke-width=".05" fill="#3a414a"/><path d="M556 488.9v11.63m0 11.63v23.25m0 11.64v23.26m0 11.63v23.25m0 11.63v11.64" stroke="#3a414a" stroke-width="2" fill="none"/><path d="M557 488.93h-2v-1.03h2z" stroke="#3a414a" stroke-width=".05" fill="#3a414a"/><path d="M556 628.42v1.02M846.54 428.9v9.97m0 9.98v19.95m0 9.97v19.95m0 9.98V528.65m0 9.97v19.95m0 9.97v19.95m0 9.97v9.97" stroke="#3a414a" stroke-width="2" fill="none"/><path d="M847.54 428.93h-2v-1.03h2z" stroke="#3a414a" stroke-width=".05" fill="#3a414a"/><path d="M846.54 608.42v1.02M1115.05 431.44v9.84m0 9.83v19.68m0 9.83v19.68m0 9.83v19.68m0 9.83v19.68m0 9.83v19.68m0 9.83v9.84" stroke="#3a414a" stroke-width="2" fill="none"/><path d="M1116.05 431.47h-2v-1.03h2z" stroke="#3a414a" stroke-width=".05" fill="#3a414a"/><path d="M1115.05 608.42v1.02M-222.84 230.5h33a6 6 0 0 1 6 6v16a6 6 0 0 1-6 6h-15.5" stroke="#3a414a" stroke-width="2" fill="none"/><path d="M-222.82 231.5h-1.02v-2h1.02z" stroke="#3a414a" stroke-width=".05" fill="#3a414a"/><path d="M-220.6 258.5l14.26-4.64v9.27z" stroke="#3a414a" stroke-width="2" fill="#3a414a"/><use xlink:href="#n" transform="matrix(1,0,0,1,-175.8413270737583,233.698640541447) translate(0 14.4)"/><path d="M-222.84 280.87h385.4" stroke="#3a414a" stroke-width="2" fill="none"/><path d="M-222.82 281.87h-1.02v-2h1.02z" stroke="#3a414a" stroke-width=".05" fill="#3a414a"/><path d="M177.83 280.87l-14.27 4.63v-9.27z" stroke="#3a414a" stroke-width="2" fill="#3a414a"/><use xlink:href="#o" transform="matrix(1,0,0,1,-117.18850954245207,255.26542741168657) translate(0 14.4)"/><path d="M182.06 403.12h40v77.55h-40z" stroke="#333" stroke-width="2" fill="#fff"/><path d="M180.06 463.53h-402.08" stroke="#3a414a" stroke-width="2" fill="none"/><path d="M181.06 464.53h-1.02v-2h1.02z" stroke="#3a414a" stroke-width=".05" fill="#3a414a"/><path d="M-204.66 453.35l-17.22 10.18 17.22 10.18" stroke="#3a414a" stroke-width="2" fill="none"/><g><use xlink:href="#p" transform="matrix(1,0,0,1,-119.21350954245209,467.5320940783608) translate(0 14.4)"/><use xlink:href="#q" transform="matrix(1,0,0,1,-119.21350954245209,467.5320940783608) translate(51.9 14.4)"/></g><defs><path d="M33-154v-36h34v36H33zM33 0v-36h34V0H33" id="r"/><path d="M30-248c118-7 216 8 213 122C240-48 200 0 122 0H30v-248zM63-27c89 8 146-16 146-99s-60-101-146-95v194" id="s"/><path d="M141-36C126-15 110 5 73 4 37 3 15-17 15-53c-1-64 63-63 125-63 3-35-9-54-41-54-24 1-41 7-42 31l-33-3c5-37 33-52 76-52 45 0 72 20 72 64v82c-1 20 7 32 28 27v20c-31 9-61-2-59-35zM48-53c0 20 12 33 32 33 41-3 63-29 60-74-43 2-92-5-92 41" id="t"/><path d="M135-143c-3-34-86-38-87 0 15 53 115 12 119 90S17 21 10-45l28-5c4 36 97 45 98 0-10-56-113-15-118-90-4-57 82-63 122-42 12 7 21 19 24 35" id="u"/><path d="M106-169C34-169 62-67 57 0H25v-261h32l-1 103c12-21 28-36 61-36 89 0 53 116 60 194h-32v-121c2-32-8-49-39-48" id="v"/><path d="M115-194c53 0 69 39 70 98 0 66-23 100-70 100C84 3 66-7 56-30L54 0H23l1-261h32v101c10-23 28-34 59-34zm-8 174c40 0 45-34 45-75 0-40-5-75-45-74-42 0-51 32-51 76 0 43 10 73 51 73" id="w"/><path d="M100-194c62-1 85 37 85 99 1 63-27 99-86 99S16-35 15-95c0-66 28-99 85-99zM99-20c44 1 53-31 53-75 0-43-8-75-51-75s-53 32-53 75 10 74 51 75" id="x"/><path d="M114-163C36-179 61-72 57 0H25l-1-190h30c1 12-1 29 2 39 6-27 23-49 58-41v29" id="y"/><path d="M85-194c31 0 48 13 60 33l-1-100h32l1 261h-30c-2-10 0-23-3-31C134-8 116 4 85 4 32 4 16-35 15-94c0-66 23-100 70-100zm9 24c-40 0-46 34-46 75 0 40 6 74 45 74 42 0 51-32 51-76 0-42-9-74-50-73" id="z"/><path d="M137 0h-34L2-248h35l83 218 83-218h36" id="A"/><path d="M24-231v-30h32v30H24zM24 0v-190h32V0H24" id="B"/><path d="M100-194c63 0 86 42 84 106H49c0 40 14 67 53 68 26 1 43-12 49-29l28 8c-11 28-37 45-77 45C44 4 14-33 15-96c1-61 26-98 85-98zm52 81c6-60-76-77-97-28-3 7-6 17-6 28h103" id="C"/><path d="M206 0h-36l-40-164L89 0H53L-1-190h32L70-26l43-164h34l41 164 42-164h31" id="D"/><g id="a"><use transform="matrix(0.05,0,0,0.05,0,0)" xlink:href="#r"/><use transform="matrix(0.05,0,0,0.05,5,0)" xlink:href="#s"/><use transform="matrix(0.05,0,0,0.05,17.950000000000003,0)" xlink:href="#t"/><use transform="matrix(0.05,0,0,0.05,27.950000000000003,0)" xlink:href="#u"/><use transform="matrix(0.05,0,0,0.05,36.95,0)" xlink:href="#v"/><use transform="matrix(0.05,0,0,0.05,46.95,0)" xlink:href="#w"/><use transform="matrix(0.05,0,0,0.05,56.95,0)" xlink:href="#x"/><use transform="matrix(0.05,0,0,0.05,66.95,0)" xlink:href="#t"/><use transform="matrix(0.05,0,0,0.05,76.95,0)" xlink:href="#y"/><use transform="matrix(0.05,0,0,0.05,82.9,0)" xlink:href="#z"/><use transform="matrix(0.05,0,0,0.05,92.9,0)" xlink:href="#A"/><use transform="matrix(0.05,0,0,0.05,104.55000000000001,0)" xlink:href="#B"/><use transform="matrix(0.05,0,0,0.05,108.5,0)" xlink:href="#C"/><use transform="matrix(0.05,0,0,0.05,118.5,0)" xlink:href="#D"/><path d="M-.9 1.25h133.25v1.32H-.9z"/></g><path d="M205 0l-28-72H64L36 0H1l101-248h38L239 0h-34zm-38-99l-47-123c-12 45-31 82-46 123h93" id="E"/><path d="M30-248c87 1 191-15 191 75 0 78-77 80-158 76V0H30v-248zm33 125c57 0 124 11 124-50 0-59-68-47-124-48v98" id="F"/><path d="M33 0v-248h34V0H33" id="G"/><path d="M233-177c-1 41-23 64-60 70L243 0h-38l-65-103H63V0H30v-248c88 3 205-21 203 71zM63-129c60-2 137 13 137-47 0-61-80-42-137-45v92" id="H"/><path d="M145-31C134-9 116 4 85 4 32 4 16-35 15-94c0-59 17-99 70-100 32-1 48 14 60 33 0-11-1-24 2-32h30l-1 268h-32zM93-21c41 0 51-33 51-76s-8-73-50-73c-40 0-46 35-46 75s5 74 45 74" id="I"/><path d="M84 4C-5 8 30-112 23-190h32v120c0 31 7 50 39 49 72-2 45-101 50-169h31l1 190h-30c-1-10 1-25-2-33-11 22-28 36-60 37" id="J"/><path d="M59-47c-2 24 18 29 38 22v24C64 9 27 4 27-40v-127H5v-23h24l9-43h21v43h35v23H59v120" id="K"/><g id="b"><use transform="matrix(0.05,0,0,0.05,0,0)" xlink:href="#r"/><use transform="matrix(0.05,0,0,0.05,5,0)" xlink:href="#E"/><use transform="matrix(0.05,0,0,0.05,17,0)" xlink:href="#F"/><use transform="matrix(0.05,0,0,0.05,29,0)" xlink:href="#G"/><use transform="matrix(0.05,0,0,0.05,34,0)" xlink:href="#H"/><use transform="matrix(0.05,0,0,0.05,46.95,0)" xlink:href="#C"/><use transform="matrix(0.05,0,0,0.05,56.95,0)" xlink:href="#I"/><use transform="matrix(0.05,0,0,0.05,66.95,0)" xlink:href="#J"/><use transform="matrix(0.05,0,0,0.05,76.95,0)" xlink:href="#C"/><use transform="matrix(0.05,0,0,0.05,86.95,0)" xlink:href="#u"/><use transform="matrix(0.05,0,0,0.05,95.95,0)" xlink:href="#K"/><use transform="matrix(0.05,0,0,0.05,100.95,0)" xlink:href="#u"/><path d="M-.9 1.25h111.75v1.32H-.9z"/></g><path d="M30 0v-248h187v28H63v79h144v27H63v87h162V0H30" id="L"/><path d="M141 0L90-78 38 0H4l68-98-65-92h35l48 74 47-74h35l-64 92 68 98h-35" id="M"/><path d="M115-194c55 1 70 41 70 98S169 2 115 4C84 4 66-9 55-30l1 105H24l-1-265h31l2 30c10-21 28-34 59-34zm-8 174c40 0 45-34 45-75s-6-73-45-74c-42 0-51 32-51 76 0 43 10 73 51 73" id="N"/><path d="M210-169c-67 3-38 105-44 169h-31v-121c0-29-5-50-35-48C34-165 62-65 56 0H25l-1-190h30c1 10-1 24 2 32 10-44 99-50 107 0 11-21 27-35 58-36 85-2 47 119 55 194h-31v-121c0-29-5-49-35-48" id="O"/><path d="M117-194c89-4 53 116 60 194h-32v-121c0-31-8-49-39-48C34-167 62-67 57 0H25l-1-190h30c1 10-1 24 2 32 11-22 29-35 61-36" id="P"/><g id="c"><use transform="matrix(0.05,0,0,0.05,0,0)" xlink:href="#r"/><use transform="matrix(0.05,0,0,0.05,5,0)" xlink:href="#L"/><use transform="matrix(0.05,0,0,0.05,17,0)" xlink:href="#M"/><use transform="matrix(0.05,0,0,0.05,26,0)" xlink:href="#N"/><use transform="matrix(0.05,0,0,0.05,36,0)" xlink:href="#C"/><use transform="matrix(0.05,0,0,0.05,46,0)" xlink:href="#y"/><use transform="matrix(0.05,0,0,0.05,51.95,0)" xlink:href="#B"/><use transform="matrix(0.05,0,0,0.05,55.900000000000006,0)" xlink:href="#O"/><use transform="matrix(0.05,0,0,0.05,70.85000000000001,0)" xlink:href="#C"/><use transform="matrix(0.05,0,0,0.05,80.85000000000001,0)" xlink:href="#P"/><use transform="matrix(0.05,0,0,0.05,90.85000000000001,0)" xlink:href="#K"/><use transform="matrix(0.05,0,0,0.05,95.85000000000001,0)" xlink:href="#E"/><use transform="matrix(0.05,0,0,0.05,107.85000000000001,0)" xlink:href="#F"/><use transform="matrix(0.05,0,0,0.05,119.85000000000001,0)" xlink:href="#G"/><path d="M-.9 1.25h126.65v1.32H-.9z"/></g><path d="M0 4l72-265h28L28 4H0" id="Q"/><path d="M177-190C167-65 218 103 67 71c-23-6-38-20-44-43l32-5c15 47 100 32 89-28v-30C133-14 115 1 83 1 29 1 15-40 15-95c0-56 16-97 71-98 29-1 48 16 59 35 1-10 0-23 2-32h30zM94-22c36 0 50-32 50-73 0-42-14-75-50-75-39 0-46 34-46 75s6 73 46 73" id="R"/><path d="M16-82v-28h88v28H16" id="S"/><path d="M24 0v-261h32V0H24" id="T"/><g id="d"><use transform="matrix(0.05,0,0,0.05,0,0)" xlink:href="#Q"/><use transform="matrix(0.05,0,0,0.05,5,0)" xlink:href="#C"/><use transform="matrix(0.05,0,0,0.05,15,0)" xlink:href="#M"/><use transform="matrix(0.05,0,0,0.05,24,0)" xlink:href="#N"/><use transform="matrix(0.05,0,0,0.05,34,0)" xlink:href="#C"/><use transform="matrix(0.05,0,0,0.05,44,0)" xlink:href="#y"/><use transform="matrix(0.05,0,0,0.05,49.95,0)" xlink:href="#B"/><use transform="matrix(0.05,0,0,0.05,53.900000000000006,0)" xlink:href="#O"/><use transform="matrix(0.05,0,0,0.05,68.85000000000001,0)" xlink:href="#C"/><use transform="matrix(0.05,0,0,0.05,78.85000000000001,0)" xlink:href="#P"/><use transform="matrix(0.05,0,0,0.05,88.85000000000001,0)" xlink:href="#K"/><use transform="matrix(0.05,0,0,0.05,93.85000000000001,0)" xlink:href="#Q"/><use transform="matrix(0.05,0,0,0.05,98.85000000000001,0)" xlink:href="#R"/><use transform="matrix(0.05,0,0,0.05,108.85000000000001,0)" xlink:href="#C"/><use transform="matrix(0.05,0,0,0.05,118.85000000000001,0)" xlink:href="#K"/><use transform="matrix(0.05,0,0,0.05,123.85000000000001,0)" xlink:href="#S"/><use transform="matrix(0.05,0,0,0.05,129.8,0)" xlink:href="#t"/><use transform="matrix(0.05,0,0,0.05,139.8,0)" xlink:href="#T"/><use transform="matrix(0.05,0,0,0.05,143.75,0)" xlink:href="#T"/></g><path d="M96-169c-40 0-48 33-48 73s9 75 48 75c24 0 41-14 43-38l32 2c-6 37-31 61-74 61-59 0-76-41-82-99-10-93 101-131 147-64 4 7 5 14 7 22l-32 3c-4-21-16-35-41-35" id="U"/><g id="e"><use transform="matrix(0.05,0,0,0.05,0,0)" xlink:href="#r"/><use transform="matrix(0.05,0,0,0.05,5,0)" xlink:href="#z"/><use transform="matrix(0.05,0,0,0.05,15,0)" xlink:href="#w"/><use transform="matrix(0.05,0,0,0.05,25,0)" xlink:href="#E"/><use transform="matrix(0.05,0,0,0.05,37,0)" xlink:href="#U"/><use transform="matrix(0.05,0,0,0.05,46,0)" xlink:href="#U"/><use transform="matrix(0.05,0,0,0.05,55,0)" xlink:href="#C"/><use transform="matrix(0.05,0,0,0.05,65,0)" xlink:href="#u"/><use transform="matrix(0.05,0,0,0.05,74,0)" xlink:href="#u"/><path d="M-.9 1.25h84.8v1.32H-.9z"/></g><path d="M-5 72V49h209v23H-5" id="V"/><path d="M87 75C49 33 22-17 22-94c0-76 28-126 65-167h31c-38 41-64 92-64 168S80 34 118 75H87" id="W"/><path d="M33-261c38 41 65 92 65 168S71 34 33 75H2C39 34 66-17 66-93S39-220 2-261h31" id="X"/><g id="f"><use transform="matrix(0.05,0,0,0.05,0,0)" xlink:href="#R"/><use transform="matrix(0.05,0,0,0.05,10,0)" xlink:href="#C"/><use transform="matrix(0.05,0,0,0.05,20,0)" xlink:href="#K"/><use transform="matrix(0.05,0,0,0.05,25,0)" xlink:href="#V"/><use transform="matrix(0.05,0,0,0.05,35,0)" xlink:href="#J"/><use transform="matrix(0.05,0,0,0.05,45,0)" xlink:href="#u"/><use transform="matrix(0.05,0,0,0.05,54,0)" xlink:href="#C"/><use transform="matrix(0.05,0,0,0.05,64,0)" xlink:href="#y"/><use transform="matrix(0.05,0,0,0.05,69.95,0)" xlink:href="#V"/><use transform="matrix(0.05,0,0,0.05,79.95,0)" xlink:href="#C"/><use transform="matrix(0.05,0,0,0.05,89.95,0)" xlink:href="#M"/><use transform="matrix(0.05,0,0,0.05,98.95,0)" xlink:href="#N"/><use transform="matrix(0.05,0,0,0.05,108.95,0)" xlink:href="#C"/><use transform="matrix(0.05,0,0,0.05,118.95,0)" xlink:href="#y"/><use transform="matrix(0.05,0,0,0.05,124.9,0)" xlink:href="#B"/><use transform="matrix(0.05,0,0,0.05,128.85,0)" xlink:href="#O"/><use transform="matrix(0.05,0,0,0.05,143.79999999999998,0)" xlink:href="#C"/><use transform="matrix(0.05,0,0,0.05,153.79999999999998,0)" xlink:href="#P"/><use transform="matrix(0.05,0,0,0.05,163.79999999999998,0)" xlink:href="#K"/><use transform="matrix(0.05,0,0,0.05,168.79999999999998,0)" xlink:href="#u"/><use transform="matrix(0.05,0,0,0.05,177.79999999999998,0)" xlink:href="#W"/><use transform="matrix(0.05,0,0,0.05,183.74999999999997,0)" xlink:href="#J"/><use transform="matrix(0.05,0,0,0.05,193.74999999999997,0)" xlink:href="#u"/><use transform="matrix(0.05,0,0,0.05,202.74999999999997,0)" xlink:href="#C"/><use transform="matrix(0.05,0,0,0.05,212.74999999999997,0)" xlink:href="#y"/><use transform="matrix(0.05,0,0,0.05,218.69999999999996,0)" xlink:href="#X"/></g><path d="M68-38c1 34 0 65-14 84H32c9-13 17-26 17-46H33v-38h35" id="Y"/><g id="g"><use transform="matrix(0.05,0,0,0.05,0,0)" xlink:href="#v"/><use transform="matrix(0.05,0,0,0.05,10,0)" xlink:href="#K"/><use transform="matrix(0.05,0,0,0.05,15,0)" xlink:href="#K"/><use transform="matrix(0.05,0,0,0.05,20,0)" xlink:href="#N"/><use transform="matrix(0.05,0,0,0.05,30,0)" xlink:href="#H"/><use transform="matrix(0.05,0,0,0.05,42.95,0)" xlink:href="#C"/><use transform="matrix(0.05,0,0,0.05,52.95,0)" xlink:href="#u"/><use transform="matrix(0.05,0,0,0.05,61.95,0)" xlink:href="#N"/><use transform="matrix(0.05,0,0,0.05,71.95,0)" xlink:href="#x"/><use transform="matrix(0.05,0,0,0.05,81.95,0)" xlink:href="#P"/><use transform="matrix(0.05,0,0,0.05,91.95,0)" xlink:href="#u"/><use transform="matrix(0.05,0,0,0.05,100.95,0)" xlink:href="#C"/><use transform="matrix(0.05,0,0,0.05,110.95,0)" xlink:href="#W"/><use transform="matrix(0.05,0,0,0.05,116.9,0)" xlink:href="#C"/><use transform="matrix(0.05,0,0,0.05,126.9,0)" xlink:href="#M"/><use transform="matrix(0.05,0,0,0.05,135.9,0)" xlink:href="#N"/><use transform="matrix(0.05,0,0,0.05,145.9,0)" xlink:href="#C"/><use transform="matrix(0.05,0,0,0.05,155.9,0)" xlink:href="#y"/><use transform="matrix(0.05,0,0,0.05,161.85,0)" xlink:href="#B"/><use transform="matrix(0.05,0,0,0.05,165.79999999999998,0)" xlink:href="#O"/><use transform="matrix(0.05,0,0,0.05,180.74999999999997,0)" xlink:href="#C"/><use transform="matrix(0.05,0,0,0.05,190.74999999999997,0)" xlink:href="#P"/><use transform="matrix(0.05,0,0,0.05,200.74999999999997,0)" xlink:href="#K"/><use transform="matrix(0.05,0,0,0.05,205.74999999999997,0)" xlink:href="#u"/><use transform="matrix(0.05,0,0,0.05,214.74999999999997,0)" xlink:href="#Y"/></g><path d="M101-251c82-7 93 87 43 132L82-64C71-53 59-42 53-27h129V0H18c2-99 128-94 128-182 0-28-16-43-45-43s-46 15-49 41l-32-3c6-41 34-60 81-64" id="Z"/><path d="M101-251c68 0 85 55 85 127S166 4 100 4C33 4 14-52 14-124c0-73 17-127 87-127zm-1 229c47 0 54-49 54-102s-4-102-53-102c-51 0-55 48-55 102 0 53 5 102 54 102" id="aa"/><g id="h"><use transform="matrix(0.05,0,0,0.05,0,0)" xlink:href="#Z"/><use transform="matrix(0.05,0,0,0.05,10,0)" xlink:href="#aa"/><use transform="matrix(0.05,0,0,0.05,20,0)" xlink:href="#aa"/><use transform="matrix(0.05,0,0,0.05,30,0)" xlink:href="#X"/></g><g id="i"><use transform="matrix(0.05,0,0,0.05,0,0)" xlink:href="#C"/><use transform="matrix(0.05,0,0,0.05,10,0)" xlink:href="#M"/><use transform="matrix(0.05,0,0,0.05,19,0)" xlink:href="#N"/><use transform="matrix(0.05,0,0,0.05,29,0)" xlink:href="#C"/><use transform="matrix(0.05,0,0,0.05,39,0)" xlink:href="#y"/><use transform="matrix(0.05,0,0,0.05,44.95,0)" xlink:href="#B"/><use transform="matrix(0.05,0,0,0.05,48.900000000000006,0)" xlink:href="#O"/><use transform="matrix(0.05,0,0,0.05,63.85,0)" xlink:href="#C"/><use transform="matrix(0.05,0,0,0.05,73.85000000000001,0)" xlink:href="#P"/><use transform="matrix(0.05,0,0,0.05,83.85000000000001,0)" xlink:href="#K"/><use transform="matrix(0.05,0,0,0.05,88.85000000000001,0)" xlink:href="#u"/></g><path d="M185-189c-5-48-123-54-124 2 14 75 158 14 163 119 3 78-121 87-175 55-17-10-28-26-33-46l33-7c5 56 141 63 141-1 0-78-155-14-162-118-5-82 145-84 179-34 5 7 8 16 11 25" id="ab"/><path d="M140-251c81 0 123 46 123 126C263-53 228-8 163 1c7 30 30 48 69 40v23c-55 16-95-15-103-61C56-3 17-48 17-125c0-80 42-126 123-126zm0 227c63 0 89-41 89-101s-29-99-89-99c-61 0-89 39-89 99S79-25 140-24" id="ac"/><path d="M30 0v-248h33v221h125V0H30" id="ad"/><g id="j"><use transform="matrix(0.05,0,0,0.05,0,0)" xlink:href="#r"/><use transform="matrix(0.05,0,0,0.05,5,0)" xlink:href="#F"/><use transform="matrix(0.05,0,0,0.05,17,0)" xlink:href="#x"/><use transform="matrix(0.05,0,0,0.05,27,0)" xlink:href="#u"/><use transform="matrix(0.05,0,0,0.05,36,0)" xlink:href="#K"/><use transform="matrix(0.05,0,0,0.05,41,0)" xlink:href="#R"/><use transform="matrix(0.05,0,0,0.05,51,0)" xlink:href="#y"/><use transform="matrix(0.05,0,0,0.05,56.95,0)" xlink:href="#C"/><use transform="matrix(0.05,0,0,0.05,66.95,0)" xlink:href="#ab"/><use transform="matrix(0.05,0,0,0.05,78.95,0)" xlink:href="#ac"/><use transform="matrix(0.05,0,0,0.05,92.95,0)" xlink:href="#ad"/><path d="M-.9 1.25h104.1v1.32H-.9z"/></g><g id="k"><use transform="matrix(0.05,0,0,0.05,0,0)" xlink:href="#s"/><use transform="matrix(0.05,0,0,0.05,12.950000000000001,0)" xlink:href="#t"/><use transform="matrix(0.05,0,0,0.05,22.950000000000003,0)" xlink:href="#K"/><use transform="matrix(0.05,0,0,0.05,27.950000000000003,0)" xlink:href="#t"/><use transform="matrix(0.05,0,0,0.05,37.95,0)" xlink:href="#w"/><use transform="matrix(0.05,0,0,0.05,47.95,0)" xlink:href="#t"/><use transform="matrix(0.05,0,0,0.05,57.95,0)" xlink:href="#u"/><use transform="matrix(0.05,0,0,0.05,66.95,0)" xlink:href="#C"/><path d="M-.9 1.25h78.75v1.32H-.9z"/></g><path d="M108 0H70L1-190h34L89-25l56-165h34" id="ae"/><g id="l"><use transform="matrix(0.05,0,0,0.05,0,0)" xlink:href="#y"/><use transform="matrix(0.05,0,0,0.05,5.95,0)" xlink:href="#C"/><use transform="matrix(0.05,0,0,0.05,15.949999999999998,0)" xlink:href="#K"/><use transform="matrix(0.05,0,0,0.05,20.95,0)" xlink:href="#y"/><use transform="matrix(0.05,0,0,0.05,26.899999999999995,0)" xlink:href="#B"/><use transform="matrix(0.05,0,0,0.05,30.849999999999994,0)" xlink:href="#C"/><use transform="matrix(0.05,0,0,0.05,40.849999999999994,0)" xlink:href="#ae"/><use transform="matrix(0.05,0,0,0.05,49.849999999999994,0)" xlink:href="#C"/></g><g id="m"><use transform="matrix(0.05,0,0,0.05,0,0)" xlink:href="#C"/><use transform="matrix(0.05,0,0,0.05,10,0)" xlink:href="#M"/><use transform="matrix(0.05,0,0,0.05,19,0)" xlink:href="#N"/><use transform="matrix(0.05,0,0,0.05,29,0)" xlink:href="#C"/><use transform="matrix(0.05,0,0,0.05,39,0)" xlink:href="#y"/><use transform="matrix(0.05,0,0,0.05,44.95,0)" xlink:href="#B"/><use transform="matrix(0.05,0,0,0.05,48.900000000000006,0)" xlink:href="#O"/><use transform="matrix(0.05,0,0,0.05,63.85,0)" xlink:href="#C"/><use transform="matrix(0.05,0,0,0.05,73.85000000000001,0)" xlink:href="#P"/><use transform="matrix(0.05,0,0,0.05,83.85000000000001,0)" xlink:href="#K"/><use transform="matrix(0.05,0,0,0.05,88.85000000000001,0)" xlink:href="#u"/></g><g id="n"><use transform="matrix(0.05,0,0,0.05,0,0)" xlink:href="#O"/><use transform="matrix(0.05,0,0,0.05,14.950000000000001,0)" xlink:href="#x"/><use transform="matrix(0.05,0,0,0.05,24.950000000000003,0)" xlink:href="#J"/><use transform="matrix(0.05,0,0,0.05,34.95,0)" xlink:href="#P"/><use transform="matrix(0.05,0,0,0.05,44.95,0)" xlink:href="#K"/><use transform="matrix(0.05,0,0,0.05,49.95,0)" xlink:href="#C"/><use transform="matrix(0.05,0,0,0.05,59.95,0)" xlink:href="#z"/><use transform="matrix(0.05,0,0,0.05,69.95,0)" xlink:href="#W"/><use transform="matrix(0.05,0,0,0.05,75.9,0)" xlink:href="#X"/></g><g id="o"><use transform="matrix(0.05,0,0,0.05,0,0)" xlink:href="#y"/><use transform="matrix(0.05,0,0,0.05,5.95,0)" xlink:href="#C"/><use transform="matrix(0.05,0,0,0.05,15.949999999999998,0)" xlink:href="#I"/><use transform="matrix(0.05,0,0,0.05,25.950000000000003,0)" xlink:href="#J"/><use transform="matrix(0.05,0,0,0.05,35.95,0)" xlink:href="#C"/><use transform="matrix(0.05,0,0,0.05,45.95,0)" xlink:href="#u"/><use transform="matrix(0.05,0,0,0.05,54.95,0)" xlink:href="#K"/><use transform="matrix(0.05,0,0,0.05,59.95,0)" xlink:href="#E"/><use transform="matrix(0.05,0,0,0.05,71.95,0)" xlink:href="#T"/><use transform="matrix(0.05,0,0,0.05,75.9,0)" xlink:href="#T"/><use transform="matrix(0.05,0,0,0.05,79.85000000000001,0)" xlink:href="#L"/><use transform="matrix(0.05,0,0,0.05,91.85000000000001,0)" xlink:href="#M"/><use transform="matrix(0.05,0,0,0.05,100.85000000000001,0)" xlink:href="#N"/><use transform="matrix(0.05,0,0,0.05,110.85000000000001,0)" xlink:href="#C"/><use transform="matrix(0.05,0,0,0.05,120.85000000000001,0)" xlink:href="#y"/><use transform="matrix(0.05,0,0,0.05,126.80000000000001,0)" xlink:href="#B"/><use transform="matrix(0.05,0,0,0.05,130.75,0)" xlink:href="#O"/><use transform="matrix(0.05,0,0,0.05,145.7,0)" xlink:href="#C"/><use transform="matrix(0.05,0,0,0.05,155.7,0)" xlink:href="#P"/><use transform="matrix(0.05,0,0,0.05,165.7,0)" xlink:href="#K"/><use transform="matrix(0.05,0,0,0.05,170.7,0)" xlink:href="#u"/><use transform="matrix(0.05,0,0,0.05,179.7,0)" xlink:href="#W"/><use transform="matrix(0.05,0,0,0.05,185.64999999999998,0)" xlink:href="#X"/></g><g id="p"><use transform="matrix(0.05,0,0,0.05,0,0)" xlink:href="#y"/><use transform="matrix(0.05,0,0,0.05,5.95,0)" xlink:href="#C"/><use transform="matrix(0.05,0,0,0.05,15.949999999999998,0)" xlink:href="#K"/><use transform="matrix(0.05,0,0,0.05,20.95,0)" xlink:href="#J"/><use transform="matrix(0.05,0,0,0.05,30.950000000000003,0)" xlink:href="#y"/><use transform="matrix(0.05,0,0,0.05,36.9,0)" xlink:href="#P"/></g><path d="M179-190L93 31C79 59 56 82 12 73V49c39 6 53-20 64-50L1-190h34L92-34l54-156h33" id="af"/><path d="M26 75v-336h71v23H56V52h41v23H26" id="ag"/><path d="M3 75V52h41v-290H3v-23h71V75H3" id="ah"/><g id="q"><use transform="matrix(0.05,0,0,0.05,0,0)" xlink:href="#E"/><use transform="matrix(0.05,0,0,0.05,12,0)" xlink:href="#y"/><use transform="matrix(0.05,0,0,0.05,17.95,0)" xlink:href="#y"/><use transform="matrix(0.05,0,0,0.05,23.9,0)" xlink:href="#t"/><use transform="matrix(0.05,0,0,0.05,33.9,0)" xlink:href="#af"/><use transform="matrix(0.05,0,0,0.05,42.9,0)" xlink:href="#ag"/><use transform="matrix(0.05,0,0,0.05,47.9,0)" xlink:href="#L"/><use transform="matrix(0.05,0,0,0.05,59.900000000000006,0)" xlink:href="#M"/><use transform="matrix(0.05,0,0,0.05,68.9,0)" xlink:href="#N"/><use transform="matrix(0.05,0,0,0.05,78.9,0)" xlink:href="#C"/><use transform="matrix(0.05,0,0,0.05,88.9,0)" xlink:href="#y"/><use transform="matrix(0.05,0,0,0.05,94.85000000000001,0)" xlink:href="#B"/><use transform="matrix(0.05,0,0,0.05,98.80000000000001,0)" xlink:href="#O"/><use transform="matrix(0.05,0,0,0.05,113.75,0)" xlink:href="#C"/><use transform="matrix(0.05,0,0,0.05,123.75,0)" xlink:href="#P"/><use transform="matrix(0.05,0,0,0.05,133.75,0)" xlink:href="#K"/><use transform="matrix(0.05,0,0,0.05,138.75,0)" xlink:href="#ah"/></g></defs></g></svg>