<svg xmlns="http://www.w3.org/2000/svg" xmlns:xlink="http://www.w3.org/1999/xlink" xmlns:lucid="lucid" width="1105.15" height="671"><g transform="translate(1440.8874079741927 461.27790390818063)" lucid:page-tab-id="vPHms2bTQKVA"><path d="M-1219.76-441.28h235.35v120h-235.36z" stroke="#333" stroke-width="2" fill="#fff"/><use xlink:href="#a" transform="matrix(1,0,0,1,-1219.7623855050915,-441.27790390818063) translate(23.35500000000001 63.15)"/><path d="M-1102.08-319.28l.27 25.33m.26 25.34l.27 25.32" stroke="#3a414a" stroke-width="2" fill="none"/><path d="M-1101.08-319.26l-2 .02v-1.04h2z" stroke="#3a414a" stroke-width=".05" fill="#3a414a"/><path d="M-1101.27-243.3v1.02" stroke="#3a414a" stroke-width="2" fill="none"/><path d="M-818.26-441.28h160v120h-160z" stroke="#333" stroke-width="2" fill="#fff"/><use xlink:href="#b" transform="matrix(1,0,0,1,-818.2623855050915,-441.27790390818063) translate(11.055000000000016 63.15)"/><path d="M-743.9-319.28v18.4m0 18.4v36.8m0 18.4v36.8m0 18.4v36.8m0 18.4v36.8m0 18.4v18.4" stroke="#3a414a" stroke-width="2" fill="none"/><path d="M-742.9-319.25h-2v-1.03h2z" stroke="#3a414a" stroke-width=".05" fill="#3a414a"/><path d="M-743.9-43.3v1.02" stroke="#3a414a" stroke-width="2" fill="none"/><path d="M-1121.26-241.28h40v380h-40z" stroke="#333" stroke-width="2" fill="#fff"/><path d="M-1416.26-229.18h275.5M-1416.24-229.18h-1.02" stroke="#3a414a" stroke-width="2" fill="none"/><path d="M-1125.5-229.18l-14.26 4.63v-9.27z" stroke="#3a414a" stroke-width="2" fill="#3a414a"/><use xlink:href="#c" transform="matrix(1,0,0,1,-1370.5873855050916,-254.78366911300657) translate(0 14.4)"/><path d="M-765.2-41.28h40v80h-40z" stroke="#333" stroke-width="2" fill="#fff"/><path d="M-1428.9-62.6h288.14M-1428.86-62.6h-1.03" stroke="#3a414a" stroke-width="2" fill="none"/><path d="M-1125.5-62.6l-14.26 4.65v-9.28z" stroke="#3a414a" stroke-width="2" fill="#3a414a"/><use xlink:href="#d" transform="matrix(1,0,0,1,-1353.4116005332728,-88.19078125383803) translate(0 14.4)"/><path d="M-1079.26-15.95h294.54" stroke="#3a414a" stroke-width="2" fill="none"/><path d="M-1079.24-14.95h-1.02v-2h1.02z" stroke="#3a414a" stroke-width=".05" fill="#3a414a"/><path d="M-769.45-15.95l-14.27 4.64v-9.28z" stroke="#3a414a" stroke-width="2" fill="#3a414a"/><use xlink:href="#e" transform="matrix(1,0,0,1,-990.1638434282561,-41.54457057484306) translate(0 14.4)"/><path d="M-767.2 22.72h-10.42m-10.4 0h-20.8m-10.4 0h-20.8m-10.4 0h-20.8m-10.4 0h-20.82m-10.4 0H-932.47m-9.24 0h-18.48m-9.23 0h-18.48m-9.24 0h-18.47m-9.22 0h-18.47m-9.23 0h-9.23" stroke="#3a414a" stroke-width="2" fill="none"/><path d="M-766.2 23.72h-1.04v-2h1.02z" stroke="#3a414a" stroke-width=".05" fill="#3a414a"/><path d="M-1077.03 22.72l14.27-4.63v9.26z" stroke="#3a414a" stroke-width="2" fill="#3a414a"/><use xlink:href="#f" transform="matrix(1,0,0,1,-942.1638434282561,26.722096091819363) translate(0 14.4)"/><path d="M-591.1-441.28h235.36v120H-591.1z" stroke="#333" stroke-width="2" fill="#fff"/><use xlink:href="#g" transform="matrix(1,0,0,1,-591.0933188103136,-441.27790390818063) translate(18.85500000000001 63.15)"/><path d="M-481.7-319.28v29.04m0 29.04v29.04" stroke="#3a414a" stroke-width="2" fill="none"/><path d="M-480.7-319.25h-2v-1.03h2zM-480.7-231.16h-2v-1.02h2z" stroke="#3a414a" stroke-width=".05" fill="#3a414a"/><path d="M-502.03-230.16h40v80h-40z" stroke="#333" stroke-width="2" fill="#fff"/><path d="M-1079.26-219.62h557.73" stroke="#3a414a" stroke-width="2" fill="none"/><path d="M-1079.24-218.62h-1.02v-2h1.02z" stroke="#3a414a" stroke-width=".05" fill="#3a414a"/><path d="M-506.26-219.62l-14.27 4.64v-9.27z" stroke="#3a414a" stroke-width="2" fill="#3a414a"/><use xlink:href="#h" transform="matrix(1,0,0,1,-940.0873855050909,-245.2156816582252) translate(0 14.4)"/><path d="M-504.03-161.75h-9.58m-9.6 0h-19.17m-9.6 0h-19.17m-9.58 0h-19.18m-9.6 0h-19.16m-9.6 0h-19.16m-9.6 0h-19.16m-9.6 0h-19.17m-9.58 0h-19.18m-9.6 0h-19.17m-9.6 0h-19.57m-10 0h-20.02m-10 0h-20m-10.02 0h-20m-10 0h-20.02m-10 0h-20m-10.02 0h-20m-10 0h-20.02m-10 0h-20m-10.02 0h-10" stroke="#3a414a" stroke-width="2" fill="none"/><path d="M-503.03-160.75h-1.02v-2h1.02z" stroke="#3a414a" stroke-width=".05" fill="#3a414a"/><path d="M-1077.03-161.75l14.27-4.64v9.28z" stroke="#3a414a" stroke-width="2" fill="#3a414a"/><use xlink:href="#i" transform="matrix(1,0,0,1,-810.6190737946787,-157.75233113459853) translate(0 14.4)"/><path d="M-748.9 40.72v9.13m0 9.14v18.25m0 9.14v18.25m0 9.14v18.26m0 9.13v18.26m0 9.13v9.12" stroke="#3a414a" stroke-width="2" fill="none"/><path d="M-747.9 40.75h-2v-1.03h2z" stroke="#3a414a" stroke-width=".05" fill="#3a414a"/><path d="M-748.9 177.7v1.02M-482.03-148.16v9.6m0 9.62v19.2m0 9.62v19.22m0 9.6v19.22m0 9.6v19.22m0 9.6V5.58m0 9.6V34.4m0 9.6v19.2m0 9.62v19.22m0 9.6v19.22m0 9.6v19.22m0 9.6v19.23m0 9.6v9.62" stroke="#3a414a" stroke-width="2" fill="none"/><path d="M-481.03-148.13h-2v-1.03h2z" stroke="#3a414a" stroke-width=".05" fill="#3a414a"/><path d="M-482.03 197.7v1.02M-1079.26-139.28h54.06a6 6 0 0 1 6 6v24.67a6 6 0 0 1-6 6h-15.5" stroke="#3a414a" stroke-width="2" fill="none"/><path d="M-1079.24-138.28h-1.02v-2h1.02z" stroke="#3a414a" stroke-width=".05" fill="#3a414a"/><path d="M-1055.96-102.6l14.27-4.65v9.27z" stroke="#3a414a" stroke-width="2" fill="#3a414a"/><use xlink:href="#j" transform="matrix(1,0,0,1,-1011.1968309028161,-142.27734787598533) translate(0 14.4)"/><path d="M-1079.26 62.27h54.06a6 6 0 0 1 6 6v30.45a6 6 0 0 1-6 6h-15.5" stroke="#3a414a" stroke-width="2" fill="none"/><path d="M-1079.24 63.27h-1.02v-2h1.02z" stroke="#3a414a" stroke-width=".05" fill="#3a414a"/><path d="M-1055.96 104.72l14.27-4.63v9.26z" stroke="#3a414a" stroke-width="2" fill="#3a414a"/><use xlink:href="#k" transform="matrix(1,0,0,1,-1011.196830902816,62.16262775282958) translate(0 14.4)"/><path d="M-1101.26 140.72v9.5m0 9.5v19m0 9.5v9.5" stroke="#3a414a" stroke-width="2" fill="none"/><path d="M-1100.26 140.75h-2v-1.03h2z" stroke="#3a414a" stroke-width=".05" fill="#3a414a"/><path d="M-1101.26 197.7v1.02" stroke="#3a414a" stroke-width="2" fill="none"/><use xlink:href="#l" transform="matrix(1,0,0,1,-1093.2623855050913,158.42209609181933) translate(0 14.4)"/><path d="M-1100.2-121.28h40v40h-40zM-1100.2 78.72h40v40h-40z" stroke="#333" stroke-width="2" fill="#fff"/><defs><path d="M33-154v-36h34v36H33zM33 0v-36h34V0H33" id="m"/><path d="M212-179c-10-28-35-45-73-45-59 0-87 40-87 99 0 60 29 101 89 101 43 0 62-24 78-52l27 14C228-24 195 4 139 4 59 4 22-46 18-125c-6-104 99-153 187-111 19 9 31 26 39 46" id="n"/><path d="M114-163C36-179 61-72 57 0H25l-1-190h30c1 12-1 29 2 39 6-27 23-49 58-41v29" id="o"/><path d="M100-194c63 0 86 42 84 106H49c0 40 14 67 53 68 26 1 43-12 49-29l28 8c-11 28-37 45-77 45C44 4 14-33 15-96c1-61 26-98 85-98zm52 81c6-60-76-77-97-28-3 7-6 17-6 28h103" id="p"/><path d="M141-36C126-15 110 5 73 4 37 3 15-17 15-53c-1-64 63-63 125-63 3-35-9-54-41-54-24 1-41 7-42 31l-33-3c5-37 33-52 76-52 45 0 72 20 72 64v82c-1 20 7 32 28 27v20c-31 9-61-2-59-35zM48-53c0 20 12 33 32 33 41-3 63-29 60-74-43 2-92-5-92 41" id="q"/><path d="M59-47c-2 24 18 29 38 22v24C64 9 27 4 27-40v-127H5v-23h24l9-43h21v43h35v23H59v120" id="r"/><path d="M30 0v-248h187v28H63v79h144v27H63v87h162V0H30" id="s"/><path d="M141 0L90-78 38 0H4l68-98-65-92h35l48 74 47-74h35l-64 92 68 98h-35" id="t"/><path d="M115-194c55 1 70 41 70 98S169 2 115 4C84 4 66-9 55-30l1 105H24l-1-265h31l2 30c10-21 28-34 59-34zm-8 174c40 0 45-34 45-75s-6-73-45-74c-42 0-51 32-51 76 0 43 10 73 51 73" id="u"/><path d="M24-231v-30h32v30H24zM24 0v-190h32V0H24" id="v"/><path d="M210-169c-67 3-38 105-44 169h-31v-121c0-29-5-50-35-48C34-165 62-65 56 0H25l-1-190h30c1 10-1 24 2 32 10-44 99-50 107 0 11-21 27-35 58-36 85-2 47 119 55 194h-31v-121c0-29-5-49-35-48" id="w"/><path d="M117-194c89-4 53 116 60 194h-32v-121c0-31-8-49-39-48C34-167 62-67 57 0H25l-1-190h30c1 10-1 24 2 32 11-22 29-35 61-36" id="x"/><path d="M137 0h-34L2-248h35l83 218 83-218h36" id="y"/><path d="M206 0h-36l-40-164L89 0H53L-1-190h32L70-26l43-164h34l41 164 42-164h31" id="z"/><g id="a"><use transform="matrix(0.05,0,0,0.05,0,0)" xlink:href="#m"/><use transform="matrix(0.05,0,0,0.05,5,0)" xlink:href="#n"/><use transform="matrix(0.05,0,0,0.05,17.950000000000003,0)" xlink:href="#o"/><use transform="matrix(0.05,0,0,0.05,23.900000000000002,0)" xlink:href="#p"/><use transform="matrix(0.05,0,0,0.05,33.900000000000006,0)" xlink:href="#q"/><use transform="matrix(0.05,0,0,0.05,43.900000000000006,0)" xlink:href="#r"/><use transform="matrix(0.05,0,0,0.05,48.900000000000006,0)" xlink:href="#p"/><use transform="matrix(0.05,0,0,0.05,58.900000000000006,0)" xlink:href="#s"/><use transform="matrix(0.05,0,0,0.05,70.9,0)" xlink:href="#t"/><use transform="matrix(0.05,0,0,0.05,79.9,0)" xlink:href="#u"/><use transform="matrix(0.05,0,0,0.05,89.9,0)" xlink:href="#p"/><use transform="matrix(0.05,0,0,0.05,99.9,0)" xlink:href="#o"/><use transform="matrix(0.05,0,0,0.05,105.85000000000001,0)" xlink:href="#v"/><use transform="matrix(0.05,0,0,0.05,109.80000000000001,0)" xlink:href="#w"/><use transform="matrix(0.05,0,0,0.05,124.75,0)" xlink:href="#p"/><use transform="matrix(0.05,0,0,0.05,134.75,0)" xlink:href="#x"/><use transform="matrix(0.05,0,0,0.05,144.75,0)" xlink:href="#r"/><use transform="matrix(0.05,0,0,0.05,149.75,0)" xlink:href="#y"/><use transform="matrix(0.05,0,0,0.05,161.4,0)" xlink:href="#v"/><use transform="matrix(0.05,0,0,0.05,165.35,0)" xlink:href="#p"/><use transform="matrix(0.05,0,0,0.05,175.35,0)" xlink:href="#z"/><path d="M-.9 1.25h190.1v1.32H-.9z"/></g><path d="M185-189c-5-48-123-54-124 2 14 75 158 14 163 119 3 78-121 87-175 55-17-10-28-26-33-46l33-7c5 56 141 63 141-1 0-78-155-14-162-118-5-82 145-84 179-34 5 7 8 16 11 25" id="A"/><path d="M84 4C-5 8 30-112 23-190h32v120c0 31 7 50 39 49 72-2 45-101 50-169h31l1 190h-30c-1-10 1-25-2-33-11 22-28 36-60 37" id="B"/><path d="M115-194c53 0 69 39 70 98 0 66-23 100-70 100C84 3 66-7 56-30L54 0H23l1-261h32v101c10-23 28-34 59-34zm-8 174c40 0 45-34 45-75 0-40-5-75-45-74-42 0-51 32-51 76 0 43 10 73 51 73" id="C"/><path d="M135-143c-3-34-86-38-87 0 15 53 115 12 119 90S17 21 10-45l28-5c4 36 97 45 98 0-10-56-113-15-118-90-4-57 82-63 122-42 12 7 21 19 24 35" id="D"/><path d="M96-169c-40 0-48 33-48 73s9 75 48 75c24 0 41-14 43-38l32 2c-6 37-31 61-74 61-59 0-76-41-82-99-10-93 101-131 147-64 4 7 5 14 7 22l-32 3c-4-21-16-35-41-35" id="E"/><path d="M30-248c87 1 191-15 191 75 0 78-77 80-158 76V0H30v-248zm33 125c57 0 124 11 124-50 0-59-68-47-124-48v98" id="F"/><g id="b"><use transform="matrix(0.05,0,0,0.05,0,0)" xlink:href="#m"/><use transform="matrix(0.05,0,0,0.05,5,0)" xlink:href="#A"/><use transform="matrix(0.05,0,0,0.05,17,0)" xlink:href="#B"/><use transform="matrix(0.05,0,0,0.05,27,0)" xlink:href="#C"/><use transform="matrix(0.05,0,0,0.05,37,0)" xlink:href="#D"/><use transform="matrix(0.05,0,0,0.05,46,0)" xlink:href="#u"/><use transform="matrix(0.05,0,0,0.05,56,0)" xlink:href="#q"/><use transform="matrix(0.05,0,0,0.05,66,0)" xlink:href="#E"/><use transform="matrix(0.05,0,0,0.05,75,0)" xlink:href="#p"/><use transform="matrix(0.05,0,0,0.05,85,0)" xlink:href="#F"/><use transform="matrix(0.05,0,0,0.05,97,0)" xlink:href="#q"/><use transform="matrix(0.05,0,0,0.05,107,0)" xlink:href="#o"/><use transform="matrix(0.05,0,0,0.05,112.95,0)" xlink:href="#D"/><use transform="matrix(0.05,0,0,0.05,121.95,0)" xlink:href="#p"/><use transform="matrix(0.05,0,0,0.05,131.95,0)" xlink:href="#o"/><path d="M-.9 1.25h139.7v1.32H-.9z"/></g><path d="M100-194c62-1 85 37 85 99 1 63-27 99-86 99S16-35 15-95c0-66 28-99 85-99zM99-20c44 1 53-31 53-75 0-43-8-75-51-75s-53 32-53 75 10 74 51 75" id="G"/><path d="M197 0v-115H63V0H30v-248h33v105h134v-105h34V0h-34" id="H"/><path d="M179-190L93 31C79 59 56 82 12 73V49c39 6 53-20 64-50L1-190h34L92-34l54-156h33" id="I"/><path d="M33 0v-248h34V0H33" id="J"/><path d="M87 75C49 33 22-17 22-94c0-76 28-126 65-167h31c-38 41-64 92-64 168S80 34 118 75H87" id="K"/><path d="M33-261c38 41 65 92 65 168S71 34 33 75H2C39 34 66-17 66-93S39-220 2-261h31" id="L"/><g id="c"><use transform="matrix(0.05,0,0,0.05,0,0)" xlink:href="#G"/><use transform="matrix(0.05,0,0,0.05,10,0)" xlink:href="#x"/><use transform="matrix(0.05,0,0,0.05,20,0)" xlink:href="#H"/><use transform="matrix(0.05,0,0,0.05,32.95,0)" xlink:href="#I"/><use transform="matrix(0.05,0,0,0.05,41.95,0)" xlink:href="#u"/><use transform="matrix(0.05,0,0,0.05,51.95,0)" xlink:href="#p"/><use transform="matrix(0.05,0,0,0.05,61.95,0)" xlink:href="#o"/><use transform="matrix(0.05,0,0,0.05,67.9,0)" xlink:href="#u"/><use transform="matrix(0.05,0,0,0.05,77.9,0)" xlink:href="#q"/><use transform="matrix(0.05,0,0,0.05,87.9,0)" xlink:href="#o"/><use transform="matrix(0.05,0,0,0.05,93.85000000000001,0)" xlink:href="#q"/><use transform="matrix(0.05,0,0,0.05,103.85000000000001,0)" xlink:href="#w"/><use transform="matrix(0.05,0,0,0.05,118.80000000000001,0)" xlink:href="#p"/><use transform="matrix(0.05,0,0,0.05,128.8,0)" xlink:href="#r"/><use transform="matrix(0.05,0,0,0.05,133.8,0)" xlink:href="#p"/><use transform="matrix(0.05,0,0,0.05,143.8,0)" xlink:href="#o"/><use transform="matrix(0.05,0,0,0.05,149.75,0)" xlink:href="#J"/><use transform="matrix(0.05,0,0,0.05,154.75,0)" xlink:href="#x"/><use transform="matrix(0.05,0,0,0.05,164.75,0)" xlink:href="#u"/><use transform="matrix(0.05,0,0,0.05,174.75,0)" xlink:href="#B"/><use transform="matrix(0.05,0,0,0.05,184.75,0)" xlink:href="#r"/><use transform="matrix(0.05,0,0,0.05,189.75,0)" xlink:href="#K"/><use transform="matrix(0.05,0,0,0.05,195.7,0)" xlink:href="#L"/></g><path d="M30 0v-248h33v221h125V0H30" id="M"/><path d="M177-190C167-65 218 103 67 71c-23-6-38-20-44-43l32-5c15 47 100 32 89-28v-30C133-14 115 1 83 1 29 1 15-40 15-95c0-56 16-97 71-98 29-1 48 16 59 35 1-10 0-23 2-32h30zM94-22c36 0 50-32 50-73 0-42-14-75-50-75-39 0-46 34-46 75s6 73 46 73" id="N"/><g id="d"><use transform="matrix(0.05,0,0,0.05,0,0)" xlink:href="#G"/><use transform="matrix(0.05,0,0,0.05,10,0)" xlink:href="#x"/><use transform="matrix(0.05,0,0,0.05,20,0)" xlink:href="#A"/><use transform="matrix(0.05,0,0,0.05,32,0)" xlink:href="#B"/><use transform="matrix(0.05,0,0,0.05,42,0)" xlink:href="#C"/><use transform="matrix(0.05,0,0,0.05,52,0)" xlink:href="#D"/><use transform="matrix(0.05,0,0,0.05,61,0)" xlink:href="#u"/><use transform="matrix(0.05,0,0,0.05,71,0)" xlink:href="#q"/><use transform="matrix(0.05,0,0,0.05,81,0)" xlink:href="#E"/><use transform="matrix(0.05,0,0,0.05,90,0)" xlink:href="#p"/><use transform="matrix(0.05,0,0,0.05,100,0)" xlink:href="#M"/><use transform="matrix(0.05,0,0,0.05,110,0)" xlink:href="#G"/><use transform="matrix(0.05,0,0,0.05,120,0)" xlink:href="#N"/><use transform="matrix(0.05,0,0,0.05,130,0)" xlink:href="#v"/><use transform="matrix(0.05,0,0,0.05,133.95,0)" xlink:href="#E"/><use transform="matrix(0.05,0,0,0.05,142.95,0)" xlink:href="#J"/><use transform="matrix(0.05,0,0,0.05,147.95,0)" xlink:href="#x"/><use transform="matrix(0.05,0,0,0.05,157.95,0)" xlink:href="#u"/><use transform="matrix(0.05,0,0,0.05,167.95,0)" xlink:href="#B"/><use transform="matrix(0.05,0,0,0.05,177.95,0)" xlink:href="#r"/><use transform="matrix(0.05,0,0,0.05,182.95,0)" xlink:href="#K"/><use transform="matrix(0.05,0,0,0.05,188.89999999999998,0)" xlink:href="#L"/></g><g id="e"><use transform="matrix(0.05,0,0,0.05,0,0)" xlink:href="#u"/><use transform="matrix(0.05,0,0,0.05,10,0)" xlink:href="#q"/><use transform="matrix(0.05,0,0,0.05,20,0)" xlink:href="#o"/><use transform="matrix(0.05,0,0,0.05,25.950000000000003,0)" xlink:href="#D"/><use transform="matrix(0.05,0,0,0.05,34.95,0)" xlink:href="#p"/><use transform="matrix(0.05,0,0,0.05,44.95,0)" xlink:href="#K"/><use transform="matrix(0.05,0,0,0.05,50.900000000000006,0)" xlink:href="#D"/><use transform="matrix(0.05,0,0,0.05,59.900000000000006,0)" xlink:href="#B"/><use transform="matrix(0.05,0,0,0.05,69.9,0)" xlink:href="#C"/><use transform="matrix(0.05,0,0,0.05,79.9,0)" xlink:href="#D"/><use transform="matrix(0.05,0,0,0.05,88.9,0)" xlink:href="#u"/><use transform="matrix(0.05,0,0,0.05,98.9,0)" xlink:href="#q"/><use transform="matrix(0.05,0,0,0.05,108.9,0)" xlink:href="#E"/><use transform="matrix(0.05,0,0,0.05,117.9,0)" xlink:href="#p"/><use transform="matrix(0.05,0,0,0.05,127.9,0)" xlink:href="#L"/></g><g id="f"><use transform="matrix(0.05,0,0,0.05,0,0)" xlink:href="#p"/><use transform="matrix(0.05,0,0,0.05,10,0)" xlink:href="#o"/><use transform="matrix(0.05,0,0,0.05,15.949999999999998,0)" xlink:href="#o"/><use transform="matrix(0.05,0,0,0.05,21.9,0)" xlink:href="#G"/><use transform="matrix(0.05,0,0,0.05,31.899999999999995,0)" xlink:href="#o"/></g><path d="M127-220V0H93v-220H8v-28h204v28h-85" id="O"/><path d="M24 0v-261h32V0H24" id="P"/><path d="M85-194c31 0 48 13 60 33l-1-100h32l1 261h-30c-2-10 0-23-3-31C134-8 116 4 85 4 32 4 16-35 15-94c0-66 23-100 70-100zm9 24c-40 0-46 34-46 75 0 40 6 74 45 74 42 0 51-32 51-76 0-42-9-74-50-73" id="Q"/><g id="g"><use transform="matrix(0.05,0,0,0.05,0,0)" xlink:href="#m"/><use transform="matrix(0.05,0,0,0.05,5,0)" xlink:href="#F"/><use transform="matrix(0.05,0,0,0.05,17,0)" xlink:href="#q"/><use transform="matrix(0.05,0,0,0.05,27,0)" xlink:href="#o"/><use transform="matrix(0.05,0,0,0.05,32.95,0)" xlink:href="#q"/><use transform="matrix(0.05,0,0,0.05,42.95,0)" xlink:href="#w"/><use transform="matrix(0.05,0,0,0.05,57.900000000000006,0)" xlink:href="#p"/><use transform="matrix(0.05,0,0,0.05,67.9,0)" xlink:href="#r"/><use transform="matrix(0.05,0,0,0.05,72.9,0)" xlink:href="#p"/><use transform="matrix(0.05,0,0,0.05,82.9,0)" xlink:href="#o"/><use transform="matrix(0.05,0,0,0.05,88.85000000000001,0)" xlink:href="#O"/><use transform="matrix(0.05,0,0,0.05,98.80000000000001,0)" xlink:href="#I"/><use transform="matrix(0.05,0,0,0.05,107.80000000000001,0)" xlink:href="#u"/><use transform="matrix(0.05,0,0,0.05,117.80000000000001,0)" xlink:href="#p"/><use transform="matrix(0.05,0,0,0.05,127.80000000000001,0)" xlink:href="#y"/><use transform="matrix(0.05,0,0,0.05,138.45000000000002,0)" xlink:href="#q"/><use transform="matrix(0.05,0,0,0.05,148.45000000000002,0)" xlink:href="#P"/><use transform="matrix(0.05,0,0,0.05,152.4,0)" xlink:href="#v"/><use transform="matrix(0.05,0,0,0.05,156.35,0)" xlink:href="#Q"/><use transform="matrix(0.05,0,0,0.05,166.35,0)" xlink:href="#q"/><use transform="matrix(0.05,0,0,0.05,176.35,0)" xlink:href="#r"/><use transform="matrix(0.05,0,0,0.05,181.35,0)" xlink:href="#G"/><use transform="matrix(0.05,0,0,0.05,191.35,0)" xlink:href="#o"/><path d="M-.9 1.25h199.1v1.32H-.9z"/></g><path d="M108 0H70L1-190h34L89-25l56-165h34" id="R"/><g id="h"><use transform="matrix(0.05,0,0,0.05,0,0)" xlink:href="#R"/><use transform="matrix(0.05,0,0,0.05,9,0)" xlink:href="#q"/><use transform="matrix(0.05,0,0,0.05,19,0)" xlink:href="#P"/><use transform="matrix(0.05,0,0,0.05,22.95,0)" xlink:href="#v"/><use transform="matrix(0.05,0,0,0.05,26.899999999999995,0)" xlink:href="#Q"/><use transform="matrix(0.05,0,0,0.05,36.9,0)" xlink:href="#q"/><use transform="matrix(0.05,0,0,0.05,46.9,0)" xlink:href="#r"/><use transform="matrix(0.05,0,0,0.05,51.900000000000006,0)" xlink:href="#p"/><use transform="matrix(0.05,0,0,0.05,61.900000000000006,0)" xlink:href="#K"/><use transform="matrix(0.05,0,0,0.05,67.85,0)" xlink:href="#u"/><use transform="matrix(0.05,0,0,0.05,77.85,0)" xlink:href="#q"/><use transform="matrix(0.05,0,0,0.05,87.85,0)" xlink:href="#o"/><use transform="matrix(0.05,0,0,0.05,93.8,0)" xlink:href="#q"/><use transform="matrix(0.05,0,0,0.05,103.80000000000001,0)" xlink:href="#w"/><use transform="matrix(0.05,0,0,0.05,118.75,0)" xlink:href="#p"/><use transform="matrix(0.05,0,0,0.05,128.75,0)" xlink:href="#r"/><use transform="matrix(0.05,0,0,0.05,133.75,0)" xlink:href="#p"/><use transform="matrix(0.05,0,0,0.05,143.75,0)" xlink:href="#o"/><use transform="matrix(0.05,0,0,0.05,149.7,0)" xlink:href="#L"/></g><path d="M101-234c-31-9-42 10-38 44h38v23H63V0H32v-167H5v-23h27c-7-52 17-82 69-68v24" id="S"/><g id="i"><use transform="matrix(0.05,0,0,0.05,0,0)" xlink:href="#S"/><use transform="matrix(0.05,0,0,0.05,5,0)" xlink:href="#q"/><use transform="matrix(0.05,0,0,0.05,15,0)" xlink:href="#P"/><use transform="matrix(0.05,0,0,0.05,18.95,0)" xlink:href="#D"/><use transform="matrix(0.05,0,0,0.05,27.950000000000003,0)" xlink:href="#p"/></g><g id="j"><use transform="matrix(0.05,0,0,0.05,0,0)" xlink:href="#z"/><use transform="matrix(0.05,0,0,0.05,12.950000000000001,0)" xlink:href="#o"/><use transform="matrix(0.05,0,0,0.05,18.900000000000002,0)" xlink:href="#G"/><use transform="matrix(0.05,0,0,0.05,28.900000000000002,0)" xlink:href="#x"/><use transform="matrix(0.05,0,0,0.05,38.900000000000006,0)" xlink:href="#N"/><use transform="matrix(0.05,0,0,0.05,48.900000000000006,0)" xlink:href="#F"/><use transform="matrix(0.05,0,0,0.05,60.900000000000006,0)" xlink:href="#q"/><use transform="matrix(0.05,0,0,0.05,70.9,0)" xlink:href="#o"/><use transform="matrix(0.05,0,0,0.05,76.85000000000001,0)" xlink:href="#q"/><use transform="matrix(0.05,0,0,0.05,86.85000000000001,0)" xlink:href="#w"/><use transform="matrix(0.05,0,0,0.05,101.80000000000001,0)" xlink:href="#p"/><use transform="matrix(0.05,0,0,0.05,111.80000000000001,0)" xlink:href="#r"/><use transform="matrix(0.05,0,0,0.05,116.80000000000001,0)" xlink:href="#p"/><use transform="matrix(0.05,0,0,0.05,126.80000000000001,0)" xlink:href="#o"/><use transform="matrix(0.05,0,0,0.05,132.75,0)" xlink:href="#J"/><use transform="matrix(0.05,0,0,0.05,137.75,0)" xlink:href="#x"/><use transform="matrix(0.05,0,0,0.05,147.75,0)" xlink:href="#u"/><use transform="matrix(0.05,0,0,0.05,157.75,0)" xlink:href="#B"/><use transform="matrix(0.05,0,0,0.05,167.75,0)" xlink:href="#r"/><use transform="matrix(0.05,0,0,0.05,172.75,0)" xlink:href="#K"/><use transform="matrix(0.05,0,0,0.05,178.7,0)" xlink:href="#L"/></g><g id="k"><use transform="matrix(0.05,0,0,0.05,0,0)" xlink:href="#z"/><use transform="matrix(0.05,0,0,0.05,12.950000000000001,0)" xlink:href="#o"/><use transform="matrix(0.05,0,0,0.05,18.900000000000002,0)" xlink:href="#G"/><use transform="matrix(0.05,0,0,0.05,28.900000000000002,0)" xlink:href="#x"/><use transform="matrix(0.05,0,0,0.05,38.900000000000006,0)" xlink:href="#N"/><use transform="matrix(0.05,0,0,0.05,48.900000000000006,0)" xlink:href="#A"/><use transform="matrix(0.05,0,0,0.05,60.900000000000006,0)" xlink:href="#B"/><use transform="matrix(0.05,0,0,0.05,70.9,0)" xlink:href="#C"/><use transform="matrix(0.05,0,0,0.05,80.9,0)" xlink:href="#D"/><use transform="matrix(0.05,0,0,0.05,89.9,0)" xlink:href="#u"/><use transform="matrix(0.05,0,0,0.05,99.9,0)" xlink:href="#q"/><use transform="matrix(0.05,0,0,0.05,109.9,0)" xlink:href="#E"/><use transform="matrix(0.05,0,0,0.05,118.9,0)" xlink:href="#p"/><use transform="matrix(0.05,0,0,0.05,128.9,0)" xlink:href="#J"/><use transform="matrix(0.05,0,0,0.05,133.9,0)" xlink:href="#x"/><use transform="matrix(0.05,0,0,0.05,143.9,0)" xlink:href="#u"/><use transform="matrix(0.05,0,0,0.05,153.9,0)" xlink:href="#B"/><use transform="matrix(0.05,0,0,0.05,163.9,0)" xlink:href="#r"/><use transform="matrix(0.05,0,0,0.05,168.9,0)" xlink:href="#K"/><use transform="matrix(0.05,0,0,0.05,174.85,0)" xlink:href="#L"/></g><path d="M240 0l2-218c-23 76-54 145-80 218h-23L58-218 59 0H30v-248h44l77 211c21-75 51-140 76-211h43V0h-30" id="T"/><g id="l"><use transform="matrix(0.05,0,0,0.05,0,0)" xlink:href="#T"/><use transform="matrix(0.05,0,0,0.05,14.950000000000001,0)" xlink:href="#p"/><use transform="matrix(0.05,0,0,0.05,24.950000000000003,0)" xlink:href="#D"/><use transform="matrix(0.05,0,0,0.05,33.95,0)" xlink:href="#D"/><use transform="matrix(0.05,0,0,0.05,42.95,0)" xlink:href="#q"/><use transform="matrix(0.05,0,0,0.05,52.95,0)" xlink:href="#N"/><use transform="matrix(0.05,0,0,0.05,62.95,0)" xlink:href="#p"/></g></defs></g></svg>