<svg width="1476" height="671" viewBox="0 0 1476 671" fill="none" xmlns="http://www.w3.org/2000/svg">
<g clip-path="url(#clip0_39_6580)">
<path d="M-232.117 -112.627H1767.88V887.373H-232.117V-112.627Z" fill="white"/>
<path d="M131.003 20.0029H331.003V140.003H131.003V20.0029Z" fill="white" stroke="#333333" stroke-width="2"/>
<path d="M173.755 75.4499V73.6499H175.455V75.4499H173.755ZM173.755 83.1499V81.3499H175.455V83.1499H173.755Z" fill="black"/>
<path d="M186.605 83.15L180.005 72.6L180.055 83.15H178.605V70.75H180.555L187.205 81.4L187.105 70.75H188.655V83.15H186.605Z" fill="black"/>
<path d="M197.105 81.3502C196.355 82.4002 195.555 83.4002 193.705 83.3502C191.905 83.3002 190.805 82.3002 190.805 80.5002C190.755 77.3002 193.955 77.3502 197.055 77.3502C197.205 75.6002 196.605 74.6502 195.005 74.6502C193.805 74.7002 192.955 75.0002 192.905 76.2002L191.255 76.0502C191.505 74.2002 192.905 73.4502 195.055 73.4502C197.305 73.4502 198.655 74.4502 198.655 76.6502V80.7502C198.605 81.7502 199.005 82.3502 200.055 82.1002V83.1002C198.505 83.5502 197.005 83.0002 197.105 81.3502ZM192.455 80.5002C192.455 81.5002 193.055 82.1502 194.055 82.1502C196.105 82.0002 197.205 80.7002 197.055 78.4502C194.905 78.5502 192.455 78.2002 192.455 80.5002Z" fill="black"/>
<path d="M205.455 83.1499H203.555L200.105 73.6499H201.805L204.505 81.8999L207.305 73.6499H209.005" fill="black"/>
<path d="M210.255 71.6001V70.1001H211.855V71.6001H210.255ZM210.255 83.1501V73.6501H211.855V83.1501H210.255Z" fill="black"/>
<path d="M221.855 73.6501C221.355 79.9001 223.905 88.3001 216.355 86.7001C215.205 86.4001 214.455 85.7001 214.155 84.5501L215.755 84.3001C216.505 86.6501 220.755 85.9001 220.205 82.9001V81.4001C219.655 82.4501 218.755 83.2001 217.155 83.2001C214.455 83.2001 213.755 81.1501 213.755 78.4001C213.755 75.6001 214.555 73.5501 217.305 73.5001C218.755 73.4501 219.705 74.3001 220.255 75.2501C220.305 74.7501 220.255 74.1001 220.355 73.6501H221.855ZM217.705 82.0501C219.505 82.0501 220.205 80.4501 220.205 78.4001C220.205 76.3001 219.505 74.6501 217.705 74.6501C215.755 74.6501 215.405 76.3501 215.405 78.4001C215.405 80.4501 215.705 82.0501 217.705 82.0501Z" fill="black"/>
<path d="M230.055 81.3502C229.305 82.4002 228.505 83.4002 226.655 83.3502C224.855 83.3002 223.755 82.3002 223.755 80.5002C223.705 77.3002 226.905 77.3502 230.005 77.3502C230.155 75.6002 229.555 74.6502 227.955 74.6502C226.755 74.7002 225.905 75.0002 225.855 76.2002L224.205 76.0502C224.455 74.2002 225.855 73.4502 228.005 73.4502C230.255 73.4502 231.605 74.4502 231.605 76.6502V80.7502C231.555 81.7502 231.955 82.3502 233.005 82.1002V83.1002C231.455 83.5502 229.955 83.0002 230.055 81.3502ZM225.405 80.5002C225.405 81.5002 226.005 82.1502 227.005 82.1502C229.055 82.0002 230.155 80.7002 230.005 78.4502C227.855 78.5502 225.405 78.2002 225.405 80.5002Z" fill="black"/>
<path d="M235.955 80.8C235.855 82 236.855 82.25 237.855 81.9V83.1C236.205 83.6 234.355 83.35 234.355 81.15V74.8H233.255V73.65H234.455L234.905 71.5H235.955V73.65H237.705V74.8H235.955V80.8Z" fill="black"/>
<path d="M239.205 71.6001V70.1001H240.805V71.6001H239.205ZM239.205 83.1501V73.6501H240.805V83.1501H239.205Z" fill="black"/>
<path d="M246.955 73.4502C250.055 73.4002 251.205 75.3002 251.205 78.4002C251.255 81.5502 249.855 83.3502 246.905 83.3502C243.955 83.3502 242.755 81.4002 242.705 78.4002C242.705 75.1002 244.105 73.4502 246.955 73.4502ZM246.905 82.1502C249.105 82.2002 249.555 80.6002 249.555 78.4002C249.555 76.2502 249.155 74.6502 247.005 74.6502C244.855 74.6502 244.355 76.2502 244.355 78.4002C244.355 80.5502 244.855 82.1002 246.905 82.1502Z" fill="black"/>
<path d="M257.805 73.4502C262.255 73.2502 260.455 79.2502 260.805 83.1502H259.205V77.1002C259.205 75.5502 258.805 74.6502 257.255 74.7002C253.655 74.8002 255.055 79.8002 254.805 83.1502H253.205L253.155 73.6502H254.655C254.705 74.1502 254.605 74.8502 254.755 75.2502C255.305 74.1502 256.205 73.5002 257.805 73.4502Z" fill="black"/>
<path d="M269.955 76.6003C271.705 76.8503 273.005 77.7503 273.005 79.6503C273.005 84.0003 267.705 83.0503 263.455 83.1503V70.7503C267.255 70.9003 272.305 69.9003 272.305 73.7503C272.305 75.4003 271.355 76.2503 269.955 76.6003ZM265.105 76.0503C267.605 76.0003 270.605 76.5003 270.605 73.9503C270.605 71.6003 267.455 72.1503 265.105 72.1003V76.0503ZM265.105 81.8003C267.855 81.7003 271.305 82.5003 271.305 79.5503C271.305 76.7503 267.805 77.4503 265.105 77.3503V81.8003Z" fill="black"/>
<path d="M281.005 81.3502C280.255 82.4002 279.455 83.4002 277.605 83.3502C275.805 83.3002 274.705 82.3002 274.705 80.5002C274.655 77.3002 277.855 77.3502 280.955 77.3502C281.105 75.6002 280.505 74.6502 278.905 74.6502C277.705 74.7002 276.855 75.0002 276.805 76.2002L275.155 76.0502C275.405 74.2002 276.805 73.4502 278.955 73.4502C281.205 73.4502 282.555 74.4502 282.555 76.6502V80.7502C282.505 81.7502 282.905 82.3502 283.955 82.1002V83.1002C282.405 83.5502 280.905 83.0002 281.005 81.3502ZM276.355 80.5002C276.355 81.5002 276.955 82.1502 277.955 82.1502C280.005 82.0002 281.105 80.7002 280.955 78.4502C278.805 78.5502 276.355 78.2002 276.355 80.5002Z" fill="black"/>
<path d="M289.655 75C285.755 74.2 287.005 79.55 286.805 83.15H285.205L285.155 73.65H286.655C286.705 74.25 286.605 75.1 286.755 75.6C287.055 74.25 287.905 73.15 289.655 73.55V75Z" fill="black"/>
<path d="M171.205 84.3999H290.805V85.7199H171.205V84.3999Z" fill="black"/>
<path d="M791.003 20.0029H991.003V140.003H791.003V20.0029Z" fill="white" stroke="#333333" stroke-width="2"/>
<path d="M837.68 75.4499V73.6499H839.38V75.4499H837.68ZM837.68 83.1499V81.3499H839.38V83.1499H837.68Z" fill="black"/>
<path d="M851.281 83.15L849.881 79.55H844.231L842.831 83.15H841.081L846.131 70.75H848.031L852.981 83.15H851.281ZM849.381 78.2L847.031 72.05C846.431 74.3 845.481 76.15 844.731 78.2H849.381Z" fill="black"/>
<path d="M854.53 70.75C858.88 70.8 864.08 70 864.08 74.5C864.08 78.4 860.23 78.5 856.18 78.3V83.15H854.53V70.75ZM856.18 77C859.03 77 862.38 77.55 862.38 74.5C862.38 71.55 858.98 72.15 856.18 72.1V77Z" fill="black"/>
<path d="M866.68 83.15V70.75H868.38V83.15H866.68Z" fill="black"/>
<path d="M881.68 74.3001C881.63 76.3501 880.53 77.5001 878.68 77.8001L882.18 83.1501H880.28L877.03 78.0001H873.18V83.1501H871.53V70.7501C875.93 70.9001 881.78 69.7001 881.68 74.3001ZM873.18 76.7001C876.18 76.6001 880.03 77.3501 880.03 74.3501C880.03 71.3001 876.03 72.2501 873.18 72.1001V76.7001Z" fill="black"/>
<path d="M887.98 73.4502C891.13 73.4502 892.28 75.5502 892.18 78.7502H885.43C885.43 80.7502 886.13 82.1002 888.08 82.1502C889.38 82.2002 890.23 81.5502 890.53 80.7002L891.93 81.1002C891.38 82.5002 890.08 83.3502 888.08 83.3502C885.18 83.3502 883.68 81.5002 883.73 78.3502C883.78 75.3002 885.03 73.4502 887.98 73.4502ZM890.58 77.5002C890.88 74.5002 886.78 73.6502 885.73 76.1002C885.58 76.4502 885.43 76.9502 885.43 77.5002H890.58Z" fill="black"/>
<path d="M900.23 81.6001C899.68 82.7001 898.78 83.3501 897.23 83.3501C894.58 83.3501 893.78 81.4001 893.73 78.4501C893.73 75.5001 894.58 73.5001 897.23 73.4501C898.83 73.4001 899.63 74.1501 900.23 75.1001C900.23 74.5501 900.18 73.9001 900.33 73.5001H901.83L901.78 86.9001H900.18L900.23 81.6001ZM897.63 82.1001C899.68 82.1001 900.18 80.4501 900.18 78.3001C900.18 76.1501 899.78 74.6501 897.68 74.6501C895.68 74.6501 895.38 76.4001 895.38 78.4001C895.38 80.4001 895.63 82.1001 897.63 82.1001Z" fill="black"/>
<path d="M907.181 83.3499C902.731 83.5499 904.481 77.5499 904.131 73.6499H905.731V79.6499C905.731 81.1999 906.081 82.1499 907.681 82.0999C911.281 81.9999 909.931 77.0499 910.181 73.6499H911.731L911.781 83.1499H910.281C910.231 82.6499 910.331 81.8999 910.181 81.4999C909.631 82.5999 908.781 83.2999 907.181 83.3499Z" fill="black"/>
<path d="M917.98 73.4502C921.13 73.4502 922.28 75.5502 922.18 78.7502H915.43C915.43 80.7502 916.13 82.1002 918.08 82.1502C919.38 82.2002 920.23 81.5502 920.53 80.7002L921.93 81.1002C921.38 82.5002 920.08 83.3502 918.08 83.3502C915.18 83.3502 913.68 81.5002 913.73 78.3502C913.78 75.3002 915.03 73.4502 917.98 73.4502ZM920.58 77.5002C920.88 74.5002 916.78 73.6502 915.73 76.1002C915.58 76.4502 915.43 76.9502 915.43 77.5002H920.58Z" fill="black"/>
<path d="M929.73 76.0003C929.58 74.3003 925.43 74.1003 925.38 76.0003C926.13 78.6503 931.13 76.6003 931.33 80.5003C931.53 84.4003 923.83 84.2003 923.48 80.9003L924.88 80.6503C925.08 82.4503 929.73 82.9003 929.78 80.6503C929.28 77.8503 924.13 79.9003 923.88 76.1503C923.68 73.3003 927.98 73.0003 929.98 74.0503C930.58 74.4003 931.03 75.0003 931.18 75.8003" fill="black"/>
<path d="M934.93 80.8C934.83 82 935.83 82.25 936.83 81.9V83.1C935.18 83.6 933.33 83.35 933.33 81.15V74.8H932.23V73.65H933.43L933.88 71.5H934.93V73.65H936.68V74.8H934.93V80.8Z" fill="black"/>
<path d="M943.73 76.0003C943.58 74.3003 939.43 74.1003 939.38 76.0003C940.13 78.6503 945.13 76.6003 945.33 80.5003C945.53 84.4003 937.83 84.2003 937.48 80.9003L938.88 80.6503C939.08 82.4503 943.73 82.9003 943.78 80.6503C943.28 77.8503 938.13 79.9003 937.88 76.1503C937.68 73.3003 941.98 73.0003 943.98 74.0503C944.58 74.4003 945.03 75.0003 945.18 75.8003" fill="black"/>
<path d="M835.13 84.3999H946.88V85.7199H835.13V84.3999Z" fill="black"/>
<path d="M231.003 142.003V162.703M231.003 183.403V224.833M231.003 245.533V286.953M231.003 307.653V349.083M231.003 369.803V411.203M231.003 431.923V473.343M231.003 494.043V535.473M231.003 556.173V597.573M231.003 618.293V638.993" stroke="#3A414A" stroke-width="2"/>
<path d="M232.003 142.023H230.003V141.003H232.003V142.023Z" fill="#3A414A" stroke="#3A414A" stroke-width="0.05"/>
<path d="M231.003 638.973V640.003M12.0029 180.003H192.503M12.0225 180.003H11.0029" stroke="#3A414A" stroke-width="2"/>
<path d="M207.763 180.003L193.493 184.633V175.373L207.763 180.003Z" fill="#3A414A" stroke="#3A414A" stroke-width="2"/>
<path d="M72.5498 159.1C75.6498 159.05 76.7998 160.95 76.7998 164.05C76.8498 167.2 75.4498 169 72.4998 169C69.5498 169 68.3498 167.05 68.2998 164.05C68.2998 160.75 69.6998 159.1 72.5498 159.1ZM72.4998 167.8C74.6998 167.85 75.1498 166.25 75.1498 164.05C75.1498 161.9 74.7498 160.3 72.5998 160.3C70.4498 160.3 69.9498 161.9 69.9498 164.05C69.9498 166.2 70.4498 167.75 72.4998 167.8Z" fill="black"/>
<path d="M83.4 159.1C87.85 158.9 86.05 164.9 86.4 168.8H84.8V162.75C84.8 161.2 84.4 160.3 82.85 160.35C79.25 160.45 80.65 165.45 80.4 168.8H78.8L78.75 159.3H80.25C80.3 159.8 80.2 160.5 80.35 160.9C80.9 159.8 81.8 159.15 83.4 159.1Z" fill="black"/>
<path d="M89.0498 168.8V156.4H90.6998V167.45H96.9498V168.8H89.0498Z" fill="black"/>
<path d="M102.55 159.1C105.65 159.05 106.8 160.95 106.8 164.05C106.85 167.2 105.45 169 102.5 169C99.5498 169 98.3498 167.05 98.2998 164.05C98.2998 160.75 99.6998 159.1 102.55 159.1ZM102.5 167.8C104.7 167.85 105.15 166.25 105.15 164.05C105.15 161.9 104.75 160.3 102.6 160.3C100.45 160.3 99.9498 161.9 99.9498 164.05C99.9498 166.2 100.45 167.75 102.5 167.8Z" fill="black"/>
<path d="M116.4 159.3C115.9 165.55 118.45 173.95 110.9 172.35C109.75 172.05 109 171.35 108.7 170.2L110.3 169.95C111.05 172.3 115.3 171.55 114.75 168.55V167.05C114.2 168.1 113.3 168.85 111.7 168.85C109 168.85 108.3 166.8 108.3 164.05C108.3 161.25 109.1 159.2 111.85 159.15C113.3 159.1 114.25 159.95 114.8 160.9C114.85 160.4 114.8 159.75 114.9 159.3H116.4ZM112.25 167.7C114.05 167.7 114.75 166.1 114.75 164.05C114.75 161.95 114.05 160.3 112.25 160.3C110.3 160.3 109.95 162 109.95 164.05C109.95 166.1 110.25 167.7 112.25 167.7Z" fill="black"/>
<path d="M122.55 159.1C125.65 159.05 126.8 160.95 126.8 164.05C126.85 167.2 125.45 169 122.5 169C119.55 169 118.35 167.05 118.3 164.05C118.3 160.75 119.7 159.1 122.55 159.1ZM122.5 167.8C124.7 167.85 125.15 166.25 125.15 164.05C125.15 161.9 124.75 160.3 122.6 160.3C120.45 160.3 119.95 161.9 119.95 164.05C119.95 166.2 120.45 167.75 122.5 167.8Z" fill="black"/>
<path d="M131.75 169C127.3 169.2 129.05 163.2 128.7 159.3H130.3V165.3C130.3 166.85 130.65 167.8 132.25 167.75C135.85 167.65 134.5 162.7 134.75 159.3H136.3L136.35 168.8H134.85C134.8 168.3 134.9 167.55 134.75 167.15C134.2 168.25 133.35 168.95 131.75 169Z" fill="black"/>
<path d="M140.5 166.45C140.4 167.65 141.4 167.9 142.4 167.55V168.75C140.75 169.25 138.9 169 138.9 166.8V160.45H137.8V159.3H139L139.45 157.15H140.5V159.3H142.25V160.45H140.5V166.45Z" fill="black"/>
<path d="M146.9 172.55C145 170.45 143.65 167.95 143.65 164.1C143.65 160.3 145.05 157.8 146.9 155.75H148.45C146.55 157.8 145.25 160.35 145.25 164.15C145.25 167.95 146.55 170.5 148.45 172.55H146.9Z" fill="black"/>
<path d="M150.15 155.75C152.05 157.8 153.4 160.35 153.4 164.15C153.4 167.95 152.05 170.5 150.15 172.55H148.6C150.45 170.5 151.8 167.95 151.8 164.15C151.8 160.35 150.45 157.8 148.6 155.75H150.15Z" fill="black"/>
<path d="M211.003 160.003H251.003V620.003H211.003V160.003Z" fill="white" stroke="#333333" stroke-width="2"/>
<path d="M253.003 194.143H551.503" stroke="#3A414A" stroke-width="2"/>
<path d="M253.023 195.143H252.003V193.143H253.023V195.143Z" fill="#3A414A" stroke="#3A414A" stroke-width="0.05"/>
<path d="M566.763 194.143L552.493 198.773V189.503L566.763 194.143Z" fill="#3A414A" stroke="#3A414A" stroke-width="2"/>
<path d="M364.8 175.792C364.65 174.092 360.5 173.892 360.45 175.792C361.2 178.442 366.2 176.392 366.4 180.292C366.6 184.192 358.9 183.992 358.55 180.692L359.95 180.442C360.15 182.242 364.8 182.692 364.85 180.442C364.35 177.642 359.2 179.692 358.95 175.942C358.75 173.092 363.05 172.792 365.05 173.842C365.65 174.192 366.1 174.792 366.25 175.592" fill="black"/>
<path d="M372.051 173.242C375.201 173.242 376.351 175.342 376.251 178.542H369.501C369.501 180.542 370.201 181.892 372.151 181.942C373.451 181.992 374.301 181.342 374.601 180.492L376.001 180.892C375.451 182.292 374.151 183.142 372.151 183.142C369.251 183.142 367.751 181.292 367.801 178.142C367.851 175.092 369.101 173.242 372.051 173.242ZM374.651 177.292C374.951 174.292 370.851 173.442 369.801 175.892C369.651 176.242 369.501 176.742 369.501 177.292H374.651Z" fill="black"/>
<path d="M382.9 173.242C387.35 173.042 385.55 179.042 385.9 182.942H384.3V176.892C384.3 175.342 383.9 174.442 382.35 174.492C378.75 174.592 380.15 179.592 379.9 182.942H378.3L378.25 173.442H379.75C379.8 173.942 379.7 174.642 379.85 175.042C380.4 173.942 381.3 173.292 382.9 173.242Z" fill="black"/>
<path d="M391.3 173.242C392.85 173.242 393.7 173.892 394.3 174.892L394.25 169.892H395.85L395.9 182.942H394.4C394.3 182.442 394.4 181.792 394.25 181.392C393.75 182.542 392.85 183.142 391.3 183.142C388.65 183.142 387.85 181.192 387.8 178.242C387.8 174.942 388.95 173.242 391.3 173.242ZM391.75 174.442C389.75 174.442 389.45 176.142 389.45 178.192C389.45 180.192 389.75 181.892 391.7 181.892C393.8 181.892 394.25 180.292 394.25 178.092C394.25 175.992 393.8 174.392 391.75 174.442Z" fill="black"/>
<path d="M398.55 182.942V170.542H400.2V181.592H406.45V182.942H398.55Z" fill="black"/>
<path d="M412.05 173.242C415.15 173.192 416.3 175.092 416.3 178.192C416.35 181.342 414.95 183.142 412 183.142C409.05 183.142 407.85 181.192 407.8 178.192C407.8 174.892 409.2 173.242 412.05 173.242ZM412 181.942C414.2 181.992 414.65 180.392 414.65 178.192C414.65 176.042 414.25 174.442 412.1 174.442C409.95 174.442 409.45 176.042 409.45 178.192C409.45 180.342 409.95 181.892 412 181.942Z" fill="black"/>
<path d="M425.9 173.442C425.4 179.692 427.95 188.092 420.4 186.492C419.25 186.192 418.5 185.492 418.2 184.342L419.8 184.092C420.55 186.442 424.8 185.692 424.25 182.692V181.192C423.7 182.242 422.8 182.992 421.2 182.992C418.5 182.992 417.8 180.942 417.8 178.192C417.8 175.392 418.6 173.342 421.35 173.292C422.8 173.242 423.75 174.092 424.3 175.042C424.35 174.542 424.3 173.892 424.4 173.442H425.9ZM421.75 181.842C423.55 181.842 424.25 180.242 424.25 178.192C424.25 176.092 423.55 174.442 421.75 174.442C419.8 174.442 419.45 176.142 419.45 178.192C419.45 180.242 419.75 181.842 421.75 181.842Z" fill="black"/>
<path d="M432.05 173.242C435.15 173.192 436.3 175.092 436.3 178.192C436.35 181.342 434.95 183.142 432 183.142C429.05 183.142 427.85 181.192 427.8 178.192C427.8 174.892 429.2 173.242 432.05 173.242ZM432 181.942C434.2 181.992 434.65 180.392 434.65 178.192C434.65 176.042 434.25 174.442 432.1 174.442C429.95 174.442 429.45 176.042 429.45 178.192C429.45 180.342 429.95 181.892 432 181.942Z" fill="black"/>
<path d="M441.25 183.142C436.8 183.342 438.55 177.342 438.2 173.442H439.8V179.442C439.8 180.992 440.15 181.942 441.75 181.892C445.35 181.792 444 176.842 444.25 173.442H445.8L445.85 182.942H444.35C444.3 182.442 444.4 181.692 444.25 181.292C443.7 182.392 442.85 183.092 441.25 183.142Z" fill="black"/>
<path d="M450 180.592C449.9 181.792 450.9 182.042 451.9 181.692V182.892C450.25 183.392 448.4 183.142 448.4 180.942V174.592H447.3V173.442H448.5L448.95 171.292H450V173.442H451.75V174.592H450V180.592Z" fill="black"/>
<path d="M456.4 186.692C454.5 184.592 453.15 182.092 453.15 178.242C453.15 174.442 454.55 171.942 456.4 169.892H457.95C456.05 171.942 454.75 174.492 454.75 178.292C454.75 182.092 456.05 184.642 457.95 186.692H456.4Z" fill="black"/>
<path d="M459.65 169.892C461.55 171.942 462.9 174.492 462.9 178.292C462.9 182.092 461.55 184.642 459.65 186.692H458.1C459.95 184.642 461.3 182.092 461.3 178.292C461.3 174.492 459.95 171.942 458.1 169.892H459.65Z" fill="black"/>
<path d="M891.003 142.003V162.703M891.003 183.403V224.833M891.003 245.533V286.953M891.003 307.653V349.083M891.003 369.803V411.203M891.003 431.923V473.343M891.003 494.043V535.473M891.003 556.173V597.573M891.003 618.293V638.993" stroke="#3A414A" stroke-width="2"/>
<path d="M892.003 142.023H890.003V141.003H892.003V142.023Z" fill="#3A414A" stroke="#3A414A" stroke-width="0.05"/>
<path d="M891.003 638.973V640.003" stroke="#3A414A" stroke-width="2"/>
<path d="M871.003 160.003H911.003V280.003H871.003V160.003Z" fill="white" stroke="#333333" stroke-width="2"/>
<path d="M253.003 556.743H286.003C287.594 556.743 289.12 557.375 290.246 558.5C291.371 559.626 292.003 561.152 292.003 562.743V594.883C292.003 596.474 291.371 598.001 290.246 599.126C289.12 600.251 287.594 600.883 286.003 600.883H270.503" stroke="#3A414A" stroke-width="2"/>
<path d="M253.023 557.743H252.003V555.743H253.023V557.743Z" fill="#3A414A" stroke="#3A414A" stroke-width="0.05"/>
<path d="M255.233 600.873L269.503 596.243V605.513L255.233 600.873Z" fill="#3A414A" stroke="#3A414A" stroke-width="2"/>
<path d="M305.7 574.26C301.8 573.46 303.05 578.81 302.85 582.41H301.25L301.2 572.91H302.7C302.75 573.51 302.65 574.36 302.8 574.86C303.1 573.51 303.95 572.41 305.7 572.81V574.26Z" fill="black"/>
<path d="M310.95 572.71C314.1 572.71 315.25 574.81 315.15 578.01H308.4C308.4 580.01 309.1 581.36 311.05 581.41C312.35 581.46 313.2 580.81 313.5 579.96L314.9 580.36C314.35 581.76 313.05 582.61 311.05 582.61C308.15 582.61 306.65 580.76 306.7 577.61C306.75 574.56 308 572.71 310.95 572.71ZM313.55 576.76C313.85 573.76 309.75 572.91 308.7 575.36C308.55 575.71 308.4 576.21 308.4 576.76H313.55Z" fill="black"/>
<path d="M320.2 572.71C321.75 572.71 322.6 573.36 323.2 574.36L323.15 569.36H324.75L324.8 582.41H323.3C323.2 581.91 323.3 581.26 323.15 580.86C322.65 582.01 321.75 582.61 320.2 582.61C317.55 582.61 316.75 580.66 316.7 577.71C316.7 574.41 317.85 572.71 320.2 572.71ZM320.65 573.91C318.65 573.91 318.35 575.61 318.35 577.66C318.35 579.66 318.65 581.36 320.6 581.36C322.7 581.36 323.15 579.76 323.15 577.56C323.15 575.46 322.7 573.86 320.65 573.91Z" fill="black"/>
<path d="M327.15 570.86V569.36H328.75V570.86H327.15ZM327.15 582.41V572.91H328.75V582.41H327.15Z" fill="black"/>
<path d="M335.6 574.26C331.7 573.46 332.95 578.81 332.75 582.41H331.15L331.1 572.91H332.6C332.65 573.51 332.55 574.36 332.7 574.86C333 573.51 333.85 572.41 335.6 572.81V574.26Z" fill="black"/>
<path d="M340.85 572.71C344 572.71 345.15 574.81 345.05 578.01H338.3C338.3 580.01 339 581.36 340.95 581.41C342.25 581.46 343.1 580.81 343.4 579.96L344.8 580.36C344.25 581.76 342.95 582.61 340.95 582.61C338.05 582.61 336.55 580.76 336.6 577.61C336.65 574.56 337.9 572.71 340.85 572.71ZM343.45 576.76C343.75 573.76 339.65 572.91 338.6 575.36C338.45 575.71 338.3 576.21 338.3 576.76H343.45Z" fill="black"/>
<path d="M350.65 573.961C348.65 573.961 348.25 575.611 348.25 577.611C348.25 579.611 348.7 581.361 350.65 581.361C351.85 581.361 352.7 580.661 352.8 579.461L354.4 579.561C354.1 581.411 352.85 582.611 350.7 582.611C347.75 582.611 346.9 580.561 346.6 577.661C346.1 573.011 351.65 571.111 353.95 574.461C354.15 574.811 354.2 575.161 354.3 575.561L352.7 575.711C352.5 574.661 351.9 573.961 350.65 573.961Z" fill="black"/>
<path d="M357.8 580.06C357.7 581.26 358.7 581.51 359.7 581.16V582.36C358.05 582.86 356.2 582.61 356.2 580.41V574.06H355.1V572.91H356.3L356.75 570.76H357.8V572.91H359.55V574.06H357.8V580.06Z" fill="black"/>
<path d="M364.2 586.16C362.3 584.06 360.95 581.56 360.95 577.71C360.95 573.91 362.35 571.41 364.2 569.36H365.75C363.85 571.41 362.55 573.96 362.55 577.76C362.55 581.56 363.85 584.11 365.75 586.16H364.2Z" fill="black"/>
<path d="M368.15 573.91H366.9L366.7 570.01H368.35" fill="black"/>
<path d="M369.2 582.61L372.8 569.36H374.2L370.6 582.61H369.2Z" fill="black"/>
<path d="M376.55 573.91H375.3L375.1 570.01H376.75" fill="black"/>
<path d="M379.25 569.36C381.15 571.41 382.5 573.96 382.5 577.76C382.5 581.56 381.15 584.11 379.25 586.16H377.7C379.55 584.11 380.9 581.56 380.9 577.76C380.9 573.96 379.55 571.41 377.7 569.36H379.25Z" fill="black"/>
<path d="M913.003 212.373H1228.18" stroke="#3A414A" stroke-width="2"/>
<path d="M913.023 213.373H912.003V211.373H913.023V213.373Z" fill="#3A414A" stroke="#3A414A" stroke-width="0.05"/>
<path d="M1210.82 222.543L1228.02 212.363L1210.82 202.163" stroke="#3A414A" stroke-width="2"/>
<path d="M1030.75 201.366C1026.3 201.566 1028.05 195.566 1027.7 191.666H1029.3V197.666C1029.3 199.216 1029.65 200.166 1031.25 200.116C1034.85 200.016 1033.5 195.066 1033.75 191.666H1035.3L1035.35 201.166H1033.85C1033.8 200.666 1033.9 199.916 1033.75 199.516C1033.2 200.616 1032.35 201.316 1030.75 201.366Z" fill="black"/>
<path d="M1043.3 194.016C1043.15 192.316 1039 192.116 1038.95 194.016C1039.7 196.666 1044.7 194.616 1044.9 198.516C1045.1 202.416 1037.4 202.216 1037.05 198.916L1038.45 198.666C1038.65 200.466 1043.3 200.916 1043.35 198.666C1042.85 195.866 1037.7 197.916 1037.45 194.166C1037.25 191.316 1041.55 191.016 1043.55 192.066C1044.15 192.416 1044.6 193.016 1044.75 193.816" fill="black"/>
<path d="M1050.55 191.466C1053.7 191.466 1054.85 193.566 1054.75 196.766H1048C1048 198.766 1048.7 200.116 1050.65 200.166C1051.95 200.216 1052.8 199.566 1053.1 198.716L1054.5 199.116C1053.95 200.516 1052.65 201.366 1050.65 201.366C1047.75 201.366 1046.25 199.516 1046.3 196.366C1046.35 193.316 1047.6 191.466 1050.55 191.466ZM1053.15 195.516C1053.45 192.516 1049.35 191.666 1048.3 194.116C1048.15 194.466 1048 194.966 1048 195.516H1053.15Z" fill="black"/>
<path d="M1061.25 193.016C1057.35 192.216 1058.6 197.566 1058.4 201.166H1056.8L1056.75 191.666H1058.25C1058.3 192.266 1058.2 193.116 1058.35 193.616C1058.65 192.266 1059.5 191.166 1061.25 191.566V193.016Z" fill="black"/>
<path d="M1061.5 201.366L1065.1 188.116H1066.5L1062.9 201.366H1061.5Z" fill="black"/>
<path d="M1067.7 201.166V188.116H1069.3V201.166H1067.7Z" fill="black"/>
<path d="M1075.45 191.466C1078.55 191.416 1079.7 193.316 1079.7 196.416C1079.75 199.566 1078.35 201.366 1075.4 201.366C1072.45 201.366 1071.25 199.416 1071.2 196.416C1071.2 193.116 1072.6 191.466 1075.45 191.466ZM1075.4 200.166C1077.6 200.216 1078.05 198.616 1078.05 196.416C1078.05 194.266 1077.65 192.666 1075.5 192.666C1073.35 192.666 1072.85 194.266 1072.85 196.416C1072.85 198.566 1073.35 200.116 1075.4 200.166Z" fill="black"/>
<path d="M1089.3 191.666C1088.8 197.916 1091.35 206.316 1083.8 204.716C1082.65 204.416 1081.9 203.716 1081.6 202.566L1083.2 202.316C1083.95 204.666 1088.2 203.916 1087.65 200.916V199.416C1087.1 200.466 1086.2 201.216 1084.6 201.216C1081.9 201.216 1081.2 199.166 1081.2 196.416C1081.2 193.616 1082 191.566 1084.75 191.516C1086.2 191.466 1087.15 192.316 1087.7 193.266C1087.75 192.766 1087.7 192.116 1087.8 191.666H1089.3ZM1085.15 200.066C1086.95 200.066 1087.65 198.466 1087.65 196.416C1087.65 194.316 1086.95 192.666 1085.15 192.666C1083.2 192.666 1082.85 194.366 1082.85 196.416C1082.85 198.466 1083.15 200.066 1085.15 200.066Z" fill="black"/>
<path d="M1095.45 191.466C1098.55 191.416 1099.7 193.316 1099.7 196.416C1099.75 199.566 1098.35 201.366 1095.4 201.366C1092.45 201.366 1091.25 199.416 1091.2 196.416C1091.2 193.116 1092.6 191.466 1095.45 191.466ZM1095.4 200.166C1097.6 200.216 1098.05 198.616 1098.05 196.416C1098.05 194.266 1097.65 192.666 1095.5 192.666C1093.35 192.666 1092.85 194.266 1092.85 196.416C1092.85 198.566 1093.35 200.116 1095.4 200.166Z" fill="black"/>
<path d="M1104.65 201.366C1100.2 201.566 1101.95 195.566 1101.6 191.666H1103.2V197.666C1103.2 199.216 1103.55 200.166 1105.15 200.116C1108.75 200.016 1107.4 195.066 1107.65 191.666H1109.2L1109.25 201.166H1107.75C1107.7 200.666 1107.8 199.916 1107.65 199.516C1107.1 200.616 1106.25 201.316 1104.65 201.366Z" fill="black"/>
<path d="M1113.4 198.816C1113.3 200.016 1114.3 200.266 1115.3 199.916V201.116C1113.65 201.616 1111.8 201.366 1111.8 199.166V192.816H1110.7V191.666H1111.9L1112.35 189.516H1113.4V191.666H1115.15V192.816H1113.4V198.816Z" fill="black"/>
<path d="M1150 40.0029H1350V160.003H1150V40.0029Z" fill="white" stroke="#333333" stroke-width="2"/>
<path d="M1163.25 95.4499V93.6499H1164.95V95.4499H1163.25ZM1163.25 103.15V101.35H1164.95V103.15H1163.25Z" fill="black"/>
<path d="M1178.2 98.5C1178.15 101.75 1176.2 103.35 1173 103.35C1169.95 103.35 1168 101.75 1168 98.65V90.75H1169.65C1170.05 95.2 1168 101.95 1173 101.95C1178.1 101.95 1176.2 95.3 1176.55 90.75H1178.2V98.5Z" fill="black"/>
<path d="M1186.31 95.9998C1186.16 94.2998 1182.01 94.0998 1181.96 95.9998C1182.71 98.6498 1187.71 96.5998 1187.91 100.5C1188.11 104.4 1180.41 104.2 1180.06 100.9L1181.46 100.65C1181.66 102.45 1186.31 102.9 1186.36 100.65C1185.86 97.8498 1180.71 99.8998 1180.46 96.1498C1180.26 93.2998 1184.56 92.9998 1186.56 94.0498C1187.16 94.3998 1187.61 94.9998 1187.76 95.7998" fill="black"/>
<path d="M1193.55 93.4502C1196.7 93.4502 1197.85 95.5502 1197.75 98.7502H1191C1191 100.75 1191.7 102.1 1193.65 102.15C1194.95 102.2 1195.8 101.55 1196.1 100.7L1197.5 101.1C1196.95 102.5 1195.65 103.35 1193.65 103.35C1190.75 103.35 1189.25 101.5 1189.3 98.3502C1189.35 95.3002 1190.6 93.4502 1193.55 93.4502ZM1196.15 97.5002C1196.45 94.5002 1192.35 93.6502 1191.3 96.1002C1191.15 96.4502 1191 96.9502 1191 97.5002H1196.15Z" fill="black"/>
<path d="M1204.25 95C1200.35 94.2 1201.6 99.55 1201.4 103.15H1199.8L1199.75 93.65H1201.25C1201.3 94.25 1201.2 95.1 1201.35 95.6C1201.65 94.25 1202.5 93.15 1204.25 93.55V95Z" fill="black"/>
<path d="M1216.5 103.15L1216.6 92.25C1215.45 96.05 1213.9 99.5 1212.6 103.15H1211.45L1207.4 92.25L1207.45 103.15H1206V90.75H1208.2L1212.05 101.3C1213.1 97.55 1214.6 94.3 1215.85 90.75H1218V103.15H1216.5Z" fill="black"/>
<path d="M1226.51 101.35C1225.76 102.4 1224.96 103.4 1223.11 103.35C1221.31 103.3 1220.21 102.3 1220.21 100.5C1220.16 97.3002 1223.36 97.3502 1226.46 97.3502C1226.61 95.6002 1226.01 94.6502 1224.41 94.6502C1223.21 94.7002 1222.36 95.0002 1222.31 96.2002L1220.66 96.0502C1220.91 94.2002 1222.31 93.4502 1224.46 93.4502C1226.71 93.4502 1228.06 94.4502 1228.06 96.6502V100.75C1228.01 101.75 1228.41 102.35 1229.46 102.1V103.1C1227.91 103.55 1226.41 103 1226.51 101.35ZM1221.86 100.5C1221.86 101.5 1222.46 102.15 1223.46 102.15C1225.51 102 1226.61 100.7 1226.46 98.4502C1224.31 98.5502 1221.86 98.2002 1221.86 100.5Z" fill="black"/>
<path d="M1235.31 93.4502C1239.76 93.2502 1237.96 99.2502 1238.31 103.15H1236.71V97.1002C1236.71 95.5502 1236.31 94.6502 1234.76 94.7002C1231.16 94.8002 1232.56 99.8002 1232.31 103.15H1230.71L1230.66 93.6502H1232.16C1232.21 94.1502 1232.11 94.8502 1232.26 95.2502C1232.81 94.1502 1233.71 93.5002 1235.31 93.4502Z" fill="black"/>
<path d="M1246.51 101.35C1245.76 102.4 1244.96 103.4 1243.11 103.35C1241.31 103.3 1240.21 102.3 1240.21 100.5C1240.16 97.3002 1243.36 97.3502 1246.46 97.3502C1246.61 95.6002 1246.01 94.6502 1244.41 94.6502C1243.21 94.7002 1242.36 95.0002 1242.31 96.2002L1240.66 96.0502C1240.91 94.2002 1242.31 93.4502 1244.46 93.4502C1246.71 93.4502 1248.06 94.4502 1248.06 96.6502V100.75C1248.01 101.75 1248.41 102.35 1249.46 102.1V103.1C1247.91 103.55 1246.41 103 1246.51 101.35ZM1241.86 100.5C1241.86 101.5 1242.46 102.15 1243.46 102.15C1245.51 102 1246.61 100.7 1246.46 98.4502C1244.31 98.5502 1241.86 98.2002 1241.86 100.5Z" fill="black"/>
<path d="M1258.31 93.6501C1257.81 99.9001 1260.36 108.3 1252.81 106.7C1251.66 106.4 1250.91 105.7 1250.61 104.55L1252.21 104.3C1252.96 106.65 1257.21 105.9 1256.66 102.9V101.4C1256.11 102.45 1255.21 103.2 1253.61 103.2C1250.91 103.2 1250.21 101.15 1250.21 98.4001C1250.21 95.6001 1251.01 93.5501 1253.76 93.5001C1255.21 93.4501 1256.16 94.3001 1256.71 95.2501C1256.76 94.7501 1256.71 94.1001 1256.81 93.6501H1258.31ZM1254.16 102.05C1255.96 102.05 1256.66 100.45 1256.66 98.4001C1256.66 96.3001 1255.96 94.6501 1254.16 94.6501C1252.21 94.6501 1251.86 96.3501 1251.86 98.4001C1251.86 100.45 1252.16 102.05 1254.16 102.05Z" fill="black"/>
<path d="M1264.46 93.4502C1267.61 93.4502 1268.76 95.5502 1268.66 98.7502H1261.91C1261.91 100.75 1262.61 102.1 1264.56 102.15C1265.86 102.2 1266.71 101.55 1267.01 100.7L1268.41 101.1C1267.86 102.5 1266.56 103.35 1264.56 103.35C1261.66 103.35 1260.16 101.5 1260.21 98.3502C1260.26 95.3002 1261.51 93.4502 1264.46 93.4502ZM1267.06 97.5002C1267.36 94.5002 1263.26 93.6502 1262.21 96.1002C1262.06 96.4502 1261.91 96.9502 1261.91 97.5002H1267.06Z" fill="black"/>
<path d="M1279.96 94.7C1276.61 94.85 1278.06 99.95 1277.76 103.15H1276.21V97.1C1276.21 95.65 1275.96 94.6 1274.46 94.7C1271.16 94.9 1272.56 99.9 1272.26 103.15H1270.71L1270.66 93.65H1272.16C1272.21 94.15 1272.11 94.85 1272.26 95.25C1272.76 93.05 1277.21 92.75 1277.61 95.25C1278.16 94.2 1278.96 93.5 1280.51 93.45C1284.76 93.35 1282.86 99.4 1283.26 103.15H1281.71V97.1C1281.71 95.65 1281.46 94.65 1279.96 94.7Z" fill="black"/>
<path d="M1289.41 93.4502C1292.56 93.4502 1293.71 95.5502 1293.61 98.7502H1286.86C1286.86 100.75 1287.56 102.1 1289.51 102.15C1290.81 102.2 1291.66 101.55 1291.96 100.7L1293.36 101.1C1292.81 102.5 1291.51 103.35 1289.51 103.35C1286.61 103.35 1285.11 101.5 1285.16 98.3502C1285.21 95.3002 1286.46 93.4502 1289.41 93.4502ZM1292.01 97.5002C1292.31 94.5002 1288.21 93.6502 1287.16 96.1002C1287.01 96.4502 1286.86 96.9502 1286.86 97.5002H1292.01Z" fill="black"/>
<path d="M1300.25 93.4502C1304.7 93.2502 1302.9 99.2502 1303.25 103.15H1301.65V97.1002C1301.65 95.5502 1301.25 94.6502 1299.7 94.7002C1296.1 94.8002 1297.5 99.8002 1297.25 103.15H1295.65L1295.6 93.6502H1297.1C1297.15 94.1502 1297.05 94.8502 1297.2 95.2502C1297.75 94.1502 1298.65 93.5002 1300.25 93.4502Z" fill="black"/>
<path d="M1307.36 100.8C1307.26 102 1308.26 102.25 1309.26 101.9V103.1C1307.61 103.6 1305.76 103.35 1305.76 101.15V94.8H1304.66V93.65H1305.86L1306.31 91.5H1307.36V93.65H1309.11V94.8H1307.36V100.8Z" fill="black"/>
<path d="M1319.66 103.15L1318.26 99.55H1312.61L1311.21 103.15H1309.46L1314.51 90.75H1316.41L1321.36 103.15H1319.66ZM1317.76 98.2L1315.41 92.05C1314.81 94.3 1313.86 96.15 1313.11 98.2H1317.76Z" fill="black"/>
<path d="M1322.91 90.75C1327.26 90.8 1332.46 90 1332.46 94.5C1332.46 98.4 1328.61 98.5 1324.56 98.3V103.15H1322.91V90.75ZM1324.56 97C1327.41 97 1330.76 97.55 1330.76 94.5C1330.76 91.55 1327.36 92.15 1324.56 92.1V97Z" fill="black"/>
<path d="M1335.06 103.15V90.75H1336.76V103.15H1335.06Z" fill="black"/>
<path d="M1160.71 104.4H1339.31V105.72H1160.71V104.4Z" fill="black"/>
<path d="M1250 162.003V182.703M1250 203.403V244.833M1250 265.533V306.953M1250 327.653V369.083M1250 389.803V431.203M1250 451.923V493.343M1250 514.043V555.473M1250 576.173V617.573M1250 638.293V658.993" stroke="#3A414A" stroke-width="2"/>
<path d="M1251 162.023H1249V161.003H1251V162.023Z" fill="#3A414A" stroke="#3A414A" stroke-width="0.05"/>
<path d="M1250 658.973V660.003" stroke="#3A414A" stroke-width="2"/>
<path d="M1231 180.003H1271V280.003H1231V180.003Z" fill="white" stroke="#333333" stroke-width="2"/>
<path d="M1273 214.573H1326C1327.59 214.573 1329.12 215.205 1330.25 216.331C1331.37 217.456 1332 218.982 1332 220.573V252.103C1332 253.695 1331.37 255.221 1330.25 256.346C1329.12 257.471 1327.59 258.103 1326 258.103H1290.5" stroke="black" stroke-width="2"/>
<path d="M1273.02 215.573H1272V213.573H1273.02V215.573Z" fill="black" stroke="black" stroke-width="0.05"/>
<path d="M1275.23 258.103L1289.5 253.463V262.723L1275.23 258.103Z" fill="black" stroke="black" stroke-width="2"/>
<path d="M1341.2 228.388V226.888H1342.8V228.388H1341.2ZM1341.2 239.938V230.438H1342.8V239.938H1341.2Z" fill="black"/>
<path d="M1349.8 230.238C1354.25 230.038 1352.45 236.038 1352.8 239.938H1351.2V233.888C1351.2 232.338 1350.8 231.438 1349.25 231.488C1345.65 231.588 1347.05 236.588 1346.8 239.938H1345.2L1345.15 230.438H1346.65C1346.7 230.938 1346.6 231.638 1346.75 232.038C1347.3 230.938 1348.2 230.288 1349.8 230.238Z" fill="black"/>
<path d="M1359.35 239.938H1357.45L1354 230.438H1355.7L1358.4 238.688L1361.2 230.438H1362.9" fill="black"/>
<path d="M1370 238.138C1369.25 239.188 1368.45 240.188 1366.6 240.138C1364.8 240.088 1363.7 239.088 1363.7 237.288C1363.65 234.088 1366.85 234.138 1369.95 234.138C1370.1 232.388 1369.5 231.438 1367.9 231.438C1366.7 231.488 1365.85 231.788 1365.8 232.988L1364.15 232.838C1364.4 230.988 1365.8 230.238 1367.95 230.238C1370.2 230.238 1371.55 231.238 1371.55 233.438V237.538C1371.5 238.538 1371.9 239.138 1372.95 238.888V239.888C1371.4 240.338 1369.9 239.788 1370 238.138ZM1365.35 237.288C1365.35 238.288 1365.95 238.938 1366.95 238.938C1369 238.788 1370.1 237.488 1369.95 235.238C1367.8 235.338 1365.35 234.988 1365.35 237.288Z" fill="black"/>
<path d="M1374.15 239.938V226.888H1375.75V239.938H1374.15Z" fill="black"/>
<path d="M1378.1 228.388V226.888H1379.7V228.388H1378.1ZM1378.1 239.938V230.438H1379.7V239.938H1378.1Z" fill="black"/>
<path d="M1385.1 230.238C1386.65 230.238 1387.5 230.888 1388.1 231.888L1388.05 226.888H1389.65L1389.7 239.938H1388.2C1388.1 239.438 1388.2 238.788 1388.05 238.388C1387.55 239.538 1386.65 240.138 1385.1 240.138C1382.45 240.138 1381.65 238.188 1381.6 235.238C1381.6 231.938 1382.75 230.238 1385.1 230.238ZM1385.55 231.438C1383.55 231.438 1383.25 233.138 1383.25 235.188C1383.25 237.188 1383.55 238.888 1385.5 238.888C1387.6 238.888 1388.05 237.288 1388.05 235.088C1388.05 232.988 1387.6 231.388 1385.55 231.438Z" fill="black"/>
<path d="M1397.9 238.138C1397.15 239.188 1396.35 240.188 1394.5 240.138C1392.7 240.088 1391.6 239.088 1391.6 237.288C1391.55 234.088 1394.75 234.138 1397.85 234.138C1398 232.388 1397.4 231.438 1395.8 231.438C1394.6 231.488 1393.75 231.788 1393.7 232.988L1392.05 232.838C1392.3 230.988 1393.7 230.238 1395.85 230.238C1398.1 230.238 1399.45 231.238 1399.45 233.438V237.538C1399.4 238.538 1399.8 239.138 1400.85 238.888V239.888C1399.3 240.338 1397.8 239.788 1397.9 238.138ZM1393.25 237.288C1393.25 238.288 1393.85 238.938 1394.85 238.938C1396.9 238.788 1398 237.488 1397.85 235.238C1395.7 235.338 1393.25 234.988 1393.25 237.288Z" fill="black"/>
<path d="M1403.8 237.588C1403.7 238.788 1404.7 239.038 1405.7 238.688V239.888C1404.05 240.388 1402.2 240.138 1402.2 237.938V231.588H1401.1V230.438H1402.3L1402.75 228.288H1403.8V230.438H1405.55V231.588H1403.8V237.588Z" fill="black"/>
<path d="M1410.85 230.238C1414 230.238 1415.15 232.338 1415.05 235.538H1408.3C1408.3 237.538 1409 238.888 1410.95 238.938C1412.25 238.988 1413.1 238.338 1413.4 237.488L1414.8 237.888C1414.25 239.288 1412.95 240.138 1410.95 240.138C1408.05 240.138 1406.55 238.288 1406.6 235.138C1406.65 232.088 1407.9 230.238 1410.85 230.238ZM1413.45 234.288C1413.75 231.288 1409.65 230.438 1408.6 232.888C1408.45 233.238 1408.3 233.738 1408.3 234.288H1413.45Z" fill="black"/>
<path d="M1423.8 237.588C1423.7 238.788 1424.7 239.038 1425.7 238.688V239.888C1424.05 240.388 1422.2 240.138 1422.2 237.938V231.588H1421.1V230.438H1422.3L1422.75 228.288H1423.8V230.438H1425.55V231.588H1423.8V237.588Z" fill="black"/>
<path d="M1430.85 230.238C1433.95 230.188 1435.1 232.088 1435.1 235.188C1435.15 238.338 1433.75 240.138 1430.8 240.138C1427.85 240.138 1426.65 238.188 1426.6 235.188C1426.6 231.888 1428 230.238 1430.85 230.238ZM1430.8 238.938C1433 238.988 1433.45 237.388 1433.45 235.188C1433.45 233.038 1433.05 231.438 1430.9 231.438C1428.75 231.438 1428.25 233.038 1428.25 235.188C1428.25 237.338 1428.75 238.888 1430.8 238.938Z" fill="black"/>
<path d="M1443 239.938L1439.8 235.588L1438.65 236.538V239.938H1437.05V226.888H1438.65V235.038L1442.8 230.438H1444.65L1440.8 234.538L1444.9 239.938H1443Z" fill="black"/>
<path d="M1449.85 230.238C1453 230.238 1454.15 232.338 1454.05 235.538H1447.3C1447.3 237.538 1448 238.888 1449.95 238.938C1451.25 238.988 1452.1 238.338 1452.4 237.488L1453.8 237.888C1453.25 239.288 1451.95 240.138 1449.95 240.138C1447.05 240.138 1445.55 238.288 1445.6 235.138C1445.65 232.088 1446.9 230.238 1449.85 230.238ZM1452.45 234.288C1452.75 231.288 1448.65 230.438 1447.6 232.888C1447.45 233.238 1447.3 233.738 1447.3 234.288H1452.45Z" fill="black"/>
<path d="M1460.7 230.238C1465.15 230.038 1463.35 236.038 1463.7 239.938H1462.1V233.888C1462.1 232.338 1461.7 231.438 1460.15 231.488C1456.55 231.588 1457.95 236.588 1457.7 239.938H1456.1L1456.05 230.438H1457.55C1457.6 230.938 1457.5 231.638 1457.65 232.038C1458.2 230.938 1459.1 230.288 1460.7 230.238Z" fill="black"/>
<path d="M491.003 20.0029H691.003V140.003H491.003V20.0029Z" fill="white" stroke="#333333" stroke-width="2"/>
<path d="M537.205 75.4499V73.6499H538.905V75.4499H537.205ZM537.205 83.1499V81.3499H538.905V83.1499H537.205Z" fill="black"/>
<path d="M550.805 83.15L549.405 79.55H543.755L542.355 83.15H540.605L545.655 70.75H547.555L552.505 83.15H550.805ZM548.905 78.2L546.555 72.05C545.955 74.3 545.005 76.15 544.255 78.2H548.905Z" fill="black"/>
<path d="M556.755 83.3499C552.305 83.5499 554.055 77.5499 553.705 73.6499H555.305V79.6499C555.305 81.1999 555.655 82.1499 557.255 82.0999C560.855 81.9999 559.505 77.0499 559.755 73.6499H561.305L561.355 83.1499H559.855C559.805 82.6499 559.905 81.8999 559.755 81.4999C559.205 82.5999 558.355 83.2999 556.755 83.3499Z" fill="black"/>
<path d="M565.505 80.8C565.405 82 566.405 82.25 567.405 81.9V83.1C565.755 83.6 563.905 83.35 563.905 81.15V74.8H562.805V73.65H564.005L564.455 71.5H565.505V73.65H567.255V74.8H565.505V80.8Z" fill="black"/>
<path d="M572.855 74.7001C569.255 74.7001 570.655 79.8001 570.405 83.1501H568.805V70.1001H570.405L570.355 75.2501C570.955 74.2001 571.755 73.4501 573.405 73.4501C577.855 73.4501 576.055 79.2501 576.405 83.1501H574.805V77.1001C574.905 75.5001 574.405 74.6501 572.855 74.7001Z" fill="black"/>
<path d="M586.805 73.7003C586.555 71.3003 580.655 71.0003 580.605 73.8003C581.305 77.5503 588.505 74.5003 588.755 79.7503C588.905 83.6503 582.705 84.1003 580.005 82.5003C579.155 82.0003 578.605 81.2003 578.355 80.2003L580.005 79.8503C580.255 82.6503 587.055 83.0003 587.055 79.8003C587.055 75.9003 579.305 79.1003 578.955 73.9003C578.705 69.8003 586.205 69.7003 587.905 72.2003C588.155 72.5503 588.305 73.0003 588.455 73.4503" fill="black"/>
<path d="M594.555 73.4502C597.705 73.4502 598.855 75.5502 598.755 78.7502H592.005C592.005 80.7502 592.705 82.1002 594.655 82.1502C595.955 82.2002 596.805 81.5502 597.105 80.7002L598.505 81.1002C597.955 82.5002 596.655 83.3502 594.655 83.3502C591.755 83.3502 590.255 81.5002 590.305 78.3502C590.355 75.3002 591.605 73.4502 594.555 73.4502ZM597.155 77.5002C597.455 74.5002 593.355 73.6502 592.305 76.1002C592.155 76.4502 592.005 76.9502 592.005 77.5002H597.155Z" fill="black"/>
<path d="M605.255 75C601.355 74.2 602.605 79.55 602.405 83.15H600.805L600.755 73.65H602.255C602.305 74.25 602.205 75.1 602.355 75.6C602.655 74.25 603.505 73.15 605.255 73.55V75Z" fill="black"/>
<path d="M610.905 83.1499H609.005L605.555 73.6499H607.255L609.955 81.8999L612.755 73.6499H614.455" fill="black"/>
<path d="M615.705 71.6001V70.1001H617.305V71.6001H615.705ZM615.705 83.1501V73.6501H617.305V83.1501H615.705Z" fill="black"/>
<path d="M623.256 74.7003C621.256 74.7003 620.856 76.3503 620.856 78.3503C620.856 80.3503 621.306 82.1003 623.256 82.1003C624.456 82.1003 625.306 81.4003 625.406 80.2003L627.006 80.3003C626.706 82.1503 625.456 83.3503 623.306 83.3503C620.356 83.3503 619.506 81.3003 619.206 78.4003C618.706 73.7503 624.256 71.8503 626.556 75.2003C626.756 75.5503 626.806 75.9003 626.906 76.3003L625.306 76.4503C625.106 75.4003 624.506 74.7003 623.256 74.7003Z" fill="black"/>
<path d="M632.455 73.4502C635.605 73.4502 636.755 75.5502 636.655 78.7502H629.905C629.905 80.7502 630.605 82.1002 632.555 82.1502C633.855 82.2002 634.705 81.5502 635.005 80.7002L636.405 81.1002C635.855 82.5002 634.555 83.3502 632.555 83.3502C629.655 83.3502 628.155 81.5002 628.205 78.3502C628.255 75.3002 629.505 73.4502 632.455 73.4502ZM635.055 77.5002C635.355 74.5002 631.255 73.6502 630.205 76.1002C630.055 76.4502 629.905 76.9502 629.905 77.5002H635.055Z" fill="black"/>
<path d="M644.205 76.0003C644.055 74.3003 639.905 74.1003 639.855 76.0003C640.605 78.6503 645.605 76.6003 645.805 80.5003C646.005 84.4003 638.305 84.2003 637.955 80.9003L639.355 80.6503C639.555 82.4503 644.205 82.9003 644.255 80.6503C643.755 77.8503 638.605 79.9003 638.355 76.1503C638.155 73.3003 642.455 73.0003 644.455 74.0503C645.055 74.4003 645.505 75.0003 645.655 75.8003" fill="black"/>
<path d="M534.655 84.3999H647.355V85.7199H534.655V84.3999Z" fill="black"/>
<path d="M591.003 142.003V162.703M591.003 183.403V224.833M591.003 245.533V286.953M591.003 307.653V349.083M591.003 369.803V411.203M591.003 431.923V473.343M591.003 494.043V535.473M591.003 556.173V597.573M591.003 618.293V638.993" stroke="black" stroke-width="2"/>
<path d="M592.003 142.023H590.003V141.003H592.003V142.023Z" fill="black" stroke="black" stroke-width="0.05"/>
<path d="M591.003 638.973V640.003" stroke="black" stroke-width="2"/>
<path d="M571.003 180.003H611.003V560.003H571.003V180.003Z" fill="white" stroke="#333333" stroke-width="2"/>
<path d="M613.003 203.473H851.503" stroke="black" stroke-width="2"/>
<path d="M613.023 204.473H612.003V202.473H613.023V204.473Z" fill="black" stroke="black" stroke-width="0.05"/>
<path d="M866.763 203.473L852.493 208.103V198.833L866.763 203.473Z" fill="black" stroke="black" stroke-width="2"/>
<path d="M694.8 192.464C690.35 192.664 692.1 186.664 691.75 182.764H693.35V188.764C693.35 190.314 693.7 191.264 695.3 191.214C698.9 191.114 697.55 186.164 697.8 182.764H699.35L699.4 192.264H697.9C697.85 191.764 697.95 191.014 697.8 190.614C697.25 191.714 696.4 192.414 694.8 192.464Z" fill="black"/>
<path d="M707.35 185.114C707.2 183.414 703.05 183.214 703 185.114C703.75 187.764 708.75 185.714 708.95 189.614C709.15 193.514 701.45 193.314 701.1 190.014L702.5 189.764C702.7 191.564 707.35 192.014 707.4 189.764C706.9 186.964 701.75 189.014 701.5 185.264C701.3 182.414 705.6 182.114 707.6 183.164C708.2 183.514 708.65 184.114 708.8 184.914" fill="black"/>
<path d="M714.6 182.564C717.75 182.564 718.9 184.664 718.8 187.864H712.05C712.05 189.864 712.75 191.214 714.7 191.264C716 191.314 716.85 190.664 717.15 189.814L718.55 190.214C718 191.614 716.7 192.464 714.7 192.464C711.8 192.464 710.3 190.614 710.35 187.464C710.4 184.414 711.65 182.564 714.6 182.564ZM717.2 186.614C717.5 183.614 713.4 182.764 712.35 185.214C712.2 185.564 712.05 186.064 712.05 186.614H717.2Z" fill="black"/>
<path d="M725.3 184.114C721.4 183.314 722.65 188.664 722.45 192.264H720.85L720.8 182.764H722.3C722.35 183.364 722.25 184.214 722.4 184.714C722.7 183.364 723.55 182.264 725.3 182.664V184.114Z" fill="black"/>
<path d="M725.55 192.464L729.15 179.214H730.55L726.95 192.464H725.55Z" fill="black"/>
<path d="M731.75 192.264V179.214H733.35V192.264H731.75Z" fill="black"/>
<path d="M739.5 182.564C742.6 182.514 743.75 184.414 743.75 187.514C743.8 190.664 742.4 192.464 739.45 192.464C736.5 192.464 735.3 190.514 735.25 187.514C735.25 184.214 736.65 182.564 739.5 182.564ZM739.45 191.264C741.65 191.314 742.1 189.714 742.1 187.514C742.1 185.364 741.7 183.764 739.55 183.764C737.4 183.764 736.9 185.364 736.9 187.514C736.9 189.664 737.4 191.214 739.45 191.264Z" fill="black"/>
<path d="M753.35 182.764C752.85 189.014 755.4 197.414 747.85 195.814C746.7 195.514 745.95 194.814 745.65 193.664L747.25 193.414C748 195.764 752.25 195.014 751.7 192.014V190.514C751.15 191.564 750.25 192.314 748.65 192.314C745.95 192.314 745.25 190.264 745.25 187.514C745.25 184.714 746.05 182.664 748.8 182.614C750.25 182.564 751.2 183.414 751.75 184.364C751.8 183.864 751.75 183.214 751.85 182.764H753.35ZM749.2 191.164C751 191.164 751.7 189.564 751.7 187.514C751.7 185.414 751 183.764 749.2 183.764C747.25 183.764 746.9 185.464 746.9 187.514C746.9 189.564 747.2 191.164 749.2 191.164Z" fill="black"/>
<path d="M759.5 182.564C762.6 182.514 763.75 184.414 763.75 187.514C763.8 190.664 762.4 192.464 759.45 192.464C756.5 192.464 755.3 190.514 755.25 187.514C755.25 184.214 756.65 182.564 759.5 182.564ZM759.45 191.264C761.65 191.314 762.1 189.714 762.1 187.514C762.1 185.364 761.7 183.764 759.55 183.764C757.4 183.764 756.9 185.364 756.9 187.514C756.9 189.664 757.4 191.214 759.45 191.264Z" fill="black"/>
<path d="M768.7 192.464C764.25 192.664 766 186.664 765.65 182.764H767.25V188.764C767.25 190.314 767.6 191.264 769.2 191.214C772.8 191.114 771.45 186.164 771.7 182.764H773.25L773.3 192.264H771.8C771.75 191.764 771.85 191.014 771.7 190.614C771.15 191.714 770.3 192.414 768.7 192.464Z" fill="black"/>
<path d="M777.45 189.914C777.35 191.114 778.35 191.364 779.35 191.014V192.214C777.7 192.714 775.85 192.464 775.85 190.264V183.914H774.75V182.764H775.95L776.4 180.614H777.45V182.764H779.2V183.914H777.45V189.914Z" fill="black"/>
<path d="M783.85 196.014C781.95 193.914 780.6 191.414 780.6 187.564C780.6 183.764 782 181.264 783.85 179.214H785.4C783.5 181.264 782.2 183.814 782.2 187.614C782.2 191.414 783.5 193.964 785.4 196.014H783.85Z" fill="black"/>
<path d="M787.1 179.214C789 181.264 790.35 183.814 790.35 187.614C790.35 191.414 789 193.964 787.1 196.014H785.55C787.4 193.964 788.75 191.414 788.75 187.614C788.75 183.814 787.4 181.264 785.55 179.214H787.1Z" fill="black"/>
<path d="M869.003 259.093H847.733M826.473 259.093H783.933M762.663 259.093H720.123M698.863 259.093H656.333M635.063 259.093H613.803" stroke="black" stroke-width="2"/>
<path d="M870.003 260.093H868.973V258.093H869.993L870.003 260.093Z" fill="black" stroke="black" stroke-width="0.05"/>
<path d="M631.183 248.913L613.963 259.093L631.183 269.273M613.003 289.893H646.003L646.943 289.963L647.843 290.163L648.723 290.533L649.523 291.033L650.243 291.633L650.843 292.353L651.343 293.153L651.703 294.013L651.923 294.933L652.003 295.873V332.913L651.923 333.853L651.703 334.773L651.343 335.643L650.843 336.443L650.243 337.143L649.523 337.763L648.723 338.263L647.853 338.613L646.953 338.833L646.003 338.893H630.503" stroke="black" stroke-width="2"/>
<path d="M613.023 290.893H612.003V288.893H613.023V290.893Z" fill="black" stroke="black" stroke-width="0.05"/>
<path d="M615.233 338.933L629.503 334.303V343.573L615.233 338.933Z" fill="black" stroke="black" stroke-width="2"/>
<path d="M665.7 299.063C661.8 298.263 663.05 303.613 662.85 307.213H661.25L661.2 297.713H662.7C662.75 298.313 662.65 299.163 662.8 299.663C663.1 298.313 663.95 297.213 665.7 297.613V299.063Z" fill="black"/>
<path d="M670.95 297.513C674.1 297.513 675.25 299.613 675.15 302.813H668.4C668.4 304.813 669.1 306.163 671.05 306.213C672.35 306.263 673.2 305.613 673.5 304.763L674.9 305.163C674.35 306.563 673.05 307.413 671.05 307.413C668.15 307.413 666.65 305.563 666.7 302.413C666.75 299.363 668 297.513 670.95 297.513ZM673.55 301.563C673.85 298.563 669.75 297.713 668.7 300.163C668.55 300.513 668.4 301.013 668.4 301.563H673.55Z" fill="black"/>
<path d="M686.45 298.763C683.1 298.913 684.55 304.013 684.25 307.213H682.7V301.163C682.7 299.713 682.45 298.663 680.95 298.763C677.65 298.963 679.05 303.963 678.75 307.213H677.2L677.15 297.713H678.65C678.7 298.213 678.6 298.913 678.75 299.313C679.25 297.113 683.7 296.813 684.1 299.313C684.65 298.263 685.45 297.563 687 297.513C691.25 297.413 689.35 303.463 689.75 307.213H688.2V301.163C688.2 299.713 687.95 298.713 686.45 298.763Z" fill="black"/>
<path d="M695.9 297.513C699 297.463 700.15 299.363 700.15 302.463C700.2 305.613 698.8 307.413 695.85 307.413C692.9 307.413 691.7 305.463 691.65 302.463C691.65 299.163 693.05 297.513 695.9 297.513ZM695.85 306.213C698.05 306.263 698.5 304.663 698.5 302.463C698.5 300.313 698.1 298.713 695.95 298.713C693.8 298.713 693.3 300.313 693.3 302.463C693.3 304.613 693.8 306.163 695.85 306.213Z" fill="black"/>
<path d="M706.3 307.213H704.4L700.95 297.713H702.65L705.35 305.963L708.15 297.713H709.85" fill="black"/>
<path d="M714.9 297.513C718.05 297.513 719.2 299.613 719.1 302.813H712.35C712.35 304.813 713.05 306.163 715 306.213C716.3 306.263 717.15 305.613 717.45 304.763L718.85 305.163C718.3 306.563 717 307.413 715 307.413C712.1 307.413 710.6 305.563 710.65 302.413C710.7 299.363 711.95 297.513 714.9 297.513ZM717.5 301.563C717.8 298.563 713.7 297.713 712.65 300.163C712.5 300.513 712.35 301.013 712.35 301.563H717.5Z" fill="black"/>
<path d="M723.05 296.213V300.813H729.95V302.213H723.05V307.213H721.4V294.813H730.15V296.213H723.05Z" fill="black"/>
<path d="M736.55 299.063C732.65 298.263 733.9 303.613 733.7 307.213H732.1L732.05 297.713H733.55C733.6 298.313 733.5 299.163 733.65 299.663C733.95 298.313 734.8 297.213 736.55 297.613V299.063Z" fill="black"/>
<path d="M741.8 297.513C744.9 297.463 746.05 299.363 746.05 302.463C746.1 305.613 744.7 307.413 741.75 307.413C738.8 307.413 737.6 305.463 737.55 302.463C737.55 299.163 738.95 297.513 741.8 297.513ZM741.75 306.213C743.95 306.263 744.4 304.663 744.4 302.463C744.4 300.313 744 298.713 741.85 298.713C739.7 298.713 739.2 300.313 739.2 302.463C739.2 304.613 739.7 306.163 741.75 306.213Z" fill="black"/>
<path d="M757.3 298.763C753.95 298.913 755.4 304.013 755.1 307.213H753.55V301.163C753.55 299.713 753.3 298.663 751.8 298.763C748.5 298.963 749.9 303.963 749.6 307.213H748.05L748 297.713H749.5C749.55 298.213 749.45 298.913 749.6 299.313C750.1 297.113 754.55 296.813 754.95 299.313C755.5 298.263 756.3 297.563 757.85 297.513C762.1 297.413 760.2 303.463 760.6 307.213H759.05V301.163C759.05 299.713 758.8 298.713 757.3 298.763Z" fill="black"/>
<path d="M763.25 307.213V294.813H764.9V305.863H771.15V307.213H763.25Z" fill="black"/>
<path d="M776.75 297.513C779.85 297.463 781 299.363 781 302.463C781.05 305.613 779.65 307.413 776.7 307.413C773.75 307.413 772.55 305.463 772.5 302.463C772.5 299.163 773.9 297.513 776.75 297.513ZM776.7 306.213C778.9 306.263 779.35 304.663 779.35 302.463C779.35 300.313 778.95 298.713 776.8 298.713C774.65 298.713 774.15 300.313 774.15 302.463C774.15 304.613 774.65 306.163 776.7 306.213Z" fill="black"/>
<path d="M786.55 298.763C784.55 298.763 784.15 300.413 784.15 302.413C784.15 304.413 784.6 306.163 786.55 306.163C787.75 306.163 788.6 305.463 788.7 304.263L790.3 304.363C790 306.213 788.75 307.413 786.6 307.413C783.65 307.413 782.8 305.363 782.5 302.463C782 297.813 787.55 295.913 789.85 299.263C790.05 299.613 790.1 299.963 790.2 300.363L788.6 300.513C788.4 299.463 787.8 298.763 786.55 298.763Z" fill="black"/>
<path d="M797.8 305.413C797.05 306.463 796.25 307.463 794.4 307.413C792.6 307.363 791.5 306.363 791.5 304.563C791.45 301.363 794.65 301.413 797.75 301.413C797.9 299.663 797.3 298.713 795.7 298.713C794.5 298.763 793.65 299.063 793.6 300.263L791.95 300.113C792.2 298.263 793.6 297.513 795.75 297.513C798 297.513 799.35 298.513 799.35 300.713V304.813C799.3 305.813 799.7 306.413 800.75 306.163V307.163C799.2 307.613 797.7 307.063 797.8 305.413ZM793.15 304.563C793.15 305.563 793.75 306.213 794.75 306.213C796.8 306.063 797.9 304.763 797.75 302.513C795.6 302.613 793.15 302.263 793.15 304.563Z" fill="black"/>
<path d="M801.95 307.213V294.163H803.55V307.213H801.95Z" fill="black"/>
<path d="M813.95 297.763C813.7 295.363 807.8 295.063 807.75 297.863C808.45 301.613 815.65 298.563 815.9 303.813C816.05 307.713 809.85 308.163 807.15 306.563C806.3 306.063 805.75 305.263 805.5 304.263L807.15 303.913C807.4 306.713 814.2 307.063 814.2 303.863C814.2 299.963 806.45 303.163 806.1 297.963C805.85 293.863 813.35 293.763 815.05 296.263C815.3 296.613 815.45 297.063 815.6 297.513" fill="black"/>
<path d="M819.65 304.863C819.55 306.063 820.55 306.313 821.55 305.963V307.163C819.9 307.663 818.05 307.413 818.05 305.213V298.863H816.95V297.713H818.15L818.6 295.563H819.65V297.713H821.4V298.863H819.65V304.863Z" fill="black"/>
<path d="M826.7 297.513C829.8 297.463 830.95 299.363 830.95 302.463C831 305.613 829.6 307.413 826.65 307.413C823.7 307.413 822.5 305.463 822.45 302.463C822.45 299.163 823.85 297.513 826.7 297.513ZM826.65 306.213C828.85 306.263 829.3 304.663 829.3 302.463C829.3 300.313 828.9 298.713 826.75 298.713C824.6 298.713 824.1 300.313 824.1 302.463C824.1 304.613 824.6 306.163 826.65 306.213Z" fill="black"/>
<path d="M837.4 299.063C833.5 298.263 834.75 303.613 834.55 307.213H832.95L832.9 297.713H834.4C834.45 298.313 834.35 299.163 834.5 299.663C834.8 298.313 835.65 297.213 837.4 297.613V299.063Z" fill="black"/>
<path d="M844.7 305.413C843.95 306.463 843.15 307.463 841.3 307.413C839.5 307.363 838.4 306.363 838.4 304.563C838.35 301.363 841.55 301.413 844.65 301.413C844.8 299.663 844.2 298.713 842.6 298.713C841.4 298.763 840.55 299.063 840.5 300.263L838.85 300.113C839.1 298.263 840.5 297.513 842.65 297.513C844.9 297.513 846.25 298.513 846.25 300.713V304.813C846.2 305.813 846.6 306.413 847.65 306.163V307.163C846.1 307.613 844.6 307.063 844.7 305.413ZM840.05 304.563C840.05 305.563 840.65 306.213 841.65 306.213C843.7 306.063 844.8 304.763 844.65 302.513C842.5 302.613 840.05 302.263 840.05 304.563Z" fill="black"/>
<path d="M856.5 297.713C856 303.963 858.55 312.363 851 310.763C849.85 310.463 849.1 309.763 848.8 308.613L850.4 308.363C851.15 310.713 855.4 309.963 854.85 306.963V305.463C854.3 306.513 853.4 307.263 851.8 307.263C849.1 307.263 848.4 305.213 848.4 302.463C848.4 299.663 849.2 297.613 851.95 297.563C853.4 297.513 854.35 298.363 854.9 299.313C854.95 298.813 854.9 298.163 855 297.713H856.5ZM852.35 306.113C854.15 306.113 854.85 304.513 854.85 302.463C854.85 300.363 854.15 298.713 852.35 298.713C850.4 298.713 850.05 300.413 850.05 302.463C850.05 304.513 850.35 306.113 852.35 306.113Z" fill="black"/>
<path d="M862.65 297.513C865.8 297.513 866.95 299.613 866.85 302.813H860.1C860.1 304.813 860.8 306.163 862.75 306.213C864.05 306.263 864.9 305.613 865.2 304.763L866.6 305.163C866.05 306.563 864.75 307.413 862.75 307.413C859.85 307.413 858.35 305.563 858.4 302.413C858.45 299.363 859.7 297.513 862.65 297.513ZM865.25 301.563C865.55 298.563 861.45 297.713 860.4 300.163C860.25 300.513 860.1 301.013 860.1 301.563H865.25Z" fill="black"/>
<path d="M664.35 332.563C662.45 330.463 661.1 327.963 661.1 324.113C661.1 320.313 662.5 317.813 664.35 315.763H665.9C664 317.813 662.7 320.363 662.7 324.163C662.7 327.963 664 330.513 665.9 332.563H664.35Z" fill="black"/>
<path d="M668.3 320.313H667.05L666.85 316.413H668.5" fill="black"/>
<path d="M676.4 327.013C675.65 328.063 674.85 329.063 673 329.013C671.2 328.963 670.1 327.963 670.1 326.163C670.05 322.963 673.25 323.013 676.35 323.013C676.5 321.263 675.9 320.313 674.3 320.313C673.1 320.363 672.25 320.663 672.2 321.863L670.55 321.713C670.8 319.863 672.2 319.113 674.35 319.113C676.6 319.113 677.95 320.113 677.95 322.313V326.413C677.9 327.413 678.3 328.013 679.35 327.763V328.763C677.8 329.213 676.3 328.663 676.4 327.013ZM671.75 326.163C671.75 327.163 672.35 327.813 673.35 327.813C675.4 327.663 676.5 326.363 676.35 324.113C674.2 324.213 671.75 323.863 671.75 326.163Z" fill="black"/>
<path d="M684.15 320.363C682.15 320.363 681.75 322.013 681.75 324.013C681.75 326.013 682.2 327.763 684.15 327.763C685.35 327.763 686.2 327.063 686.3 325.863L687.9 325.963C687.6 327.813 686.35 329.013 684.2 329.013C681.25 329.013 680.4 326.963 680.1 324.063C679.6 319.413 685.15 317.513 687.45 320.863C687.65 321.213 687.7 321.563 687.8 321.963L686.2 322.113C686 321.063 685.4 320.363 684.15 320.363Z" fill="black"/>
<path d="M693.15 320.363C691.15 320.363 690.75 322.013 690.75 324.013C690.75 326.013 691.2 327.763 693.15 327.763C694.35 327.763 695.2 327.063 695.3 325.863L696.9 325.963C696.6 327.813 695.35 329.013 693.2 329.013C690.25 329.013 689.4 326.963 689.1 324.063C688.6 319.413 694.15 317.513 696.45 320.863C696.65 321.213 696.7 321.563 696.8 321.963L695.2 322.113C695 321.063 694.4 320.363 693.15 320.363Z" fill="black"/>
<path d="M702.35 319.113C705.5 319.113 706.65 321.213 706.55 324.413H699.8C699.8 326.413 700.5 327.763 702.45 327.813C703.75 327.863 704.6 327.213 704.9 326.363L706.3 326.763C705.75 328.163 704.45 329.013 702.45 329.013C699.55 329.013 698.05 327.163 698.1 324.013C698.15 320.963 699.4 319.113 702.35 319.113ZM704.95 323.163C705.25 320.163 701.15 319.313 700.1 321.763C699.95 322.113 699.8 322.613 699.8 323.163H704.95Z" fill="black"/>
<path d="M714.1 321.663C713.95 319.963 709.8 319.763 709.75 321.663C710.5 324.313 715.5 322.263 715.7 326.163C715.9 330.063 708.2 329.863 707.85 326.563L709.25 326.313C709.45 328.113 714.1 328.563 714.15 326.313C713.65 323.513 708.5 325.563 708.25 321.813C708.05 318.963 712.35 318.663 714.35 319.713C714.95 320.063 715.4 320.663 715.55 321.463" fill="black"/>
<path d="M723.1 321.663C722.95 319.963 718.8 319.763 718.75 321.663C719.5 324.313 724.5 322.263 724.7 326.163C724.9 330.063 717.2 329.863 716.85 326.563L718.25 326.313C718.45 328.113 723.1 328.563 723.15 326.313C722.65 323.513 717.5 325.563 717.25 321.813C717.05 318.963 721.35 318.663 723.35 319.713C723.95 320.063 724.4 320.663 724.55 321.463" fill="black"/>
<path d="M725.1 332.413V331.263H735.55V332.413H725.1Z" fill="black"/>
<path d="M738.3 326.463C738.2 327.663 739.2 327.913 740.2 327.563V328.763C738.55 329.263 736.7 329.013 736.7 326.813V320.463H735.6V319.313H736.8L737.25 317.163H738.3V319.313H740.05V320.463H738.3V326.463Z" fill="black"/>
<path d="M745.35 319.113C748.45 319.063 749.6 320.963 749.6 324.063C749.65 327.213 748.25 329.013 745.3 329.013C742.35 329.013 741.15 327.063 741.1 324.063C741.1 320.763 742.5 319.113 745.35 319.113ZM745.3 327.813C747.5 327.863 747.95 326.263 747.95 324.063C747.95 321.913 747.55 320.313 745.4 320.313C743.25 320.313 742.75 321.913 742.75 324.063C742.75 326.213 743.25 327.763 745.3 327.813Z" fill="black"/>
<path d="M757.5 328.813L754.3 324.463L753.15 325.413V328.813H751.55V315.763H753.15V323.913L757.3 319.313H759.15L755.3 323.413L759.4 328.813H757.5Z" fill="black"/>
<path d="M764.35 319.113C767.5 319.113 768.65 321.213 768.55 324.413H761.8C761.8 326.413 762.5 327.763 764.45 327.813C765.75 327.863 766.6 327.213 766.9 326.363L768.3 326.763C767.75 328.163 766.45 329.013 764.45 329.013C761.55 329.013 760.05 327.163 760.1 324.013C760.15 320.963 761.4 319.113 764.35 319.113ZM766.95 323.163C767.25 320.163 763.15 319.313 762.1 321.763C761.95 322.113 761.8 322.613 761.8 323.163H766.95Z" fill="black"/>
<path d="M775.2 319.113C779.65 318.913 777.85 324.913 778.2 328.813H776.6V322.763C776.6 321.213 776.2 320.313 774.65 320.363C771.05 320.463 772.45 325.463 772.2 328.813H770.6L770.55 319.313H772.05C772.1 319.813 772 320.513 772.15 320.913C772.7 319.813 773.6 319.163 775.2 319.113Z" fill="black"/>
<path d="M781.7 320.313H780.45L780.25 316.413H781.9" fill="black"/>
<path d="M784.4 315.763C786.3 317.813 787.65 320.363 787.65 324.163C787.65 327.963 786.3 330.513 784.4 332.563H782.85C784.7 330.513 786.05 327.963 786.05 324.163C786.05 320.363 784.7 317.813 782.85 315.763H784.4Z" fill="black"/>
<path d="M613.003 370.003H646.003C647.594 370.003 649.12 370.635 650.246 371.76C651.371 372.885 652.003 374.412 652.003 376.003V418.033C652.003 419.624 651.371 421.15 650.246 422.276C649.12 423.401 647.594 424.033 646.003 424.033H630.503" stroke="black" stroke-width="2"/>
<path d="M613.023 371.003H612.003V369.003H613.023V371.003Z" fill="black" stroke="black" stroke-width="0.05"/>
<path d="M615.233 424.033L629.503 419.403V428.673L615.233 424.033Z" fill="black" stroke="black" stroke-width="2"/>
<path d="M666.75 382.669C666.6 380.969 662.45 380.769 662.4 382.669C663.15 385.319 668.15 383.269 668.35 387.169C668.55 391.069 660.85 390.869 660.5 387.569L661.9 387.319C662.1 389.119 666.75 389.569 666.8 387.319C666.3 384.519 661.15 386.569 660.9 382.819C660.7 379.969 665 379.669 667 380.719C667.6 381.069 668.05 381.669 668.2 382.469" fill="black"/>
<path d="M671.95 387.468C671.85 388.668 672.85 388.918 673.85 388.568V389.768C672.2 390.268 670.35 390.018 670.35 387.818V381.468H669.25V380.318H670.45L670.9 378.168H671.95V380.318H673.7V381.468H671.95V387.468Z" fill="black"/>
<path d="M679 380.119C682.1 380.069 683.25 381.969 683.25 385.069C683.3 388.219 681.9 390.019 678.95 390.019C676 390.019 674.8 388.069 674.75 385.069C674.75 381.769 676.15 380.119 679 380.119ZM678.95 388.819C681.15 388.869 681.6 387.269 681.6 385.069C681.6 382.919 681.2 381.319 679.05 381.319C676.9 381.319 676.4 382.919 676.4 385.069C676.4 387.219 676.9 388.769 678.95 388.819Z" fill="black"/>
<path d="M689.7 381.668C685.8 380.868 687.05 386.218 686.85 389.818H685.25L685.2 380.318H686.7C686.75 380.918 686.65 381.768 686.8 382.268C687.1 380.918 687.95 379.818 689.7 380.218V381.668Z" fill="black"/>
<path d="M694.95 380.119C698.1 380.119 699.25 382.219 699.15 385.419H692.4C692.4 387.419 693.1 388.769 695.05 388.819C696.35 388.869 697.2 388.219 697.5 387.369L698.9 387.769C698.35 389.169 697.05 390.019 695.05 390.019C692.15 390.019 690.65 388.169 690.7 385.019C690.75 381.969 692 380.119 694.95 380.119ZM697.55 384.169C697.85 381.169 693.75 380.319 692.7 382.769C692.55 383.119 692.4 383.619 692.4 384.169H697.55Z" fill="black"/>
<path d="M701.6 389.818V387.918H703.3V389.818H701.6Z" fill="black"/>
<path d="M709.75 381.369C707.75 381.369 707.35 383.019 707.35 385.019C707.35 387.019 707.8 388.769 709.75 388.769C710.95 388.769 711.8 388.069 711.9 386.869L713.5 386.969C713.2 388.819 711.95 390.019 709.8 390.019C706.85 390.019 706 387.969 705.7 385.069C705.2 380.419 710.75 378.519 713.05 381.869C713.25 382.219 713.3 382.569 713.4 382.969L711.8 383.119C711.6 382.069 711 381.369 709.75 381.369Z" fill="black"/>
<path d="M718.95 380.119C722.05 380.069 723.2 381.969 723.2 385.069C723.25 388.219 721.85 390.019 718.9 390.019C715.95 390.019 714.75 388.069 714.7 385.069C714.7 381.769 716.1 380.119 718.95 380.119ZM718.9 388.819C721.1 388.869 721.55 387.269 721.55 385.069C721.55 382.919 721.15 381.319 719 381.319C716.85 381.319 716.35 382.919 716.35 385.069C716.35 387.219 716.85 388.769 718.9 388.819Z" fill="black"/>
<path d="M734.45 381.368C731.1 381.518 732.55 386.618 732.25 389.818H730.7V383.768C730.7 382.318 730.45 381.268 728.95 381.368C725.65 381.568 727.05 386.568 726.75 389.818H725.2L725.15 380.318H726.65C726.7 380.818 726.6 381.518 726.75 381.918C727.25 379.718 731.7 379.418 732.1 381.918C732.65 380.868 733.45 380.168 735 380.118C739.25 380.018 737.35 386.068 737.75 389.818H736.2V383.768C736.2 382.318 735.95 381.318 734.45 381.368Z" fill="black"/>
<path d="M749.4 381.368C746.05 381.518 747.5 386.618 747.2 389.818H745.65V383.768C745.65 382.318 745.4 381.268 743.9 381.368C740.6 381.568 742 386.568 741.7 389.818H740.15L740.1 380.318H741.6C741.65 380.818 741.55 381.518 741.7 381.918C742.2 379.718 746.65 379.418 747.05 381.918C747.6 380.868 748.4 380.168 749.95 380.118C754.2 380.018 752.3 386.068 752.7 389.818H751.15V383.768C751.15 382.318 750.9 381.318 749.4 381.368Z" fill="black"/>
<path d="M755.05 378.269V376.769H756.65V378.269H755.05ZM755.05 389.819V380.319H756.65V389.819H755.05Z" fill="black"/>
<path d="M760.75 387.468C760.65 388.668 761.65 388.918 762.65 388.568V389.768C761 390.268 759.15 390.018 759.15 387.818V381.468H758.05V380.318H759.25L759.7 378.168H760.75V380.318H762.5V381.468H760.75V387.468Z" fill="black"/>
<path d="M664.35 415.168C662.45 413.068 661.1 410.568 661.1 406.718C661.1 402.918 662.5 400.418 664.35 398.368H665.9C664 400.418 662.7 402.968 662.7 406.768C662.7 410.568 664 413.118 665.9 415.168H664.35Z" fill="black"/>
<path d="M668.3 402.918H667.05L666.85 399.018H668.5" fill="black"/>
<path d="M676.1 404.268C675.95 402.568 671.8 402.368 671.75 404.268C672.5 406.918 677.5 404.868 677.7 408.768C677.9 412.668 670.2 412.468 669.85 409.168L671.25 408.918C671.45 410.718 676.1 411.168 676.15 408.918C675.65 406.118 670.5 408.168 670.25 404.418C670.05 401.568 674.35 401.268 676.35 402.318C676.95 402.668 677.4 403.268 677.55 404.068" fill="black"/>
<path d="M683.35 401.718C686.5 401.718 687.65 403.818 687.55 407.018H680.8C680.8 409.018 681.5 410.368 683.45 410.418C684.75 410.468 685.6 409.818 685.9 408.968L687.3 409.368C686.75 410.768 685.45 411.618 683.45 411.618C680.55 411.618 679.05 409.768 679.1 406.618C679.15 403.568 680.4 401.718 683.35 401.718ZM685.95 405.768C686.25 402.768 682.15 401.918 681.1 404.368C680.95 404.718 680.8 405.218 680.8 405.768H685.95Z" fill="black"/>
<path d="M691.3 409.068C691.2 410.268 692.2 410.518 693.2 410.168V411.368C691.55 411.868 689.7 411.618 689.7 409.418V403.068H688.6V401.918H689.8L690.25 399.768H691.3V401.918H693.05V403.068H691.3V409.068Z" fill="black"/>
<path d="M702.85 411.418L696.25 400.868L696.3 411.418H694.85V399.018H696.8L703.45 409.668L703.35 399.018H704.9V411.418H702.85Z" fill="black"/>
<path d="M711.3 401.718C714.4 401.668 715.55 403.568 715.55 406.668C715.6 409.818 714.2 411.618 711.25 411.618C708.3 411.618 707.1 409.668 707.05 406.668C707.05 403.368 708.45 401.718 711.3 401.718ZM711.25 410.418C713.45 410.468 713.9 408.868 713.9 406.668C713.9 404.518 713.5 402.918 711.35 402.918C709.2 402.918 708.7 404.518 708.7 406.668C708.7 408.818 709.2 410.368 711.25 410.418Z" fill="black"/>
<path d="M719.25 409.068C719.15 410.268 720.15 410.518 721.15 410.168V411.368C719.5 411.868 717.65 411.618 717.65 409.418V403.068H716.55V401.918H717.75L718.2 399.768H719.25V401.918H721V403.068H719.25V409.068Z" fill="black"/>
<path d="M731.55 411.418L730.15 407.818H724.5L723.1 411.418H721.35L726.4 399.018H728.3L733.25 411.418H731.55ZM729.65 406.468L727.3 400.318C726.7 402.568 725.75 404.418 725 406.468H729.65Z" fill="black"/>
<path d="M737.5 411.618C733.05 411.818 734.8 405.818 734.45 401.918H736.05V407.918C736.05 409.468 736.4 410.418 738 410.368C741.6 410.268 740.25 405.318 740.5 401.918H742.05L742.1 411.418H740.6C740.55 410.918 740.65 410.168 740.5 409.768C739.95 410.868 739.1 411.568 737.5 411.618Z" fill="black"/>
<path d="M746.25 409.068C746.15 410.268 747.15 410.518 748.15 410.168V411.368C746.5 411.868 744.65 411.618 744.65 409.418V403.068H743.55V401.918H744.75L745.2 399.768H746.25V401.918H748V403.068H746.25V409.068Z" fill="black"/>
<path d="M753.6 402.968C750 402.968 751.4 408.068 751.15 411.418H749.55V398.368H751.15L751.1 403.518C751.7 402.468 752.5 401.718 754.15 401.718C758.6 401.718 756.8 407.518 757.15 411.418H755.55V405.368C755.65 403.768 755.15 402.918 753.6 402.968Z" fill="black"/>
<path d="M763.3 401.718C766.45 401.718 767.6 403.818 767.5 407.018H760.75C760.75 409.018 761.45 410.368 763.4 410.418C764.7 410.468 765.55 409.818 765.85 408.968L767.25 409.368C766.7 410.768 765.4 411.618 763.4 411.618C760.5 411.618 759 409.768 759.05 406.618C759.1 403.568 760.35 401.718 763.3 401.718ZM765.9 405.768C766.2 402.768 762.1 401.918 761.05 404.368C760.9 404.718 760.75 405.218 760.75 405.768H765.9Z" fill="black"/>
<path d="M774.15 401.718C778.6 401.518 776.8 407.518 777.15 411.418H775.55V405.368C775.55 403.818 775.15 402.918 773.6 402.968C770 403.068 771.4 408.068 771.15 411.418H769.55L769.5 401.918H771C771.05 402.418 770.95 403.118 771.1 403.518C771.65 402.418 772.55 401.768 774.15 401.718Z" fill="black"/>
<path d="M781.25 409.068C781.15 410.268 782.15 410.518 783.15 410.168V411.368C781.5 411.868 779.65 411.618 779.65 409.418V403.068H778.55V401.918H779.75L780.2 399.768H781.25V401.918H783V403.068H781.25V409.068Z" fill="black"/>
<path d="M784.5 399.868V398.368H786.1V399.868H784.5ZM784.5 411.418V401.918H786.1V411.418H784.5Z" fill="black"/>
<path d="M792.05 402.968C790.05 402.968 789.65 404.618 789.65 406.618C789.65 408.618 790.1 410.368 792.05 410.368C793.25 410.368 794.1 409.668 794.2 408.468L795.8 408.568C795.5 410.418 794.25 411.618 792.1 411.618C789.15 411.618 788.3 409.568 788 406.668C787.5 402.018 793.05 400.118 795.35 403.468C795.55 403.818 795.6 404.168 795.7 404.568L794.1 404.718C793.9 403.668 793.3 402.968 792.05 402.968Z" fill="black"/>
<path d="M803.3 409.618C802.55 410.668 801.75 411.668 799.9 411.618C798.1 411.568 797 410.568 797 408.768C796.95 405.568 800.15 405.618 803.25 405.618C803.4 403.868 802.8 402.918 801.2 402.918C800 402.968 799.15 403.268 799.1 404.468L797.45 404.318C797.7 402.468 799.1 401.718 801.25 401.718C803.5 401.718 804.85 402.718 804.85 404.918V409.018C804.8 410.018 805.2 410.618 806.25 410.368V411.368C804.7 411.818 803.2 411.268 803.3 409.618ZM798.65 408.768C798.65 409.768 799.25 410.418 800.25 410.418C802.3 410.268 803.4 408.968 803.25 406.718C801.1 406.818 798.65 406.468 798.65 408.768Z" fill="black"/>
<path d="M809.2 409.068C809.1 410.268 810.1 410.518 811.1 410.168V411.368C809.45 411.868 807.6 411.618 807.6 409.418V403.068H806.5V401.918H807.7L808.15 399.768H809.2V401.918H810.95V403.068H809.2V409.068Z" fill="black"/>
<path d="M816.25 401.718C819.4 401.718 820.55 403.818 820.45 407.018H813.7C813.7 409.018 814.4 410.368 816.35 410.418C817.65 410.468 818.5 409.818 818.8 408.968L820.2 409.368C819.65 410.768 818.35 411.618 816.35 411.618C813.45 411.618 811.95 409.768 812 406.618C812.05 403.568 813.3 401.718 816.25 401.718ZM818.85 405.768C819.15 402.768 815.05 401.918 814 404.368C813.85 404.718 813.7 405.218 813.7 405.768H818.85Z" fill="black"/>
<path d="M825.5 401.718C827.05 401.718 827.9 402.368 828.5 403.368L828.45 398.368H830.05L830.1 411.418H828.6C828.5 410.918 828.6 410.268 828.45 409.868C827.95 411.018 827.05 411.618 825.5 411.618C822.85 411.618 822.05 409.668 822 406.718C822 403.418 823.15 401.718 825.5 401.718ZM825.95 402.918C823.95 402.918 823.65 404.618 823.65 406.668C823.65 408.668 823.95 410.368 825.9 410.368C828 410.368 828.45 408.768 828.45 406.568C828.45 404.468 828 402.868 825.95 402.918Z" fill="black"/>
<path d="M833.6 402.918H832.35L832.15 399.018H833.8" fill="black"/>
<path d="M836.3 398.368C838.2 400.418 839.55 402.968 839.55 406.768C839.55 410.568 838.2 413.118 836.3 415.168H834.75C836.6 413.118 837.95 410.568 837.95 406.768C837.95 402.968 836.6 400.418 834.75 398.368H836.3Z" fill="black"/>
<path d="M613.003 449.873H646.003C647.594 449.873 649.12 450.505 650.246 451.63C651.371 452.756 652.003 454.282 652.003 455.873V505.073C652.003 506.664 651.371 508.19 650.246 509.316C649.12 510.441 647.594 511.073 646.003 511.073H630.503" stroke="black" stroke-width="2"/>
<path d="M613.023 450.873H612.003V448.873H613.023V450.873Z" fill="black" stroke="black" stroke-width="0.05"/>
<path d="M615.233 511.073L629.503 506.453V515.723L615.233 511.073Z" fill="black" stroke="black" stroke-width="2"/>
<path d="M666.75 466.133C666.6 464.433 662.45 464.233 662.4 466.133C663.15 468.783 668.15 466.733 668.35 470.633C668.55 474.533 660.85 474.333 660.5 471.033L661.9 470.783C662.1 472.583 666.75 473.033 666.8 470.783C666.3 467.983 661.15 470.033 660.9 466.283C660.7 463.433 665 463.133 667 464.183C667.6 464.533 668.05 465.133 668.2 465.933" fill="black"/>
<path d="M671.95 470.932C671.85 472.132 672.85 472.382 673.85 472.032V473.232C672.2 473.732 670.35 473.482 670.35 471.282V464.932H669.25V463.782H670.45L670.9 461.632H671.95V463.782H673.7V464.932H671.95V470.932Z" fill="black"/>
<path d="M679 463.583C682.1 463.533 683.25 465.433 683.25 468.533C683.3 471.683 681.9 473.483 678.95 473.483C676 473.483 674.8 471.533 674.75 468.533C674.75 465.233 676.15 463.583 679 463.583ZM678.95 472.283C681.15 472.333 681.6 470.733 681.6 468.533C681.6 466.383 681.2 464.783 679.05 464.783C676.9 464.783 676.4 466.383 676.4 468.533C676.4 470.683 676.9 472.233 678.95 472.283Z" fill="black"/>
<path d="M689.7 465.132C685.8 464.332 687.05 469.682 686.85 473.282H685.25L685.2 463.782H686.7C686.75 464.382 686.65 465.232 686.8 465.732C687.1 464.382 687.95 463.282 689.7 463.682V465.132Z" fill="black"/>
<path d="M694.95 463.583C698.1 463.583 699.25 465.683 699.15 468.883H692.4C692.4 470.883 693.1 472.233 695.05 472.283C696.35 472.333 697.2 471.683 697.5 470.833L698.9 471.233C698.35 472.633 697.05 473.483 695.05 473.483C692.15 473.483 690.65 471.633 690.7 468.483C690.75 465.433 692 463.583 694.95 463.583ZM697.55 467.633C697.85 464.633 693.75 463.783 692.7 466.233C692.55 466.583 692.4 467.083 692.4 467.633H697.55Z" fill="black"/>
<path d="M701.6 473.282V471.382H703.3V473.282H701.6Z" fill="black"/>
<path d="M709.75 464.833C707.75 464.833 707.35 466.483 707.35 468.483C707.35 470.483 707.8 472.233 709.75 472.233C710.95 472.233 711.8 471.533 711.9 470.333L713.5 470.433C713.2 472.283 711.95 473.483 709.8 473.483C706.85 473.483 706 471.433 705.7 468.533C705.2 463.883 710.75 461.983 713.05 465.333C713.25 465.683 713.3 466.033 713.4 466.433L711.8 466.583C711.6 465.533 711 464.833 709.75 464.833Z" fill="black"/>
<path d="M718.95 463.583C722.05 463.533 723.2 465.433 723.2 468.533C723.25 471.683 721.85 473.483 718.9 473.483C715.95 473.483 714.75 471.533 714.7 468.533C714.7 465.233 716.1 463.583 718.95 463.583ZM718.9 472.283C721.1 472.333 721.55 470.733 721.55 468.533C721.55 466.383 721.15 464.783 719 464.783C716.85 464.783 716.35 466.383 716.35 468.533C716.35 470.683 716.85 472.233 718.9 472.283Z" fill="black"/>
<path d="M734.45 464.832C731.1 464.982 732.55 470.082 732.25 473.282H730.7V467.232C730.7 465.782 730.45 464.732 728.95 464.832C725.65 465.032 727.05 470.032 726.75 473.282H725.2L725.15 463.782H726.65C726.7 464.282 726.6 464.982 726.75 465.382C727.25 463.182 731.7 462.882 732.1 465.382C732.65 464.332 733.45 463.632 735 463.582C739.25 463.482 737.35 469.532 737.75 473.282H736.2V467.232C736.2 465.782 735.95 464.782 734.45 464.832Z" fill="black"/>
<path d="M749.4 464.832C746.05 464.982 747.5 470.082 747.2 473.282H745.65V467.232C745.65 465.782 745.4 464.732 743.9 464.832C740.6 465.032 742 470.032 741.7 473.282H740.15L740.1 463.782H741.6C741.65 464.282 741.55 464.982 741.7 465.382C742.2 463.182 746.65 462.882 747.05 465.382C747.6 464.332 748.4 463.632 749.95 463.582C754.2 463.482 752.3 469.532 752.7 473.282H751.15V467.232C751.15 465.782 750.9 464.782 749.4 464.832Z" fill="black"/>
<path d="M755.05 461.732V460.232H756.65V461.732H755.05ZM755.05 473.282V463.782H756.65V473.282H755.05Z" fill="black"/>
<path d="M760.75 470.932C760.65 472.132 761.65 472.382 762.65 472.032V473.232C761 473.732 759.15 473.482 759.15 471.282V464.932H758.05V463.782H759.25L759.7 461.632H760.75V463.782H762.5V464.932H760.75V470.932Z" fill="black"/>
<path d="M664.35 498.632C662.45 496.532 661.1 494.032 661.1 490.182C661.1 486.382 662.5 483.882 664.35 481.832H665.9C664 483.882 662.7 486.432 662.7 490.232C662.7 494.032 664 496.582 665.9 498.632H664.35Z" fill="black"/>
<path d="M668.3 486.382H667.05L666.85 482.482H668.5" fill="black"/>
<path d="M673.55 495.082C669.1 495.282 670.85 489.282 670.5 485.382H672.1V491.382C672.1 492.932 672.45 493.882 674.05 493.832C677.65 493.732 676.3 488.782 676.55 485.382H678.1L678.15 494.882H676.65C676.6 494.382 676.7 493.632 676.55 493.232C676 494.332 675.15 495.032 673.55 495.082Z" fill="black"/>
<path d="M685.2 485.182C689.65 484.982 687.85 490.982 688.2 494.882H686.6V488.832C686.6 487.282 686.2 486.382 684.65 486.432C681.05 486.532 682.45 491.532 682.2 494.882H680.6L680.55 485.382H682.05C682.1 485.882 682 486.582 682.15 486.982C682.7 485.882 683.6 485.232 685.2 485.182Z" fill="black"/>
<path d="M696.1 487.732C695.95 486.032 691.8 485.832 691.75 487.732C692.5 490.382 697.5 488.332 697.7 492.232C697.9 496.132 690.2 495.932 689.85 492.632L691.25 492.382C691.45 494.182 696.1 494.632 696.15 492.382C695.65 489.582 690.5 491.632 690.25 487.882C690.05 485.032 694.35 484.732 696.35 485.782C696.95 486.132 697.4 486.732 697.55 487.532" fill="black"/>
<path d="M703.35 485.182C706.5 485.182 707.65 487.282 707.55 490.482H700.8C700.8 492.482 701.5 493.832 703.45 493.882C704.75 493.932 705.6 493.282 705.9 492.432L707.3 492.832C706.75 494.232 705.45 495.082 703.45 495.082C700.55 495.082 699.05 493.232 699.1 490.082C699.15 487.032 700.4 485.182 703.35 485.182ZM705.95 489.232C706.25 486.232 702.15 485.382 701.1 487.832C700.95 488.182 700.8 488.682 700.8 489.232H705.95Z" fill="black"/>
<path d="M711.3 492.532C711.2 493.732 712.2 493.982 713.2 493.632V494.832C711.55 495.332 709.7 495.082 709.7 492.882V486.532H708.6V485.382H709.8L710.25 483.232H711.3V485.382H713.05V486.532H711.3V492.532Z" fill="black"/>
<path d="M724.95 490.232C724.9 493.482 722.95 495.082 719.75 495.082C716.7 495.082 714.75 493.482 714.75 490.382V482.482H716.4C716.8 486.932 714.75 493.682 719.75 493.682C724.85 493.682 722.95 487.032 723.3 482.482H724.95V490.232Z" fill="black"/>
<path d="M733.05 487.732C732.9 486.032 728.75 485.832 728.7 487.732C729.45 490.382 734.45 488.332 734.65 492.232C734.85 496.132 727.15 495.932 726.8 492.632L728.2 492.382C728.4 494.182 733.05 494.632 733.1 492.382C732.6 489.582 727.45 491.632 727.2 487.882C727 485.032 731.3 484.732 733.3 485.782C733.9 486.132 734.35 486.732 734.5 487.532" fill="black"/>
<path d="M740.3 485.182C743.45 485.182 744.6 487.282 744.5 490.482H737.75C737.75 492.482 738.45 493.832 740.4 493.882C741.7 493.932 742.55 493.282 742.85 492.432L744.25 492.832C743.7 494.232 742.4 495.082 740.4 495.082C737.5 495.082 736 493.232 736.05 490.082C736.1 487.032 737.35 485.182 740.3 485.182ZM742.9 489.232C743.2 486.232 739.1 485.382 738.05 487.832C737.9 488.182 737.75 488.682 737.75 489.232H742.9Z" fill="black"/>
<path d="M751 486.732C747.1 485.932 748.35 491.282 748.15 494.882H746.55L746.5 485.382H748C748.05 485.982 747.95 486.832 748.1 487.332C748.4 485.982 749.25 484.882 751 485.282V486.732Z" fill="black"/>
<path d="M757.1 485.182C761.55 484.982 759.75 490.982 760.1 494.882H758.5V488.832C758.5 487.282 758.1 486.382 756.55 486.432C752.95 486.532 754.35 491.532 754.1 494.882H752.5L752.45 485.382H753.95C754 485.882 753.9 486.582 754.05 486.982C754.6 485.882 755.5 485.232 757.1 485.182Z" fill="black"/>
<path d="M768.3 493.082C767.55 494.132 766.75 495.132 764.9 495.082C763.1 495.032 762 494.032 762 492.232C761.95 489.032 765.15 489.082 768.25 489.082C768.4 487.332 767.8 486.382 766.2 486.382C765 486.432 764.15 486.732 764.1 487.932L762.45 487.782C762.7 485.932 764.1 485.182 766.25 485.182C768.5 485.182 769.85 486.182 769.85 488.382V492.482C769.8 493.482 770.2 494.082 771.25 493.832V494.832C769.7 495.282 768.2 494.732 768.3 493.082ZM763.65 492.232C763.65 493.232 764.25 493.882 765.25 493.882C767.3 493.732 768.4 492.432 768.25 490.182C766.1 490.282 763.65 489.932 763.65 492.232Z" fill="black"/>
<path d="M781.75 486.432C778.4 486.582 779.85 491.682 779.55 494.882H778V488.832C778 487.382 777.75 486.332 776.25 486.432C772.95 486.632 774.35 491.632 774.05 494.882H772.5L772.45 485.382H773.95C774 485.882 773.9 486.582 774.05 486.982C774.55 484.782 779 484.482 779.4 486.982C779.95 485.932 780.75 485.232 782.3 485.182C786.55 485.082 784.65 491.132 785.05 494.882H783.5V488.832C783.5 487.382 783.25 486.382 781.75 486.432Z" fill="black"/>
<path d="M791.2 485.182C794.35 485.182 795.5 487.282 795.4 490.482H788.65C788.65 492.482 789.35 493.832 791.3 493.882C792.6 493.932 793.45 493.282 793.75 492.432L795.15 492.832C794.6 494.232 793.3 495.082 791.3 495.082C788.4 495.082 786.9 493.232 786.95 490.082C787 487.032 788.25 485.182 791.2 485.182ZM793.8 489.232C794.1 486.232 790 485.382 788.95 487.832C788.8 488.182 788.65 488.682 788.65 489.232H793.8Z" fill="black"/>
<path d="M798.55 486.382H797.3L797.1 482.482H798.75" fill="black"/>
<path d="M801.25 481.832C803.15 483.882 804.5 486.432 804.5 490.232C804.5 494.032 803.15 496.582 801.25 498.632H799.7C801.55 496.582 802.9 494.032 802.9 490.232C802.9 486.432 801.55 483.882 799.7 481.832H801.25Z" fill="black"/>
<path d="M569.003 534.203H549.103M529.203 534.203H489.403M469.503 534.203H429.703M409.803 534.203H370.003M350.103 534.203H310.303M290.403 534.203H270.503" stroke="black" stroke-width="2"/>
<path d="M570.003 535.203H568.973V533.203H569.993L570.003 535.203Z" fill="black" stroke="black" stroke-width="0.05"/>
<path d="M255.233 534.203L269.503 529.573V538.843L255.233 534.203Z" fill="black" stroke="black" stroke-width="2"/>
</g>
<defs>
<clipPath id="clip0_39_6580">
<rect width="1475.85" height="671" fill="white"/>
</clipPath>
</defs>
</svg>
