<svg xmlns="http://www.w3.org/2000/svg" xmlns:xlink="http://www.w3.org/1999/xlink" xmlns:lucid="lucid" width="586.15" height="390"><g transform="translate(1586.1478499789146 431.47639704809353)" lucid:page-tab-id="vPHms2bTQKVA"><path d="M-1377.65-411.48h235.36v120h-235.35z" stroke="#333" stroke-width="2" fill="#fff"/><use xlink:href="#a" transform="matrix(1,0,0,1,-1377.6478499789146,-411.47639704809353) translate(23.35500000000001 63.15)"/><path d="M-1259.96-289.48l.27 25.34m.27 25.33l.27 25.32" stroke="#3a414a" stroke-width="2" fill="none"/><path d="M-1258.96-289.46l-2 .02v-1.04h2z" stroke="#3a414a" stroke-width=".05" fill="#3a414a"/><path d="M-1259.16-213.5v1.02" stroke="#3a414a" stroke-width="2" fill="none"/><path d="M-1279.15-211.48h40v100h-40z" stroke="#333" stroke-width="2" fill="#fff"/><path d="M-1574.15-199.38h275.5M-1574.12-199.38h-1.03" stroke="#3a414a" stroke-width="2" fill="none"/><path d="M-1283.38-199.38l-14.27 4.63v-9.27z" stroke="#3a414a" stroke-width="2" fill="#3a414a"/><use xlink:href="#b" transform="matrix(1,0,0,1,-1515.9728499789146,-224.98216225291947) translate(0 14.4)"/><path d="M-1259.15-109.48v9.34m0 9.33v18.66m0 9.33v9.32" stroke="#3a414a" stroke-width="2" fill="none"/><path d="M-1258.15-109.45h-2v-1.03h2z" stroke="#3a414a" stroke-width=".05" fill="#3a414a"/><path d="M-1259.15-53.5v1.02M-1237.15-190.48h53.36a6 6 0 0 1 6 6v27a6 6 0 0 1-6 6h-15.5" stroke="#3a414a" stroke-width="2" fill="none"/><path d="M-1237.12-189.48h-1.03v-2h1.03z" stroke="#3a414a" stroke-width=".05" fill="#3a414a"/><path d="M-1214.55-151.48l14.26-4.63v9.26z" stroke="#3a414a" stroke-width="2" fill="#3a414a"/><use xlink:href="#c" transform="matrix(1,0,0,1,-1169.7892228057408,-191.95571063468043) translate(0 14.4)"/><path d="M-1258.8-171.48h40v40h-40z" stroke="#333" stroke-width="2" fill="#fff"/><path d="M-1040-240h20v120h-20z" stroke="#000" stroke-opacity="0" stroke-width="2" fill-opacity="0"/><defs><path d="M33-154v-36h34v36H33zM33 0v-36h34V0H33" id="d"/><path d="M212-179c-10-28-35-45-73-45-59 0-87 40-87 99 0 60 29 101 89 101 43 0 62-24 78-52l27 14C228-24 195 4 139 4 59 4 22-46 18-125c-6-104 99-153 187-111 19 9 31 26 39 46" id="e"/><path d="M114-163C36-179 61-72 57 0H25l-1-190h30c1 12-1 29 2 39 6-27 23-49 58-41v29" id="f"/><path d="M100-194c63 0 86 42 84 106H49c0 40 14 67 53 68 26 1 43-12 49-29l28 8c-11 28-37 45-77 45C44 4 14-33 15-96c1-61 26-98 85-98zm52 81c6-60-76-77-97-28-3 7-6 17-6 28h103" id="g"/><path d="M141-36C126-15 110 5 73 4 37 3 15-17 15-53c-1-64 63-63 125-63 3-35-9-54-41-54-24 1-41 7-42 31l-33-3c5-37 33-52 76-52 45 0 72 20 72 64v82c-1 20 7 32 28 27v20c-31 9-61-2-59-35zM48-53c0 20 12 33 32 33 41-3 63-29 60-74-43 2-92-5-92 41" id="h"/><path d="M59-47c-2 24 18 29 38 22v24C64 9 27 4 27-40v-127H5v-23h24l9-43h21v43h35v23H59v120" id="i"/><path d="M30 0v-248h187v28H63v79h144v27H63v87h162V0H30" id="j"/><path d="M141 0L90-78 38 0H4l68-98-65-92h35l48 74 47-74h35l-64 92 68 98h-35" id="k"/><path d="M115-194c55 1 70 41 70 98S169 2 115 4C84 4 66-9 55-30l1 105H24l-1-265h31l2 30c10-21 28-34 59-34zm-8 174c40 0 45-34 45-75s-6-73-45-74c-42 0-51 32-51 76 0 43 10 73 51 73" id="l"/><path d="M24-231v-30h32v30H24zM24 0v-190h32V0H24" id="m"/><path d="M210-169c-67 3-38 105-44 169h-31v-121c0-29-5-50-35-48C34-165 62-65 56 0H25l-1-190h30c1 10-1 24 2 32 10-44 99-50 107 0 11-21 27-35 58-36 85-2 47 119 55 194h-31v-121c0-29-5-49-35-48" id="n"/><path d="M117-194c89-4 53 116 60 194h-32v-121c0-31-8-49-39-48C34-167 62-67 57 0H25l-1-190h30c1 10-1 24 2 32 11-22 29-35 61-36" id="o"/><path d="M137 0h-34L2-248h35l83 218 83-218h36" id="p"/><path d="M206 0h-36l-40-164L89 0H53L-1-190h32L70-26l43-164h34l41 164 42-164h31" id="q"/><g id="a"><use transform="matrix(0.05,0,0,0.05,0,0)" xlink:href="#d"/><use transform="matrix(0.05,0,0,0.05,5,0)" xlink:href="#e"/><use transform="matrix(0.05,0,0,0.05,17.950000000000003,0)" xlink:href="#f"/><use transform="matrix(0.05,0,0,0.05,23.900000000000002,0)" xlink:href="#g"/><use transform="matrix(0.05,0,0,0.05,33.900000000000006,0)" xlink:href="#h"/><use transform="matrix(0.05,0,0,0.05,43.900000000000006,0)" xlink:href="#i"/><use transform="matrix(0.05,0,0,0.05,48.900000000000006,0)" xlink:href="#g"/><use transform="matrix(0.05,0,0,0.05,58.900000000000006,0)" xlink:href="#j"/><use transform="matrix(0.05,0,0,0.05,70.9,0)" xlink:href="#k"/><use transform="matrix(0.05,0,0,0.05,79.9,0)" xlink:href="#l"/><use transform="matrix(0.05,0,0,0.05,89.9,0)" xlink:href="#g"/><use transform="matrix(0.05,0,0,0.05,99.9,0)" xlink:href="#f"/><use transform="matrix(0.05,0,0,0.05,105.85000000000001,0)" xlink:href="#m"/><use transform="matrix(0.05,0,0,0.05,109.80000000000001,0)" xlink:href="#n"/><use transform="matrix(0.05,0,0,0.05,124.75,0)" xlink:href="#g"/><use transform="matrix(0.05,0,0,0.05,134.75,0)" xlink:href="#o"/><use transform="matrix(0.05,0,0,0.05,144.75,0)" xlink:href="#i"/><use transform="matrix(0.05,0,0,0.05,149.75,0)" xlink:href="#p"/><use transform="matrix(0.05,0,0,0.05,161.4,0)" xlink:href="#m"/><use transform="matrix(0.05,0,0,0.05,165.35,0)" xlink:href="#g"/><use transform="matrix(0.05,0,0,0.05,175.35,0)" xlink:href="#q"/><path d="M-.9 1.25h190.1v1.32H-.9z"/></g><path d="M100-194c62-1 85 37 85 99 1 63-27 99-86 99S16-35 15-95c0-66 28-99 85-99zM99-20c44 1 53-31 53-75 0-43-8-75-51-75s-53 32-53 75 10 74 51 75" id="r"/><path d="M87 75C49 33 22-17 22-94c0-76 28-126 65-167h31c-38 41-64 92-64 168S80 34 118 75H87" id="s"/><path d="M33-261c38 41 65 92 65 168S71 34 33 75H2C39 34 66-17 66-93S39-220 2-261h31" id="t"/><g id="b"><use transform="matrix(0.05,0,0,0.05,0,0)" xlink:href="#r"/><use transform="matrix(0.05,0,0,0.05,10,0)" xlink:href="#o"/><use transform="matrix(0.05,0,0,0.05,20,0)" xlink:href="#e"/><use transform="matrix(0.05,0,0,0.05,32.95,0)" xlink:href="#f"/><use transform="matrix(0.05,0,0,0.05,38.900000000000006,0)" xlink:href="#g"/><use transform="matrix(0.05,0,0,0.05,48.900000000000006,0)" xlink:href="#h"/><use transform="matrix(0.05,0,0,0.05,58.900000000000006,0)" xlink:href="#i"/><use transform="matrix(0.05,0,0,0.05,63.900000000000006,0)" xlink:href="#g"/><use transform="matrix(0.05,0,0,0.05,73.9,0)" xlink:href="#j"/><use transform="matrix(0.05,0,0,0.05,85.9,0)" xlink:href="#k"/><use transform="matrix(0.05,0,0,0.05,94.9,0)" xlink:href="#l"/><use transform="matrix(0.05,0,0,0.05,104.9,0)" xlink:href="#g"/><use transform="matrix(0.05,0,0,0.05,114.9,0)" xlink:href="#f"/><use transform="matrix(0.05,0,0,0.05,120.85000000000001,0)" xlink:href="#m"/><use transform="matrix(0.05,0,0,0.05,124.80000000000001,0)" xlink:href="#n"/><use transform="matrix(0.05,0,0,0.05,139.75,0)" xlink:href="#g"/><use transform="matrix(0.05,0,0,0.05,149.75,0)" xlink:href="#o"/><use transform="matrix(0.05,0,0,0.05,159.75,0)" xlink:href="#i"/><use transform="matrix(0.05,0,0,0.05,164.75,0)" xlink:href="#s"/><use transform="matrix(0.05,0,0,0.05,170.7,0)" xlink:href="#t"/></g><path d="M135-143c-3-34-86-38-87 0 15 53 115 12 119 90S17 21 10-45l28-5c4 36 97 45 98 0-10-56-113-15-118-90-4-57 82-63 122-42 12 7 21 19 24 35" id="u"/><path d="M177-190C167-65 218 103 67 71c-23-6-38-20-44-43l32-5c15 47 100 32 89-28v-30C133-14 115 1 83 1 29 1 15-40 15-95c0-56 16-97 71-98 29-1 48 16 59 35 1-10 0-23 2-32h30zM94-22c36 0 50-32 50-73 0-42-14-75-50-75-39 0-46 34-46 75s6 73 46 73" id="v"/><path d="M30-248c118-7 216 8 213 122C240-48 200 0 122 0H30v-248zM63-27c89 8 146-16 146-99s-60-101-146-95v194" id="w"/><g id="c"><use transform="matrix(0.05,0,0,0.05,0,0)" xlink:href="#n"/><use transform="matrix(0.05,0,0,0.05,14.950000000000001,0)" xlink:href="#m"/><use transform="matrix(0.05,0,0,0.05,18.900000000000002,0)" xlink:href="#u"/><use transform="matrix(0.05,0,0,0.05,27.900000000000002,0)" xlink:href="#u"/><use transform="matrix(0.05,0,0,0.05,36.900000000000006,0)" xlink:href="#m"/><use transform="matrix(0.05,0,0,0.05,40.85000000000001,0)" xlink:href="#o"/><use transform="matrix(0.05,0,0,0.05,50.85000000000001,0)" xlink:href="#v"/><use transform="matrix(0.05,0,0,0.05,60.85,0)" xlink:href="#w"/><use transform="matrix(0.05,0,0,0.05,73.80000000000001,0)" xlink:href="#h"/><use transform="matrix(0.05,0,0,0.05,83.80000000000001,0)" xlink:href="#i"/><use transform="matrix(0.05,0,0,0.05,88.80000000000001,0)" xlink:href="#h"/><use transform="matrix(0.05,0,0,0.05,98.80000000000001,0)" xlink:href="#s"/><use transform="matrix(0.05,0,0,0.05,104.75,0)" xlink:href="#t"/></g></defs></g></svg>