<svg xmlns="http://www.w3.org/2000/svg" xmlns:xlink="http://www.w3.org/1999/xlink" xmlns:lucid="lucid" width="1833.86" height="520.02"><g transform="translate(1279.8228983625231 -277.35298036103177)" lucid:page-tab-id="vPHms2bTQKVA"><path d="M-952.82 419.35v25.34m0 25.32v25.33M-952.82 419.38v-1.03M-952.82 495.33v1.02" stroke="#3a414a" stroke-width="2" fill="none"/><path d="M-972.82 497.35h40v220h-40z" stroke="#333" stroke-width="2" fill="#fff"/><path d="M-1267.82 509.45h275.5M-1267.8 509.45h-1.02" stroke="#3a414a" stroke-width="2" fill="none"/><path d="M-977.06 509.45l-14.27 4.63v-9.27z" stroke="#3a414a" stroke-width="2" fill="#3a414a"/><use xlink:href="#a" transform="matrix(1,0,0,1,-1221.622898362523,483.84721515620583) translate(0 14.4)"/><path d="M-696.97 297.35h160v120h-160z" stroke="#333" stroke-width="2" fill="#fff"/><use xlink:href="#b" transform="matrix(1,0,0,1,-696.9704546807034,297.35298036103177) translate(25.029999999999994 63.15)"/><path d="M-616.97 419.35v25.34m0 25.32v25.33" stroke="#3a414a" stroke-width="2" fill="none"/><path d="M-615.97 419.38h-2v-1.03h2z" stroke="#3a414a" stroke-width=".05" fill="#3a414a"/><path d="M-616.97 495.33v1.02" stroke="#3a414a" stroke-width="2" fill="none"/><path d="M-636.97 497.35h40v220h-40z" stroke="#333" stroke-width="2" fill="#fff"/><path d="M-930.82 522.35h274.35" stroke="#3a414a" stroke-width="2" fill="none"/><path d="M-930.8 523.35h-1.02v-2h1.02z" stroke="#3a414a" stroke-width=".05" fill="#3a414a"/><path d="M-641.2 522.35l-14.27 4.64v-9.28z" stroke="#3a414a" stroke-width="2" fill="#3a414a"/><use xlink:href="#c" transform="matrix(1,0,0,1,-868.2216765216133,496.7529803610318) translate(0 14.4)"/><path d="M-327.03 297.35h183.22v120h-183.23z" stroke="#333" stroke-width="2" fill="#fff"/><use xlink:href="#d" transform="matrix(1,0,0,1,-327.03252031199645,297.35298036103177) translate(29.07999999999999 63.15)"/><path d="M-241.88 419.35v28.52m0 28.5v28.53" stroke="#3a414a" stroke-width="2" fill="none"/><path d="M-240.88 419.38h-2v-1.03h2z" stroke="#3a414a" stroke-width=".05" fill="#3a414a"/><path d="M-241.88 504.87v1.03" stroke="#3a414a" stroke-width="2" fill="none"/><path d="M-261.54 506.9h40v190.45h-40z" stroke="#333" stroke-width="2" fill="#fff"/><path d="M-594.97 538.7h330.6" stroke="#3a414a" stroke-width="2" fill="none"/><path d="M-594.95 539.7h-1.02v-2h1.02z" stroke="#3a414a" stroke-width=".05" fill="#3a414a"/><path d="M-281.72 548.87l17.22-10.18-17.22-10.2" stroke="#3a414a" stroke-width="2" fill="none"/><use xlink:href="#e" transform="matrix(1,0,0,1,-550.5536731148652,513.0863136943649) translate(0 14.4)"/><path d="M-263.54 697.35h-10.02m-10 0h-20.05m-10.03 0h-20.04m-10.02 0h-20.02m-10.02 0h-20.04m-10.02 0h-20.03m-10.02 0h-20.04m-10 0h-20.05m-10.02 0H-514m-10.02 0h-20.04m-10.02 0h-20.03m-10.03 0h-10.02" stroke="#3a414a" stroke-width="2" fill="none"/><path d="M-262.54 698.35h-1.02v-2h1.02z" stroke="#3a414a" stroke-width=".05" fill="#3a414a"/><path d="M-576.8 687.17l-17.2 10.18 17.2 10.18" stroke="#3a414a" stroke-width="2" fill="none"/><use xlink:href="#f" transform="matrix(1,0,0,1,-528.1536731148652,701.3529803610409) translate(0 14.4)"/><use xlink:href="#g" transform="matrix(1,0,0,1,-528.1536731148652,701.3529803610409) translate(161.85 14.4)"/><path d="M6.22 297.35h206.13v120H6.22z" stroke="#333" stroke-width="2" fill="#fff"/><use xlink:href="#h" transform="matrix(1,0,0,1,6.223408263154852,297.35298036103177) translate(59.029999999999994 63.15)"/><path d="M102 419.35l-.27 19.78m-.27 19.78l-.55 39.56m-.26 19.78l-.55 39.56m-.28 19.78l-.28 19.77" stroke="#3a414a" stroke-width="2" fill="none"/><path d="M103 419.4l-2-.03.02-1.02h2zM100.54 597.34v1h-2v-1.03z" stroke="#3a414a" stroke-width=".05" fill="#3a414a"/><path d="M82.36 517.35h40v80h-40z" stroke="#333" stroke-width="2" fill="#fff"/><path d="M-219.54 538.7h282.4" stroke="#3a414a" stroke-width="2" fill="none"/><path d="M-219.5 539.7h-1.04v-2h1.03z" stroke="#3a414a" stroke-width=".05" fill="#3a414a"/><path d="M78.13 538.7l-14.27 4.62v-9.27z" stroke="#3a414a" stroke-width="2" fill="#3a414a"/><use xlink:href="#i" transform="matrix(1,0,0,1,-139.9618442697715,513.0863136943676) translate(0 14.4)"/><path d="M80.36 583.48H69.9m-10.46 0h-20.9m-10.47 0H7.15m-10.46 0h-20.93m-10.46 0h-20.9m-10.46 0h-20.92m-10.46 0h-20.92m-10.46 0h-20.92m-10.46 0h-20.92m-10.46 0h-10.45" stroke="#3a414a" stroke-width="2" fill="none"/><path d="M81.36 584.48h-1.02v-2h1.02z" stroke="#3a414a" stroke-width=".05" fill="#3a414a"/><path d="M-217.3 583.48l14.27-4.64v9.27z" stroke="#3a414a" stroke-width="2" fill="#3a414a"/><use xlink:href="#j" transform="matrix(1,0,0,1,-87.06184426977151,587.4752426511087) translate(0 14.4)"/><path d="M318.04 297.9h216v120h-216z" stroke="#333" stroke-width="2" fill="#fff"/><use xlink:href="#k" transform="matrix(1,0,0,1,318.038282245604,297.8973847376201) translate(15.880000000000004 63.15)"/><use xlink:href="#l" transform="matrix(1,0,0,1,318.038282245604,297.8973847376201) translate(123.18 63.15)"/><path d="M415.45 419.9l-.53 16.12m-.53 16.12l-1.07 32.24m-.53 16.12l-.53 16.13" stroke="#3a414a" stroke-width="2" fill="none"/><path d="M416.45 419.95l-2-.06.03-1h2zM413.27 516.63l-.04 1h-2l.04-1.06z" stroke="#3a414a" stroke-width=".05" fill="#3a414a"/><path d="M389.84 518.63h40v80h-40z" stroke="#333" stroke-width="2" fill="#fff"/><path d="M124.36 560.7h245.98" stroke="#3a414a" stroke-width="2" fill="none"/><path d="M124.4 561.7h-1.04v-2h1.03z" stroke="#3a414a" stroke-width=".05" fill="#3a414a"/><path d="M385.6 560.7l-14.26 4.62v-9.27z" stroke="#3a414a" stroke-width="2" fill="#3a414a"/><use xlink:href="#m" transform="matrix(1,0,0,1,202.7287771197607,535.086313694362) translate(0 14.4)"/><use xlink:href="#n" transform="matrix(1,0,0,1,202.7287771197607,535.086313694362) translate(64.85 14.4)"/><path d="M-638.97 692.02h-9.7m-9.7 0h-19.4m-9.7 0h-19.4m-9.7 0h-19.4m-9.7 0h-19.42m-9.7 0h-19.4m-9.7 0h-19.4m-9.7 0h-19.4m-9.7 0h-19.4m-9.7 0h-19.4m-9.7 0h-9.7" stroke="#3a414a" stroke-width="2" fill="none"/><path d="M-637.97 693.02H-639v-2h1.03z" stroke="#3a414a" stroke-width=".05" fill="#3a414a"/><path d="M-912.64 681.84l-17.22 10.18 17.22 10.18" stroke="#3a414a" stroke-width="2" fill="none"/><use xlink:href="#j" transform="matrix(1,0,0,1,-802.3716765216133,696.0196470277078) translate(0 14.4)"/><path d="M-1070.5 297.35h235.35v120h-235.35z" stroke="#333" stroke-width="2" fill="#fff"/><use xlink:href="#o" transform="matrix(1,0,0,1,-1070.4991202034325,297.35298036103177) translate(23.35500000000001 63.15)"/><path d="M-952.82 719.35v11m0 11v22m0 11.02v11" stroke="#3a414a" stroke-width="2" fill="none"/><path d="M-951.82 719.38h-2v-1.03h2z" stroke="#3a414a" stroke-width=".05" fill="#3a414a"/><path d="M-952.82 785.34v1.03M-616.97 719.35v11m0 11v22m0 11.02v11" stroke="#3a414a" stroke-width="2" fill="none"/><path d="M-615.97 719.38h-2v-1.03h2z" stroke="#3a414a" stroke-width=".05" fill="#3a414a"/><path d="M-616.97 785.34v1.03M-241.54 699.35v9.56m0 9.57v19.1m0 9.57v19.1m0 9.57v9.57" stroke="#3a414a" stroke-width="2" fill="none"/><path d="M-240.54 699.38h-2v-1.03h2z" stroke="#3a414a" stroke-width=".05" fill="#3a414a"/><path d="M-241.54 785.34v1.03M102.36 599.35v9.24m0 9.23v18.47m0 9.24v18.48m0 9.23v18.48m0 9.23v18.48m0 9.24v9.23l.02.24.05.22.1.2.1.2.16.18.16.15.2.1.2.1.23.05h.22l.22.03.22.06.2.08.2.12.18.15.15.16.1.2.1.2.05.23.02.22v14.85m0 14.85v14.85" stroke="#3a414a" stroke-width="2" fill="none"/><path d="M103.36 599.38h-2v-1.03h2z" stroke="#3a414a" stroke-width=".05" fill="#3a414a"/><path d="M105.27 785.34v1.03M409.84 600.63v10.1m0 10.1v20.2m0 10.1v20.2m0 10.1v10.12l.02.22.06.22.08.2.12.2.15.17.17.15.2.12.2.1.23.04.23.02h.22l.22.07.2.08.2.12.18.15.15.18.12.2.08.2.05.22.02.23v10.1m0 10.1v20.2m0 10.1v20.2m0 10.12v10.1" stroke="#3a414a" stroke-width="2" fill="none"/><path d="M410.84 600.65h-2v-1.02h2z" stroke="#3a414a" stroke-width=".05" fill="#3a414a"/><path d="M412.75 785.34v1.03" stroke="#3a414a" stroke-width="2" fill="none"/><defs><path d="M100-194c62-1 85 37 85 99 1 63-27 99-86 99S16-35 15-95c0-66 28-99 85-99zM99-20c44 1 53-31 53-75 0-43-8-75-51-75s-53 32-53 75 10 74 51 75" id="p"/><path d="M117-194c89-4 53 116 60 194h-32v-121c0-31-8-49-39-48C34-167 62-67 57 0H25l-1-190h30c1 10-1 24 2 32 11-22 29-35 61-36" id="q"/><path d="M140-251c81 0 123 46 123 126C263-46 219 4 140 4 59 4 17-45 17-125s42-126 123-126zm0 227c63 0 89-41 89-101s-29-99-89-99c-61 0-89 39-89 99S79-25 140-24" id="r"/><path d="M30-248c118-7 216 8 213 122C240-48 200 0 122 0H30v-248zM63-27c89 8 146-16 146-99s-60-101-146-95v194" id="s"/><path d="M240 0l2-218c-23 76-54 145-80 218h-23L58-218 59 0H30v-248h44l77 211c21-75 51-140 76-211h43V0h-30" id="t"/><path d="M185-189c-5-48-123-54-124 2 14 75 158 14 163 119 3 78-121 87-175 55-17-10-28-26-33-46l33-7c5 56 141 63 141-1 0-78-155-14-162-118-5-82 145-84 179-34 5 7 8 16 11 25" id="u"/><path d="M100-194c63 0 86 42 84 106H49c0 40 14 67 53 68 26 1 43-12 49-29l28 8c-11 28-37 45-77 45C44 4 14-33 15-96c1-61 26-98 85-98zm52 81c6-60-76-77-97-28-3 7-6 17-6 28h103" id="v"/><path d="M24 0v-261h32V0H24" id="w"/><path d="M96-169c-40 0-48 33-48 73s9 75 48 75c24 0 41-14 43-38l32 2c-6 37-31 61-74 61-59 0-76-41-82-99-10-93 101-131 147-64 4 7 5 14 7 22l-32 3c-4-21-16-35-41-35" id="x"/><path d="M59-47c-2 24 18 29 38 22v24C64 9 27 4 27-40v-127H5v-23h24l9-43h21v43h35v23H59v120" id="y"/><path d="M24-231v-30h32v30H24zM24 0v-190h32V0H24" id="z"/><path d="M87 75C49 33 22-17 22-94c0-76 28-126 65-167h31c-38 41-64 92-64 168S80 34 118 75H87" id="A"/><path d="M85-194c31 0 48 13 60 33l-1-100h32l1 261h-30c-2-10 0-23-3-31C134-8 116 4 85 4 32 4 16-35 15-94c0-66 23-100 70-100zm9 24c-40 0-46 34-46 75 0 40 6 74 45 74 42 0 51-32 51-76 0-42-9-74-50-73" id="B"/><path d="M210-169c-67 3-38 105-44 169h-31v-121c0-29-5-50-35-48C34-165 62-65 56 0H25l-1-190h30c1 10-1 24 2 32 10-44 99-50 107 0 11-21 27-35 58-36 85-2 47 119 55 194h-31v-121c0-29-5-49-35-48" id="C"/><path d="M33 0v-248h34V0H33" id="D"/><path d="M33-261c38 41 65 92 65 168S71 34 33 75H2C39 34 66-17 66-93S39-220 2-261h31" id="E"/><g id="a"><use transform="matrix(0.05,0,0,0.05,0,0)" xlink:href="#p"/><use transform="matrix(0.05,0,0,0.05,10,0)" xlink:href="#q"/><use transform="matrix(0.05,0,0,0.05,20,0)" xlink:href="#r"/><use transform="matrix(0.05,0,0,0.05,34,0)" xlink:href="#s"/><use transform="matrix(0.05,0,0,0.05,46.95,0)" xlink:href="#t"/><use transform="matrix(0.05,0,0,0.05,61.900000000000006,0)" xlink:href="#u"/><use transform="matrix(0.05,0,0,0.05,73.9,0)" xlink:href="#v"/><use transform="matrix(0.05,0,0,0.05,83.9,0)" xlink:href="#w"/><use transform="matrix(0.05,0,0,0.05,87.85000000000001,0)" xlink:href="#v"/><use transform="matrix(0.05,0,0,0.05,97.85000000000001,0)" xlink:href="#x"/><use transform="matrix(0.05,0,0,0.05,106.85000000000001,0)" xlink:href="#y"/><use transform="matrix(0.05,0,0,0.05,111.85000000000001,0)" xlink:href="#z"/><use transform="matrix(0.05,0,0,0.05,115.80000000000001,0)" xlink:href="#p"/><use transform="matrix(0.05,0,0,0.05,125.80000000000001,0)" xlink:href="#q"/><use transform="matrix(0.05,0,0,0.05,135.8,0)" xlink:href="#A"/><use transform="matrix(0.05,0,0,0.05,141.75,0)" xlink:href="#p"/><use transform="matrix(0.05,0,0,0.05,151.75,0)" xlink:href="#B"/><use transform="matrix(0.05,0,0,0.05,161.75,0)" xlink:href="#C"/><use transform="matrix(0.05,0,0,0.05,176.7,0)" xlink:href="#D"/><use transform="matrix(0.05,0,0,0.05,181.7,0)" xlink:href="#s"/><use transform="matrix(0.05,0,0,0.05,194.64999999999998,0)" xlink:href="#E"/></g><path d="M33-154v-36h34v36H33zM33 0v-36h34V0H33" id="F"/><path d="M205 0l-28-72H64L36 0H1l101-248h38L239 0h-34zm-38-99l-47-123c-12 45-31 82-46 123h93" id="G"/><path d="M30-248c87 1 191-15 191 75 0 78-77 80-158 76V0H30v-248zm33 125c57 0 124 11 124-50 0-59-68-47-124-48v98" id="H"/><path d="M233-177c-1 41-23 64-60 70L243 0h-38l-65-103H63V0H30v-248c88 3 205-21 203 71zM63-129c60-2 137 13 137-47 0-61-80-42-137-45v92" id="I"/><path d="M145-31C134-9 116 4 85 4 32 4 16-35 15-94c0-59 17-99 70-100 32-1 48 14 60 33 0-11-1-24 2-32h30l-1 268h-32zM93-21c41 0 51-33 51-76s-8-73-50-73c-40 0-46 35-46 75s5 74 45 74" id="J"/><path d="M84 4C-5 8 30-112 23-190h32v120c0 31 7 50 39 49 72-2 45-101 50-169h31l1 190h-30c-1-10 1-25-2-33-11 22-28 36-60 37" id="K"/><path d="M135-143c-3-34-86-38-87 0 15 53 115 12 119 90S17 21 10-45l28-5c4 36 97 45 98 0-10-56-113-15-118-90-4-57 82-63 122-42 12 7 21 19 24 35" id="L"/><g id="b"><use transform="matrix(0.05,0,0,0.05,0,0)" xlink:href="#F"/><use transform="matrix(0.05,0,0,0.05,5,0)" xlink:href="#G"/><use transform="matrix(0.05,0,0,0.05,17,0)" xlink:href="#H"/><use transform="matrix(0.05,0,0,0.05,29,0)" xlink:href="#D"/><use transform="matrix(0.05,0,0,0.05,34,0)" xlink:href="#I"/><use transform="matrix(0.05,0,0,0.05,46.95,0)" xlink:href="#v"/><use transform="matrix(0.05,0,0,0.05,56.95,0)" xlink:href="#J"/><use transform="matrix(0.05,0,0,0.05,66.95,0)" xlink:href="#K"/><use transform="matrix(0.05,0,0,0.05,76.95,0)" xlink:href="#v"/><use transform="matrix(0.05,0,0,0.05,86.95,0)" xlink:href="#L"/><use transform="matrix(0.05,0,0,0.05,95.95,0)" xlink:href="#y"/><use transform="matrix(0.05,0,0,0.05,100.95,0)" xlink:href="#L"/><path d="M-.9 1.25h111.75v1.32H-.9z"/></g><path d="M114-163C36-179 61-72 57 0H25l-1-190h30c1 12-1 29 2 39 6-27 23-49 58-41v29" id="M"/><g id="c"><use transform="matrix(0.05,0,0,0.05,0,0)" xlink:href="#M"/><use transform="matrix(0.05,0,0,0.05,5.95,0)" xlink:href="#v"/><use transform="matrix(0.05,0,0,0.05,15.949999999999998,0)" xlink:href="#J"/><use transform="matrix(0.05,0,0,0.05,25.950000000000003,0)" xlink:href="#K"/><use transform="matrix(0.05,0,0,0.05,35.95,0)" xlink:href="#v"/><use transform="matrix(0.05,0,0,0.05,45.95,0)" xlink:href="#L"/><use transform="matrix(0.05,0,0,0.05,54.95,0)" xlink:href="#y"/><use transform="matrix(0.05,0,0,0.05,59.95,0)" xlink:href="#r"/><use transform="matrix(0.05,0,0,0.05,73.95,0)" xlink:href="#s"/><use transform="matrix(0.05,0,0,0.05,86.9,0)" xlink:href="#t"/><use transform="matrix(0.05,0,0,0.05,101.85000000000001,0)" xlink:href="#A"/><use transform="matrix(0.05,0,0,0.05,107.80000000000001,0)" xlink:href="#p"/><use transform="matrix(0.05,0,0,0.05,117.80000000000001,0)" xlink:href="#B"/><use transform="matrix(0.05,0,0,0.05,127.80000000000001,0)" xlink:href="#C"/><use transform="matrix(0.05,0,0,0.05,142.75,0)" xlink:href="#D"/><use transform="matrix(0.05,0,0,0.05,147.75,0)" xlink:href="#s"/><use transform="matrix(0.05,0,0,0.05,160.7,0)" xlink:href="#E"/></g><path d="M30 0v-248h187v28H63v79h144v27H63v87h162V0H30" id="N"/><path d="M141 0L90-78 38 0H4l68-98-65-92h35l48 74 47-74h35l-64 92 68 98h-35" id="O"/><path d="M115-194c55 1 70 41 70 98S169 2 115 4C84 4 66-9 55-30l1 105H24l-1-265h31l2 30c10-21 28-34 59-34zm-8 174c40 0 45-34 45-75s-6-73-45-74c-42 0-51 32-51 76 0 43 10 73 51 73" id="P"/><g id="d"><use transform="matrix(0.05,0,0,0.05,0,0)" xlink:href="#F"/><use transform="matrix(0.05,0,0,0.05,5,0)" xlink:href="#N"/><use transform="matrix(0.05,0,0,0.05,17,0)" xlink:href="#O"/><use transform="matrix(0.05,0,0,0.05,26,0)" xlink:href="#P"/><use transform="matrix(0.05,0,0,0.05,36,0)" xlink:href="#v"/><use transform="matrix(0.05,0,0,0.05,46,0)" xlink:href="#M"/><use transform="matrix(0.05,0,0,0.05,51.95,0)" xlink:href="#z"/><use transform="matrix(0.05,0,0,0.05,55.900000000000006,0)" xlink:href="#C"/><use transform="matrix(0.05,0,0,0.05,70.85000000000001,0)" xlink:href="#v"/><use transform="matrix(0.05,0,0,0.05,80.85000000000001,0)" xlink:href="#q"/><use transform="matrix(0.05,0,0,0.05,90.85000000000001,0)" xlink:href="#y"/><use transform="matrix(0.05,0,0,0.05,95.85000000000001,0)" xlink:href="#G"/><use transform="matrix(0.05,0,0,0.05,107.85000000000001,0)" xlink:href="#H"/><use transform="matrix(0.05,0,0,0.05,119.85000000000001,0)" xlink:href="#D"/><path d="M-.9 1.25h126.65v1.32H-.9z"/></g><path d="M0 4l72-265h28L28 4H0" id="Q"/><path d="M177-190C167-65 218 103 67 71c-23-6-38-20-44-43l32-5c15 47 100 32 89-28v-30C133-14 115 1 83 1 29 1 15-40 15-95c0-56 16-97 71-98 29-1 48 16 59 35 1-10 0-23 2-32h30zM94-22c36 0 50-32 50-73 0-42-14-75-50-75-39 0-46 34-46 75s6 73 46 73" id="R"/><path d="M16-82v-28h88v28H16" id="S"/><path d="M141-36C126-15 110 5 73 4 37 3 15-17 15-53c-1-64 63-63 125-63 3-35-9-54-41-54-24 1-41 7-42 31l-33-3c5-37 33-52 76-52 45 0 72 20 72 64v82c-1 20 7 32 28 27v20c-31 9-61-2-59-35zM48-53c0 20 12 33 32 33 41-3 63-29 60-74-43 2-92-5-92 41" id="T"/><path d="M18-100v-36l175-74v27L42-118l151 64v27" id="U"/><path d="M18-27v-27l151-64-151-65v-27l175 74v36" id="V"/><g id="e"><use transform="matrix(0.05,0,0,0.05,0,0)" xlink:href="#p"/><use transform="matrix(0.05,0,0,0.05,10,0)" xlink:href="#B"/><use transform="matrix(0.05,0,0,0.05,20,0)" xlink:href="#C"/><use transform="matrix(0.05,0,0,0.05,34.95,0)" xlink:href="#Q"/><use transform="matrix(0.05,0,0,0.05,39.95,0)" xlink:href="#R"/><use transform="matrix(0.05,0,0,0.05,49.95,0)" xlink:href="#v"/><use transform="matrix(0.05,0,0,0.05,59.95,0)" xlink:href="#y"/><use transform="matrix(0.05,0,0,0.05,64.95,0)" xlink:href="#S"/><use transform="matrix(0.05,0,0,0.05,70.9,0)" xlink:href="#P"/><use transform="matrix(0.05,0,0,0.05,80.9,0)" xlink:href="#T"/><use transform="matrix(0.05,0,0,0.05,90.9,0)" xlink:href="#M"/><use transform="matrix(0.05,0,0,0.05,96.85000000000001,0)" xlink:href="#T"/><use transform="matrix(0.05,0,0,0.05,106.85000000000001,0)" xlink:href="#C"/><use transform="matrix(0.05,0,0,0.05,121.80000000000001,0)" xlink:href="#v"/><use transform="matrix(0.05,0,0,0.05,131.8,0)" xlink:href="#y"/><use transform="matrix(0.05,0,0,0.05,136.8,0)" xlink:href="#v"/><use transform="matrix(0.05,0,0,0.05,146.8,0)" xlink:href="#M"/><use transform="matrix(0.05,0,0,0.05,152.75,0)" xlink:href="#L"/><use transform="matrix(0.05,0,0,0.05,161.75,0)" xlink:href="#Q"/><use transform="matrix(0.05,0,0,0.05,166.75,0)" xlink:href="#U"/><use transform="matrix(0.05,0,0,0.05,177.25,0)" xlink:href="#p"/><use transform="matrix(0.05,0,0,0.05,187.25,0)" xlink:href="#B"/><use transform="matrix(0.05,0,0,0.05,197.25,0)" xlink:href="#C"/><use transform="matrix(0.05,0,0,0.05,212.19999999999996,0)" xlink:href="#S"/><use transform="matrix(0.05,0,0,0.05,218.14999999999998,0)" xlink:href="#z"/><use transform="matrix(0.05,0,0,0.05,222.09999999999997,0)" xlink:href="#B"/><use transform="matrix(0.05,0,0,0.05,232.09999999999997,0)" xlink:href="#V"/></g><path d="M106-169C34-169 62-67 57 0H25v-261h32l-1 103c12-21 28-36 61-36 89 0 53 116 60 194h-32v-121c2-32-8-49-39-48" id="W"/><path d="M68-38c1 34 0 65-14 84H32c9-13 17-26 17-46H33v-38h35" id="X"/><g id="f"><use transform="matrix(0.05,0,0,0.05,0,0)" xlink:href="#W"/><use transform="matrix(0.05,0,0,0.05,10,0)" xlink:href="#y"/><use transform="matrix(0.05,0,0,0.05,15,0)" xlink:href="#y"/><use transform="matrix(0.05,0,0,0.05,20,0)" xlink:href="#P"/><use transform="matrix(0.05,0,0,0.05,30,0)" xlink:href="#I"/><use transform="matrix(0.05,0,0,0.05,42.95,0)" xlink:href="#v"/><use transform="matrix(0.05,0,0,0.05,52.95,0)" xlink:href="#L"/><use transform="matrix(0.05,0,0,0.05,61.95,0)" xlink:href="#P"/><use transform="matrix(0.05,0,0,0.05,71.95,0)" xlink:href="#p"/><use transform="matrix(0.05,0,0,0.05,81.95,0)" xlink:href="#q"/><use transform="matrix(0.05,0,0,0.05,91.95,0)" xlink:href="#L"/><use transform="matrix(0.05,0,0,0.05,100.95,0)" xlink:href="#v"/><use transform="matrix(0.05,0,0,0.05,110.95,0)" xlink:href="#A"/><use transform="matrix(0.05,0,0,0.05,116.9,0)" xlink:href="#p"/><use transform="matrix(0.05,0,0,0.05,126.9,0)" xlink:href="#B"/><use transform="matrix(0.05,0,0,0.05,136.9,0)" xlink:href="#C"/><use transform="matrix(0.05,0,0,0.05,151.85,0)" xlink:href="#X"/></g><path d="M101-251c82-7 93 87 43 132L82-64C71-53 59-42 53-27h129V0H18c2-99 128-94 128-182 0-28-16-43-45-43s-46 15-49 41l-32-3c6-41 34-60 81-64" id="Y"/><path d="M101-251c68 0 85 55 85 127S166 4 100 4C33 4 14-52 14-124c0-73 17-127 87-127zm-1 229c47 0 54-49 54-102s-4-102-53-102c-51 0-55 48-55 102 0 53 5 102 54 102" id="Z"/><g id="g"><use transform="matrix(0.05,0,0,0.05,0,0)" xlink:href="#Y"/><use transform="matrix(0.05,0,0,0.05,10,0)" xlink:href="#Z"/><use transform="matrix(0.05,0,0,0.05,20,0)" xlink:href="#Z"/><use transform="matrix(0.05,0,0,0.05,30,0)" xlink:href="#E"/></g><path d="M160-131c35 5 61 23 61 61C221 17 115-2 30 0v-248c76 3 177-17 177 60 0 33-19 50-47 57zm-97-11c50-1 110 9 110-42 0-47-63-36-110-37v79zm0 115c55-2 124 14 124-45 0-56-70-42-124-44v89" id="aa"/><g id="h"><use transform="matrix(0.05,0,0,0.05,0,0)" xlink:href="#F"/><use transform="matrix(0.05,0,0,0.05,5,0)" xlink:href="#s"/><use transform="matrix(0.05,0,0,0.05,17.950000000000003,0)" xlink:href="#aa"/><use transform="matrix(0.05,0,0,0.05,29.950000000000003,0)" xlink:href="#G"/><use transform="matrix(0.05,0,0,0.05,41.95,0)" xlink:href="#x"/><use transform="matrix(0.05,0,0,0.05,50.95,0)" xlink:href="#x"/><use transform="matrix(0.05,0,0,0.05,59.95,0)" xlink:href="#v"/><use transform="matrix(0.05,0,0,0.05,69.95,0)" xlink:href="#L"/><use transform="matrix(0.05,0,0,0.05,78.95,0)" xlink:href="#L"/><path d="M-.9 1.25h89.75v1.32H-.9z"/></g><path d="M-5 72V49h209v23H-5" id="ab"/><g id="i"><use transform="matrix(0.05,0,0,0.05,0,0)" xlink:href="#R"/><use transform="matrix(0.05,0,0,0.05,10,0)" xlink:href="#v"/><use transform="matrix(0.05,0,0,0.05,20,0)" xlink:href="#y"/><use transform="matrix(0.05,0,0,0.05,25,0)" xlink:href="#ab"/><use transform="matrix(0.05,0,0,0.05,35,0)" xlink:href="#p"/><use transform="matrix(0.05,0,0,0.05,45,0)" xlink:href="#B"/><use transform="matrix(0.05,0,0,0.05,55,0)" xlink:href="#C"/><use transform="matrix(0.05,0,0,0.05,69.95,0)" xlink:href="#A"/><use transform="matrix(0.05,0,0,0.05,75.9,0)" xlink:href="#p"/><use transform="matrix(0.05,0,0,0.05,85.9,0)" xlink:href="#B"/><use transform="matrix(0.05,0,0,0.05,95.9,0)" xlink:href="#C"/><use transform="matrix(0.05,0,0,0.05,110.85000000000001,0)" xlink:href="#ab"/><use transform="matrix(0.05,0,0,0.05,120.85000000000001,0)" xlink:href="#z"/><use transform="matrix(0.05,0,0,0.05,124.80000000000001,0)" xlink:href="#B"/><use transform="matrix(0.05,0,0,0.05,134.8,0)" xlink:href="#E"/></g><g id="j"><use transform="matrix(0.05,0,0,0.05,0,0)" xlink:href="#p"/><use transform="matrix(0.05,0,0,0.05,10,0)" xlink:href="#B"/><use transform="matrix(0.05,0,0,0.05,20,0)" xlink:href="#C"/></g><path d="M140-251c81 0 123 46 123 126C263-53 228-8 163 1c7 30 30 48 69 40v23c-55 16-95-15-103-61C56-3 17-48 17-125c0-80 42-126 123-126zm0 227c63 0 89-41 89-101s-29-99-89-99c-61 0-89 39-89 99S79-25 140-24" id="ac"/><path d="M30 0v-248h33v221h125V0H30" id="ad"/><g id="k"><use transform="matrix(0.05,0,0,0.05,0,0)" xlink:href="#F"/><use transform="matrix(0.05,0,0,0.05,5,0)" xlink:href="#H"/><use transform="matrix(0.05,0,0,0.05,17,0)" xlink:href="#p"/><use transform="matrix(0.05,0,0,0.05,27,0)" xlink:href="#L"/><use transform="matrix(0.05,0,0,0.05,36,0)" xlink:href="#y"/><use transform="matrix(0.05,0,0,0.05,41,0)" xlink:href="#R"/><use transform="matrix(0.05,0,0,0.05,51,0)" xlink:href="#M"/><use transform="matrix(0.05,0,0,0.05,56.95,0)" xlink:href="#v"/><use transform="matrix(0.05,0,0,0.05,66.95,0)" xlink:href="#u"/><use transform="matrix(0.05,0,0,0.05,78.95,0)" xlink:href="#ac"/><use transform="matrix(0.05,0,0,0.05,92.95,0)" xlink:href="#ad"/><path d="M-.9 1.25h109.1v1.32H-.9z"/></g><path d="M115-194c53 0 69 39 70 98 0 66-23 100-70 100C84 3 66-7 56-30L54 0H23l1-261h32v101c10-23 28-34 59-34zm-8 174c40 0 45-34 45-75 0-40-5-75-45-74-42 0-51 32-51 76 0 43 10 73 51 73" id="ae"/><g id="l"><use transform="matrix(0.05,0,0,0.05,0,0)" xlink:href="#s"/><use transform="matrix(0.05,0,0,0.05,12.950000000000001,0)" xlink:href="#T"/><use transform="matrix(0.05,0,0,0.05,22.950000000000003,0)" xlink:href="#y"/><use transform="matrix(0.05,0,0,0.05,27.950000000000003,0)" xlink:href="#T"/><use transform="matrix(0.05,0,0,0.05,37.95,0)" xlink:href="#ae"/><use transform="matrix(0.05,0,0,0.05,47.95,0)" xlink:href="#T"/><use transform="matrix(0.05,0,0,0.05,57.95,0)" xlink:href="#L"/><use transform="matrix(0.05,0,0,0.05,66.95,0)" xlink:href="#v"/><path d="M-.9 1.25h78.75v1.32H-.9z"/></g><path d="M108 0H70L1-190h34L89-25l56-165h34" id="af"/><g id="m"><use transform="matrix(0.05,0,0,0.05,0,0)" xlink:href="#M"/><use transform="matrix(0.05,0,0,0.05,5.95,0)" xlink:href="#v"/><use transform="matrix(0.05,0,0,0.05,15.949999999999998,0)" xlink:href="#y"/><use transform="matrix(0.05,0,0,0.05,20.95,0)" xlink:href="#M"/><use transform="matrix(0.05,0,0,0.05,26.899999999999995,0)" xlink:href="#z"/><use transform="matrix(0.05,0,0,0.05,30.849999999999994,0)" xlink:href="#v"/><use transform="matrix(0.05,0,0,0.05,40.849999999999994,0)" xlink:href="#af"/><use transform="matrix(0.05,0,0,0.05,49.849999999999994,0)" xlink:href="#v"/></g><g id="n"><use transform="matrix(0.05,0,0,0.05,0,0)" xlink:href="#r"/><use transform="matrix(0.05,0,0,0.05,14,0)" xlink:href="#s"/><use transform="matrix(0.05,0,0,0.05,26.950000000000003,0)" xlink:href="#t"/></g><path d="M212-179c-10-28-35-45-73-45-59 0-87 40-87 99 0 60 29 101 89 101 43 0 62-24 78-52l27 14C228-24 195 4 139 4 59 4 22-46 18-125c-6-104 99-153 187-111 19 9 31 26 39 46" id="ag"/><path d="M137 0h-34L2-248h35l83 218 83-218h36" id="ah"/><path d="M206 0h-36l-40-164L89 0H53L-1-190h32L70-26l43-164h34l41 164 42-164h31" id="ai"/><g id="o"><use transform="matrix(0.05,0,0,0.05,0,0)" xlink:href="#F"/><use transform="matrix(0.05,0,0,0.05,5,0)" xlink:href="#ag"/><use transform="matrix(0.05,0,0,0.05,17.950000000000003,0)" xlink:href="#M"/><use transform="matrix(0.05,0,0,0.05,23.900000000000002,0)" xlink:href="#v"/><use transform="matrix(0.05,0,0,0.05,33.900000000000006,0)" xlink:href="#T"/><use transform="matrix(0.05,0,0,0.05,43.900000000000006,0)" xlink:href="#y"/><use transform="matrix(0.05,0,0,0.05,48.900000000000006,0)" xlink:href="#v"/><use transform="matrix(0.05,0,0,0.05,58.900000000000006,0)" xlink:href="#N"/><use transform="matrix(0.05,0,0,0.05,70.9,0)" xlink:href="#O"/><use transform="matrix(0.05,0,0,0.05,79.9,0)" xlink:href="#P"/><use transform="matrix(0.05,0,0,0.05,89.9,0)" xlink:href="#v"/><use transform="matrix(0.05,0,0,0.05,99.9,0)" xlink:href="#M"/><use transform="matrix(0.05,0,0,0.05,105.85000000000001,0)" xlink:href="#z"/><use transform="matrix(0.05,0,0,0.05,109.80000000000001,0)" xlink:href="#C"/><use transform="matrix(0.05,0,0,0.05,124.75,0)" xlink:href="#v"/><use transform="matrix(0.05,0,0,0.05,134.75,0)" xlink:href="#q"/><use transform="matrix(0.05,0,0,0.05,144.75,0)" xlink:href="#y"/><use transform="matrix(0.05,0,0,0.05,149.75,0)" xlink:href="#ah"/><use transform="matrix(0.05,0,0,0.05,161.4,0)" xlink:href="#z"/><use transform="matrix(0.05,0,0,0.05,165.35,0)" xlink:href="#v"/><use transform="matrix(0.05,0,0,0.05,175.35,0)" xlink:href="#ai"/><path d="M-.9 1.25h190.1v1.32H-.9z"/></g></defs></g></svg>