<svg xmlns="http://www.w3.org/2000/svg" xmlns:xlink="http://www.w3.org/1999/xlink" xmlns:lucid="lucid" width="1323.02" height="408"><g transform="translate(1002.7293078923367 -748.3709061244981)" lucid:page-tab-id="vPHms2bTQKVA"><path d="M-551.73 768.9h160v120h-160z" stroke="#333" stroke-width="2" fill="#fff"/><use xlink:href="#a" transform="matrix(1,0,0,1,-551.7293078923367,768.9153105010864) translate(25.029999999999994 63.15)"/><path d="M-471.74 890.9l-.33 21.86m-.32 21.85l-.3 21.86" stroke="#3a414a" stroke-width="2" fill="none"/><path d="M-470.75 890.96l-2-.03.02-1h2z" stroke="#3a414a" stroke-width=".05" fill="#3a414a"/><path d="M-472.7 956.43l-.03 1.03" stroke="#3a414a" stroke-width="2" fill="none"/><path d="M-153.56 768.9h160v120h-160z" stroke="#333" stroke-width="2" fill="#fff"/><use xlink:href="#b" transform="matrix(1,0,0,1,-153.55823907378635,768.9153105010864) translate(17.57999999999999 63.15)"/><path d="M-79.2 890.9v27.35m0 27.33v27.33" stroke="#3a414a" stroke-width="2" fill="none"/><path d="M-78.2 890.94h-2v-1.03h2z" stroke="#3a414a" stroke-width=".05" fill="#3a414a"/><path d="M-79.2 972.9v1" stroke="#3a414a" stroke-width="2" fill="none"/><path d="M-492.73 958.46h40v120h-40z" stroke="#333" stroke-width="2" fill="#fff"/><path d="M-990.73 969.78h202.65M-990.7 969.78h-1.03" stroke="#3a414a" stroke-width="2" fill="none"/><path d="M-772.82 969.78l-14.26 4.64v-9.27z" stroke="#3a414a" stroke-width="2" fill="#3a414a"/><use xlink:href="#c" transform="matrix(1,0,0,1,-987.1055297332465,939.5477412956736) translate(0 14.4)"/><path d="M-450.73 996.9h351.55" stroke="#3a414a" stroke-width="2" fill="none"/><path d="M-450.7 997.9h-1.03v-2h1.03z" stroke="#3a414a" stroke-width=".05" fill="#3a414a"/><path d="M-116.54 1007.1l17.2-10.2-17.2-10.17" stroke="#3a414a" stroke-width="2" fill="none"/><use xlink:href="#d" transform="matrix(1,0,0,1,-424.2214532471355,971.3090924996336) translate(0 14.4)"/><path d="M-96.36 978.46h40v80h-40z" stroke="#333" stroke-width="2" fill="#fff"/><path d="M-98.36 1047.8h-9.77m-9.76 0h-19.52m-9.77 0h-19.52m-9.77 0H-196m-9.76 0h-19.53m-9.78 0h-19.53m-9.77 0h-19.53m-9.77 0h-19.53m-9.76 0h-19.53m-9.76 0h-19.53m-9.75 0h-19.53m-9.77 0h-19.53m-9.77 0h-9.76" stroke="#3a414a" stroke-width="2" fill="none"/><path d="M-97.36 1048.8h-1.03v-2h1.04z" stroke="#3a414a" stroke-width=".05" fill="#3a414a"/><path d="M-432.55 1037.6l-17.2 10.2 17.2 10.17" stroke="#3a414a" stroke-width="2" fill="none"/><use xlink:href="#e" transform="matrix(1,0,0,1,-403.6464532471356,1051.7930482110069) translate(0 14.4)"/><use xlink:href="#f" transform="matrix(1,0,0,1,-403.6464532471356,1051.7930482110069) translate(158.79999999999998 14.4)"/><use xlink:href="#g" transform="matrix(1,0,0,1,-403.6464532471356,1051.7930482110069) translate(174.29999999999998 14.4)"/><use xlink:href="#h" transform="matrix(1,0,0,1,-403.6464532471356,1051.7930482110069) translate(222.25 14.4)"/><path d="M52.6 768.37h247.7v120H52.6z" stroke="#333" stroke-width="2" fill="#fff"/><use xlink:href="#i" transform="matrix(1,0,0,1,52.5893172443939,768.3709061244981) translate(29.505000000000003 63.15)"/><path d="M167.74 890.37l.78 28.52m.77 28.5l.77 28.52" stroke="#3a414a" stroke-width="2" fill="none"/><path d="M168.74 890.37l-2 .05-.03-1.05h2zM171.1 976.9h-2l-.03-.98 2-.06z" stroke="#3a414a" stroke-width=".05" fill="#3a414a"/><path d="M152.93 977.9h40v80h-40z" stroke="#333" stroke-width="2" fill="#fff"/><path d="M-54.36 999.25h187.8" stroke="#3a414a" stroke-width="2" fill="none"/><path d="M-54.34 1000.25h-1.02v-2h1.02z" stroke="#3a414a" stroke-width=".05" fill="#3a414a"/><path d="M148.7 999.25l-14.27 4.63v-9.27z" stroke="#3a414a" stroke-width="2" fill="#3a414a"/><use xlink:href="#j" transform="matrix(1,0,0,1,8.408957716245368,973.6486438344222) translate(0 14.4)"/><path d="M150.93 1048.58H140.5m-10.43 0H109.2m-10.43 0H77.9m-10.43 0H46.6m-10.43 0H15.3m-10.43 0H-16m-10.43 0h-10.43" stroke="#3a414a" stroke-width="2" fill="none"/><path d="M151.93 1049.58h-1.02v-2h1.03z" stroke="#3a414a" stroke-width=".05" fill="#3a414a"/><path d="M-52.13 1048.58l14.27-4.63v9.27z" stroke="#3a414a" stroke-width="2" fill="#3a414a"/><use xlink:href="#k" transform="matrix(1,0,0,1,-0.3160422837546335,1052.5819771677552) translate(0 14.4)"/><path d="M-860.16 769.46H-637v120h-223.16z" stroke="#333" stroke-width="2" fill="#fff"/><use xlink:href="#l" transform="matrix(1,0,0,1,-860.1555297332443,769.4597148776747) translate(17.35500000000001 63.15)"/><path d="M-748.58 891.46v25.15m0 25.16v25.15" stroke="#3a414a" stroke-width="2" fill="none"/><path d="M-747.58 891.5h-2v-1.04h2z" stroke="#3a414a" stroke-width=".05" fill="#3a414a"/><path d="M-748.58 966.9v1" stroke="#3a414a" stroke-width="2" fill="none"/><path d="M-768.58 957.96h40v40.5h-40z" stroke="#333" stroke-width="2" fill="#fff"/><path d="M-726.58 984.1h214.35" stroke="#3a414a" stroke-width="2" fill="none"/><path d="M-726.56 985.1h-1.02v-2h1.02z" stroke="#3a414a" stroke-width=".05" fill="#3a414a"/><path d="M-496.96 984.1l-14.27 4.63v-9.27z" stroke="#3a414a" stroke-width="2" fill="#3a414a"/><use xlink:href="#m" transform="matrix(1,0,0,1,-698.1555297332466,958.4948307832868) translate(0 14.4)"/><path d="M-748.58 1000.46v9.6m0 9.6v19.18m0 9.6v19.18m0 9.6v19.18m0 9.6v19.18m0 9.6v9.6" stroke="#3a414a" stroke-width="2" fill="none"/><path d="M-747.58 1000.5h-2v-1.04h2z" stroke="#3a414a" stroke-width=".05" fill="#3a414a"/><path d="M-748.58 1144.35v1.02M-472.73 1080.46v10.65m0 10.66v21.3m0 10.66v10.65" stroke="#3a414a" stroke-width="2" fill="none"/><path d="M-471.73 1080.48h-2v-1.02h2z" stroke="#3a414a" stroke-width=".05" fill="#3a414a"/><path d="M-472.73 1144.35v1.02M-76.36 1060.46v9.32m0 9.33v18.65m0 9.33v18.64m0 9.33v9.32" stroke="#3a414a" stroke-width="2" fill="none"/><path d="M-75.36 1060.48h-2v-1.02h2z" stroke="#3a414a" stroke-width=".05" fill="#3a414a"/><path d="M-76.36 1144.35v1.02M172.93 1059.9v9.4m0 9.38v18.77m0 9.38v18.77m0 9.4v9.37" stroke="#3a414a" stroke-width="2" fill="none"/><path d="M173.93 1059.94h-2v-1.03h2z" stroke="#3a414a" stroke-width=".05" fill="#3a414a"/><path d="M172.93 1144.35v1.02" stroke="#3a414a" stroke-width="2" fill="none"/><defs><path d="M33-154v-36h34v36H33zM33 0v-36h34V0H33" id="n"/><path d="M205 0l-28-72H64L36 0H1l101-248h38L239 0h-34zm-38-99l-47-123c-12 45-31 82-46 123h93" id="o"/><path d="M30-248c87 1 191-15 191 75 0 78-77 80-158 76V0H30v-248zm33 125c57 0 124 11 124-50 0-59-68-47-124-48v98" id="p"/><path d="M33 0v-248h34V0H33" id="q"/><path d="M233-177c-1 41-23 64-60 70L243 0h-38l-65-103H63V0H30v-248c88 3 205-21 203 71zM63-129c60-2 137 13 137-47 0-61-80-42-137-45v92" id="r"/><path d="M100-194c63 0 86 42 84 106H49c0 40 14 67 53 68 26 1 43-12 49-29l28 8c-11 28-37 45-77 45C44 4 14-33 15-96c1-61 26-98 85-98zm52 81c6-60-76-77-97-28-3 7-6 17-6 28h103" id="s"/><path d="M145-31C134-9 116 4 85 4 32 4 16-35 15-94c0-59 17-99 70-100 32-1 48 14 60 33 0-11-1-24 2-32h30l-1 268h-32zM93-21c41 0 51-33 51-76s-8-73-50-73c-40 0-46 35-46 75s5 74 45 74" id="t"/><path d="M84 4C-5 8 30-112 23-190h32v120c0 31 7 50 39 49 72-2 45-101 50-169h31l1 190h-30c-1-10 1-25-2-33-11 22-28 36-60 37" id="u"/><path d="M135-143c-3-34-86-38-87 0 15 53 115 12 119 90S17 21 10-45l28-5c4 36 97 45 98 0-10-56-113-15-118-90-4-57 82-63 122-42 12 7 21 19 24 35" id="v"/><path d="M59-47c-2 24 18 29 38 22v24C64 9 27 4 27-40v-127H5v-23h24l9-43h21v43h35v23H59v120" id="w"/><g id="a"><use transform="matrix(0.05,0,0,0.05,0,0)" xlink:href="#n"/><use transform="matrix(0.05,0,0,0.05,5,0)" xlink:href="#o"/><use transform="matrix(0.05,0,0,0.05,17,0)" xlink:href="#p"/><use transform="matrix(0.05,0,0,0.05,29,0)" xlink:href="#q"/><use transform="matrix(0.05,0,0,0.05,34,0)" xlink:href="#r"/><use transform="matrix(0.05,0,0,0.05,46.95,0)" xlink:href="#s"/><use transform="matrix(0.05,0,0,0.05,56.95,0)" xlink:href="#t"/><use transform="matrix(0.05,0,0,0.05,66.95,0)" xlink:href="#u"/><use transform="matrix(0.05,0,0,0.05,76.95,0)" xlink:href="#s"/><use transform="matrix(0.05,0,0,0.05,86.95,0)" xlink:href="#v"/><use transform="matrix(0.05,0,0,0.05,95.95,0)" xlink:href="#w"/><use transform="matrix(0.05,0,0,0.05,100.95,0)" xlink:href="#v"/><path d="M-.9 1.25h111.75v1.32H-.9z"/></g><path d="M30 0v-248h187v28H63v79h144v27H63v87h162V0H30" id="x"/><path d="M141 0L90-78 38 0H4l68-98-65-92h35l48 74 47-74h35l-64 92 68 98h-35" id="y"/><path d="M115-194c55 1 70 41 70 98S169 2 115 4C84 4 66-9 55-30l1 105H24l-1-265h31l2 30c10-21 28-34 59-34zm-8 174c40 0 45-34 45-75s-6-73-45-74c-42 0-51 32-51 76 0 43 10 73 51 73" id="z"/><path d="M114-163C36-179 61-72 57 0H25l-1-190h30c1 12-1 29 2 39 6-27 23-49 58-41v29" id="A"/><path d="M24-231v-30h32v30H24zM24 0v-190h32V0H24" id="B"/><path d="M210-169c-67 3-38 105-44 169h-31v-121c0-29-5-50-35-48C34-165 62-65 56 0H25l-1-190h30c1 10-1 24 2 32 10-44 99-50 107 0 11-21 27-35 58-36 85-2 47 119 55 194h-31v-121c0-29-5-49-35-48" id="C"/><path d="M117-194c89-4 53 116 60 194h-32v-121c0-31-8-49-39-48C34-167 62-67 57 0H25l-1-190h30c1 10-1 24 2 32 11-22 29-35 61-36" id="D"/><g id="b"><use transform="matrix(0.05,0,0,0.05,0,0)" xlink:href="#n"/><use transform="matrix(0.05,0,0,0.05,5,0)" xlink:href="#x"/><use transform="matrix(0.05,0,0,0.05,17,0)" xlink:href="#y"/><use transform="matrix(0.05,0,0,0.05,26,0)" xlink:href="#z"/><use transform="matrix(0.05,0,0,0.05,36,0)" xlink:href="#s"/><use transform="matrix(0.05,0,0,0.05,46,0)" xlink:href="#A"/><use transform="matrix(0.05,0,0,0.05,51.95,0)" xlink:href="#B"/><use transform="matrix(0.05,0,0,0.05,55.900000000000006,0)" xlink:href="#C"/><use transform="matrix(0.05,0,0,0.05,70.85000000000001,0)" xlink:href="#s"/><use transform="matrix(0.05,0,0,0.05,80.85000000000001,0)" xlink:href="#D"/><use transform="matrix(0.05,0,0,0.05,90.85000000000001,0)" xlink:href="#w"/><use transform="matrix(0.05,0,0,0.05,95.85000000000001,0)" xlink:href="#o"/><use transform="matrix(0.05,0,0,0.05,107.85000000000001,0)" xlink:href="#p"/><use transform="matrix(0.05,0,0,0.05,119.85000000000001,0)" xlink:href="#q"/><path d="M-.9 1.25h126.65v1.32H-.9z"/></g><path d="M100-194c62-1 85 37 85 99 1 63-27 99-86 99S16-35 15-95c0-66 28-99 85-99zM99-20c44 1 53-31 53-75 0-43-8-75-51-75s-53 32-53 75 10 74 51 75" id="E"/><path d="M143 4C61 4 22-44 18-125c-5-107 100-154 193-111 17 8 29 25 37 43l-32 9c-13-25-37-40-76-40-61 0-88 39-88 99 0 61 29 100 91 101 35 0 62-11 79-27v-45h-74v-28h105v86C228-13 192 4 143 4" id="F"/><path d="M85-194c31 0 48 13 60 33l-1-100h32l1 261h-30c-2-10 0-23-3-31C134-8 116 4 85 4 32 4 16-35 15-94c0-66 23-100 70-100zm9 24c-40 0-46 34-46 75 0 40 6 74 45 74 42 0 51-32 51-76 0-42-9-74-50-73" id="G"/><path d="M127-220V0H93v-220H8v-28h204v28h-85" id="H"/><path d="M106-169C34-169 62-67 57 0H25v-261h32l-1 103c12-21 28-36 61-36 89 0 53 116 60 194h-32v-121c2-32-8-49-39-48" id="I"/><path d="M232-93c-1 65-40 97-104 97C67 4 28-28 28-90v-158h33c8 89-33 224 67 224 102 0 64-133 71-224h33v155" id="J"/><path d="M24 0v-261h32V0H24" id="K"/><path d="M141-36C126-15 110 5 73 4 37 3 15-17 15-53c-1-64 63-63 125-63 3-35-9-54-41-54-24 1-41 7-42 31l-33-3c5-37 33-52 76-52 45 0 72 20 72 64v82c-1 20 7 32 28 27v20c-31 9-61-2-59-35zM48-53c0 20 12 33 32 33 41-3 63-29 60-74-43 2-92-5-92 41" id="L"/><path d="M87 75C49 33 22-17 22-94c0-76 28-126 65-167h31c-38 41-64 92-64 168S80 34 118 75H87" id="M"/><path d="M101-234c-31-9-42 10-38 44h38v23H63V0H32v-167H5v-23h27c-7-52 17-82 69-68v24" id="N"/><path d="M33-261c38 41 65 92 65 168S71 34 33 75H2C39 34 66-17 66-93S39-220 2-261h31" id="O"/><g id="c"><use transform="matrix(0.05,0,0,0.05,0,0)" xlink:href="#E"/><use transform="matrix(0.05,0,0,0.05,10,0)" xlink:href="#D"/><use transform="matrix(0.05,0,0,0.05,20,0)" xlink:href="#F"/><use transform="matrix(0.05,0,0,0.05,34,0)" xlink:href="#A"/><use transform="matrix(0.05,0,0,0.05,39.95,0)" xlink:href="#E"/><use transform="matrix(0.05,0,0,0.05,49.95,0)" xlink:href="#u"/><use transform="matrix(0.05,0,0,0.05,59.95,0)" xlink:href="#D"/><use transform="matrix(0.05,0,0,0.05,69.95,0)" xlink:href="#G"/><use transform="matrix(0.05,0,0,0.05,79.95,0)" xlink:href="#H"/><use transform="matrix(0.05,0,0,0.05,90.25,0)" xlink:href="#A"/><use transform="matrix(0.05,0,0,0.05,96.2,0)" xlink:href="#u"/><use transform="matrix(0.05,0,0,0.05,106.2,0)" xlink:href="#w"/><use transform="matrix(0.05,0,0,0.05,111.2,0)" xlink:href="#I"/><use transform="matrix(0.05,0,0,0.05,121.2,0)" xlink:href="#J"/><use transform="matrix(0.05,0,0,0.05,134.15,0)" xlink:href="#z"/><use transform="matrix(0.05,0,0,0.05,144.15,0)" xlink:href="#K"/><use transform="matrix(0.05,0,0,0.05,148.1,0)" xlink:href="#E"/><use transform="matrix(0.05,0,0,0.05,158.1,0)" xlink:href="#L"/><use transform="matrix(0.05,0,0,0.05,168.1,0)" xlink:href="#G"/><use transform="matrix(0.05,0,0,0.05,178.1,0)" xlink:href="#M"/><use transform="matrix(0.05,0,0,0.05,184.04999999999998,0)" xlink:href="#N"/><use transform="matrix(0.05,0,0,0.05,189.04999999999998,0)" xlink:href="#B"/><use transform="matrix(0.05,0,0,0.05,192.99999999999997,0)" xlink:href="#K"/><use transform="matrix(0.05,0,0,0.05,196.94999999999996,0)" xlink:href="#s"/><use transform="matrix(0.05,0,0,0.05,206.94999999999996,0)" xlink:href="#O"/></g><path d="M0 4l72-265h28L28 4H0" id="P"/><path d="M108 0H70L1-190h34L89-25l56-165h34" id="Q"/><path d="M16-82v-28h88v28H16" id="R"/><path d="M177-190C167-65 218 103 67 71c-23-6-38-20-44-43l32-5c15 47 100 32 89-28v-30C133-14 115 1 83 1 29 1 15-40 15-95c0-56 16-97 71-98 29-1 48 16 59 35 1-10 0-23 2-32h30zM94-22c36 0 50-32 50-73 0-42-14-75-50-75-39 0-46 34-46 75s6 73 46 73" id="S"/><g id="d"><use transform="matrix(0.05,0,0,0.05,0,0)" xlink:href="#P"/><use transform="matrix(0.05,0,0,0.05,5,0)" xlink:href="#s"/><use transform="matrix(0.05,0,0,0.05,15,0)" xlink:href="#y"/><use transform="matrix(0.05,0,0,0.05,24,0)" xlink:href="#z"/><use transform="matrix(0.05,0,0,0.05,34,0)" xlink:href="#s"/><use transform="matrix(0.05,0,0,0.05,44,0)" xlink:href="#A"/><use transform="matrix(0.05,0,0,0.05,49.95,0)" xlink:href="#B"/><use transform="matrix(0.05,0,0,0.05,53.900000000000006,0)" xlink:href="#C"/><use transform="matrix(0.05,0,0,0.05,68.85000000000001,0)" xlink:href="#s"/><use transform="matrix(0.05,0,0,0.05,78.85000000000001,0)" xlink:href="#D"/><use transform="matrix(0.05,0,0,0.05,88.85000000000001,0)" xlink:href="#w"/><use transform="matrix(0.05,0,0,0.05,93.85000000000001,0)" xlink:href="#P"/><use transform="matrix(0.05,0,0,0.05,98.85000000000001,0)" xlink:href="#Q"/><use transform="matrix(0.05,0,0,0.05,107.85000000000001,0)" xlink:href="#L"/><use transform="matrix(0.05,0,0,0.05,117.85000000000001,0)" xlink:href="#K"/><use transform="matrix(0.05,0,0,0.05,121.80000000000001,0)" xlink:href="#B"/><use transform="matrix(0.05,0,0,0.05,125.75,0)" xlink:href="#G"/><use transform="matrix(0.05,0,0,0.05,135.75,0)" xlink:href="#L"/><use transform="matrix(0.05,0,0,0.05,145.75,0)" xlink:href="#w"/><use transform="matrix(0.05,0,0,0.05,150.75,0)" xlink:href="#s"/><use transform="matrix(0.05,0,0,0.05,160.75,0)" xlink:href="#R"/><use transform="matrix(0.05,0,0,0.05,166.7,0)" xlink:href="#S"/><use transform="matrix(0.05,0,0,0.05,176.7,0)" xlink:href="#A"/><use transform="matrix(0.05,0,0,0.05,182.64999999999998,0)" xlink:href="#E"/><use transform="matrix(0.05,0,0,0.05,192.64999999999998,0)" xlink:href="#u"/><use transform="matrix(0.05,0,0,0.05,202.64999999999998,0)" xlink:href="#D"/><use transform="matrix(0.05,0,0,0.05,212.64999999999998,0)" xlink:href="#G"/><use transform="matrix(0.05,0,0,0.05,222.64999999999998,0)" xlink:href="#R"/><use transform="matrix(0.05,0,0,0.05,228.59999999999997,0)" xlink:href="#w"/><use transform="matrix(0.05,0,0,0.05,233.59999999999997,0)" xlink:href="#A"/><use transform="matrix(0.05,0,0,0.05,239.54999999999995,0)" xlink:href="#u"/><use transform="matrix(0.05,0,0,0.05,249.54999999999995,0)" xlink:href="#w"/><use transform="matrix(0.05,0,0,0.05,254.54999999999995,0)" xlink:href="#I"/><use transform="matrix(0.05,0,0,0.05,264.54999999999995,0)" xlink:href="#M"/><use transform="matrix(0.05,0,0,0.05,270.49999999999994,0)" xlink:href="#N"/><use transform="matrix(0.05,0,0,0.05,275.49999999999994,0)" xlink:href="#B"/><use transform="matrix(0.05,0,0,0.05,279.44999999999993,0)" xlink:href="#K"/><use transform="matrix(0.05,0,0,0.05,283.3999999999999,0)" xlink:href="#s"/><use transform="matrix(0.05,0,0,0.05,293.3999999999999,0)" xlink:href="#O"/></g><g id="e"><use transform="matrix(0.05,0,0,0.05,0,0)" xlink:href="#I"/><use transform="matrix(0.05,0,0,0.05,10,0)" xlink:href="#w"/><use transform="matrix(0.05,0,0,0.05,15,0)" xlink:href="#w"/><use transform="matrix(0.05,0,0,0.05,20,0)" xlink:href="#z"/><use transform="matrix(0.05,0,0,0.05,30,0)" xlink:href="#r"/><use transform="matrix(0.05,0,0,0.05,42.95,0)" xlink:href="#s"/><use transform="matrix(0.05,0,0,0.05,52.95,0)" xlink:href="#v"/><use transform="matrix(0.05,0,0,0.05,61.95,0)" xlink:href="#z"/><use transform="matrix(0.05,0,0,0.05,71.95,0)" xlink:href="#E"/><use transform="matrix(0.05,0,0,0.05,81.95,0)" xlink:href="#D"/><use transform="matrix(0.05,0,0,0.05,91.95,0)" xlink:href="#v"/><use transform="matrix(0.05,0,0,0.05,100.95,0)" xlink:href="#s"/><use transform="matrix(0.05,0,0,0.05,110.95,0)" xlink:href="#M"/><use transform="matrix(0.05,0,0,0.05,116.9,0)" xlink:href="#Q"/><use transform="matrix(0.05,0,0,0.05,125.9,0)" xlink:href="#L"/><use transform="matrix(0.05,0,0,0.05,135.9,0)" xlink:href="#K"/><use transform="matrix(0.05,0,0,0.05,139.85,0)" xlink:href="#B"/><use transform="matrix(0.05,0,0,0.05,143.79999999999998,0)" xlink:href="#G"/></g><path d="M18-150v-26h174v26H18zm0 90v-26h174v26H18" id="T"/><use transform="matrix(0.05,0,0,0.05,0,0)" xlink:href="#T" id="f"/><path d="M68-38c1 34 0 65-14 84H32c9-13 17-26 17-46H33v-38h35" id="U"/><g id="g"><use transform="matrix(0.05,0,0,0.05,0,0)" xlink:href="#N"/><use transform="matrix(0.05,0,0,0.05,5,0)" xlink:href="#L"/><use transform="matrix(0.05,0,0,0.05,15,0)" xlink:href="#K"/><use transform="matrix(0.05,0,0,0.05,18.95,0)" xlink:href="#v"/><use transform="matrix(0.05,0,0,0.05,27.950000000000003,0)" xlink:href="#s"/><use transform="matrix(0.05,0,0,0.05,37.95,0)" xlink:href="#U"/></g><path d="M155-56V0h-30v-56H8v-25l114-167h33v167h35v25h-35zm-30-156c-27 46-58 90-88 131h88v-131" id="V"/><path d="M101-251c68 0 85 55 85 127S166 4 100 4C33 4 14-52 14-124c0-73 17-127 87-127zm-1 229c47 0 54-49 54-102s-4-102-53-102c-51 0-55 48-55 102 0 53 5 102 54 102" id="W"/><g id="h"><use transform="matrix(0.05,0,0,0.05,0,0)" xlink:href="#V"/><use transform="matrix(0.05,0,0,0.05,10,0)" xlink:href="#W"/><use transform="matrix(0.05,0,0,0.05,20,0)" xlink:href="#W"/><use transform="matrix(0.05,0,0,0.05,30,0)" xlink:href="#O"/></g><path d="M63-220v92h138v28H63V0H30v-248h175v28H63" id="X"/><g id="i"><use transform="matrix(0.05,0,0,0.05,0,0)" xlink:href="#n"/><use transform="matrix(0.05,0,0,0.05,5,0)" xlink:href="#F"/><use transform="matrix(0.05,0,0,0.05,19,0)" xlink:href="#A"/><use transform="matrix(0.05,0,0,0.05,24.95,0)" xlink:href="#E"/><use transform="matrix(0.05,0,0,0.05,34.95,0)" xlink:href="#u"/><use transform="matrix(0.05,0,0,0.05,44.95,0)" xlink:href="#D"/><use transform="matrix(0.05,0,0,0.05,54.95,0)" xlink:href="#G"/><use transform="matrix(0.05,0,0,0.05,64.95,0)" xlink:href="#H"/><use transform="matrix(0.05,0,0,0.05,75.25,0)" xlink:href="#A"/><use transform="matrix(0.05,0,0,0.05,81.2,0)" xlink:href="#u"/><use transform="matrix(0.05,0,0,0.05,91.2,0)" xlink:href="#w"/><use transform="matrix(0.05,0,0,0.05,96.2,0)" xlink:href="#I"/><use transform="matrix(0.05,0,0,0.05,106.2,0)" xlink:href="#X"/><use transform="matrix(0.05,0,0,0.05,117.15,0)" xlink:href="#q"/><use transform="matrix(0.05,0,0,0.05,122.15,0)" xlink:href="#K"/><use transform="matrix(0.05,0,0,0.05,126.10000000000001,0)" xlink:href="#s"/><use transform="matrix(0.05,0,0,0.05,136.10000000000002,0)" xlink:href="#p"/><use transform="matrix(0.05,0,0,0.05,148.10000000000002,0)" xlink:href="#L"/><use transform="matrix(0.05,0,0,0.05,158.10000000000002,0)" xlink:href="#A"/><use transform="matrix(0.05,0,0,0.05,164.05,0)" xlink:href="#v"/><use transform="matrix(0.05,0,0,0.05,173.05,0)" xlink:href="#s"/><use transform="matrix(0.05,0,0,0.05,183.05,0)" xlink:href="#A"/><path d="M-.9 1.25h190.8v1.32H-.9z"/></g><g id="j"><use transform="matrix(0.05,0,0,0.05,0,0)" xlink:href="#z"/><use transform="matrix(0.05,0,0,0.05,10,0)" xlink:href="#L"/><use transform="matrix(0.05,0,0,0.05,20,0)" xlink:href="#A"/><use transform="matrix(0.05,0,0,0.05,25.950000000000003,0)" xlink:href="#v"/><use transform="matrix(0.05,0,0,0.05,34.95,0)" xlink:href="#s"/><use transform="matrix(0.05,0,0,0.05,44.95,0)" xlink:href="#M"/><use transform="matrix(0.05,0,0,0.05,50.900000000000006,0)" xlink:href="#N"/><use transform="matrix(0.05,0,0,0.05,55.900000000000006,0)" xlink:href="#B"/><use transform="matrix(0.05,0,0,0.05,59.85,0)" xlink:href="#K"/><use transform="matrix(0.05,0,0,0.05,63.80000000000001,0)" xlink:href="#s"/><use transform="matrix(0.05,0,0,0.05,73.80000000000001,0)" xlink:href="#O"/></g><g id="k"><use transform="matrix(0.05,0,0,0.05,0,0)" xlink:href="#S"/><use transform="matrix(0.05,0,0,0.05,10,0)" xlink:href="#A"/><use transform="matrix(0.05,0,0,0.05,15.949999999999998,0)" xlink:href="#E"/><use transform="matrix(0.05,0,0,0.05,25.950000000000003,0)" xlink:href="#u"/><use transform="matrix(0.05,0,0,0.05,35.95,0)" xlink:href="#D"/><use transform="matrix(0.05,0,0,0.05,45.95,0)" xlink:href="#G"/><use transform="matrix(0.05,0,0,0.05,55.95,0)" xlink:href="#H"/><use transform="matrix(0.05,0,0,0.05,66.25,0)" xlink:href="#A"/><use transform="matrix(0.05,0,0,0.05,72.2,0)" xlink:href="#u"/><use transform="matrix(0.05,0,0,0.05,82.2,0)" xlink:href="#w"/><use transform="matrix(0.05,0,0,0.05,87.2,0)" xlink:href="#I"/></g><path d="M212-179c-10-28-35-45-73-45-59 0-87 40-87 99 0 60 29 101 89 101 43 0 62-24 78-52l27 14C228-24 195 4 139 4 59 4 22-46 18-125c-6-104 99-153 187-111 19 9 31 26 39 46" id="Y"/><path d="M137 0h-34L2-248h35l83 218 83-218h36" id="Z"/><path d="M206 0h-36l-40-164L89 0H53L-1-190h32L70-26l43-164h34l41 164 42-164h31" id="aa"/><g id="l"><use transform="matrix(0.05,0,0,0.05,0,0)" xlink:href="#n"/><use transform="matrix(0.05,0,0,0.05,5,0)" xlink:href="#Y"/><use transform="matrix(0.05,0,0,0.05,17.950000000000003,0)" xlink:href="#A"/><use transform="matrix(0.05,0,0,0.05,23.900000000000002,0)" xlink:href="#s"/><use transform="matrix(0.05,0,0,0.05,33.900000000000006,0)" xlink:href="#L"/><use transform="matrix(0.05,0,0,0.05,43.900000000000006,0)" xlink:href="#w"/><use transform="matrix(0.05,0,0,0.05,48.900000000000006,0)" xlink:href="#s"/><use transform="matrix(0.05,0,0,0.05,58.900000000000006,0)" xlink:href="#x"/><use transform="matrix(0.05,0,0,0.05,70.9,0)" xlink:href="#y"/><use transform="matrix(0.05,0,0,0.05,79.9,0)" xlink:href="#z"/><use transform="matrix(0.05,0,0,0.05,89.9,0)" xlink:href="#s"/><use transform="matrix(0.05,0,0,0.05,99.9,0)" xlink:href="#A"/><use transform="matrix(0.05,0,0,0.05,105.85000000000001,0)" xlink:href="#B"/><use transform="matrix(0.05,0,0,0.05,109.80000000000001,0)" xlink:href="#C"/><use transform="matrix(0.05,0,0,0.05,124.75,0)" xlink:href="#s"/><use transform="matrix(0.05,0,0,0.05,134.75,0)" xlink:href="#D"/><use transform="matrix(0.05,0,0,0.05,144.75,0)" xlink:href="#w"/><use transform="matrix(0.05,0,0,0.05,149.75,0)" xlink:href="#Z"/><use transform="matrix(0.05,0,0,0.05,161.4,0)" xlink:href="#B"/><use transform="matrix(0.05,0,0,0.05,165.35,0)" xlink:href="#s"/><use transform="matrix(0.05,0,0,0.05,175.35,0)" xlink:href="#aa"/><path d="M-.9 1.25h190.1v1.32H-.9z"/></g><g id="m"><use transform="matrix(0.05,0,0,0.05,0,0)" xlink:href="#v"/><use transform="matrix(0.05,0,0,0.05,9,0)" xlink:href="#s"/><use transform="matrix(0.05,0,0,0.05,19,0)" xlink:href="#D"/><use transform="matrix(0.05,0,0,0.05,29,0)" xlink:href="#G"/><use transform="matrix(0.05,0,0,0.05,39,0)" xlink:href="#F"/><use transform="matrix(0.05,0,0,0.05,53,0)" xlink:href="#A"/><use transform="matrix(0.05,0,0,0.05,58.95,0)" xlink:href="#E"/><use transform="matrix(0.05,0,0,0.05,68.95,0)" xlink:href="#u"/><use transform="matrix(0.05,0,0,0.05,78.95,0)" xlink:href="#D"/><use transform="matrix(0.05,0,0,0.05,88.95,0)" xlink:href="#G"/><use transform="matrix(0.05,0,0,0.05,98.95,0)" xlink:href="#H"/><use transform="matrix(0.05,0,0,0.05,109.25,0)" xlink:href="#A"/><use transform="matrix(0.05,0,0,0.05,115.2,0)" xlink:href="#u"/><use transform="matrix(0.05,0,0,0.05,125.2,0)" xlink:href="#w"/><use transform="matrix(0.05,0,0,0.05,130.2,0)" xlink:href="#I"/><use transform="matrix(0.05,0,0,0.05,140.2,0)" xlink:href="#M"/><use transform="matrix(0.05,0,0,0.05,146.14999999999998,0)" xlink:href="#N"/><use transform="matrix(0.05,0,0,0.05,151.14999999999998,0)" xlink:href="#B"/><use transform="matrix(0.05,0,0,0.05,155.09999999999997,0)" xlink:href="#K"/><use transform="matrix(0.05,0,0,0.05,159.04999999999995,0)" xlink:href="#s"/><use transform="matrix(0.05,0,0,0.05,169.04999999999995,0)" xlink:href="#O"/></g></defs></g></svg>