<svg xmlns="http://www.w3.org/2000/svg" xmlns:xlink="http://www.w3.org/1999/xlink" xmlns:lucid="lucid" width="1303.85" height="367"><g transform="translate(490.92622184091033 -443.5)" lucid:page-tab-id="vPHms2bTQKVA"><path d="M-23.93 467.04h160v120h-160z" stroke="#333" stroke-width="2" fill="#fff"/><use xlink:href="#a" transform="matrix(1,0,0,1,-23.92622184091033,467.0444043765883) translate(25.029999999999994 63.15)"/><path d="M56.06 589.04l-.32 21.85m-.33 21.84l-.3 21.85" stroke="#3a414a" stroke-width="2" fill="none"/><path d="M57.06 589.1l-2-.05v-1h2z" stroke="#3a414a" stroke-width=".05" fill="#3a414a"/><path d="M55.1 654.56l-.03 1.03" stroke="#3a414a" stroke-width="2" fill="none"/><path d="M372.93 467.04h160v120h-160z" stroke="#333" stroke-width="2" fill="#fff"/><use xlink:href="#b" transform="matrix(1,0,0,1,372.9262218409094,467.0444043765883) translate(17.57999999999999 63.15)"/><path d="M447.3 589.04v27.34m0 27.33v27.34" stroke="#3a414a" stroke-width="2" fill="none"/><path d="M448.3 589.07h-2v-1.03h2z" stroke="#3a414a" stroke-width=".05" fill="#3a414a"/><path d="M447.3 671.02v1.02" stroke="#3a414a" stroke-width="2" fill="none"/><path d="M35.07 656.6h40v120h-40z" stroke="#333" stroke-width="2" fill="#fff"/><path d="M77.07 695.04H427.3" stroke="#3a414a" stroke-width="2" fill="none"/><path d="M77.1 696.04h-1.03v-2h1.03z" stroke="#3a414a" stroke-width=".05" fill="#3a414a"/><path d="M409.94 705.22l17.22-10.18-17.22-10.18" stroke="#3a414a" stroke-width="2" fill="none"/><use xlink:href="#c" transform="matrix(1,0,0,1,124.84732023592508,669.4381863751354) translate(0 14.4)"/><path d="M430.12 676.6h40v80h-40z" stroke="#333" stroke-width="2" fill="#fff"/><path d="M428.12 745.92h-9.73m-9.74 0H389.2m-9.72 0h-19.46m-9.73 0h-19.47m-9.72 0h-19.45m-9.73 0h-19.46m-9.72 0h-19.46m-9.73 0H214.1m-9.74 0H184.9m-9.72 0h-19.46m-9.73 0h-19.47m-9.72 0H97.36m-9.73 0H77.9" stroke="#3a414a" stroke-width="2" fill="none"/><path d="M429.12 746.92h-1.02v-2h1.02z" stroke="#3a414a" stroke-width=".05" fill="#3a414a"/><path d="M95.25 735.74l-17.2 10.18 17.2 10.18" stroke="#3a414a" stroke-width="2" fill="none"/><use xlink:href="#d" transform="matrix(1,0,0,1,123.49732023592506,749.9221420865088) translate(0 14.4)"/><use xlink:href="#e" transform="matrix(1,0,0,1,123.49732023592506,749.9221420865088) translate(158.79999999999998 14.4)"/><use xlink:href="#f" transform="matrix(1,0,0,1,123.49732023592506,749.9221420865088) translate(174.29999999999998 14.4)"/><use xlink:href="#g" transform="matrix(1,0,0,1,123.49732023592506,749.9221420865088) translate(222.25 14.4)"/><path d="M612.93 466.5h180v120h-180z" stroke="#333" stroke-width="2" fill="#fff"/><use xlink:href="#h" transform="matrix(1,0,0,1,612.9262218409094,466.5) translate(11.605000000000013 63.15)"/><path d="M696.58 588.5V617m0 28.53v28.5" stroke="#3a414a" stroke-width="2" fill="none"/><path d="M697.58 588.53h-2v-1.03h2zM697.58 675.04h-2v-1.02h2z" stroke="#3a414a" stroke-width=".05" fill="#3a414a"/><path d="M679.42 676.04h40v80h-40z" stroke="#333" stroke-width="2" fill="#fff"/><path d="M472.12 697.38h187.8" stroke="#3a414a" stroke-width="2" fill="none"/><path d="M472.15 698.38h-1.03v-2h1.03z" stroke="#3a414a" stroke-width=".05" fill="#3a414a"/><path d="M675.18 697.38L660.9 702v-9.26z" stroke="#3a414a" stroke-width="2" fill="#3a414a"/><use xlink:href="#i" transform="matrix(1,0,0,1,534.8934186309407,671.7777377099242) translate(0 14.4)"/><path d="M677.42 746.7h-10.44m-10.43 0h-20.87m-10.43 0h-20.87m-10.43 0H573.1m-10.45 0H541.8m-10.44 0H510.5m-10.44 0h-10.44" stroke="#3a414a" stroke-width="2" fill="none"/><path d="M678.42 747.7h-1.03v-2h1.02z" stroke="#3a414a" stroke-width=".05" fill="#3a414a"/><path d="M474.36 746.7l14.26-4.62v9.27z" stroke="#3a414a" stroke-width="2" fill="#3a414a"/><use xlink:href="#j" transform="matrix(1,0,0,1,532.3684186309407,750.7110710432572) translate(0 14.4)"/><path d="M-478.93 668.46h217M-478.9 668.46h-1.03" stroke="#3a414a" stroke-width="2" fill="none"/><path d="M-246.66 668.46l-14.27 4.63v-9.28z" stroke="#3a414a" stroke-width="2" fill="#3a414a"/><use xlink:href="#k" transform="matrix(1,0,0,1,-448.5012218409103,642.8564944633881) translate(0 14.4)"/><path d="M-222.43 589.6v25.32m0 25.34v25.33M-222.43 589.6v-1M-222.43 665.56v1.03" stroke="#3a414a" stroke-width="2" fill="none"/><path d="M-242.43 656.63h40v40.5h-40z" stroke="#333" stroke-width="2" fill="#fff"/><path d="M-200.43 682.77h216" stroke="#3a414a" stroke-width="2" fill="none"/><path d="M-200.4 683.77h-1.03v-2h1.03z" stroke="#3a414a" stroke-width=".05" fill="#3a414a"/><path d="M30.84 682.77l-14.27 4.63v-9.27z" stroke="#3a414a" stroke-width="2" fill="#3a414a"/><use xlink:href="#l" transform="matrix(1,0,0,1,-151.55122184091033,657.1683290353772) translate(0 14.4)"/><path d="M-340.1 463.5h235.35v120H-340.1z" stroke="#333" stroke-width="2" fill="#fff"/><use xlink:href="#m" transform="matrix(1,0,0,1,-340.1024436818225,463.5) translate(23.35500000000001 63.15)"/><path d="M-222.43 699.13v11.04m0 11.05v22.08m0 11.04v22.08m0 11.04v11.04" stroke="#3a414a" stroke-width="2" fill="none"/><path d="M-221.43 699.16h-2v-1.03h2z" stroke="#3a414a" stroke-width=".05" fill="#3a414a"/><path d="M-222.43 798.47v1.03" stroke="#3a414a" stroke-width="2" fill="none"/><use xlink:href="#n" transform="matrix(1,0,0,1,-214.4262218409103,738.0166065648825) translate(0 14.4)"/><path d="M699.42 758.04v13.5m0 13.48v13.48" stroke="#3a414a" stroke-width="2" fill="none"/><path d="M700.42 758.07h-2v-1.03h2z" stroke="#3a414a" stroke-width=".05" fill="#3a414a"/><path d="M699.42 798.47v1.03M450.12 758.6v13.3m0 13.3v13.3" stroke="#3a414a" stroke-width="2" fill="none"/><path d="M451.12 758.6h-2v-1h2z" stroke="#3a414a" stroke-width=".05" fill="#3a414a"/><path d="M450.12 798.47v1.03" stroke="#3a414a" stroke-width="2" fill="none"/><defs><path d="M33-154v-36h34v36H33zM33 0v-36h34V0H33" id="o"/><path d="M205 0l-28-72H64L36 0H1l101-248h38L239 0h-34zm-38-99l-47-123c-12 45-31 82-46 123h93" id="p"/><path d="M30-248c87 1 191-15 191 75 0 78-77 80-158 76V0H30v-248zm33 125c57 0 124 11 124-50 0-59-68-47-124-48v98" id="q"/><path d="M33 0v-248h34V0H33" id="r"/><path d="M233-177c-1 41-23 64-60 70L243 0h-38l-65-103H63V0H30v-248c88 3 205-21 203 71zM63-129c60-2 137 13 137-47 0-61-80-42-137-45v92" id="s"/><path d="M100-194c63 0 86 42 84 106H49c0 40 14 67 53 68 26 1 43-12 49-29l28 8c-11 28-37 45-77 45C44 4 14-33 15-96c1-61 26-98 85-98zm52 81c6-60-76-77-97-28-3 7-6 17-6 28h103" id="t"/><path d="M145-31C134-9 116 4 85 4 32 4 16-35 15-94c0-59 17-99 70-100 32-1 48 14 60 33 0-11-1-24 2-32h30l-1 268h-32zM93-21c41 0 51-33 51-76s-8-73-50-73c-40 0-46 35-46 75s5 74 45 74" id="u"/><path d="M84 4C-5 8 30-112 23-190h32v120c0 31 7 50 39 49 72-2 45-101 50-169h31l1 190h-30c-1-10 1-25-2-33-11 22-28 36-60 37" id="v"/><path d="M135-143c-3-34-86-38-87 0 15 53 115 12 119 90S17 21 10-45l28-5c4 36 97 45 98 0-10-56-113-15-118-90-4-57 82-63 122-42 12 7 21 19 24 35" id="w"/><path d="M59-47c-2 24 18 29 38 22v24C64 9 27 4 27-40v-127H5v-23h24l9-43h21v43h35v23H59v120" id="x"/><g id="a"><use transform="matrix(0.05,0,0,0.05,0,0)" xlink:href="#o"/><use transform="matrix(0.05,0,0,0.05,5,0)" xlink:href="#p"/><use transform="matrix(0.05,0,0,0.05,17,0)" xlink:href="#q"/><use transform="matrix(0.05,0,0,0.05,29,0)" xlink:href="#r"/><use transform="matrix(0.05,0,0,0.05,34,0)" xlink:href="#s"/><use transform="matrix(0.05,0,0,0.05,46.95,0)" xlink:href="#t"/><use transform="matrix(0.05,0,0,0.05,56.95,0)" xlink:href="#u"/><use transform="matrix(0.05,0,0,0.05,66.95,0)" xlink:href="#v"/><use transform="matrix(0.05,0,0,0.05,76.95,0)" xlink:href="#t"/><use transform="matrix(0.05,0,0,0.05,86.95,0)" xlink:href="#w"/><use transform="matrix(0.05,0,0,0.05,95.95,0)" xlink:href="#x"/><use transform="matrix(0.05,0,0,0.05,100.95,0)" xlink:href="#w"/><path d="M-.9 1.25h111.75v1.32H-.9z"/></g><path d="M30 0v-248h187v28H63v79h144v27H63v87h162V0H30" id="y"/><path d="M141 0L90-78 38 0H4l68-98-65-92h35l48 74 47-74h35l-64 92 68 98h-35" id="z"/><path d="M115-194c55 1 70 41 70 98S169 2 115 4C84 4 66-9 55-30l1 105H24l-1-265h31l2 30c10-21 28-34 59-34zm-8 174c40 0 45-34 45-75s-6-73-45-74c-42 0-51 32-51 76 0 43 10 73 51 73" id="A"/><path d="M114-163C36-179 61-72 57 0H25l-1-190h30c1 12-1 29 2 39 6-27 23-49 58-41v29" id="B"/><path d="M24-231v-30h32v30H24zM24 0v-190h32V0H24" id="C"/><path d="M210-169c-67 3-38 105-44 169h-31v-121c0-29-5-50-35-48C34-165 62-65 56 0H25l-1-190h30c1 10-1 24 2 32 10-44 99-50 107 0 11-21 27-35 58-36 85-2 47 119 55 194h-31v-121c0-29-5-49-35-48" id="D"/><path d="M117-194c89-4 53 116 60 194h-32v-121c0-31-8-49-39-48C34-167 62-67 57 0H25l-1-190h30c1 10-1 24 2 32 11-22 29-35 61-36" id="E"/><g id="b"><use transform="matrix(0.05,0,0,0.05,0,0)" xlink:href="#o"/><use transform="matrix(0.05,0,0,0.05,5,0)" xlink:href="#y"/><use transform="matrix(0.05,0,0,0.05,17,0)" xlink:href="#z"/><use transform="matrix(0.05,0,0,0.05,26,0)" xlink:href="#A"/><use transform="matrix(0.05,0,0,0.05,36,0)" xlink:href="#t"/><use transform="matrix(0.05,0,0,0.05,46,0)" xlink:href="#B"/><use transform="matrix(0.05,0,0,0.05,51.95,0)" xlink:href="#C"/><use transform="matrix(0.05,0,0,0.05,55.900000000000006,0)" xlink:href="#D"/><use transform="matrix(0.05,0,0,0.05,70.85000000000001,0)" xlink:href="#t"/><use transform="matrix(0.05,0,0,0.05,80.85000000000001,0)" xlink:href="#E"/><use transform="matrix(0.05,0,0,0.05,90.85000000000001,0)" xlink:href="#x"/><use transform="matrix(0.05,0,0,0.05,95.85000000000001,0)" xlink:href="#p"/><use transform="matrix(0.05,0,0,0.05,107.85000000000001,0)" xlink:href="#q"/><use transform="matrix(0.05,0,0,0.05,119.85000000000001,0)" xlink:href="#r"/><path d="M-.9 1.25h126.65v1.32H-.9z"/></g><path d="M0 4l72-265h28L28 4H0" id="F"/><path d="M108 0H70L1-190h34L89-25l56-165h34" id="G"/><path d="M141-36C126-15 110 5 73 4 37 3 15-17 15-53c-1-64 63-63 125-63 3-35-9-54-41-54-24 1-41 7-42 31l-33-3c5-37 33-52 76-52 45 0 72 20 72 64v82c-1 20 7 32 28 27v20c-31 9-61-2-59-35zM48-53c0 20 12 33 32 33 41-3 63-29 60-74-43 2-92-5-92 41" id="H"/><path d="M24 0v-261h32V0H24" id="I"/><path d="M85-194c31 0 48 13 60 33l-1-100h32l1 261h-30c-2-10 0-23-3-31C134-8 116 4 85 4 32 4 16-35 15-94c0-66 23-100 70-100zm9 24c-40 0-46 34-46 75 0 40 6 74 45 74 42 0 51-32 51-76 0-42-9-74-50-73" id="J"/><path d="M16-82v-28h88v28H16" id="K"/><path d="M87 75C49 33 22-17 22-94c0-76 28-126 65-167h31c-38 41-64 92-64 168S80 34 118 75H87" id="L"/><path d="M101-234c-31-9-42 10-38 44h38v23H63V0H32v-167H5v-23h27c-7-52 17-82 69-68v24" id="M"/><path d="M33-261c38 41 65 92 65 168S71 34 33 75H2C39 34 66-17 66-93S39-220 2-261h31" id="N"/><g id="c"><use transform="matrix(0.05,0,0,0.05,0,0)" xlink:href="#t"/><use transform="matrix(0.05,0,0,0.05,10,0)" xlink:href="#z"/><use transform="matrix(0.05,0,0,0.05,19,0)" xlink:href="#A"/><use transform="matrix(0.05,0,0,0.05,29,0)" xlink:href="#t"/><use transform="matrix(0.05,0,0,0.05,39,0)" xlink:href="#B"/><use transform="matrix(0.05,0,0,0.05,44.95,0)" xlink:href="#C"/><use transform="matrix(0.05,0,0,0.05,48.900000000000006,0)" xlink:href="#D"/><use transform="matrix(0.05,0,0,0.05,63.85,0)" xlink:href="#t"/><use transform="matrix(0.05,0,0,0.05,73.85000000000001,0)" xlink:href="#E"/><use transform="matrix(0.05,0,0,0.05,83.85000000000001,0)" xlink:href="#x"/><use transform="matrix(0.05,0,0,0.05,88.85000000000001,0)" xlink:href="#F"/><use transform="matrix(0.05,0,0,0.05,93.85000000000001,0)" xlink:href="#G"/><use transform="matrix(0.05,0,0,0.05,102.85000000000001,0)" xlink:href="#H"/><use transform="matrix(0.05,0,0,0.05,112.85000000000001,0)" xlink:href="#I"/><use transform="matrix(0.05,0,0,0.05,116.80000000000001,0)" xlink:href="#C"/><use transform="matrix(0.05,0,0,0.05,120.75,0)" xlink:href="#J"/><use transform="matrix(0.05,0,0,0.05,130.75,0)" xlink:href="#H"/><use transform="matrix(0.05,0,0,0.05,140.75,0)" xlink:href="#x"/><use transform="matrix(0.05,0,0,0.05,145.75,0)" xlink:href="#t"/><use transform="matrix(0.05,0,0,0.05,155.75,0)" xlink:href="#K"/><use transform="matrix(0.05,0,0,0.05,161.7,0)" xlink:href="#J"/><use transform="matrix(0.05,0,0,0.05,171.7,0)" xlink:href="#H"/><use transform="matrix(0.05,0,0,0.05,181.7,0)" xlink:href="#x"/><use transform="matrix(0.05,0,0,0.05,186.7,0)" xlink:href="#H"/><use transform="matrix(0.05,0,0,0.05,196.7,0)" xlink:href="#w"/><use transform="matrix(0.05,0,0,0.05,205.69999999999996,0)" xlink:href="#t"/><use transform="matrix(0.05,0,0,0.05,215.69999999999996,0)" xlink:href="#x"/><use transform="matrix(0.05,0,0,0.05,220.69999999999996,0)" xlink:href="#L"/><use transform="matrix(0.05,0,0,0.05,226.64999999999998,0)" xlink:href="#M"/><use transform="matrix(0.05,0,0,0.05,231.64999999999998,0)" xlink:href="#C"/><use transform="matrix(0.05,0,0,0.05,235.59999999999997,0)" xlink:href="#I"/><use transform="matrix(0.05,0,0,0.05,239.54999999999995,0)" xlink:href="#t"/><use transform="matrix(0.05,0,0,0.05,249.54999999999995,0)" xlink:href="#N"/></g><path d="M106-169C34-169 62-67 57 0H25v-261h32l-1 103c12-21 28-36 61-36 89 0 53 116 60 194h-32v-121c2-32-8-49-39-48" id="O"/><path d="M100-194c62-1 85 37 85 99 1 63-27 99-86 99S16-35 15-95c0-66 28-99 85-99zM99-20c44 1 53-31 53-75 0-43-8-75-51-75s-53 32-53 75 10 74 51 75" id="P"/><g id="d"><use transform="matrix(0.05,0,0,0.05,0,0)" xlink:href="#O"/><use transform="matrix(0.05,0,0,0.05,10,0)" xlink:href="#x"/><use transform="matrix(0.05,0,0,0.05,15,0)" xlink:href="#x"/><use transform="matrix(0.05,0,0,0.05,20,0)" xlink:href="#A"/><use transform="matrix(0.05,0,0,0.05,30,0)" xlink:href="#s"/><use transform="matrix(0.05,0,0,0.05,42.95,0)" xlink:href="#t"/><use transform="matrix(0.05,0,0,0.05,52.95,0)" xlink:href="#w"/><use transform="matrix(0.05,0,0,0.05,61.95,0)" xlink:href="#A"/><use transform="matrix(0.05,0,0,0.05,71.95,0)" xlink:href="#P"/><use transform="matrix(0.05,0,0,0.05,81.95,0)" xlink:href="#E"/><use transform="matrix(0.05,0,0,0.05,91.95,0)" xlink:href="#w"/><use transform="matrix(0.05,0,0,0.05,100.95,0)" xlink:href="#t"/><use transform="matrix(0.05,0,0,0.05,110.95,0)" xlink:href="#L"/><use transform="matrix(0.05,0,0,0.05,116.9,0)" xlink:href="#G"/><use transform="matrix(0.05,0,0,0.05,125.9,0)" xlink:href="#H"/><use transform="matrix(0.05,0,0,0.05,135.9,0)" xlink:href="#I"/><use transform="matrix(0.05,0,0,0.05,139.85,0)" xlink:href="#C"/><use transform="matrix(0.05,0,0,0.05,143.79999999999998,0)" xlink:href="#J"/></g><path d="M18-150v-26h174v26H18zm0 90v-26h174v26H18" id="Q"/><use transform="matrix(0.05,0,0,0.05,0,0)" xlink:href="#Q" id="e"/><path d="M68-38c1 34 0 65-14 84H32c9-13 17-26 17-46H33v-38h35" id="R"/><g id="f"><use transform="matrix(0.05,0,0,0.05,0,0)" xlink:href="#M"/><use transform="matrix(0.05,0,0,0.05,5,0)" xlink:href="#H"/><use transform="matrix(0.05,0,0,0.05,15,0)" xlink:href="#I"/><use transform="matrix(0.05,0,0,0.05,18.95,0)" xlink:href="#w"/><use transform="matrix(0.05,0,0,0.05,27.950000000000003,0)" xlink:href="#t"/><use transform="matrix(0.05,0,0,0.05,37.95,0)" xlink:href="#R"/></g><path d="M155-56V0h-30v-56H8v-25l114-167h33v167h35v25h-35zm-30-156c-27 46-58 90-88 131h88v-131" id="S"/><path d="M101-251c68 0 85 55 85 127S166 4 100 4C33 4 14-52 14-124c0-73 17-127 87-127zm-1 229c47 0 54-49 54-102s-4-102-53-102c-51 0-55 48-55 102 0 53 5 102 54 102" id="T"/><g id="g"><use transform="matrix(0.05,0,0,0.05,0,0)" xlink:href="#S"/><use transform="matrix(0.05,0,0,0.05,10,0)" xlink:href="#T"/><use transform="matrix(0.05,0,0,0.05,20,0)" xlink:href="#T"/><use transform="matrix(0.05,0,0,0.05,30,0)" xlink:href="#N"/></g><path d="M30-248c118-7 216 8 213 122C240-48 200 0 122 0H30v-248zM63-27c89 8 146-16 146-99s-60-101-146-95v194" id="U"/><path d="M212-179c-10-28-35-45-73-45-59 0-87 40-87 99 0 60 29 101 89 101 43 0 62-24 78-52l27 14C228-24 195 4 139 4 59 4 22-46 18-125c-6-104 99-153 187-111 19 9 31 26 39 46" id="V"/><path d="M185-189c-5-48-123-54-124 2 14 75 158 14 163 119 3 78-121 87-175 55-17-10-28-26-33-46l33-7c5 56 141 63 141-1 0-78-155-14-162-118-5-82 145-84 179-34 5 7 8 16 11 25" id="W"/><path d="M137 0h-34L2-248h35l83 218 83-218h36" id="X"/><g id="h"><use transform="matrix(0.05,0,0,0.05,0,0)" xlink:href="#o"/><use transform="matrix(0.05,0,0,0.05,5,0)" xlink:href="#U"/><use transform="matrix(0.05,0,0,0.05,17.950000000000003,0)" xlink:href="#H"/><use transform="matrix(0.05,0,0,0.05,27.950000000000003,0)" xlink:href="#x"/><use transform="matrix(0.05,0,0,0.05,32.95,0)" xlink:href="#H"/><use transform="matrix(0.05,0,0,0.05,42.95,0)" xlink:href="#w"/><use transform="matrix(0.05,0,0,0.05,51.95,0)" xlink:href="#t"/><use transform="matrix(0.05,0,0,0.05,61.95,0)" xlink:href="#x"/><use transform="matrix(0.05,0,0,0.05,66.95,0)" xlink:href="#V"/><use transform="matrix(0.05,0,0,0.05,79.9,0)" xlink:href="#W"/><use transform="matrix(0.05,0,0,0.05,91.9,0)" xlink:href="#X"/><use transform="matrix(0.05,0,0,0.05,103.9,0)" xlink:href="#q"/><use transform="matrix(0.05,0,0,0.05,115.9,0)" xlink:href="#H"/><use transform="matrix(0.05,0,0,0.05,125.9,0)" xlink:href="#B"/><use transform="matrix(0.05,0,0,0.05,131.85,0)" xlink:href="#w"/><use transform="matrix(0.05,0,0,0.05,140.85,0)" xlink:href="#t"/><use transform="matrix(0.05,0,0,0.05,150.85,0)" xlink:href="#B"/><path d="M-.9 1.25h158.6v1.32H-.9z"/></g><g id="i"><use transform="matrix(0.05,0,0,0.05,0,0)" xlink:href="#A"/><use transform="matrix(0.05,0,0,0.05,10,0)" xlink:href="#H"/><use transform="matrix(0.05,0,0,0.05,20,0)" xlink:href="#B"/><use transform="matrix(0.05,0,0,0.05,25.950000000000003,0)" xlink:href="#w"/><use transform="matrix(0.05,0,0,0.05,34.95,0)" xlink:href="#t"/><use transform="matrix(0.05,0,0,0.05,44.95,0)" xlink:href="#L"/><use transform="matrix(0.05,0,0,0.05,50.900000000000006,0)" xlink:href="#M"/><use transform="matrix(0.05,0,0,0.05,55.900000000000006,0)" xlink:href="#C"/><use transform="matrix(0.05,0,0,0.05,59.85,0)" xlink:href="#I"/><use transform="matrix(0.05,0,0,0.05,63.80000000000001,0)" xlink:href="#t"/><use transform="matrix(0.05,0,0,0.05,73.80000000000001,0)" xlink:href="#N"/></g><g id="j"><use transform="matrix(0.05,0,0,0.05,0,0)" xlink:href="#A"/><use transform="matrix(0.05,0,0,0.05,10,0)" xlink:href="#H"/><use transform="matrix(0.05,0,0,0.05,20,0)" xlink:href="#B"/><use transform="matrix(0.05,0,0,0.05,25.950000000000003,0)" xlink:href="#w"/><use transform="matrix(0.05,0,0,0.05,34.95,0)" xlink:href="#t"/><use transform="matrix(0.05,0,0,0.05,44.95,0)" xlink:href="#y"/><use transform="matrix(0.05,0,0,0.05,56.95,0)" xlink:href="#B"/><use transform="matrix(0.05,0,0,0.05,62.900000000000006,0)" xlink:href="#B"/><use transform="matrix(0.05,0,0,0.05,68.85000000000001,0)" xlink:href="#P"/><use transform="matrix(0.05,0,0,0.05,78.85000000000001,0)" xlink:href="#B"/></g><path d="M232-93c-1 65-40 97-104 97C67 4 28-28 28-90v-158h33c8 89-33 224 67 224 102 0 64-133 71-224h33v155" id="Y"/><g id="k"><use transform="matrix(0.05,0,0,0.05,0,0)" xlink:href="#P"/><use transform="matrix(0.05,0,0,0.05,10,0)" xlink:href="#E"/><use transform="matrix(0.05,0,0,0.05,20,0)" xlink:href="#U"/><use transform="matrix(0.05,0,0,0.05,32.95,0)" xlink:href="#H"/><use transform="matrix(0.05,0,0,0.05,42.95,0)" xlink:href="#x"/><use transform="matrix(0.05,0,0,0.05,47.95,0)" xlink:href="#H"/><use transform="matrix(0.05,0,0,0.05,57.95,0)" xlink:href="#w"/><use transform="matrix(0.05,0,0,0.05,66.95,0)" xlink:href="#t"/><use transform="matrix(0.05,0,0,0.05,76.95,0)" xlink:href="#x"/><use transform="matrix(0.05,0,0,0.05,81.95,0)" xlink:href="#Y"/><use transform="matrix(0.05,0,0,0.05,94.9,0)" xlink:href="#A"/><use transform="matrix(0.05,0,0,0.05,104.9,0)" xlink:href="#I"/><use transform="matrix(0.05,0,0,0.05,108.85000000000001,0)" xlink:href="#P"/><use transform="matrix(0.05,0,0,0.05,118.85000000000001,0)" xlink:href="#H"/><use transform="matrix(0.05,0,0,0.05,128.85000000000002,0)" xlink:href="#J"/><use transform="matrix(0.05,0,0,0.05,138.85000000000002,0)" xlink:href="#L"/><use transform="matrix(0.05,0,0,0.05,144.8,0)" xlink:href="#M"/><use transform="matrix(0.05,0,0,0.05,149.8,0)" xlink:href="#C"/><use transform="matrix(0.05,0,0,0.05,153.75,0)" xlink:href="#I"/><use transform="matrix(0.05,0,0,0.05,157.7,0)" xlink:href="#t"/><use transform="matrix(0.05,0,0,0.05,167.7,0)" xlink:href="#N"/></g><g id="l"><use transform="matrix(0.05,0,0,0.05,0,0)" xlink:href="#w"/><use transform="matrix(0.05,0,0,0.05,9,0)" xlink:href="#t"/><use transform="matrix(0.05,0,0,0.05,19,0)" xlink:href="#E"/><use transform="matrix(0.05,0,0,0.05,29,0)" xlink:href="#J"/><use transform="matrix(0.05,0,0,0.05,39,0)" xlink:href="#U"/><use transform="matrix(0.05,0,0,0.05,51.95,0)" xlink:href="#H"/><use transform="matrix(0.05,0,0,0.05,61.95,0)" xlink:href="#x"/><use transform="matrix(0.05,0,0,0.05,66.95,0)" xlink:href="#H"/><use transform="matrix(0.05,0,0,0.05,76.95,0)" xlink:href="#w"/><use transform="matrix(0.05,0,0,0.05,85.95,0)" xlink:href="#t"/><use transform="matrix(0.05,0,0,0.05,95.95,0)" xlink:href="#x"/><use transform="matrix(0.05,0,0,0.05,100.95,0)" xlink:href="#L"/><use transform="matrix(0.05,0,0,0.05,106.9,0)" xlink:href="#M"/><use transform="matrix(0.05,0,0,0.05,111.9,0)" xlink:href="#C"/><use transform="matrix(0.05,0,0,0.05,115.85000000000001,0)" xlink:href="#I"/><use transform="matrix(0.05,0,0,0.05,119.80000000000001,0)" xlink:href="#t"/><use transform="matrix(0.05,0,0,0.05,129.8,0)" xlink:href="#N"/></g><path d="M206 0h-36l-40-164L89 0H53L-1-190h32L70-26l43-164h34l41 164 42-164h31" id="Z"/><g id="m"><use transform="matrix(0.05,0,0,0.05,0,0)" xlink:href="#o"/><use transform="matrix(0.05,0,0,0.05,5,0)" xlink:href="#V"/><use transform="matrix(0.05,0,0,0.05,17.950000000000003,0)" xlink:href="#B"/><use transform="matrix(0.05,0,0,0.05,23.900000000000002,0)" xlink:href="#t"/><use transform="matrix(0.05,0,0,0.05,33.900000000000006,0)" xlink:href="#H"/><use transform="matrix(0.05,0,0,0.05,43.900000000000006,0)" xlink:href="#x"/><use transform="matrix(0.05,0,0,0.05,48.900000000000006,0)" xlink:href="#t"/><use transform="matrix(0.05,0,0,0.05,58.900000000000006,0)" xlink:href="#y"/><use transform="matrix(0.05,0,0,0.05,70.9,0)" xlink:href="#z"/><use transform="matrix(0.05,0,0,0.05,79.9,0)" xlink:href="#A"/><use transform="matrix(0.05,0,0,0.05,89.9,0)" xlink:href="#t"/><use transform="matrix(0.05,0,0,0.05,99.9,0)" xlink:href="#B"/><use transform="matrix(0.05,0,0,0.05,105.85000000000001,0)" xlink:href="#C"/><use transform="matrix(0.05,0,0,0.05,109.80000000000001,0)" xlink:href="#D"/><use transform="matrix(0.05,0,0,0.05,124.75,0)" xlink:href="#t"/><use transform="matrix(0.05,0,0,0.05,134.75,0)" xlink:href="#E"/><use transform="matrix(0.05,0,0,0.05,144.75,0)" xlink:href="#x"/><use transform="matrix(0.05,0,0,0.05,149.75,0)" xlink:href="#X"/><use transform="matrix(0.05,0,0,0.05,161.4,0)" xlink:href="#C"/><use transform="matrix(0.05,0,0,0.05,165.35,0)" xlink:href="#t"/><use transform="matrix(0.05,0,0,0.05,175.35,0)" xlink:href="#Z"/><path d="M-.9 1.25h190.1v1.32H-.9z"/></g><path d="M240 0l2-218c-23 76-54 145-80 218h-23L58-218 59 0H30v-248h44l77 211c21-75 51-140 76-211h43V0h-30" id="aa"/><path d="M177-190C167-65 218 103 67 71c-23-6-38-20-44-43l32-5c15 47 100 32 89-28v-30C133-14 115 1 83 1 29 1 15-40 15-95c0-56 16-97 71-98 29-1 48 16 59 35 1-10 0-23 2-32h30zM94-22c36 0 50-32 50-73 0-42-14-75-50-75-39 0-46 34-46 75s6 73 46 73" id="ab"/><g id="n"><use transform="matrix(0.05,0,0,0.05,0,0)" xlink:href="#aa"/><use transform="matrix(0.05,0,0,0.05,14.950000000000001,0)" xlink:href="#t"/><use transform="matrix(0.05,0,0,0.05,24.950000000000003,0)" xlink:href="#w"/><use transform="matrix(0.05,0,0,0.05,33.95,0)" xlink:href="#w"/><use transform="matrix(0.05,0,0,0.05,42.95,0)" xlink:href="#H"/><use transform="matrix(0.05,0,0,0.05,52.95,0)" xlink:href="#ab"/><use transform="matrix(0.05,0,0,0.05,62.95,0)" xlink:href="#t"/></g></defs></g></svg>