<svg xmlns="http://www.w3.org/2000/svg" xmlns:xlink="http://www.w3.org/1999/xlink" xmlns:lucid="lucid" width="1200" height="833.15"><g transform="translate(1711.9999999999995 -741.4236892679774)" lucid:page-tab-id="ohAnajz3znn5"><path d="M-1692 1264.58h360v290h-360z" stroke="#333" stroke-width="2" fill="#fff"/><path d="M-1692 1328.58h360m-360 166.56h360" stroke="#333" stroke-width="2" fill="none"/><use xlink:href="#a" transform="matrix(1,0,0,1,-1683.9999999999995,1272.5763107320236) translate(90.54320987654324 14.222222222222218)"/><use xlink:href="#b" transform="matrix(1,0,0,1,-1683.9999999999995,1272.5763107320236) translate(144.8641975308642 14.222222222222218)"/><use xlink:href="#c" transform="matrix(1,0,0,1,-1683.9999999999995,1272.5763107320236) translate(122.09259259259258 39.11111111111111)"/><use xlink:href="#d" transform="matrix(1,0,0,1,-1679.9999999999995,1336.5763107320236) translate(0 15.055555555555546)"/><use xlink:href="#e" transform="matrix(1,0,0,1,-1679.9999999999995,1336.5763107320236) translate(0 39.944444444444436)"/><use xlink:href="#f" transform="matrix(1,0,0,1,-1679.9999999999995,1336.5763107320236) translate(19.1358024691358 39.944444444444436)"/><use xlink:href="#g" transform="matrix(1,0,0,1,-1679.9999999999995,1336.5763107320236) translate(152.28395061728398 39.944444444444436)"/><use xlink:href="#e" transform="matrix(1,0,0,1,-1679.9999999999995,1336.5763107320236) translate(0 66.61111111111111)"/><use xlink:href="#h" transform="matrix(1,0,0,1,-1679.9999999999995,1336.5763107320236) translate(19.1358024691358 66.61111111111111)"/><use xlink:href="#i" transform="matrix(1,0,0,1,-1679.9999999999995,1336.5763107320236) translate(126.41975308641975 66.61111111111111)"/><use xlink:href="#j" transform="matrix(1,0,0,1,-1679.9999999999995,1336.5763107320236) translate(0 93.27777777777777)"/><use xlink:href="#k" transform="matrix(1,0,0,1,-1679.9999999999995,1336.5763107320236) translate(0 116.38888888888889)"/><use xlink:href="#l" transform="matrix(1,0,0,1,-1679.9999999999995,1336.5763107320236) translate(0 141.27777777777777)"/><use xlink:href="#m" transform="matrix(1,0,0,1,-1679.9999999999995,1503.1400254917016) translate(0 14.888888888888893)"/><use xlink:href="#n" transform="matrix(1,0,0,1,-1679.9999999999995,1503.1400254917016) translate(0 36.22222222222222)"/><path d="M-1309.5 761.42h395v416h-395z" stroke="#333" stroke-width="2" fill="#fff"/><path d="M-1309.5 825.42h395m-395 240.17h395" stroke="#333" stroke-width="2" fill="none"/><use xlink:href="#a" transform="matrix(1,0,0,1,-1301.5000000000005,769.4236892679774) translate(108.04320987654324 14.222222222222218)"/><use xlink:href="#b" transform="matrix(1,0,0,1,-1301.5000000000005,769.4236892679774) translate(162.3641975308642 14.222222222222218)"/><use xlink:href="#o" transform="matrix(1,0,0,1,-1301.5000000000005,769.4236892679774) translate(78.20370370370374 39.11111111111111)"/><use xlink:href="#p" transform="matrix(1,0,0,1,-1297.5000000000005,833.4236892679774) translate(0 25.38888888888889)"/><use xlink:href="#q" transform="matrix(1,0,0,1,-1297.5000000000005,833.4236892679774) translate(0 50.27777777777778)"/><use xlink:href="#r" transform="matrix(1,0,0,1,-1297.5000000000005,833.4236892679774) translate(13.518518518518519 50.27777777777778)"/><use xlink:href="#s" transform="matrix(1,0,0,1,-1297.5000000000005,833.4236892679774) translate(135.55555555555554 50.27777777777778)"/><use xlink:href="#j" transform="matrix(1,0,0,1,-1297.5000000000005,833.4236892679774) translate(0 76.94444444444446)"/><use xlink:href="#t" transform="matrix(1,0,0,1,-1297.5000000000005,833.4236892679774) translate(0 100.05555555555556)"/><use xlink:href="#u" transform="matrix(1,0,0,1,-1297.5000000000005,833.4236892679774) translate(0 124.94444444444446)"/><use xlink:href="#v" transform="matrix(1,0,0,1,-1297.5000000000005,833.4236892679774) translate(0 151.61111111111111)"/><use xlink:href="#w" transform="matrix(1,0,0,1,-1297.5000000000005,833.4236892679774) translate(0 178.27777777777777)"/><use xlink:href="#x" transform="matrix(1,0,0,1,-1297.5000000000005,833.4236892679774) translate(0 204.94444444444446)"/><g><use xlink:href="#y" transform="matrix(1,0,0,1,-1297.5000000000005,1073.590355934644) translate(0 25.38888888888889)"/><use xlink:href="#z" transform="matrix(1,0,0,1,-1297.5000000000005,1073.590355934644) translate(0 50.27777777777778)"/><use xlink:href="#A" transform="matrix(1,0,0,1,-1297.5000000000005,1073.590355934644) translate(19.1358024691358 50.27777777777778)"/><use xlink:href="#z" transform="matrix(1,0,0,1,-1297.5000000000005,1073.590355934644) translate(0 76.94444444444446)"/><use xlink:href="#B" transform="matrix(1,0,0,1,-1297.5000000000005,1073.590355934644) translate(19.1358024691358 76.94444444444446)"/></g><path d="M-1292 1264.58h360v283h-360z" stroke="#333" stroke-width="2" fill="#fff"/><path d="M-1292 1328.58h360m-360 160.16h360" stroke="#333" stroke-width="2" fill="none"/><g><use xlink:href="#a" transform="matrix(1,0,0,1,-1284.0000000000005,1272.5763107320236) translate(90.54320987654324 14.222222222222218)"/><use xlink:href="#b" transform="matrix(1,0,0,1,-1284.0000000000005,1272.5763107320236) translate(144.8641975308642 14.222222222222218)"/><use xlink:href="#C" transform="matrix(1,0,0,1,-1284.0000000000005,1272.5763107320236) translate(44.46913580246917 39.11111111111111)"/></g><g><use xlink:href="#d" transform="matrix(1,0,0,1,-1280.0000000000005,1336.5763107320236) translate(0 25.38888888888889)"/><use xlink:href="#e" transform="matrix(1,0,0,1,-1280.0000000000005,1336.5763107320236) translate(0 50.27777777777778)"/><use xlink:href="#D" transform="matrix(1,0,0,1,-1280.0000000000005,1336.5763107320236) translate(19.1358024691358 50.27777777777778)"/><use xlink:href="#E" transform="matrix(1,0,0,1,-1280.0000000000005,1336.5763107320236) translate(141.17283950617283 50.27777777777778)"/><use xlink:href="#j" transform="matrix(1,0,0,1,-1280.0000000000005,1336.5763107320236) translate(0 76.94444444444446)"/><use xlink:href="#t" transform="matrix(1,0,0,1,-1280.0000000000005,1336.5763107320236) translate(0 100.05555555555556)"/><use xlink:href="#F" transform="matrix(1,0,0,1,-1280.0000000000005,1336.5763107320236) translate(0 124.94444444444446)"/></g><path d="M-892 1264.58h360v283h-360z" stroke="#333" stroke-width="2" fill="#fff"/><path d="M-892 1328.58h360m-360 160.16h360" stroke="#333" stroke-width="2" fill="none"/><g><use xlink:href="#a" transform="matrix(1,0,0,1,-884.0000000000005,1272.5763107320236) translate(90.54320987654324 14.222222222222218)"/><use xlink:href="#b" transform="matrix(1,0,0,1,-884.0000000000005,1272.5763107320236) translate(144.8641975308642 14.222222222222218)"/><use xlink:href="#G" transform="matrix(1,0,0,1,-884.0000000000005,1272.5763107320236) translate(93.14197530864197 39.11111111111111)"/></g><g><use xlink:href="#d" transform="matrix(1,0,0,1,-880.0000000000005,1336.5763107320236) translate(0 25.38888888888889)"/><use xlink:href="#e" transform="matrix(1,0,0,1,-880.0000000000005,1336.5763107320236) translate(0 50.27777777777778)"/><use xlink:href="#D" transform="matrix(1,0,0,1,-880.0000000000005,1336.5763107320236) translate(19.1358024691358 50.27777777777778)"/><use xlink:href="#E" transform="matrix(1,0,0,1,-880.0000000000005,1336.5763107320236) translate(141.17283950617283 50.27777777777778)"/><use xlink:href="#j" transform="matrix(1,0,0,1,-880.0000000000005,1336.5763107320236) translate(0 76.94444444444446)"/><use xlink:href="#t" transform="matrix(1,0,0,1,-880.0000000000005,1336.5763107320236) translate(0 100.05555555555556)"/><use xlink:href="#F" transform="matrix(1,0,0,1,-880.0000000000005,1336.5763107320236) translate(0 124.94444444444446)"/></g><path d="M-1512 1262.58V1227a6 6 0 0 1 6-6h388a6 6 0 0 0 6-6v-5.83" stroke="#000" stroke-width="2" fill="none"/><path d="M-1511 1263.58h-2v-1.03h2z" stroke="#000" stroke-width=".05"/><path d="M-1112 1179.84l14.85 14.85-14.85 15.14-14.85-15.15z" stroke="#000" stroke-width="2"/><g><use xlink:href="#H" transform="matrix(1,0,0,1,-1503.9999999999995,1242.7763107320236) translate(0 14.4)"/></g><path d="M-1112 1262.58v-53.4" stroke="#000" stroke-width="2" fill="none"/><path d="M-1111 1263.58h-2v-1.03h2z" stroke="#000" stroke-width=".05"/><path d="M-1112 1179.84l14.85 14.85-14.85 15.14-14.85-15.15z" stroke="#000" stroke-width="2"/><g><use xlink:href="#H" transform="matrix(1,0,0,1,-1104.0000000000005,1242.7763107320236) translate(0 14.4)"/></g><path d="M-712 1262.58V1227a6 6 0 0 0-6-6h-388a6 6 0 0 1-6-6v-5.83" stroke="#000" stroke-width="2" fill="none"/><path d="M-711 1263.58h-2v-1.03h2z" stroke="#000" stroke-width=".05"/><path d="M-1112 1179.84l14.85 14.85-14.85 15.14-14.85-15.15z" stroke="#000" stroke-width="2"/><g><use xlink:href="#H" transform="matrix(1,0,0,1,-704.0000000000005,1242.7763107320236) translate(0 14.4)"/></g><defs><path fill="#3a414a" d="M18-100v-36l175-74v27L42-118l151 64v27" id="I"/><path fill="#3a414a" d="M108 0H70L1-190h34L89-25l56-165h34" id="J"/><path fill="#3a414a" d="M84 4C-5 8 30-112 23-190h32v120c0 31 7 50 39 49 72-2 45-101 50-169h31l1 190h-30c-1-10 1-25-2-33-11 22-28 36-60 37" id="K"/><path fill="#3a414a" d="M100-194c63 0 86 42 84 106H49c0 40 14 67 53 68 26 1 43-12 49-29l28 8c-11 28-37 45-77 45C44 4 14-33 15-96c1-61 26-98 85-98zm52 81c6-60-76-77-97-28-3 7-6 17-6 28h103" id="L"/><g id="a"><use transform="matrix(0.0493827160493827,0,0,0.0493827160493827,0,0)" xlink:href="#I"/><use transform="matrix(0.0493827160493827,0,0,0.0493827160493827,10.370370370370367,0)" xlink:href="#I"/><use transform="matrix(0.0493827160493827,0,0,0.0493827160493827,20.740740740740733,0)" xlink:href="#J"/><use transform="matrix(0.0493827160493827,0,0,0.0493827160493827,29.62962962962962,0)" xlink:href="#K"/><use transform="matrix(0.0493827160493827,0,0,0.0493827160493827,39.506172839506156,0)" xlink:href="#L"/></g><path fill="#3a414a" d="M96-169c-40 0-48 33-48 73s9 75 48 75c24 0 41-14 43-38l32 2c-6 37-31 61-74 61-59 0-76-41-82-99-10-93 101-131 147-64 4 7 5 14 7 22l-32 3c-4-21-16-35-41-35" id="M"/><path fill="#3a414a" d="M100-194c62-1 85 37 85 99 1 63-27 99-86 99S16-35 15-95c0-66 28-99 85-99zM99-20c44 1 53-31 53-75 0-43-8-75-51-75s-53 32-53 75 10 74 51 75" id="N"/><path fill="#3a414a" d="M210-169c-67 3-38 105-44 169h-31v-121c0-29-5-50-35-48C34-165 62-65 56 0H25l-1-190h30c1 10-1 24 2 32 10-44 99-50 107 0 11-21 27-35 58-36 85-2 47 119 55 194h-31v-121c0-29-5-49-35-48" id="O"/><path fill="#3a414a" d="M115-194c55 1 70 41 70 98S169 2 115 4C84 4 66-9 55-30l1 105H24l-1-265h31l2 30c10-21 28-34 59-34zm-8 174c40 0 45-34 45-75s-6-73-45-74c-42 0-51 32-51 76 0 43 10 73 51 73" id="P"/><path fill="#3a414a" d="M117-194c89-4 53 116 60 194h-32v-121c0-31-8-49-39-48C34-167 62-67 57 0H25l-1-190h30c1 10-1 24 2 32 11-22 29-35 61-36" id="Q"/><path fill="#3a414a" d="M59-47c-2 24 18 29 38 22v24C64 9 27 4 27-40v-127H5v-23h24l9-43h21v43h35v23H59v120" id="R"/><path fill="#3a414a" d="M18-27v-27l151-64-151-65v-27l175 74v36" id="S"/><g id="b"><use transform="matrix(0.0493827160493827,0,0,0.0493827160493827,0,0)" xlink:href="#M"/><use transform="matrix(0.0493827160493827,0,0,0.0493827160493827,8.888888888888886,0)" xlink:href="#N"/><use transform="matrix(0.0493827160493827,0,0,0.0493827160493827,18.765432098765423,0)" xlink:href="#O"/><use transform="matrix(0.0493827160493827,0,0,0.0493827160493827,33.530864197530846,0)" xlink:href="#P"/><use transform="matrix(0.0493827160493827,0,0,0.0493827160493827,43.40740740740738,0)" xlink:href="#N"/><use transform="matrix(0.0493827160493827,0,0,0.0493827160493827,53.28395061728392,0)" xlink:href="#Q"/><use transform="matrix(0.0493827160493827,0,0,0.0493827160493827,63.16049382716046,0)" xlink:href="#L"/><use transform="matrix(0.0493827160493827,0,0,0.0493827160493827,73.037037037037,0)" xlink:href="#Q"/><use transform="matrix(0.0493827160493827,0,0,0.0493827160493827,82.91358024691354,0)" xlink:href="#R"/><use transform="matrix(0.0493827160493827,0,0,0.0493827160493827,87.8518518518518,0)" xlink:href="#S"/><use transform="matrix(0.0493827160493827,0,0,0.0493827160493827,98.22222222222217,0)" xlink:href="#S"/></g><path fill="#3a414a" d="M30-248c118-7 216 8 213 122C240-48 200 0 122 0H30v-248zM63-27c89 8 146-16 146-99s-60-101-146-95v194" id="T"/><path fill="#3a414a" d="M141-36C126-15 110 5 73 4 37 3 15-17 15-53c-1-64 63-63 125-63 3-35-9-54-41-54-24 1-41 7-42 31l-33-3c5-37 33-52 76-52 45 0 72 20 72 64v82c-1 20 7 32 28 27v20c-31 9-61-2-59-35zM48-53c0 20 12 33 32 33 41-3 63-29 60-74-43 2-92-5-92 41" id="U"/><path fill="#3a414a" d="M127-220V0H93v-220H8v-28h204v28h-85" id="V"/><path fill="#3a414a" d="M115-194c53 0 69 39 70 98 0 66-23 100-70 100C84 3 66-7 56-30L54 0H23l1-261h32v101c10-23 28-34 59-34zm-8 174c40 0 45-34 45-75 0-40-5-75-45-74-42 0-51 32-51 76 0 43 10 73 51 73" id="W"/><path fill="#3a414a" d="M24 0v-261h32V0H24" id="X"/><g id="c"><use transform="matrix(0.06172839506172839,0,0,0.06172839506172839,0,0)" xlink:href="#T"/><use transform="matrix(0.06172839506172839,0,0,0.06172839506172839,15.987654320987653,0)" xlink:href="#U"/><use transform="matrix(0.06172839506172839,0,0,0.06172839506172839,28.333333333333332,0)" xlink:href="#R"/><use transform="matrix(0.06172839506172839,0,0,0.06172839506172839,34.50617283950617,0)" xlink:href="#U"/><use transform="matrix(0.06172839506172839,0,0,0.06172839506172839,46.85185185185185,0)" xlink:href="#V"/><use transform="matrix(0.06172839506172839,0,0,0.06172839506172839,57.901234567901234,0)" xlink:href="#U"/><use transform="matrix(0.06172839506172839,0,0,0.06172839506172839,70.24691358024691,0)" xlink:href="#W"/><use transform="matrix(0.06172839506172839,0,0,0.06172839506172839,82.5925925925926,0)" xlink:href="#X"/><use transform="matrix(0.06172839506172839,0,0,0.06172839506172839,87.46913580246914,0)" xlink:href="#L"/></g><path fill="#3a414a" d="M114-163C36-179 61-72 57 0H25l-1-190h30c1 12-1 29 2 39 6-27 23-49 58-41v29" id="Y"/><path fill="#3a414a" d="M135-143c-3-34-86-38-87 0 15 53 115 12 119 90S17 21 10-45l28-5c4 36 97 45 98 0-10-56-113-15-118-90-4-57 82-63 122-42 12 7 21 19 24 35" id="Z"/><g id="d"><use transform="matrix(0.0493827160493827,0,0,0.0493827160493827,0,0)" xlink:href="#I"/><use transform="matrix(0.0493827160493827,0,0,0.0493827160493827,10.370370370370367,0)" xlink:href="#I"/><use transform="matrix(0.0493827160493827,0,0,0.0493827160493827,20.740740740740733,0)" xlink:href="#P"/><use transform="matrix(0.0493827160493827,0,0,0.0493827160493827,30.617283950617267,0)" xlink:href="#Y"/><use transform="matrix(0.0493827160493827,0,0,0.0493827160493827,36.49382716049381,0)" xlink:href="#N"/><use transform="matrix(0.0493827160493827,0,0,0.0493827160493827,46.370370370370345,0)" xlink:href="#P"/><use transform="matrix(0.0493827160493827,0,0,0.0493827160493827,56.24691358024688,0)" xlink:href="#Z"/><use transform="matrix(0.0493827160493827,0,0,0.0493827160493827,65.13580246913577,0)" xlink:href="#S"/><use transform="matrix(0.0493827160493827,0,0,0.0493827160493827,75.50617283950614,0)" xlink:href="#S"/></g><path fill="#3a414a" d="M118-107v75H92v-75H18v-26h74v-75h26v75h74v26h-74" id="aa"/><use transform="matrix(0.06172839506172839,0,0,0.06172839506172839,0,0)" xlink:href="#aa" id="e"/><path fill="#3a414a" d="M197 0v-115H63V0H30v-248h33v105h134v-105h34V0h-34" id="ab"/><path fill="#3a414a" d="M85-194c31 0 48 13 60 33l-1-100h32l1 261h-30c-2-10 0-23-3-31C134-8 116 4 85 4 32 4 16-35 15-94c0-66 23-100 70-100zm9 24c-40 0-46 34-46 75 0 40 6 74 45 74 42 0 51-32 51-76 0-42-9-74-50-73" id="ac"/><path fill="#3a414a" d="M33-154v-36h34v36H33zM33 0v-36h34V0H33" id="ad"/><g id="f"><use transform="matrix(0.06172839506172839,0,0,0.06172839506172839,0,0)" xlink:href="#R"/><use transform="matrix(0.06172839506172839,0,0,0.06172839506172839,6.172839506172839,0)" xlink:href="#U"/><use transform="matrix(0.06172839506172839,0,0,0.06172839506172839,18.51851851851852,0)" xlink:href="#W"/><use transform="matrix(0.06172839506172839,0,0,0.06172839506172839,30.864197530864196,0)" xlink:href="#X"/><use transform="matrix(0.06172839506172839,0,0,0.06172839506172839,35.74074074074074,0)" xlink:href="#L"/><use transform="matrix(0.06172839506172839,0,0,0.06172839506172839,48.08641975308642,0)" xlink:href="#ab"/><use transform="matrix(0.06172839506172839,0,0,0.06172839506172839,64.07407407407408,0)" xlink:href="#L"/><use transform="matrix(0.06172839506172839,0,0,0.06172839506172839,76.41975308641976,0)" xlink:href="#U"/><use transform="matrix(0.06172839506172839,0,0,0.06172839506172839,88.76543209876544,0)" xlink:href="#ac"/><use transform="matrix(0.06172839506172839,0,0,0.06172839506172839,101.11111111111113,0)" xlink:href="#L"/><use transform="matrix(0.06172839506172839,0,0,0.06172839506172839,113.45679012345681,0)" xlink:href="#Y"/><use transform="matrix(0.06172839506172839,0,0,0.06172839506172839,120.8024691358025,0)" xlink:href="#ad"/></g><path fill="#3a414a" d="M24-231v-30h32v30H24zM24 0v-190h32V0H24" id="ae"/><path fill="#3a414a" d="M177-190C167-65 218 103 67 71c-23-6-38-20-44-43l32-5c15 47 100 32 89-28v-30C133-14 115 1 83 1 29 1 15-40 15-95c0-56 16-97 71-98 29-1 48 16 59 35 1-10 0-23 2-32h30zM94-22c36 0 50-32 50-73 0-42-14-75-50-75-39 0-46 34-46 75s6 73 46 73" id="af"/><path fill="#3a414a" d="M26 75v-336h71v23H56V52h41v23H26" id="ag"/><path fill="#3a414a" d="M3 75V52h41v-290H3v-23h71V75H3" id="ah"/><g id="g"><use transform="matrix(0.06172839506172839,0,0,0.06172839506172839,0,0)" xlink:href="#Z"/><use transform="matrix(0.06172839506172839,0,0,0.06172839506172839,11.11111111111111,0)" xlink:href="#R"/><use transform="matrix(0.06172839506172839,0,0,0.06172839506172839,17.28395061728395,0)" xlink:href="#Y"/><use transform="matrix(0.06172839506172839,0,0,0.06172839506172839,24.629629629629626,0)" xlink:href="#ae"/><use transform="matrix(0.06172839506172839,0,0,0.06172839506172839,29.50617283950617,0)" xlink:href="#Q"/><use transform="matrix(0.06172839506172839,0,0,0.06172839506172839,41.85185185185185,0)" xlink:href="#af"/><use transform="matrix(0.06172839506172839,0,0,0.06172839506172839,54.197530864197525,0)" xlink:href="#ag"/><use transform="matrix(0.06172839506172839,0,0,0.06172839506172839,60.37037037037037,0)" xlink:href="#ah"/></g><g id="h"><use transform="matrix(0.06172839506172839,0,0,0.06172839506172839,0,0)" xlink:href="#R"/><use transform="matrix(0.06172839506172839,0,0,0.06172839506172839,6.172839506172839,0)" xlink:href="#U"/><use transform="matrix(0.06172839506172839,0,0,0.06172839506172839,18.51851851851852,0)" xlink:href="#W"/><use transform="matrix(0.06172839506172839,0,0,0.06172839506172839,30.864197530864196,0)" xlink:href="#X"/><use transform="matrix(0.06172839506172839,0,0,0.06172839506172839,35.74074074074074,0)" xlink:href="#L"/><use transform="matrix(0.06172839506172839,0,0,0.06172839506172839,48.08641975308642,0)" xlink:href="#T"/><use transform="matrix(0.06172839506172839,0,0,0.06172839506172839,64.07407407407408,0)" xlink:href="#U"/><use transform="matrix(0.06172839506172839,0,0,0.06172839506172839,76.41975308641976,0)" xlink:href="#R"/><use transform="matrix(0.06172839506172839,0,0,0.06172839506172839,82.5925925925926,0)" xlink:href="#U"/><use transform="matrix(0.06172839506172839,0,0,0.06172839506172839,94.93827160493828,0)" xlink:href="#ad"/></g><path fill="#3a414a" d="M179-190L93 31C79 59 56 82 12 73V49c39 6 53-20 64-50L1-190h34L92-34l54-156h33" id="ai"/><g id="i"><use transform="matrix(0.06172839506172839,0,0,0.06172839506172839,0,0)" xlink:href="#U"/><use transform="matrix(0.06172839506172839,0,0,0.06172839506172839,12.345679012345679,0)" xlink:href="#Q"/><use transform="matrix(0.06172839506172839,0,0,0.06172839506172839,24.691358024691358,0)" xlink:href="#ai"/><use transform="matrix(0.06172839506172839,0,0,0.06172839506172839,35.80246913580247,0)" xlink:href="#ag"/><use transform="matrix(0.06172839506172839,0,0,0.06172839506172839,41.97530864197531,0)" xlink:href="#ah"/></g><g id="k"><use transform="matrix(0.0493827160493827,0,0,0.0493827160493827,0,0)" xlink:href="#I"/><use transform="matrix(0.0493827160493827,0,0,0.0493827160493827,10.370370370370367,0)" xlink:href="#I"/><use transform="matrix(0.0493827160493827,0,0,0.0493827160493827,20.740740740740733,0)" xlink:href="#M"/><use transform="matrix(0.0493827160493827,0,0,0.0493827160493827,29.62962962962962,0)" xlink:href="#N"/><use transform="matrix(0.0493827160493827,0,0,0.0493827160493827,39.506172839506156,0)" xlink:href="#O"/><use transform="matrix(0.0493827160493827,0,0,0.0493827160493827,54.27160493827157,0)" xlink:href="#P"/><use transform="matrix(0.0493827160493827,0,0,0.0493827160493827,64.14814814814812,0)" xlink:href="#N"/><use transform="matrix(0.0493827160493827,0,0,0.0493827160493827,74.02469135802467,0)" xlink:href="#Q"/><use transform="matrix(0.0493827160493827,0,0,0.0493827160493827,83.90123456790121,0)" xlink:href="#L"/><use transform="matrix(0.0493827160493827,0,0,0.0493827160493827,93.77777777777776,0)" xlink:href="#Q"/><use transform="matrix(0.0493827160493827,0,0,0.0493827160493827,103.6543209876543,0)" xlink:href="#R"/><use transform="matrix(0.0493827160493827,0,0,0.0493827160493827,108.59259259259255,0)" xlink:href="#Z"/><use transform="matrix(0.0493827160493827,0,0,0.0493827160493827,117.48148148148144,0)" xlink:href="#S"/><use transform="matrix(0.0493827160493827,0,0,0.0493827160493827,127.8518518518518,0)" xlink:href="#S"/></g><path fill="#3a414a" d="M160-131c35 5 61 23 61 61C221 17 115-2 30 0v-248c76 3 177-17 177 60 0 33-19 50-47 57zm-97-11c50-1 110 9 110-42 0-47-63-36-110-37v79zm0 115c55-2 124 14 124-45 0-56-70-42-124-44v89" id="aj"/><g id="l"><use transform="matrix(0.06172839506172839,0,0,0.06172839506172839,0,0)" xlink:href="#aj"/><use transform="matrix(0.06172839506172839,0,0,0.06172839506172839,14.814814814814813,0)" xlink:href="#U"/><use transform="matrix(0.06172839506172839,0,0,0.06172839506172839,27.160493827160494,0)" xlink:href="#Z"/><use transform="matrix(0.06172839506172839,0,0,0.06172839506172839,38.27160493827161,0)" xlink:href="#L"/><use transform="matrix(0.06172839506172839,0,0,0.06172839506172839,50.617283950617285,0)" xlink:href="#V"/><use transform="matrix(0.06172839506172839,0,0,0.06172839506172839,61.66666666666667,0)" xlink:href="#U"/><use transform="matrix(0.06172839506172839,0,0,0.06172839506172839,74.01234567901236,0)" xlink:href="#W"/><use transform="matrix(0.06172839506172839,0,0,0.06172839506172839,86.35802469135804,0)" xlink:href="#X"/><use transform="matrix(0.06172839506172839,0,0,0.06172839506172839,91.23456790123458,0)" xlink:href="#L"/></g><path fill="#3a414a" d="M30 0v-248h187v28H63v79h144v27H63v87h162V0H30" id="ak"/><path fill="#3a414a" d="M141 0L90-78 38 0H4l68-98-65-92h35l48 74 47-74h35l-64 92 68 98h-35" id="al"/><path fill="#3a414a" d="M233-177c-1 41-23 64-60 70L243 0h-38l-65-103H63V0H30v-248c88 3 205-21 203 71zM63-129c60-2 137 13 137-47 0-61-80-42-137-45v92" id="am"/><path fill="#3a414a" d="M137 0h-34L2-248h35l83 218 83-218h36" id="an"/><path fill="#3a414a" d="M206 0h-36l-40-164L89 0H53L-1-190h32L70-26l43-164h34l41 164 42-164h31" id="ao"/><g id="o"><use transform="matrix(0.06172839506172839,0,0,0.06172839506172839,0,0)" xlink:href="#ak"/><use transform="matrix(0.06172839506172839,0,0,0.06172839506172839,14.814814814814813,0)" xlink:href="#al"/><use transform="matrix(0.06172839506172839,0,0,0.06172839506172839,25.925925925925924,0)" xlink:href="#P"/><use transform="matrix(0.06172839506172839,0,0,0.06172839506172839,38.2716049382716,0)" xlink:href="#L"/><use transform="matrix(0.06172839506172839,0,0,0.06172839506172839,50.61728395061728,0)" xlink:href="#Y"/><use transform="matrix(0.06172839506172839,0,0,0.06172839506172839,57.962962962962955,0)" xlink:href="#ae"/><use transform="matrix(0.06172839506172839,0,0,0.06172839506172839,62.8395061728395,0)" xlink:href="#O"/><use transform="matrix(0.06172839506172839,0,0,0.06172839506172839,81.29629629629629,0)" xlink:href="#L"/><use transform="matrix(0.06172839506172839,0,0,0.06172839506172839,93.64197530864197,0)" xlink:href="#Q"/><use transform="matrix(0.06172839506172839,0,0,0.06172839506172839,105.98765432098766,0)" xlink:href="#R"/><use transform="matrix(0.06172839506172839,0,0,0.06172839506172839,112.1604938271605,0)" xlink:href="#am"/><use transform="matrix(0.06172839506172839,0,0,0.06172839506172839,128.14814814814815,0)" xlink:href="#L"/><use transform="matrix(0.06172839506172839,0,0,0.06172839506172839,140.49382716049382,0)" xlink:href="#Z"/><use transform="matrix(0.06172839506172839,0,0,0.06172839506172839,151.60493827160494,0)" xlink:href="#K"/><use transform="matrix(0.06172839506172839,0,0,0.06172839506172839,163.9506172839506,0)" xlink:href="#X"/><use transform="matrix(0.06172839506172839,0,0,0.06172839506172839,168.82716049382714,0)" xlink:href="#R"/><use transform="matrix(0.06172839506172839,0,0,0.06172839506172839,174.99999999999997,0)" xlink:href="#an"/><use transform="matrix(0.06172839506172839,0,0,0.06172839506172839,189.38271604938268,0)" xlink:href="#ae"/><use transform="matrix(0.06172839506172839,0,0,0.06172839506172839,194.2592592592592,0)" xlink:href="#L"/><use transform="matrix(0.06172839506172839,0,0,0.06172839506172839,206.60493827160488,0)" xlink:href="#ao"/></g><g id="p"><use transform="matrix(0.0493827160493827,0,0,0.0493827160493827,0,0)" xlink:href="#I"/><use transform="matrix(0.0493827160493827,0,0,0.0493827160493827,10.370370370370367,0)" xlink:href="#I"/><use transform="matrix(0.0493827160493827,0,0,0.0493827160493827,20.740740740740733,0)" xlink:href="#ac"/><use transform="matrix(0.0493827160493827,0,0,0.0493827160493827,30.617283950617267,0)" xlink:href="#U"/><use transform="matrix(0.0493827160493827,0,0,0.0493827160493827,40.49382716049381,0)" xlink:href="#R"/><use transform="matrix(0.0493827160493827,0,0,0.0493827160493827,45.43209876543208,0)" xlink:href="#U"/><use transform="matrix(0.0493827160493827,0,0,0.0493827160493827,55.30864197530861,0)" xlink:href="#S"/><use transform="matrix(0.0493827160493827,0,0,0.0493827160493827,65.67901234567898,0)" xlink:href="#S"/></g><path fill="#3a414a" d="M16-82v-28h88v28H16" id="ap"/><use transform="matrix(0.06172839506172839,0,0,0.06172839506172839,0,0)" xlink:href="#ap" id="q"/><g id="r"><use transform="matrix(0.06172839506172839,0,0,0.06172839506172839,0,0)" xlink:href="#L"/><use transform="matrix(0.06172839506172839,0,0,0.06172839506172839,12.345679012345679,0)" xlink:href="#al"/><use transform="matrix(0.06172839506172839,0,0,0.06172839506172839,23.45679012345679,0)" xlink:href="#P"/><use transform="matrix(0.06172839506172839,0,0,0.06172839506172839,35.80246913580247,0)" xlink:href="#L"/><use transform="matrix(0.06172839506172839,0,0,0.06172839506172839,48.148148148148145,0)" xlink:href="#Y"/><use transform="matrix(0.06172839506172839,0,0,0.06172839506172839,55.49382716049382,0)" xlink:href="#ae"/><use transform="matrix(0.06172839506172839,0,0,0.06172839506172839,60.37037037037037,0)" xlink:href="#O"/><use transform="matrix(0.06172839506172839,0,0,0.06172839506172839,78.82716049382715,0)" xlink:href="#L"/><use transform="matrix(0.06172839506172839,0,0,0.06172839506172839,91.17283950617283,0)" xlink:href="#Q"/><use transform="matrix(0.06172839506172839,0,0,0.06172839506172839,103.51851851851852,0)" xlink:href="#R"/><use transform="matrix(0.06172839506172839,0,0,0.06172839506172839,109.69135802469135,0)" xlink:href="#ad"/></g><g id="s"><use transform="matrix(0.06172839506172839,0,0,0.06172839506172839,0,0)" xlink:href="#ak"/><use transform="matrix(0.06172839506172839,0,0,0.06172839506172839,14.814814814814813,0)" xlink:href="#al"/><use transform="matrix(0.06172839506172839,0,0,0.06172839506172839,25.925925925925924,0)" xlink:href="#P"/><use transform="matrix(0.06172839506172839,0,0,0.06172839506172839,38.2716049382716,0)" xlink:href="#L"/><use transform="matrix(0.06172839506172839,0,0,0.06172839506172839,50.61728395061728,0)" xlink:href="#Y"/><use transform="matrix(0.06172839506172839,0,0,0.06172839506172839,57.962962962962955,0)" xlink:href="#ae"/><use transform="matrix(0.06172839506172839,0,0,0.06172839506172839,62.8395061728395,0)" xlink:href="#O"/><use transform="matrix(0.06172839506172839,0,0,0.06172839506172839,81.29629629629629,0)" xlink:href="#L"/><use transform="matrix(0.06172839506172839,0,0,0.06172839506172839,93.64197530864197,0)" xlink:href="#Q"/><use transform="matrix(0.06172839506172839,0,0,0.06172839506172839,105.98765432098766,0)" xlink:href="#R"/></g><g id="t"><use transform="matrix(0.0493827160493827,0,0,0.0493827160493827,0,0)" xlink:href="#I"/><use transform="matrix(0.0493827160493827,0,0,0.0493827160493827,10.370370370370367,0)" xlink:href="#I"/><use transform="matrix(0.0493827160493827,0,0,0.0493827160493827,20.740740740740733,0)" xlink:href="#M"/><use transform="matrix(0.0493827160493827,0,0,0.0493827160493827,29.62962962962962,0)" xlink:href="#N"/><use transform="matrix(0.0493827160493827,0,0,0.0493827160493827,39.506172839506156,0)" xlink:href="#O"/><use transform="matrix(0.0493827160493827,0,0,0.0493827160493827,54.27160493827157,0)" xlink:href="#P"/><use transform="matrix(0.0493827160493827,0,0,0.0493827160493827,64.14814814814812,0)" xlink:href="#N"/><use transform="matrix(0.0493827160493827,0,0,0.0493827160493827,74.02469135802467,0)" xlink:href="#Q"/><use transform="matrix(0.0493827160493827,0,0,0.0493827160493827,83.90123456790121,0)" xlink:href="#L"/><use transform="matrix(0.0493827160493827,0,0,0.0493827160493827,93.77777777777776,0)" xlink:href="#Q"/><use transform="matrix(0.0493827160493827,0,0,0.0493827160493827,103.6543209876543,0)" xlink:href="#R"/><use transform="matrix(0.0493827160493827,0,0,0.0493827160493827,108.59259259259255,0)" xlink:href="#Z"/><use transform="matrix(0.0493827160493827,0,0,0.0493827160493827,117.48148148148144,0)" xlink:href="#S"/><use transform="matrix(0.0493827160493827,0,0,0.0493827160493827,127.8518518518518,0)" xlink:href="#S"/></g><g id="u"><use transform="matrix(0.06172839506172839,0,0,0.06172839506172839,0,0)" xlink:href="#aj"/><use transform="matrix(0.06172839506172839,0,0,0.06172839506172839,14.814814814814813,0)" xlink:href="#K"/><use transform="matrix(0.06172839506172839,0,0,0.06172839506172839,27.160493827160494,0)" xlink:href="#R"/><use transform="matrix(0.06172839506172839,0,0,0.06172839506172839,33.333333333333336,0)" xlink:href="#R"/><use transform="matrix(0.06172839506172839,0,0,0.06172839506172839,39.50617283950618,0)" xlink:href="#N"/><use transform="matrix(0.06172839506172839,0,0,0.06172839506172839,51.851851851851855,0)" xlink:href="#Q"/></g><path fill="#3a414a" d="M212-179c-10-28-35-45-73-45-59 0-87 40-87 99 0 60 29 101 89 101 43 0 62-24 78-52l27 14C228-24 195 4 139 4 59 4 22-46 18-125c-6-104 99-153 187-111 19 9 31 26 39 46" id="aq"/><g id="v"><use transform="matrix(0.06172839506172839,0,0,0.06172839506172839,0,0)" xlink:href="#Z"/><use transform="matrix(0.06172839506172839,0,0,0.06172839506172839,11.11111111111111,0)" xlink:href="#K"/><use transform="matrix(0.06172839506172839,0,0,0.06172839506172839,23.45679012345679,0)" xlink:href="#O"/><use transform="matrix(0.06172839506172839,0,0,0.06172839506172839,41.91358024691358,0)" xlink:href="#O"/><use transform="matrix(0.06172839506172839,0,0,0.06172839506172839,60.37037037037037,0)" xlink:href="#U"/><use transform="matrix(0.06172839506172839,0,0,0.06172839506172839,72.71604938271605,0)" xlink:href="#Y"/><use transform="matrix(0.06172839506172839,0,0,0.06172839506172839,80.06172839506173,0)" xlink:href="#ai"/><use transform="matrix(0.06172839506172839,0,0,0.06172839506172839,91.17283950617285,0)" xlink:href="#aq"/><use transform="matrix(0.06172839506172839,0,0,0.06172839506172839,107.16049382716051,0)" xlink:href="#U"/><use transform="matrix(0.06172839506172839,0,0,0.06172839506172839,119.50617283950619,0)" xlink:href="#Y"/><use transform="matrix(0.06172839506172839,0,0,0.06172839506172839,126.85185185185188,0)" xlink:href="#ac"/></g><g id="w"><use transform="matrix(0.06172839506172839,0,0,0.06172839506172839,0,0)" xlink:href="#T"/><use transform="matrix(0.06172839506172839,0,0,0.06172839506172839,15.987654320987653,0)" xlink:href="#U"/><use transform="matrix(0.06172839506172839,0,0,0.06172839506172839,28.333333333333332,0)" xlink:href="#R"/><use transform="matrix(0.06172839506172839,0,0,0.06172839506172839,34.50617283950617,0)" xlink:href="#U"/><use transform="matrix(0.06172839506172839,0,0,0.06172839506172839,46.85185185185185,0)" xlink:href="#V"/><use transform="matrix(0.06172839506172839,0,0,0.06172839506172839,57.901234567901234,0)" xlink:href="#U"/><use transform="matrix(0.06172839506172839,0,0,0.06172839506172839,70.24691358024691,0)" xlink:href="#W"/><use transform="matrix(0.06172839506172839,0,0,0.06172839506172839,82.5925925925926,0)" xlink:href="#X"/><use transform="matrix(0.06172839506172839,0,0,0.06172839506172839,87.46913580246914,0)" xlink:href="#L"/></g><g id="x"><use transform="matrix(0.06172839506172839,0,0,0.06172839506172839,0,0)" xlink:href="#am"/><use transform="matrix(0.06172839506172839,0,0,0.06172839506172839,15.987654320987653,0)" xlink:href="#N"/><use transform="matrix(0.06172839506172839,0,0,0.06172839506172839,28.333333333333332,0)" xlink:href="#M"/><use transform="matrix(0.06172839506172839,0,0,0.06172839506172839,39.44444444444444,0)" xlink:href="#aq"/><use transform="matrix(0.06172839506172839,0,0,0.06172839506172839,55.432098765432094,0)" xlink:href="#K"/><use transform="matrix(0.06172839506172839,0,0,0.06172839506172839,67.77777777777777,0)" xlink:href="#Y"/><use transform="matrix(0.06172839506172839,0,0,0.06172839506172839,75.12345679012346,0)" xlink:href="#J"/><use transform="matrix(0.06172839506172839,0,0,0.06172839506172839,86.23456790123457,0)" xlink:href="#L"/><use transform="matrix(0.06172839506172839,0,0,0.06172839506172839,98.58024691358025,0)" xlink:href="#Z"/><use transform="matrix(0.06172839506172839,0,0,0.06172839506172839,109.69135802469137,0)" xlink:href="#aq"/><use transform="matrix(0.06172839506172839,0,0,0.06172839506172839,125.67901234567903,0)" xlink:href="#U"/><use transform="matrix(0.06172839506172839,0,0,0.06172839506172839,138.0246913580247,0)" xlink:href="#Y"/><use transform="matrix(0.06172839506172839,0,0,0.06172839506172839,145.37037037037038,0)" xlink:href="#ac"/></g><path fill="#3a414a" d="M106-169C34-169 62-67 57 0H25v-261h32l-1 103c12-21 28-36 61-36 89 0 53 116 60 194h-32v-121c2-32-8-49-39-48" id="ar"/><g id="y"><use transform="matrix(0.0493827160493827,0,0,0.0493827160493827,0,0)" xlink:href="#I"/><use transform="matrix(0.0493827160493827,0,0,0.0493827160493827,10.370370370370367,0)" xlink:href="#I"/><use transform="matrix(0.0493827160493827,0,0,0.0493827160493827,20.740740740740733,0)" xlink:href="#O"/><use transform="matrix(0.0493827160493827,0,0,0.0493827160493827,35.50617283950616,0)" xlink:href="#L"/><use transform="matrix(0.0493827160493827,0,0,0.0493827160493827,45.3827160493827,0)" xlink:href="#R"/><use transform="matrix(0.0493827160493827,0,0,0.0493827160493827,50.32098765432097,0)" xlink:href="#ar"/><use transform="matrix(0.0493827160493827,0,0,0.0493827160493827,60.19753086419751,0)" xlink:href="#N"/><use transform="matrix(0.0493827160493827,0,0,0.0493827160493827,70.07407407407405,0)" xlink:href="#ac"/><use transform="matrix(0.0493827160493827,0,0,0.0493827160493827,79.95061728395059,0)" xlink:href="#Z"/><use transform="matrix(0.0493827160493827,0,0,0.0493827160493827,88.83950617283948,0)" xlink:href="#S"/><use transform="matrix(0.0493827160493827,0,0,0.0493827160493827,99.20987654320984,0)" xlink:href="#S"/></g><use transform="matrix(0.06172839506172839,0,0,0.06172839506172839,0,0)" xlink:href="#aa" id="z"/><path fill="#3a414a" d="M63-220v92h138v28H63V0H30v-248h175v28H63" id="as"/><path fill="#3a414a" d="M87 75C49 33 22-17 22-94c0-76 28-126 65-167h31c-38 41-64 92-64 168S80 34 118 75H87" id="at"/><path fill="#3a414a" d="M33-261c38 41 65 92 65 168S71 34 33 75H2C39 34 66-17 66-93S39-220 2-261h31" id="au"/><g id="A"><use transform="matrix(0.06172839506172839,0,0,0.06172839506172839,0,0)" xlink:href="#ac"/><use transform="matrix(0.06172839506172839,0,0,0.06172839506172839,12.345679012345679,0)" xlink:href="#N"/><use transform="matrix(0.06172839506172839,0,0,0.06172839506172839,24.691358024691358,0)" xlink:href="#ao"/><use transform="matrix(0.06172839506172839,0,0,0.06172839506172839,40.67901234567901,0)" xlink:href="#Q"/><use transform="matrix(0.06172839506172839,0,0,0.06172839506172839,53.02469135802469,0)" xlink:href="#X"/><use transform="matrix(0.06172839506172839,0,0,0.06172839506172839,57.901234567901234,0)" xlink:href="#N"/><use transform="matrix(0.06172839506172839,0,0,0.06172839506172839,70.24691358024691,0)" xlink:href="#U"/><use transform="matrix(0.06172839506172839,0,0,0.06172839506172839,82.5925925925926,0)" xlink:href="#ac"/><use transform="matrix(0.06172839506172839,0,0,0.06172839506172839,94.93827160493828,0)" xlink:href="#as"/><use transform="matrix(0.06172839506172839,0,0,0.06172839506172839,108.4567901234568,0)" xlink:href="#ae"/><use transform="matrix(0.06172839506172839,0,0,0.06172839506172839,113.33333333333334,0)" xlink:href="#X"/><use transform="matrix(0.06172839506172839,0,0,0.06172839506172839,118.20987654320989,0)" xlink:href="#L"/><use transform="matrix(0.06172839506172839,0,0,0.06172839506172839,130.55555555555557,0)" xlink:href="#at"/><use transform="matrix(0.06172839506172839,0,0,0.06172839506172839,137.90123456790124,0)" xlink:href="#au"/></g><g id="B"><use transform="matrix(0.06172839506172839,0,0,0.06172839506172839,0,0)" xlink:href="#O"/><use transform="matrix(0.06172839506172839,0,0,0.06172839506172839,18.456790123456788,0)" xlink:href="#N"/><use transform="matrix(0.06172839506172839,0,0,0.06172839506172839,30.80246913580247,0)" xlink:href="#K"/><use transform="matrix(0.06172839506172839,0,0,0.06172839506172839,43.148148148148145,0)" xlink:href="#Q"/><use transform="matrix(0.06172839506172839,0,0,0.06172839506172839,55.49382716049382,0)" xlink:href="#R"/><use transform="matrix(0.06172839506172839,0,0,0.06172839506172839,61.666666666666664,0)" xlink:href="#L"/><use transform="matrix(0.06172839506172839,0,0,0.06172839506172839,74.01234567901234,0)" xlink:href="#ac"/><use transform="matrix(0.06172839506172839,0,0,0.06172839506172839,86.35802469135803,0)" xlink:href="#at"/><use transform="matrix(0.06172839506172839,0,0,0.06172839506172839,93.70370370370371,0)" xlink:href="#au"/></g><path fill="#3a414a" d="M185-189c-5-48-123-54-124 2 14 75 158 14 163 119 3 78-121 87-175 55-17-10-28-26-33-46l33-7c5 56 141 63 141-1 0-78-155-14-162-118-5-82 145-84 179-34 5 7 8 16 11 25" id="av"/><g id="C"><use transform="matrix(0.06172839506172839,0,0,0.06172839506172839,0,0)" xlink:href="#ak"/><use transform="matrix(0.06172839506172839,0,0,0.06172839506172839,14.814814814814813,0)" xlink:href="#al"/><use transform="matrix(0.06172839506172839,0,0,0.06172839506172839,25.925925925925924,0)" xlink:href="#P"/><use transform="matrix(0.06172839506172839,0,0,0.06172839506172839,38.2716049382716,0)" xlink:href="#L"/><use transform="matrix(0.06172839506172839,0,0,0.06172839506172839,50.61728395061728,0)" xlink:href="#Y"/><use transform="matrix(0.06172839506172839,0,0,0.06172839506172839,57.962962962962955,0)" xlink:href="#ae"/><use transform="matrix(0.06172839506172839,0,0,0.06172839506172839,62.8395061728395,0)" xlink:href="#O"/><use transform="matrix(0.06172839506172839,0,0,0.06172839506172839,81.29629629629629,0)" xlink:href="#L"/><use transform="matrix(0.06172839506172839,0,0,0.06172839506172839,93.64197530864197,0)" xlink:href="#Q"/><use transform="matrix(0.06172839506172839,0,0,0.06172839506172839,105.98765432098766,0)" xlink:href="#R"/><use transform="matrix(0.06172839506172839,0,0,0.06172839506172839,112.1604938271605,0)" xlink:href="#av"/><use transform="matrix(0.06172839506172839,0,0,0.06172839506172839,126.9753086419753,0)" xlink:href="#K"/><use transform="matrix(0.06172839506172839,0,0,0.06172839506172839,139.320987654321,0)" xlink:href="#O"/><use transform="matrix(0.06172839506172839,0,0,0.06172839506172839,157.77777777777777,0)" xlink:href="#O"/><use transform="matrix(0.06172839506172839,0,0,0.06172839506172839,176.23456790123456,0)" xlink:href="#U"/><use transform="matrix(0.06172839506172839,0,0,0.06172839506172839,188.58024691358023,0)" xlink:href="#Y"/><use transform="matrix(0.06172839506172839,0,0,0.06172839506172839,195.9259259259259,0)" xlink:href="#ai"/><use transform="matrix(0.06172839506172839,0,0,0.06172839506172839,207.037037037037,0)" xlink:href="#aq"/><use transform="matrix(0.06172839506172839,0,0,0.06172839506172839,223.02469135802465,0)" xlink:href="#U"/><use transform="matrix(0.06172839506172839,0,0,0.06172839506172839,235.37037037037032,0)" xlink:href="#Y"/><use transform="matrix(0.06172839506172839,0,0,0.06172839506172839,242.716049382716,0)" xlink:href="#ac"/></g><g id="D"><use transform="matrix(0.06172839506172839,0,0,0.06172839506172839,0,0)" xlink:href="#L"/><use transform="matrix(0.06172839506172839,0,0,0.06172839506172839,12.345679012345679,0)" xlink:href="#al"/><use transform="matrix(0.06172839506172839,0,0,0.06172839506172839,23.45679012345679,0)" xlink:href="#P"/><use transform="matrix(0.06172839506172839,0,0,0.06172839506172839,35.80246913580247,0)" xlink:href="#L"/><use transform="matrix(0.06172839506172839,0,0,0.06172839506172839,48.148148148148145,0)" xlink:href="#Y"/><use transform="matrix(0.06172839506172839,0,0,0.06172839506172839,55.49382716049382,0)" xlink:href="#ae"/><use transform="matrix(0.06172839506172839,0,0,0.06172839506172839,60.37037037037037,0)" xlink:href="#O"/><use transform="matrix(0.06172839506172839,0,0,0.06172839506172839,78.82716049382715,0)" xlink:href="#L"/><use transform="matrix(0.06172839506172839,0,0,0.06172839506172839,91.17283950617283,0)" xlink:href="#Q"/><use transform="matrix(0.06172839506172839,0,0,0.06172839506172839,103.51851851851852,0)" xlink:href="#R"/><use transform="matrix(0.06172839506172839,0,0,0.06172839506172839,109.69135802469135,0)" xlink:href="#ad"/></g><g id="E"><use transform="matrix(0.06172839506172839,0,0,0.06172839506172839,0,0)" xlink:href="#ak"/><use transform="matrix(0.06172839506172839,0,0,0.06172839506172839,14.814814814814813,0)" xlink:href="#al"/><use transform="matrix(0.06172839506172839,0,0,0.06172839506172839,25.925925925925924,0)" xlink:href="#P"/><use transform="matrix(0.06172839506172839,0,0,0.06172839506172839,38.2716049382716,0)" xlink:href="#L"/><use transform="matrix(0.06172839506172839,0,0,0.06172839506172839,50.61728395061728,0)" xlink:href="#Y"/><use transform="matrix(0.06172839506172839,0,0,0.06172839506172839,57.962962962962955,0)" xlink:href="#ae"/><use transform="matrix(0.06172839506172839,0,0,0.06172839506172839,62.8395061728395,0)" xlink:href="#O"/><use transform="matrix(0.06172839506172839,0,0,0.06172839506172839,81.29629629629629,0)" xlink:href="#L"/><use transform="matrix(0.06172839506172839,0,0,0.06172839506172839,93.64197530864197,0)" xlink:href="#Q"/><use transform="matrix(0.06172839506172839,0,0,0.06172839506172839,105.98765432098766,0)" xlink:href="#R"/></g><g id="F"><use transform="matrix(0.06172839506172839,0,0,0.06172839506172839,0,0)" xlink:href="#aq"/><use transform="matrix(0.06172839506172839,0,0,0.06172839506172839,15.987654320987653,0)" xlink:href="#U"/><use transform="matrix(0.06172839506172839,0,0,0.06172839506172839,28.333333333333332,0)" xlink:href="#Y"/><use transform="matrix(0.06172839506172839,0,0,0.06172839506172839,35.67901234567901,0)" xlink:href="#ac"/></g><g id="G"><use transform="matrix(0.06172839506172839,0,0,0.06172839506172839,0,0)" xlink:href="#am"/><use transform="matrix(0.06172839506172839,0,0,0.06172839506172839,15.987654320987653,0)" xlink:href="#N"/><use transform="matrix(0.06172839506172839,0,0,0.06172839506172839,28.333333333333332,0)" xlink:href="#M"/><use transform="matrix(0.06172839506172839,0,0,0.06172839506172839,39.44444444444444,0)" xlink:href="#aq"/><use transform="matrix(0.06172839506172839,0,0,0.06172839506172839,55.432098765432094,0)" xlink:href="#K"/><use transform="matrix(0.06172839506172839,0,0,0.06172839506172839,67.77777777777777,0)" xlink:href="#Y"/><use transform="matrix(0.06172839506172839,0,0,0.06172839506172839,75.12345679012346,0)" xlink:href="#J"/><use transform="matrix(0.06172839506172839,0,0,0.06172839506172839,86.23456790123457,0)" xlink:href="#L"/><use transform="matrix(0.06172839506172839,0,0,0.06172839506172839,98.58024691358025,0)" xlink:href="#Z"/><use transform="matrix(0.06172839506172839,0,0,0.06172839506172839,109.69135802469137,0)" xlink:href="#aq"/><use transform="matrix(0.06172839506172839,0,0,0.06172839506172839,125.67901234567903,0)" xlink:href="#U"/><use transform="matrix(0.06172839506172839,0,0,0.06172839506172839,138.0246913580247,0)" xlink:href="#Y"/><use transform="matrix(0.06172839506172839,0,0,0.06172839506172839,145.37037037037038,0)" xlink:href="#ac"/></g><path d="M27 0v-27h64v-190l-56 39v-29l58-41h29v221h61V0H27" id="aw"/><use transform="matrix(0.05,0,0,0.05,0,0)" xlink:href="#aw" id="H"/></defs></g></svg>