<svg xmlns="http://www.w3.org/2000/svg" xmlns:xlink="http://www.w3.org/1999/xlink" xmlns:lucid="lucid" width="3037.59" height="1854.19"><g transform="translate(2740 238)" lucid:page-tab-id="AnBnv_ZC6HXm"><path d="M-2720-218h557.6v34.36H-2720z" stroke="#000" stroke-opacity="0" stroke-width="2" fill-opacity="0"/><use xlink:href="#a" transform="matrix(1,0,0,1,-2713.999999999998,-212) translate(7 17.77777777777778)"/><path d="M-2720-181v-39h240l10.95 35.4M-2720-181.03v1.03" stroke="#3a414a" stroke-width="2" fill="none"/><path d="M-2467.7-183.64h-2.1l-.2-.68 1.9-.6z" stroke="#3a414a" stroke-width=".05" fill="#3a414a"/><path d="M-2720-183.64H60V1140h-2780z" stroke="#333" stroke-width="2" fill-opacity="0"/><path d="M-2680 322.85h585.36v48.97H-2680z" stroke="#000" stroke-opacity="0" stroke-width="2" fill-opacity="0"/><use xlink:href="#b" transform="matrix(1,0,0,1,-2673.9999999999955,328.85024482189147) translate(7 22.40277777777778)"/><path d="M-2680 376v-56h304.08l41.7 50.05M-2680 375.98V377" stroke="#3a414a" stroke-width="2" fill="none"/><path d="M-2332.28 370.82h-2.6l-.12-.14 1.53-1.3z" stroke="#3a414a" stroke-width=".05" fill="#3a414a"/><path d="M-2680 371.82h360V560h-360z" stroke="#333" stroke-width="2" fill-opacity="0"/><path d="M-1260 1413.9h557.6v34.36H-1260z" stroke="#000" stroke-opacity="0" stroke-width="2" fill-opacity="0"/><use xlink:href="#c" transform="matrix(1,0,0,1,-1253.9999999999964,1419.8975922550494) translate(7 17.77777777777778)"/><path d="M-1260 1450.9v-39h193.1l21.13 35.5M-1260 1450.87v1.03" stroke="#3a414a" stroke-width="2" fill="none"/><path d="M-1044.1 1448.26h-2.33l-.2-.37 1.7-1.03z" stroke="#3a414a" stroke-width=".05" fill="#3a414a"/><path d="M-1260 1448.26h257.85v147.93H-1260z" stroke="#333" stroke-width="2" fill-opacity="0"/><path d="M-980 685.7h577.5v48.97H-980z" stroke="#000" stroke-opacity="0" stroke-width="2" fill-opacity="0"/><use xlink:href="#d" transform="matrix(1,0,0,1,-973.9999999999964,691.7004896437825) translate(7 22.40277777777778)"/><path d="M-980 738.86v-56h500l36.73 44.34M-980 738.83v1.02" stroke="#3a414a" stroke-width="2" fill="none"/><path d="M-441.34 727.97h-2.6l-.12-.15 1.54-1.28z" stroke="#3a414a" stroke-width=".05" fill="#3a414a"/><path d="M-980 728.97h540v213.88h-540zM-1602.5 731.82h540v205.33h-540z" stroke="#333" stroke-width="2" fill-opacity="0"/><path d="M-1602.5 682.85h577.5v48.97h-577.5z" stroke="#000" stroke-opacity="0" stroke-width="2" fill-opacity="0"/><use xlink:href="#e" transform="matrix(1,0,0,1,-1596.4999999999927,688.8502448218912) translate(7 22.40277777777778)"/><path d="M-1065.27 730.43l-1.63 1.16L-1103 681h-498.48v55h-2v-57h501.52zM-1601.5 737h-2V736h2z" stroke="#3a414a" stroke-width=".05" fill="#3a414a"/><path d="M-1064.27 731.82h-2.46l-.18-.25 1.62-1.16z" fill="#3a414a"/><path d="M-1064.22 731.85h-2.52l-.2-.3 1.66-1.18zm-2.65-.27l.15.22h2.4l-.97-1.36z" stroke="#3a414a" stroke-width=".05" fill="#3a414a"/><path d="M-2160 682.85h577.5v48.97H-2160z" stroke="#000" stroke-opacity="0" stroke-width="2" fill-opacity="0"/><use xlink:href="#f" transform="matrix(1,0,0,1,-2153.9999999999964,688.8502448218912) translate(7 22.40277777777778)"/><path d="M-2160 736v-56h420l16.6 50.87M-2160 735.98V737" stroke="#3a414a" stroke-width="2" fill="none"/><path d="M-1722.03 731.82h-2.1l-.22-.66 1.9-.62z" stroke="#3a414a" stroke-width=".05" fill="#3a414a"/><path d="M-2160 731.82h462.5V940H-2160z" stroke="#333" stroke-width="2" fill-opacity="0"/><path d="M-440-51.45h577.5v48.97H-440z" stroke="#000" stroke-opacity="0" stroke-width="2" fill-opacity="0"/><use xlink:href="#g" transform="matrix(1,0,0,1,-433.9999999999963,-45.44926553432583) translate(7 22.40277777777778)"/><path d="M-440 1.7v-56h380l19.52 50.9M-440 1.68V2.7" stroke="#3a414a" stroke-width="2" fill="none"/><path d="M-39.05-2.48h-2.14l-.22-.6 1.87-.7z" stroke="#3a414a" stroke-width=".05" fill="#3a414a"/><path d="M-440-2.48h420V205.7h-420z" stroke="#333" stroke-width="2" fill-opacity="0"/><path d="M-1000-57.15h577.5v48.97H-1000z" stroke="#000" stroke-opacity="0" stroke-width="2" fill-opacity="0"/><use xlink:href="#h" transform="matrix(1,0,0,1,-993.9999999999964,-51.14975517810876) translate(7 22.40277777777778)"/><path d="M-1000-4v-56h380l19.52 50.9M-1000-4.02V-3" stroke="#3a414a" stroke-width="2" fill="none"/><path d="M-599.05-8.18h-2.14l-.22-.6 1.87-.7z" stroke="#3a414a" stroke-width=".05" fill="#3a414a"/><path d="M-1000-8.18h420V200h-420z" stroke="#333" stroke-width="2" fill-opacity="0"/><path d="M-1620-57.15h440v48.97h-440z" stroke="#000" stroke-opacity="0" stroke-width="2" fill-opacity="0"/><use xlink:href="#i" transform="matrix(1,0,0,1,-1613.9999999999964,-51.14975517810876) translate(7 22.40277777777778)"/><path d="M-1620-4v-56h420l30.96 49.97M-1620-4.02V-3" stroke="#3a414a" stroke-width="2" fill="none"/><path d="M-1167.34-9.18h-2.35l-.2-.34 1.7-1.06z" stroke="#3a414a" stroke-width=".05" fill="#3a414a"/><path d="M-1620-8.18h460V209.2h-460z" stroke="#333" stroke-width="2" fill-opacity="0"/><path d="M-2180-57.15h577.5v48.97H-2180z" stroke="#000" stroke-opacity="0" stroke-width="2" fill-opacity="0"/><use xlink:href="#j" transform="matrix(1,0,0,1,-2173.9999999999964,-51.14975517810876) translate(7 22.40277777777778)"/><path d="M-2180-4v-56h380l25.62 49.93M-2180-4.02V-3" stroke="#3a414a" stroke-width="2" fill="none"/><path d="M-1772.8-9.18h-2.25l-.24-.45 1.8-.92z" stroke="#3a414a" stroke-width=".05" fill="#3a414a"/><path d="M-2180-8.18h440V209.2h-440z" stroke="#333" stroke-width="2" fill-opacity="0"/><path d="M-280 767.9h557.6v34.35H-280z" stroke="#000" stroke-opacity="0" stroke-width="2" fill-opacity="0"/><use xlink:href="#k" transform="matrix(1,0,0,1,-273.9999999999968,773.8895905301262) translate(7 17.77777777777778)"/><path d="M-280 804.9v-39h193.1l21.13 35.5M-280 804.86v1.03" stroke="#3a414a" stroke-width="2" fill="none"/><path d="M-64.1 802.25h-2.33l-.2-.37 1.7-1.02z" stroke="#3a414a" stroke-width=".05" fill="#3a414a"/><path d="M-280 802.25H15.64v140.6H-280z" stroke="#333" stroke-width="2" fill-opacity="0"/><path d="M-480 1239.33H97.5v34.37H-480z" stroke="#000" stroke-opacity="0" stroke-width="2" fill-opacity="0"/><use xlink:href="#l" transform="matrix(1,0,0,1,-473.99999999999636,1245.3328771918914) translate(7 17.77777777777778)"/><path d="M-480 1276.33v-39h200l31.83 35.62M-480 1276.3v1.03" stroke="#3a414a" stroke-width="2" fill="none"/><path d="M-246.16 1273.7h-2.68l-.1-.1 1.5-1.33z" stroke="#3a414a" stroke-width=".05" fill="#3a414a"/><path d="M-480 1273.7h240v138.2h-240z" stroke="#333" stroke-width="2" fill-opacity="0"/><path d="M-1903.98 364.5" stroke="#3a414a" stroke-width="2" fill="none"/><path d="M-900 1237.33h557.6v34.37H-900z" stroke="#000" stroke-opacity="0" stroke-width="2" fill-opacity="0"/><use xlink:href="#m" transform="matrix(1,0,0,1,-893.9999999999982,1243.3328771918914) translate(7 17.77777777777778)"/><path d="M-900 1274.33v-39h193.1l21.13 35.5M-900 1274.3v1.03" stroke="#3a414a" stroke-width="2" fill="none"/><path d="M-684.1 1271.7h-2.32l-.23-.37 1.72-1.03z" stroke="#3a414a" stroke-width=".05" fill="#3a414a"/><path d="M-900 1271.7h269.73v131.43H-900z" stroke="#333" stroke-width="2" fill-opacity="0"/><path d="M-482.82 1343.8h-23.2v-2h23.2zm-121.97-5.4h-23.47v-2h23.48z" stroke="#000" stroke-width=".05"/><path d="M-628.24 1338.4h-1.03v-2h1.03z"/><path d="M-628.22 1338.44h-1.07v-2.05h1.08zm-1.02-2v1.95h.97v-1.96zM-481 1342.8l-18.67 11.04-1.02-1.72 15.77-9.32-15.76-9.32 1.03-1.72z" stroke="#000" stroke-width=".05"/><use xlink:href="#n" transform="matrix(1,0,0,1,-600.4912841913571,1329.4386417521948) translate(0 14.222222222222218)"/><path d="M-1414.57 1174.96l.06.82.17.76.3.73.4.67.52.6.6.5.66.4.72.3.76.2.83.06h20v2h-20.08l-1.07-.08-1.07-.26-1-.42-.95-.57-.83-.72-.7-.83-.58-.94-.43-1.02-.26-1.06-.07-1.06V1142h2zm85.2 7.04h-40.1v-2h40.1zm60.13 0h-40.1v-2h40.1zm60.14 0h-40.1v-2h40.1zm60.15 0h-40.1v-2h40.1zm60.14 0h-40.1v-2h40.1zm60.13 0h-40.1v-2h40.1zm60.15 0h-40.1v-2h40.1zm60.14 0h-40.1v-2h40.1zm60.14 0h-40.1v-2h40.1zm60.14 0h-40.1v-2h40.1zm60.15 0h-40.1v-2h40.1zm60.14 0h-40.1v-2h40.1zm60.13 0h-40.1v-2h40.1zm60.15 0h-40.1v-2h40.1zm60.14 0h-40.1v-2h40.1zm60.14 0h-40.1v-2h40.1zm25.8 0h-5.75v-2h5.75zm81.44-11.67h-2v-15.1h2zm0-34.86h-2v-39.52h2zm0-59.3h-2v-39.5h2zm0-59.28h-2v-39.53h2zm0-59.3h-2V918.1h2zm37.18-84.05h-32.14l-.82.07-.76.18-.73.3-.67.4-.6.52-.5.6-.4.66-.3.73-.2.77-.06.82v19.72h-2v-19.8l.08-1.06.26-1.07.42-1.03.57-.94.72-.83.83-.7.94-.6 1.02-.4 1.06-.26 1.06-.1h32.22z" stroke="#000" stroke-width=".05"/><path d="M-1414.57 1142.03h-2V1141h2z"/><path d="M-1414.55 1142.05h-2.05v-1.08h2.05zm-2-1.02v.97h1.95v-.97zM-281 872.55l-18.67 11.04-1.02-1.73 15.77-9.32-15.76-9.32 1.03-1.72z" stroke="#000" stroke-width=".05"/><use xlink:href="#n" transform="matrix(1,0,0,1,-401.4453943496081,1170.3333336969692) translate(0 14.222222222222218)"/><path d="M-1959 391.56l-.08 1.06-.26 1.07-.42 1-.57.94-.72.83-.83.72-.94.56-1.02.42-1.06.26-1.06.08h-19.8v-2h19.72l.82-.06.76-.2.73-.3.67-.4.6-.5.5-.6.4-.67.3-.73.2-.77.06-.82v-20h2zm-46.52 6.96h-39.52v-2h39.52zm-59.28 0h-39.52v-2h39.52zm-59.28 0h-39.52v-2h39.52zm-59.28 0h-39.52v-2h39.52zm-59.28 0h-39.52v-2h39.52zm-59.28 0h-19.76v-2h19.76zm342.92-47.07h-2v-40.07h2zm0-60.1h-2v-40.08h2z" stroke="#000" stroke-width=".05"/><path/><path stroke="#000" stroke-width=".05"/><path d="M-2303.8 388.2l-15.77 9.32 15.76 9.32-1.03 1.72-18.67-11.04 18.67-11.04z" stroke="#000" stroke-width=".05"/><use xlink:href="#n" transform="matrix(1,0,0,1,-2005.3580246913507,210.05407435391848) translate(0 14.222222222222218)"/><path d="M-1389 391.73l-.08 1.06-.26 1.05-.42 1.02-.57.94-.72.84-.83.72-.94.57-1.02.42-1.06.26-1.06.1h-19.42v-2h19.34l.82-.07.76-.2.73-.3.67-.4.6-.5.5-.6.4-.67.3-.73.2-.76.06-.82v-20h2zm-45.77 6.96h-38.76v-2h38.76zm-58.15 0h-38.76v-2h38.76zm-58.15 0h-38.77v-2h38.77zm-58.15 0H-1648v-2h38.78zm-58.15 0h-38.77v-2h38.77zm-58.15 0h-38.77v-2h38.78zm-58.15 0h-38.77v-2h38.77zm-58.15 0h-38.77v-2h38.78zm-58.15 0h-38.77v-2h38.77zm-58.15 0h-38.77v-2h38.78zm-58.16 0h-38.76v-2h38.76zm-58.15 0h-38.76v-2h38.77zm-58.15 0h-38.76v-2h38.76zm-58.15 0h-38.76v-2h38.77zm-58.15 0h-38.76v-2h38.76zm-58.15 0h-19.38v-2h19.37zm918.03-47.12h-2v-40.1h2zm0-60.16h-2V270.6h2zm0-60.16h-2V211.2h2z" stroke="#000" stroke-width=".05"/><path d="M-1389 211.23h-2v-1.03h2z"/><path d="M-1388.97 211.25h-2.06v-1.07h2.06zm-2-1.02v.97h1.94v-.97zM-2308.54 388.37l-15.76 9.32 15.76 9.3-1.02 1.73-18.67-11.04 18.67-11.05z" stroke="#000" stroke-width=".05"/><use xlink:href="#n" transform="matrix(1,0,0,1,-1435.3580246913507,249.26658303631368) translate(0 14.222222222222218)"/><path d="M-789 391.73l-.08 1.06-.26 1.05-.42 1.02-.57.94-.72.84-.83.72-.94.57-1.02.42-1.06.26-1.06.1h-19.66v-2h19.58l.82-.07.76-.2.73-.3.67-.4.6-.5.5-.6.4-.67.3-.73.2-.76.06-.82V370.6h2zm-46.24 6.96h-39.24v-2h39.24zm-58.86 0h-39.25v-2h39.25zm-58.87 0h-39.24v-2h39.24zm-58.86 0h-39.24v-2h39.24zm-58.86 0h-39.23v-2h39.24zm-58.85 0h-39.24v-2h39.25zm-58.86 0h-39.25v-2h39.24zm-58.88 0h-39.24v-2h39.24zm-58.86 0h-39.24v-2h39.24zm-58.86 0h-39.24v-2h39.24zm-58.86 0h-39.24v-2h39.24zm-58.86 0h-39.24v-2h39.24zm-58.87 0h-39.23v-2h39.24zm-58.85 0h-39.24v-2h39.25zm-58.86 0h-39.25v-2h39.24zm-58.87 0h-39.24v-2h39.23zm-58.86 0h-39.25v-2h39.25zm-58.87 0h-39.24v-2h39.24zm-58.86 0H-1934v-2h39.24zm-58.86 0h-39.24v-2h39.24zm-58.86 0h-39.24v-2h39.24zm-58.86 0h-39.24v-2h39.24zm-58.87 0h-39.25v-2h39.24zm-58.87 0h-39.24v-2h39.23zm-58.86 0h-39.24v-2h39.24zm-58.86 0h-19.6v-2h19.6zm1517.8-60h-2V307.4h2zm0-52.4h-2v-42.15h2zm0-63.22h-2V202h2z" stroke="#000" stroke-width=".05"/><path d="M-789 202.03h-2V201h2z"/><path d="M-788.98 202.05H-791v-1.08h2.04zm-2-1.03v.98h1.96v-.97zM-2308.54 388.37l-15.76 9.32 15.76 9.3-1.02 1.73-18.67-11.04 18.67-11.05z" stroke="#000" stroke-width=".05"/><use xlink:href="#n" transform="matrix(1,0,0,1,-835.3580246913507,338.70918239542635) translate(0 14.222222222222218)"/><path d="M-229 391.73l-.08 1.06-.26 1.05-.42 1.02-.57.94-.72.84-.83.72-.94.57-1.02.42-1.06.26-1.06.1h-19.95v-2h19.86l.82-.07.76-.2.73-.3.67-.4.6-.5.5-.6.4-.67.3-.73.2-.76.06-.82v-20.4h2zm-166.27 6.96h-39.82v-2h39.83zm-59.73 0h-39.8v-2h39.8zm-59.72 0h-39.82v-2h39.82zm-59.73 0h-39.8v-2h39.8zm-59.72 0H-674v-2h39.83zm-59.73 0h-39.82v-2h39.82zm-59.73 0h-39.8v-2h39.8zm-59.72 0h-39.82v-2h39.82zm-59.73 0h-39.8v-2h39.8zm-59.72 0h-39.82v-2h39.82zm-59.73 0h-39.82v-2h39.82zm-59.73 0h-39.8v-2h39.8zm-59.72 0h-39.82v-2h39.82zm-59.73 0h-39.83v-2h39.82zm-59.73 0h-39.82v-2h39.82zm-59.73 0h-39.82v-2h39.82zm-59.73 0h-39.8v-2h39.8zm-59.7 0h-39.83v-2h39.82zm-59.74 0h-39.82v-2h39.82zm-59.73 0h-39.8v-2h39.8zm-59.72 0h-39.8v-2h39.8zm-59.72 0h-39.8v-2h39.8zm-59.72 0h-39.82v-2h39.82zm-59.73 0h-39.82v-2h39.83zm-59.72 0h-39.8v-2h39.8zm-59.72 0h-39.82v-2h39.82zm-59.73 0h-39.8v-2h39.8zm-59.72 0h-39.82v-2h39.83zm-59.73 0h-39.82v-2h39.82zm-59.73 0h-39.8v-2h39.8zm-59.72 0h-39.82v-2h39.82zm-59.73 0h-39.8v-2h39.8zm-59.72 0h-19.9v-2h19.9zm2030.68 0h-15.07v-2h15.08zm46.82-47.9h-2v-40.88h2zm0-61.33h-2V248.6h2zm0-61.33h-2V207.7h2z" stroke="#000" stroke-width=".05"/><path d="M-229 207.73h-2v-1.03h2z"/><path d="M-228.97 207.75h-2.06v-1.07h2.06zm-2-1.03v.98h1.94v-.97zM-2308.54 388.37l-15.76 9.32 15.76 9.3-1.02 1.73-18.67-11.04 18.67-11.05z" stroke="#000" stroke-width=".05"/><use xlink:href="#n" transform="matrix(1,0,0,1,-381.60579371879356,387.0226183683298) translate(0 14.222222222222218)"/><path d="M-1930.86 679h-2v-18.35h2zm0-36.7h-2v-36.72h2zm0-55.07h-2v-31.8h2zm0-55.06h-2v-36.7h2zm0-55.06h-2v-36.7h2zm-5.9-80.33l1.06.26 1.02.42.93.57.84.72.7.83.58.94.42 1.02.25 1.07.1 1.05v18.4h-2v-18.32l-.08-.82-.18-.75-.3-.73-.42-.67-.5-.6-.6-.5-.67-.4-.72-.3-.76-.2-.82-.06h-21.55v-2h21.63zm-44.28 1.92h-43.17v-2h43.16zm-64.75 0h-43.17v-2h43.18zm-64.75 0h-43.17v-2h43.17zm-64.76 0h-43.18v-2h43.17zm-64.77 0h-43.17v-2h43.17zm-64.76 0h-21.58v-2h21.57z" stroke="#000" stroke-width=".05"/><path d="M-1930.86 680h-2v-1.03h2zM-2308.54 388.37l-15.76 9.32 15.76 9.3-1.02 1.73-18.67-11.04 18.67-11.05z" stroke="#000" stroke-width=".05"/><use xlink:href="#n" transform="matrix(1,0,0,1,-1977.2208742723762,534.0896146445338) translate(0 14.222222222222218)"/><path d="M-1312.47 679h-2v-.77h2zm0-36.7h-2v-36.72h2zm0-55.07h-2v-36.7h2zm0-55.06h-2v-36.7h2zm0-55.06h-2v-36.7h2zm-5.9-80.33l1.06.26 1 .42.95.57.83.72.72.83.57.94.42 1.02.25 1.07.08 1.05v18.4h-2v-18.32l-.06-.82-.2-.75-.3-.73-.4-.67-.5-.6-.6-.5-.67-.4-.72-.3-.77-.2-.8-.06h-19.7v-2h19.77zm-40.6 1.92h-39.47v-2h39.48zm-59.22 0h-39.48v-2h39.5zm-59.22 0h-39.5v-2h39.5zm-59.23 0h-39.5v-2h39.5zm-59.23 0h-39.5v-2h39.5zm-59.24 0h-39.5v-2h39.5zm-59.23 0h-39.5v-2h39.5zm-59.23 0h-39.5v-2h39.5zm-59.23 0h-39.5v-2h39.5zm-59.24 0h-39.5v-2h39.5zm-59.24 0h-39.48v-2h39.48zm-59.23 0h-39.5v-2h39.5zm-59.24 0h-39.5v-2h39.5zm-59.23 0h-39.5v-2h39.5zm-59.23 0h-39.5v-2h39.5zm-59.24 0h-39.48v-2h39.48zm-59.23 0h-19.74v-2h19.73z" stroke="#000" stroke-width=".05"/><path d="M-1312.47 680h-2v-1.03h2zM-2308.54 388.37l-15.76 9.32 15.76 9.3-1.02 1.73-18.67-11.04 18.67-11.05z" stroke="#000" stroke-width=".05"/><use xlink:href="#n" transform="matrix(1,0,0,1,-1358.8266176233124,656.8922455911612) translate(0 14.222222222222218)"/><path d="M-690.25 684.7h-2v-18.73h2zm0-37.47h-2v-13h2zm0-34.33h-2v-3.14h2zm0-21.87h-2v-37.47h2zm0-56.2h-2v-37.47h2zm0-56.2h-2v-37.47h2zm-5.9-81.86l1.06.26 1.03.42.94.57.83.72.72.83.57.94.4 1.02.27 1.07.08 1.05v18.77h-2v-18.7l-.07-.8-.18-.78-.3-.72-.4-.67-.52-.6-.6-.5-.66-.4-.73-.3-.77-.2-.82-.06h-20.06v-2h20.15zm-41.33 1.92h-40.22v-2h40.22zm-60.34 0h-40.22v-2h40.22zm-60.33 0h-40.23v-2h40.23zm-60.34 0h-40.22v-2h40.23zm-60.33 0h-40.23v-2h40.23zm-60.34 0h-40.23v-2h40.23zm-60.34 0h-40.24v-2h40.23zm-60.35 0h-40.23v-2h40.23zm-60.34 0h-40.22v-2h40.23zm-60.33 0h-40.23v-2h40.23zm-60.34 0h-40.23v-2h40.23zm-60.34 0h-40.23v-2h40.22zm-60.35 0h-40.23v-2h40.23zm-60.34 0h-40.2v-2h40.2zm-60.33 0h-40.22v-2h40.22zm-60.34 0h-40.22v-2h40.23zm-60.34 0h-40.23v-2h40.22zm-60.34 0h-40.23v-2h40.23zm-60.35 0h-40.2v-2h40.2zm-60.32 0h-40.23v-2h40.23zm-60.34 0h-40.23v-2h40.24zm-60.34 0h-40.23v-2h40.23zm-60.34 0h-40.23v-2h40.23zm-60.34 0h-40.23v-2h40.22zm-60.34 0h-40.23v-2h40.23zm-60.34 0h-40.23v-2h40.24zm-60.34 0h-20.1v-2h20.1z" stroke="#000" stroke-width=".05"/><path d="M-690.25 685.7h-2v-1.03h2z"/><path d="M-690.23 685.73h-2.04v-1.08h2.04zm-2-1.03v.97h1.96v-.97zM-2308.54 388.37l-15.76 9.32 15.76 9.3-1.02 1.73-18.67-11.04 18.67-11.05z" stroke="#000" stroke-width=".05"/><use xlink:href="#n" transform="matrix(1,0,0,1,-736.6080246913543,612.9046272700193) translate(0 14.222222222222218)"/><path d="M-843.4 1523.23h-3.8v-2h3.8zm-22.82 0h-38.03v-2h38.03zm-57.04 0h-38.04v-2h38.04zm-57.05 0h-19.03v-2h19.02zm216.17-11.67h-2v-13.85h2zm0-32.37h-2v-37.04h2zm0-55.55h-2v-18.52h2z" stroke="#000" stroke-width=".05"/><path d="M-764.13 1405.16h-2v-1.03h2z"/><path d="M-764.1 1405.18h-2.06v-1.07h2.05zm-2-1.02v.97h1.94v-.97zM-981.46 1512.9l-15.76 9.33 15.76 9.32-1.02 1.72-18.67-11.04 18.67-11.04z" stroke="#000" stroke-width=".05"/><use xlink:href="#n" transform="matrix(1,0,0,1,-843.4049194636866,1511.5607840979017) translate(0 14.222222222222218)"/><path d="M-1414.57 1331.37l.06.83.17.76.3.72.4.67.52.6.6.5.66.42.72.3.76.18.83.06h21.07v2h-21.15l-1.07-.07-1.07-.26-1-.42-.95-.57-.83-.7-.7-.85-.58-.94-.43-1.02-.26-1.07-.07-1.05v-21.08h2zm89.46 7.04h-42.24v-2h42.23zm63.33 0H-1304v-2h42.23zm190.03 0h-42.23v-2h42.23zm63.35 0h-42.22v-2h42.23zm63.35 0h-42.23v-2h42.23zm42.23 0h-21.1v-2h21.1zm-232.26 0h-28.23v-2h28.22zm-279.5-49.08h-2v-42.1h2zm0-63.14h-2v-42.1h2zm0-63.13h-2V1142h2z" stroke="#000" stroke-width=".05"/><path d="M-1414.57 1142.03h-2V1141h2z"/><path d="M-1414.55 1142.05h-2.05v-1.08h2.05zm-2-1.02v.97h1.95v-.97zM-901 1337.4l-18.67 11.05-1.02-1.72 15.77-9.32-15.76-9.3 1.03-1.73z" stroke="#000" stroke-width=".05"/><use xlink:href="#o" transform="matrix(1,0,0,1,-1194.842154681093,1324.6135639324352) translate(0 17.06666666666667)"/><use xlink:href="#n" transform="matrix(1,0,0,1,-1254.0236970895223,1326.7468972657684) translate(0 14.222222222222218)"/><path d="M-1733.5 1516.2l.07.8.2.77.3.73.4.66.5.6.6.5.67.42.72.3.77.18.82.07h19.36v2h-19.43l-1.06-.1-1.06-.24-1-.43-.95-.58-.84-.72-.72-.84-.57-.93-.42-1-.26-1.08-.1-1.05v-20.83h2zm61.65 7.03h-17.84l.02-2h17.83zm137.4 0h-38.82v-2h38.8zm58.2 0h-38.8v-2h38.8zm58.2 0h-38.8v-2h38.8zm58.22 0h-38.8v-2h38.8zm58.2 0h-38.8v-2h38.8zm38.8 0h-19.4v-2h19.4zm-470.66-48.58h-2v-41.58h2zm0-62.38h-2v-41.58h2zm0-62.37h-2v-41.58h2zm0-62.37h-2v-41.58h2zm0-62.37h-2v-41.58h2zm0-62.37h-2V1142h2z" stroke="#000" stroke-width=".05"/><path d="M-1733.5 1142.03h-2V1141h2z"/><path d="M-1733.47 1142.05h-2.05v-1.08h2.05zm-2-1.02v.97h1.95v-.97zM-1261 1522.23l-18.67 11.04-1.02-1.72 15.77-9.32-15.76-9.32 1.03-1.7z" stroke="#000" stroke-width=".05"/><use xlink:href="#n" transform="matrix(1,0,0,1,-1671.8540996679562,1511.5607840979017) translate(0 14.222222222222218)"/><defs><path d="M101-234c-31-9-42 10-38 44h38v23H63V0H32v-167H5v-23h27c-7-52 17-82 69-68v24" id="p"/><path d="M114-163C36-179 61-72 57 0H25l-1-190h30c1 12-1 29 2 39 6-27 23-49 58-41v29" id="q"/><path d="M100-194c62-1 85 37 85 99 1 63-27 99-86 99S16-35 15-95c0-66 28-99 85-99zM99-20c44 1 53-31 53-75 0-43-8-75-51-75s-53 32-53 75 10 74 51 75" id="r"/><path d="M117-194c89-4 53 116 60 194h-32v-121c0-31-8-49-39-48C34-167 62-67 57 0H25l-1-190h30c1 10-1 24 2 32 11-22 29-35 61-36" id="s"/><path d="M59-47c-2 24 18 29 38 22v24C64 9 27 4 27-40v-127H5v-23h24l9-43h21v43h35v23H59v120" id="t"/><path d="M100-194c63 0 86 42 84 106H49c0 40 14 67 53 68 26 1 43-12 49-29l28 8c-11 28-37 45-77 45C44 4 14-33 15-96c1-61 26-98 85-98zm52 81c6-60-76-77-97-28-3 7-6 17-6 28h103" id="u"/><path d="M85-194c31 0 48 13 60 33l-1-100h32l1 261h-30c-2-10 0-23-3-31C134-8 116 4 85 4 32 4 16-35 15-94c0-66 23-100 70-100zm9 24c-40 0-46 34-46 75 0 40 6 74 45 74 42 0 51-32 51-76 0-42-9-74-50-73" id="v"/><path d="M33 0v-38h34V0H33" id="w"/><path d="M96-169c-40 0-48 33-48 73s9 75 48 75c24 0 41-14 43-38l32 2c-6 37-31 61-74 61-59 0-76-41-82-99-10-93 101-131 147-64 4 7 5 14 7 22l-32 3c-4-21-16-35-41-35" id="x"/><path d="M210-169c-67 3-38 105-44 169h-31v-121c0-29-5-50-35-48C34-165 62-65 56 0H25l-1-190h30c1 10-1 24 2 32 10-44 99-50 107 0 11-21 27-35 58-36 85-2 47 119 55 194h-31v-121c0-29-5-49-35-48" id="y"/><path d="M115-194c55 1 70 41 70 98S169 2 115 4C84 4 66-9 55-30l1 105H24l-1-265h31l2 30c10-21 28-34 59-34zm-8 174c40 0 45-34 45-75s-6-73-45-74c-42 0-51 32-51 76 0 43 10 73 51 73" id="z"/><path d="M135-143c-3-34-86-38-87 0 15 53 115 12 119 90S17 21 10-45l28-5c4 36 97 45 98 0-10-56-113-15-118-90-4-57 82-63 122-42 12 7 21 19 24 35" id="A"/><g id="a"><use transform="matrix(0.06172839506172839,0,0,0.06172839506172839,0,0)" xlink:href="#p"/><use transform="matrix(0.06172839506172839,0,0,0.06172839506172839,6.172839506172839,0)" xlink:href="#q"/><use transform="matrix(0.06172839506172839,0,0,0.06172839506172839,13.518518518518519,0)" xlink:href="#r"/><use transform="matrix(0.06172839506172839,0,0,0.06172839506172839,25.864197530864196,0)" xlink:href="#s"/><use transform="matrix(0.06172839506172839,0,0,0.06172839506172839,38.20987654320987,0)" xlink:href="#t"/><use transform="matrix(0.06172839506172839,0,0,0.06172839506172839,44.382716049382715,0)" xlink:href="#u"/><use transform="matrix(0.06172839506172839,0,0,0.06172839506172839,56.72839506172839,0)" xlink:href="#s"/><use transform="matrix(0.06172839506172839,0,0,0.06172839506172839,69.07407407407408,0)" xlink:href="#v"/><use transform="matrix(0.06172839506172839,0,0,0.06172839506172839,81.41975308641976,0)" xlink:href="#w"/><use transform="matrix(0.06172839506172839,0,0,0.06172839506172839,87.5925925925926,0)" xlink:href="#x"/><use transform="matrix(0.06172839506172839,0,0,0.06172839506172839,98.70370370370371,0)" xlink:href="#r"/><use transform="matrix(0.06172839506172839,0,0,0.06172839506172839,111.0493827160494,0)" xlink:href="#y"/><use transform="matrix(0.06172839506172839,0,0,0.06172839506172839,129.50617283950618,0)" xlink:href="#z"/><use transform="matrix(0.06172839506172839,0,0,0.06172839506172839,141.85185185185185,0)" xlink:href="#r"/><use transform="matrix(0.06172839506172839,0,0,0.06172839506172839,154.19753086419752,0)" xlink:href="#s"/><use transform="matrix(0.06172839506172839,0,0,0.06172839506172839,166.5432098765432,0)" xlink:href="#u"/><use transform="matrix(0.06172839506172839,0,0,0.06172839506172839,178.88888888888886,0)" xlink:href="#s"/><use transform="matrix(0.06172839506172839,0,0,0.06172839506172839,191.23456790123453,0)" xlink:href="#t"/><use transform="matrix(0.06172839506172839,0,0,0.06172839506172839,197.40740740740736,0)" xlink:href="#A"/></g><path d="M115-194c53 0 69 39 70 98 0 66-23 100-70 100C84 3 66-7 56-30L54 0H23l1-261h32v101c10-23 28-34 59-34zm-8 174c40 0 45-34 45-75 0-40-5-75-45-74-42 0-51 32-51 76 0 43 10 73 51 73" id="B"/><path d="M141-36C126-15 110 5 73 4 37 3 15-17 15-53c-1-64 63-63 125-63 3-35-9-54-41-54-24 1-41 7-42 31l-33-3c5-37 33-52 76-52 45 0 72 20 72 64v82c-1 20 7 32 28 27v20c-31 9-61-2-59-35zM48-53c0 20 12 33 32 33 41-3 63-29 60-74-43 2-92-5-92 41" id="C"/><path d="M24-231v-30h32v30H24zM24 0v-190h32V0H24" id="D"/><g id="b"><use transform="matrix(0.06172839506172839,0,0,0.06172839506172839,0,0)" xlink:href="#p"/><use transform="matrix(0.06172839506172839,0,0,0.06172839506172839,6.172839506172839,0)" xlink:href="#q"/><use transform="matrix(0.06172839506172839,0,0,0.06172839506172839,13.518518518518519,0)" xlink:href="#r"/><use transform="matrix(0.06172839506172839,0,0,0.06172839506172839,25.864197530864196,0)" xlink:href="#s"/><use transform="matrix(0.06172839506172839,0,0,0.06172839506172839,38.20987654320987,0)" xlink:href="#t"/><use transform="matrix(0.06172839506172839,0,0,0.06172839506172839,44.382716049382715,0)" xlink:href="#u"/><use transform="matrix(0.06172839506172839,0,0,0.06172839506172839,56.72839506172839,0)" xlink:href="#s"/><use transform="matrix(0.06172839506172839,0,0,0.06172839506172839,69.07407407407408,0)" xlink:href="#v"/><use transform="matrix(0.06172839506172839,0,0,0.06172839506172839,81.41975308641976,0)" xlink:href="#w"/><use transform="matrix(0.06172839506172839,0,0,0.06172839506172839,87.5925925925926,0)" xlink:href="#x"/><use transform="matrix(0.06172839506172839,0,0,0.06172839506172839,98.70370370370371,0)" xlink:href="#r"/><use transform="matrix(0.06172839506172839,0,0,0.06172839506172839,111.0493827160494,0)" xlink:href="#y"/><use transform="matrix(0.06172839506172839,0,0,0.06172839506172839,129.50617283950618,0)" xlink:href="#z"/><use transform="matrix(0.06172839506172839,0,0,0.06172839506172839,141.85185185185185,0)" xlink:href="#r"/><use transform="matrix(0.06172839506172839,0,0,0.06172839506172839,154.19753086419752,0)" xlink:href="#s"/><use transform="matrix(0.06172839506172839,0,0,0.06172839506172839,166.5432098765432,0)" xlink:href="#u"/><use transform="matrix(0.06172839506172839,0,0,0.06172839506172839,178.88888888888886,0)" xlink:href="#s"/><use transform="matrix(0.06172839506172839,0,0,0.06172839506172839,191.23456790123453,0)" xlink:href="#t"/><use transform="matrix(0.06172839506172839,0,0,0.06172839506172839,197.40740740740736,0)" xlink:href="#A"/><use transform="matrix(0.06172839506172839,0,0,0.06172839506172839,208.51851851851848,0)" xlink:href="#w"/><use transform="matrix(0.06172839506172839,0,0,0.06172839506172839,214.6913580246913,0)" xlink:href="#B"/><use transform="matrix(0.06172839506172839,0,0,0.06172839506172839,227.03703703703698,0)" xlink:href="#C"/><use transform="matrix(0.06172839506172839,0,0,0.06172839506172839,239.38271604938265,0)" xlink:href="#A"/><use transform="matrix(0.06172839506172839,0,0,0.06172839506172839,250.49382716049377,0)" xlink:href="#D"/><use transform="matrix(0.06172839506172839,0,0,0.06172839506172839,255.3703703703703,0)" xlink:href="#x"/></g><path d="M24 0v-261h32V0H24" id="E"/><g id="c"><use transform="matrix(0.06172839506172839,0,0,0.06172839506172839,0,0)" xlink:href="#p"/><use transform="matrix(0.06172839506172839,0,0,0.06172839506172839,6.172839506172839,0)" xlink:href="#q"/><use transform="matrix(0.06172839506172839,0,0,0.06172839506172839,13.518518518518519,0)" xlink:href="#r"/><use transform="matrix(0.06172839506172839,0,0,0.06172839506172839,25.864197530864196,0)" xlink:href="#s"/><use transform="matrix(0.06172839506172839,0,0,0.06172839506172839,38.20987654320987,0)" xlink:href="#t"/><use transform="matrix(0.06172839506172839,0,0,0.06172839506172839,44.382716049382715,0)" xlink:href="#u"/><use transform="matrix(0.06172839506172839,0,0,0.06172839506172839,56.72839506172839,0)" xlink:href="#s"/><use transform="matrix(0.06172839506172839,0,0,0.06172839506172839,69.07407407407408,0)" xlink:href="#v"/><use transform="matrix(0.06172839506172839,0,0,0.06172839506172839,81.41975308641976,0)" xlink:href="#w"/><use transform="matrix(0.06172839506172839,0,0,0.06172839506172839,87.5925925925926,0)" xlink:href="#y"/><use transform="matrix(0.06172839506172839,0,0,0.06172839506172839,106.04938271604938,0)" xlink:href="#r"/><use transform="matrix(0.06172839506172839,0,0,0.06172839506172839,118.39506172839506,0)" xlink:href="#v"/><use transform="matrix(0.06172839506172839,0,0,0.06172839506172839,130.74074074074073,0)" xlink:href="#u"/><use transform="matrix(0.06172839506172839,0,0,0.06172839506172839,143.0864197530864,0)" xlink:href="#E"/><use transform="matrix(0.06172839506172839,0,0,0.06172839506172839,147.96296296296293,0)" xlink:href="#A"/></g><path d="M108 0H70L1-190h34L89-25l56-165h34" id="F"/><path d="M206 0h-36l-40-164L89 0H53L-1-190h32L70-26l43-164h34l41 164 42-164h31" id="G"/><path d="M141 0L90-78 38 0H4l68-98-65-92h35l48 74 47-74h35l-64 92 68 98h-35" id="H"/><path d="M84 4C-5 8 30-112 23-190h32v120c0 31 7 50 39 49 72-2 45-101 50-169h31l1 190h-30c-1-10 1-25-2-33-11 22-28 36-60 37" id="I"/><g id="d"><use transform="matrix(0.06172839506172839,0,0,0.06172839506172839,0,0)" xlink:href="#p"/><use transform="matrix(0.06172839506172839,0,0,0.06172839506172839,6.172839506172839,0)" xlink:href="#q"/><use transform="matrix(0.06172839506172839,0,0,0.06172839506172839,13.518518518518519,0)" xlink:href="#r"/><use transform="matrix(0.06172839506172839,0,0,0.06172839506172839,25.864197530864196,0)" xlink:href="#s"/><use transform="matrix(0.06172839506172839,0,0,0.06172839506172839,38.20987654320987,0)" xlink:href="#t"/><use transform="matrix(0.06172839506172839,0,0,0.06172839506172839,44.382716049382715,0)" xlink:href="#u"/><use transform="matrix(0.06172839506172839,0,0,0.06172839506172839,56.72839506172839,0)" xlink:href="#s"/><use transform="matrix(0.06172839506172839,0,0,0.06172839506172839,69.07407407407408,0)" xlink:href="#v"/><use transform="matrix(0.06172839506172839,0,0,0.06172839506172839,81.41975308641976,0)" xlink:href="#w"/><use transform="matrix(0.06172839506172839,0,0,0.06172839506172839,87.5925925925926,0)" xlink:href="#x"/><use transform="matrix(0.06172839506172839,0,0,0.06172839506172839,98.70370370370371,0)" xlink:href="#r"/><use transform="matrix(0.06172839506172839,0,0,0.06172839506172839,111.0493827160494,0)" xlink:href="#y"/><use transform="matrix(0.06172839506172839,0,0,0.06172839506172839,129.50617283950618,0)" xlink:href="#z"/><use transform="matrix(0.06172839506172839,0,0,0.06172839506172839,141.85185185185185,0)" xlink:href="#r"/><use transform="matrix(0.06172839506172839,0,0,0.06172839506172839,154.19753086419752,0)" xlink:href="#s"/><use transform="matrix(0.06172839506172839,0,0,0.06172839506172839,166.5432098765432,0)" xlink:href="#u"/><use transform="matrix(0.06172839506172839,0,0,0.06172839506172839,178.88888888888886,0)" xlink:href="#s"/><use transform="matrix(0.06172839506172839,0,0,0.06172839506172839,191.23456790123453,0)" xlink:href="#t"/><use transform="matrix(0.06172839506172839,0,0,0.06172839506172839,197.40740740740736,0)" xlink:href="#A"/><use transform="matrix(0.06172839506172839,0,0,0.06172839506172839,208.51851851851848,0)" xlink:href="#w"/><use transform="matrix(0.06172839506172839,0,0,0.06172839506172839,214.6913580246913,0)" xlink:href="#F"/><use transform="matrix(0.06172839506172839,0,0,0.06172839506172839,225.80246913580243,0)" xlink:href="#D"/><use transform="matrix(0.06172839506172839,0,0,0.06172839506172839,230.67901234567896,0)" xlink:href="#u"/><use transform="matrix(0.06172839506172839,0,0,0.06172839506172839,243.02469135802463,0)" xlink:href="#G"/><use transform="matrix(0.06172839506172839,0,0,0.06172839506172839,259.0123456790123,0)" xlink:href="#A"/><use transform="matrix(0.06172839506172839,0,0,0.06172839506172839,270.1234567901234,0)" xlink:href="#w"/><use transform="matrix(0.06172839506172839,0,0,0.06172839506172839,276.29629629629625,0)" xlink:href="#u"/><use transform="matrix(0.06172839506172839,0,0,0.06172839506172839,288.6419753086419,0)" xlink:href="#H"/><use transform="matrix(0.06172839506172839,0,0,0.06172839506172839,299.753086419753,0)" xlink:href="#z"/><use transform="matrix(0.06172839506172839,0,0,0.06172839506172839,312.0987654320987,0)" xlink:href="#u"/><use transform="matrix(0.06172839506172839,0,0,0.06172839506172839,324.44444444444434,0)" xlink:href="#q"/><use transform="matrix(0.06172839506172839,0,0,0.06172839506172839,331.79012345679,0)" xlink:href="#D"/><use transform="matrix(0.06172839506172839,0,0,0.06172839506172839,336.6666666666666,0)" xlink:href="#y"/><use transform="matrix(0.06172839506172839,0,0,0.06172839506172839,355.1234567901234,0)" xlink:href="#u"/><use transform="matrix(0.06172839506172839,0,0,0.06172839506172839,367.46913580246905,0)" xlink:href="#s"/><use transform="matrix(0.06172839506172839,0,0,0.06172839506172839,379.8148148148147,0)" xlink:href="#t"/><use transform="matrix(0.06172839506172839,0,0,0.06172839506172839,385.9876543209876,0)" xlink:href="#q"/><use transform="matrix(0.06172839506172839,0,0,0.06172839506172839,393.33333333333326,0)" xlink:href="#u"/><use transform="matrix(0.06172839506172839,0,0,0.06172839506172839,405.6790123456789,0)" xlink:href="#A"/><use transform="matrix(0.06172839506172839,0,0,0.06172839506172839,416.79012345679,0)" xlink:href="#I"/><use transform="matrix(0.06172839506172839,0,0,0.06172839506172839,429.1358024691357,0)" xlink:href="#E"/><use transform="matrix(0.06172839506172839,0,0,0.06172839506172839,434.01234567901224,0)" xlink:href="#t"/></g><g id="e"><use transform="matrix(0.06172839506172839,0,0,0.06172839506172839,0,0)" xlink:href="#p"/><use transform="matrix(0.06172839506172839,0,0,0.06172839506172839,6.172839506172839,0)" xlink:href="#q"/><use transform="matrix(0.06172839506172839,0,0,0.06172839506172839,13.518518518518519,0)" xlink:href="#r"/><use transform="matrix(0.06172839506172839,0,0,0.06172839506172839,25.864197530864196,0)" xlink:href="#s"/><use transform="matrix(0.06172839506172839,0,0,0.06172839506172839,38.20987654320987,0)" xlink:href="#t"/><use transform="matrix(0.06172839506172839,0,0,0.06172839506172839,44.382716049382715,0)" xlink:href="#u"/><use transform="matrix(0.06172839506172839,0,0,0.06172839506172839,56.72839506172839,0)" xlink:href="#s"/><use transform="matrix(0.06172839506172839,0,0,0.06172839506172839,69.07407407407408,0)" xlink:href="#v"/><use transform="matrix(0.06172839506172839,0,0,0.06172839506172839,81.41975308641976,0)" xlink:href="#w"/><use transform="matrix(0.06172839506172839,0,0,0.06172839506172839,87.5925925925926,0)" xlink:href="#x"/><use transform="matrix(0.06172839506172839,0,0,0.06172839506172839,98.70370370370371,0)" xlink:href="#r"/><use transform="matrix(0.06172839506172839,0,0,0.06172839506172839,111.0493827160494,0)" xlink:href="#y"/><use transform="matrix(0.06172839506172839,0,0,0.06172839506172839,129.50617283950618,0)" xlink:href="#z"/><use transform="matrix(0.06172839506172839,0,0,0.06172839506172839,141.85185185185185,0)" xlink:href="#r"/><use transform="matrix(0.06172839506172839,0,0,0.06172839506172839,154.19753086419752,0)" xlink:href="#s"/><use transform="matrix(0.06172839506172839,0,0,0.06172839506172839,166.5432098765432,0)" xlink:href="#u"/><use transform="matrix(0.06172839506172839,0,0,0.06172839506172839,178.88888888888886,0)" xlink:href="#s"/><use transform="matrix(0.06172839506172839,0,0,0.06172839506172839,191.23456790123453,0)" xlink:href="#t"/><use transform="matrix(0.06172839506172839,0,0,0.06172839506172839,197.40740740740736,0)" xlink:href="#A"/><use transform="matrix(0.06172839506172839,0,0,0.06172839506172839,208.51851851851848,0)" xlink:href="#w"/><use transform="matrix(0.06172839506172839,0,0,0.06172839506172839,214.6913580246913,0)" xlink:href="#F"/><use transform="matrix(0.06172839506172839,0,0,0.06172839506172839,225.80246913580243,0)" xlink:href="#D"/><use transform="matrix(0.06172839506172839,0,0,0.06172839506172839,230.67901234567896,0)" xlink:href="#u"/><use transform="matrix(0.06172839506172839,0,0,0.06172839506172839,243.02469135802463,0)" xlink:href="#G"/><use transform="matrix(0.06172839506172839,0,0,0.06172839506172839,259.0123456790123,0)" xlink:href="#A"/><use transform="matrix(0.06172839506172839,0,0,0.06172839506172839,270.1234567901234,0)" xlink:href="#w"/><use transform="matrix(0.06172839506172839,0,0,0.06172839506172839,276.29629629629625,0)" xlink:href="#x"/><use transform="matrix(0.06172839506172839,0,0,0.06172839506172839,287.40740740740733,0)" xlink:href="#q"/><use transform="matrix(0.06172839506172839,0,0,0.06172839506172839,294.753086419753,0)" xlink:href="#u"/><use transform="matrix(0.06172839506172839,0,0,0.06172839506172839,307.0987654320987,0)" xlink:href="#C"/><use transform="matrix(0.06172839506172839,0,0,0.06172839506172839,319.44444444444434,0)" xlink:href="#t"/><use transform="matrix(0.06172839506172839,0,0,0.06172839506172839,325.6172839506172,0)" xlink:href="#u"/><use transform="matrix(0.06172839506172839,0,0,0.06172839506172839,337.9629629629629,0)" xlink:href="#u"/><use transform="matrix(0.06172839506172839,0,0,0.06172839506172839,350.30864197530855,0)" xlink:href="#H"/><use transform="matrix(0.06172839506172839,0,0,0.06172839506172839,361.41975308641963,0)" xlink:href="#z"/><use transform="matrix(0.06172839506172839,0,0,0.06172839506172839,373.7654320987653,0)" xlink:href="#u"/><use transform="matrix(0.06172839506172839,0,0,0.06172839506172839,386.111111111111,0)" xlink:href="#q"/><use transform="matrix(0.06172839506172839,0,0,0.06172839506172839,393.45679012345664,0)" xlink:href="#D"/><use transform="matrix(0.06172839506172839,0,0,0.06172839506172839,398.3333333333332,0)" xlink:href="#y"/><use transform="matrix(0.06172839506172839,0,0,0.06172839506172839,416.79012345679,0)" xlink:href="#u"/><use transform="matrix(0.06172839506172839,0,0,0.06172839506172839,429.1358024691357,0)" xlink:href="#s"/><use transform="matrix(0.06172839506172839,0,0,0.06172839506172839,441.48148148148135,0)" xlink:href="#t"/></g><path d="M106-169C34-169 62-67 57 0H25v-261h32l-1 103c12-21 28-36 61-36 89 0 53 116 60 194h-32v-121c2-32-8-49-39-48" id="J"/><g id="f"><use transform="matrix(0.06172839506172839,0,0,0.06172839506172839,0,0)" xlink:href="#p"/><use transform="matrix(0.06172839506172839,0,0,0.06172839506172839,6.172839506172839,0)" xlink:href="#q"/><use transform="matrix(0.06172839506172839,0,0,0.06172839506172839,13.518518518518519,0)" xlink:href="#r"/><use transform="matrix(0.06172839506172839,0,0,0.06172839506172839,25.864197530864196,0)" xlink:href="#s"/><use transform="matrix(0.06172839506172839,0,0,0.06172839506172839,38.20987654320987,0)" xlink:href="#t"/><use transform="matrix(0.06172839506172839,0,0,0.06172839506172839,44.382716049382715,0)" xlink:href="#u"/><use transform="matrix(0.06172839506172839,0,0,0.06172839506172839,56.72839506172839,0)" xlink:href="#s"/><use transform="matrix(0.06172839506172839,0,0,0.06172839506172839,69.07407407407408,0)" xlink:href="#v"/><use transform="matrix(0.06172839506172839,0,0,0.06172839506172839,81.41975308641976,0)" xlink:href="#w"/><use transform="matrix(0.06172839506172839,0,0,0.06172839506172839,87.5925925925926,0)" xlink:href="#x"/><use transform="matrix(0.06172839506172839,0,0,0.06172839506172839,98.70370370370371,0)" xlink:href="#r"/><use transform="matrix(0.06172839506172839,0,0,0.06172839506172839,111.0493827160494,0)" xlink:href="#y"/><use transform="matrix(0.06172839506172839,0,0,0.06172839506172839,129.50617283950618,0)" xlink:href="#z"/><use transform="matrix(0.06172839506172839,0,0,0.06172839506172839,141.85185185185185,0)" xlink:href="#r"/><use transform="matrix(0.06172839506172839,0,0,0.06172839506172839,154.19753086419752,0)" xlink:href="#s"/><use transform="matrix(0.06172839506172839,0,0,0.06172839506172839,166.5432098765432,0)" xlink:href="#u"/><use transform="matrix(0.06172839506172839,0,0,0.06172839506172839,178.88888888888886,0)" xlink:href="#s"/><use transform="matrix(0.06172839506172839,0,0,0.06172839506172839,191.23456790123453,0)" xlink:href="#t"/><use transform="matrix(0.06172839506172839,0,0,0.06172839506172839,197.40740740740736,0)" xlink:href="#A"/><use transform="matrix(0.06172839506172839,0,0,0.06172839506172839,208.51851851851848,0)" xlink:href="#w"/><use transform="matrix(0.06172839506172839,0,0,0.06172839506172839,214.6913580246913,0)" xlink:href="#F"/><use transform="matrix(0.06172839506172839,0,0,0.06172839506172839,225.80246913580243,0)" xlink:href="#D"/><use transform="matrix(0.06172839506172839,0,0,0.06172839506172839,230.67901234567896,0)" xlink:href="#u"/><use transform="matrix(0.06172839506172839,0,0,0.06172839506172839,243.02469135802463,0)" xlink:href="#G"/><use transform="matrix(0.06172839506172839,0,0,0.06172839506172839,259.0123456790123,0)" xlink:href="#A"/><use transform="matrix(0.06172839506172839,0,0,0.06172839506172839,270.1234567901234,0)" xlink:href="#w"/><use transform="matrix(0.06172839506172839,0,0,0.06172839506172839,276.29629629629625,0)" xlink:href="#v"/><use transform="matrix(0.06172839506172839,0,0,0.06172839506172839,288.6419753086419,0)" xlink:href="#C"/><use transform="matrix(0.06172839506172839,0,0,0.06172839506172839,300.9876543209876,0)" xlink:href="#A"/><use transform="matrix(0.06172839506172839,0,0,0.06172839506172839,312.0987654320987,0)" xlink:href="#J"/><use transform="matrix(0.06172839506172839,0,0,0.06172839506172839,324.44444444444434,0)" xlink:href="#B"/><use transform="matrix(0.06172839506172839,0,0,0.06172839506172839,336.79012345679,0)" xlink:href="#r"/><use transform="matrix(0.06172839506172839,0,0,0.06172839506172839,349.1358024691357,0)" xlink:href="#C"/><use transform="matrix(0.06172839506172839,0,0,0.06172839506172839,361.48148148148135,0)" xlink:href="#q"/><use transform="matrix(0.06172839506172839,0,0,0.06172839506172839,368.827160493827,0)" xlink:href="#v"/></g><path d="M177-190C167-65 218 103 67 71c-23-6-38-20-44-43l32-5c15 47 100 32 89-28v-30C133-14 115 1 83 1 29 1 15-40 15-95c0-56 16-97 71-98 29-1 48 16 59 35 1-10 0-23 2-32h30zM94-22c36 0 50-32 50-73 0-42-14-75-50-75-39 0-46 34-46 75s6 73 46 73" id="K"/><g id="g"><use transform="matrix(0.06172839506172839,0,0,0.06172839506172839,0,0)" xlink:href="#p"/><use transform="matrix(0.06172839506172839,0,0,0.06172839506172839,6.172839506172839,0)" xlink:href="#q"/><use transform="matrix(0.06172839506172839,0,0,0.06172839506172839,13.518518518518519,0)" xlink:href="#r"/><use transform="matrix(0.06172839506172839,0,0,0.06172839506172839,25.864197530864196,0)" xlink:href="#s"/><use transform="matrix(0.06172839506172839,0,0,0.06172839506172839,38.20987654320987,0)" xlink:href="#t"/><use transform="matrix(0.06172839506172839,0,0,0.06172839506172839,44.382716049382715,0)" xlink:href="#u"/><use transform="matrix(0.06172839506172839,0,0,0.06172839506172839,56.72839506172839,0)" xlink:href="#s"/><use transform="matrix(0.06172839506172839,0,0,0.06172839506172839,69.07407407407408,0)" xlink:href="#v"/><use transform="matrix(0.06172839506172839,0,0,0.06172839506172839,81.41975308641976,0)" xlink:href="#w"/><use transform="matrix(0.06172839506172839,0,0,0.06172839506172839,87.5925925925926,0)" xlink:href="#x"/><use transform="matrix(0.06172839506172839,0,0,0.06172839506172839,98.70370370370371,0)" xlink:href="#r"/><use transform="matrix(0.06172839506172839,0,0,0.06172839506172839,111.0493827160494,0)" xlink:href="#y"/><use transform="matrix(0.06172839506172839,0,0,0.06172839506172839,129.50617283950618,0)" xlink:href="#z"/><use transform="matrix(0.06172839506172839,0,0,0.06172839506172839,141.85185185185185,0)" xlink:href="#r"/><use transform="matrix(0.06172839506172839,0,0,0.06172839506172839,154.19753086419752,0)" xlink:href="#s"/><use transform="matrix(0.06172839506172839,0,0,0.06172839506172839,166.5432098765432,0)" xlink:href="#u"/><use transform="matrix(0.06172839506172839,0,0,0.06172839506172839,178.88888888888886,0)" xlink:href="#s"/><use transform="matrix(0.06172839506172839,0,0,0.06172839506172839,191.23456790123453,0)" xlink:href="#t"/><use transform="matrix(0.06172839506172839,0,0,0.06172839506172839,197.40740740740736,0)" xlink:href="#A"/><use transform="matrix(0.06172839506172839,0,0,0.06172839506172839,208.51851851851848,0)" xlink:href="#w"/><use transform="matrix(0.06172839506172839,0,0,0.06172839506172839,214.6913580246913,0)" xlink:href="#F"/><use transform="matrix(0.06172839506172839,0,0,0.06172839506172839,225.80246913580243,0)" xlink:href="#D"/><use transform="matrix(0.06172839506172839,0,0,0.06172839506172839,230.67901234567896,0)" xlink:href="#u"/><use transform="matrix(0.06172839506172839,0,0,0.06172839506172839,243.02469135802463,0)" xlink:href="#G"/><use transform="matrix(0.06172839506172839,0,0,0.06172839506172839,259.0123456790123,0)" xlink:href="#A"/><use transform="matrix(0.06172839506172839,0,0,0.06172839506172839,270.1234567901234,0)" xlink:href="#w"/><use transform="matrix(0.06172839506172839,0,0,0.06172839506172839,276.29629629629625,0)" xlink:href="#E"/><use transform="matrix(0.06172839506172839,0,0,0.06172839506172839,281.1728395061728,0)" xlink:href="#r"/><use transform="matrix(0.06172839506172839,0,0,0.06172839506172839,293.5185185185185,0)" xlink:href="#K"/><use transform="matrix(0.06172839506172839,0,0,0.06172839506172839,305.86419753086415,0)" xlink:href="#D"/><use transform="matrix(0.06172839506172839,0,0,0.06172839506172839,310.7407407407407,0)" xlink:href="#s"/></g><g id="h"><use transform="matrix(0.06172839506172839,0,0,0.06172839506172839,0,0)" xlink:href="#p"/><use transform="matrix(0.06172839506172839,0,0,0.06172839506172839,6.172839506172839,0)" xlink:href="#q"/><use transform="matrix(0.06172839506172839,0,0,0.06172839506172839,13.518518518518519,0)" xlink:href="#r"/><use transform="matrix(0.06172839506172839,0,0,0.06172839506172839,25.864197530864196,0)" xlink:href="#s"/><use transform="matrix(0.06172839506172839,0,0,0.06172839506172839,38.20987654320987,0)" xlink:href="#t"/><use transform="matrix(0.06172839506172839,0,0,0.06172839506172839,44.382716049382715,0)" xlink:href="#u"/><use transform="matrix(0.06172839506172839,0,0,0.06172839506172839,56.72839506172839,0)" xlink:href="#s"/><use transform="matrix(0.06172839506172839,0,0,0.06172839506172839,69.07407407407408,0)" xlink:href="#v"/><use transform="matrix(0.06172839506172839,0,0,0.06172839506172839,81.41975308641976,0)" xlink:href="#w"/><use transform="matrix(0.06172839506172839,0,0,0.06172839506172839,87.5925925925926,0)" xlink:href="#x"/><use transform="matrix(0.06172839506172839,0,0,0.06172839506172839,98.70370370370371,0)" xlink:href="#r"/><use transform="matrix(0.06172839506172839,0,0,0.06172839506172839,111.0493827160494,0)" xlink:href="#y"/><use transform="matrix(0.06172839506172839,0,0,0.06172839506172839,129.50617283950618,0)" xlink:href="#z"/><use transform="matrix(0.06172839506172839,0,0,0.06172839506172839,141.85185185185185,0)" xlink:href="#r"/><use transform="matrix(0.06172839506172839,0,0,0.06172839506172839,154.19753086419752,0)" xlink:href="#s"/><use transform="matrix(0.06172839506172839,0,0,0.06172839506172839,166.5432098765432,0)" xlink:href="#u"/><use transform="matrix(0.06172839506172839,0,0,0.06172839506172839,178.88888888888886,0)" xlink:href="#s"/><use transform="matrix(0.06172839506172839,0,0,0.06172839506172839,191.23456790123453,0)" xlink:href="#t"/><use transform="matrix(0.06172839506172839,0,0,0.06172839506172839,197.40740740740736,0)" xlink:href="#A"/><use transform="matrix(0.06172839506172839,0,0,0.06172839506172839,208.51851851851848,0)" xlink:href="#w"/><use transform="matrix(0.06172839506172839,0,0,0.06172839506172839,214.6913580246913,0)" xlink:href="#F"/><use transform="matrix(0.06172839506172839,0,0,0.06172839506172839,225.80246913580243,0)" xlink:href="#D"/><use transform="matrix(0.06172839506172839,0,0,0.06172839506172839,230.67901234567896,0)" xlink:href="#u"/><use transform="matrix(0.06172839506172839,0,0,0.06172839506172839,243.02469135802463,0)" xlink:href="#G"/><use transform="matrix(0.06172839506172839,0,0,0.06172839506172839,259.0123456790123,0)" xlink:href="#A"/><use transform="matrix(0.06172839506172839,0,0,0.06172839506172839,270.1234567901234,0)" xlink:href="#w"/><use transform="matrix(0.06172839506172839,0,0,0.06172839506172839,276.29629629629625,0)" xlink:href="#q"/><use transform="matrix(0.06172839506172839,0,0,0.06172839506172839,283.6419753086419,0)" xlink:href="#u"/><use transform="matrix(0.06172839506172839,0,0,0.06172839506172839,295.9876543209876,0)" xlink:href="#K"/><use transform="matrix(0.06172839506172839,0,0,0.06172839506172839,308.33333333333326,0)" xlink:href="#D"/><use transform="matrix(0.06172839506172839,0,0,0.06172839506172839,313.2098765432098,0)" xlink:href="#A"/><use transform="matrix(0.06172839506172839,0,0,0.06172839506172839,324.3209876543209,0)" xlink:href="#t"/><use transform="matrix(0.06172839506172839,0,0,0.06172839506172839,330.49382716049377,0)" xlink:href="#u"/><use transform="matrix(0.06172839506172839,0,0,0.06172839506172839,342.83950617283944,0)" xlink:href="#q"/></g><g id="i"><use transform="matrix(0.06172839506172839,0,0,0.06172839506172839,0,0)" xlink:href="#p"/><use transform="matrix(0.06172839506172839,0,0,0.06172839506172839,6.172839506172839,0)" xlink:href="#q"/><use transform="matrix(0.06172839506172839,0,0,0.06172839506172839,13.518518518518519,0)" xlink:href="#r"/><use transform="matrix(0.06172839506172839,0,0,0.06172839506172839,25.864197530864196,0)" xlink:href="#s"/><use transform="matrix(0.06172839506172839,0,0,0.06172839506172839,38.20987654320987,0)" xlink:href="#t"/><use transform="matrix(0.06172839506172839,0,0,0.06172839506172839,44.382716049382715,0)" xlink:href="#u"/><use transform="matrix(0.06172839506172839,0,0,0.06172839506172839,56.72839506172839,0)" xlink:href="#s"/><use transform="matrix(0.06172839506172839,0,0,0.06172839506172839,69.07407407407408,0)" xlink:href="#v"/><use transform="matrix(0.06172839506172839,0,0,0.06172839506172839,81.41975308641976,0)" xlink:href="#w"/><use transform="matrix(0.06172839506172839,0,0,0.06172839506172839,87.5925925925926,0)" xlink:href="#x"/><use transform="matrix(0.06172839506172839,0,0,0.06172839506172839,98.70370370370371,0)" xlink:href="#r"/><use transform="matrix(0.06172839506172839,0,0,0.06172839506172839,111.0493827160494,0)" xlink:href="#y"/><use transform="matrix(0.06172839506172839,0,0,0.06172839506172839,129.50617283950618,0)" xlink:href="#z"/><use transform="matrix(0.06172839506172839,0,0,0.06172839506172839,141.85185185185185,0)" xlink:href="#r"/><use transform="matrix(0.06172839506172839,0,0,0.06172839506172839,154.19753086419752,0)" xlink:href="#s"/><use transform="matrix(0.06172839506172839,0,0,0.06172839506172839,166.5432098765432,0)" xlink:href="#u"/><use transform="matrix(0.06172839506172839,0,0,0.06172839506172839,178.88888888888886,0)" xlink:href="#s"/><use transform="matrix(0.06172839506172839,0,0,0.06172839506172839,191.23456790123453,0)" xlink:href="#t"/><use transform="matrix(0.06172839506172839,0,0,0.06172839506172839,197.40740740740736,0)" xlink:href="#A"/><use transform="matrix(0.06172839506172839,0,0,0.06172839506172839,208.51851851851848,0)" xlink:href="#w"/><use transform="matrix(0.06172839506172839,0,0,0.06172839506172839,214.6913580246913,0)" xlink:href="#F"/><use transform="matrix(0.06172839506172839,0,0,0.06172839506172839,225.80246913580243,0)" xlink:href="#D"/><use transform="matrix(0.06172839506172839,0,0,0.06172839506172839,230.67901234567896,0)" xlink:href="#u"/><use transform="matrix(0.06172839506172839,0,0,0.06172839506172839,243.02469135802463,0)" xlink:href="#G"/><use transform="matrix(0.06172839506172839,0,0,0.06172839506172839,259.0123456790123,0)" xlink:href="#A"/><use transform="matrix(0.06172839506172839,0,0,0.06172839506172839,270.1234567901234,0)" xlink:href="#w"/><use transform="matrix(0.06172839506172839,0,0,0.06172839506172839,276.29629629629625,0)" xlink:href="#E"/><use transform="matrix(0.06172839506172839,0,0,0.06172839506172839,281.1728395061728,0)" xlink:href="#C"/><use transform="matrix(0.06172839506172839,0,0,0.06172839506172839,293.5185185185185,0)" xlink:href="#s"/><use transform="matrix(0.06172839506172839,0,0,0.06172839506172839,305.86419753086415,0)" xlink:href="#v"/><use transform="matrix(0.06172839506172839,0,0,0.06172839506172839,318.2098765432098,0)" xlink:href="#D"/><use transform="matrix(0.06172839506172839,0,0,0.06172839506172839,323.0864197530864,0)" xlink:href="#s"/><use transform="matrix(0.06172839506172839,0,0,0.06172839506172839,335.43209876543204,0)" xlink:href="#K"/><use transform="matrix(0.06172839506172839,0,0,0.06172839506172839,347.7777777777777,0)" xlink:href="#z"/><use transform="matrix(0.06172839506172839,0,0,0.06172839506172839,360.1234567901234,0)" xlink:href="#C"/><use transform="matrix(0.06172839506172839,0,0,0.06172839506172839,372.46913580246905,0)" xlink:href="#K"/><use transform="matrix(0.06172839506172839,0,0,0.06172839506172839,384.8148148148147,0)" xlink:href="#u"/></g><g id="j"><use transform="matrix(0.06172839506172839,0,0,0.06172839506172839,0,0)" xlink:href="#p"/><use transform="matrix(0.06172839506172839,0,0,0.06172839506172839,6.172839506172839,0)" xlink:href="#q"/><use transform="matrix(0.06172839506172839,0,0,0.06172839506172839,13.518518518518519,0)" xlink:href="#r"/><use transform="matrix(0.06172839506172839,0,0,0.06172839506172839,25.864197530864196,0)" xlink:href="#s"/><use transform="matrix(0.06172839506172839,0,0,0.06172839506172839,38.20987654320987,0)" xlink:href="#t"/><use transform="matrix(0.06172839506172839,0,0,0.06172839506172839,44.382716049382715,0)" xlink:href="#u"/><use transform="matrix(0.06172839506172839,0,0,0.06172839506172839,56.72839506172839,0)" xlink:href="#s"/><use transform="matrix(0.06172839506172839,0,0,0.06172839506172839,69.07407407407408,0)" xlink:href="#v"/><use transform="matrix(0.06172839506172839,0,0,0.06172839506172839,81.41975308641976,0)" xlink:href="#w"/><use transform="matrix(0.06172839506172839,0,0,0.06172839506172839,87.5925925925926,0)" xlink:href="#x"/><use transform="matrix(0.06172839506172839,0,0,0.06172839506172839,98.70370370370371,0)" xlink:href="#r"/><use transform="matrix(0.06172839506172839,0,0,0.06172839506172839,111.0493827160494,0)" xlink:href="#y"/><use transform="matrix(0.06172839506172839,0,0,0.06172839506172839,129.50617283950618,0)" xlink:href="#z"/><use transform="matrix(0.06172839506172839,0,0,0.06172839506172839,141.85185185185185,0)" xlink:href="#r"/><use transform="matrix(0.06172839506172839,0,0,0.06172839506172839,154.19753086419752,0)" xlink:href="#s"/><use transform="matrix(0.06172839506172839,0,0,0.06172839506172839,166.5432098765432,0)" xlink:href="#u"/><use transform="matrix(0.06172839506172839,0,0,0.06172839506172839,178.88888888888886,0)" xlink:href="#s"/><use transform="matrix(0.06172839506172839,0,0,0.06172839506172839,191.23456790123453,0)" xlink:href="#t"/><use transform="matrix(0.06172839506172839,0,0,0.06172839506172839,197.40740740740736,0)" xlink:href="#A"/><use transform="matrix(0.06172839506172839,0,0,0.06172839506172839,208.51851851851848,0)" xlink:href="#w"/><use transform="matrix(0.06172839506172839,0,0,0.06172839506172839,214.6913580246913,0)" xlink:href="#s"/><use transform="matrix(0.06172839506172839,0,0,0.06172839506172839,227.03703703703698,0)" xlink:href="#C"/><use transform="matrix(0.06172839506172839,0,0,0.06172839506172839,239.38271604938265,0)" xlink:href="#F"/><use transform="matrix(0.06172839506172839,0,0,0.06172839506172839,250.49382716049377,0)" xlink:href="#D"/><use transform="matrix(0.06172839506172839,0,0,0.06172839506172839,255.3703703703703,0)" xlink:href="#K"/><use transform="matrix(0.06172839506172839,0,0,0.06172839506172839,267.716049382716,0)" xlink:href="#C"/><use transform="matrix(0.06172839506172839,0,0,0.06172839506172839,280.06172839506166,0)" xlink:href="#t"/><use transform="matrix(0.06172839506172839,0,0,0.06172839506172839,286.2345679012345,0)" xlink:href="#D"/><use transform="matrix(0.06172839506172839,0,0,0.06172839506172839,291.1111111111111,0)" xlink:href="#r"/><use transform="matrix(0.06172839506172839,0,0,0.06172839506172839,303.45679012345676,0)" xlink:href="#s"/><use transform="matrix(0.06172839506172839,0,0,0.06172839506172839,315.8024691358024,0)" xlink:href="#B"/><use transform="matrix(0.06172839506172839,0,0,0.06172839506172839,328.1481481481481,0)" xlink:href="#C"/><use transform="matrix(0.06172839506172839,0,0,0.06172839506172839,340.49382716049377,0)" xlink:href="#q"/></g><g id="k"><use transform="matrix(0.06172839506172839,0,0,0.06172839506172839,0,0)" xlink:href="#p"/><use transform="matrix(0.06172839506172839,0,0,0.06172839506172839,6.172839506172839,0)" xlink:href="#q"/><use transform="matrix(0.06172839506172839,0,0,0.06172839506172839,13.518518518518519,0)" xlink:href="#r"/><use transform="matrix(0.06172839506172839,0,0,0.06172839506172839,25.864197530864196,0)" xlink:href="#s"/><use transform="matrix(0.06172839506172839,0,0,0.06172839506172839,38.20987654320987,0)" xlink:href="#t"/><use transform="matrix(0.06172839506172839,0,0,0.06172839506172839,44.382716049382715,0)" xlink:href="#u"/><use transform="matrix(0.06172839506172839,0,0,0.06172839506172839,56.72839506172839,0)" xlink:href="#s"/><use transform="matrix(0.06172839506172839,0,0,0.06172839506172839,69.07407407407408,0)" xlink:href="#v"/><use transform="matrix(0.06172839506172839,0,0,0.06172839506172839,81.41975308641976,0)" xlink:href="#w"/><use transform="matrix(0.06172839506172839,0,0,0.06172839506172839,87.5925925925926,0)" xlink:href="#E"/><use transform="matrix(0.06172839506172839,0,0,0.06172839506172839,92.46913580246914,0)" xlink:href="#C"/><use transform="matrix(0.06172839506172839,0,0,0.06172839506172839,104.81481481481482,0)" xlink:href="#s"/><use transform="matrix(0.06172839506172839,0,0,0.06172839506172839,117.16049382716051,0)" xlink:href="#K"/><use transform="matrix(0.06172839506172839,0,0,0.06172839506172839,129.50617283950618,0)" xlink:href="#I"/><use transform="matrix(0.06172839506172839,0,0,0.06172839506172839,141.85185185185185,0)" xlink:href="#C"/><use transform="matrix(0.06172839506172839,0,0,0.06172839506172839,154.19753086419752,0)" xlink:href="#K"/><use transform="matrix(0.06172839506172839,0,0,0.06172839506172839,166.5432098765432,0)" xlink:href="#u"/></g><g id="l"><use transform="matrix(0.06172839506172839,0,0,0.06172839506172839,0,0)" xlink:href="#p"/><use transform="matrix(0.06172839506172839,0,0,0.06172839506172839,6.172839506172839,0)" xlink:href="#q"/><use transform="matrix(0.06172839506172839,0,0,0.06172839506172839,13.518518518518519,0)" xlink:href="#r"/><use transform="matrix(0.06172839506172839,0,0,0.06172839506172839,25.864197530864196,0)" xlink:href="#s"/><use transform="matrix(0.06172839506172839,0,0,0.06172839506172839,38.20987654320987,0)" xlink:href="#t"/><use transform="matrix(0.06172839506172839,0,0,0.06172839506172839,44.382716049382715,0)" xlink:href="#u"/><use transform="matrix(0.06172839506172839,0,0,0.06172839506172839,56.72839506172839,0)" xlink:href="#s"/><use transform="matrix(0.06172839506172839,0,0,0.06172839506172839,69.07407407407408,0)" xlink:href="#v"/><use transform="matrix(0.06172839506172839,0,0,0.06172839506172839,81.41975308641976,0)" xlink:href="#w"/><use transform="matrix(0.06172839506172839,0,0,0.06172839506172839,87.5925925925926,0)" xlink:href="#z"/><use transform="matrix(0.06172839506172839,0,0,0.06172839506172839,99.93827160493828,0)" xlink:href="#C"/><use transform="matrix(0.06172839506172839,0,0,0.06172839506172839,112.28395061728396,0)" xlink:href="#q"/><use transform="matrix(0.06172839506172839,0,0,0.06172839506172839,119.62962962962965,0)" xlink:href="#A"/><use transform="matrix(0.06172839506172839,0,0,0.06172839506172839,130.74074074074076,0)" xlink:href="#u"/><use transform="matrix(0.06172839506172839,0,0,0.06172839506172839,143.08641975308643,0)" xlink:href="#q"/><use transform="matrix(0.06172839506172839,0,0,0.06172839506172839,150.4320987654321,0)" xlink:href="#A"/></g><g id="m"><use transform="matrix(0.06172839506172839,0,0,0.06172839506172839,0,0)" xlink:href="#p"/><use transform="matrix(0.06172839506172839,0,0,0.06172839506172839,6.172839506172839,0)" xlink:href="#q"/><use transform="matrix(0.06172839506172839,0,0,0.06172839506172839,13.518518518518519,0)" xlink:href="#r"/><use transform="matrix(0.06172839506172839,0,0,0.06172839506172839,25.864197530864196,0)" xlink:href="#s"/><use transform="matrix(0.06172839506172839,0,0,0.06172839506172839,38.20987654320987,0)" xlink:href="#t"/><use transform="matrix(0.06172839506172839,0,0,0.06172839506172839,44.382716049382715,0)" xlink:href="#u"/><use transform="matrix(0.06172839506172839,0,0,0.06172839506172839,56.72839506172839,0)" xlink:href="#s"/><use transform="matrix(0.06172839506172839,0,0,0.06172839506172839,69.07407407407408,0)" xlink:href="#v"/><use transform="matrix(0.06172839506172839,0,0,0.06172839506172839,81.41975308641976,0)" xlink:href="#w"/><use transform="matrix(0.06172839506172839,0,0,0.06172839506172839,87.5925925925926,0)" xlink:href="#C"/><use transform="matrix(0.06172839506172839,0,0,0.06172839506172839,99.93827160493828,0)" xlink:href="#z"/><use transform="matrix(0.06172839506172839,0,0,0.06172839506172839,112.28395061728396,0)" xlink:href="#D"/></g><path fill="#3a414a" d="M18-100v-36l175-74v27L42-118l151 64v27" id="L"/><path fill="#3a414a" d="M24-231v-30h32v30H24zM24 0v-190h32V0H24" id="M"/><path fill="#3a414a" d="M210-169c-67 3-38 105-44 169h-31v-121c0-29-5-50-35-48C34-165 62-65 56 0H25l-1-190h30c1 10-1 24 2 32 10-44 99-50 107 0 11-21 27-35 58-36 85-2 47 119 55 194h-31v-121c0-29-5-49-35-48" id="N"/><path fill="#3a414a" d="M115-194c55 1 70 41 70 98S169 2 115 4C84 4 66-9 55-30l1 105H24l-1-265h31l2 30c10-21 28-34 59-34zm-8 174c40 0 45-34 45-75s-6-73-45-74c-42 0-51 32-51 76 0 43 10 73 51 73" id="O"/><path fill="#3a414a" d="M100-194c62-1 85 37 85 99 1 63-27 99-86 99S16-35 15-95c0-66 28-99 85-99zM99-20c44 1 53-31 53-75 0-43-8-75-51-75s-53 32-53 75 10 74 51 75" id="P"/><path fill="#3a414a" d="M114-163C36-179 61-72 57 0H25l-1-190h30c1 12-1 29 2 39 6-27 23-49 58-41v29" id="Q"/><path fill="#3a414a" d="M59-47c-2 24 18 29 38 22v24C64 9 27 4 27-40v-127H5v-23h24l9-43h21v43h35v23H59v120" id="R"/><path fill="#3a414a" d="M18-27v-27l151-64-151-65v-27l175 74v36" id="S"/><g id="n"><use transform="matrix(0.0493827160493827,0,0,0.0493827160493827,0,0)" xlink:href="#L"/><use transform="matrix(0.0493827160493827,0,0,0.0493827160493827,10.370370370370367,0)" xlink:href="#L"/><use transform="matrix(0.0493827160493827,0,0,0.0493827160493827,20.740740740740733,0)" xlink:href="#M"/><use transform="matrix(0.0493827160493827,0,0,0.0493827160493827,24.641975308641968,0)" xlink:href="#N"/><use transform="matrix(0.0493827160493827,0,0,0.0493827160493827,39.40740740740739,0)" xlink:href="#O"/><use transform="matrix(0.0493827160493827,0,0,0.0493827160493827,49.28395061728393,0)" xlink:href="#P"/><use transform="matrix(0.0493827160493827,0,0,0.0493827160493827,59.160493827160465,0)" xlink:href="#Q"/><use transform="matrix(0.0493827160493827,0,0,0.0493827160493827,65.03703703703701,0)" xlink:href="#R"/><use transform="matrix(0.0493827160493827,0,0,0.0493827160493827,69.97530864197527,0)" xlink:href="#S"/><use transform="matrix(0.0493827160493827,0,0,0.0493827160493827,80.34567901234564,0)" xlink:href="#S"/></g></defs></g></svg>