<svg width="1092" height="1473" viewBox="0 0 1092 1473" fill="none" xmlns="http://www.w3.org/2000/svg">
<g clip-path="url(#clip0_11_619)">
<path d="M-1779 -459H2221V2041H-1779V-459Z" fill="white"/>
<path d="M127 27H201V121H1V1H121L127 27ZM1 27H127Z" fill="#CED4DB"/>
<path d="M1 27H127M127 27H201V121H1V1H121L127 27Z" stroke="#333333" stroke-width="2"/>
<path d="M21.3334 69.6171C21.1482 67.5183 16.0247 67.2714 15.963 69.6171C16.8889 72.8887 23.0618 70.3578 23.3087 75.1727C23.5556 79.9875 14.0494 79.7406 13.6173 75.6665L15.3457 75.3578C15.5926 77.5801 21.3334 78.1356 21.3951 75.3578C20.7778 71.9011 14.4198 74.4319 14.1111 69.8023C13.8642 66.2838 19.1729 65.9134 21.642 67.2097C22.3827 67.6418 22.9383 68.3825 23.1235 69.3702" fill="black"/>
<path d="M31.1481 68.3826C26.3333 67.395 27.8765 73.9999 27.6296 78.4444H25.6543L25.5926 66.716H27.4444C27.5062 67.4567 27.3827 68.5061 27.5679 69.1234C27.9383 67.4567 28.9877 66.0987 31.1481 66.5925V68.3826Z" fill="black"/>
<path d="M37.3827 68.0121C34.9136 68.0121 34.4198 70.0492 34.4198 72.5183C34.4198 74.9875 34.9753 77.1479 37.3827 77.1479C38.8642 77.1479 39.9136 76.2838 40.0371 74.8023L42.0124 74.9257C41.642 77.2097 40.0988 78.6912 37.4445 78.6912C33.8025 78.6912 32.7531 76.1603 32.3827 72.58C31.7655 66.8393 38.6173 64.4936 41.4568 68.6294C41.7037 69.0615 41.7655 69.4936 41.8889 69.9875L39.9136 70.1726C39.6667 68.8763 38.926 68.0121 37.3827 68.0121Z" fill="black"/>
<path d="M101 123V1160" stroke="#3A414A" stroke-width="2"/>
<path d="M102 123.03H100V122H102V123.03ZM102 1160H101V1162H102V1164H100V1159.97H102V1160Z" fill="#3A414A" stroke="#3A414A" stroke-width="0.05"/>
<path d="M101.5 179.5H310.5V180.5H101.5V179.5Z" stroke="#333333"/>
<path d="M437 146H511V240H311V120H431L437 146ZM311 146H437Z" fill="#CED4DB"/>
<path d="M311 146H437M437 146H511V240H311V120H431L437 146Z" stroke="#333333" stroke-width="2"/>
<path d="M331.704 195.222C330.778 196.519 329.79 197.753 327.506 197.691C325.284 197.63 323.926 196.395 323.926 194.173C323.864 190.222 327.815 190.284 331.642 190.284C331.827 188.124 331.087 186.951 329.111 186.951C327.63 187.012 326.58 187.383 326.519 188.864L324.482 188.679C324.79 186.395 326.519 185.469 329.173 185.469C331.951 185.469 333.617 186.704 333.617 189.42V194.482C333.556 195.716 334.049 196.457 335.346 196.148V197.383C333.432 197.938 331.58 197.259 331.704 195.222ZM325.963 194.173C325.963 195.408 326.704 196.21 327.938 196.21C330.469 196.025 331.827 194.42 331.642 191.642C328.988 191.766 325.963 191.333 325.963 194.173Z" fill="black"/>
<path d="M342.445 185.469C345.84 185.531 346.766 188 346.766 191.519C346.766 195.037 345.778 197.568 342.445 197.691C340.531 197.691 339.42 196.889 338.741 195.593L338.803 202.074H336.827L336.766 185.716H338.679L338.803 187.568C339.42 186.272 340.531 185.469 342.445 185.469ZM341.951 196.21C344.42 196.21 344.728 194.111 344.728 191.58C344.728 189.049 344.358 187.074 341.951 187.012C339.358 187.012 338.803 188.988 338.803 191.704C338.803 194.358 339.42 196.21 341.951 196.21Z" fill="black"/>
<path d="M349.173 183.185V181.333H351.148V183.185H349.173ZM349.173 197.445V185.716H351.148V197.445H349.173Z" fill="black"/>
<path d="M101.5 740.5H310.5V741.5H101.5V740.5Z" stroke="#333333"/>
<path d="M437 707H511V801H311V681H431L437 707ZM311 707H437Z" fill="#CED4DB"/>
<path d="M311 707H437M437 707H511V801H311V681H431L437 707Z" stroke="#333333" stroke-width="2"/>
<path d="M329.173 746.469C333.062 746.469 334.481 749.062 334.358 753.012H326.025C326.025 755.482 326.889 757.148 329.296 757.21C330.901 757.272 331.951 756.469 332.321 755.42L334.049 755.914C333.37 757.642 331.765 758.691 329.296 758.691C325.716 758.691 323.864 756.408 323.926 752.519C323.988 748.753 325.531 746.469 329.173 746.469ZM332.383 751.469C332.753 747.766 327.691 746.716 326.395 749.741C326.21 750.173 326.025 750.79 326.025 751.469H332.383Z" fill="black"/>
<path d="M344.049 758.445L340.901 753.63L337.691 758.445H335.592L339.79 752.395L335.778 746.716H337.938L340.901 751.284L343.802 746.716H345.963L342.012 752.395L346.21 758.445H344.049Z" fill="black"/>
<path d="M353.555 746.469C356.95 746.531 357.876 749 357.876 752.519C357.876 756.037 356.889 758.568 353.555 758.691C351.642 758.691 350.531 757.889 349.852 756.593L349.913 763.074H347.938L347.876 746.716H349.79L349.913 748.568C350.531 747.272 351.642 746.469 353.555 746.469ZM353.062 757.21C355.531 757.21 355.839 755.111 355.839 752.58C355.839 750.049 355.469 748.074 353.062 748.012C350.469 748.012 349.913 749.988 349.913 752.704C349.913 755.358 350.531 757.21 353.062 757.21Z" fill="black"/>
<path d="M364.975 746.469C368.864 746.469 370.284 749.062 370.16 753.012H361.827C361.827 755.482 362.691 757.148 365.099 757.21C366.704 757.272 367.753 756.469 368.123 755.42L369.852 755.914C369.173 757.642 367.568 758.691 365.099 758.691C361.518 758.691 359.667 756.408 359.728 752.519C359.79 748.753 361.333 746.469 364.975 746.469ZM368.185 751.469C368.555 747.766 363.494 746.716 362.197 749.741C362.012 750.173 361.827 750.79 361.827 751.469H368.185Z" fill="black"/>
<path d="M378.185 748.383C373.37 747.395 374.913 754 374.667 758.445H372.691L372.63 746.716H374.481C374.543 747.457 374.42 748.506 374.605 749.124C374.975 747.457 376.025 746.099 378.185 746.593V748.383Z" fill="black"/>
<path d="M379.975 744.185V742.333H381.951V744.185H379.975ZM379.975 758.445V746.716H381.951V758.445H379.975Z" fill="black"/>
<path d="M396.333 748.012C392.197 748.198 393.988 754.494 393.617 758.445H391.704V750.975C391.704 749.185 391.395 747.889 389.543 748.012C385.469 748.259 387.197 754.432 386.827 758.445H384.913L384.852 746.716H386.704C386.765 747.333 386.642 748.198 386.827 748.692C387.444 745.975 392.938 745.605 393.432 748.692C394.111 747.395 395.099 746.531 397.012 746.469C402.259 746.346 399.913 753.815 400.407 758.445H398.494V750.975C398.494 749.185 398.185 747.951 396.333 748.012Z" fill="black"/>
<path d="M408 746.469C411.889 746.469 413.309 749.062 413.185 753.012H404.852C404.852 755.482 405.716 757.148 408.123 757.21C409.728 757.272 410.778 756.469 411.148 755.42L412.876 755.914C412.197 757.642 410.592 758.691 408.123 758.691C404.543 758.691 402.691 756.408 402.753 752.519C402.815 748.753 404.358 746.469 408 746.469ZM411.21 751.469C411.58 747.766 406.518 746.716 405.222 749.741C405.037 750.173 404.852 750.79 404.852 751.469H411.21Z" fill="black"/>
<path d="M421.395 746.469C426.889 746.222 424.667 753.63 425.099 758.445H423.123V750.976C423.123 749.062 422.629 747.951 420.716 748.013C416.271 748.136 418 754.309 417.691 758.445H415.716L415.654 746.716H417.506C417.568 747.334 417.444 748.198 417.629 748.692C418.308 747.334 419.42 746.531 421.395 746.469Z" fill="black"/>
<path d="M430.16 755.543C430.037 757.025 431.271 757.334 432.506 756.902V758.383C430.469 759 428.185 758.692 428.185 755.976V748.136H426.827V746.716H428.309L428.864 744.062H430.16V746.716H432.321V748.136H430.16V755.543Z" fill="black"/>
<path d="M432.383 762.889V761.469H445.284V762.889H432.383Z" fill="black"/>
<path d="M446.518 758.445V742.333H448.494V758.445H446.518Z" fill="black"/>
<path d="M456.086 746.469C459.913 746.407 461.333 748.753 461.333 752.58C461.395 756.469 459.667 758.691 456.025 758.691C452.383 758.691 450.901 756.284 450.839 752.58C450.839 748.506 452.568 746.469 456.086 746.469ZM456.025 757.21C458.741 757.272 459.296 755.296 459.296 752.58C459.296 749.926 458.802 747.951 456.148 747.951C453.494 747.951 452.876 749.926 452.876 752.58C452.876 755.235 453.494 757.148 456.025 757.21Z" fill="black"/>
<path d="M473.185 746.716C472.568 754.432 475.716 764.803 466.395 762.827C464.975 762.457 464.049 761.593 463.679 760.173L465.654 759.864C466.58 762.765 471.827 761.84 471.148 758.136V756.284C470.469 757.58 469.358 758.506 467.383 758.506C464.049 758.506 463.185 755.975 463.185 752.58C463.185 749.124 464.173 746.593 467.568 746.531C469.358 746.469 470.531 747.519 471.21 748.691C471.271 748.074 471.21 747.272 471.333 746.716H473.185ZM468.062 757.086C470.284 757.086 471.148 755.111 471.148 752.58C471.148 749.988 470.284 747.951 468.062 747.951C465.654 747.951 465.222 750.049 465.222 752.58C465.222 755.111 465.592 757.086 468.062 757.086Z" fill="black"/>
<path d="M476.086 744.185V742.333H478.062V744.185H476.086ZM476.086 758.445V746.716H478.062V758.445H476.086Z" fill="black"/>
<path d="M485.407 748.012C482.938 748.012 482.444 750.049 482.444 752.519C482.444 754.988 483 757.148 485.407 757.148C486.889 757.148 487.938 756.284 488.062 754.803L490.037 754.926C489.667 757.21 488.123 758.691 485.469 758.691C481.827 758.691 480.778 756.161 480.407 752.58C479.79 746.84 486.642 744.494 489.481 748.63C489.728 749.062 489.79 749.494 489.913 749.988L487.938 750.173C487.691 748.877 486.95 748.012 485.407 748.012Z" fill="black"/>
<path d="M411 242V580" stroke="#3A414A" stroke-width="2"/>
<path d="M412 242.03H410V241H412V242.03Z" fill="#3A414A" stroke="#3A414A" stroke-width="0.05"/>
<path d="M411 579.97V581" stroke="#3A414A" stroke-width="2"/>
<path d="M411.5 860.5H630.5V861.5H411.5V860.5Z" stroke="#333333"/>
<path d="M797 827H901V921H621V801H789L797 827ZM621 827H797Z" fill="#CED4DB"/>
<path d="M621 827H797M797 827H901V921H621V801H789L797 827Z" stroke="#333333" stroke-width="2"/>
<path d="M641.333 869.617C641.148 867.519 636.025 867.272 635.963 869.617C636.889 872.889 643.062 870.358 643.309 875.173C643.555 879.988 634.049 879.741 633.617 875.667L635.346 875.358C635.592 877.58 641.333 878.136 641.395 875.358C640.778 871.901 634.42 874.432 634.111 869.803C633.864 866.284 639.173 865.914 641.642 867.21C642.383 867.642 642.938 868.383 643.123 869.37" fill="black"/>
<path d="M650.037 868.012C647.568 868.012 647.074 870.049 647.074 872.519C647.074 874.988 647.63 877.148 650.037 877.148C651.518 877.148 652.568 876.284 652.691 874.803L654.667 874.926C654.296 877.21 652.753 878.691 650.099 878.691C646.457 878.691 645.407 876.161 645.037 872.58C644.42 866.84 651.271 864.494 654.111 868.63C654.358 869.062 654.42 869.494 654.543 869.988L652.568 870.173C652.321 868.877 651.58 868.012 650.037 868.012Z" fill="black"/>
<path d="M661.765 868.013C657.321 868.013 659.049 874.309 658.741 878.445H656.765V862.333H658.741L658.679 868.692C659.42 867.395 660.407 866.469 662.444 866.469C667.938 866.469 665.716 873.63 666.148 878.445H664.173V870.975C664.296 869 663.679 867.951 661.765 868.013Z" fill="black"/>
<path d="M673.741 866.469C677.629 866.469 679.049 869.062 678.926 873.012H670.592C670.592 875.482 671.457 877.148 673.864 877.21C675.469 877.272 676.518 876.469 676.889 875.42L678.617 875.914C677.938 877.642 676.333 878.691 673.864 878.691C670.284 878.691 668.432 876.408 668.494 872.519C668.555 868.753 670.099 866.469 673.741 866.469ZM676.95 871.469C677.321 867.766 672.259 866.716 670.963 869.741C670.778 870.173 670.592 870.79 670.592 871.469H676.95Z" fill="black"/>
<path d="M685.16 866.469C687.074 866.469 688.123 867.272 688.864 868.506L688.802 862.333H690.778L690.839 878.445H688.988C688.864 877.827 688.988 877.025 688.802 876.531C688.185 877.951 687.074 878.692 685.16 878.692C681.889 878.692 680.901 876.284 680.839 872.642C680.839 868.568 682.259 866.469 685.16 866.469ZM685.716 867.951C683.247 867.951 682.876 870.05 682.876 872.58C682.876 875.05 683.247 877.148 685.654 877.148C688.247 877.148 688.802 875.173 688.802 872.457C688.802 869.864 688.247 867.889 685.716 867.951Z" fill="black"/>
<path d="M697.444 878.692C691.95 878.939 694.111 871.531 693.679 866.716H695.654V874.124C695.654 876.037 696.086 877.21 698.062 877.148C702.506 877.025 700.839 870.914 701.148 866.716H703.062L703.123 878.445H701.271C701.21 877.827 701.333 876.901 701.148 876.408C700.469 877.766 699.42 878.63 697.444 878.692Z" fill="black"/>
<path d="M706.086 878.445V862.333H708.062V878.445H706.086Z" fill="black"/>
<path d="M710.963 864.185V862.333H712.938V864.185H710.963ZM710.963 878.445V866.716H712.938V878.445H710.963Z" fill="black"/>
<path d="M721.58 866.469C727.074 866.222 724.852 873.63 725.284 878.445H723.308V870.976C723.308 869.062 722.815 867.951 720.901 868.013C716.457 868.136 718.185 874.309 717.876 878.445H715.901L715.839 866.716H717.691C717.753 867.334 717.629 868.198 717.815 868.692C718.494 867.334 719.605 866.531 721.58 866.469Z" fill="black"/>
<path d="M737.63 866.716C737.012 874.432 740.16 884.803 730.839 882.827C729.42 882.457 728.494 881.593 728.123 880.173L730.099 879.864C731.025 882.765 736.271 881.84 735.592 878.136V876.284C734.913 877.58 733.802 878.506 731.827 878.506C728.494 878.506 727.63 875.975 727.63 872.58C727.63 869.124 728.617 866.593 732.012 866.531C733.802 866.469 734.975 867.519 735.654 868.691C735.716 868.074 735.654 867.272 735.778 866.716H737.63ZM732.506 877.086C734.728 877.086 735.592 875.111 735.592 872.58C735.592 869.988 734.728 867.951 732.506 867.951C730.099 867.951 729.667 870.049 729.667 872.58C729.667 875.111 730.037 877.086 732.506 877.086Z" fill="black"/>
<path d="M411.5 1001.5H630.5V1002.5H411.5V1001.5Z" stroke="#333333"/>
<path d="M823 968H941V1062H621V942H813L823 968ZM621 968H823Z" fill="#CED4DB"/>
<path d="M621 968H823M823 968H941V1062H621V942H813L823 968Z" stroke="#333333" stroke-width="2"/>
<path d="M641.333 1010.62C641.148 1008.52 636.025 1008.27 635.963 1010.62C636.889 1013.89 643.062 1011.36 643.309 1016.17C643.555 1020.99 634.049 1020.74 633.617 1016.67L635.346 1016.36C635.592 1018.58 641.333 1019.14 641.395 1016.36C640.778 1012.9 634.42 1015.43 634.111 1010.8C633.864 1007.28 639.173 1006.91 641.642 1008.21C642.383 1008.64 642.938 1009.38 643.123 1010.37" fill="black"/>
<path d="M649.296 1019.69C643.802 1019.94 645.963 1012.53 645.531 1007.72H647.506V1015.12C647.506 1017.04 647.938 1018.21 649.914 1018.15C654.358 1018.02 652.691 1011.91 653 1007.72H654.914L654.975 1019.44H653.123C653.062 1018.83 653.185 1017.9 653 1017.41C652.321 1018.77 651.272 1019.63 649.296 1019.69Z" fill="black"/>
<path d="M663.555 1007.47C666.827 1007.47 667.815 1009.88 667.876 1013.52C667.876 1017.59 666.457 1019.69 663.555 1019.69C661.642 1019.63 660.531 1019.01 659.914 1017.59L659.79 1019.44H657.876L657.938 1003.33H659.914V1009.57C660.531 1008.15 661.642 1007.47 663.555 1007.47ZM663.062 1018.21C665.531 1018.21 665.839 1016.11 665.839 1013.58C665.839 1011.11 665.531 1008.95 663.062 1009.01C660.469 1009.01 659.914 1010.99 659.914 1013.7C659.914 1016.36 660.531 1018.21 663.062 1018.21Z" fill="black"/>
<path d="M677.136 1010.62C676.951 1008.52 671.827 1008.27 671.765 1010.62C672.691 1013.89 678.864 1011.36 679.111 1016.17C679.358 1020.99 669.852 1020.74 669.42 1016.67L671.148 1016.36C671.395 1018.58 677.136 1019.14 677.197 1016.36C676.58 1012.9 670.222 1015.43 669.914 1010.8C669.667 1007.28 674.975 1006.91 677.444 1008.21C678.185 1008.64 678.741 1009.38 678.926 1010.37" fill="black"/>
<path d="M687.012 1007.47C690.407 1007.53 691.333 1010 691.333 1013.52C691.333 1017.04 690.346 1019.57 687.012 1019.69C685.099 1019.69 683.988 1018.89 683.309 1017.59L683.37 1024.07H681.395L681.333 1007.72H683.247L683.37 1009.57C683.988 1008.27 685.099 1007.47 687.012 1007.47ZM686.518 1018.21C688.988 1018.21 689.296 1016.11 689.296 1013.58C689.296 1011.05 688.926 1009.07 686.518 1009.01C683.926 1009.01 683.37 1010.99 683.37 1013.7C683.37 1016.36 683.988 1018.21 686.518 1018.21Z" fill="black"/>
<path d="M700.963 1017.22C700.037 1018.52 699.049 1019.75 696.765 1019.69C694.543 1019.63 693.185 1018.4 693.185 1016.17C693.123 1012.22 697.074 1012.28 700.901 1012.28C701.086 1010.12 700.346 1008.95 698.37 1008.95C696.889 1009.01 695.839 1009.38 695.778 1010.86L693.741 1010.68C694.049 1008.4 695.778 1007.47 698.432 1007.47C701.21 1007.47 702.876 1008.7 702.876 1011.42V1016.48C702.815 1017.72 703.308 1018.46 704.605 1018.15V1019.38C702.691 1019.94 700.839 1019.26 700.963 1017.22ZM695.222 1016.17C695.222 1017.41 695.963 1018.21 697.197 1018.21C699.728 1018.02 701.086 1016.42 700.901 1013.64C698.247 1013.77 695.222 1013.33 695.222 1016.17Z" fill="black"/>
<path d="M710.531 1009.01C708.062 1009.01 707.568 1011.05 707.568 1013.52C707.568 1015.99 708.123 1018.15 710.531 1018.15C712.012 1018.15 713.062 1017.28 713.185 1015.8L715.16 1015.93C714.79 1018.21 713.247 1019.69 710.593 1019.69C706.951 1019.69 705.901 1017.16 705.531 1013.58C704.914 1007.84 711.765 1005.49 714.605 1009.63C714.852 1010.06 714.914 1010.49 715.037 1010.99L713.062 1011.17C712.815 1009.88 712.074 1009.01 710.531 1009.01Z" fill="black"/>
<path d="M721.889 1007.47C725.778 1007.47 727.197 1010.06 727.074 1014.01H718.741C718.741 1016.48 719.605 1018.15 722.012 1018.21C723.617 1018.27 724.667 1017.47 725.037 1016.42L726.765 1016.91C726.086 1018.64 724.481 1019.69 722.012 1019.69C718.432 1019.69 716.58 1017.41 716.642 1013.52C716.704 1009.75 718.247 1007.47 721.889 1007.47ZM725.099 1012.47C725.469 1008.77 720.407 1007.72 719.111 1010.74C718.926 1011.17 718.741 1011.79 718.741 1012.47H725.099Z" fill="black"/>
<path d="M729.049 1014.38V1012.65H734.481V1014.38H729.049Z" fill="black"/>
<path d="M736.889 1019.44V1003.33H738.864V1019.44H736.889Z" fill="black"/>
<path d="M746.457 1007.47C750.284 1007.41 751.704 1009.75 751.704 1013.58C751.765 1017.47 750.037 1019.69 746.395 1019.69C742.753 1019.69 741.271 1017.28 741.21 1013.58C741.21 1009.51 742.938 1007.47 746.457 1007.47ZM746.395 1018.21C749.111 1018.27 749.667 1016.3 749.667 1013.58C749.667 1010.93 749.173 1008.95 746.518 1008.95C743.864 1008.95 743.247 1010.93 743.247 1013.58C743.247 1016.23 743.864 1018.15 746.395 1018.21Z" fill="black"/>
<path d="M763.555 1007.72C762.938 1015.43 766.086 1025.8 756.765 1023.83C755.346 1023.46 754.42 1022.59 754.049 1021.17L756.025 1020.86C756.95 1023.77 762.197 1022.84 761.518 1019.14V1017.28C760.839 1018.58 759.728 1019.51 757.753 1019.51C754.42 1019.51 753.555 1016.98 753.555 1013.58C753.555 1010.12 754.543 1007.59 757.938 1007.53C759.728 1007.47 760.901 1008.52 761.58 1009.69C761.642 1009.07 761.58 1008.27 761.704 1007.72H763.555ZM758.432 1018.09C760.654 1018.09 761.518 1016.11 761.518 1013.58C761.518 1010.99 760.654 1008.95 758.432 1008.95C756.025 1008.95 755.592 1011.05 755.592 1013.58C755.592 1016.11 755.963 1018.09 758.432 1018.09Z" fill="black"/>
<path d="M766.457 1005.19V1003.33H768.432V1005.19H766.457ZM766.457 1019.44V1007.72H768.432V1019.44H766.457Z" fill="black"/>
<path d="M775.778 1009.01C773.309 1009.01 772.815 1011.05 772.815 1013.52C772.815 1015.99 773.37 1018.15 775.778 1018.15C777.259 1018.15 778.309 1017.28 778.432 1015.8L780.407 1015.93C780.037 1018.21 778.494 1019.69 775.839 1019.69C772.197 1019.69 771.148 1017.16 770.778 1013.58C770.16 1007.84 777.012 1005.49 779.852 1009.63C780.099 1010.06 780.16 1010.49 780.284 1010.99L778.309 1011.17C778.062 1009.88 777.321 1009.01 775.778 1009.01Z" fill="black"/>
<path d="M411 803V1000M411 803.03V802M411 999.97V1001" stroke="#3A414A" stroke-width="2"/>
<path d="M411.5 299.5H630.5V300.5H411.5V299.5Z" stroke="#333333"/>
<path d="M797 266H901V360H621V240H789L797 266ZM621 266H797Z" fill="#CED4DB"/>
<path d="M621 266H797M797 266H901V360H621V240H789L797 266Z" stroke="#333333" stroke-width="2"/>
<path d="M639.173 305.469C643.062 305.469 644.481 308.062 644.358 312.012H636.025C636.025 314.482 636.889 316.148 639.296 316.21C640.901 316.272 641.951 315.469 642.321 314.42L644.049 314.914C643.37 316.642 641.765 317.691 639.296 317.691C635.716 317.691 633.864 315.408 633.926 311.519C633.988 307.753 635.531 305.469 639.173 305.469ZM642.383 310.469C642.753 306.766 637.691 305.716 636.395 308.741C636.21 309.173 636.025 309.79 636.025 310.469H642.383Z" fill="black"/>
<path d="M654.049 317.445L650.901 312.63L647.691 317.445H645.593L649.79 311.395L645.778 305.716H647.938L650.901 310.284L653.802 305.716H655.963L652.012 311.395L656.21 317.445H654.049Z" fill="black"/>
<path d="M663.555 305.469C666.951 305.531 667.876 308 667.876 311.519C667.876 315.037 666.889 317.568 663.555 317.691C661.642 317.691 660.531 316.889 659.852 315.593L659.914 322.074H657.938L657.876 305.716H659.79L659.914 307.568C660.531 306.272 661.642 305.469 663.555 305.469ZM663.062 316.21C665.531 316.21 665.839 314.111 665.839 311.58C665.839 309.049 665.469 307.074 663.062 307.012C660.469 307.012 659.914 308.988 659.914 311.704C659.914 314.358 660.531 316.21 663.062 316.21Z" fill="black"/>
<path d="M674.975 305.469C678.864 305.469 680.284 308.062 680.16 312.012H671.827C671.827 314.482 672.691 316.148 675.099 316.21C676.704 316.272 677.753 315.469 678.123 314.42L679.852 314.914C679.173 316.642 677.568 317.691 675.099 317.691C671.518 317.691 669.667 315.408 669.728 311.519C669.79 307.753 671.333 305.469 674.975 305.469ZM678.185 310.469C678.555 306.766 673.494 305.716 672.197 308.741C672.012 309.173 671.827 309.79 671.827 310.469H678.185Z" fill="black"/>
<path d="M688.185 307.383C683.37 306.395 684.913 313 684.667 317.445H682.691L682.63 305.716H684.481C684.543 306.457 684.42 307.506 684.605 308.124C684.975 306.457 686.025 305.099 688.185 305.593V307.383Z" fill="black"/>
<path d="M689.975 303.185V301.333H691.951V303.185H689.975ZM689.975 317.445V305.716H691.951V317.445H689.975Z" fill="black"/>
<path d="M706.333 307.012C702.197 307.198 703.987 313.494 703.617 317.445H701.704V309.975C701.704 308.185 701.395 306.889 699.543 307.012C695.469 307.259 697.197 313.432 696.827 317.445H694.913L694.852 305.716H696.704C696.765 306.333 696.642 307.198 696.827 307.692C697.444 304.975 702.938 304.605 703.432 307.692C704.111 306.395 705.099 305.531 707.012 305.469C712.259 305.346 709.913 312.815 710.407 317.445H708.494V309.975C708.494 308.185 708.185 306.951 706.333 307.012Z" fill="black"/>
<path d="M718 305.469C721.889 305.469 723.309 308.062 723.185 312.012H714.852C714.852 314.482 715.716 316.148 718.123 316.21C719.728 316.272 720.778 315.469 721.148 314.42L722.876 314.914C722.197 316.642 720.592 317.691 718.123 317.691C714.543 317.691 712.691 315.408 712.753 311.519C712.815 307.753 714.358 305.469 718 305.469ZM721.21 310.469C721.58 306.766 716.518 305.716 715.222 308.741C715.037 309.173 714.852 309.79 714.852 310.469H721.21Z" fill="black"/>
<path d="M731.395 305.469C736.889 305.222 734.667 312.63 735.099 317.445H733.123V309.976C733.123 308.062 732.629 306.951 730.716 307.013C726.271 307.136 728 313.309 727.691 317.445H725.716L725.654 305.716H727.506C727.568 306.334 727.444 307.198 727.629 307.692C728.308 306.334 729.42 305.531 731.395 305.469Z" fill="black"/>
<path d="M740.16 314.543C740.037 316.025 741.271 316.334 742.506 315.902V317.383C740.469 318 738.185 317.692 738.185 314.976V307.136H736.827V305.716H738.309L738.864 303.062H740.16V305.716H742.321V307.136H740.16V314.543Z" fill="black"/>
<path d="M742.383 321.889V320.469H755.284V321.889H742.383Z" fill="black"/>
<path d="M763.741 315.222C762.815 316.519 761.827 317.753 759.543 317.691C757.321 317.63 755.963 316.395 755.963 314.173C755.901 310.222 759.852 310.284 763.679 310.284C763.864 308.124 763.123 306.951 761.148 306.951C759.667 307.012 758.617 307.383 758.555 308.864L756.518 308.679C756.827 306.395 758.555 305.469 761.21 305.469C763.988 305.469 765.654 306.704 765.654 309.42V314.482C765.593 315.716 766.086 316.457 767.383 316.148V317.383C765.469 317.938 763.617 317.259 763.741 315.222ZM758 314.173C758 315.408 758.741 316.21 759.975 316.21C762.506 316.025 763.864 314.42 763.679 311.642C761.025 311.766 758 311.333 758 314.173Z" fill="black"/>
<path d="M774.481 305.469C777.876 305.531 778.802 308 778.802 311.519C778.802 315.037 777.815 317.568 774.481 317.691C772.568 317.691 771.457 316.889 770.778 315.593L770.839 322.074H768.864L768.802 305.716H770.716L770.839 307.568C771.457 306.272 772.568 305.469 774.481 305.469ZM773.988 316.21C776.457 316.21 776.765 314.111 776.765 311.58C776.765 309.049 776.395 307.074 773.988 307.012C771.395 307.012 770.839 308.988 770.839 311.704C770.839 314.358 771.457 316.21 773.988 316.21Z" fill="black"/>
<path d="M781.21 303.185V301.333H783.185V303.185H781.21ZM781.21 317.445V305.716H783.185V317.445H781.21Z" fill="black"/>
<path d="M784.296 321.889V320.469H797.197V321.889H784.296Z" fill="black"/>
<path d="M803.123 305.469C807.012 305.469 808.432 308.062 808.308 312.012H799.975C799.975 314.482 800.839 316.148 803.247 316.21C804.852 316.272 805.901 315.469 806.271 314.42L808 314.914C807.321 316.642 805.716 317.691 803.247 317.691C799.666 317.691 797.815 315.408 797.876 311.519C797.938 307.753 799.481 305.469 803.123 305.469ZM806.333 310.469C806.704 306.766 801.642 305.716 800.346 308.741C800.16 309.173 799.975 309.79 799.975 310.469H806.333Z" fill="black"/>
<path d="M816.518 305.469C822.012 305.222 819.79 312.63 820.222 317.445H818.247V309.976C818.247 308.062 817.753 306.951 815.839 307.013C811.395 307.136 813.123 313.309 812.815 317.445H810.839L810.778 305.716H812.629C812.691 306.334 812.568 307.198 812.753 307.692C813.432 306.334 814.543 305.531 816.518 305.469Z" fill="black"/>
<path d="M826.889 305.469C828.802 305.469 829.852 306.272 830.592 307.506L830.531 301.333H832.506L832.568 317.445H830.716C830.592 316.827 830.716 316.025 830.531 315.531C829.913 316.951 828.802 317.692 826.889 317.692C823.617 317.692 822.629 315.284 822.568 311.642C822.568 307.568 823.988 305.469 826.889 305.469ZM827.444 306.951C824.975 306.951 824.605 309.05 824.605 311.58C824.605 314.05 824.975 316.148 827.383 316.148C829.975 316.148 830.531 314.173 830.531 311.457C830.531 308.864 829.975 306.889 827.444 306.951Z" fill="black"/>
<path d="M841.086 305.469C844.481 305.531 845.407 308 845.407 311.519C845.407 315.037 844.42 317.568 841.086 317.691C839.173 317.691 838.062 316.889 837.383 315.593L837.444 322.074H835.469L835.407 305.716H837.321L837.444 307.568C838.062 306.272 839.173 305.469 841.086 305.469ZM840.592 316.21C843.062 316.21 843.37 314.111 843.37 311.58C843.37 309.049 843 307.074 840.592 307.012C838 307.012 837.444 308.988 837.444 311.704C837.444 314.358 838.062 316.21 840.592 316.21Z" fill="black"/>
<path d="M852.506 305.469C856.333 305.407 857.753 307.753 857.753 311.58C857.815 315.469 856.086 317.691 852.444 317.691C848.802 317.691 847.321 315.284 847.259 311.58C847.259 307.506 848.988 305.469 852.506 305.469ZM852.444 316.21C855.16 316.272 855.716 314.296 855.716 311.58C855.716 308.926 855.222 306.951 852.568 306.951C849.913 306.951 849.296 308.926 849.296 311.58C849.296 314.235 849.913 316.148 852.444 316.21Z" fill="black"/>
<path d="M860.16 303.185V301.333H862.136V303.185H860.16ZM860.16 317.445V305.716H862.136V317.445H860.16Z" fill="black"/>
<path d="M870.778 305.469C876.271 305.222 874.049 312.63 874.481 317.445H872.506V309.976C872.506 308.062 872.012 306.951 870.099 307.013C865.654 307.136 867.383 313.309 867.074 317.445H865.099L865.037 305.716H866.889C866.95 306.334 866.827 307.198 867.012 307.692C867.691 306.334 868.802 305.531 870.778 305.469Z" fill="black"/>
<path d="M879.543 314.543C879.42 316.025 880.654 316.334 881.889 315.902V317.383C879.852 318 877.568 317.692 877.568 314.976V307.136H876.21V305.716H877.691L878.247 303.062H879.543V305.716H881.704V307.136H879.543V314.543Z" fill="black"/>
<path d="M890.407 308.617C890.222 306.519 885.099 306.272 885.037 308.617C885.963 311.889 892.136 309.358 892.383 314.173C892.63 318.988 883.123 318.741 882.691 314.667L884.42 314.358C884.667 316.58 890.407 317.136 890.469 314.358C889.852 310.901 883.494 313.432 883.185 308.803C882.938 305.284 888.247 304.914 890.716 306.21C891.457 306.642 892.012 307.383 892.197 308.37" fill="black"/>
<path d="M411.5 440.5H630.5V441.5H411.5V440.5Z" stroke="#333333"/>
<path d="M823 407H941V501H621V381H813L823 407ZM621 407H823Z" fill="#CED4DB"/>
<path d="M621 407H823M823 407H941V501H621V381H813L823 407Z" stroke="#333333" stroke-width="2"/>
<path d="M638.185 458.692C632.691 458.939 634.852 451.531 634.42 446.716H636.395V454.124C636.395 456.037 636.827 457.21 638.802 457.148C643.247 457.025 641.58 450.914 641.889 446.716H643.802L643.864 458.445H642.012C641.951 457.827 642.074 456.901 641.889 456.408C641.21 457.766 640.16 458.63 638.185 458.692Z" fill="black"/>
<path d="M653.679 449.617C653.494 447.519 648.37 447.272 648.309 449.617C649.234 452.889 655.407 450.358 655.654 455.173C655.901 459.988 646.395 459.741 645.963 455.667L647.691 455.358C647.938 457.58 653.679 458.136 653.741 455.358C653.123 451.901 646.765 454.432 646.457 449.803C646.21 446.284 651.518 445.914 653.988 447.21C654.728 447.642 655.284 448.383 655.469 449.37" fill="black"/>
<path d="M662.63 446.469C666.519 446.469 667.938 449.062 667.815 453.012H659.481C659.481 455.482 660.346 457.148 662.753 457.21C664.358 457.272 665.407 456.469 665.778 455.42L667.506 455.914C666.827 457.642 665.222 458.691 662.753 458.691C659.173 458.691 657.321 456.408 657.383 452.519C657.444 448.753 658.988 446.469 662.63 446.469ZM665.84 451.469C666.21 447.766 661.148 446.716 659.852 449.741C659.667 450.173 659.481 450.79 659.481 451.469H665.84Z" fill="black"/>
<path d="M675.839 448.383C671.025 447.395 672.568 454 672.321 458.445H670.346L670.284 446.716H672.136C672.198 447.457 672.074 448.506 672.259 449.124C672.63 447.457 673.679 446.099 675.839 446.593V448.383Z" fill="black"/>
<path d="M675.839 462.889V461.469H688.741V462.889H675.839Z" fill="black"/>
<path d="M701.457 448.012C697.321 448.198 699.111 454.494 698.741 458.445H696.827V450.975C696.827 449.185 696.519 447.889 694.667 448.012C690.593 448.259 692.321 454.432 691.951 458.445H690.037L689.975 446.716H691.827C691.889 447.333 691.765 448.198 691.951 448.692C692.568 445.975 698.062 445.605 698.556 448.692C699.235 447.395 700.222 446.531 702.136 446.469C707.383 446.346 705.037 453.815 705.531 458.445H703.617V450.975C703.617 449.185 703.309 447.951 701.457 448.012Z" fill="black"/>
<path d="M715.654 456.222C714.728 457.519 713.741 458.753 711.457 458.691C709.235 458.63 707.877 457.395 707.877 455.173C707.815 451.222 711.765 451.284 715.593 451.284C715.778 449.124 715.037 447.951 713.062 447.951C711.58 448.012 710.531 448.383 710.469 449.864L708.432 449.679C708.741 447.395 710.469 446.469 713.123 446.469C715.901 446.469 717.568 447.704 717.568 450.42V455.482C717.506 456.716 718 457.457 719.296 457.148V458.383C717.383 458.938 715.531 458.259 715.654 456.222ZM709.914 455.173C709.914 456.408 710.654 457.21 711.889 457.21C714.42 457.025 715.778 455.42 715.593 452.642C712.938 452.766 709.914 452.333 709.914 455.173Z" fill="black"/>
<path d="M726.518 446.469C732.012 446.222 729.79 453.63 730.222 458.445H728.247V450.976C728.247 449.062 727.753 447.951 725.839 448.013C721.395 448.136 723.123 454.309 722.815 458.445H720.839L720.778 446.716H722.63C722.691 447.334 722.568 448.198 722.753 448.692C723.432 447.334 724.543 446.531 726.518 446.469Z" fill="black"/>
<path d="M740.346 456.222C739.42 457.519 738.432 458.753 736.148 458.691C733.926 458.63 732.568 457.395 732.568 455.173C732.506 451.222 736.457 451.284 740.284 451.284C740.469 449.124 739.728 447.951 737.753 447.951C736.272 448.012 735.222 448.383 735.16 449.864L733.123 449.679C733.432 447.395 735.16 446.469 737.815 446.469C740.593 446.469 742.259 447.704 742.259 450.42V455.482C742.197 456.716 742.691 457.457 743.988 457.148V458.383C742.074 458.938 740.222 458.259 740.346 456.222ZM734.605 455.173C734.605 456.408 735.346 457.21 736.58 457.21C739.111 457.025 740.469 455.42 740.284 452.642C737.63 452.766 734.605 452.333 734.605 455.173Z" fill="black"/>
<path d="M754.914 446.716C754.296 454.432 757.444 464.803 748.123 462.827C746.704 462.457 745.778 461.593 745.407 460.173L747.383 459.864C748.309 462.765 753.556 461.84 752.877 458.136V456.284C752.198 457.58 751.086 458.506 749.111 458.506C745.778 458.506 744.914 455.975 744.914 452.58C744.914 449.124 745.901 446.593 749.296 446.531C751.086 446.469 752.259 447.519 752.938 448.691C753 448.074 752.938 447.272 753.062 446.716H754.914ZM749.79 457.086C752.012 457.086 752.877 455.111 752.877 452.58C752.877 449.988 752.012 447.951 749.79 447.951C747.383 447.951 746.951 450.049 746.951 452.58C746.951 455.111 747.321 457.086 749.79 457.086Z" fill="black"/>
<path d="M762.506 446.469C766.395 446.469 767.815 449.062 767.691 453.012H759.358C759.358 455.482 760.222 457.148 762.63 457.21C764.235 457.272 765.284 456.469 765.654 455.42L767.383 455.914C766.704 457.642 765.099 458.691 762.63 458.691C759.049 458.691 757.198 456.408 757.259 452.519C757.321 448.753 758.864 446.469 762.506 446.469ZM765.716 451.469C766.086 447.766 761.025 446.716 759.728 449.741C759.543 450.173 759.358 450.79 759.358 451.469H765.716Z" fill="black"/>
<path d="M781.642 448.012C777.506 448.198 779.296 454.494 778.926 458.445H777.012V450.975C777.012 449.185 776.704 447.889 774.852 448.012C770.778 448.259 772.506 454.432 772.136 458.445H770.222L770.161 446.716H772.012C772.074 447.333 771.951 448.198 772.136 448.692C772.753 445.975 778.247 445.605 778.741 448.692C779.42 447.395 780.407 446.531 782.321 446.469C787.568 446.346 785.222 453.815 785.716 458.445H783.802V450.975C783.802 449.185 783.494 447.951 781.642 448.012Z" fill="black"/>
<path d="M793.309 446.469C797.197 446.469 798.617 449.062 798.494 453.012H790.16C790.16 455.482 791.025 457.148 793.432 457.21C795.037 457.272 796.086 456.469 796.457 455.42L798.185 455.914C797.506 457.642 795.901 458.691 793.432 458.691C789.852 458.691 788 456.408 788.062 452.519C788.123 448.753 789.667 446.469 793.309 446.469ZM796.518 451.469C796.889 447.766 791.827 446.716 790.531 449.741C790.346 450.173 790.16 450.79 790.16 451.469H796.518Z" fill="black"/>
<path d="M806.704 446.469C812.197 446.222 809.975 453.63 810.407 458.445H808.432V450.976C808.432 449.062 807.938 447.951 806.025 448.013C801.58 448.136 803.309 454.309 803 458.445H801.025L800.963 446.716H802.815C802.876 447.334 802.753 448.198 802.938 448.692C803.617 447.334 804.728 446.531 806.704 446.469Z" fill="black"/>
<path d="M815.469 455.543C815.346 457.025 816.58 457.334 817.815 456.902V458.383C815.778 459 813.494 458.692 813.494 455.976V448.136H812.136V446.716H813.617L814.173 444.062H815.469V446.716H817.63V448.136H815.469V455.543Z" fill="black"/>
<path d="M817.691 462.889V461.469H830.593V462.889H817.691Z" fill="black"/>
<path d="M836.519 446.469C840.407 446.469 841.827 449.062 841.704 453.012H833.37C833.37 455.482 834.235 457.148 836.642 457.21C838.247 457.272 839.296 456.469 839.667 455.42L841.395 455.914C840.716 457.642 839.111 458.691 836.642 458.691C833.062 458.691 831.21 456.408 831.272 452.519C831.333 448.753 832.877 446.469 836.519 446.469ZM839.728 451.469C840.099 447.766 835.037 446.716 833.741 449.741C833.556 450.173 833.37 450.79 833.37 451.469H839.728Z" fill="black"/>
<path d="M849.914 446.469C855.407 446.222 853.185 453.63 853.617 458.445H851.642V450.976C851.642 449.062 851.148 447.951 849.235 448.013C844.79 448.136 846.519 454.309 846.21 458.445H844.235L844.173 446.716H846.025C846.086 447.334 845.963 448.198 846.148 448.692C846.827 447.334 847.938 446.531 849.914 446.469Z" fill="black"/>
<path d="M860.284 446.469C862.197 446.469 863.247 447.272 863.988 448.506L863.926 442.333H865.901L865.963 458.445H864.111C863.988 457.827 864.111 457.025 863.926 456.531C863.309 457.951 862.197 458.692 860.284 458.692C857.012 458.692 856.025 456.284 855.963 452.642C855.963 448.568 857.383 446.469 860.284 446.469ZM860.839 447.951C858.37 447.951 858 450.05 858 452.58C858 455.05 858.37 457.148 860.778 457.148C863.37 457.148 863.926 455.173 863.926 452.457C863.926 449.864 863.37 447.889 860.839 447.951Z" fill="black"/>
<path d="M874.482 446.469C877.877 446.531 878.802 449 878.802 452.519C878.802 456.037 877.815 458.568 874.482 458.691C872.568 458.691 871.457 457.889 870.778 456.593L870.84 463.074H868.864L868.802 446.716H870.716L870.84 448.568C871.457 447.272 872.568 446.469 874.482 446.469ZM873.988 457.21C876.457 457.21 876.765 455.111 876.765 452.58C876.765 450.049 876.395 448.074 873.988 448.012C871.395 448.012 870.84 449.988 870.84 452.704C870.84 455.358 871.457 457.21 873.988 457.21Z" fill="black"/>
<path d="M885.901 446.469C889.728 446.407 891.148 448.753 891.148 452.58C891.21 456.469 889.481 458.691 885.839 458.691C882.198 458.691 880.716 456.284 880.654 452.58C880.654 448.506 882.383 446.469 885.901 446.469ZM885.839 457.21C888.556 457.272 889.111 455.296 889.111 452.58C889.111 449.926 888.617 447.951 885.963 447.951C883.309 447.951 882.691 449.926 882.691 452.58C882.691 455.235 883.309 457.148 885.839 457.21Z" fill="black"/>
<path d="M893.556 444.185V442.333H895.531V444.185H893.556ZM893.556 458.445V446.716H895.531V458.445H893.556Z" fill="black"/>
<path d="M904.173 446.469C909.667 446.222 907.444 453.63 907.877 458.445H905.901V450.976C905.901 449.062 905.407 447.951 903.494 448.013C899.049 448.136 900.778 454.309 900.469 458.445H898.494L898.432 446.716H900.284C900.346 447.334 900.222 448.198 900.407 448.692C901.086 447.334 902.198 446.531 904.173 446.469Z" fill="black"/>
<path d="M912.938 455.543C912.815 457.025 914.049 457.334 915.284 456.902V458.383C913.247 459 910.963 458.692 910.963 455.976V448.136H909.605V446.716H911.086L911.642 444.062H912.938V446.716H915.099V448.136H912.938V455.543Z" fill="black"/>
<path d="M923.802 449.617C923.617 447.519 918.494 447.272 918.432 449.617C919.358 452.889 925.531 450.358 925.778 455.173C926.025 459.988 916.519 459.741 916.086 455.667L917.815 455.358C918.062 457.58 923.802 458.136 923.864 455.358C923.247 451.901 916.889 454.432 916.58 449.803C916.333 446.284 921.642 445.914 924.111 447.21C924.852 447.642 925.407 448.383 925.593 449.37" fill="black"/>
<path d="M411.5 580.5H630.5V581.5H411.5V580.5Z" stroke="#333333"/>
<path d="M747 546.46H821V640.46H621V520.46H741L747 546.46ZM621 546.46H747Z" fill="#CED4DB"/>
<path d="M621 546.46H747M747 546.46H821V640.46H621V520.46H741L747 546.46Z" stroke="#333333" stroke-width="2"/>
<path d="M638.185 598.147C632.691 598.394 634.852 590.987 634.42 586.172H636.395V593.579C636.395 595.493 636.827 596.666 638.802 596.604C643.247 596.481 641.58 590.369 641.889 586.172H643.802L643.864 597.9H642.012C641.951 597.283 642.074 596.357 641.889 595.863C641.21 597.221 640.16 598.085 638.185 598.147Z" fill="black"/>
<path d="M648.988 594.999C648.864 596.481 650.099 596.789 651.333 596.357V597.839C649.296 598.456 647.012 598.147 647.012 595.431V587.592H645.654V586.172H647.136L647.691 583.518H648.988V586.172H651.148V587.592H648.988V594.999Z" fill="black"/>
<path d="M653 583.641V581.789H654.975V583.641H653ZM653 597.9V586.172H654.975V597.9H653Z" fill="black"/>
<path d="M657.876 597.9V581.789H659.852V597.9H657.876Z" fill="black"/>
<path d="M669.605 589.073C669.42 586.974 664.296 586.727 664.235 589.073C665.161 592.345 671.333 589.814 671.58 594.628C671.827 599.443 662.321 599.196 661.889 595.122L663.617 594.814C663.864 597.036 669.605 597.591 669.667 594.814C669.049 591.357 662.691 593.888 662.383 589.258C662.136 585.74 667.444 585.369 669.914 586.666C670.654 587.098 671.21 587.838 671.395 588.826" fill="black"/>
<path d="M101.5 1160.5H310.5V1161.5H101.5V1160.5Z" stroke="#333333"/>
<path d="M437 1127H511V1221H311V1101H431L437 1127ZM311 1127H437Z" fill="#CED4DB"/>
<path d="M311 1127H437M437 1127H511V1221H311V1101H431L437 1127Z" stroke="#333333" stroke-width="2"/>
<path d="M335.963 1168.01C331.827 1168.2 333.617 1174.49 333.247 1178.44H331.333V1170.98C331.333 1169.19 331.025 1167.89 329.173 1168.01C325.099 1168.26 326.827 1174.43 326.457 1178.44H324.543L324.481 1166.72H326.333C326.395 1167.33 326.272 1168.2 326.457 1168.69C327.074 1165.98 332.568 1165.6 333.062 1168.69C333.741 1167.39 334.728 1166.53 336.642 1166.47C341.889 1166.35 339.543 1173.81 340.037 1178.44H338.123V1170.98C338.123 1169.19 337.815 1167.95 335.963 1168.01Z" fill="black"/>
<path d="M347.63 1166.47C351.457 1166.41 352.877 1168.75 352.877 1172.58C352.938 1176.47 351.21 1178.69 347.568 1178.69C343.926 1178.69 342.444 1176.28 342.383 1172.58C342.383 1168.51 344.111 1166.47 347.63 1166.47ZM347.568 1177.21C350.284 1177.27 350.839 1175.3 350.839 1172.58C350.839 1169.93 350.346 1167.95 347.691 1167.95C345.037 1167.95 344.42 1169.93 344.42 1172.58C344.42 1175.23 345.037 1177.15 347.568 1177.21Z" fill="black"/>
<path d="M359.049 1166.47C360.963 1166.47 362.012 1167.27 362.753 1168.51L362.691 1162.33H364.667L364.728 1178.44H362.876C362.753 1177.83 362.876 1177.02 362.691 1176.53C362.074 1177.95 360.963 1178.69 359.049 1178.69C355.778 1178.69 354.79 1176.28 354.728 1172.64C354.728 1168.57 356.148 1166.47 359.049 1166.47ZM359.605 1167.95C357.136 1167.95 356.765 1170.05 356.765 1172.58C356.765 1175.05 357.136 1177.15 359.543 1177.15C362.136 1177.15 362.691 1175.17 362.691 1172.46C362.691 1169.86 362.136 1167.89 359.605 1167.95Z" fill="black"/>
<path d="M372.321 1166.47C376.21 1166.47 377.63 1169.06 377.506 1173.01H369.173C369.173 1175.48 370.037 1177.15 372.444 1177.21C374.049 1177.27 375.099 1176.47 375.469 1175.42L377.198 1175.91C376.519 1177.64 374.914 1178.69 372.444 1178.69C368.864 1178.69 367.012 1176.41 367.074 1172.52C367.136 1168.75 368.679 1166.47 372.321 1166.47ZM375.531 1171.47C375.901 1167.77 370.839 1166.72 369.543 1169.74C369.358 1170.17 369.173 1170.79 369.173 1171.47H375.531Z" fill="black"/>
<path d="M379.975 1178.44V1162.33H381.951V1178.44H379.975Z" fill="black"/>
<path d="M391.704 1169.62C391.518 1167.52 386.395 1167.27 386.333 1169.62C387.259 1172.89 393.432 1170.36 393.679 1175.17C393.926 1179.99 384.42 1179.74 383.988 1175.67L385.716 1175.36C385.963 1177.58 391.704 1178.14 391.765 1175.36C391.148 1171.9 384.79 1174.43 384.481 1169.8C384.235 1166.28 389.543 1165.91 392.012 1167.21C392.753 1167.64 393.309 1168.38 393.494 1169.37" fill="black"/>
<path d="M411.5 1280.5H630.5V1281.5H411.5V1280.5Z" stroke="#333333"/>
<path d="M797 1247H901V1341H621V1221H789L797 1247ZM621 1247H797Z" fill="#CED4DB"/>
<path d="M621 1247H797M797 1247H901V1341H621V1221H789L797 1247Z" stroke="#333333" stroke-width="2"/>
<path d="M638.247 1286.47C640.16 1286.47 641.21 1287.27 641.95 1288.51L641.889 1282.33H643.864L643.926 1298.44H642.074C641.95 1297.83 642.074 1297.02 641.889 1296.53C641.271 1297.95 640.16 1298.69 638.247 1298.69C634.975 1298.69 633.988 1296.28 633.926 1292.64C633.926 1288.57 635.346 1286.47 638.247 1286.47ZM638.802 1287.95C636.333 1287.95 635.963 1290.05 635.963 1292.58C635.963 1295.05 636.333 1297.15 638.741 1297.15C641.333 1297.15 641.889 1295.17 641.889 1292.46C641.889 1289.86 641.333 1287.89 638.802 1287.95Z" fill="black"/>
<path d="M654.049 1296.22C653.123 1297.52 652.136 1298.75 649.852 1298.69C647.629 1298.63 646.271 1297.39 646.271 1295.17C646.21 1291.22 650.16 1291.28 653.988 1291.28C654.173 1289.12 653.432 1287.95 651.457 1287.95C649.975 1288.01 648.926 1288.38 648.864 1289.86L646.827 1289.68C647.136 1287.39 648.864 1286.47 651.518 1286.47C654.296 1286.47 655.963 1287.7 655.963 1290.42V1295.48C655.901 1296.72 656.395 1297.46 657.691 1297.15V1298.38C655.778 1298.94 653.926 1298.26 654.049 1296.22ZM648.309 1295.17C648.309 1296.41 649.049 1297.21 650.284 1297.21C652.815 1297.02 654.173 1295.42 653.988 1292.64C651.333 1292.77 648.309 1292.33 648.309 1295.17Z" fill="black"/>
<path d="M661.333 1295.54C661.21 1297.02 662.444 1297.33 663.679 1296.9V1298.38C661.642 1299 659.358 1298.69 659.358 1295.98V1288.14H658V1286.72H659.481L660.037 1284.06H661.333V1286.72H663.494V1288.14H661.333V1295.54Z" fill="black"/>
<path d="M672.568 1296.22C671.642 1297.52 670.654 1298.75 668.37 1298.69C666.148 1298.63 664.79 1297.39 664.79 1295.17C664.728 1291.22 668.679 1291.28 672.506 1291.28C672.691 1289.12 671.951 1287.95 669.975 1287.95C668.494 1288.01 667.444 1288.38 667.383 1289.86L665.346 1289.68C665.654 1287.39 667.383 1286.47 670.037 1286.47C672.815 1286.47 674.481 1287.7 674.481 1290.42V1295.48C674.42 1296.72 674.913 1297.46 676.21 1297.15V1298.38C674.296 1298.94 672.444 1298.26 672.568 1296.22ZM666.827 1295.17C666.827 1296.41 667.568 1297.21 668.802 1297.21C671.333 1297.02 672.691 1295.42 672.506 1292.64C669.852 1292.77 666.827 1292.33 666.827 1295.17Z" fill="black"/>
<path d="M675.901 1302.89V1301.47H688.802V1302.89H675.901Z" fill="black"/>
<path d="M701.518 1288.01C697.383 1288.2 699.173 1294.49 698.802 1298.44H696.889V1290.98C696.889 1289.19 696.58 1287.89 694.728 1288.01C690.654 1288.26 692.383 1294.43 692.012 1298.44H690.099L690.037 1286.72H691.889C691.95 1287.33 691.827 1288.2 692.012 1288.69C692.629 1285.98 698.123 1285.6 698.617 1288.69C699.296 1287.39 700.284 1286.53 702.197 1286.47C707.444 1286.35 705.099 1293.81 705.592 1298.44H703.679V1290.98C703.679 1289.19 703.37 1287.95 701.518 1288.01Z" fill="black"/>
<path d="M713.185 1286.47C717.012 1286.41 718.432 1288.75 718.432 1292.58C718.494 1296.47 716.765 1298.69 713.123 1298.69C709.481 1298.69 708 1296.28 707.938 1292.58C707.938 1288.51 709.667 1286.47 713.185 1286.47ZM713.123 1297.21C715.839 1297.27 716.395 1295.3 716.395 1292.58C716.395 1289.93 715.901 1287.95 713.247 1287.95C710.592 1287.95 709.975 1289.93 709.975 1292.58C709.975 1295.23 710.592 1297.15 713.123 1297.21Z" fill="black"/>
<path d="M724.605 1286.47C726.518 1286.47 727.568 1287.27 728.309 1288.51L728.247 1282.33H730.222L730.284 1298.44H728.432C728.309 1297.83 728.432 1297.02 728.247 1296.53C727.629 1297.95 726.518 1298.69 724.605 1298.69C721.333 1298.69 720.346 1296.28 720.284 1292.64C720.284 1288.57 721.704 1286.47 724.605 1286.47ZM725.16 1287.95C722.691 1287.95 722.321 1290.05 722.321 1292.58C722.321 1295.05 722.691 1297.15 725.099 1297.15C727.691 1297.15 728.247 1295.17 728.247 1292.46C728.247 1289.86 727.691 1287.89 725.16 1287.95Z" fill="black"/>
<path d="M737.876 1286.47C741.765 1286.47 743.185 1289.06 743.062 1293.01H734.728C734.728 1295.48 735.592 1297.15 738 1297.21C739.605 1297.27 740.654 1296.47 741.024 1295.42L742.753 1295.91C742.074 1297.64 740.469 1298.69 738 1298.69C734.42 1298.69 732.568 1296.41 732.629 1292.52C732.691 1288.75 734.234 1286.47 737.876 1286.47ZM741.086 1291.47C741.457 1287.77 736.395 1286.72 735.099 1289.74C734.913 1290.17 734.728 1290.79 734.728 1291.47H741.086Z" fill="black"/>
<path d="M745.531 1298.44V1282.33H747.506V1298.44H745.531Z" fill="black"/>
<path d="M757.259 1289.62C757.074 1287.52 751.95 1287.27 751.889 1289.62C752.815 1292.89 758.988 1290.36 759.234 1295.17C759.481 1299.99 749.975 1299.74 749.543 1295.67L751.271 1295.36C751.518 1297.58 757.259 1298.14 757.321 1295.36C756.704 1291.9 750.346 1294.43 750.037 1289.8C749.79 1286.28 755.099 1285.91 757.568 1287.21C758.309 1287.64 758.864 1288.38 759.049 1289.37" fill="black"/>
<path d="M411.5 1421.5H630.5V1422.5H411.5V1421.5Z" stroke="#333333"/>
<path d="M411 1223V1420M411 1223.03V1222M411 1419.97V1421" stroke="#3A414A" stroke-width="2"/>
<path d="M631 1372H771L791 1392V1472H631V1372Z" fill="#6DB1FF" stroke="#333333" stroke-width="2"/>
<path d="M771 1372.95V1392H790.05" fill="#6DB1FF"/>
<path d="M771 1372.95V1392H790.05" stroke="#333333" stroke-width="2"/>
<path d="M705.222 1424.97V1423.1H706.901V1424.97H705.222Z" fill="black"/>
<path d="M710.16 1424.97V1423.1H711.839V1424.97H710.16Z" fill="black"/>
<path d="M715.099 1424.97V1423.1H716.778V1424.97H715.099Z" fill="black"/>
<path d="M823.9 1423H793V1421H823.9V1423ZM890 1423H859.1V1421H890V1423Z" fill="#3A414A" stroke="#3A414A" stroke-width="0.05"/>
<path d="M793.03 1423H792V1421H793.03V1423Z" fill="#3A414A"/>
<path d="M793.05 1423.03H791.97V1420.97H793.05V1423.03ZM792.02 1421.03V1422.97H793V1421.03H792.02ZM891 1423H889.97V1421H891V1423Z" fill="#3A414A" stroke="#3A414A" stroke-width="0.05"/>
<path d="M827.778 1430.44V1425.99H831.765V1430.44H827.778Z" fill="black"/>
<path d="M839.506 1430.44V1425.99H843.494V1430.44H839.506Z" fill="black"/>
<path d="M851.235 1430.44V1425.99H855.222V1430.44H851.235Z" fill="black"/>
<path d="M891 1372H1071L1091 1392V1472H891V1372Z" fill="#6DB1FF" stroke="#333333" stroke-width="2"/>
<path d="M1071 1372.95V1392H1090.05" fill="#6DB1FF"/>
<path d="M1071 1372.95V1392H1090.05" stroke="#333333" stroke-width="2"/>
<path d="M985.222 1424.97V1423.1H986.901V1424.97H985.222Z" fill="black"/>
<path d="M990.16 1424.97V1423.1H991.839V1424.97H990.16Z" fill="black"/>
<path d="M995.099 1424.97V1423.1H996.778V1424.97H995.099Z" fill="black"/>
</g>
<defs>
<clipPath id="clip0_11_619">
<rect width="1092" height="1473" fill="white"/>
</clipPath>
</defs>
</svg>
