<svg xmlns="http://www.w3.org/2000/svg" xmlns:xlink="http://www.w3.org/1999/xlink" xmlns:lucid="lucid" width="1240.67" height="3050.29"><g transform="translate(-499.3333333333335 648.0416666666667)" lucid:page-tab-id="mt6mLyCVx.ik"><path d="M1046.67 2149.25h74v94h-200v-120h120zm-126 0h126" stroke="#333" stroke-width="2" fill="#ced4db"/><use xlink:href="#a" transform="matrix(1,0,0,1,932.6666666666665,2157.25) translate(0 43.44444444444444)"/><path d="M1046 2288.25h74v94H920v-120h120zm-126 0h126" stroke="#333" stroke-width="2" fill="#ced4db"/><use xlink:href="#b" transform="matrix(1,0,0,1,932,2296.25) translate(0 43.44444444444444)"/><path d="M1122 2329.7h96" stroke="#3a414a" stroke-width="2" fill="none"/><path d="M1122.03 2330.7H1121v-2h1.03zM1219 2330.7h-1.03v-2h1.03z" stroke="#3a414a" stroke-width=".05" fill="#3a414a"/><path d="M1220 2279.7h140l20 20v80h-160z" stroke="#333" stroke-width="2" fill="#6db1ff"/><path d="M1360 2280.66v19.05h19.05" stroke="#333" stroke-width="2" fill="#6db1ff"/><use xlink:href="#c" transform="matrix(1,0,0,1,1225,2284.7055956234117) translate(17.296296296296312 47.97222222222222)"/><path d="M1412.9 2330.7H1382v-2h30.9zm66.1 0h-30.9v-2h30.9z" stroke="#3a414a" stroke-width=".05" fill="#3a414a"/><path d="M1382.03 2330.7H1381v-2h1.03z" fill="#3a414a"/><path d="M1382.05 2330.73h-1.08v-2.05h1.08zm-1.02-2v1.95h.97v-1.95zM1480 2330.7h-1.03v-2h1.03z" stroke="#3a414a" stroke-width=".05" fill="#3a414a"/><use xlink:href="#d" transform="matrix(1,0,0,1,1412.9074074074074,2304.372262290078) translate(0 33.77777777777777)"/><path d="M1480 2279.7h180l20 20v80h-200z" stroke="#333" stroke-width="2" fill="#6db1ff"/><path d="M1660 2280.66v19.05h19.05" stroke="#333" stroke-width="2" fill="#6db1ff"/><use xlink:href="#e" transform="matrix(1,0,0,1,1485,2284.7055956234117) translate(2.851851851851876 47.97222222222222)"/><path d="M1046 1586h74v94H920v-120h120zm-126 0h126" stroke="#333" stroke-width="2" fill="#ced4db"/><use xlink:href="#f" transform="matrix(1,0,0,1,932,1594) translate(0 43.44444444444444)"/><path d="M1122 1630.96h96M1122.03 1630.96H1121" stroke="#3a414a" stroke-width="2" fill="none"/><path d="M1219 1631.96h-1.03v-2h1.03z" stroke="#3a414a" stroke-width=".05" fill="#3a414a"/><path d="M1220 1580.96h140l20 20v80h-160z" stroke="#333" stroke-width="2" fill="#6db1ff"/><path d="M1360 1581.9v19.06h19.05" stroke="#333" stroke-width="2" fill="#6db1ff"/><use xlink:href="#g" transform="matrix(1,0,0,1,1225,1585.9555956234117) translate(47.39506172839506 47.97222222222222)"/><path d="M1411.98 1631.96H1382v-2h29.98zm67.02 0h-29.98v-2H1479z" stroke="#3a414a" stroke-width=".05" fill="#3a414a"/><path d="M1382.03 1631.96H1381v-2h1.03z" fill="#3a414a"/><path d="M1382.05 1631.98h-1.08v-2.05h1.08zm-1.02-2v1.95h.97v-1.95zM1480 1631.96h-1.03v-2h1.03z" stroke="#3a414a" stroke-width=".05" fill="#3a414a"/><use xlink:href="#h" transform="matrix(1,0,0,1,1411.9814814814815,1604.288928956745) translate(0 35.55555555555556)"/><path d="M1480 1580.96h180l20 20v80h-200z" stroke="#333" stroke-width="2" fill="#6db1ff"/><path d="M1660 1581.9v19.06h19.05" stroke="#333" stroke-width="2" fill="#6db1ff"/><use xlink:href="#i" transform="matrix(1,0,0,1,1485,1585.9555956234117) translate(40.7530864197531 47.97222222222222)"/><path d="M1122.67 2197.7h96M1122.7 2197.7h-1.03" stroke="#3a414a" stroke-width="2" fill="none"/><path d="M1219.67 2198.7h-1.03v-2h1.03z" stroke="#3a414a" stroke-width=".05" fill="#3a414a"/><path d="M1220.67 2147.7h140l20 20v80h-160z" stroke="#333" stroke-width="2" fill="#6db1ff"/><path d="M1360.67 2148.66v19.05h19.04" stroke="#333" stroke-width="2" fill="#6db1ff"/><use xlink:href="#j" transform="matrix(1,0,0,1,1225.6666666666665,2152.7055956234117) translate(44.40740740740741 47.97222222222222)"/><path d="M1413.57 2198.7h-30.9v-2h30.9zm66.1 0h-30.9v-2h30.9z" stroke="#3a414a" stroke-width=".05" fill="#3a414a"/><path d="M1382.7 2198.7h-1.03v-2h1.02z" fill="#3a414a"/><path d="M1382.72 2198.73h-1.08v-2.05h1.08zm-1.03-2v1.95h.97v-1.95zM1480.67 2198.7h-1.03v-2h1.03z" stroke="#3a414a" stroke-width=".05" fill="#3a414a"/><use xlink:href="#d" transform="matrix(1,0,0,1,1413.574074074074,2172.372262290078) translate(0 33.77777777777777)"/><path d="M1480.67 2147.7h180l20 20v80h-200z" stroke="#333" stroke-width="2" fill="#6db1ff"/><path d="M1660.67 2148.66v19.05h19.04" stroke="#333" stroke-width="2" fill="#6db1ff"/><use xlink:href="#k" transform="matrix(1,0,0,1,1485.6666666666665,2152.7055956234117) translate(36.77777777777779 47.97222222222222)"/><path d="M1046.67 2006h74v94h-200v-120h120zm-126 0h126" stroke="#333" stroke-width="2" fill="#ced4db"/><use xlink:href="#l" transform="matrix(1,0,0,1,932.6666666666665,2014) translate(0 43.44444444444444)"/><path d="M1345.33 508h74v94h-200V482h120zm-126 0h126" stroke="#333" stroke-width="2" fill="#ced4db"/><use xlink:href="#m" transform="matrix(1,0,0,1,1231.3333333333335,516.0147199999999) translate(0 43.44444444444444)"/><path d="M1646 606h74v94h-200V580h120zm-126 0h126" stroke="#333" stroke-width="2" fill="#ced4db"/><use xlink:href="#n" transform="matrix(1,0,0,1,1532,614) translate(0 43.44444444444444)"/><path d="M1646 1026h74v94h-200v-120h120zm-126 0h126" stroke="#333" stroke-width="2" fill="#ced4db"/><use xlink:href="#o" transform="matrix(1,0,0,1,1532,1034) translate(0 43.44444444444444)"/><path d="M1319.33 604v43.67a6 6 0 0 0 6 6H1518" stroke="#000" stroke-width="2" fill="none"/><path d="M1320.33 604.04h-2v-1.02h2zM1519 654.67h-1.03v-2h1.03z" stroke="#000" stroke-width=".05"/><path d="M1319.33 604v462.67a6 6 0 0 0 6 6H1518" stroke="#000" stroke-width="2" fill="none"/><path d="M1320.33 604.04h-2v-1.02h2zM1519 1073.67h-1.03v-2h1.03z" stroke="#000" stroke-width=".05"/><path d="M1345.33 366h74v94h-200V340h120zm-126 0h126" stroke="#333" stroke-width="2" fill="#ced4db"/><use xlink:href="#p" transform="matrix(1,0,0,1,1231.3333333333335,374) translate(0 43.44444444444444)"/><path d="M1045.33-464.06h74v94h-200v-120h120zm-126 0h126" stroke="#333" stroke-width="2" fill="#ced4db"/><use xlink:href="#q" transform="matrix(1,0,0,1,931.3333333333335,-456.05638666666664) translate(0 43.44444444444444)"/><path d="M1345.33-344.06h74v94h-200v-120h120zm-126 0h126" stroke="#333" stroke-width="2" fill="#ced4db"/><use xlink:href="#r" transform="matrix(1,0,0,1,1231.3333333333335,-336.05638666666664) translate(0 43.44444444444444)"/><path d="M1345.33-207.07h74v94h-200v-120h120zm-126 0h126" stroke="#333" stroke-width="2" fill="#ced4db"/><use xlink:href="#s" transform="matrix(1,0,0,1,1231.3333333333335,-199.07110666666654) translate(0 43.44444444444444)"/><path d="M1345.33-65.06h74v94h-200v-120h120zm-126 0h126" stroke="#333" stroke-width="2" fill="#ced4db"/><use xlink:href="#t" transform="matrix(1,0,0,1,1231.3333333333335,-57.05638666666664) translate(0 43.44444444444444)"/><path d="M1345.33 76.96h74v94h-200v-120h120zm-126 0h126" stroke="#333" stroke-width="2" fill="#ced4db"/><use xlink:href="#u" transform="matrix(1,0,0,1,1231.3333333333335,84.95833333333326) translate(0 43.44444444444444)"/><path d="M1019.33-368.06v52a6 6 0 0 0 6 6h192" stroke="#000" stroke-width="2" fill="none"/><path d="M1020.33-368.03h-2v-1.03h2zM1218.33-309.06h-1.02v-2h1.03z" stroke="#000" stroke-width=".05"/><path d="M1019.33-368.06v192a6 6 0 0 0 6 6h192" stroke="#000" stroke-width="2" fill="none"/><path d="M1020.33-368.03h-2v-1.03h2zM1218.33-169.06h-1.02v-2h1.03z" stroke="#000" stroke-width=".05"/><path d="M1019.33-368.06v331a6 6 0 0 0 6 6h192" stroke="#000" stroke-width="2" fill="none"/><path d="M1020.33-368.03h-2v-1.03h2zM1218.33-30.06h-1.02v-2h1.03z" stroke="#000" stroke-width=".05"/><path d="M1019.33-368.06v473.02a6 6 0 0 0 6 6h192" stroke="#000" stroke-width="2" fill="none"/><path d="M1020.33-368.03h-2v-1.03h2zM1218.33 111.96h-1.02v-2h1.03z" stroke="#000" stroke-width=".05"/><path d="M645.33-602.04h74v94h-200v-120h120zm-126 0h126" stroke="#333" stroke-width="2" fill="#ced4db"/><use xlink:href="#v" transform="matrix(1,0,0,1,531.3333333333335,-594.0416666666667) translate(0 43.44444444444444)"/><path d="M619.33-506.04v69.98a6 6 0 0 0 6 6h292" stroke="#000" stroke-width="2" fill="none"/><path d="M620.33-506.02h-2v-1.02h2zM918.33-429.06h-1.02v-2h1.03z" stroke="#000" stroke-width=".05"/><path d="M619.33-506.04V2034a6 6 0 0 0 6 6h293.34" stroke="#000" stroke-width="2" fill="none"/><path d="M620.33-506.02h-2v-1.02h2zM919.67 2041h-1.03v-2h1.03z" stroke="#000" stroke-width=".05"/><path d="M918.67 2183.25H625.33a6 6 0 0 1-6-6v-2683.3" stroke="#000" stroke-width="2" fill="none"/><path d="M919.67 2184.25h-1.03v-2h1.03zM620.33-506.02h-2v-1.02h2z" stroke="#000" stroke-width=".05"/><path d="M918 1620H625.33a6 6 0 0 1-6-6V-506.04" stroke="#000" stroke-width="2" fill="none"/><path d="M919 1621h-1.03v-2H919zM620.33-506.02h-2v-1.02h2z" stroke="#000" stroke-width=".05"/><path d="M918 2322.25H625.33a6 6 0 0 1-6-6v-2822.3" stroke="#000" stroke-width="2" fill="none"/><path d="M919 2323.25h-1.03v-2H919zM620.33-506.02h-2v-1.02h2z" stroke="#000" stroke-width=".05"/><path d="M1045.33 216h74v94h-200V190h120zm-126 0h126" stroke="#333" stroke-width="2" fill="#ced4db"/><use xlink:href="#w" transform="matrix(1,0,0,1,931.3333333333335,224) translate(0 43.44444444444444)"/><path d="M917.33 250h-292a6 6 0 0 1-6-6v-750.04" stroke="#000" stroke-width="2" fill="none"/><path d="M918.33 251h-1.02v-2h1.03zM620.33-506.02h-2v-1.02h2z" stroke="#000" stroke-width=".05"/><path d="M1019.33 312v82a6 6 0 0 0 6 6h192" stroke="#000" stroke-width="2" fill="none"/><path d="M1020.33 312.03h-2V311h2zM1218.33 401h-1.02v-2h1.03z" stroke="#000" stroke-width=".05"/><path d="M1217.33 542h-192a6 6 0 0 1-6-6V312" stroke="#000" stroke-width="2" fill="none"/><path d="M1218.33 543h-1.02v-2h1.03zM1020.33 312.03h-2V311h2z" stroke="#000" stroke-width=".05"/><path d="M1646 746h74v94h-200V720h120zm-126 0h126" stroke="#333" stroke-width="2" fill="#ced4db"/><use xlink:href="#x" transform="matrix(1,0,0,1,1532,754) translate(0 43.44444444444444)"/><path d="M1646 886h74v94h-200V860h120zm-126 0h126" stroke="#333" stroke-width="2" fill="#ced4db"/><use xlink:href="#y" transform="matrix(1,0,0,1,1532,894) translate(0 43.44444444444444)"/><path d="M1646 1166h74v94h-200v-120h120zm-126 0h126" stroke="#333" stroke-width="2" fill="#ced4db"/><use xlink:href="#z" transform="matrix(1,0,0,1,1532,1174) translate(0 43.44444444444444)"/><path d="M1646 1306h74v94h-200v-120h120zm-126 0h126" stroke="#333" stroke-width="2" fill="#ced4db"/><use xlink:href="#A" transform="matrix(1,0,0,1,1532,1314) translate(0 43.44444444444444)"/><path d="M1518 780h-192.67a6 6 0 0 1-6-6V604" stroke="#000" stroke-width="2" fill="none"/><path d="M1519 781h-1.03v-2h1.03zM1320.33 604.04h-2v-1.02h2z" stroke="#000" stroke-width=".05"/><path d="M1518 920h-192.67a6 6 0 0 1-6-6V604" stroke="#000" stroke-width="2" fill="none"/><path d="M1519 921h-1.03v-2h1.03zM1320.33 604.04h-2v-1.02h2z" stroke="#000" stroke-width=".05"/><path d="M1518 1200h-192.67a6 6 0 0 1-6-6V604" stroke="#000" stroke-width="2" fill="none"/><path d="M1519 1201h-1.03v-2h1.03zM1320.33 604.04h-2v-1.02h2z" stroke="#000" stroke-width=".05"/><path d="M1518 1340h-192.67a6 6 0 0 1-6-6V604" stroke="#000" stroke-width="2" fill="none"/><path d="M1519 1341h-1.03v-2h1.03zM1320.33 604.04h-2v-1.02h2z" stroke="#000" stroke-width=".05"/><path d="M1045.33 1446h74v94h-200v-120h120zm-126 0h126" stroke="#333" stroke-width="2" fill="#ced4db"/><use xlink:href="#B" transform="matrix(1,0,0,1,931.3333333333335,1454) translate(0 43.44444444444444)"/><path d="M1045.33 1726h74v94h-200v-120h120zm-126 0h126" stroke="#333" stroke-width="2" fill="#ced4db"/><use xlink:href="#C" transform="matrix(1,0,0,1,931.3333333333335,1734) translate(0 43.44444444444444)"/><path d="M1045.33 1866h74v94h-200v-120h120zm-126 0h126" stroke="#333" stroke-width="2" fill="#ced4db"/><use xlink:href="#D" transform="matrix(1,0,0,1,931.3333333333335,1874) translate(0 43.44444444444444)"/><path d="M917.33 1900h-292a6 6 0 0 1-6-6V-506.04" stroke="#000" stroke-width="2" fill="none"/><path d="M918.33 1901h-1.02v-2h1.03zM620.33-506.02h-2v-1.02h2z" stroke="#000" stroke-width=".05"/><path d="M917.33 1760h-292a6 6 0 0 1-6-6V-506.04" stroke="#000" stroke-width="2" fill="none"/><path d="M918.33 1761h-1.02v-2h1.03zM620.33-506.02h-2v-1.02h2z" stroke="#000" stroke-width=".05"/><path d="M917.33 1480h-292a6 6 0 0 1-6-6V-506.04" stroke="#000" stroke-width="2" fill="none"/><path d="M918.33 1481h-1.02v-2h1.03zM620.33-506.02h-2v-1.02h2z" stroke="#000" stroke-width=".05"/><defs><path d="M135-143c-3-34-86-38-87 0 15 53 115 12 119 90S17 21 10-45l28-5c4 36 97 45 98 0-10-56-113-15-118-90-4-57 82-63 122-42 12 7 21 19 24 35" id="E"/><path d="M59-47c-2 24 18 29 38 22v24C64 9 27 4 27-40v-127H5v-23h24l9-43h21v43h35v23H59v120" id="F"/><path d="M100-194c62-1 85 37 85 99 1 63-27 99-86 99S16-35 15-95c0-66 28-99 85-99zM99-20c44 1 53-31 53-75 0-43-8-75-51-75s-53 32-53 75 10 74 51 75" id="G"/><path d="M114-163C36-179 61-72 57 0H25l-1-190h30c1 12-1 29 2 39 6-27 23-49 58-41v29" id="H"/><path d="M100-194c63 0 86 42 84 106H49c0 40 14 67 53 68 26 1 43-12 49-29l28 8c-11 28-37 45-77 45C44 4 14-33 15-96c1-61 26-98 85-98zm52 81c6-60-76-77-97-28-3 7-6 17-6 28h103" id="I"/><g id="a"><use transform="matrix(0.06172839506172839,0,0,0.06172839506172839,0,0)" xlink:href="#E"/><use transform="matrix(0.06172839506172839,0,0,0.06172839506172839,11.11111111111111,0)" xlink:href="#F"/><use transform="matrix(0.06172839506172839,0,0,0.06172839506172839,17.28395061728395,0)" xlink:href="#G"/><use transform="matrix(0.06172839506172839,0,0,0.06172839506172839,29.629629629629626,0)" xlink:href="#H"/><use transform="matrix(0.06172839506172839,0,0,0.06172839506172839,36.9753086419753,0)" xlink:href="#I"/></g><path d="M108 0H70L1-190h34L89-25l56-165h34" id="J"/><path d="M24-231v-30h32v30H24zM24 0v-190h32V0H24" id="K"/><path d="M96-169c-40 0-48 33-48 73s9 75 48 75c24 0 41-14 43-38l32 2c-6 37-31 61-74 61-59 0-76-41-82-99-10-93 101-131 147-64 4 7 5 14 7 22l-32 3c-4-21-16-35-41-35" id="L"/><g id="b"><use transform="matrix(0.06172839506172839,0,0,0.06172839506172839,0,0)" xlink:href="#E"/><use transform="matrix(0.06172839506172839,0,0,0.06172839506172839,11.11111111111111,0)" xlink:href="#I"/><use transform="matrix(0.06172839506172839,0,0,0.06172839506172839,23.45679012345679,0)" xlink:href="#H"/><use transform="matrix(0.06172839506172839,0,0,0.06172839506172839,30.80246913580247,0)" xlink:href="#J"/><use transform="matrix(0.06172839506172839,0,0,0.06172839506172839,41.91358024691358,0)" xlink:href="#K"/><use transform="matrix(0.06172839506172839,0,0,0.06172839506172839,46.79012345679013,0)" xlink:href="#L"/><use transform="matrix(0.06172839506172839,0,0,0.06172839506172839,57.90123456790124,0)" xlink:href="#I"/><use transform="matrix(0.06172839506172839,0,0,0.06172839506172839,70.24691358024693,0)" xlink:href="#E"/></g><path d="M141-36C126-15 110 5 73 4 37 3 15-17 15-53c-1-64 63-63 125-63 3-35-9-54-41-54-24 1-41 7-42 31l-33-3c5-37 33-52 76-52 45 0 72 20 72 64v82c-1 20 7 32 28 27v20c-31 9-61-2-59-35zM48-53c0 20 12 33 32 33 41-3 63-29 60-74-43 2-92-5-92 41" id="M"/><path d="M84 4C-5 8 30-112 23-190h32v120c0 31 7 50 39 49 72-2 45-101 50-169h31l1 190h-30c-1-10 1-25-2-33-11 22-28 36-60 37" id="N"/><path d="M106-169C34-169 62-67 57 0H25v-261h32l-1 103c12-21 28-36 61-36 89 0 53 116 60 194h-32v-121c2-32-8-49-39-48" id="O"/><path d="M16-82v-28h88v28H16" id="P"/><path d="M33 0v-38h34V0H33" id="Q"/><g id="c"><use transform="matrix(0.049382716049382706,0,0,0.049382716049382706,0,0)" xlink:href="#M"/><use transform="matrix(0.049382716049382706,0,0,0.049382716049382706,9.87654320987654,0)" xlink:href="#N"/><use transform="matrix(0.049382716049382706,0,0,0.049382716049382706,19.75308641975308,0)" xlink:href="#F"/><use transform="matrix(0.049382716049382706,0,0,0.049382716049382706,24.691358024691354,0)" xlink:href="#O"/><use transform="matrix(0.049382716049382706,0,0,0.049382716049382706,34.5679012345679,0)" xlink:href="#P"/><use transform="matrix(0.049382716049382706,0,0,0.049382716049382706,40.44444444444444,0)" xlink:href="#E"/><use transform="matrix(0.049382716049382706,0,0,0.049382716049382706,49.33333333333333,0)" xlink:href="#I"/><use transform="matrix(0.049382716049382706,0,0,0.049382716049382706,59.20987654320987,0)" xlink:href="#H"/><use transform="matrix(0.049382716049382706,0,0,0.049382716049382706,65.08641975308642,0)" xlink:href="#K"/><use transform="matrix(0.049382716049382706,0,0,0.049382716049382706,68.98765432098764,0)" xlink:href="#J"/><use transform="matrix(0.049382716049382706,0,0,0.049382716049382706,77.87654320987653,0)" xlink:href="#L"/><use transform="matrix(0.049382716049382706,0,0,0.049382716049382706,86.76543209876542,0)" xlink:href="#I"/><use transform="matrix(0.049382716049382706,0,0,0.049382716049382706,96.64197530864196,0)" xlink:href="#Q"/><use transform="matrix(0.049382716049382706,0,0,0.049382716049382706,101.58024691358023,0)" xlink:href="#F"/><use transform="matrix(0.049382716049382706,0,0,0.049382716049382706,106.51851851851849,0)" xlink:href="#E"/></g><g id="d"><use transform="matrix(0.11728395061728393,0,0,0.11728395061728393,0,0)" xlink:href="#Q"/><use transform="matrix(0.11728395061728393,0,0,0.11728395061728393,11.728395061728394,0)" xlink:href="#Q"/><use transform="matrix(0.11728395061728393,0,0,0.11728395061728393,23.456790123456788,0)" xlink:href="#Q"/></g><path d="M85-194c31 0 48 13 60 33l-1-100h32l1 261h-30c-2-10 0-23-3-31C134-8 116 4 85 4 32 4 16-35 15-94c0-66 23-100 70-100zm9 24c-40 0-46 34-46 75 0 40 6 74 45 74 42 0 51-32 51-76 0-42-9-74-50-73" id="R"/><path d="M24 0v-261h32V0H24" id="S"/><g id="e"><use transform="matrix(0.049382716049382706,0,0,0.049382716049382706,0,0)" xlink:href="#R"/><use transform="matrix(0.049382716049382706,0,0,0.049382716049382706,9.87654320987654,0)" xlink:href="#M"/><use transform="matrix(0.049382716049382706,0,0,0.049382716049382706,19.75308641975308,0)" xlink:href="#F"/><use transform="matrix(0.049382716049382706,0,0,0.049382716049382706,24.691358024691354,0)" xlink:href="#M"/><use transform="matrix(0.049382716049382706,0,0,0.049382716049382706,34.5679012345679,0)" xlink:href="#P"/><use transform="matrix(0.049382716049382706,0,0,0.049382716049382706,40.44444444444444,0)" xlink:href="#H"/><use transform="matrix(0.049382716049382706,0,0,0.049382716049382706,46.32098765432099,0)" xlink:href="#I"/><use transform="matrix(0.049382716049382706,0,0,0.049382716049382706,56.19753086419753,0)" xlink:href="#F"/><use transform="matrix(0.049382716049382706,0,0,0.049382716049382706,61.135802469135804,0)" xlink:href="#H"/><use transform="matrix(0.049382716049382706,0,0,0.049382716049382706,67.01234567901234,0)" xlink:href="#K"/><use transform="matrix(0.049382716049382706,0,0,0.049382716049382706,70.91358024691357,0)" xlink:href="#I"/><use transform="matrix(0.049382716049382706,0,0,0.049382716049382706,80.79012345679011,0)" xlink:href="#J"/><use transform="matrix(0.049382716049382706,0,0,0.049382716049382706,89.679012345679,0)" xlink:href="#M"/><use transform="matrix(0.049382716049382706,0,0,0.049382716049382706,99.55555555555554,0)" xlink:href="#S"/><use transform="matrix(0.049382716049382706,0,0,0.049382716049382706,103.45679012345677,0)" xlink:href="#P"/><use transform="matrix(0.049382716049382706,0,0,0.049382716049382706,109.33333333333331,0)" xlink:href="#E"/><use transform="matrix(0.049382716049382706,0,0,0.049382716049382706,118.2222222222222,0)" xlink:href="#I"/><use transform="matrix(0.049382716049382706,0,0,0.049382716049382706,128.09876543209873,0)" xlink:href="#H"/><use transform="matrix(0.049382716049382706,0,0,0.049382716049382706,133.97530864197526,0)" xlink:href="#J"/><use transform="matrix(0.049382716049382706,0,0,0.049382716049382706,142.86419753086415,0)" xlink:href="#K"/><use transform="matrix(0.049382716049382706,0,0,0.049382716049382706,146.7654320987654,0)" xlink:href="#L"/><use transform="matrix(0.049382716049382706,0,0,0.049382716049382706,155.65432098765427,0)" xlink:href="#I"/><use transform="matrix(0.049382716049382706,0,0,0.049382716049382706,165.5308641975308,0)" xlink:href="#Q"/><use transform="matrix(0.049382716049382706,0,0,0.049382716049382706,170.46913580246908,0)" xlink:href="#F"/><use transform="matrix(0.049382716049382706,0,0,0.049382716049382706,175.40740740740736,0)" xlink:href="#E"/></g><path d="M210-169c-67 3-38 105-44 169h-31v-121c0-29-5-50-35-48C34-165 62-65 56 0H25l-1-190h30c1 10-1 24 2 32 10-44 99-50 107 0 11-21 27-35 58-36 85-2 47 119 55 194h-31v-121c0-29-5-49-35-48" id="T"/><g id="f"><use transform="matrix(0.06172839506172839,0,0,0.06172839506172839,0,0)" xlink:href="#T"/><use transform="matrix(0.06172839506172839,0,0,0.06172839506172839,18.456790123456788,0)" xlink:href="#G"/><use transform="matrix(0.06172839506172839,0,0,0.06172839506172839,30.80246913580247,0)" xlink:href="#R"/><use transform="matrix(0.06172839506172839,0,0,0.06172839506172839,43.148148148148145,0)" xlink:href="#I"/><use transform="matrix(0.06172839506172839,0,0,0.06172839506172839,55.49382716049382,0)" xlink:href="#S"/><use transform="matrix(0.06172839506172839,0,0,0.06172839506172839,60.37037037037037,0)" xlink:href="#E"/></g><path d="M232-93c-1 65-40 97-104 97C67 4 28-28 28-90v-158h33c8 89-33 224 67 224 102 0 64-133 71-224h33v155" id="U"/><g id="g"><use transform="matrix(0.049382716049382706,0,0,0.049382716049382706,0,0)" xlink:href="#U"/><use transform="matrix(0.049382716049382706,0,0,0.049382716049382706,12.790123456790122,0)" xlink:href="#E"/><use transform="matrix(0.049382716049382706,0,0,0.049382716049382706,21.67901234567901,0)" xlink:href="#I"/><use transform="matrix(0.049382716049382706,0,0,0.049382716049382706,31.55555555555555,0)" xlink:href="#H"/><use transform="matrix(0.049382716049382706,0,0,0.049382716049382706,36.444444444444436,0)" xlink:href="#Q"/><use transform="matrix(0.049382716049382706,0,0,0.049382716049382706,41.38271604938271,0)" xlink:href="#F"/><use transform="matrix(0.049382716049382706,0,0,0.049382716049382706,46.32098765432098,0)" xlink:href="#E"/></g><g id="h"><use transform="matrix(0.12345679012345678,0,0,0.12345679012345678,0,0)" xlink:href="#Q"/><use transform="matrix(0.12345679012345678,0,0,0.12345679012345678,12.345679012345679,0)" xlink:href="#Q"/><use transform="matrix(0.12345679012345678,0,0,0.12345679012345678,24.691358024691358,0)" xlink:href="#Q"/></g><path d="M30 0v-248h187v28H63v79h144v27H63v87h162V0H30" id="V"/><path d="M141 0L90-78 38 0H4l68-98-65-92h35l48 74 47-74h35l-64 92 68 98h-35" id="W"/><path d="M115-194c55 1 70 41 70 98S169 2 115 4C84 4 66-9 55-30l1 105H24l-1-265h31l2 30c10-21 28-34 59-34zm-8 174c40 0 45-34 45-75s-6-73-45-74c-42 0-51 32-51 76 0 43 10 73 51 73" id="X"/><path d="M117-194c89-4 53 116 60 194h-32v-121c0-31-8-49-39-48C34-167 62-67 57 0H25l-1-190h30c1 10-1 24 2 32 11-22 29-35 61-36" id="Y"/><g id="i"><use transform="matrix(0.049382716049382706,0,0,0.049382716049382706,0,0)" xlink:href="#V"/><use transform="matrix(0.049382716049382706,0,0,0.049382716049382706,11.85185185185185,0)" xlink:href="#W"/><use transform="matrix(0.049382716049382706,0,0,0.049382716049382706,20.740740740740737,0)" xlink:href="#X"/><use transform="matrix(0.049382716049382706,0,0,0.049382716049382706,30.617283950617278,0)" xlink:href="#I"/><use transform="matrix(0.049382716049382706,0,0,0.049382716049382706,40.49382716049382,0)" xlink:href="#H"/><use transform="matrix(0.049382716049382706,0,0,0.049382716049382706,46.37037037037037,0)" xlink:href="#K"/><use transform="matrix(0.049382716049382706,0,0,0.049382716049382706,50.2716049382716,0)" xlink:href="#T"/><use transform="matrix(0.049382716049382706,0,0,0.049382716049382706,65.03703703703702,0)" xlink:href="#I"/><use transform="matrix(0.049382716049382706,0,0,0.049382716049382706,74.91358024691357,0)" xlink:href="#Y"/><use transform="matrix(0.049382716049382706,0,0,0.049382716049382706,84.79012345679011,0)" xlink:href="#F"/><use transform="matrix(0.049382716049382706,0,0,0.049382716049382706,89.72839506172838,0)" xlink:href="#Q"/><use transform="matrix(0.049382716049382706,0,0,0.049382716049382706,94.66666666666664,0)" xlink:href="#F"/><use transform="matrix(0.049382716049382706,0,0,0.049382716049382706,99.60493827160491,0)" xlink:href="#E"/></g><g id="j"><use transform="matrix(0.049382716049382706,0,0,0.049382716049382706,0,0)" xlink:href="#K"/><use transform="matrix(0.049382716049382706,0,0,0.049382716049382706,3.9012345679012337,0)" xlink:href="#Y"/><use transform="matrix(0.049382716049382706,0,0,0.049382716049382706,13.777777777777775,0)" xlink:href="#R"/><use transform="matrix(0.049382716049382706,0,0,0.049382716049382706,23.654320987654316,0)" xlink:href="#I"/><use transform="matrix(0.049382716049382706,0,0,0.049382716049382706,33.53086419753086,0)" xlink:href="#W"/><use transform="matrix(0.049382716049382706,0,0,0.049382716049382706,42.419753086419746,0)" xlink:href="#Q"/><use transform="matrix(0.049382716049382706,0,0,0.049382716049382706,47.35802469135802,0)" xlink:href="#F"/><use transform="matrix(0.049382716049382706,0,0,0.049382716049382706,52.29629629629628,0)" xlink:href="#E"/></g><g id="k"><use transform="matrix(0.049382716049382706,0,0,0.049382716049382706,0,0)" xlink:href="#M"/><use transform="matrix(0.049382716049382706,0,0,0.049382716049382706,9.87654320987654,0)" xlink:href="#N"/><use transform="matrix(0.049382716049382706,0,0,0.049382716049382706,19.75308641975308,0)" xlink:href="#F"/><use transform="matrix(0.049382716049382706,0,0,0.049382716049382706,24.691358024691354,0)" xlink:href="#O"/><use transform="matrix(0.049382716049382706,0,0,0.049382716049382706,34.5679012345679,0)" xlink:href="#Q"/><use transform="matrix(0.049382716049382706,0,0,0.049382716049382706,39.50617283950617,0)" xlink:href="#T"/><use transform="matrix(0.049382716049382706,0,0,0.049382716049382706,54.27160493827161,0)" xlink:href="#G"/><use transform="matrix(0.049382716049382706,0,0,0.049382716049382706,64.14814814814814,0)" xlink:href="#R"/><use transform="matrix(0.049382716049382706,0,0,0.049382716049382706,74.02469135802468,0)" xlink:href="#N"/><use transform="matrix(0.049382716049382706,0,0,0.049382716049382706,83.90123456790123,0)" xlink:href="#S"/><use transform="matrix(0.049382716049382706,0,0,0.049382716049382706,87.80246913580245,0)" xlink:href="#I"/><use transform="matrix(0.049382716049382706,0,0,0.049382716049382706,97.679012345679,0)" xlink:href="#Q"/><use transform="matrix(0.049382716049382706,0,0,0.049382716049382706,102.61728395061726,0)" xlink:href="#F"/><use transform="matrix(0.049382716049382706,0,0,0.049382716049382706,107.55555555555553,0)" xlink:href="#E"/></g><g id="l"><use transform="matrix(0.06172839506172839,0,0,0.06172839506172839,0,0)" xlink:href="#H"/><use transform="matrix(0.06172839506172839,0,0,0.06172839506172839,7.345679012345679,0)" xlink:href="#G"/><use transform="matrix(0.06172839506172839,0,0,0.06172839506172839,19.691358024691358,0)" xlink:href="#N"/><use transform="matrix(0.06172839506172839,0,0,0.06172839506172839,32.03703703703704,0)" xlink:href="#F"/><use transform="matrix(0.06172839506172839,0,0,0.06172839506172839,38.20987654320988,0)" xlink:href="#I"/><use transform="matrix(0.06172839506172839,0,0,0.06172839506172839,50.55555555555556,0)" xlink:href="#H"/></g><path d="M206 0h-36l-40-164L89 0H53L-1-190h32L70-26l43-164h34l41 164 42-164h31" id="Z"/><g id="m"><use transform="matrix(0.06172839506172839,0,0,0.06172839506172839,0,0)" xlink:href="#J"/><use transform="matrix(0.06172839506172839,0,0,0.06172839506172839,11.11111111111111,0)" xlink:href="#K"/><use transform="matrix(0.06172839506172839,0,0,0.06172839506172839,15.987654320987653,0)" xlink:href="#I"/><use transform="matrix(0.06172839506172839,0,0,0.06172839506172839,28.333333333333332,0)" xlink:href="#Z"/><use transform="matrix(0.06172839506172839,0,0,0.06172839506172839,44.32098765432099,0)" xlink:href="#E"/></g><path d="M177-190C167-65 218 103 67 71c-23-6-38-20-44-43l32-5c15 47 100 32 89-28v-30C133-14 115 1 83 1 29 1 15-40 15-95c0-56 16-97 71-98 29-1 48 16 59 35 1-10 0-23 2-32h30zM94-22c36 0 50-32 50-73 0-42-14-75-50-75-39 0-46 34-46 75s6 73 46 73" id="aa"/><g id="n"><use transform="matrix(0.06172839506172839,0,0,0.06172839506172839,0,0)" xlink:href="#S"/><use transform="matrix(0.06172839506172839,0,0,0.06172839506172839,4.876543209876543,0)" xlink:href="#M"/><use transform="matrix(0.06172839506172839,0,0,0.06172839506172839,17.22222222222222,0)" xlink:href="#Y"/><use transform="matrix(0.06172839506172839,0,0,0.06172839506172839,29.5679012345679,0)" xlink:href="#R"/><use transform="matrix(0.06172839506172839,0,0,0.06172839506172839,41.913580246913575,0)" xlink:href="#K"/><use transform="matrix(0.06172839506172839,0,0,0.06172839506172839,46.79012345679012,0)" xlink:href="#Y"/><use transform="matrix(0.06172839506172839,0,0,0.06172839506172839,59.1358024691358,0)" xlink:href="#aa"/></g><path d="M115-194c53 0 69 39 70 98 0 66-23 100-70 100C84 3 66-7 56-30L54 0H23l1-261h32v101c10-23 28-34 59-34zm-8 174c40 0 45-34 45-75 0-40-5-75-45-74-42 0-51 32-51 76 0 43 10 73 51 73" id="ab"/><g id="o"><use transform="matrix(0.06172839506172839,0,0,0.06172839506172839,0,0)" xlink:href="#R"/><use transform="matrix(0.06172839506172839,0,0,0.06172839506172839,12.345679012345679,0)" xlink:href="#M"/><use transform="matrix(0.06172839506172839,0,0,0.06172839506172839,24.691358024691358,0)" xlink:href="#E"/><use transform="matrix(0.06172839506172839,0,0,0.06172839506172839,35.80246913580247,0)" xlink:href="#O"/><use transform="matrix(0.06172839506172839,0,0,0.06172839506172839,48.148148148148145,0)" xlink:href="#ab"/><use transform="matrix(0.06172839506172839,0,0,0.06172839506172839,60.49382716049382,0)" xlink:href="#G"/><use transform="matrix(0.06172839506172839,0,0,0.06172839506172839,72.8395061728395,0)" xlink:href="#M"/><use transform="matrix(0.06172839506172839,0,0,0.06172839506172839,85.18518518518519,0)" xlink:href="#H"/><use transform="matrix(0.06172839506172839,0,0,0.06172839506172839,92.53086419753087,0)" xlink:href="#R"/></g><g id="p"><use transform="matrix(0.06172839506172839,0,0,0.06172839506172839,0,0)" xlink:href="#ab"/><use transform="matrix(0.06172839506172839,0,0,0.06172839506172839,12.345679012345679,0)" xlink:href="#M"/><use transform="matrix(0.06172839506172839,0,0,0.06172839506172839,24.691358024691358,0)" xlink:href="#E"/><use transform="matrix(0.06172839506172839,0,0,0.06172839506172839,35.80246913580247,0)" xlink:href="#K"/><use transform="matrix(0.06172839506172839,0,0,0.06172839506172839,40.67901234567901,0)" xlink:href="#L"/></g><g id="q"><use transform="matrix(0.06172839506172839,0,0,0.06172839506172839,0,0)" xlink:href="#M"/><use transform="matrix(0.06172839506172839,0,0,0.06172839506172839,12.345679012345679,0)" xlink:href="#E"/><use transform="matrix(0.06172839506172839,0,0,0.06172839506172839,23.45679012345679,0)" xlink:href="#E"/><use transform="matrix(0.06172839506172839,0,0,0.06172839506172839,34.5679012345679,0)" xlink:href="#I"/><use transform="matrix(0.06172839506172839,0,0,0.06172839506172839,46.913580246913575,0)" xlink:href="#F"/><use transform="matrix(0.06172839506172839,0,0,0.06172839506172839,53.08641975308642,0)" xlink:href="#E"/></g><path d="M101-234c-31-9-42 10-38 44h38v23H63V0H32v-167H5v-23h27c-7-52 17-82 69-68v24" id="ac"/><g id="r"><use transform="matrix(0.06172839506172839,0,0,0.06172839506172839,0,0)" xlink:href="#ac"/><use transform="matrix(0.06172839506172839,0,0,0.06172839506172839,6.172839506172839,0)" xlink:href="#G"/><use transform="matrix(0.06172839506172839,0,0,0.06172839506172839,18.51851851851852,0)" xlink:href="#Y"/><use transform="matrix(0.06172839506172839,0,0,0.06172839506172839,30.864197530864196,0)" xlink:href="#F"/><use transform="matrix(0.06172839506172839,0,0,0.06172839506172839,37.03703703703704,0)" xlink:href="#E"/></g><path d="M179-190L93 31C79 59 56 82 12 73V49c39 6 53-20 64-50L1-190h34L92-34l54-156h33" id="ad"/><g id="s"><use transform="matrix(0.06172839506172839,0,0,0.06172839506172839,0,0)" xlink:href="#E"/><use transform="matrix(0.06172839506172839,0,0,0.06172839506172839,11.11111111111111,0)" xlink:href="#F"/><use transform="matrix(0.06172839506172839,0,0,0.06172839506172839,17.28395061728395,0)" xlink:href="#ad"/><use transform="matrix(0.06172839506172839,0,0,0.06172839506172839,28.39506172839506,0)" xlink:href="#S"/><use transform="matrix(0.06172839506172839,0,0,0.06172839506172839,33.2716049382716,0)" xlink:href="#I"/><use transform="matrix(0.06172839506172839,0,0,0.06172839506172839,45.61728395061728,0)" xlink:href="#E"/></g><g id="t"><use transform="matrix(0.06172839506172839,0,0,0.06172839506172839,0,0)" xlink:href="#ac"/><use transform="matrix(0.06172839506172839,0,0,0.06172839506172839,6.172839506172839,0)" xlink:href="#K"/><use transform="matrix(0.06172839506172839,0,0,0.06172839506172839,11.049382716049383,0)" xlink:href="#aa"/><use transform="matrix(0.06172839506172839,0,0,0.06172839506172839,23.395061728395063,0)" xlink:href="#N"/><use transform="matrix(0.06172839506172839,0,0,0.06172839506172839,35.74074074074074,0)" xlink:href="#H"/><use transform="matrix(0.06172839506172839,0,0,0.06172839506172839,43.08641975308642,0)" xlink:href="#I"/><use transform="matrix(0.06172839506172839,0,0,0.06172839506172839,55.432098765432094,0)" xlink:href="#E"/></g><g id="u"><use transform="matrix(0.06172839506172839,0,0,0.06172839506172839,0,0)" xlink:href="#K"/><use transform="matrix(0.06172839506172839,0,0,0.06172839506172839,4.876543209876543,0)" xlink:href="#T"/><use transform="matrix(0.06172839506172839,0,0,0.06172839506172839,23.33333333333333,0)" xlink:href="#M"/><use transform="matrix(0.06172839506172839,0,0,0.06172839506172839,35.679012345679006,0)" xlink:href="#aa"/><use transform="matrix(0.06172839506172839,0,0,0.06172839506172839,48.02469135802468,0)" xlink:href="#I"/><use transform="matrix(0.06172839506172839,0,0,0.06172839506172839,60.37037037037036,0)" xlink:href="#E"/></g><g id="v"><use transform="matrix(0.06172839506172839,0,0,0.06172839506172839,0,0)" xlink:href="#ac"/><use transform="matrix(0.06172839506172839,0,0,0.06172839506172839,6.172839506172839,0)" xlink:href="#H"/><use transform="matrix(0.06172839506172839,0,0,0.06172839506172839,13.518518518518519,0)" xlink:href="#G"/><use transform="matrix(0.06172839506172839,0,0,0.06172839506172839,25.864197530864196,0)" xlink:href="#Y"/><use transform="matrix(0.06172839506172839,0,0,0.06172839506172839,38.20987654320987,0)" xlink:href="#F"/><use transform="matrix(0.06172839506172839,0,0,0.06172839506172839,44.382716049382715,0)" xlink:href="#I"/><use transform="matrix(0.06172839506172839,0,0,0.06172839506172839,56.72839506172839,0)" xlink:href="#Y"/><use transform="matrix(0.06172839506172839,0,0,0.06172839506172839,69.07407407407408,0)" xlink:href="#R"/></g><g id="w"><use transform="matrix(0.06172839506172839,0,0,0.06172839506172839,0,0)" xlink:href="#L"/><use transform="matrix(0.06172839506172839,0,0,0.06172839506172839,11.11111111111111,0)" xlink:href="#G"/><use transform="matrix(0.06172839506172839,0,0,0.06172839506172839,23.45679012345679,0)" xlink:href="#T"/><use transform="matrix(0.06172839506172839,0,0,0.06172839506172839,41.91358024691358,0)" xlink:href="#X"/><use transform="matrix(0.06172839506172839,0,0,0.06172839506172839,54.25925925925926,0)" xlink:href="#G"/><use transform="matrix(0.06172839506172839,0,0,0.06172839506172839,66.60493827160494,0)" xlink:href="#Y"/><use transform="matrix(0.06172839506172839,0,0,0.06172839506172839,78.95061728395062,0)" xlink:href="#I"/><use transform="matrix(0.06172839506172839,0,0,0.06172839506172839,91.2962962962963,0)" xlink:href="#Y"/><use transform="matrix(0.06172839506172839,0,0,0.06172839506172839,103.64197530864199,0)" xlink:href="#F"/><use transform="matrix(0.06172839506172839,0,0,0.06172839506172839,109.81481481481482,0)" xlink:href="#E"/></g><g id="x"><use transform="matrix(0.06172839506172839,0,0,0.06172839506172839,0,0)" xlink:href="#H"/><use transform="matrix(0.06172839506172839,0,0,0.06172839506172839,7.345679012345679,0)" xlink:href="#I"/><use transform="matrix(0.06172839506172839,0,0,0.06172839506172839,19.691358024691358,0)" xlink:href="#aa"/><use transform="matrix(0.06172839506172839,0,0,0.06172839506172839,32.03703703703704,0)" xlink:href="#K"/><use transform="matrix(0.06172839506172839,0,0,0.06172839506172839,36.91358024691358,0)" xlink:href="#E"/><use transform="matrix(0.06172839506172839,0,0,0.06172839506172839,48.0246913580247,0)" xlink:href="#F"/><use transform="matrix(0.06172839506172839,0,0,0.06172839506172839,54.19753086419754,0)" xlink:href="#I"/><use transform="matrix(0.06172839506172839,0,0,0.06172839506172839,66.54320987654322,0)" xlink:href="#H"/></g><g id="y"><use transform="matrix(0.06172839506172839,0,0,0.06172839506172839,0,0)" xlink:href="#S"/><use transform="matrix(0.06172839506172839,0,0,0.06172839506172839,4.876543209876543,0)" xlink:href="#G"/><use transform="matrix(0.06172839506172839,0,0,0.06172839506172839,17.22222222222222,0)" xlink:href="#aa"/><use transform="matrix(0.06172839506172839,0,0,0.06172839506172839,29.5679012345679,0)" xlink:href="#K"/><use transform="matrix(0.06172839506172839,0,0,0.06172839506172839,34.44444444444444,0)" xlink:href="#Y"/></g><g id="z"><use transform="matrix(0.06172839506172839,0,0,0.06172839506172839,0,0)" xlink:href="#L"/><use transform="matrix(0.06172839506172839,0,0,0.06172839506172839,11.11111111111111,0)" xlink:href="#H"/><use transform="matrix(0.06172839506172839,0,0,0.06172839506172839,18.45679012345679,0)" xlink:href="#I"/><use transform="matrix(0.06172839506172839,0,0,0.06172839506172839,30.80246913580247,0)" xlink:href="#M"/><use transform="matrix(0.06172839506172839,0,0,0.06172839506172839,43.148148148148145,0)" xlink:href="#F"/><use transform="matrix(0.06172839506172839,0,0,0.06172839506172839,49.32098765432099,0)" xlink:href="#I"/><use transform="matrix(0.06172839506172839,0,0,0.06172839506172839,61.666666666666664,0)" xlink:href="#I"/><use transform="matrix(0.06172839506172839,0,0,0.06172839506172839,74.01234567901234,0)" xlink:href="#W"/><use transform="matrix(0.06172839506172839,0,0,0.06172839506172839,85.12345679012346,0)" xlink:href="#X"/><use transform="matrix(0.06172839506172839,0,0,0.06172839506172839,97.46913580246914,0)" xlink:href="#I"/><use transform="matrix(0.06172839506172839,0,0,0.06172839506172839,109.81481481481482,0)" xlink:href="#H"/><use transform="matrix(0.06172839506172839,0,0,0.06172839506172839,117.16049382716051,0)" xlink:href="#K"/><use transform="matrix(0.06172839506172839,0,0,0.06172839506172839,122.03703703703705,0)" xlink:href="#T"/><use transform="matrix(0.06172839506172839,0,0,0.06172839506172839,140.49382716049385,0)" xlink:href="#I"/><use transform="matrix(0.06172839506172839,0,0,0.06172839506172839,152.83950617283952,0)" xlink:href="#Y"/><use transform="matrix(0.06172839506172839,0,0,0.06172839506172839,165.1851851851852,0)" xlink:href="#F"/></g><g id="A"><use transform="matrix(0.06172839506172839,0,0,0.06172839506172839,0,0)" xlink:href="#I"/><use transform="matrix(0.06172839506172839,0,0,0.06172839506172839,12.345679012345679,0)" xlink:href="#W"/><use transform="matrix(0.06172839506172839,0,0,0.06172839506172839,23.45679012345679,0)" xlink:href="#X"/><use transform="matrix(0.06172839506172839,0,0,0.06172839506172839,35.80246913580247,0)" xlink:href="#I"/><use transform="matrix(0.06172839506172839,0,0,0.06172839506172839,48.148148148148145,0)" xlink:href="#H"/><use transform="matrix(0.06172839506172839,0,0,0.06172839506172839,55.49382716049382,0)" xlink:href="#K"/><use transform="matrix(0.06172839506172839,0,0,0.06172839506172839,60.37037037037037,0)" xlink:href="#T"/><use transform="matrix(0.06172839506172839,0,0,0.06172839506172839,78.82716049382715,0)" xlink:href="#I"/><use transform="matrix(0.06172839506172839,0,0,0.06172839506172839,91.17283950617283,0)" xlink:href="#Y"/><use transform="matrix(0.06172839506172839,0,0,0.06172839506172839,103.51851851851852,0)" xlink:href="#F"/><use transform="matrix(0.06172839506172839,0,0,0.06172839506172839,109.69135802469135,0)" xlink:href="#H"/><use transform="matrix(0.06172839506172839,0,0,0.06172839506172839,117.03703703703704,0)" xlink:href="#I"/><use transform="matrix(0.06172839506172839,0,0,0.06172839506172839,129.3827160493827,0)" xlink:href="#E"/><use transform="matrix(0.06172839506172839,0,0,0.06172839506172839,140.49382716049382,0)" xlink:href="#N"/><use transform="matrix(0.06172839506172839,0,0,0.06172839506172839,152.8395061728395,0)" xlink:href="#S"/><use transform="matrix(0.06172839506172839,0,0,0.06172839506172839,157.71604938271602,0)" xlink:href="#F"/></g><g id="B"><use transform="matrix(0.06172839506172839,0,0,0.06172839506172839,0,0)" xlink:href="#M"/><use transform="matrix(0.06172839506172839,0,0,0.06172839506172839,12.345679012345679,0)" xlink:href="#X"/><use transform="matrix(0.06172839506172839,0,0,0.06172839506172839,24.691358024691358,0)" xlink:href="#K"/></g><g id="C"><use transform="matrix(0.06172839506172839,0,0,0.06172839506172839,0,0)" xlink:href="#X"/><use transform="matrix(0.06172839506172839,0,0,0.06172839506172839,12.345679012345679,0)" xlink:href="#M"/><use transform="matrix(0.06172839506172839,0,0,0.06172839506172839,24.691358024691358,0)" xlink:href="#H"/><use transform="matrix(0.06172839506172839,0,0,0.06172839506172839,32.03703703703704,0)" xlink:href="#E"/><use transform="matrix(0.06172839506172839,0,0,0.06172839506172839,43.14814814814815,0)" xlink:href="#I"/><use transform="matrix(0.06172839506172839,0,0,0.06172839506172839,55.49382716049383,0)" xlink:href="#H"/><use transform="matrix(0.06172839506172839,0,0,0.06172839506172839,62.839506172839506,0)" xlink:href="#E"/></g><g id="D"><use transform="matrix(0.06172839506172839,0,0,0.06172839506172839,0,0)" xlink:href="#S"/><use transform="matrix(0.06172839506172839,0,0,0.06172839506172839,4.876543209876543,0)" xlink:href="#M"/><use transform="matrix(0.06172839506172839,0,0,0.06172839506172839,17.22222222222222,0)" xlink:href="#Y"/><use transform="matrix(0.06172839506172839,0,0,0.06172839506172839,29.5679012345679,0)" xlink:href="#aa"/><use transform="matrix(0.06172839506172839,0,0,0.06172839506172839,41.913580246913575,0)" xlink:href="#M"/><use transform="matrix(0.06172839506172839,0,0,0.06172839506172839,54.25925925925925,0)" xlink:href="#N"/><use transform="matrix(0.06172839506172839,0,0,0.06172839506172839,66.60493827160494,0)" xlink:href="#aa"/><use transform="matrix(0.06172839506172839,0,0,0.06172839506172839,78.95061728395062,0)" xlink:href="#I"/></g></defs></g></svg>