<svg width="526" height="570" viewBox="0 0 526 570" fill="none" xmlns="http://www.w3.org/2000/svg">
<rect x="2" y="2" width="522" height="96" rx="6" stroke="#9747FF" stroke-width="4" stroke-miterlimit="0" stroke-linecap="round"/>
<path d="M109.037 65V35.9091H119.406C121.669 35.9091 123.544 36.321 125.031 37.1449C126.518 37.9687 127.631 39.0956 128.369 40.5256C129.108 41.946 129.477 43.5464 129.477 45.3267C129.477 47.1165 129.103 48.7263 128.355 50.1562C127.616 51.5767 126.499 52.7036 125.003 53.5369C123.516 54.3608 121.646 54.7727 119.392 54.7727H112.261V51.0511H118.994C120.424 51.0511 121.584 50.8049 122.474 50.3125C123.364 49.8106 124.018 49.1288 124.435 48.267C124.851 47.4053 125.06 46.4252 125.06 45.3267C125.06 44.2282 124.851 43.2528 124.435 42.4006C124.018 41.5483 123.36 40.8807 122.46 40.3977C121.57 39.9148 120.396 39.6733 118.937 39.6733H113.426V65H109.037ZM133.402 65V43.1818H137.507V46.6477H137.734C138.132 45.4735 138.833 44.5502 139.836 43.8778C140.85 43.196 141.996 42.8551 143.274 42.8551C143.539 42.8551 143.852 42.8646 144.211 42.8835C144.581 42.9025 144.87 42.9261 145.078 42.9545V47.017C144.908 46.9697 144.604 46.9176 144.169 46.8608C143.733 46.7945 143.298 46.7614 142.862 46.7614C141.858 46.7614 140.963 46.9744 140.177 47.4006C139.401 47.8172 138.785 48.3996 138.331 49.1477C137.876 49.8864 137.649 50.7292 137.649 51.6761V65H133.402ZM156.496 65.4403C154.346 65.4403 152.495 64.9811 150.942 64.0625C149.398 63.1345 148.205 61.8324 147.362 60.1562C146.529 58.4706 146.112 56.4962 146.112 54.233C146.112 51.9981 146.529 50.0284 147.362 48.3239C148.205 46.6193 149.379 45.2888 150.885 44.3324C152.4 43.3759 154.171 42.8977 156.197 42.8977C157.428 42.8977 158.622 43.1013 159.777 43.5085C160.932 43.9157 161.969 44.5549 162.888 45.4261C163.806 46.2973 164.531 47.429 165.061 48.821C165.591 50.2036 165.856 51.8845 165.856 53.8636V55.3693H148.513V52.1875H161.694C161.694 51.0701 161.467 50.0805 161.013 49.2188C160.558 48.3475 159.919 47.661 159.095 47.1591C158.281 46.6572 157.324 46.4062 156.226 46.4062C155.032 46.4062 153.991 46.6998 153.101 47.2869C152.22 47.8646 151.538 48.6222 151.055 49.5597C150.582 50.4877 150.345 51.4962 150.345 52.5852V55.071C150.345 56.5294 150.601 57.7699 151.112 58.7926C151.633 59.8153 152.357 60.5966 153.285 61.1364C154.213 61.6667 155.298 61.9318 156.538 61.9318C157.343 61.9318 158.077 61.8182 158.74 61.5909C159.403 61.3542 159.976 61.0038 160.459 60.5398C160.942 60.0758 161.311 59.5028 161.567 58.821L165.586 59.5455C165.264 60.7292 164.687 61.7661 163.854 62.6562C163.03 63.5369 161.993 64.2235 160.743 64.7159C159.502 65.1989 158.086 65.4403 156.496 65.4403ZM186.038 48.5085L182.189 49.1903C182.028 48.6979 181.772 48.2292 181.422 47.7841C181.081 47.339 180.617 46.9744 180.03 46.6903C179.442 46.4062 178.709 46.2642 177.828 46.2642C176.625 46.2642 175.621 46.5341 174.817 47.0739C174.012 47.6042 173.609 48.2907 173.609 49.1335C173.609 49.8627 173.879 50.4498 174.419 50.8949C174.959 51.34 175.83 51.7045 177.032 51.9886L180.498 52.7841C182.506 53.2481 184.002 53.9631 184.987 54.929C185.972 55.8949 186.464 57.1496 186.464 58.6932C186.464 60 186.085 61.1648 185.328 62.1875C184.58 63.2008 183.533 63.9962 182.189 64.5739C180.853 65.1515 179.305 65.4403 177.544 65.4403C175.101 65.4403 173.107 64.9195 171.564 63.8778C170.02 62.8267 169.073 61.3352 168.723 59.4034L172.828 58.7784C173.084 59.8485 173.609 60.6581 174.405 61.2074C175.2 61.7472 176.237 62.017 177.515 62.017C178.907 62.017 180.02 61.7282 180.853 61.1506C181.687 60.5634 182.103 59.8485 182.103 59.0057C182.103 58.3239 181.848 57.7509 181.336 57.2869C180.835 56.8229 180.063 56.4725 179.021 56.2358L175.328 55.4261C173.292 54.9621 171.786 54.2235 170.811 53.2102C169.845 52.197 169.362 50.9138 169.362 49.3608C169.362 48.0729 169.722 46.946 170.442 45.9801C171.161 45.0142 172.156 44.2614 173.424 43.7216C174.693 43.1723 176.147 42.8977 177.785 42.8977C180.143 42.8977 181.999 43.4091 183.353 44.4318C184.708 45.4451 185.603 46.804 186.038 48.5085ZM199.657 65.4403C197.508 65.4403 195.656 64.9811 194.103 64.0625C192.56 63.1345 191.367 61.8324 190.524 60.1562C189.691 58.4706 189.274 56.4962 189.274 54.233C189.274 51.9981 189.691 50.0284 190.524 48.3239C191.367 46.6193 192.541 45.2888 194.047 44.3324C195.562 43.3759 197.333 42.8977 199.359 42.8977C200.59 42.8977 201.783 43.1013 202.939 43.5085C204.094 43.9157 205.131 44.5549 206.049 45.4261C206.968 46.2973 207.692 47.429 208.223 48.821C208.753 50.2036 209.018 51.8845 209.018 53.8636V55.3693H191.674V52.1875H204.856C204.856 51.0701 204.629 50.0805 204.174 49.2188C203.72 48.3475 203.081 47.661 202.257 47.1591C201.442 46.6572 200.486 46.4062 199.388 46.4062C198.194 46.4062 197.153 46.6998 196.263 47.2869C195.382 47.8646 194.7 48.6222 194.217 49.5597C193.744 50.4877 193.507 51.4962 193.507 52.5852V55.071C193.507 56.5294 193.763 57.7699 194.274 58.7926C194.795 59.8153 195.519 60.5966 196.447 61.1364C197.375 61.6667 198.46 61.9318 199.7 61.9318C200.505 61.9318 201.239 61.8182 201.902 61.5909C202.565 61.3542 203.138 61.0038 203.62 60.5398C204.103 60.0758 204.473 59.5028 204.728 58.821L208.748 59.5455C208.426 60.7292 207.849 61.7661 207.015 62.6562C206.192 63.5369 205.155 64.2235 203.905 64.7159C202.664 65.1989 201.248 65.4403 199.657 65.4403ZM217.098 52.0455V65H212.851V43.1818H216.927V46.733H217.197C217.699 45.5777 218.485 44.6496 219.555 43.9489C220.635 43.2481 221.994 42.8977 223.632 42.8977C225.119 42.8977 226.421 43.2102 227.538 43.8352C228.655 44.4508 229.522 45.3693 230.137 46.5909C230.753 47.8125 231.061 49.3229 231.061 51.1222V65H226.814V51.6335C226.814 50.0521 226.402 48.8163 225.578 47.9261C224.754 47.0265 223.622 46.5767 222.183 46.5767C221.198 46.5767 220.322 46.7898 219.555 47.2159C218.798 47.642 218.196 48.267 217.751 49.0909C217.316 49.9053 217.098 50.8902 217.098 52.0455ZM246.061 43.1818V46.5909H234.144V43.1818H246.061ZM237.34 37.9545H241.587V58.5938C241.587 59.4176 241.71 60.0379 241.956 60.4545C242.203 60.8617 242.52 61.1411 242.908 61.2926C243.306 61.4347 243.737 61.5057 244.201 61.5057C244.542 61.5057 244.84 61.482 245.096 61.4347C245.351 61.3873 245.55 61.3494 245.692 61.321L246.459 64.8295C246.213 64.9242 245.863 65.0189 245.408 65.1136C244.954 65.2178 244.385 65.2746 243.704 65.2841C242.586 65.303 241.544 65.1042 240.579 64.6875C239.613 64.2708 238.831 63.6269 238.235 62.7557C237.638 61.8845 237.34 60.7907 237.34 59.4744V37.9545ZM256.229 65.483C254.846 65.483 253.596 65.2273 252.479 64.7159C251.362 64.1951 250.476 63.4422 249.823 62.4574C249.179 61.4725 248.857 60.2652 248.857 58.8352C248.857 57.6042 249.094 56.5909 249.567 55.7955C250.041 55 250.68 54.3703 251.485 53.9062C252.29 53.4422 253.189 53.0919 254.184 52.8551C255.178 52.6184 256.191 52.4384 257.223 52.3153C258.53 52.1638 259.591 52.0407 260.405 51.946C261.22 51.8419 261.811 51.6761 262.181 51.4489C262.55 51.2216 262.735 50.8523 262.735 50.3409V50.2415C262.735 49.0009 262.384 48.0398 261.684 47.358C260.992 46.6761 259.96 46.3352 258.587 46.3352C257.157 46.3352 256.03 46.6525 255.206 47.2869C254.392 47.9119 253.828 48.608 253.516 49.375L249.525 48.4659C249.998 47.1402 250.689 46.0701 251.598 45.2557C252.517 44.4318 253.573 43.8352 254.766 43.4659C255.959 43.0871 257.214 42.8977 258.53 42.8977C259.401 42.8977 260.325 43.0019 261.3 43.2102C262.285 43.4091 263.203 43.7784 264.056 44.3182C264.918 44.858 265.623 45.6297 266.172 46.6335C266.721 47.6278 266.996 48.9205 266.996 50.5114V65H262.848V62.017H262.678C262.403 62.5663 261.991 63.1061 261.442 63.6364C260.893 64.1667 260.187 64.607 259.326 64.9574C258.464 65.3078 257.432 65.483 256.229 65.483ZM257.152 62.0739C258.327 62.0739 259.33 61.8419 260.164 61.3778C261.007 60.9138 261.646 60.3078 262.081 59.5597C262.526 58.8021 262.749 57.9924 262.749 57.1307V54.3182C262.597 54.4697 262.304 54.6117 261.868 54.7443C261.442 54.8674 260.954 54.9763 260.405 55.071C259.856 55.1562 259.321 55.2367 258.8 55.3125C258.279 55.3788 257.844 55.4356 257.493 55.483C256.669 55.5871 255.917 55.7623 255.235 56.0085C254.562 56.2547 254.023 56.6098 253.615 57.0739C253.218 57.5284 253.019 58.1345 253.019 58.892C253.019 59.9432 253.407 60.7386 254.184 61.2784C254.96 61.8087 255.95 62.0739 257.152 62.0739ZM281.958 43.1818V46.5909H270.04V43.1818H281.958ZM273.236 37.9545H277.483V58.5938C277.483 59.4176 277.606 60.0379 277.853 60.4545C278.099 60.8617 278.416 61.1411 278.804 61.2926C279.202 61.4347 279.633 61.5057 280.097 61.5057C280.438 61.5057 280.736 61.482 280.992 61.4347C281.248 61.3873 281.446 61.3494 281.588 61.321L282.355 64.8295C282.109 64.9242 281.759 65.0189 281.304 65.1136C280.85 65.2178 280.282 65.2746 279.6 65.2841C278.482 65.303 277.441 65.1042 276.475 64.6875C275.509 64.2708 274.728 63.6269 274.131 62.7557C273.534 61.8845 273.236 60.7907 273.236 59.4744V37.9545ZM285.776 65V43.1818H290.023V65H285.776ZM287.921 39.8153C287.182 39.8153 286.548 39.5691 286.017 39.0767C285.497 38.5748 285.236 37.9782 285.236 37.2869C285.236 36.5862 285.497 35.9896 286.017 35.4972C286.548 34.9953 287.182 34.7443 287.921 34.7443C288.659 34.7443 289.289 34.9953 289.81 35.4972C290.34 35.9896 290.605 36.5862 290.605 37.2869C290.605 37.9782 290.34 38.5748 289.81 39.0767C289.289 39.5691 288.659 39.8153 287.921 39.8153ZM304.047 65.4403C302.002 65.4403 300.217 64.9716 298.692 64.0341C297.167 63.0966 295.984 61.785 295.141 60.0994C294.298 58.4138 293.877 56.4441 293.877 54.1903C293.877 51.9271 294.298 49.9479 295.141 48.2528C295.984 46.5578 297.167 45.2415 298.692 44.304C300.217 43.3665 302.002 42.8977 304.047 42.8977C306.093 42.8977 307.878 43.3665 309.402 44.304C310.927 45.2415 312.111 46.5578 312.953 48.2528C313.796 49.9479 314.218 51.9271 314.218 54.1903C314.218 56.4441 313.796 58.4138 312.953 60.0994C312.111 61.785 310.927 63.0966 309.402 64.0341C307.878 64.9716 306.093 65.4403 304.047 65.4403ZM304.061 61.875C305.387 61.875 306.486 61.5246 307.357 60.8239C308.228 60.1231 308.872 59.1903 309.289 58.0256C309.715 56.8608 309.928 55.5777 309.928 54.1761C309.928 52.7841 309.715 51.5057 309.289 50.3409C308.872 49.1667 308.228 48.2244 307.357 47.5142C306.486 46.804 305.387 46.4489 304.061 46.4489C302.726 46.4489 301.618 46.804 300.738 47.5142C299.866 48.2244 299.218 49.1667 298.791 50.3409C298.375 51.5057 298.166 52.7841 298.166 54.1761C298.166 55.5777 298.375 56.8608 298.791 58.0256C299.218 59.1903 299.866 60.1231 300.738 60.8239C301.618 61.5246 302.726 61.875 304.061 61.875ZM322.326 52.0455V65H318.078V43.1818H322.155V46.733H322.425C322.927 45.5777 323.713 44.6496 324.783 43.9489C325.862 43.2481 327.221 42.8977 328.86 42.8977C330.346 42.8977 331.648 43.2102 332.766 43.8352C333.883 44.4508 334.75 45.3693 335.365 46.5909C335.981 47.8125 336.289 49.3229 336.289 51.1222V65H332.041V51.6335C332.041 50.0521 331.63 48.8163 330.806 47.9261C329.982 47.0265 328.85 46.5767 327.411 46.5767C326.426 46.5767 325.55 46.7898 324.783 47.2159C324.025 47.642 323.424 48.267 322.979 49.0909C322.543 49.9053 322.326 50.8902 322.326 52.0455ZM349.717 39.6875V35.9091H372.231V39.6875H363.154V65H358.779V39.6875H349.717ZM375.985 65V43.1818H380.232V65H375.985ZM378.13 39.8153C377.391 39.8153 376.757 39.5691 376.227 39.0767C375.706 38.5748 375.445 37.9782 375.445 37.2869C375.445 36.5862 375.706 35.9896 376.227 35.4972C376.757 34.9953 377.391 34.7443 378.13 34.7443C378.869 34.7443 379.498 34.9953 380.019 35.4972C380.55 35.9896 380.815 36.5862 380.815 37.2869C380.815 37.9782 380.55 38.5748 380.019 39.0767C379.498 39.5691 378.869 39.8153 378.13 39.8153ZM394.47 65.4403C392.32 65.4403 390.469 64.9811 388.916 64.0625C387.372 63.1345 386.179 61.8324 385.336 60.1562C384.503 58.4706 384.086 56.4962 384.086 54.233C384.086 51.9981 384.503 50.0284 385.336 48.3239C386.179 46.6193 387.353 45.2888 388.859 44.3324C390.374 43.3759 392.145 42.8977 394.171 42.8977C395.402 42.8977 396.596 43.1013 397.751 43.5085C398.906 43.9157 399.943 44.5549 400.862 45.4261C401.78 46.2973 402.505 47.429 403.035 48.821C403.565 50.2036 403.83 51.8845 403.83 53.8636V55.3693H386.487V52.1875H399.668C399.668 51.0701 399.441 50.0805 398.987 49.2188C398.532 48.3475 397.893 47.661 397.069 47.1591C396.255 46.6572 395.298 46.4062 394.2 46.4062C393.007 46.4062 391.965 46.6998 391.075 47.2869C390.194 47.8646 389.512 48.6222 389.029 49.5597C388.556 50.4877 388.319 51.4962 388.319 52.5852V55.071C388.319 56.5294 388.575 57.7699 389.086 58.7926C389.607 59.8153 390.331 60.5966 391.259 61.1364C392.187 61.6667 393.272 61.9318 394.512 61.9318C395.317 61.9318 396.051 61.8182 396.714 61.5909C397.377 61.3542 397.95 61.0038 398.433 60.5398C398.916 60.0758 399.285 59.5028 399.541 58.821L403.56 59.5455C403.239 60.7292 402.661 61.7661 401.828 62.6562C401.004 63.5369 399.967 64.2235 398.717 64.7159C397.476 65.1989 396.06 65.4403 394.47 65.4403ZM407.663 65V43.1818H411.768V46.6477H411.995C412.393 45.4735 413.094 44.5502 414.097 43.8778C415.111 43.196 416.257 42.8551 417.535 42.8551C417.8 42.8551 418.113 42.8646 418.472 42.8835C418.842 42.9025 419.131 42.9261 419.339 42.9545V47.017C419.168 46.9697 418.865 46.9176 418.43 46.8608C417.994 46.7945 417.559 46.7614 417.123 46.7614C416.119 46.7614 415.224 46.9744 414.438 47.4006C413.662 47.8172 413.046 48.3996 412.592 49.1477C412.137 49.8864 411.91 50.7292 411.91 51.6761V65H407.663Z" fill="black" fill-opacity="0.8"/>
<rect x="2" y="190" width="522" height="96" rx="6" stroke="#9747FF" stroke-width="4" stroke-miterlimit="0" stroke-linecap="round"/>
<path d="M124.726 253H120.067L130.536 223.909H135.607L146.076 253H141.416L133.192 229.193H132.965L124.726 253ZM125.507 241.608H140.621V245.301H125.507V241.608ZM149.056 261.182V231.182H153.203V234.719H153.558C153.805 234.264 154.16 233.739 154.624 233.142C155.088 232.545 155.732 232.025 156.556 231.58C157.379 231.125 158.468 230.898 159.823 230.898C161.584 230.898 163.156 231.343 164.539 232.233C165.921 233.123 167.005 234.406 167.791 236.082C168.587 237.759 168.985 239.776 168.985 242.134C168.985 244.491 168.592 246.513 167.806 248.199C167.02 249.875 165.94 251.168 164.567 252.077C163.194 252.976 161.627 253.426 159.865 253.426C158.539 253.426 157.455 253.204 156.612 252.759C155.779 252.313 155.126 251.793 154.652 251.196C154.179 250.599 153.814 250.069 153.558 249.605H153.303V261.182H149.056ZM153.218 242.091C153.218 243.625 153.44 244.97 153.885 246.125C154.33 247.28 154.974 248.185 155.817 248.838C156.66 249.482 157.692 249.804 158.914 249.804C160.182 249.804 161.243 249.468 162.095 248.795C162.948 248.114 163.592 247.19 164.027 246.026C164.472 244.861 164.695 243.549 164.695 242.091C164.695 240.652 164.477 239.359 164.041 238.213C163.615 237.067 162.971 236.163 162.11 235.5C161.257 234.837 160.192 234.506 158.914 234.506C157.682 234.506 156.641 234.823 155.789 235.457C154.946 236.092 154.307 236.977 153.871 238.114C153.435 239.25 153.218 240.576 153.218 242.091ZM172.863 261.182V231.182H177.011V234.719H177.366C177.612 234.264 177.967 233.739 178.431 233.142C178.895 232.545 179.539 232.025 180.363 231.58C181.187 231.125 182.276 230.898 183.63 230.898C185.392 230.898 186.963 231.343 188.346 232.233C189.729 233.123 190.813 234.406 191.599 236.082C192.394 237.759 192.792 239.776 192.792 242.134C192.792 244.491 192.399 246.513 191.613 248.199C190.827 249.875 189.748 251.168 188.374 252.077C187.001 252.976 185.434 253.426 183.673 253.426C182.347 253.426 181.263 253.204 180.42 252.759C179.587 252.313 178.933 251.793 178.46 251.196C177.986 250.599 177.622 250.069 177.366 249.605H177.11V261.182H172.863ZM177.025 242.091C177.025 243.625 177.248 244.97 177.693 246.125C178.138 247.28 178.782 248.185 179.624 248.838C180.467 249.482 181.499 249.804 182.721 249.804C183.99 249.804 185.051 249.468 185.903 248.795C186.755 248.114 187.399 247.19 187.835 246.026C188.28 244.861 188.502 243.549 188.502 242.091C188.502 240.652 188.284 239.359 187.849 238.213C187.423 237.067 186.779 236.163 185.917 235.5C185.065 234.837 183.999 234.506 182.721 234.506C181.49 234.506 180.448 234.823 179.596 235.457C178.753 236.092 178.114 236.977 177.678 238.114C177.243 239.25 177.025 240.576 177.025 242.091ZM200.918 223.909V253H196.671V223.909H200.918ZM205.752 253V231.182H209.999V253H205.752ZM207.896 227.815C207.158 227.815 206.523 227.569 205.993 227.077C205.472 226.575 205.212 225.978 205.212 225.287C205.212 224.586 205.472 223.99 205.993 223.497C206.523 222.995 207.158 222.744 207.896 222.744C208.635 222.744 209.265 222.995 209.786 223.497C210.316 223.99 210.581 224.586 210.581 225.287C210.581 225.978 210.316 226.575 209.786 227.077C209.265 227.569 208.635 227.815 207.896 227.815ZM224.023 253.44C221.911 253.44 220.093 252.962 218.568 252.006C217.053 251.04 215.888 249.709 215.074 248.014C214.26 246.319 213.852 244.378 213.852 242.19C213.852 239.974 214.269 238.019 215.102 236.324C215.936 234.619 217.11 233.289 218.625 232.332C220.14 231.376 221.925 230.898 223.98 230.898C225.637 230.898 227.115 231.205 228.412 231.821C229.709 232.427 230.756 233.279 231.551 234.378C232.356 235.476 232.834 236.759 232.986 238.227H228.852C228.625 237.205 228.104 236.324 227.29 235.585C226.485 234.847 225.405 234.477 224.051 234.477C222.868 234.477 221.831 234.79 220.94 235.415C220.06 236.03 219.373 236.911 218.881 238.057C218.388 239.193 218.142 240.538 218.142 242.091C218.142 243.682 218.384 245.055 218.867 246.21C219.35 247.366 220.031 248.26 220.912 248.895C221.802 249.529 222.849 249.847 224.051 249.847C224.856 249.847 225.585 249.7 226.239 249.406C226.902 249.103 227.456 248.672 227.901 248.114C228.355 247.555 228.672 246.883 228.852 246.097H232.986C232.834 247.508 232.375 248.767 231.608 249.875C230.841 250.983 229.814 251.854 228.526 252.489C227.247 253.123 225.746 253.44 224.023 253.44ZM242.997 253.483C241.615 253.483 240.365 253.227 239.247 252.716C238.13 252.195 237.244 251.442 236.591 250.457C235.947 249.473 235.625 248.265 235.625 246.835C235.625 245.604 235.862 244.591 236.335 243.795C236.809 243 237.448 242.37 238.253 241.906C239.058 241.442 239.957 241.092 240.952 240.855C241.946 240.618 242.959 240.438 243.992 240.315C245.298 240.164 246.359 240.041 247.173 239.946C247.988 239.842 248.58 239.676 248.949 239.449C249.318 239.222 249.503 238.852 249.503 238.341V238.241C249.503 237.001 249.153 236.04 248.452 235.358C247.76 234.676 246.728 234.335 245.355 234.335C243.925 234.335 242.798 234.652 241.974 235.287C241.16 235.912 240.597 236.608 240.284 237.375L236.293 236.466C236.766 235.14 237.457 234.07 238.367 233.256C239.285 232.432 240.341 231.835 241.534 231.466C242.727 231.087 243.982 230.898 245.298 230.898C246.17 230.898 247.093 231.002 248.068 231.21C249.053 231.409 249.972 231.778 250.824 232.318C251.686 232.858 252.391 233.63 252.94 234.634C253.49 235.628 253.764 236.92 253.764 238.511V253H249.617V250.017H249.446C249.171 250.566 248.76 251.106 248.21 251.636C247.661 252.167 246.956 252.607 246.094 252.957C245.232 253.308 244.2 253.483 242.997 253.483ZM243.921 250.074C245.095 250.074 246.099 249.842 246.932 249.378C247.775 248.914 248.414 248.308 248.849 247.56C249.295 246.802 249.517 245.992 249.517 245.131V242.318C249.366 242.47 249.072 242.612 248.636 242.744C248.21 242.867 247.723 242.976 247.173 243.071C246.624 243.156 246.089 243.237 245.568 243.312C245.047 243.379 244.612 243.436 244.261 243.483C243.438 243.587 242.685 243.762 242.003 244.009C241.331 244.255 240.791 244.61 240.384 245.074C239.986 245.528 239.787 246.134 239.787 246.892C239.787 247.943 240.175 248.739 240.952 249.278C241.728 249.809 242.718 250.074 243.921 250.074ZM268.726 231.182V234.591H256.808V231.182H268.726ZM260.004 225.955H264.251V246.594C264.251 247.418 264.375 248.038 264.621 248.455C264.867 248.862 265.184 249.141 265.572 249.293C265.97 249.435 266.401 249.506 266.865 249.506C267.206 249.506 267.504 249.482 267.76 249.435C268.016 249.387 268.215 249.349 268.357 249.321L269.124 252.83C268.877 252.924 268.527 253.019 268.072 253.114C267.618 253.218 267.05 253.275 266.368 253.284C265.25 253.303 264.209 253.104 263.243 252.688C262.277 252.271 261.496 251.627 260.899 250.756C260.303 249.884 260.004 248.791 260.004 247.474V225.955ZM272.544 253V231.182H276.791V253H272.544ZM274.689 227.815C273.95 227.815 273.316 227.569 272.786 227.077C272.265 226.575 272.004 225.978 272.004 225.287C272.004 224.586 272.265 223.99 272.786 223.497C273.316 222.995 273.95 222.744 274.689 222.744C275.428 222.744 276.057 222.995 276.578 223.497C277.108 223.99 277.374 224.586 277.374 225.287C277.374 225.978 277.108 226.575 276.578 227.077C276.057 227.569 275.428 227.815 274.689 227.815ZM290.815 253.44C288.77 253.44 286.985 252.972 285.46 252.034C283.936 251.097 282.752 249.785 281.909 248.099C281.066 246.414 280.645 244.444 280.645 242.19C280.645 239.927 281.066 237.948 281.909 236.253C282.752 234.558 283.936 233.241 285.46 232.304C286.985 231.366 288.77 230.898 290.815 230.898C292.861 230.898 294.646 231.366 296.17 232.304C297.695 233.241 298.879 234.558 299.722 236.253C300.564 237.948 300.986 239.927 300.986 242.19C300.986 244.444 300.564 246.414 299.722 248.099C298.879 249.785 297.695 251.097 296.17 252.034C294.646 252.972 292.861 253.44 290.815 253.44ZM290.83 249.875C292.155 249.875 293.254 249.525 294.125 248.824C294.996 248.123 295.64 247.19 296.057 246.026C296.483 244.861 296.696 243.578 296.696 242.176C296.696 240.784 296.483 239.506 296.057 238.341C295.64 237.167 294.996 236.224 294.125 235.514C293.254 234.804 292.155 234.449 290.83 234.449C289.494 234.449 288.386 234.804 287.506 235.514C286.634 236.224 285.986 237.167 285.56 238.341C285.143 239.506 284.935 240.784 284.935 242.176C284.935 243.578 285.143 244.861 285.56 246.026C285.986 247.19 286.634 248.123 287.506 248.824C288.386 249.525 289.494 249.875 290.83 249.875ZM309.094 240.045V253H304.847V231.182H308.923V234.733H309.193C309.695 233.578 310.481 232.65 311.551 231.949C312.631 231.248 313.99 230.898 315.628 230.898C317.115 230.898 318.417 231.21 319.534 231.835C320.651 232.451 321.518 233.369 322.133 234.591C322.749 235.812 323.057 237.323 323.057 239.122V253H318.81V239.634C318.81 238.052 318.398 236.816 317.574 235.926C316.75 235.027 315.618 234.577 314.179 234.577C313.194 234.577 312.318 234.79 311.551 235.216C310.793 235.642 310.192 236.267 309.747 237.091C309.311 237.905 309.094 238.89 309.094 240.045ZM336.485 227.688V223.909H358.999V227.688H349.922V253H345.547V227.688H336.485ZM362.753 253V231.182H367.001V253H362.753ZM364.898 227.815C364.16 227.815 363.525 227.569 362.995 227.077C362.474 226.575 362.214 225.978 362.214 225.287C362.214 224.586 362.474 223.99 362.995 223.497C363.525 222.995 364.16 222.744 364.898 222.744C365.637 222.744 366.267 222.995 366.787 223.497C367.318 223.99 367.583 224.586 367.583 225.287C367.583 225.978 367.318 226.575 366.787 227.077C366.267 227.569 365.637 227.815 364.898 227.815ZM381.238 253.44C379.088 253.44 377.237 252.981 375.684 252.062C374.14 251.134 372.947 249.832 372.104 248.156C371.271 246.471 370.854 244.496 370.854 242.233C370.854 239.998 371.271 238.028 372.104 236.324C372.947 234.619 374.121 233.289 375.627 232.332C377.142 231.376 378.913 230.898 380.939 230.898C382.171 230.898 383.364 231.101 384.519 231.509C385.674 231.916 386.711 232.555 387.63 233.426C388.548 234.297 389.273 235.429 389.803 236.821C390.333 238.204 390.599 239.884 390.599 241.864V243.369H373.255V240.188H386.437C386.437 239.07 386.209 238.08 385.755 237.219C385.3 236.348 384.661 235.661 383.837 235.159C383.023 234.657 382.066 234.406 380.968 234.406C379.775 234.406 378.733 234.7 377.843 235.287C376.962 235.865 376.28 236.622 375.797 237.56C375.324 238.488 375.087 239.496 375.087 240.585V243.071C375.087 244.529 375.343 245.77 375.854 246.793C376.375 247.815 377.099 248.597 378.028 249.136C378.956 249.667 380.04 249.932 381.28 249.932C382.085 249.932 382.819 249.818 383.482 249.591C384.145 249.354 384.718 249.004 385.201 248.54C385.684 248.076 386.053 247.503 386.309 246.821L390.329 247.545C390.007 248.729 389.429 249.766 388.596 250.656C387.772 251.537 386.735 252.223 385.485 252.716C384.244 253.199 382.829 253.44 381.238 253.44ZM394.431 253V231.182H398.536V234.648H398.763C399.161 233.473 399.862 232.55 400.866 231.878C401.879 231.196 403.025 230.855 404.303 230.855C404.568 230.855 404.881 230.865 405.241 230.884C405.61 230.902 405.899 230.926 406.107 230.955V235.017C405.937 234.97 405.634 234.918 405.198 234.861C404.762 234.795 404.327 234.761 403.891 234.761C402.887 234.761 401.992 234.974 401.206 235.401C400.43 235.817 399.814 236.4 399.36 237.148C398.905 237.886 398.678 238.729 398.678 239.676V253H394.431Z" fill="black" fill-opacity="0.8"/>
<rect x="2" y="286" width="261" height="79" rx="6" stroke="#9747FF" stroke-width="4" stroke-miterlimit="0" stroke-linecap="round"/>
<path d="M117.036 335H114.24L120.521 317.545H123.564L129.845 335H127.05L122.115 320.716H121.979L117.036 335ZM117.504 328.165H126.572V330.381H117.504V328.165ZM131.91 335V317.545H138.131C139.489 317.545 140.614 317.793 141.506 318.287C142.398 318.781 143.066 319.457 143.509 320.315C143.952 321.168 144.174 322.128 144.174 323.196C144.174 324.27 143.95 325.236 143.501 326.094C143.058 326.946 142.387 327.622 141.489 328.122C140.597 328.616 139.475 328.864 138.123 328.864H133.844V326.631H137.884C138.742 326.631 139.438 326.483 139.972 326.188C140.506 325.886 140.898 325.477 141.148 324.96C141.398 324.443 141.523 323.855 141.523 323.196C141.523 322.537 141.398 321.952 141.148 321.44C140.898 320.929 140.504 320.528 139.964 320.239C139.43 319.949 138.725 319.804 137.85 319.804H134.543V335H131.91ZM149.439 317.545V335H146.805V317.545H149.439Z" fill="black" fill-opacity="0.8"/>
<rect x="263" y="286" width="261" height="79" rx="6" stroke="#9747FF" stroke-width="4" stroke-miterlimit="0" stroke-linecap="round"/>
<path d="M312.507 335V317.545H318.899C320.137 317.545 321.163 317.75 321.975 318.159C322.788 318.562 323.396 319.111 323.799 319.804C324.203 320.491 324.404 321.267 324.404 322.131C324.404 322.858 324.271 323.472 324.004 323.972C323.737 324.466 323.379 324.864 322.93 325.165C322.487 325.46 321.998 325.676 321.464 325.812V325.983C322.044 326.011 322.609 326.199 323.16 326.545C323.717 326.886 324.177 327.372 324.541 328.003C324.904 328.634 325.086 329.401 325.086 330.304C325.086 331.196 324.876 331.997 324.455 332.707C324.041 333.412 323.399 333.972 322.529 334.386C321.66 334.795 320.549 335 319.197 335H312.507ZM315.14 332.741H318.941C320.203 332.741 321.106 332.497 321.651 332.009C322.197 331.52 322.47 330.909 322.47 330.176C322.47 329.625 322.33 329.119 322.052 328.659C321.774 328.199 321.376 327.832 320.859 327.56C320.348 327.287 319.74 327.151 319.035 327.151H315.14V332.741ZM315.14 325.097H318.669C319.259 325.097 319.791 324.983 320.262 324.756C320.74 324.528 321.117 324.21 321.396 323.801C321.68 323.386 321.822 322.898 321.822 322.335C321.822 321.614 321.569 321.009 321.063 320.52C320.558 320.031 319.782 319.787 318.737 319.787H315.14V325.097ZM335.842 329.571V321.909H338.399V335H335.893V332.733H335.757C335.455 333.432 334.972 334.014 334.308 334.48C333.649 334.94 332.828 335.17 331.845 335.17C331.004 335.17 330.259 334.986 329.612 334.616C328.97 334.241 328.464 333.688 328.095 332.955C327.731 332.222 327.549 331.315 327.549 330.236V321.909H330.097V329.929C330.097 330.821 330.345 331.531 330.839 332.06C331.333 332.588 331.975 332.852 332.765 332.852C333.242 332.852 333.717 332.733 334.188 332.494C334.666 332.256 335.061 331.895 335.373 331.412C335.691 330.929 335.847 330.315 335.842 329.571ZM351.176 325.105L348.867 325.514C348.77 325.219 348.617 324.937 348.406 324.67C348.202 324.403 347.923 324.185 347.571 324.014C347.219 323.844 346.779 323.759 346.25 323.759C345.529 323.759 344.926 323.92 344.443 324.244C343.96 324.562 343.719 324.974 343.719 325.48C343.719 325.918 343.881 326.27 344.205 326.537C344.529 326.804 345.051 327.023 345.773 327.193L347.852 327.67C349.057 327.949 349.955 328.378 350.546 328.957C351.137 329.537 351.432 330.29 351.432 331.216C351.432 332 351.205 332.699 350.75 333.312C350.301 333.92 349.673 334.398 348.867 334.744C348.065 335.091 347.137 335.264 346.08 335.264C344.614 335.264 343.418 334.952 342.492 334.327C341.565 333.696 340.997 332.801 340.787 331.642L343.25 331.267C343.404 331.909 343.719 332.395 344.196 332.724C344.673 333.048 345.296 333.21 346.063 333.21C346.898 333.21 347.565 333.037 348.065 332.69C348.565 332.338 348.815 331.909 348.815 331.403C348.815 330.994 348.662 330.651 348.355 330.372C348.054 330.094 347.591 329.884 346.966 329.741L344.75 329.256C343.529 328.977 342.625 328.534 342.04 327.926C341.46 327.318 341.171 326.548 341.171 325.616C341.171 324.844 341.387 324.168 341.818 323.588C342.25 323.009 342.847 322.557 343.608 322.233C344.369 321.903 345.242 321.739 346.225 321.739C347.639 321.739 348.753 322.045 349.565 322.659C350.378 323.267 350.915 324.082 351.176 325.105ZM353.778 335V321.909H356.326V335H353.778ZM355.065 319.889C354.622 319.889 354.241 319.741 353.923 319.446C353.61 319.145 353.454 318.787 353.454 318.372C353.454 317.952 353.61 317.594 353.923 317.298C354.241 316.997 354.622 316.847 355.065 316.847C355.508 316.847 355.886 316.997 356.198 317.298C356.516 317.594 356.676 317.952 356.676 318.372C356.676 318.787 356.516 319.145 356.198 319.446C355.886 319.741 355.508 319.889 355.065 319.889ZM361.847 327.227V335H359.298V321.909H361.744V324.04H361.906C362.207 323.347 362.679 322.79 363.321 322.369C363.969 321.949 364.784 321.739 365.767 321.739C366.659 321.739 367.44 321.926 368.111 322.301C368.781 322.67 369.301 323.222 369.671 323.955C370.04 324.687 370.225 325.594 370.225 326.673V335H367.676V326.98C367.676 326.031 367.429 325.29 366.935 324.756C366.44 324.216 365.761 323.946 364.898 323.946C364.307 323.946 363.781 324.074 363.321 324.33C362.867 324.585 362.506 324.96 362.239 325.455C361.977 325.943 361.847 326.534 361.847 327.227ZM378.828 335.264C377.538 335.264 376.428 334.989 375.496 334.438C374.57 333.881 373.854 333.099 373.348 332.094C372.848 331.082 372.598 329.898 372.598 328.54C372.598 327.199 372.848 326.017 373.348 324.994C373.854 323.972 374.558 323.173 375.462 322.599C376.371 322.026 377.433 321.739 378.649 321.739C379.388 321.739 380.104 321.861 380.797 322.105C381.49 322.349 382.112 322.733 382.663 323.256C383.215 323.778 383.649 324.457 383.967 325.293C384.286 326.122 384.445 327.131 384.445 328.318V329.222H374.038V327.312H381.947C381.947 326.642 381.811 326.048 381.538 325.531C381.266 325.009 380.882 324.597 380.388 324.295C379.899 323.994 379.325 323.844 378.666 323.844C377.95 323.844 377.325 324.02 376.791 324.372C376.263 324.719 375.854 325.173 375.564 325.736C375.28 326.293 375.138 326.898 375.138 327.551V329.043C375.138 329.918 375.291 330.662 375.598 331.276C375.911 331.889 376.345 332.358 376.902 332.682C377.459 333 378.109 333.159 378.854 333.159C379.337 333.159 379.777 333.091 380.175 332.955C380.572 332.812 380.916 332.602 381.206 332.324C381.496 332.045 381.717 331.702 381.871 331.293L384.283 331.727C384.09 332.437 383.743 333.06 383.243 333.594C382.749 334.122 382.126 334.534 381.376 334.83C380.632 335.119 379.783 335.264 378.828 335.264ZM396.626 325.105L394.316 325.514C394.219 325.219 394.066 324.937 393.856 324.67C393.651 324.403 393.373 324.185 393.021 324.014C392.668 323.844 392.228 323.759 391.7 323.759C390.978 323.759 390.376 323.92 389.893 324.244C389.41 324.562 389.168 324.974 389.168 325.48C389.168 325.918 389.33 326.27 389.654 326.537C389.978 326.804 390.501 327.023 391.222 327.193L393.302 327.67C394.506 327.949 395.404 328.378 395.995 328.957C396.586 329.537 396.881 330.29 396.881 331.216C396.881 332 396.654 332.699 396.2 333.312C395.751 333.92 395.123 334.398 394.316 334.744C393.515 335.091 392.586 335.264 391.529 335.264C390.063 335.264 388.867 334.952 387.941 334.327C387.015 333.696 386.447 332.801 386.237 331.642L388.7 331.267C388.853 331.909 389.168 332.395 389.646 332.724C390.123 333.048 390.745 333.21 391.512 333.21C392.347 333.21 393.015 333.037 393.515 332.69C394.015 332.338 394.265 331.909 394.265 331.403C394.265 330.994 394.112 330.651 393.805 330.372C393.504 330.094 393.04 329.884 392.415 329.741L390.2 329.256C388.978 328.977 388.075 328.534 387.489 327.926C386.91 327.318 386.62 326.548 386.62 325.616C386.62 324.844 386.836 324.168 387.268 323.588C387.7 323.009 388.296 322.557 389.058 322.233C389.819 321.903 390.691 321.739 391.674 321.739C393.089 321.739 394.202 322.045 395.015 322.659C395.827 323.267 396.364 324.082 396.626 325.105ZM409.037 325.105L406.727 325.514C406.631 325.219 406.477 324.937 406.267 324.67C406.062 324.403 405.784 324.185 405.432 324.014C405.08 323.844 404.639 323.759 404.111 323.759C403.389 323.759 402.787 323.92 402.304 324.244C401.821 324.562 401.58 324.974 401.58 325.48C401.58 325.918 401.741 326.27 402.065 326.537C402.389 326.804 402.912 327.023 403.634 327.193L405.713 327.67C406.918 327.949 407.815 328.378 408.406 328.957C408.997 329.537 409.293 330.29 409.293 331.216C409.293 332 409.065 332.699 408.611 333.312C408.162 333.92 407.534 334.398 406.727 334.744C405.926 335.091 404.997 335.264 403.94 335.264C402.474 335.264 401.278 334.952 400.352 334.327C399.426 333.696 398.858 332.801 398.648 331.642L401.111 331.267C401.264 331.909 401.58 332.395 402.057 332.724C402.534 333.048 403.156 333.21 403.923 333.21C404.759 333.21 405.426 333.037 405.926 332.69C406.426 332.338 406.676 331.909 406.676 331.403C406.676 330.994 406.523 330.651 406.216 330.372C405.915 330.094 405.452 329.884 404.827 329.741L402.611 329.256C401.389 328.977 400.486 328.534 399.901 327.926C399.321 327.318 399.031 326.548 399.031 325.616C399.031 324.844 399.247 324.168 399.679 323.588C400.111 323.009 400.707 322.557 401.469 322.233C402.23 321.903 403.102 321.739 404.085 321.739C405.5 321.739 406.614 322.045 407.426 322.659C408.239 323.267 408.776 324.082 409.037 325.105ZM417.739 335V317.545H420.372V332.733H428.281V335H417.739ZM436.139 335.264C434.912 335.264 433.841 334.983 432.926 334.42C432.011 333.858 431.301 333.071 430.795 332.06C430.29 331.048 430.037 329.866 430.037 328.514C430.037 327.156 430.29 325.969 430.795 324.952C431.301 323.935 432.011 323.145 432.926 322.582C433.841 322.02 434.912 321.739 436.139 321.739C437.366 321.739 438.437 322.02 439.352 322.582C440.267 323.145 440.977 323.935 441.483 324.952C441.989 325.969 442.241 327.156 442.241 328.514C442.241 329.866 441.989 331.048 441.483 332.06C440.977 333.071 440.267 333.858 439.352 334.42C438.437 334.983 437.366 335.264 436.139 335.264ZM436.148 333.125C436.943 333.125 437.602 332.915 438.125 332.494C438.648 332.074 439.034 331.514 439.284 330.815C439.54 330.116 439.667 329.347 439.667 328.506C439.667 327.67 439.54 326.903 439.284 326.205C439.034 325.5 438.648 324.935 438.125 324.509C437.602 324.082 436.943 323.869 436.148 323.869C435.346 323.869 434.682 324.082 434.153 324.509C433.631 324.935 433.241 325.5 432.986 326.205C432.736 326.903 432.611 327.67 432.611 328.506C432.611 329.347 432.736 330.116 432.986 330.815C433.241 331.514 433.631 332.074 434.153 332.494C434.682 332.915 435.346 333.125 436.148 333.125ZM450.118 340.182C449.079 340.182 448.184 340.045 447.434 339.773C446.689 339.5 446.082 339.139 445.61 338.69C445.138 338.241 444.786 337.75 444.553 337.216L446.743 336.312C446.897 336.562 447.101 336.827 447.357 337.105C447.618 337.389 447.971 337.631 448.414 337.83C448.863 338.028 449.439 338.128 450.144 338.128C451.11 338.128 451.908 337.892 452.539 337.42C453.17 336.955 453.485 336.21 453.485 335.188V332.614H453.323C453.17 332.892 452.948 333.202 452.658 333.543C452.374 333.884 451.982 334.179 451.482 334.429C450.982 334.679 450.332 334.804 449.53 334.804C448.496 334.804 447.564 334.562 446.735 334.08C445.911 333.591 445.258 332.872 444.775 331.923C444.297 330.969 444.059 329.795 444.059 328.403C444.059 327.011 444.295 325.818 444.766 324.824C445.243 323.83 445.897 323.068 446.726 322.54C447.556 322.006 448.496 321.739 449.547 321.739C450.36 321.739 451.016 321.875 451.516 322.148C452.016 322.415 452.405 322.727 452.684 323.085C452.968 323.443 453.187 323.759 453.34 324.031H453.528V321.909H456.025V335.29C456.025 336.415 455.763 337.338 455.241 338.06C454.718 338.781 454.01 339.315 453.118 339.662C452.232 340.009 451.232 340.182 450.118 340.182ZM450.093 332.69C450.826 332.69 451.445 332.52 451.951 332.179C452.462 331.832 452.849 331.338 453.11 330.696C453.377 330.048 453.51 329.273 453.51 328.369C453.51 327.489 453.38 326.713 453.118 326.043C452.857 325.372 452.474 324.849 451.968 324.474C451.462 324.094 450.837 323.903 450.093 323.903C449.326 323.903 448.687 324.102 448.175 324.5C447.664 324.892 447.278 325.426 447.016 326.102C446.76 326.778 446.633 327.534 446.633 328.369C446.633 329.227 446.763 329.98 447.025 330.628C447.286 331.276 447.672 331.781 448.184 332.145C448.701 332.509 449.337 332.69 450.093 332.69ZM458.986 335V321.909H461.535V335H458.986ZM460.273 319.889C459.83 319.889 459.449 319.741 459.131 319.446C458.819 319.145 458.662 318.787 458.662 318.372C458.662 317.952 458.819 317.594 459.131 317.298C459.449 316.997 459.83 316.847 460.273 316.847C460.716 316.847 461.094 316.997 461.407 317.298C461.725 317.594 461.884 317.952 461.884 318.372C461.884 318.787 461.725 319.145 461.407 319.446C461.094 319.741 460.716 319.889 460.273 319.889ZM470.021 335.264C468.754 335.264 467.663 334.977 466.748 334.403C465.839 333.824 465.14 333.026 464.652 332.009C464.163 330.991 463.919 329.827 463.919 328.514C463.919 327.185 464.169 326.011 464.669 324.994C465.169 323.972 465.873 323.173 466.782 322.599C467.692 322.026 468.763 321.739 469.996 321.739C470.99 321.739 471.876 321.923 472.655 322.293C473.433 322.656 474.061 323.168 474.538 323.827C475.021 324.486 475.308 325.256 475.399 326.136H472.919C472.782 325.523 472.47 324.994 471.981 324.551C471.498 324.108 470.851 323.886 470.038 323.886C469.328 323.886 468.706 324.074 468.172 324.449C467.643 324.818 467.231 325.347 466.936 326.034C466.64 326.716 466.493 327.523 466.493 328.455C466.493 329.409 466.638 330.233 466.927 330.926C467.217 331.619 467.626 332.156 468.155 332.537C468.689 332.918 469.317 333.108 470.038 333.108C470.521 333.108 470.959 333.02 471.351 332.844C471.748 332.662 472.081 332.403 472.348 332.068C472.621 331.733 472.811 331.33 472.919 330.858H475.399C475.308 331.705 475.032 332.46 474.572 333.125C474.112 333.79 473.496 334.312 472.723 334.693C471.956 335.074 471.055 335.264 470.021 335.264Z" fill="black" fill-opacity="0.8"/>
<path d="M269.66 117C270.489 117 271.074 115.985 270.66 115.268L264 103.732C263.586 103.015 262.414 103.015 262 103.732L255.34 115.268C254.926 115.985 255.511 117 256.34 117H269.66ZM261.5 124C261.5 124.828 262.172 125.5 263 125.5C263.828 125.5 264.5 124.828 264.5 124H261.5ZM264.5 164C264.5 163.172 263.828 162.5 263 162.5C262.172 162.5 261.5 163.172 261.5 164H264.5ZM256.34 171C255.511 171 254.926 172.015 255.34 172.732L262 184.268C262.414 184.985 263.586 184.985 264 184.268L270.66 172.732C271.074 172.015 270.489 171 269.66 171H256.34ZM261.5 115.5V124H264.5V115.5H261.5ZM261.5 164V172.5H264.5V164H261.5Z" fill="#1E1E1E"/>
<path d="M243.066 150V138.364H244.822V143.42H250.623V138.364H252.384V150H250.623V144.926H244.822V150H243.066ZM254.191 139.875V138.364H263.197V139.875H259.566V150H257.816V139.875H254.191ZM264.437 139.875V138.364H273.443V139.875H269.812V150H268.062V139.875H264.437ZM275.257 150V138.364H279.404C280.31 138.364 281.06 138.528 281.654 138.858C282.249 139.187 282.694 139.638 282.99 140.21C283.285 140.778 283.433 141.419 283.433 142.131C283.433 142.847 283.283 143.491 282.984 144.062C282.688 144.631 282.241 145.081 281.643 145.415C281.048 145.744 280.3 145.909 279.399 145.909H276.546V144.42H279.24C279.812 144.42 280.276 144.322 280.632 144.125C280.988 143.924 281.249 143.652 281.416 143.307C281.582 142.962 281.666 142.57 281.666 142.131C281.666 141.691 281.582 141.301 281.416 140.96C281.249 140.619 280.986 140.352 280.626 140.159C280.27 139.966 279.8 139.869 279.217 139.869H277.012V150H275.257Z" fill="black" fill-opacity="0.8"/>
<rect x="2" y="461" width="522" height="106.109" rx="6" stroke="#9747FF" stroke-width="4" stroke-miterlimit="0" stroke-linecap="round"/>
<path d="M191.77 529H182.353V499.909H192.069C194.919 499.909 197.367 500.491 199.412 501.656C201.458 502.812 203.025 504.473 204.114 506.642C205.213 508.801 205.762 511.391 205.762 514.412C205.762 517.442 205.208 520.046 204.1 522.224C203.001 524.402 201.41 526.079 199.327 527.253C197.244 528.418 194.725 529 191.77 529ZM186.742 525.165H191.529C193.745 525.165 195.587 524.748 197.054 523.915C198.522 523.072 199.621 521.855 200.35 520.264C201.079 518.664 201.444 516.713 201.444 514.412C201.444 512.13 201.079 510.193 200.35 508.602C199.63 507.011 198.555 505.804 197.125 504.98C195.696 504.156 193.92 503.744 191.799 503.744H186.742V525.165ZM216.348 529.483C214.966 529.483 213.716 529.227 212.598 528.716C211.481 528.195 210.596 527.442 209.942 526.457C209.298 525.473 208.976 524.265 208.976 522.835C208.976 521.604 209.213 520.591 209.687 519.795C210.16 519 210.799 518.37 211.604 517.906C212.409 517.442 213.309 517.092 214.303 516.855C215.297 516.618 216.311 516.438 217.343 516.315C218.65 516.164 219.71 516.041 220.525 515.946C221.339 515.842 221.931 515.676 222.3 515.449C222.669 515.222 222.854 514.852 222.854 514.341V514.241C222.854 513.001 222.504 512.04 221.803 511.358C221.112 510.676 220.079 510.335 218.706 510.335C217.276 510.335 216.15 510.652 215.326 511.287C214.511 511.912 213.948 512.608 213.635 513.375L209.644 512.466C210.117 511.14 210.809 510.07 211.718 509.256C212.636 508.432 213.692 507.835 214.885 507.466C216.079 507.087 217.333 506.898 218.65 506.898C219.521 506.898 220.444 507.002 221.419 507.21C222.404 507.409 223.323 507.778 224.175 508.318C225.037 508.858 225.742 509.63 226.292 510.634C226.841 511.628 227.115 512.92 227.115 514.511V529H222.968V526.017H222.797C222.523 526.566 222.111 527.106 221.562 527.636C221.012 528.167 220.307 528.607 219.445 528.957C218.583 529.308 217.551 529.483 216.348 529.483ZM217.272 526.074C218.446 526.074 219.45 525.842 220.283 525.378C221.126 524.914 221.765 524.308 222.201 523.56C222.646 522.802 222.868 521.992 222.868 521.131V518.318C222.717 518.47 222.423 518.612 221.988 518.744C221.562 518.867 221.074 518.976 220.525 519.071C219.975 519.156 219.44 519.237 218.919 519.312C218.399 519.379 217.963 519.436 217.613 519.483C216.789 519.587 216.036 519.762 215.354 520.009C214.682 520.255 214.142 520.61 213.735 521.074C213.337 521.528 213.138 522.134 213.138 522.892C213.138 523.943 213.526 524.739 214.303 525.278C215.079 525.809 216.069 526.074 217.272 526.074ZM242.077 507.182V510.591H230.159V507.182H242.077ZM233.356 501.955H237.603V522.594C237.603 523.418 237.726 524.038 237.972 524.455C238.218 524.862 238.535 525.141 238.924 525.293C239.321 525.435 239.752 525.506 240.216 525.506C240.557 525.506 240.856 525.482 241.111 525.435C241.367 525.387 241.566 525.349 241.708 525.321L242.475 528.83C242.229 528.924 241.878 529.019 241.424 529.114C240.969 529.218 240.401 529.275 239.719 529.284C238.602 529.303 237.56 529.104 236.594 528.688C235.628 528.271 234.847 527.627 234.25 526.756C233.654 525.884 233.356 524.791 233.356 523.474V501.955ZM252.245 529.483C250.862 529.483 249.612 529.227 248.495 528.716C247.377 528.195 246.492 527.442 245.838 526.457C245.195 525.473 244.873 524.265 244.873 522.835C244.873 521.604 245.109 520.591 245.583 519.795C246.056 519 246.695 518.37 247.5 517.906C248.305 517.442 249.205 517.092 250.199 516.855C251.194 516.618 252.207 516.438 253.239 516.315C254.546 516.164 255.606 516.041 256.421 515.946C257.235 515.842 257.827 515.676 258.196 515.449C258.566 515.222 258.75 514.852 258.75 514.341V514.241C258.75 513.001 258.4 512.04 257.699 511.358C257.008 510.676 255.976 510.335 254.603 510.335C253.173 510.335 252.046 510.652 251.222 511.287C250.408 511.912 249.844 512.608 249.532 513.375L245.54 512.466C246.014 511.14 246.705 510.07 247.614 509.256C248.533 508.432 249.588 507.835 250.782 507.466C251.975 507.087 253.23 506.898 254.546 506.898C255.417 506.898 256.34 507.002 257.316 507.21C258.301 507.409 259.219 507.778 260.071 508.318C260.933 508.858 261.639 509.63 262.188 510.634C262.737 511.628 263.012 512.92 263.012 514.511V529H258.864V526.017H258.694C258.419 526.566 258.007 527.106 257.458 527.636C256.909 528.167 256.203 528.607 255.341 528.957C254.48 529.308 253.447 529.483 252.245 529.483ZM253.168 526.074C254.342 526.074 255.346 525.842 256.179 525.378C257.022 524.914 257.661 524.308 258.097 523.56C258.542 522.802 258.765 521.992 258.765 521.131V518.318C258.613 518.47 258.32 518.612 257.884 518.744C257.458 518.867 256.97 518.976 256.421 519.071C255.872 519.156 255.337 519.237 254.816 519.312C254.295 519.379 253.859 519.436 253.509 519.483C252.685 519.587 251.932 519.762 251.25 520.009C250.578 520.255 250.038 520.61 249.631 521.074C249.233 521.528 249.034 522.134 249.034 522.892C249.034 523.943 249.423 524.739 250.199 525.278C250.976 525.809 251.965 526.074 253.168 526.074ZM276.401 503.688V499.909H298.915V503.688H289.838V529H285.463V503.688H276.401ZM302.669 529V507.182H306.916V529H302.669ZM304.814 503.815C304.076 503.815 303.441 503.569 302.911 503.077C302.39 502.575 302.13 501.978 302.13 501.287C302.13 500.586 302.39 499.99 302.911 499.497C303.441 498.995 304.076 498.744 304.814 498.744C305.553 498.744 306.183 498.995 306.703 499.497C307.234 499.99 307.499 500.586 307.499 501.287C307.499 501.978 307.234 502.575 306.703 503.077C306.183 503.569 305.553 503.815 304.814 503.815ZM321.154 529.44C319.004 529.44 317.153 528.981 315.6 528.062C314.056 527.134 312.863 525.832 312.02 524.156C311.187 522.471 310.77 520.496 310.77 518.233C310.77 515.998 311.187 514.028 312.02 512.324C312.863 510.619 314.037 509.289 315.543 508.332C317.058 507.376 318.829 506.898 320.855 506.898C322.086 506.898 323.28 507.101 324.435 507.509C325.59 507.916 326.627 508.555 327.546 509.426C328.464 510.297 329.189 511.429 329.719 512.821C330.249 514.204 330.514 515.884 330.514 517.864V519.369H313.171V516.188H326.353C326.353 515.07 326.125 514.08 325.671 513.219C325.216 512.348 324.577 511.661 323.753 511.159C322.939 510.657 321.982 510.406 320.884 510.406C319.691 510.406 318.649 510.7 317.759 511.287C316.878 511.865 316.196 512.622 315.713 513.56C315.24 514.488 315.003 515.496 315.003 516.585V519.071C315.003 520.529 315.259 521.77 315.77 522.793C316.291 523.815 317.015 524.597 317.943 525.136C318.871 525.667 319.956 525.932 321.196 525.932C322.001 525.932 322.735 525.818 323.398 525.591C324.061 525.354 324.634 525.004 325.117 524.54C325.6 524.076 325.969 523.503 326.225 522.821L330.245 523.545C329.923 524.729 329.345 525.766 328.512 526.656C327.688 527.537 326.651 528.223 325.401 528.716C324.16 529.199 322.745 529.44 321.154 529.44ZM334.347 529V507.182H338.452V510.648H338.679C339.077 509.473 339.778 508.55 340.781 507.878C341.795 507.196 342.941 506.855 344.219 506.855C344.484 506.855 344.797 506.865 345.156 506.884C345.526 506.902 345.815 506.926 346.023 506.955V511.017C345.852 510.97 345.549 510.918 345.114 510.861C344.678 510.795 344.243 510.761 343.807 510.761C342.803 510.761 341.908 510.974 341.122 511.401C340.346 511.817 339.73 512.4 339.276 513.148C338.821 513.886 338.594 514.729 338.594 515.676V529H334.347Z" fill="black" fill-opacity="0.8"/>
<path d="M256.331 442C255.503 442 254.917 443.015 255.331 443.732L261.992 455.268C262.406 455.985 263.577 455.985 263.992 455.268L270.652 443.732C271.066 443.015 270.48 442 269.652 442H256.331ZM264.492 429.78C264.492 428.952 263.82 428.28 262.992 428.28C262.163 428.28 261.492 428.952 261.492 429.78H264.492ZM261.492 389.78C261.492 390.609 262.163 391.28 262.992 391.28C263.82 391.28 264.492 390.609 264.492 389.78H261.492ZM269.652 377.561C270.48 377.561 271.066 376.546 270.652 375.829L263.992 364.293C263.577 363.575 262.406 363.575 261.992 364.293L255.331 375.829C254.917 376.546 255.503 377.561 256.331 377.561H269.652ZM264.492 443.5V429.78H261.492V443.5H264.492ZM264.492 389.78V376.061H261.492V389.78H264.492Z" fill="#1E1E1E"/>
<path d="M111.344 415.78V404.144H115.492C116.397 404.144 117.147 404.309 117.742 404.638C118.337 404.968 118.782 405.419 119.077 405.991C119.373 406.559 119.52 407.199 119.52 407.911C119.52 408.627 119.371 409.271 119.071 409.843C118.776 410.411 118.329 410.862 117.731 411.195C117.136 411.525 116.388 411.69 115.486 411.69H112.634V410.201H115.327C115.899 410.201 116.363 410.102 116.719 409.905C117.075 409.705 117.337 409.432 117.503 409.087C117.67 408.743 117.753 408.351 117.753 407.911C117.753 407.472 117.67 407.082 117.503 406.741C117.337 406.4 117.073 406.133 116.714 405.94C116.357 405.746 115.888 405.65 115.304 405.65H113.1V415.78H111.344ZM124.833 415.957C124.015 415.957 123.301 415.769 122.691 415.394C122.081 415.019 121.608 414.494 121.27 413.82C120.933 413.146 120.765 412.358 120.765 411.457C120.765 410.551 120.933 409.76 121.27 409.082C121.608 408.404 122.081 407.877 122.691 407.502C123.301 407.127 124.015 406.94 124.833 406.94C125.651 406.94 126.365 407.127 126.975 407.502C127.585 407.877 128.058 408.404 128.395 409.082C128.733 409.76 128.901 410.551 128.901 411.457C128.901 412.358 128.733 413.146 128.395 413.82C128.058 414.494 127.585 415.019 126.975 415.394C126.365 415.769 125.651 415.957 124.833 415.957ZM124.839 414.53C125.369 414.53 125.808 414.39 126.157 414.11C126.505 413.83 126.763 413.457 126.93 412.991C127.1 412.525 127.185 412.011 127.185 411.451C127.185 410.894 127.1 410.383 126.93 409.917C126.763 409.447 126.505 409.07 126.157 408.786C125.808 408.502 125.369 408.36 124.839 408.36C124.305 408.36 123.861 408.502 123.509 408.786C123.161 409.07 122.901 409.447 122.731 409.917C122.564 410.383 122.481 410.894 122.481 411.451C122.481 412.011 122.564 412.525 122.731 412.991C122.901 413.457 123.161 413.83 123.509 414.11C123.861 414.39 124.305 414.53 124.839 414.53ZM137.161 409.184L135.621 409.457C135.557 409.26 135.455 409.072 135.315 408.894C135.178 408.716 134.993 408.57 134.758 408.457C134.523 408.343 134.229 408.286 133.877 408.286C133.396 408.286 132.995 408.394 132.673 408.61C132.351 408.822 132.19 409.097 132.19 409.434C132.19 409.726 132.298 409.96 132.514 410.138C132.729 410.316 133.078 410.462 133.559 410.576L134.945 410.894C135.748 411.08 136.347 411.366 136.741 411.752C137.135 412.138 137.332 412.64 137.332 413.258C137.332 413.78 137.18 414.246 136.877 414.655C136.578 415.061 136.159 415.379 135.621 415.61C135.087 415.841 134.468 415.957 133.764 415.957C132.786 415.957 131.989 415.748 131.371 415.332C130.754 414.911 130.375 414.315 130.235 413.542L131.877 413.292C131.979 413.72 132.19 414.044 132.508 414.263C132.826 414.479 133.241 414.587 133.752 414.587C134.309 414.587 134.754 414.472 135.087 414.241C135.421 414.006 135.587 413.72 135.587 413.383C135.587 413.11 135.485 412.881 135.281 412.695C135.08 412.51 134.771 412.369 134.354 412.275L132.877 411.951C132.063 411.765 131.46 411.47 131.07 411.065C130.684 410.659 130.491 410.146 130.491 409.525C130.491 409.01 130.635 408.559 130.923 408.172C131.21 407.786 131.608 407.485 132.116 407.269C132.623 407.049 133.205 406.94 133.86 406.94C134.803 406.94 135.546 407.144 136.087 407.553C136.629 407.958 136.987 408.502 137.161 409.184ZM143.097 407.053V408.417H138.33V407.053H143.097ZM139.609 404.962H141.308V413.218C141.308 413.547 141.357 413.796 141.455 413.962C141.554 414.125 141.681 414.237 141.836 414.297C141.995 414.354 142.168 414.383 142.353 414.383C142.49 414.383 142.609 414.373 142.711 414.354C142.813 414.335 142.893 414.32 142.95 414.309L143.257 415.712C143.158 415.75 143.018 415.788 142.836 415.826C142.654 415.868 142.427 415.89 142.154 415.894C141.707 415.902 141.291 415.822 140.904 415.655C140.518 415.489 140.205 415.231 139.967 414.883C139.728 414.534 139.609 414.097 139.609 413.57V404.962ZM148.366 419.235C147.673 419.235 147.076 419.144 146.576 418.962C146.08 418.78 145.675 418.54 145.36 418.241C145.046 417.941 144.811 417.614 144.656 417.258L146.116 416.655C146.218 416.822 146.355 416.998 146.525 417.184C146.699 417.373 146.934 417.534 147.23 417.667C147.529 417.799 147.913 417.866 148.383 417.866C149.027 417.866 149.559 417.708 149.98 417.394C150.4 417.083 150.61 416.587 150.61 415.905V414.19H150.502C150.4 414.375 150.252 414.582 150.059 414.809C149.87 415.036 149.608 415.233 149.275 415.4C148.942 415.566 148.508 415.65 147.974 415.65C147.285 415.65 146.663 415.489 146.11 415.167C145.561 414.841 145.126 414.362 144.804 413.729C144.485 413.093 144.326 412.311 144.326 411.383C144.326 410.455 144.483 409.659 144.798 408.996C145.116 408.333 145.552 407.826 146.105 407.474C146.658 407.118 147.285 406.94 147.985 406.94C148.527 406.94 148.965 407.03 149.298 407.212C149.631 407.39 149.891 407.599 150.076 407.837C150.266 408.076 150.412 408.286 150.514 408.468H150.639V407.053H152.304V415.974C152.304 416.724 152.129 417.339 151.781 417.82C151.432 418.301 150.961 418.657 150.366 418.888C149.775 419.119 149.108 419.235 148.366 419.235ZM148.349 414.241C148.838 414.241 149.251 414.127 149.588 413.9C149.929 413.669 150.186 413.339 150.36 412.911C150.538 412.479 150.627 411.962 150.627 411.36C150.627 410.773 150.54 410.256 150.366 409.809C150.192 409.362 149.936 409.013 149.599 408.763C149.262 408.51 148.845 408.383 148.349 408.383C147.838 408.383 147.412 408.515 147.071 408.78C146.73 409.042 146.472 409.398 146.298 409.849C146.127 410.299 146.042 410.803 146.042 411.36C146.042 411.932 146.129 412.434 146.304 412.866C146.478 413.297 146.735 413.635 147.076 413.877C147.421 414.119 147.845 414.241 148.349 414.241ZM154.406 415.78V407.053H156.048V408.44H156.139C156.298 407.97 156.578 407.601 156.98 407.332C157.385 407.059 157.843 406.922 158.355 406.922C158.461 406.922 158.586 406.926 158.73 406.934C158.878 406.941 158.993 406.951 159.076 406.962V408.587C159.008 408.568 158.887 408.547 158.713 408.525C158.539 408.498 158.364 408.485 158.19 408.485C157.789 408.485 157.431 408.57 157.116 408.741C156.806 408.907 156.559 409.14 156.378 409.44C156.196 409.735 156.105 410.072 156.105 410.451V415.78H154.406ZM163.819 415.957C162.96 415.957 162.219 415.773 161.598 415.405C160.98 415.034 160.503 414.513 160.166 413.843C159.833 413.169 159.666 412.379 159.666 411.474C159.666 410.58 159.833 409.792 160.166 409.11C160.503 408.428 160.973 407.896 161.575 407.513C162.181 407.131 162.89 406.94 163.7 406.94C164.193 406.94 164.67 407.021 165.132 407.184C165.594 407.347 166.009 407.602 166.376 407.951C166.744 408.299 167.033 408.752 167.246 409.309C167.458 409.862 167.564 410.534 167.564 411.326V411.928H160.626V410.655H165.899C165.899 410.208 165.808 409.813 165.626 409.468C165.444 409.119 165.189 408.845 164.859 408.644C164.533 408.443 164.151 408.343 163.712 408.343C163.234 408.343 162.818 408.46 162.462 408.695C162.109 408.926 161.837 409.229 161.643 409.604C161.454 409.976 161.359 410.379 161.359 410.815V411.809C161.359 412.392 161.462 412.888 161.666 413.297C161.874 413.707 162.164 414.019 162.535 414.235C162.907 414.447 163.34 414.553 163.837 414.553C164.158 414.553 164.452 414.508 164.717 414.417C164.982 414.322 165.212 414.182 165.405 413.996C165.598 413.811 165.746 413.582 165.848 413.309L167.456 413.599C167.327 414.072 167.096 414.487 166.763 414.843C166.433 415.195 166.018 415.47 165.518 415.667C165.022 415.86 164.456 415.957 163.819 415.957ZM175.756 407.201C175.695 406.663 175.445 406.246 175.006 405.951C174.566 405.652 174.013 405.502 173.347 405.502C172.869 405.502 172.456 405.578 172.108 405.729C171.759 405.877 171.489 406.082 171.295 406.343C171.106 406.601 171.011 406.894 171.011 407.224C171.011 407.5 171.076 407.739 171.205 407.94C171.337 408.14 171.509 408.309 171.722 408.445C171.937 408.578 172.169 408.69 172.415 408.78C172.661 408.868 172.898 408.94 173.125 408.996L174.261 409.292C174.633 409.383 175.013 409.506 175.403 409.661C175.794 409.816 176.155 410.021 176.489 410.275C176.822 410.529 177.091 410.843 177.295 411.218C177.504 411.593 177.608 412.042 177.608 412.565C177.608 413.224 177.437 413.809 177.097 414.32C176.759 414.832 176.269 415.235 175.625 415.53C174.985 415.826 174.21 415.974 173.301 415.974C172.43 415.974 171.676 415.835 171.04 415.559C170.403 415.282 169.905 414.89 169.545 414.383C169.186 413.871 168.987 413.265 168.949 412.565H170.71C170.744 412.985 170.881 413.335 171.119 413.616C171.362 413.892 171.67 414.099 172.045 414.235C172.424 414.368 172.839 414.434 173.29 414.434C173.786 414.434 174.227 414.356 174.614 414.201C175.004 414.042 175.311 413.822 175.534 413.542C175.758 413.258 175.869 412.926 175.869 412.547C175.869 412.203 175.771 411.921 175.574 411.701C175.381 411.481 175.117 411.299 174.784 411.155C174.455 411.011 174.081 410.885 173.665 410.775L172.29 410.4C171.358 410.146 170.619 409.773 170.074 409.28C169.532 408.788 169.261 408.136 169.261 407.326C169.261 406.655 169.443 406.07 169.807 405.57C170.17 405.07 170.663 404.682 171.284 404.405C171.905 404.125 172.606 403.985 173.386 403.985C174.174 403.985 174.869 404.123 175.472 404.4C176.078 404.676 176.555 405.057 176.903 405.542C177.252 406.023 177.434 406.576 177.449 407.201H175.756ZM183.808 412.008H185.536L186.752 413.593L187.325 414.297L189.263 416.826H187.467L186.172 415.138L185.729 414.525L183.808 412.008ZM189.638 409.962C189.638 411.205 189.411 412.273 188.956 413.167C188.502 414.057 187.878 414.743 187.087 415.224C186.299 415.701 185.403 415.94 184.399 415.94C183.392 415.94 182.492 415.701 181.7 415.224C180.913 414.743 180.291 414.055 179.837 413.161C179.382 412.267 179.155 411.201 179.155 409.962C179.155 408.72 179.382 407.654 179.837 406.763C180.291 405.869 180.913 405.184 181.7 404.707C182.492 404.226 183.392 403.985 184.399 403.985C185.403 403.985 186.299 404.226 187.087 404.707C187.878 405.184 188.502 405.869 188.956 406.763C189.411 407.654 189.638 408.72 189.638 409.962ZM187.899 409.962C187.899 409.015 187.746 408.218 187.439 407.57C187.136 406.919 186.719 406.426 186.189 406.093C185.663 405.756 185.066 405.587 184.399 405.587C183.729 405.587 183.13 405.756 182.604 406.093C182.077 406.426 181.661 406.919 181.354 407.57C181.051 408.218 180.899 409.015 180.899 409.962C180.899 410.909 181.051 411.708 181.354 412.36C181.661 413.008 182.077 413.5 182.604 413.837C183.13 414.171 183.729 414.337 184.399 414.337C185.066 414.337 185.663 414.171 186.189 413.837C186.719 413.5 187.136 413.008 187.439 412.36C187.746 411.708 187.899 410.909 187.899 409.962ZM191.651 415.78V404.144H193.407V414.269H198.679V415.78H191.651ZM207.695 415.951C206.991 415.951 206.362 415.771 205.809 415.411C205.26 415.047 204.828 414.53 204.513 413.86C204.203 413.186 204.047 412.377 204.047 411.434C204.047 410.491 204.205 409.684 204.519 409.013C204.837 408.343 205.273 407.83 205.826 407.474C206.379 407.118 207.006 406.94 207.707 406.94C208.248 406.94 208.684 407.03 209.013 407.212C209.347 407.39 209.604 407.599 209.786 407.837C209.972 408.076 210.116 408.286 210.218 408.468H210.32V404.144H212.019V415.78H210.36V414.422H210.218C210.116 414.608 209.968 414.82 209.775 415.059C209.585 415.297 209.324 415.506 208.991 415.684C208.657 415.862 208.225 415.951 207.695 415.951ZM208.07 414.502C208.559 414.502 208.972 414.373 209.309 414.116C209.65 413.854 209.907 413.493 210.082 413.03C210.26 412.568 210.349 412.03 210.349 411.417C210.349 410.811 210.261 410.28 210.087 409.826C209.913 409.371 209.657 409.017 209.32 408.763C208.983 408.51 208.566 408.383 208.07 408.383C207.559 408.383 207.133 408.515 206.792 408.78C206.451 409.046 206.193 409.407 206.019 409.866C205.849 410.324 205.763 410.841 205.763 411.417C205.763 412 205.85 412.525 206.025 412.991C206.199 413.457 206.457 413.826 206.797 414.099C207.142 414.368 207.566 414.502 208.07 414.502ZM216.807 415.974C216.254 415.974 215.754 415.871 215.307 415.667C214.861 415.458 214.506 415.157 214.245 414.763C213.987 414.369 213.859 413.886 213.859 413.315C213.859 412.822 213.953 412.417 214.143 412.099C214.332 411.78 214.588 411.529 214.91 411.343C215.232 411.157 215.592 411.017 215.989 410.922C216.387 410.828 216.792 410.756 217.205 410.707C217.728 410.646 218.152 410.597 218.478 410.559C218.804 410.517 219.04 410.451 219.188 410.36C219.336 410.269 219.41 410.121 219.41 409.917V409.877C219.41 409.381 219.27 408.996 218.989 408.724C218.713 408.451 218.3 408.315 217.751 408.315C217.179 408.315 216.728 408.441 216.398 408.695C216.073 408.945 215.847 409.224 215.722 409.53L214.126 409.167C214.315 408.636 214.592 408.208 214.955 407.883C215.323 407.553 215.745 407.315 216.222 407.167C216.7 407.015 217.201 406.94 217.728 406.94C218.076 406.94 218.446 406.981 218.836 407.065C219.23 407.144 219.597 407.292 219.938 407.508C220.283 407.724 220.565 408.032 220.785 408.434C221.004 408.832 221.114 409.349 221.114 409.985V415.78H219.455V414.587H219.387C219.277 414.807 219.112 415.023 218.893 415.235C218.673 415.447 218.391 415.623 218.046 415.763C217.701 415.904 217.289 415.974 216.807 415.974ZM217.177 414.61C217.647 414.61 218.048 414.517 218.381 414.332C218.718 414.146 218.974 413.904 219.148 413.604C219.326 413.301 219.415 412.977 219.415 412.633V411.508C219.355 411.568 219.237 411.625 219.063 411.678C218.893 411.727 218.698 411.771 218.478 411.809C218.258 411.843 218.044 411.875 217.836 411.905C217.628 411.932 217.453 411.955 217.313 411.974C216.984 412.015 216.682 412.085 216.41 412.184C216.141 412.282 215.925 412.424 215.762 412.61C215.603 412.792 215.523 413.034 215.523 413.337C215.523 413.758 215.679 414.076 215.989 414.292C216.3 414.504 216.696 414.61 217.177 414.61ZM227.275 407.053V408.417H222.508V407.053H227.275ZM223.786 404.962H225.485V413.218C225.485 413.547 225.534 413.796 225.633 413.962C225.731 414.125 225.858 414.237 226.014 414.297C226.173 414.354 226.345 414.383 226.531 414.383C226.667 414.383 226.786 414.373 226.889 414.354C226.991 414.335 227.07 414.32 227.127 414.309L227.434 415.712C227.336 415.75 227.195 415.788 227.014 415.826C226.832 415.868 226.604 415.89 226.332 415.894C225.885 415.902 225.468 415.822 225.082 415.655C224.695 415.489 224.383 415.231 224.144 414.883C223.906 414.534 223.786 414.097 223.786 413.57V404.962ZM231.518 415.974C230.965 415.974 230.465 415.871 230.018 415.667C229.571 415.458 229.217 415.157 228.955 414.763C228.698 414.369 228.569 413.886 228.569 413.315C228.569 412.822 228.664 412.417 228.853 412.099C229.043 411.78 229.298 411.529 229.62 411.343C229.942 411.157 230.302 411.017 230.7 410.922C231.098 410.828 231.503 410.756 231.916 410.707C232.438 410.646 232.863 410.597 233.188 410.559C233.514 410.517 233.751 410.451 233.899 410.36C234.046 410.269 234.12 410.121 234.12 409.917V409.877C234.12 409.381 233.98 408.996 233.7 408.724C233.423 408.451 233.01 408.315 232.461 408.315C231.889 408.315 231.438 408.441 231.109 408.695C230.783 408.945 230.558 409.224 230.433 409.53L228.836 409.167C229.026 408.636 229.302 408.208 229.666 407.883C230.033 407.553 230.455 407.315 230.933 407.167C231.41 407.015 231.912 406.94 232.438 406.94C232.787 406.94 233.156 406.981 233.546 407.065C233.94 407.144 234.308 407.292 234.649 407.508C234.993 407.724 235.276 408.032 235.495 408.434C235.715 408.832 235.825 409.349 235.825 409.985V415.78H234.166V414.587H234.098C233.988 414.807 233.823 415.023 233.603 415.235C233.384 415.447 233.101 415.623 232.757 415.763C232.412 415.904 231.999 415.974 231.518 415.974ZM231.887 414.61C232.357 414.61 232.759 414.517 233.092 414.332C233.429 414.146 233.685 413.904 233.859 413.604C234.037 413.301 234.126 412.977 234.126 412.633V411.508C234.065 411.568 233.948 411.625 233.774 411.678C233.603 411.727 233.408 411.771 233.188 411.809C232.969 411.843 232.755 411.875 232.546 411.905C232.338 411.932 232.164 411.955 232.024 411.974C231.694 412.015 231.393 412.085 231.12 412.184C230.851 412.282 230.635 412.424 230.473 412.61C230.313 412.792 230.234 413.034 230.234 413.337C230.234 413.758 230.389 414.076 230.7 414.292C231.01 414.504 231.406 414.61 231.887 414.61ZM238.048 415.78V404.144H239.747V408.468H239.849C239.948 408.286 240.09 408.076 240.275 407.837C240.461 407.599 240.718 407.39 241.048 407.212C241.378 407.03 241.813 406.94 242.355 406.94C243.059 406.94 243.688 407.118 244.241 407.474C244.794 407.83 245.228 408.343 245.542 409.013C245.86 409.684 246.02 410.491 246.02 411.434C246.02 412.377 245.862 413.186 245.548 413.86C245.234 414.53 244.802 415.047 244.253 415.411C243.703 415.771 243.076 415.951 242.372 415.951C241.842 415.951 241.408 415.862 241.071 415.684C240.737 415.506 240.476 415.297 240.287 415.059C240.097 414.82 239.951 414.608 239.849 414.422H239.707V415.78H238.048ZM239.713 411.417C239.713 412.03 239.802 412.568 239.98 413.03C240.158 413.493 240.415 413.854 240.753 414.116C241.09 414.373 241.503 414.502 241.991 414.502C242.499 414.502 242.923 414.368 243.264 414.099C243.605 413.826 243.862 413.457 244.037 412.991C244.215 412.525 244.304 412 244.304 411.417C244.304 410.841 244.217 410.324 244.042 409.866C243.872 409.407 243.614 409.046 243.27 408.78C242.929 408.515 242.503 408.383 241.991 408.383C241.499 408.383 241.082 408.51 240.741 408.763C240.404 409.017 240.148 409.371 239.974 409.826C239.8 410.28 239.713 410.811 239.713 411.417ZM250.291 415.974C249.738 415.974 249.238 415.871 248.791 415.667C248.344 415.458 247.99 415.157 247.728 414.763C247.471 414.369 247.342 413.886 247.342 413.315C247.342 412.822 247.437 412.417 247.626 412.099C247.816 411.78 248.071 411.529 248.393 411.343C248.715 411.157 249.075 411.017 249.473 410.922C249.871 410.828 250.276 410.756 250.689 410.707C251.211 410.646 251.636 410.597 251.961 410.559C252.287 410.517 252.524 410.451 252.672 410.36C252.819 410.269 252.893 410.121 252.893 409.917V409.877C252.893 409.381 252.753 408.996 252.473 408.724C252.196 408.451 251.783 408.315 251.234 408.315C250.662 408.315 250.211 408.441 249.882 408.695C249.556 408.945 249.331 409.224 249.206 409.53L247.609 409.167C247.799 408.636 248.075 408.208 248.439 407.883C248.806 407.553 249.228 407.315 249.706 407.167C250.183 407.015 250.685 406.94 251.211 406.94C251.56 406.94 251.929 406.981 252.319 407.065C252.713 407.144 253.081 407.292 253.422 407.508C253.766 407.724 254.049 408.032 254.268 408.434C254.488 408.832 254.598 409.349 254.598 409.985V415.78H252.939V414.587H252.871C252.761 414.807 252.596 415.023 252.376 415.235C252.157 415.447 251.874 415.623 251.53 415.763C251.185 415.904 250.772 415.974 250.291 415.974ZM250.66 414.61C251.13 414.61 251.532 414.517 251.865 414.332C252.202 414.146 252.458 413.904 252.632 413.604C252.81 413.301 252.899 412.977 252.899 412.633V411.508C252.838 411.568 252.721 411.625 252.547 411.678C252.376 411.727 252.181 411.771 251.961 411.809C251.742 411.843 251.528 411.875 251.319 411.905C251.111 411.932 250.937 411.955 250.797 411.974C250.467 412.015 250.166 412.085 249.893 412.184C249.624 412.282 249.408 412.424 249.246 412.61C249.086 412.792 249.007 413.034 249.007 413.337C249.007 413.758 249.162 414.076 249.473 414.292C249.783 414.504 250.179 414.61 250.66 414.61ZM263.224 409.184L261.685 409.457C261.62 409.26 261.518 409.072 261.378 408.894C261.241 408.716 261.056 408.57 260.821 408.457C260.586 408.343 260.293 408.286 259.94 408.286C259.459 408.286 259.058 408.394 258.736 408.61C258.414 408.822 258.253 409.097 258.253 409.434C258.253 409.726 258.361 409.96 258.577 410.138C258.793 410.316 259.141 410.462 259.622 410.576L261.008 410.894C261.811 411.08 262.41 411.366 262.804 411.752C263.198 412.138 263.395 412.64 263.395 413.258C263.395 413.78 263.243 414.246 262.94 414.655C262.641 415.061 262.222 415.379 261.685 415.61C261.15 415.841 260.531 415.957 259.827 415.957C258.849 415.957 258.052 415.748 257.435 415.332C256.817 414.911 256.438 414.315 256.298 413.542L257.94 413.292C258.043 413.72 258.253 414.044 258.571 414.263C258.889 414.479 259.304 414.587 259.815 414.587C260.372 414.587 260.817 414.472 261.15 414.241C261.484 414.006 261.65 413.72 261.65 413.383C261.65 413.11 261.548 412.881 261.344 412.695C261.143 412.51 260.834 412.369 260.418 412.275L258.94 411.951C258.126 411.765 257.524 411.47 257.133 411.065C256.747 410.659 256.554 410.146 256.554 409.525C256.554 409.01 256.698 408.559 256.986 408.172C257.274 407.786 257.671 407.485 258.179 407.269C258.686 407.049 259.268 406.94 259.923 406.94C260.866 406.94 261.609 407.144 262.15 407.553C262.692 407.958 263.05 408.502 263.224 409.184ZM268.848 415.957C267.988 415.957 267.248 415.773 266.626 415.405C266.009 415.034 265.532 414.513 265.195 413.843C264.861 413.169 264.695 412.379 264.695 411.474C264.695 410.58 264.861 409.792 265.195 409.11C265.532 408.428 266.001 407.896 266.604 407.513C267.21 407.131 267.918 406.94 268.729 406.94C269.221 406.94 269.698 407.021 270.161 407.184C270.623 407.347 271.037 407.602 271.405 407.951C271.772 408.299 272.062 408.752 272.274 409.309C272.486 409.862 272.592 410.534 272.592 411.326V411.928H265.655V410.655H270.928C270.928 410.208 270.837 409.813 270.655 409.468C270.473 409.119 270.217 408.845 269.888 408.644C269.562 408.443 269.18 408.343 268.74 408.343C268.263 408.343 267.846 408.46 267.49 408.695C267.138 408.926 266.865 409.229 266.672 409.604C266.483 409.976 266.388 410.379 266.388 410.815V411.809C266.388 412.392 266.49 412.888 266.695 413.297C266.903 413.707 267.193 414.019 267.564 414.235C267.935 414.447 268.369 414.553 268.865 414.553C269.187 414.553 269.481 414.508 269.746 414.417C270.011 414.322 270.24 414.182 270.433 413.996C270.626 413.811 270.774 413.582 270.876 413.309L272.484 413.599C272.356 414.072 272.125 414.487 271.791 414.843C271.462 415.195 271.047 415.47 270.547 415.667C270.051 415.86 269.484 415.957 268.848 415.957ZM280.899 415.974C280.346 415.974 279.846 415.871 279.399 415.667C278.953 415.458 278.598 415.157 278.337 414.763C278.079 414.369 277.951 413.886 277.951 413.315C277.951 412.822 278.045 412.417 278.235 412.099C278.424 411.78 278.68 411.529 279.002 411.343C279.324 411.157 279.684 411.017 280.081 410.922C280.479 410.828 280.884 410.756 281.297 410.707C281.82 410.646 282.244 410.597 282.57 410.559C282.896 410.517 283.132 410.451 283.28 410.36C283.428 410.269 283.502 410.121 283.502 409.917V409.877C283.502 409.381 283.362 408.996 283.081 408.724C282.805 408.451 282.392 408.315 281.843 408.315C281.271 408.315 280.82 408.441 280.49 408.695C280.165 408.945 279.939 409.224 279.814 409.53L278.218 409.167C278.407 408.636 278.684 408.208 279.047 407.883C279.415 407.553 279.837 407.315 280.314 407.167C280.792 407.015 281.293 406.94 281.82 406.94C282.168 406.94 282.538 406.981 282.928 407.065C283.322 407.144 283.689 407.292 284.03 407.508C284.375 407.724 284.657 408.032 284.877 408.434C285.096 408.832 285.206 409.349 285.206 409.985V415.78H283.547V414.587H283.479C283.369 414.807 283.204 415.023 282.985 415.235C282.765 415.447 282.483 415.623 282.138 415.763C281.793 415.904 281.381 415.974 280.899 415.974ZM281.269 414.61C281.739 414.61 282.14 414.517 282.473 414.332C282.81 414.146 283.066 413.904 283.24 413.604C283.418 413.301 283.507 412.977 283.507 412.633V411.508C283.447 411.568 283.329 411.625 283.155 411.678C282.985 411.727 282.79 411.771 282.57 411.809C282.35 411.843 282.136 411.875 281.928 411.905C281.72 411.932 281.545 411.955 281.405 411.974C281.076 412.015 280.774 412.085 280.502 412.184C280.233 412.282 280.017 412.424 279.854 412.61C279.695 412.792 279.615 413.034 279.615 413.337C279.615 413.758 279.771 414.076 280.081 414.292C280.392 414.504 280.788 414.61 281.269 414.61ZM290.56 415.951C289.856 415.951 289.227 415.771 288.674 415.411C288.125 415.047 287.693 414.53 287.378 413.86C287.068 413.186 286.912 412.377 286.912 411.434C286.912 410.491 287.07 409.684 287.384 409.013C287.702 408.343 288.138 407.83 288.691 407.474C289.244 407.118 289.871 406.94 290.572 406.94C291.113 406.94 291.549 407.03 291.878 407.212C292.212 407.39 292.469 407.599 292.651 407.837C292.837 408.076 292.981 408.286 293.083 408.468H293.185V404.144H294.884V415.78H293.225V414.422H293.083C292.981 414.608 292.833 414.82 292.64 415.059C292.45 415.297 292.189 415.506 291.856 415.684C291.522 415.862 291.09 415.951 290.56 415.951ZM290.935 414.502C291.424 414.502 291.837 414.373 292.174 414.116C292.515 413.854 292.772 413.493 292.947 413.03C293.125 412.568 293.214 412.03 293.214 411.417C293.214 410.811 293.126 410.28 292.952 409.826C292.778 409.371 292.522 409.017 292.185 408.763C291.848 408.51 291.431 408.383 290.935 408.383C290.424 408.383 289.998 408.515 289.657 408.78C289.316 409.046 289.058 409.407 288.884 409.866C288.714 410.324 288.628 410.841 288.628 411.417C288.628 412 288.715 412.525 288.89 412.991C289.064 413.457 289.322 413.826 289.662 414.099C290.007 414.368 290.431 414.502 290.935 414.502ZM299.672 415.974C299.119 415.974 298.619 415.871 298.172 415.667C297.726 415.458 297.371 415.157 297.11 414.763C296.852 414.369 296.724 413.886 296.724 413.315C296.724 412.822 296.818 412.417 297.008 412.099C297.197 411.78 297.453 411.529 297.775 411.343C298.097 411.157 298.457 411.017 298.854 410.922C299.252 410.828 299.657 410.756 300.07 410.707C300.593 410.646 301.017 410.597 301.343 410.559C301.669 410.517 301.905 410.451 302.053 410.36C302.201 410.269 302.275 410.121 302.275 409.917V409.877C302.275 409.381 302.135 408.996 301.854 408.724C301.578 408.451 301.165 408.315 300.616 408.315C300.044 408.315 299.593 408.441 299.263 408.695C298.938 408.945 298.712 409.224 298.587 409.53L296.991 409.167C297.18 408.636 297.457 408.208 297.82 407.883C298.188 407.553 298.61 407.315 299.087 407.167C299.565 407.015 300.066 406.94 300.593 406.94C300.941 406.94 301.311 406.981 301.701 407.065C302.095 407.144 302.462 407.292 302.803 407.508C303.148 407.724 303.43 408.032 303.65 408.434C303.869 408.832 303.979 409.349 303.979 409.985V415.78H302.32V414.587H302.252C302.142 414.807 301.977 415.023 301.758 415.235C301.538 415.447 301.256 415.623 300.911 415.763C300.566 415.904 300.154 415.974 299.672 415.974ZM300.042 414.61C300.512 414.61 300.913 414.517 301.246 414.332C301.583 414.146 301.839 413.904 302.013 413.604C302.191 413.301 302.28 412.977 302.28 412.633V411.508C302.22 411.568 302.102 411.625 301.928 411.678C301.758 411.727 301.563 411.771 301.343 411.809C301.123 411.843 300.909 411.875 300.701 411.905C300.493 411.932 300.318 411.955 300.178 411.974C299.849 412.015 299.547 412.085 299.275 412.184C299.006 412.282 298.79 412.424 298.627 412.61C298.468 412.792 298.388 413.034 298.388 413.337C298.388 413.758 298.544 414.076 298.854 414.292C299.165 414.504 299.561 414.61 300.042 414.61ZM306.066 419.053V407.053H307.725V408.468H307.867C307.966 408.286 308.108 408.076 308.293 407.837C308.479 407.599 308.737 407.39 309.066 407.212C309.396 407.03 309.831 406.94 310.373 406.94C311.077 406.94 311.706 407.118 312.259 407.474C312.812 407.83 313.246 408.343 313.56 409.013C313.879 409.684 314.038 410.491 314.038 411.434C314.038 412.377 313.88 413.186 313.566 413.86C313.252 414.53 312.82 415.047 312.271 415.411C311.721 415.771 311.094 415.951 310.39 415.951C309.86 415.951 309.426 415.862 309.089 415.684C308.755 415.506 308.494 415.297 308.305 415.059C308.115 414.82 307.969 414.608 307.867 414.422H307.765V419.053H306.066ZM307.731 411.417C307.731 412.03 307.82 412.568 307.998 413.03C308.176 413.493 308.434 413.854 308.771 414.116C309.108 414.373 309.521 414.502 310.009 414.502C310.517 414.502 310.941 414.368 311.282 414.099C311.623 413.826 311.88 413.457 312.055 412.991C312.233 412.525 312.322 412 312.322 411.417C312.322 410.841 312.235 410.324 312.06 409.866C311.89 409.407 311.632 409.046 311.288 408.78C310.947 408.515 310.521 408.383 310.009 408.383C309.517 408.383 309.1 408.51 308.759 408.763C308.422 409.017 308.166 409.371 307.992 409.826C307.818 410.28 307.731 410.811 307.731 411.417ZM319.839 407.053V408.417H315.072V407.053H319.839ZM316.35 404.962H318.049V413.218C318.049 413.547 318.098 413.796 318.197 413.962C318.295 414.125 318.422 414.237 318.578 414.297C318.737 414.354 318.909 414.383 319.095 414.383C319.231 414.383 319.35 414.373 319.453 414.354C319.555 414.335 319.634 414.32 319.691 414.309L319.998 415.712C319.9 415.75 319.759 415.788 319.578 415.826C319.396 415.868 319.169 415.89 318.896 415.894C318.449 415.902 318.032 415.822 317.646 415.655C317.259 415.489 316.947 415.231 316.708 414.883C316.47 414.534 316.35 414.097 316.35 413.57V404.962ZM325.21 415.957C324.35 415.957 323.609 415.773 322.988 415.405C322.371 415.034 321.894 414.513 321.556 413.843C321.223 413.169 321.056 412.379 321.056 411.474C321.056 410.58 321.223 409.792 321.556 409.11C321.894 408.428 322.363 407.896 322.966 407.513C323.572 407.131 324.28 406.94 325.091 406.94C325.583 406.94 326.06 407.021 326.522 407.184C326.984 407.347 327.399 407.602 327.767 407.951C328.134 408.299 328.424 408.752 328.636 409.309C328.848 409.862 328.954 410.534 328.954 411.326V411.928H322.017V410.655H327.289C327.289 410.208 327.198 409.813 327.017 409.468C326.835 409.119 326.579 408.845 326.25 408.644C325.924 408.443 325.541 408.343 325.102 408.343C324.625 408.343 324.208 408.46 323.852 408.695C323.5 408.926 323.227 409.229 323.034 409.604C322.844 409.976 322.75 410.379 322.75 410.815V411.809C322.75 412.392 322.852 412.888 323.056 413.297C323.265 413.707 323.555 414.019 323.926 414.235C324.297 414.447 324.731 414.553 325.227 414.553C325.549 414.553 325.842 414.508 326.108 414.417C326.373 414.322 326.602 414.182 326.795 413.996C326.988 413.811 327.136 413.582 327.238 413.309L328.846 413.599C328.717 414.072 328.486 414.487 328.153 414.843C327.823 415.195 327.409 415.47 326.909 415.667C326.412 415.86 325.846 415.957 325.21 415.957ZM330.663 415.78V407.053H332.305V408.44H332.396C332.555 407.97 332.835 407.601 333.237 407.332C333.642 407.059 334.101 406.922 334.612 406.922C334.718 406.922 334.843 406.926 334.987 406.934C335.135 406.941 335.25 406.951 335.334 406.962V408.587C335.265 408.568 335.144 408.547 334.97 408.525C334.796 408.498 334.621 408.485 334.447 408.485C334.046 408.485 333.688 408.57 333.373 408.741C333.063 408.907 332.816 409.14 332.635 409.44C332.453 409.735 332.362 410.072 332.362 410.451V415.78H330.663ZM341.18 410.951C341.18 409.527 341.368 408.216 341.743 407.019C342.118 405.822 342.665 404.718 343.385 403.707H344.942C344.661 404.082 344.4 404.542 344.158 405.087C343.915 405.633 343.703 406.231 343.521 406.883C343.34 407.53 343.197 408.203 343.095 408.9C342.993 409.593 342.942 410.277 342.942 410.951C342.942 411.852 343.031 412.765 343.209 413.69C343.387 414.614 343.627 415.472 343.93 416.263C344.233 417.055 344.571 417.701 344.942 418.201H343.385C342.665 417.19 342.118 416.085 341.743 414.888C341.368 413.691 341.18 412.379 341.18 410.951ZM346.557 419.053V407.053H348.216V408.468H348.358C348.457 408.286 348.599 408.076 348.784 407.837C348.97 407.599 349.227 407.39 349.557 407.212C349.887 407.03 350.322 406.94 350.864 406.94C351.568 406.94 352.197 407.118 352.75 407.474C353.303 407.83 353.737 408.343 354.051 409.013C354.369 409.684 354.529 410.491 354.529 411.434C354.529 412.377 354.371 413.186 354.057 413.86C353.743 414.53 353.311 415.047 352.762 415.411C352.212 415.771 351.585 415.951 350.881 415.951C350.351 415.951 349.917 415.862 349.58 415.684C349.246 415.506 348.985 415.297 348.796 415.059C348.606 414.82 348.46 414.608 348.358 414.422H348.256V419.053H346.557ZM348.222 411.417C348.222 412.03 348.311 412.568 348.489 413.03C348.667 413.493 348.924 413.854 349.262 414.116C349.599 414.373 350.012 414.502 350.5 414.502C351.008 414.502 351.432 414.368 351.773 414.099C352.114 413.826 352.371 413.457 352.546 412.991C352.724 412.525 352.813 412 352.813 411.417C352.813 410.841 352.726 410.324 352.551 409.866C352.381 409.407 352.123 409.046 351.779 408.78C351.438 408.515 351.012 408.383 350.5 408.383C350.008 408.383 349.591 408.51 349.25 408.763C348.913 409.017 348.657 409.371 348.483 409.826C348.309 410.28 348.222 410.811 348.222 411.417ZM362.796 409.184L361.256 409.457C361.192 409.26 361.089 409.072 360.949 408.894C360.813 408.716 360.627 408.57 360.392 408.457C360.157 408.343 359.864 408.286 359.512 408.286C359.031 408.286 358.629 408.394 358.307 408.61C357.985 408.822 357.824 409.097 357.824 409.434C357.824 409.726 357.932 409.96 358.148 410.138C358.364 410.316 358.712 410.462 359.193 410.576L360.58 410.894C361.383 411.08 361.981 411.366 362.375 411.752C362.769 412.138 362.966 412.64 362.966 413.258C362.966 413.78 362.815 414.246 362.512 414.655C362.212 415.061 361.794 415.379 361.256 415.61C360.722 415.841 360.103 415.957 359.398 415.957C358.421 415.957 357.623 415.748 357.006 415.332C356.389 414.911 356.01 414.315 355.87 413.542L357.512 413.292C357.614 413.72 357.824 414.044 358.142 414.263C358.461 414.479 358.875 414.587 359.387 414.587C359.943 414.587 360.389 414.472 360.722 414.241C361.055 414.006 361.222 413.72 361.222 413.383C361.222 413.11 361.12 412.881 360.915 412.695C360.714 412.51 360.406 412.369 359.989 412.275L358.512 411.951C357.697 411.765 357.095 411.47 356.705 411.065C356.318 410.659 356.125 410.146 356.125 409.525C356.125 409.01 356.269 408.559 356.557 408.172C356.845 407.786 357.243 407.485 357.75 407.269C358.258 407.049 358.839 406.94 359.495 406.94C360.438 406.94 361.18 407.144 361.722 407.553C362.264 407.958 362.621 408.502 362.796 409.184ZM365.732 419.053C365.478 419.053 365.247 419.032 365.039 418.991C364.83 418.953 364.675 418.911 364.573 418.866L364.982 417.474C365.293 417.557 365.569 417.593 365.812 417.582C366.054 417.57 366.268 417.479 366.454 417.309C366.643 417.138 366.81 416.86 366.954 416.474L367.164 415.894L363.971 407.053H365.789L367.999 413.826H368.09L370.3 407.053H372.124L368.527 416.945C368.361 417.4 368.149 417.784 367.891 418.099C367.633 418.417 367.327 418.655 366.971 418.815C366.615 418.974 366.202 419.053 365.732 419.053ZM376.924 415.957C376.079 415.957 375.352 415.765 374.742 415.383C374.136 414.996 373.67 414.464 373.344 413.786C373.019 413.108 372.856 412.332 372.856 411.457C372.856 410.57 373.022 409.788 373.356 409.11C373.689 408.428 374.159 407.896 374.765 407.513C375.371 407.131 376.085 406.94 376.907 406.94C377.57 406.94 378.161 407.063 378.68 407.309C379.198 407.551 379.617 407.892 379.935 408.332C380.257 408.771 380.448 409.284 380.509 409.871H378.856C378.765 409.462 378.556 409.11 378.231 408.815C377.909 408.519 377.477 408.371 376.935 408.371C376.462 408.371 376.047 408.496 375.691 408.746C375.339 408.993 375.064 409.345 374.867 409.803C374.67 410.258 374.572 410.796 374.572 411.417C374.572 412.053 374.668 412.602 374.861 413.065C375.055 413.527 375.327 413.885 375.68 414.138C376.036 414.392 376.454 414.519 376.935 414.519C377.257 414.519 377.549 414.46 377.81 414.343C378.075 414.222 378.297 414.049 378.475 413.826C378.657 413.602 378.784 413.333 378.856 413.019H380.509C380.448 413.583 380.265 414.087 379.958 414.53C379.651 414.974 379.24 415.322 378.725 415.576C378.214 415.83 377.613 415.957 376.924 415.957ZM385.826 415.957C385.008 415.957 384.294 415.769 383.684 415.394C383.074 415.019 382.601 414.494 382.263 413.82C381.926 413.146 381.758 412.358 381.758 411.457C381.758 410.551 381.926 409.76 382.263 409.082C382.601 408.404 383.074 407.877 383.684 407.502C384.294 407.127 385.008 406.94 385.826 406.94C386.644 406.94 387.358 407.127 387.968 407.502C388.578 407.877 389.051 408.404 389.388 409.082C389.726 409.76 389.894 410.551 389.894 411.457C389.894 412.358 389.726 413.146 389.388 413.82C389.051 414.494 388.578 415.019 387.968 415.394C387.358 415.769 386.644 415.957 385.826 415.957ZM385.832 414.53C386.362 414.53 386.801 414.39 387.15 414.11C387.498 413.83 387.756 413.457 387.923 412.991C388.093 412.525 388.178 412.011 388.178 411.451C388.178 410.894 388.093 410.383 387.923 409.917C387.756 409.447 387.498 409.07 387.15 408.786C386.801 408.502 386.362 408.36 385.832 408.36C385.298 408.36 384.854 408.502 384.502 408.786C384.154 409.07 383.894 409.447 383.724 409.917C383.557 410.383 383.474 410.894 383.474 411.451C383.474 412.011 383.557 412.525 383.724 412.991C383.894 413.457 384.154 413.83 384.502 414.11C384.854 414.39 385.298 414.53 385.832 414.53ZM391.614 419.053V407.053H393.274V408.468H393.416C393.514 408.286 393.656 408.076 393.842 407.837C394.027 407.599 394.285 407.39 394.614 407.212C394.944 407.03 395.38 406.94 395.921 406.94C396.626 406.94 397.255 407.118 397.808 407.474C398.361 407.83 398.794 408.343 399.109 409.013C399.427 409.684 399.586 410.491 399.586 411.434C399.586 412.377 399.429 413.186 399.114 413.86C398.8 414.53 398.368 415.047 397.819 415.411C397.27 415.771 396.643 415.951 395.938 415.951C395.408 415.951 394.974 415.862 394.637 415.684C394.304 415.506 394.042 415.297 393.853 415.059C393.664 414.82 393.518 414.608 393.416 414.422H393.313V419.053H391.614ZM393.279 411.417C393.279 412.03 393.368 412.568 393.546 413.03C393.724 413.493 393.982 413.854 394.319 414.116C394.656 414.373 395.069 414.502 395.558 414.502C396.065 414.502 396.489 414.368 396.83 414.099C397.171 413.826 397.429 413.457 397.603 412.991C397.781 412.525 397.87 412 397.87 411.417C397.87 410.841 397.783 410.324 397.609 409.866C397.438 409.407 397.181 409.046 396.836 408.78C396.495 408.515 396.069 408.383 395.558 408.383C395.065 408.383 394.649 408.51 394.308 408.763C393.971 409.017 393.715 409.371 393.541 409.826C393.366 410.28 393.279 410.811 393.279 411.417ZM404.973 419.235C404.279 419.235 403.683 419.144 403.183 418.962C402.687 418.78 402.281 418.54 401.967 418.241C401.652 417.941 401.418 417.614 401.262 417.258L402.723 416.655C402.825 416.822 402.961 416.998 403.132 417.184C403.306 417.373 403.541 417.534 403.836 417.667C404.135 417.799 404.52 417.866 404.99 417.866C405.634 417.866 406.166 417.708 406.586 417.394C407.007 417.083 407.217 416.587 407.217 415.905V414.19H407.109C407.007 414.375 406.859 414.582 406.666 414.809C406.476 415.036 406.215 415.233 405.882 415.4C405.548 415.566 405.115 415.65 404.581 415.65C403.891 415.65 403.27 415.489 402.717 415.167C402.168 414.841 401.732 414.362 401.41 413.729C401.092 413.093 400.933 412.311 400.933 411.383C400.933 410.455 401.09 409.659 401.404 408.996C401.723 408.333 402.158 407.826 402.711 407.474C403.264 407.118 403.891 406.94 404.592 406.94C405.134 406.94 405.571 407.03 405.904 407.212C406.238 407.39 406.497 407.599 406.683 407.837C406.872 408.076 407.018 408.286 407.12 408.468H407.245V407.053H408.91V415.974C408.91 416.724 408.736 417.339 408.387 417.82C408.039 418.301 407.567 418.657 406.973 418.888C406.382 419.119 405.715 419.235 404.973 419.235ZM404.956 414.241C405.444 414.241 405.857 414.127 406.194 413.9C406.535 413.669 406.793 413.339 406.967 412.911C407.145 412.479 407.234 411.962 407.234 411.36C407.234 410.773 407.147 410.256 406.973 409.809C406.798 409.362 406.543 409.013 406.206 408.763C405.868 408.51 405.452 408.383 404.956 408.383C404.444 408.383 404.018 408.515 403.677 408.78C403.336 409.042 403.079 409.398 402.904 409.849C402.734 410.299 402.649 410.803 402.649 411.36C402.649 411.932 402.736 412.434 402.91 412.866C403.084 413.297 403.342 413.635 403.683 413.877C404.027 414.119 404.452 414.241 404.956 414.241ZM414.28 410.951C414.28 412.379 414.092 413.691 413.717 414.888C413.342 416.085 412.795 417.19 412.075 418.201H410.518C410.798 417.826 411.06 417.366 411.302 416.82C411.545 416.275 411.757 415.678 411.939 415.03C412.12 414.379 412.262 413.705 412.365 413.008C412.467 412.311 412.518 411.625 412.518 410.951C412.518 410.053 412.429 409.142 412.251 408.218C412.073 407.294 411.833 406.436 411.53 405.644C411.226 404.852 410.889 404.207 410.518 403.707H412.075C412.795 404.718 413.342 405.822 413.717 407.019C414.092 408.216 414.28 409.527 414.28 410.951Z" fill="black" fill-opacity="0.8"/>
</svg>
