<svg xmlns="http://www.w3.org/2000/svg" xmlns:xlink="http://www.w3.org/1999/xlink" xmlns:lucid="lucid" width="1280" height="724.76"><g transform="translate(535.8763047339307 -108.87749949765089)" lucid:page-tab-id="gDznHQ0gG6NC"><path d="M-515.88 128.88h577.5v34.36h-577.5z" stroke="#000" stroke-opacity="0" stroke-width="2" fill-opacity="0"/><use xlink:href="#a" transform="matrix(1,0,0,1,-509.87630473393074,134.8774994976509) translate(7 17.77777777777778)"/><path d="M-515.88 165.88v-39h360l13 35.42M-515.88 165.85v1.03" stroke="#3a414a" stroke-width="2" fill="none"/><path d="M-141.46 163.24h-2.13l-.22-.62 1.88-.7z" stroke="#3a414a" stroke-width=".05" fill="#3a414a"/><path d="M-515.88 163.24h1240v650.4h-1240z" stroke="#333" stroke-width="2" fill-opacity="0"/><path d="M-381.9 187.74h500v195h-500z" stroke="#333" stroke-width="2" fill-opacity="0"/><path d="M-381.9 251.74h500m-500 40.17h500" stroke="#333" stroke-width="2" fill="none"/><use xlink:href="#b" transform="matrix(1,0,0,1,-373.90360029152,195.74135000881074) translate(187.23456790123458 14.222222222222218)"/><use xlink:href="#c" transform="matrix(1,0,0,1,-373.90360029152,195.74135000881074) translate(166.10493827160494 39.11111111111111)"/><use xlink:href="#d" transform="matrix(1,0,0,1,-369.90360029152,299.9080166754774) translate(0 28.611111111111114)"/><use xlink:href="#e" transform="matrix(1,0,0,1,-369.90360029152,299.9080166754774) translate(19.1358024691358 28.611111111111114)"/><use xlink:href="#f" transform="matrix(1,0,0,1,-369.90360029152,299.9080166754774) translate(130.06172839506172 28.611111111111114)"/><use xlink:href="#d" transform="matrix(1,0,0,1,-369.90360029152,299.9080166754774) translate(0 55.27777777777778)"/><use xlink:href="#g" transform="matrix(1,0,0,1,-369.90360029152,299.9080166754774) translate(19.1358024691358 55.27777777777778)"/><use xlink:href="#h" transform="matrix(1,0,0,1,-369.90360029152,299.9080166754774) translate(195.55555555555554 55.27777777777778)"/><path d="M-381.9 589.12h500v198h-500z" stroke="#333" stroke-width="2" fill-opacity="0"/><path d="M-381.9 631.78h500m-500 64.17h500" stroke="#333" stroke-width="2" fill="none"/><use xlink:href="#i" transform="matrix(1,0,0,1,-373.90360029152,597.1163500088107) translate(211.84567901234567 17.944444444444443)"/><use xlink:href="#j" transform="matrix(1,0,0,1,-369.90360029152,639.7830166754774) translate(0 28.944444444444443)"/><use xlink:href="#k" transform="matrix(1,0,0,1,-369.90360029152,639.7830166754774) translate(13.518518518518519 28.944444444444443)"/><use xlink:href="#l" transform="matrix(1,0,0,1,-369.90360029152,639.7830166754774) translate(120.92592592592592 28.944444444444443)"/><use xlink:href="#d" transform="matrix(1,0,0,1,-369.90360029152,703.949683342144) translate(0 28.611111111111114)"/><use xlink:href="#m" transform="matrix(1,0,0,1,-369.90360029152,703.949683342144) translate(19.1358024691358 28.611111111111114)"/><use xlink:href="#f" transform="matrix(1,0,0,1,-369.90360029152,703.949683342144) translate(136.23456790123456 28.611111111111114)"/><use xlink:href="#d" transform="matrix(1,0,0,1,-369.90360029152,703.949683342144) translate(0 55.27777777777778)"/><use xlink:href="#g" transform="matrix(1,0,0,1,-369.90360029152,703.949683342144) translate(19.1358024691358 55.27777777777778)"/><use xlink:href="#h" transform="matrix(1,0,0,1,-369.90360029152,703.949683342144) translate(195.55555555555554 55.27777777777778)"/><path d="M-130.9 587.12h-2v-19.88h2zm0-39.76h-2v-2.13h2zm0-23.46h-2v-16.3h2zm0-36.17h-2v-39.75h2zm0-59.63h-2v-19.88h2z" stroke="#3a414a" stroke-width=".05" fill="#3a414a"/><path d="M-130.9 588.12h-2v-1.03h2z" fill="#3a414a"/><path d="M-130.88 588.14h-2.05v-1.07h2.05zm-2-1.02v.97h1.95v-.98z" stroke="#3a414a" stroke-width=".05" fill="#3a414a"/><path d="M-119.18 407.22h-25.45l12.73-21.5z" fill="#fff"/><path d="M-117.42 408.22h-28.96l14.48-24.48zm-25.46-2h21.95l-10.97-18.55z" stroke="#3a414a" stroke-width=".05" fill="#3a414a"/><use xlink:href="#n" transform="matrix(1,0,0,1,-178.74310646435947,523.8981586470724) translate(0 14.222222222222218)"/><path d="M158.1 394.62h500v224h-500z" stroke="#333" stroke-width="2" fill-opacity="0"/><path d="M158.1 437.28h500m-500 90.84h500" stroke="#333" stroke-width="2" fill="none"/><use xlink:href="#o" transform="matrix(1,0,0,1,166.09639970848002,402.61635000881074) translate(193.2962962962963 17.944444444444443)"/><use xlink:href="#j" transform="matrix(1,0,0,1,170.09639970848002,445.2830166754774) translate(0 28.611111111111114)"/><use xlink:href="#p" transform="matrix(1,0,0,1,170.09639970848002,445.2830166754774) translate(13.518518518518519 28.611111111111114)"/><use xlink:href="#q" transform="matrix(1,0,0,1,170.09639970848002,445.2830166754774) translate(118.39506172839506 28.611111111111114)"/><use xlink:href="#j" transform="matrix(1,0,0,1,170.09639970848002,445.2830166754774) translate(0 55.27777777777778)"/><use xlink:href="#r" transform="matrix(1,0,0,1,170.09639970848002,445.2830166754774) translate(13.518518518518519 55.27777777777778)"/><use xlink:href="#s" transform="matrix(1,0,0,1,170.09639970848002,445.2830166754774) translate(108.45679012345678 55.27777777777778)"/><use xlink:href="#t" transform="matrix(1,0,0,1,170.09639970848002,445.2830166754774) translate(321.4814814814814 55.27777777777778)"/><g><use xlink:href="#d" transform="matrix(1,0,0,1,170.09639970848002,536.1163500088107) translate(0 28.611111111111114)"/><use xlink:href="#e" transform="matrix(1,0,0,1,170.09639970848002,536.1163500088107) translate(19.1358024691358 28.611111111111114)"/><use xlink:href="#f" transform="matrix(1,0,0,1,170.09639970848002,536.1163500088107) translate(130.06172839506172 28.611111111111114)"/><use xlink:href="#d" transform="matrix(1,0,0,1,170.09639970848002,536.1163500088107) translate(0 55.27777777777778)"/><use xlink:href="#g" transform="matrix(1,0,0,1,170.09639970848002,536.1163500088107) translate(19.1358024691358 55.27777777777778)"/><use xlink:href="#h" transform="matrix(1,0,0,1,170.09639970848002,536.1163500088107) translate(195.55555555555554 55.27777777777778)"/></g><path d="M156.1 507.62h-18.8v-2h18.8zm-37.6 0H80.9v-2h37.6zm-169.2 0h-37.6v-2h37.6zm-80.2-7.04l.06.82.18.76.3.72.4.67.52.6.6.5.67.42.72.3.77.18.82.07h18.76v2h-18.84l-1.06-.1-1.07-.24-1-.42-.95-.58-.84-.7-.7-.85-.58-.93-.42-1.02-.26-1.07-.08-1.04v-15.44h2zm193 7.04H45.62v-2H62.1zm-193-37.8h-2v-30.8h2zm0-46.2h-2v-15.4h2z" stroke="#3a414a" stroke-width=".05" fill="#3a414a"/><path d="M157.1 507.62h-1.03v-2h1.03z" fill="#3a414a"/><path d="M157.12 507.64h-1.07v-2.05h1.07zm-1.02-2v1.95h.97v-1.96z" stroke="#3a414a" stroke-width=".05" fill="#3a414a"/><path d="M-119.18 407.22h-25.45l12.73-21.5z" fill="#fff"/><path d="M-117.42 408.22h-28.96l14.48-24.48zm-25.46-2h21.95l-10.97-18.55z" stroke="#3a414a" stroke-width=".05" fill="#3a414a"/><g><use xlink:href="#n" transform="matrix(1,0,0,1,-48.064385096320876,495.94968334214406) translate(0 14.222222222222218)"/></g><path d="M120.1 285.24h282a6 6 0 0 1 6 6v71.63" stroke="#3a414a" stroke-width="2" fill="none"/><path d="M120.12 286.24h-1.02v-2h1.02z" stroke="#3a414a" stroke-width=".05" fill="#3a414a"/><path d="M408.1 392.2l-14.85-14.85 14.85-15.15 14.85 15.15z" stroke="#3a414a" stroke-width="2" fill="#3a414a"/><g><use xlink:href="#u" transform="matrix(1,0,0,1,122.6367807920428,289.24135000881074) translate(0 14.4)"/></g><g><use xlink:href="#v" transform="matrix(1,0,0,1,125.08406609665266,259.6413500088107) translate(0 14.4)"/></g><g><use xlink:href="#w" transform="matrix(1,0,0,1,432.09639970848,368.6716424457922) translate(0 14.4)"/></g><defs><path d="M115-194c53 0 69 39 70 98 0 66-23 100-70 100C84 3 66-7 56-30L54 0H23l1-261h32v101c10-23 28-34 59-34zm-8 174c40 0 45-34 45-75 0-40-5-75-45-74-42 0-51 32-51 76 0 43 10 73 51 73" id="x"/><path d="M141-36C126-15 110 5 73 4 37 3 15-17 15-53c-1-64 63-63 125-63 3-35-9-54-41-54-24 1-41 7-42 31l-33-3c5-37 33-52 76-52 45 0 72 20 72 64v82c-1 20 7 32 28 27v20c-31 9-61-2-59-35zM48-53c0 20 12 33 32 33 41-3 63-29 60-74-43 2-92-5-92 41" id="y"/><path d="M96-169c-40 0-48 33-48 73s9 75 48 75c24 0 41-14 43-38l32 2c-6 37-31 61-74 61-59 0-76-41-82-99-10-93 101-131 147-64 4 7 5 14 7 22l-32 3c-4-21-16-35-41-35" id="z"/><path d="M143 0L79-87 56-68V0H24v-261h32v163l83-92h37l-77 82L181 0h-38" id="A"/><path d="M100-194c63 0 86 42 84 106H49c0 40 14 67 53 68 26 1 43-12 49-29l28 8c-11 28-37 45-77 45C44 4 14-33 15-96c1-61 26-98 85-98zm52 81c6-60-76-77-97-28-3 7-6 17-6 28h103" id="B"/><path d="M117-194c89-4 53 116 60 194h-32v-121c0-31-8-49-39-48C34-167 62-67 57 0H25l-1-190h30c1 10-1 24 2 32 11-22 29-35 61-36" id="C"/><path d="M85-194c31 0 48 13 60 33l-1-100h32l1 261h-30c-2-10 0-23-3-31C134-8 116 4 85 4 32 4 16-35 15-94c0-66 23-100 70-100zm9 24c-40 0-46 34-46 75 0 40 6 74 45 74 42 0 51-32 51-76 0-42-9-74-50-73" id="D"/><path d="M33 0v-38h34V0H33" id="E"/><path d="M210-169c-67 3-38 105-44 169h-31v-121c0-29-5-50-35-48C34-165 62-65 56 0H25l-1-190h30c1 10-1 24 2 32 10-44 99-50 107 0 11-21 27-35 58-36 85-2 47 119 55 194h-31v-121c0-29-5-49-35-48" id="F"/><path d="M100-194c62-1 85 37 85 99 1 63-27 99-86 99S16-35 15-95c0-66 28-99 85-99zM99-20c44 1 53-31 53-75 0-43-8-75-51-75s-53 32-53 75 10 74 51 75" id="G"/><path d="M24 0v-261h32V0H24" id="H"/><path d="M135-143c-3-34-86-38-87 0 15 53 115 12 119 90S17 21 10-45l28-5c4 36 97 45 98 0-10-56-113-15-118-90-4-57 82-63 122-42 12 7 21 19 24 35" id="I"/><path d="M84 4C-5 8 30-112 23-190h32v120c0 31 7 50 39 49 72-2 45-101 50-169h31l1 190h-30c-1-10 1-25-2-33-11 22-28 36-60 37" id="J"/><path d="M115-194c55 1 70 41 70 98S169 2 115 4C84 4 66-9 55-30l1 105H24l-1-265h31l2 30c10-21 28-34 59-34zm-8 174c40 0 45-34 45-75s-6-73-45-74c-42 0-51 32-51 76 0 43 10 73 51 73" id="K"/><path d="M177-190C167-65 218 103 67 71c-23-6-38-20-44-43l32-5c15 47 100 32 89-28v-30C133-14 115 1 83 1 29 1 15-40 15-95c0-56 16-97 71-98 29-1 48 16 59 35 1-10 0-23 2-32h30zM94-22c36 0 50-32 50-73 0-42-14-75-50-75-39 0-46 34-46 75s6 73 46 73" id="L"/><path d="M24-231v-30h32v30H24zM24 0v-190h32V0H24" id="M"/><g id="a"><use transform="matrix(0.06172839506172839,0,0,0.06172839506172839,0,0)" xlink:href="#x"/><use transform="matrix(0.06172839506172839,0,0,0.06172839506172839,12.345679012345679,0)" xlink:href="#y"/><use transform="matrix(0.06172839506172839,0,0,0.06172839506172839,24.691358024691358,0)" xlink:href="#z"/><use transform="matrix(0.06172839506172839,0,0,0.06172839506172839,35.80246913580247,0)" xlink:href="#A"/><use transform="matrix(0.06172839506172839,0,0,0.06172839506172839,46.91358024691358,0)" xlink:href="#B"/><use transform="matrix(0.06172839506172839,0,0,0.06172839506172839,59.25925925925926,0)" xlink:href="#C"/><use transform="matrix(0.06172839506172839,0,0,0.06172839506172839,71.60493827160494,0)" xlink:href="#D"/><use transform="matrix(0.06172839506172839,0,0,0.06172839506172839,83.95061728395062,0)" xlink:href="#E"/><use transform="matrix(0.06172839506172839,0,0,0.06172839506172839,90.12345679012346,0)" xlink:href="#F"/><use transform="matrix(0.06172839506172839,0,0,0.06172839506172839,108.58024691358024,0)" xlink:href="#G"/><use transform="matrix(0.06172839506172839,0,0,0.06172839506172839,120.92592592592592,0)" xlink:href="#D"/><use transform="matrix(0.06172839506172839,0,0,0.06172839506172839,133.2716049382716,0)" xlink:href="#B"/><use transform="matrix(0.06172839506172839,0,0,0.06172839506172839,145.61728395061726,0)" xlink:href="#H"/><use transform="matrix(0.06172839506172839,0,0,0.06172839506172839,150.4938271604938,0)" xlink:href="#I"/><use transform="matrix(0.06172839506172839,0,0,0.06172839506172839,161.6049382716049,0)" xlink:href="#E"/><use transform="matrix(0.06172839506172839,0,0,0.06172839506172839,167.77777777777774,0)" xlink:href="#I"/><use transform="matrix(0.06172839506172839,0,0,0.06172839506172839,178.88888888888886,0)" xlink:href="#J"/><use transform="matrix(0.06172839506172839,0,0,0.06172839506172839,191.23456790123453,0)" xlink:href="#x"/><use transform="matrix(0.06172839506172839,0,0,0.06172839506172839,203.5802469135802,0)" xlink:href="#I"/><use transform="matrix(0.06172839506172839,0,0,0.06172839506172839,214.6913580246913,0)" xlink:href="#K"/><use transform="matrix(0.06172839506172839,0,0,0.06172839506172839,227.03703703703698,0)" xlink:href="#y"/><use transform="matrix(0.06172839506172839,0,0,0.06172839506172839,239.38271604938265,0)" xlink:href="#z"/><use transform="matrix(0.06172839506172839,0,0,0.06172839506172839,250.49382716049377,0)" xlink:href="#B"/><use transform="matrix(0.06172839506172839,0,0,0.06172839506172839,262.83950617283944,0)" xlink:href="#H"/><use transform="matrix(0.06172839506172839,0,0,0.06172839506172839,267.716049382716,0)" xlink:href="#G"/><use transform="matrix(0.06172839506172839,0,0,0.06172839506172839,280.06172839506166,0)" xlink:href="#L"/><use transform="matrix(0.06172839506172839,0,0,0.06172839506172839,292.40740740740733,0)" xlink:href="#M"/><use transform="matrix(0.06172839506172839,0,0,0.06172839506172839,297.2839506172839,0)" xlink:href="#z"/></g><path fill="#3a414a" d="M18-100v-36l175-74v27L42-118l151 64v27" id="N"/><path fill="#3a414a" d="M24-231v-30h32v30H24zM24 0v-190h32V0H24" id="O"/><path fill="#3a414a" d="M117-194c89-4 53 116 60 194h-32v-121c0-31-8-49-39-48C34-167 62-67 57 0H25l-1-190h30c1 10-1 24 2 32 11-22 29-35 61-36" id="P"/><path fill="#3a414a" d="M59-47c-2 24 18 29 38 22v24C64 9 27 4 27-40v-127H5v-23h24l9-43h21v43h35v23H59v120" id="Q"/><path fill="#3a414a" d="M100-194c63 0 86 42 84 106H49c0 40 14 67 53 68 26 1 43-12 49-29l28 8c-11 28-37 45-77 45C44 4 14-33 15-96c1-61 26-98 85-98zm52 81c6-60-76-77-97-28-3 7-6 17-6 28h103" id="R"/><path fill="#3a414a" d="M114-163C36-179 61-72 57 0H25l-1-190h30c1 12-1 29 2 39 6-27 23-49 58-41v29" id="S"/><path fill="#3a414a" d="M101-234c-31-9-42 10-38 44h38v23H63V0H32v-167H5v-23h27c-7-52 17-82 69-68v24" id="T"/><path fill="#3a414a" d="M141-36C126-15 110 5 73 4 37 3 15-17 15-53c-1-64 63-63 125-63 3-35-9-54-41-54-24 1-41 7-42 31l-33-3c5-37 33-52 76-52 45 0 72 20 72 64v82c-1 20 7 32 28 27v20c-31 9-61-2-59-35zM48-53c0 20 12 33 32 33 41-3 63-29 60-74-43 2-92-5-92 41" id="U"/><path fill="#3a414a" d="M96-169c-40 0-48 33-48 73s9 75 48 75c24 0 41-14 43-38l32 2c-6 37-31 61-74 61-59 0-76-41-82-99-10-93 101-131 147-64 4 7 5 14 7 22l-32 3c-4-21-16-35-41-35" id="V"/><path fill="#3a414a" d="M18-27v-27l151-64-151-65v-27l175 74v36" id="W"/><g id="b"><use transform="matrix(0.0493827160493827,0,0,0.0493827160493827,0,0)" xlink:href="#N"/><use transform="matrix(0.0493827160493827,0,0,0.0493827160493827,10.370370370370367,0)" xlink:href="#N"/><use transform="matrix(0.0493827160493827,0,0,0.0493827160493827,20.740740740740733,0)" xlink:href="#O"/><use transform="matrix(0.0493827160493827,0,0,0.0493827160493827,24.641975308641968,0)" xlink:href="#P"/><use transform="matrix(0.0493827160493827,0,0,0.0493827160493827,34.518518518518505,0)" xlink:href="#Q"/><use transform="matrix(0.0493827160493827,0,0,0.0493827160493827,39.45679012345678,0)" xlink:href="#R"/><use transform="matrix(0.0493827160493827,0,0,0.0493827160493827,49.333333333333314,0)" xlink:href="#S"/><use transform="matrix(0.0493827160493827,0,0,0.0493827160493827,55.20987654320986,0)" xlink:href="#T"/><use transform="matrix(0.0493827160493827,0,0,0.0493827160493827,60.14814814814813,0)" xlink:href="#U"/><use transform="matrix(0.0493827160493827,0,0,0.0493827160493827,70.02469135802467,0)" xlink:href="#V"/><use transform="matrix(0.0493827160493827,0,0,0.0493827160493827,78.91358024691355,0)" xlink:href="#R"/><use transform="matrix(0.0493827160493827,0,0,0.0493827160493827,88.7901234567901,0)" xlink:href="#W"/><use transform="matrix(0.0493827160493827,0,0,0.0493827160493827,99.16049382716047,0)" xlink:href="#W"/></g><path fill="#3a414a" d="M185-189c-5-48-123-54-124 2 14 75 158 14 163 119 3 78-121 87-175 55-17-10-28-26-33-46l33-7c5 56 141 63 141-1 0-78-155-14-162-118-5-82 145-84 179-34 5 7 8 16 11 25" id="X"/><path fill="#3a414a" d="M84 4C-5 8 30-112 23-190h32v120c0 31 7 50 39 49 72-2 45-101 50-169h31l1 190h-30c-1-10 1-25-2-33-11 22-28 36-60 37" id="Y"/><path fill="#3a414a" d="M115-194c53 0 69 39 70 98 0 66-23 100-70 100C84 3 66-7 56-30L54 0H23l1-261h32v101c10-23 28-34 59-34zm-8 174c40 0 45-34 45-75 0-40-5-75-45-74-42 0-51 32-51 76 0 43 10 73 51 73" id="Z"/><path fill="#3a414a" d="M135-143c-3-34-86-38-87 0 15 53 115 12 119 90S17 21 10-45l28-5c4 36 97 45 98 0-10-56-113-15-118-90-4-57 82-63 122-42 12 7 21 19 24 35" id="aa"/><path fill="#3a414a" d="M115-194c55 1 70 41 70 98S169 2 115 4C84 4 66-9 55-30l1 105H24l-1-265h31l2 30c10-21 28-34 59-34zm-8 174c40 0 45-34 45-75s-6-73-45-74c-42 0-51 32-51 76 0 43 10 73 51 73" id="ab"/><path fill="#3a414a" d="M30 0v-248h33v221h125V0H30" id="ac"/><path fill="#3a414a" d="M100-194c62-1 85 37 85 99 1 63-27 99-86 99S16-35 15-95c0-66 28-99 85-99zM99-20c44 1 53-31 53-75 0-43-8-75-51-75s-53 32-53 75 10 74 51 75" id="ad"/><path fill="#3a414a" d="M177-190C167-65 218 103 67 71c-23-6-38-20-44-43l32-5c15 47 100 32 89-28v-30C133-14 115 1 83 1 29 1 15-40 15-95c0-56 16-97 71-98 29-1 48 16 59 35 1-10 0-23 2-32h30zM94-22c36 0 50-32 50-73 0-42-14-75-50-75-39 0-46 34-46 75s6 73 46 73" id="ae"/><g id="c"><use transform="matrix(0.06172839506172839,0,0,0.06172839506172839,0,0)" xlink:href="#X"/><use transform="matrix(0.06172839506172839,0,0,0.06172839506172839,14.814814814814813,0)" xlink:href="#Y"/><use transform="matrix(0.06172839506172839,0,0,0.06172839506172839,27.160493827160494,0)" xlink:href="#Z"/><use transform="matrix(0.06172839506172839,0,0,0.06172839506172839,39.50617283950617,0)" xlink:href="#aa"/><use transform="matrix(0.06172839506172839,0,0,0.06172839506172839,50.61728395061728,0)" xlink:href="#ab"/><use transform="matrix(0.06172839506172839,0,0,0.06172839506172839,62.962962962962955,0)" xlink:href="#U"/><use transform="matrix(0.06172839506172839,0,0,0.06172839506172839,75.30864197530863,0)" xlink:href="#V"/><use transform="matrix(0.06172839506172839,0,0,0.06172839506172839,86.41975308641975,0)" xlink:href="#R"/><use transform="matrix(0.06172839506172839,0,0,0.06172839506172839,98.76543209876543,0)" xlink:href="#ac"/><use transform="matrix(0.06172839506172839,0,0,0.06172839506172839,111.11111111111111,0)" xlink:href="#ad"/><use transform="matrix(0.06172839506172839,0,0,0.06172839506172839,123.4567901234568,0)" xlink:href="#ae"/><use transform="matrix(0.06172839506172839,0,0,0.06172839506172839,135.80246913580248,0)" xlink:href="#O"/><use transform="matrix(0.06172839506172839,0,0,0.06172839506172839,140.679012345679,0)" xlink:href="#V"/></g><path fill="#3a414a" d="M118-107v75H92v-75H18v-26h74v-75h26v75h74v26h-74" id="af"/><use transform="matrix(0.06172839506172839,0,0,0.06172839506172839,0,0)" xlink:href="#af" id="d"/><path fill="#3a414a" d="M108 0H70L1-190h34L89-25l56-165h34" id="ag"/><path fill="#3a414a" d="M24 0v-261h32V0H24" id="ah"/><path fill="#3a414a" d="M87 75C49 33 22-17 22-94c0-76 28-126 65-167h31c-38 41-64 92-64 168S80 34 118 75H87" id="ai"/><path fill="#3a414a" d="M33-261c38 41 65 92 65 168S71 34 33 75H2C39 34 66-17 66-93S39-220 2-261h31" id="aj"/><path fill="#3a414a" d="M33-154v-36h34v36H33zM33 0v-36h34V0H33" id="ak"/><g id="e"><use transform="matrix(0.06172839506172839,0,0,0.06172839506172839,0,0)" xlink:href="#R"/><use transform="matrix(0.06172839506172839,0,0,0.06172839506172839,12.345679012345679,0)" xlink:href="#ag"/><use transform="matrix(0.06172839506172839,0,0,0.06172839506172839,23.45679012345679,0)" xlink:href="#U"/><use transform="matrix(0.06172839506172839,0,0,0.06172839506172839,35.80246913580247,0)" xlink:href="#ah"/><use transform="matrix(0.06172839506172839,0,0,0.06172839506172839,40.67901234567901,0)" xlink:href="#Y"/><use transform="matrix(0.06172839506172839,0,0,0.06172839506172839,53.02469135802469,0)" xlink:href="#U"/><use transform="matrix(0.06172839506172839,0,0,0.06172839506172839,65.37037037037037,0)" xlink:href="#Q"/><use transform="matrix(0.06172839506172839,0,0,0.06172839506172839,71.5432098765432,0)" xlink:href="#R"/><use transform="matrix(0.06172839506172839,0,0,0.06172839506172839,83.88888888888889,0)" xlink:href="#ai"/><use transform="matrix(0.06172839506172839,0,0,0.06172839506172839,91.23456790123457,0)" xlink:href="#aj"/><use transform="matrix(0.06172839506172839,0,0,0.06172839506172839,98.58024691358025,0)" xlink:href="#ak"/></g><path fill="#3a414a" d="M26 75v-336h71v23H56V52h41v23H26" id="al"/><path fill="#3a414a" d="M3 75V52h41v-290H3v-23h71V75H3" id="am"/><g id="f"><use transform="matrix(0.06172839506172839,0,0,0.06172839506172839,0,0)" xlink:href="#ah"/><use transform="matrix(0.06172839506172839,0,0,0.06172839506172839,4.876543209876543,0)" xlink:href="#O"/><use transform="matrix(0.06172839506172839,0,0,0.06172839506172839,9.753086419753085,0)" xlink:href="#aa"/><use transform="matrix(0.06172839506172839,0,0,0.06172839506172839,20.864197530864196,0)" xlink:href="#Q"/><use transform="matrix(0.06172839506172839,0,0,0.06172839506172839,27.037037037037035,0)" xlink:href="#al"/><use transform="matrix(0.06172839506172839,0,0,0.06172839506172839,33.20987654320987,0)" xlink:href="#O"/><use transform="matrix(0.06172839506172839,0,0,0.06172839506172839,38.08641975308642,0)" xlink:href="#P"/><use transform="matrix(0.06172839506172839,0,0,0.06172839506172839,50.432098765432094,0)" xlink:href="#Q"/><use transform="matrix(0.06172839506172839,0,0,0.06172839506172839,56.60493827160494,0)" xlink:href="#am"/></g><path fill="#3a414a" d="M-5 72V49h209v23H-5" id="an"/><g id="g"><use transform="matrix(0.06172839506172839,0,0,0.06172839506172839,0,0)" xlink:href="#ae"/><use transform="matrix(0.06172839506172839,0,0,0.06172839506172839,12.345679012345679,0)" xlink:href="#R"/><use transform="matrix(0.06172839506172839,0,0,0.06172839506172839,24.691358024691358,0)" xlink:href="#Q"/><use transform="matrix(0.06172839506172839,0,0,0.06172839506172839,30.864197530864196,0)" xlink:href="#an"/><use transform="matrix(0.06172839506172839,0,0,0.06172839506172839,43.20987654320987,0)" xlink:href="#aa"/><use transform="matrix(0.06172839506172839,0,0,0.06172839506172839,54.32098765432099,0)" xlink:href="#Y"/><use transform="matrix(0.06172839506172839,0,0,0.06172839506172839,66.66666666666667,0)" xlink:href="#Z"/><use transform="matrix(0.06172839506172839,0,0,0.06172839506172839,79.01234567901236,0)" xlink:href="#aa"/><use transform="matrix(0.06172839506172839,0,0,0.06172839506172839,90.12345679012347,0)" xlink:href="#ab"/><use transform="matrix(0.06172839506172839,0,0,0.06172839506172839,102.46913580246915,0)" xlink:href="#U"/><use transform="matrix(0.06172839506172839,0,0,0.06172839506172839,114.81481481481484,0)" xlink:href="#V"/><use transform="matrix(0.06172839506172839,0,0,0.06172839506172839,125.92592592592595,0)" xlink:href="#R"/><use transform="matrix(0.06172839506172839,0,0,0.06172839506172839,138.27160493827162,0)" xlink:href="#aa"/><use transform="matrix(0.06172839506172839,0,0,0.06172839506172839,149.38271604938274,0)" xlink:href="#ai"/><use transform="matrix(0.06172839506172839,0,0,0.06172839506172839,156.7283950617284,0)" xlink:href="#aj"/><use transform="matrix(0.06172839506172839,0,0,0.06172839506172839,164.07407407407408,0)" xlink:href="#ak"/></g><g id="h"><use transform="matrix(0.06172839506172839,0,0,0.06172839506172839,0,0)" xlink:href="#aa"/><use transform="matrix(0.06172839506172839,0,0,0.06172839506172839,11.11111111111111,0)" xlink:href="#R"/><use transform="matrix(0.06172839506172839,0,0,0.06172839506172839,23.45679012345679,0)" xlink:href="#Q"/><use transform="matrix(0.06172839506172839,0,0,0.06172839506172839,29.62962962962963,0)" xlink:href="#al"/><use transform="matrix(0.06172839506172839,0,0,0.06172839506172839,35.80246913580247,0)" xlink:href="#X"/><use transform="matrix(0.06172839506172839,0,0,0.06172839506172839,50.61728395061728,0)" xlink:href="#Y"/><use transform="matrix(0.06172839506172839,0,0,0.06172839506172839,62.962962962962955,0)" xlink:href="#Z"/><use transform="matrix(0.06172839506172839,0,0,0.06172839506172839,75.30864197530863,0)" xlink:href="#aa"/><use transform="matrix(0.06172839506172839,0,0,0.06172839506172839,86.41975308641975,0)" xlink:href="#ab"/><use transform="matrix(0.06172839506172839,0,0,0.06172839506172839,98.76543209876543,0)" xlink:href="#U"/><use transform="matrix(0.06172839506172839,0,0,0.06172839506172839,111.11111111111111,0)" xlink:href="#V"/><use transform="matrix(0.06172839506172839,0,0,0.06172839506172839,122.22222222222223,0)" xlink:href="#R"/><use transform="matrix(0.06172839506172839,0,0,0.06172839506172839,134.5679012345679,0)" xlink:href="#am"/></g><g id="i"><use transform="matrix(0.06172839506172839,0,0,0.06172839506172839,0,0)" xlink:href="#ac"/><use transform="matrix(0.06172839506172839,0,0,0.06172839506172839,12.345679012345679,0)" xlink:href="#O"/><use transform="matrix(0.06172839506172839,0,0,0.06172839506172839,17.22222222222222,0)" xlink:href="#Q"/><use transform="matrix(0.06172839506172839,0,0,0.06172839506172839,23.39506172839506,0)" xlink:href="#R"/><use transform="matrix(0.06172839506172839,0,0,0.06172839506172839,35.74074074074074,0)" xlink:href="#S"/><use transform="matrix(0.06172839506172839,0,0,0.06172839506172839,43.08641975308642,0)" xlink:href="#U"/><use transform="matrix(0.06172839506172839,0,0,0.06172839506172839,55.432098765432094,0)" xlink:href="#ah"/></g><path fill="#3a414a" d="M16-82v-28h88v28H16" id="ao"/><use transform="matrix(0.06172839506172839,0,0,0.06172839506172839,0,0)" xlink:href="#ao" id="j"/><g id="k"><use transform="matrix(0.06172839506172839,0,0,0.06172839506172839,0,0)" xlink:href="#aa"/><use transform="matrix(0.06172839506172839,0,0,0.06172839506172839,11.11111111111111,0)" xlink:href="#Y"/><use transform="matrix(0.06172839506172839,0,0,0.06172839506172839,23.45679012345679,0)" xlink:href="#Z"/><use transform="matrix(0.06172839506172839,0,0,0.06172839506172839,35.80246913580247,0)" xlink:href="#aa"/><use transform="matrix(0.06172839506172839,0,0,0.06172839506172839,46.91358024691358,0)" xlink:href="#ab"/><use transform="matrix(0.06172839506172839,0,0,0.06172839506172839,59.25925925925926,0)" xlink:href="#U"/><use transform="matrix(0.06172839506172839,0,0,0.06172839506172839,71.60493827160494,0)" xlink:href="#V"/><use transform="matrix(0.06172839506172839,0,0,0.06172839506172839,82.71604938271605,0)" xlink:href="#R"/><use transform="matrix(0.06172839506172839,0,0,0.06172839506172839,95.06172839506173,0)" xlink:href="#ak"/></g><g id="l"><use transform="matrix(0.06172839506172839,0,0,0.06172839506172839,0,0)" xlink:href="#X"/><use transform="matrix(0.06172839506172839,0,0,0.06172839506172839,14.814814814814813,0)" xlink:href="#Y"/><use transform="matrix(0.06172839506172839,0,0,0.06172839506172839,27.160493827160494,0)" xlink:href="#Z"/><use transform="matrix(0.06172839506172839,0,0,0.06172839506172839,39.50617283950617,0)" xlink:href="#aa"/><use transform="matrix(0.06172839506172839,0,0,0.06172839506172839,50.61728395061728,0)" xlink:href="#ab"/><use transform="matrix(0.06172839506172839,0,0,0.06172839506172839,62.962962962962955,0)" xlink:href="#U"/><use transform="matrix(0.06172839506172839,0,0,0.06172839506172839,75.30864197530863,0)" xlink:href="#V"/><use transform="matrix(0.06172839506172839,0,0,0.06172839506172839,86.41975308641975,0)" xlink:href="#R"/></g><g id="m"><use transform="matrix(0.06172839506172839,0,0,0.06172839506172839,0,0)" xlink:href="#R"/><use transform="matrix(0.06172839506172839,0,0,0.06172839506172839,12.345679012345679,0)" xlink:href="#ag"/><use transform="matrix(0.06172839506172839,0,0,0.06172839506172839,23.45679012345679,0)" xlink:href="#U"/><use transform="matrix(0.06172839506172839,0,0,0.06172839506172839,35.80246913580247,0)" xlink:href="#ah"/><use transform="matrix(0.06172839506172839,0,0,0.06172839506172839,40.67901234567901,0)" xlink:href="#Y"/><use transform="matrix(0.06172839506172839,0,0,0.06172839506172839,53.02469135802469,0)" xlink:href="#U"/><use transform="matrix(0.06172839506172839,0,0,0.06172839506172839,65.37037037037037,0)" xlink:href="#Q"/><use transform="matrix(0.06172839506172839,0,0,0.06172839506172839,71.5432098765432,0)" xlink:href="#R"/><use transform="matrix(0.06172839506172839,0,0,0.06172839506172839,83.88888888888889,0)" xlink:href="#ai"/><use transform="matrix(0.06172839506172839,0,0,0.06172839506172839,91.23456790123457,0)" xlink:href="#aj"/><use transform="matrix(0.06172839506172839,0,0,0.06172839506172839,98.58024691358025,0)" xlink:href="#ak"/></g><path fill="#3a414a" d="M9 0v-24l116-142H16v-24h144v24L44-24h123V0H9" id="ap"/><g id="n"><use transform="matrix(0.0493827160493827,0,0,0.0493827160493827,0,0)" xlink:href="#N"/><use transform="matrix(0.0493827160493827,0,0,0.0493827160493827,10.370370370370367,0)" xlink:href="#N"/><use transform="matrix(0.0493827160493827,0,0,0.0493827160493827,20.740740740740733,0)" xlink:href="#S"/><use transform="matrix(0.0493827160493827,0,0,0.0493827160493827,26.617283950617274,0)" xlink:href="#R"/><use transform="matrix(0.0493827160493827,0,0,0.0493827160493827,36.493827160493815,0)" xlink:href="#U"/><use transform="matrix(0.0493827160493827,0,0,0.0493827160493827,46.37037037037035,0)" xlink:href="#ah"/><use transform="matrix(0.0493827160493827,0,0,0.0493827160493827,50.27160493827159,0)" xlink:href="#O"/><use transform="matrix(0.0493827160493827,0,0,0.0493827160493827,54.17283950617282,0)" xlink:href="#ap"/><use transform="matrix(0.0493827160493827,0,0,0.0493827160493827,63.06172839506171,0)" xlink:href="#R"/><use transform="matrix(0.0493827160493827,0,0,0.0493827160493827,72.93827160493825,0)" xlink:href="#W"/><use transform="matrix(0.0493827160493827,0,0,0.0493827160493827,83.30864197530862,0)" xlink:href="#W"/></g><path fill="#3a414a" d="M140-251c81 0 123 46 123 126C263-46 219 4 140 4 59 4 17-45 17-125s42-126 123-126zm0 227c63 0 89-41 89-101s-29-99-89-99c-61 0-89 39-89 99S79-25 140-24" id="aq"/><g id="o"><use transform="matrix(0.06172839506172839,0,0,0.06172839506172839,0,0)" xlink:href="#aq"/><use transform="matrix(0.06172839506172839,0,0,0.06172839506172839,17.28395061728395,0)" xlink:href="#ab"/><use transform="matrix(0.06172839506172839,0,0,0.06172839506172839,29.629629629629626,0)" xlink:href="#R"/><use transform="matrix(0.06172839506172839,0,0,0.06172839506172839,41.9753086419753,0)" xlink:href="#S"/><use transform="matrix(0.06172839506172839,0,0,0.06172839506172839,49.32098765432098,0)" xlink:href="#U"/><use transform="matrix(0.06172839506172839,0,0,0.06172839506172839,61.66666666666666,0)" xlink:href="#Q"/><use transform="matrix(0.06172839506172839,0,0,0.06172839506172839,67.83950617283949,0)" xlink:href="#O"/><use transform="matrix(0.06172839506172839,0,0,0.06172839506172839,72.71604938271604,0)" xlink:href="#ad"/><use transform="matrix(0.06172839506172839,0,0,0.06172839506172839,85.06172839506172,0)" xlink:href="#P"/></g><path fill="#3a414a" d="M85-194c31 0 48 13 60 33l-1-100h32l1 261h-30c-2-10 0-23-3-31C134-8 116 4 85 4 32 4 16-35 15-94c0-66 23-100 70-100zm9 24c-40 0-46 34-46 75 0 40 6 74 45 74 42 0 51-32 51-76 0-42-9-74-50-73" id="ar"/><g id="p"><use transform="matrix(0.06172839506172839,0,0,0.06172839506172839,0,0)" xlink:href="#ad"/><use transform="matrix(0.06172839506172839,0,0,0.06172839506172839,12.345679012345679,0)" xlink:href="#ab"/><use transform="matrix(0.06172839506172839,0,0,0.06172839506172839,24.691358024691358,0)" xlink:href="#R"/><use transform="matrix(0.06172839506172839,0,0,0.06172839506172839,37.03703703703704,0)" xlink:href="#S"/><use transform="matrix(0.06172839506172839,0,0,0.06172839506172839,44.382716049382715,0)" xlink:href="#U"/><use transform="matrix(0.06172839506172839,0,0,0.06172839506172839,56.72839506172839,0)" xlink:href="#P"/><use transform="matrix(0.06172839506172839,0,0,0.06172839506172839,69.07407407407408,0)" xlink:href="#ar"/><use transform="matrix(0.06172839506172839,0,0,0.06172839506172839,81.41975308641976,0)" xlink:href="#aa"/><use transform="matrix(0.06172839506172839,0,0,0.06172839506172839,92.53086419753087,0)" xlink:href="#ak"/></g><g id="q"><use transform="matrix(0.06172839506172839,0,0,0.06172839506172839,0,0)" xlink:href="#ah"/><use transform="matrix(0.06172839506172839,0,0,0.06172839506172839,4.876543209876543,0)" xlink:href="#O"/><use transform="matrix(0.06172839506172839,0,0,0.06172839506172839,9.753086419753085,0)" xlink:href="#aa"/><use transform="matrix(0.06172839506172839,0,0,0.06172839506172839,20.864197530864196,0)" xlink:href="#Q"/><use transform="matrix(0.06172839506172839,0,0,0.06172839506172839,27.037037037037035,0)" xlink:href="#al"/><use transform="matrix(0.06172839506172839,0,0,0.06172839506172839,33.20987654320987,0)" xlink:href="#X"/><use transform="matrix(0.06172839506172839,0,0,0.06172839506172839,48.02469135802468,0)" xlink:href="#Y"/><use transform="matrix(0.06172839506172839,0,0,0.06172839506172839,60.37037037037036,0)" xlink:href="#Z"/><use transform="matrix(0.06172839506172839,0,0,0.06172839506172839,72.71604938271604,0)" xlink:href="#aa"/><use transform="matrix(0.06172839506172839,0,0,0.06172839506172839,83.82716049382715,0)" xlink:href="#ab"/><use transform="matrix(0.06172839506172839,0,0,0.06172839506172839,96.17283950617283,0)" xlink:href="#U"/><use transform="matrix(0.06172839506172839,0,0,0.06172839506172839,108.51851851851852,0)" xlink:href="#V"/><use transform="matrix(0.06172839506172839,0,0,0.06172839506172839,119.62962962962963,0)" xlink:href="#R"/><use transform="matrix(0.06172839506172839,0,0,0.06172839506172839,131.97530864197532,0)" xlink:href="#ac"/><use transform="matrix(0.06172839506172839,0,0,0.06172839506172839,144.320987654321,0)" xlink:href="#ad"/><use transform="matrix(0.06172839506172839,0,0,0.06172839506172839,156.66666666666666,0)" xlink:href="#ae"/><use transform="matrix(0.06172839506172839,0,0,0.06172839506172839,169.01234567901233,0)" xlink:href="#O"/><use transform="matrix(0.06172839506172839,0,0,0.06172839506172839,173.88888888888886,0)" xlink:href="#V"/><use transform="matrix(0.06172839506172839,0,0,0.06172839506172839,184.99999999999997,0)" xlink:href="#am"/></g><g id="r"><use transform="matrix(0.06172839506172839,0,0,0.06172839506172839,0,0)" xlink:href="#ad"/><use transform="matrix(0.06172839506172839,0,0,0.06172839506172839,12.345679012345679,0)" xlink:href="#ab"/><use transform="matrix(0.06172839506172839,0,0,0.06172839506172839,24.691358024691358,0)" xlink:href="#R"/><use transform="matrix(0.06172839506172839,0,0,0.06172839506172839,37.03703703703704,0)" xlink:href="#S"/><use transform="matrix(0.06172839506172839,0,0,0.06172839506172839,44.382716049382715,0)" xlink:href="#U"/><use transform="matrix(0.06172839506172839,0,0,0.06172839506172839,56.72839506172839,0)" xlink:href="#Q"/><use transform="matrix(0.06172839506172839,0,0,0.06172839506172839,62.901234567901234,0)" xlink:href="#ad"/><use transform="matrix(0.06172839506172839,0,0,0.06172839506172839,75.24691358024691,0)" xlink:href="#S"/><use transform="matrix(0.06172839506172839,0,0,0.06172839506172839,82.5925925925926,0)" xlink:href="#ak"/></g><path fill="#3a414a" d="M212-179c-10-28-35-45-73-45-59 0-87 40-87 99 0 60 29 101 89 101 43 0 62-24 78-52l27 14C228-24 195 4 139 4 59 4 22-46 18-125c-6-104 99-153 187-111 19 9 31 26 39 46" id="as"/><path fill="#3a414a" d="M68-38c1 34 0 65-14 84H32c9-13 17-26 17-46H33v-38h35" id="at"/><g id="s"><use transform="matrix(0.06172839506172839,0,0,0.06172839506172839,0,0)" xlink:href="#as"/><use transform="matrix(0.06172839506172839,0,0,0.06172839506172839,15.987654320987653,0)" xlink:href="#U"/><use transform="matrix(0.06172839506172839,0,0,0.06172839506172839,28.333333333333332,0)" xlink:href="#ah"/><use transform="matrix(0.06172839506172839,0,0,0.06172839506172839,33.20987654320987,0)" xlink:href="#ah"/><use transform="matrix(0.06172839506172839,0,0,0.06172839506172839,38.08641975308642,0)" xlink:href="#U"/><use transform="matrix(0.06172839506172839,0,0,0.06172839506172839,50.432098765432094,0)" xlink:href="#Z"/><use transform="matrix(0.06172839506172839,0,0,0.06172839506172839,62.77777777777777,0)" xlink:href="#ah"/><use transform="matrix(0.06172839506172839,0,0,0.06172839506172839,67.65432098765432,0)" xlink:href="#R"/><use transform="matrix(0.06172839506172839,0,0,0.06172839506172839,80,0)" xlink:href="#al"/><use transform="matrix(0.06172839506172839,0,0,0.06172839506172839,86.17283950617283,0)" xlink:href="#al"/><use transform="matrix(0.06172839506172839,0,0,0.06172839506172839,92.34567901234567,0)" xlink:href="#ah"/><use transform="matrix(0.06172839506172839,0,0,0.06172839506172839,97.22222222222221,0)" xlink:href="#O"/><use transform="matrix(0.06172839506172839,0,0,0.06172839506172839,102.09876543209876,0)" xlink:href="#aa"/><use transform="matrix(0.06172839506172839,0,0,0.06172839506172839,113.20987654320987,0)" xlink:href="#Q"/><use transform="matrix(0.06172839506172839,0,0,0.06172839506172839,119.38271604938271,0)" xlink:href="#al"/><use transform="matrix(0.06172839506172839,0,0,0.06172839506172839,125.55555555555554,0)" xlink:href="#ah"/><use transform="matrix(0.06172839506172839,0,0,0.06172839506172839,130.43209876543207,0)" xlink:href="#O"/><use transform="matrix(0.06172839506172839,0,0,0.06172839506172839,135.3086419753086,0)" xlink:href="#aa"/><use transform="matrix(0.06172839506172839,0,0,0.06172839506172839,146.41975308641972,0)" xlink:href="#Q"/><use transform="matrix(0.06172839506172839,0,0,0.06172839506172839,152.59259259259255,0)" xlink:href="#al"/><use transform="matrix(0.06172839506172839,0,0,0.06172839506172839,158.7654320987654,0)" xlink:href="#O"/><use transform="matrix(0.06172839506172839,0,0,0.06172839506172839,163.64197530864192,0)" xlink:href="#P"/><use transform="matrix(0.06172839506172839,0,0,0.06172839506172839,175.9876543209876,0)" xlink:href="#Q"/><use transform="matrix(0.06172839506172839,0,0,0.06172839506172839,182.16049382716042,0)" xlink:href="#am"/><use transform="matrix(0.06172839506172839,0,0,0.06172839506172839,188.33333333333326,0)" xlink:href="#am"/><use transform="matrix(0.06172839506172839,0,0,0.06172839506172839,194.5061728395061,0)" xlink:href="#am"/><use transform="matrix(0.06172839506172839,0,0,0.06172839506172839,200.67901234567893,0)" xlink:href="#at"/></g><g id="t"><use transform="matrix(0.06172839506172839,0,0,0.06172839506172839,0,0)" xlink:href="#ah"/><use transform="matrix(0.06172839506172839,0,0,0.06172839506172839,4.876543209876543,0)" xlink:href="#O"/><use transform="matrix(0.06172839506172839,0,0,0.06172839506172839,9.753086419753085,0)" xlink:href="#aa"/><use transform="matrix(0.06172839506172839,0,0,0.06172839506172839,20.864197530864196,0)" xlink:href="#Q"/><use transform="matrix(0.06172839506172839,0,0,0.06172839506172839,27.037037037037035,0)" xlink:href="#al"/><use transform="matrix(0.06172839506172839,0,0,0.06172839506172839,33.20987654320987,0)" xlink:href="#O"/><use transform="matrix(0.06172839506172839,0,0,0.06172839506172839,38.08641975308642,0)" xlink:href="#P"/><use transform="matrix(0.06172839506172839,0,0,0.06172839506172839,50.432098765432094,0)" xlink:href="#Q"/><use transform="matrix(0.06172839506172839,0,0,0.06172839506172839,56.60493827160494,0)" xlink:href="#am"/><use transform="matrix(0.06172839506172839,0,0,0.06172839506172839,62.77777777777778,0)" xlink:href="#am"/></g><path d="M114-163C36-179 61-72 57 0H25l-1-190h30c1 12-1 29 2 39 6-27 23-49 58-41v29" id="au"/><g id="u"><use transform="matrix(0.05,0,0,0.05,0,0)" xlink:href="#G"/><use transform="matrix(0.05,0,0,0.05,10,0)" xlink:href="#K"/><use transform="matrix(0.05,0,0,0.05,20,0)" xlink:href="#B"/><use transform="matrix(0.05,0,0,0.05,30,0)" xlink:href="#au"/><use transform="matrix(0.05,0,0,0.05,35.95,0)" xlink:href="#y"/><use transform="matrix(0.05,0,0,0.05,45.95,0)" xlink:href="#C"/><use transform="matrix(0.05,0,0,0.05,55.95,0)" xlink:href="#D"/><use transform="matrix(0.05,0,0,0.05,65.95,0)" xlink:href="#I"/></g><path d="M27 0v-27h64v-190l-56 39v-29l58-41h29v221h61V0H27" id="av"/><path d="M80-196l47-18 7 23-49 13 32 44-20 13-27-46-27 45-21-12 33-44-49-13 8-23 47 19-2-53h23" id="aw"/><g id="v"><use transform="matrix(0.05,0,0,0.05,0,0)" xlink:href="#av"/><use transform="matrix(0.05,0,0,0.05,10,0)" xlink:href="#E"/><use transform="matrix(0.05,0,0,0.05,15,0)" xlink:href="#E"/><use transform="matrix(0.05,0,0,0.05,20,0)" xlink:href="#aw"/></g><path d="M101-251c68 0 85 55 85 127S166 4 100 4C33 4 14-52 14-124c0-73 17-127 87-127zm-1 229c47 0 54-49 54-102s-4-102-53-102c-51 0-55 48-55 102 0 53 5 102 54 102" id="ax"/><use transform="matrix(0.05,0,0,0.05,0,0)" xlink:href="#ax" id="w"/></defs></g></svg>