<svg xmlns="http://www.w3.org/2000/svg" xmlns:xlink="http://www.w3.org/1999/xlink" xmlns:lucid="lucid" width="1440" height="461"><g transform="translate(-320 60.999949999999984)" lucid:page-tab-id="6bzoSf20p8QZ"><path d="M340 20a20 20 0 0 1 20-20h200a20 20 0 0 1 20 20v100a20 20 0 0 1-20 20H360a20 20 0 0 1-20-20z" fill="#925ff0"/><use xlink:href="#a" transform="matrix(1,0,0,1,345,5) translate(33.404405381944485 75.56532118055554)"/><use xlink:href="#b" transform="matrix(1,0,0,1,345,5) translate(93.19932725694446 75.56532118055554)"/><path d="M740 20a20 20 0 0 1 20-20h200a20 20 0 0 1 20 20v100a20 20 0 0 1-20 20H760a20 20 0 0 1-20-20z" fill="#925ff0"/><use xlink:href="#c" transform="matrix(1,0,0,1,745,5) translate(35.351019965277814 75.56532118055554)"/><use xlink:href="#d" transform="matrix(1,0,0,1,745,5) translate(71.36338975694446 75.56532118055554)"/><path d="M1100 20a20 20 0 0 1 20-20h200a20 20 0 0 1 20 20v100a20 20 0 0 1-20 20h-200a20 20 0 0 1-20-20z" fill="#925ff0"/><use xlink:href="#e" transform="matrix(1,0,0,1,1105,5) translate(63.464084201388914 75.56532118055554)"/><path d="M1500 20a20 20 0 0 1 20-20h200a20 20 0 0 1 20 20v100a20 20 0 0 1-20 20h-200a20 20 0 0 1-20-20z" fill="#925ff0"/><use xlink:href="#f" transform="matrix(1,0,0,1,1505,5) translate(36.21853298611114 75.56532118055554)"/><path d="M582 70h154.36" stroke="#000" stroke-width="4" fill="none"/><path d="M582.05 72H580v-4h2.05z" stroke="#000" stroke-width=".05"/><path d="M718.86 80.18L736.06 70l-17.2-10.18" stroke="#000" stroke-width="4" fill="none"/><use xlink:href="#g" transform="matrix(1,0,0,1,605.3625117994794,2.000000000000014) translate(0.005000000000002558 21.33333333333333)"/><use xlink:href="#h" transform="matrix(1,0,0,1,605.3625117994794,2.000000000000014) translate(3.671666666666667 53.33333333333332)"/><path d="M982 70h114.36" stroke="#000" stroke-width="4" fill="none"/><path d="M982.05 72H980v-4h2.05z" stroke="#000" stroke-width=".05"/><path d="M1078.86 80.18l17.2-10.18-17.2-10.18M1342 70h154.36" stroke="#000" stroke-width="4" fill="none"/><path d="M1342.05 72H1340v-4h2.05z" stroke="#000" stroke-width=".05"/><path d="M1478.86 80.18l17.2-10.18-17.2-10.18" stroke="#000" stroke-width="4" fill="none"/><use xlink:href="#i" transform="matrix(1,0,0,1,1370.4074074074074,2.000000000000014) translate(11.893888888888888 21.33333333333333)"/><use xlink:href="#j" transform="matrix(1,0,0,1,1370.4074074074074,2.000000000000014) translate(0.005000000000002558 53.33333333333332)"/><path d="M1100 260a20 20 0 0 1 20-20h200a20 20 0 0 1 20 20v100a20 20 0 0 1-20 20h-200a20 20 0 0 1-20-20z" stroke="#000" stroke-width="4" fill-opacity="0"/><use xlink:href="#k" transform="matrix(1,0,0,1,1105,245) translate(33.41851128472226 59.31532118055554)"/><use xlink:href="#l" transform="matrix(1,0,0,1,1105,245) translate(35.407443576388914 92.94379340277774)"/><path d="M1220-2v-32a6 6 0 0 0-6-6H866a6 6 0 0 0-6 6v30.36" stroke="#000" stroke-width="4" fill="none"/><path d="M1222 0h-4v-2.05h4z" stroke="#000" stroke-width=".05"/><path d="M849.82-21.14L860-3.94l10.18-17.2M1220 236v-15.4m0-15.4v-30.78m0-15.4v-15.38" stroke="#000" stroke-width="4" fill="none"/><path d="M1222 238h-4v-2.05h4z" stroke="#000" stroke-width=".05"/><path d="M1230.18 161.14l-10.18-17.2-10.18 17.2" stroke="#000" stroke-width="4" fill="none"/><defs><path fill="#fff" d="M201-1493h272l662 1249v-1249h196V0h-272L397-1249V0H201v-1493" id="m"/><path fill="#fff" d="M946-559c0-236-103-432-319-432-218 0-320 194-320 432 0 239 101 432 320 432 216 0 319-195 319-432zm-833 0c0-347 180-588 514-588 333 0 514 242 514 588S959 29 627 29c-333 0-514-242-514-588" id="n"/><path fill="#fff" d="M565 0C277-5 190-82 190-369v-608H55v-143h135v-318h185v318h379v143H375v608c5 178 21 215 190 215h189V0H565" id="o"/><g id="a"><use transform="matrix(0.014105902777777771,0,0,0.014105902777777771,0,0)" xlink:href="#m"/><use transform="matrix(0.014105902777777771,0,0,0.014105902777777771,21.610243055555546,0)" xlink:href="#n"/><use transform="matrix(0.014105902777777771,0,0,0.014105902777777771,39.28493923611109,0)" xlink:href="#o"/></g><path fill="#fff" d="M549-1147c138 1 258 21 358 60v174c-95-49-202-80-336-80-155 0-274 34-274 168 0 43 18 75 49 101 32 28 167 64 260 83 131 27 223 68 278 119s83 122 83 213C967-78 759 33 504 29 357 27 235-1 111-41v-190c117 60 239 104 397 106 147 2 270-43 270-170 0-50-19-86-50-115s-183-69-286-92c-197-44-323-106-323-315 0-230 181-332 430-330" id="p"/><path fill="#fff" d="M547-125c226-2 354-189 338-438-167-2-418-1-492 51-55 38-86 92-86 174-1 135 100 214 240 213zm39-1022c330 0 483 173 483 508V0H885v-170C806-43 694 26 498 29c-221 3-379-138-375-355 5-279 201-382 504-381h258c7-193-124-285-318-284-145 1-261 37-362 92v-170c117-45 236-78 381-78" id="q"/><path fill="#fff" d="M371-946c77-148 245-227 470-191l1 189c-40-23-87-35-148-35-222 1-323 158-323 393V0H186v-1120h185v174" id="r"/><path fill="#fff" d="M662-1147c308 0 494 224 489 541v90H305c14 244 148 389 400 389 164 0 286-43 403-104v174C988-6 854 27 694 29c-352 4-581-227-581-578s207-598 549-598zm305 487c1-190-117-331-303-331-212 0-338 131-353 332" id="s"/><path fill="#fff" d="M571-1147c182 0 288 74 359 197v-606h184V0H930v-168C858-45 753 29 571 29c-292 0-458-272-458-588s166-588 458-588zm45 154c-217 0-313 195-313 434s96 434 313 434 314-195 314-434-97-434-314-434" id="t"/><g id="b"><use transform="matrix(0.014105902777777771,0,0,0.014105902777777771,0,0)" xlink:href="#p"/><use transform="matrix(0.014105902777777771,0,0,0.014105902777777771,15.050998263888882,0)" xlink:href="#o"/><use transform="matrix(0.014105902777777771,0,0,0.014105902777777771,26.378038194444432,0)" xlink:href="#q"/><use transform="matrix(0.014105902777777771,0,0,0.014105902777777771,44.080946180555536,0)" xlink:href="#r"/><use transform="matrix(0.014105902777777771,0,0,0.014105902777777771,55.95811631944442,0)" xlink:href="#o"/><use transform="matrix(0.014105902777777771,0,0,0.014105902777777771,67.28515624999997,0)" xlink:href="#s"/><use transform="matrix(0.014105902777777771,0,0,0.014105902777777771,85.05859374999997,0)" xlink:href="#t"/></g><path fill="#fff" d="M201-1493h202V0H201v-1493" id="u"/><path fill="#fff" d="M733-1147c274 0 391 182 391 471V0H940v-670c0-195-67-315-248-317-203-3-321 145-321 354V0H186v-1120h185v174c79-119 182-201 362-201" id="v"/><g id="c"><use transform="matrix(0.014105902777777771,0,0,0.014105902777777771,0,0)" xlink:href="#u"/><use transform="matrix(0.014105902777777771,0,0,0.014105902777777771,8.519965277777773,0)" xlink:href="#v"/></g><path fill="#fff" d="M952-1047c0-181-112-280-295-280H403v561h254c184 1 295-99 295-281zm213 0c0 308-189 448-508 447H403V0H201v-1493h456c318-2 508 140 508 446" id="w"/><path fill="#fff" d="M616-154c219 0 314-181 314-419 0-239-95-420-314-420-218 0-313 182-313 420s95 419 313 419zm-45-993c181 0 289 75 359 197v-170h184v981c0 370-154 565-516 565-137 0-247-21-350-59V188c95 51 190 86 321 86 246 0 361-130 361-380v-91C860-75 752 0 571 0 278 0 113-259 113-573c0-315 164-574 458-574" id="x"/><g id="d"><use transform="matrix(0.014105902777777771,0,0,0.014105902777777771,0,0)" xlink:href="#w"/><use transform="matrix(0.014105902777777771,0,0,0.014105902777777771,16.912977430555546,0)" xlink:href="#r"/><use transform="matrix(0.014105902777777771,0,0,0.014105902777777771,28.15538194444443,0)" xlink:href="#n"/><use transform="matrix(0.014105902777777771,0,0,0.014105902777777771,45.83007812499997,0)" xlink:href="#x"/><use transform="matrix(0.014105902777777771,0,0,0.014105902777777771,64.16775173611107,0)" xlink:href="#r"/><use transform="matrix(0.014105902777777771,0,0,0.014105902777777771,75.41015624999996,0)" xlink:href="#s"/><use transform="matrix(0.014105902777777771,0,0,0.014105902777777771,93.18359374999994,0)" xlink:href="#p"/><use transform="matrix(0.014105902777777771,0,0,0.014105902777777771,108.23459201388883,0)" xlink:href="#p"/></g><path fill="#fff" d="M1165-1063c0 197-98 319-256 363 120 51 183 158 250 292L1364 0h-217L956-383c-93-168-121-248-333-248H403V0H201v-1493h456c322 0 508 123 508 430zm-213 0c0-181-108-265-295-264H403v530h254c187 1 295-85 295-266" id="y"/><path fill="#fff" d="M61-1120h195l350 940 350-940h195L731 0H481" id="z"/><path fill="#fff" d="M193-1120h184V0H193v-1120zm0-436h184v233H193v-233" id="A"/><path fill="#fff" d="M86-1120h184l230 874 229-874h217l230 874 229-874h184L1296 0h-217L838-918 596 0H379" id="B"/><g id="e"><use transform="matrix(0.014105902777777771,0,0,0.014105902777777771,0,0)" xlink:href="#y"/><use transform="matrix(0.014105902777777771,0,0,0.014105902777777771,18.774956597222214,0)" xlink:href="#s"/><use transform="matrix(0.014105902777777771,0,0,0.014105902777777771,36.54839409722221,0)" xlink:href="#z"/><use transform="matrix(0.014105902777777771,0,0,0.014105902777777771,53.644748263888864,0)" xlink:href="#A"/><use transform="matrix(0.014105902777777771,0,0,0.014105902777777771,61.671006944444414,0)" xlink:href="#s"/><use transform="matrix(0.014105902777777771,0,0,0.014105902777777771,79.4444444444444,0)" xlink:href="#B"/></g><path fill="#fff" d="M844-1520c199 1 349 56 475 142v213c-119-110-257-189-463-189-358 0-528 236-528 609 0 372 170 608 528 608 206 0 344-79 463-189v211C1191-28 1043 27 844 29c-456 4-729-311-729-774 0-464 273-779 729-775" id="C"/><path fill="#fff" d="M731-1147c179 0 285 99 334 242 82-145 187-242 391-242 254 0 365 197 365 471V0h-185v-670c-1-193-55-314-231-317-198-3-309 148-309 354V0H911v-670c-1-195-55-314-233-317-195-3-307 150-307 354V0H186v-1120h185v174c77-124 176-201 360-201" id="D"/><path fill="#fff" d="M729 29c-181 0-287-75-358-197v594H186v-1546h185v170c71-123 177-197 358-197 293 0 459 272 459 588 0 317-166 588-459 588zm-45-154c217 0 313-195 313-434s-96-434-313-434-313 195-313 434 96 434 313 434" id="E"/><path fill="#fff" d="M193-1556h184V0H193v-1556" id="F"/><g id="f"><use transform="matrix(0.014105902777777771,0,0,0.014105902777777771,0,0)" xlink:href="#C"/><use transform="matrix(0.014105902777777771,0,0,0.014105902777777771,20.171440972222214,0)" xlink:href="#n"/><use transform="matrix(0.014105902777777771,0,0,0.014105902777777771,37.84613715277776,0)" xlink:href="#D"/><use transform="matrix(0.014105902777777771,0,0,0.014105902777777771,65.98741319444441,0)" xlink:href="#E"/><use transform="matrix(0.014105902777777771,0,0,0.014105902777777771,84.32508680555551,0)" xlink:href="#F"/><use transform="matrix(0.014105902777777771,0,0,0.014105902777777771,92.35134548611107,0)" xlink:href="#s"/><use transform="matrix(0.014105902777777771,0,0,0.014105902777777771,110.12478298611106,0)" xlink:href="#o"/><use transform="matrix(0.014105902777777771,0,0,0.014105902777777771,121.45182291666661,0)" xlink:href="#s"/><use transform="matrix(0.014105902777777771,0,0,0.014105902777777771,139.2252604166666,0)" xlink:href="#t"/></g><path d="M63-220v92h138v28H63V0H30v-248h175v28H63" id="G"/><path d="M100-194c63 0 86 42 84 106H49c0 40 14 67 53 68 26 1 43-12 49-29l28 8c-11 28-37 45-77 45C44 4 14-33 15-96c1-61 26-98 85-98zm52 81c6-60-76-77-97-28-3 7-6 17-6 28h103" id="H"/><path d="M141-36C126-15 110 5 73 4 37 3 15-17 15-53c-1-64 63-63 125-63 3-35-9-54-41-54-24 1-41 7-42 31l-33-3c5-37 33-52 76-52 45 0 72 20 72 64v82c-1 20 7 32 28 27v20c-31 9-61-2-59-35zM48-53c0 20 12 33 32 33 41-3 63-29 60-74-43 2-92-5-92 41" id="I"/><path d="M59-47c-2 24 18 29 38 22v24C64 9 27 4 27-40v-127H5v-23h24l9-43h21v43h35v23H59v120" id="J"/><path d="M84 4C-5 8 30-112 23-190h32v120c0 31 7 50 39 49 72-2 45-101 50-169h31l1 190h-30c-1-10 1-25-2-33-11 22-28 36-60 37" id="K"/><path d="M114-163C36-179 61-72 57 0H25l-1-190h30c1 12-1 29 2 39 6-27 23-49 58-41v29" id="L"/><g id="g"><use transform="matrix(0.07407407407407406,0,0,0.07407407407407406,0,0)" xlink:href="#G"/><use transform="matrix(0.07407407407407406,0,0,0.07407407407407406,16.222222222222218,0)" xlink:href="#H"/><use transform="matrix(0.07407407407407406,0,0,0.07407407407407406,31.03703703703703,0)" xlink:href="#I"/><use transform="matrix(0.07407407407407406,0,0,0.07407407407407406,45.85185185185184,0)" xlink:href="#J"/><use transform="matrix(0.07407407407407406,0,0,0.07407407407407406,53.259259259259245,0)" xlink:href="#K"/><use transform="matrix(0.07407407407407406,0,0,0.07407407407407406,68.07407407407406,0)" xlink:href="#L"/><use transform="matrix(0.07407407407407406,0,0,0.07407407407407406,76.88888888888887,0)" xlink:href="#H"/></g><path d="M160-131c35 5 61 23 61 61C221 17 115-2 30 0v-248c76 3 177-17 177 60 0 33-19 50-47 57zm-97-11c50-1 110 9 110-42 0-47-63-36-110-37v79zm0 115c55-2 124 14 124-45 0-56-70-42-124-44v89" id="M"/><path d="M117-194c89-4 53 116 60 194h-32v-121c0-31-8-49-39-48C34-167 62-67 57 0H25l-1-190h30c1 10-1 24 2 32 11-22 29-35 61-36" id="N"/><path d="M96-169c-40 0-48 33-48 73s9 75 48 75c24 0 41-14 43-38l32 2c-6 37-31 61-74 61-59 0-76-41-82-99-10-93 101-131 147-64 4 7 5 14 7 22l-32 3c-4-21-16-35-41-35" id="O"/><path d="M106-169C34-169 62-67 57 0H25v-261h32l-1 103c12-21 28-36 61-36 89 0 53 116 60 194h-32v-121c2-32-8-49-39-48" id="P"/><g id="h"><use transform="matrix(0.07407407407407406,0,0,0.07407407407407406,0,0)" xlink:href="#M"/><use transform="matrix(0.07407407407407406,0,0,0.07407407407407406,17.777777777777775,0)" xlink:href="#L"/><use transform="matrix(0.07407407407407406,0,0,0.07407407407407406,26.592592592592585,0)" xlink:href="#I"/><use transform="matrix(0.07407407407407406,0,0,0.07407407407407406,41.4074074074074,0)" xlink:href="#N"/><use transform="matrix(0.07407407407407406,0,0,0.07407407407407406,56.22222222222221,0)" xlink:href="#O"/><use transform="matrix(0.07407407407407406,0,0,0.07407407407407406,69.55555555555554,0)" xlink:href="#P"/></g><path d="M240 0l2-218c-23 76-54 145-80 218h-23L58-218 59 0H30v-248h44l77 211c21-75 51-140 76-211h43V0h-30" id="Q"/><path d="M177-190C167-65 218 103 67 71c-23-6-38-20-44-43l32-5c15 47 100 32 89-28v-30C133-14 115 1 83 1 29 1 15-40 15-95c0-56 16-97 71-98 29-1 48 16 59 35 1-10 0-23 2-32h30zM94-22c36 0 50-32 50-73 0-42-14-75-50-75-39 0-46 34-46 75s6 73 46 73" id="R"/><g id="i"><use transform="matrix(0.07407407407407404,0,0,0.07407407407407404,0,0)" xlink:href="#Q"/><use transform="matrix(0.07407407407407404,0,0,0.07407407407407404,22.148148148148138,0)" xlink:href="#H"/><use transform="matrix(0.07407407407407404,0,0,0.07407407407407404,36.96296296296295,0)" xlink:href="#L"/><use transform="matrix(0.07407407407407404,0,0,0.07407407407407404,45.77777777777776,0)" xlink:href="#R"/><use transform="matrix(0.07407407407407404,0,0,0.07407407407407404,60.59259259259257,0)" xlink:href="#H"/></g><path d="M233-177c-1 41-23 64-60 70L243 0h-38l-65-103H63V0H30v-248c88 3 205-21 203 71zM63-129c60-2 137 13 137-47 0-61-80-42-137-45v92" id="S"/><path d="M145-31C134-9 116 4 85 4 32 4 16-35 15-94c0-59 17-99 70-100 32-1 48 14 60 33 0-11-1-24 2-32h30l-1 268h-32zM93-21c41 0 51-33 51-76s-8-73-50-73c-40 0-46 35-46 75s5 74 45 74" id="T"/><path d="M135-143c-3-34-86-38-87 0 15 53 115 12 119 90S17 21 10-45l28-5c4 36 97 45 98 0-10-56-113-15-118-90-4-57 82-63 122-42 12 7 21 19 24 35" id="U"/><g id="j"><use transform="matrix(0.07407407407407404,0,0,0.07407407407407404,0,0)" xlink:href="#S"/><use transform="matrix(0.07407407407407404,0,0,0.07407407407407404,19.185185185185176,0)" xlink:href="#H"/><use transform="matrix(0.07407407407407404,0,0,0.07407407407407404,33.999999999999986,0)" xlink:href="#T"/><use transform="matrix(0.07407407407407404,0,0,0.07407407407407404,48.814814814814795,0)" xlink:href="#K"/><use transform="matrix(0.07407407407407404,0,0,0.07407407407407404,63.629629629629605,0)" xlink:href="#H"/><use transform="matrix(0.07407407407407404,0,0,0.07407407407407404,78.44444444444441,0)" xlink:href="#U"/><use transform="matrix(0.07407407407407404,0,0,0.07407407407407404,91.77777777777774,0)" xlink:href="#J"/></g><path d="M844-1520c199 1 349 56 475 142v213c-119-110-257-189-463-189-358 0-528 236-528 609 0 372 170 608 528 608 206 0 344-79 463-189v211C1191-28 1043 27 844 29c-456 4-729-311-729-774 0-464 273-779 729-775" id="V"/><path d="M946-559c0-236-103-432-319-432-218 0-320 194-320 432 0 239 101 432 320 432 216 0 319-195 319-432zm-833 0c0-347 180-588 514-588 333 0 514 242 514 588S959 29 627 29c-333 0-514-242-514-588" id="W"/><path d="M733-1147c274 0 391 182 391 471V0H940v-670c0-195-67-315-248-317-203-3-321 145-321 354V0H186v-1120h185v174c79-119 182-201 362-201" id="X"/><path d="M565 0C277-5 190-82 190-369v-608H55v-143h135v-318h185v318h379v143H375v608c5 178 21 215 190 215h189V0H565" id="Y"/><path d="M193-1120h184V0H193v-1120zm0-436h184v233H193v-233" id="Z"/><path d="M567 29c-274 0-393-183-393-471v-678h184v671c0 195 67 316 248 318 203 3 322-145 322-354v-635h184V0H928v-172C848-52 748 29 567 29" id="aa"/><path d="M549-1147c138 1 258 21 358 60v174c-95-49-202-80-336-80-155 0-274 34-274 168 0 43 18 75 49 101 32 28 167 64 260 83 131 27 223 68 278 119s83 122 83 213C967-78 759 33 504 29 357 27 235-1 111-41v-190c117 60 239 104 397 106 147 2 270-43 270-170 0-50-19-86-50-115s-183-69-286-92c-197-44-323-106-323-315 0-230 181-332 430-330" id="ab"/><g id="k"><use transform="matrix(0.014105902777777771,0,0,0.014105902777777771,0,0)" xlink:href="#V"/><use transform="matrix(0.014105902777777771,0,0,0.014105902777777771,20.171440972222214,0)" xlink:href="#W"/><use transform="matrix(0.014105902777777771,0,0,0.014105902777777771,37.84613715277776,0)" xlink:href="#X"/><use transform="matrix(0.014105902777777771,0,0,0.014105902777777771,56.1555989583333,0)" xlink:href="#Y"/><use transform="matrix(0.014105902777777771,0,0,0.014105902777777771,67.48263888888886,0)" xlink:href="#Z"/><use transform="matrix(0.014105902777777771,0,0,0.014105902777777771,75.50889756944441,0)" xlink:href="#X"/><use transform="matrix(0.014105902777777771,0,0,0.014105902777777771,93.81835937499996,0)" xlink:href="#aa"/><use transform="matrix(0.014105902777777771,0,0,0.014105902777777771,112.1278211805555,0)" xlink:href="#W"/><use transform="matrix(0.014105902777777771,0,0,0.014105902777777771,129.80251736111106,0)" xlink:href="#aa"/><use transform="matrix(0.014105902777777771,0,0,0.014105902777777771,148.1119791666666,0)" xlink:href="#ab"/></g><path d="M201-1493h202V0H201v-1493" id="ac"/><path d="M662-1147c308 0 494 224 489 541v90H305c14 244 148 389 400 389 164 0 286-43 403-104v174C988-6 854 27 694 29c-352 4-581-227-581-578s207-598 549-598zm305 487c1-190-117-331-303-331-212 0-338 131-353 332" id="ad"/><path d="M616-154c219 0 314-181 314-419 0-239-95-420-314-420-218 0-313 182-313 420s95 419 313 419zm-45-993c181 0 289 75 359 197v-170h184v981c0 370-154 565-516 565-137 0-247-21-350-59V188c95 51 190 86 321 86 246 0 361-130 361-380v-91C860-75 752 0 571 0 278 0 113-259 113-573c0-315 164-574 458-574" id="ae"/><path d="M371-946c77-148 245-227 470-191l1 189c-40-23-87-35-148-35-222 1-323 158-323 393V0H186v-1120h185v174" id="af"/><path d="M547-125c226-2 354-189 338-438-167-2-418-1-492 51-55 38-86 92-86 174-1 135 100 214 240 213zm39-1022c330 0 483 173 483 508V0H885v-170C806-43 694 26 498 29c-221 3-379-138-375-355 5-279 201-382 504-381h258c7-193-124-285-318-284-145 1-261 37-362 92v-170c117-45 236-78 381-78" id="ag"/><g id="l"><use transform="matrix(0.014105902777777771,0,0,0.014105902777777771,0,0)" xlink:href="#ac"/><use transform="matrix(0.014105902777777771,0,0,0.014105902777777771,8.519965277777773,0)" xlink:href="#X"/><use transform="matrix(0.014105902777777771,0,0,0.014105902777777771,26.82942708333332,0)" xlink:href="#Y"/><use transform="matrix(0.014105902777777771,0,0,0.014105902777777771,38.15646701388887,0)" xlink:href="#ad"/><use transform="matrix(0.014105902777777771,0,0,0.014105902777777771,55.929904513888864,0)" xlink:href="#ae"/><use transform="matrix(0.014105902777777771,0,0,0.014105902777777771,74.26757812499997,0)" xlink:href="#af"/><use transform="matrix(0.014105902777777771,0,0,0.014105902777777771,86.14474826388886,0)" xlink:href="#ag"/><use transform="matrix(0.014105902777777771,0,0,0.014105902777777771,103.84765624999996,0)" xlink:href="#Y"/><use transform="matrix(0.014105902777777771,0,0,0.014105902777777771,115.17469618055551,0)" xlink:href="#Z"/><use transform="matrix(0.014105902777777771,0,0,0.014105902777777771,123.20095486111107,0)" xlink:href="#W"/><use transform="matrix(0.014105902777777771,0,0,0.014105902777777771,140.87565104166663,0)" xlink:href="#X"/></g></defs></g></svg>